# rich_15
v -0.26074981689453125 -0.145999938249588 -4.999999418942025e-07
v -0.20856231451034546 -0.145999938249588 -4.999999418942025e-07
v -0.15409362316131592 -0.026953067630529404 -4.999999418942025e-07
v -0.21225005388259888 0.03112506866455078 -4.999999418942025e-07
v -0.21225005388259888 0.20259380340576172 -4.999999418942025e-07
v -0.11023437231779099 0.30400004982948303 -4.999999418942025e-07
v 0.2607501149177551 0.30400004982948303 -4.999999418942025e-07
v 0.2607501149177551 0.14700007438659668 -4.999999418942025e-07
v 0.21875 0.14700007438659668 -4.999999418942025e-07
v 0.21875 -0.145999938249588 -4.999999418942025e-07
v 0.2607501149177551 -0.145999938249588 -4.999999418942025e-07
v 0.2607501149177551 -0.3039999306201935 -4.999999418942025e-07
v 0.013749999925494194 -0.3039999306201935 -4.999999418942025e-07
v 0.013749999925494194 -0.15699993073940277 -4.999999418942025e-07
v 0.04274993762373924 -0.15699993073940277 -4.999999418942025e-07
v 0.04274993762373924 -0.07499994337558746 -4.999999418942025e-07
v 0.0028594969771802425 -0.07499994337558746 -4.999999418942025e-07
v -0.03424987569451332 -0.15699993073940277 -4.999999418942025e-07
v -0.021250000223517418 -0.15882804989814758 -4.999999418942025e-07
v -0.021250000223517418 -0.3039999306201935 -4.999999418942025e-07
v -0.26074981689453125 -0.3039999306201935 -4.999999418942025e-07
v 0.037749938666820526 0.0830000638961792 -4.999999418942025e-07
v 0.037749938666820526 0.14700007438659668 -4.999999418942025e-07
v -0.03824981674551964 0.14700007438659668 -4.999999418942025e-07
v -0.03824981674551964 0.0830000638961792 -4.999999418942025e-07
g submesh_0
f 19 18 2
f 19 2 20
f 20 2 1
f 20 1 21
f 14 13 15
f 15 13 12
f 15 12 11
f 24 23 6
f 6 23 9
f 6 9 7
f 7 9 8
f 6 5 24
f 24 5 4
f 24 4 25
f 25 4 3
f 25 3 22
f 22 3 2
f 22 2 18
f 10 9 16
f 16 9 22
f 16 22 17
f 17 22 18
f 11 10 15
f 15 10 16
f 22 9 23
