# Inside
v -1.1254907596180974e-12 -5.792799573356433e-11 0.0005703652859665453
v -0.0014039482921361923 -1.1143662381751795e-11 0.0001789024390745908
v -0.00131927989423275 0.00048017874360084534 0.00017890259914565831
v -0.0010754867689684033 0.0009024405153468251 0.00017890259914565831
v -0.0007019740878604352 0.0012158548925071955 0.0001789024390745908
v -0.00024379295064136386 0.0013826191425323486 0.0001789024827303365
v 0.00024379313981626183 0.0013826191425323486 0.00017890235176309943
v 0.0007019743206910789 0.0012158546596765518 0.0001789023372111842
v 0.0010754868853837252 0.0009024404571391642 0.00017890246817842126
v 0.00131927989423275 0.0004801784234587103 0.00017890246817842126
v 0.0014039482921361923 -2.811201271768482e-10 0.0001789024390745908
v 0.00131927989423275 -0.0004801788309123367 0.0001789024827303365
v 0.0010754865361377597 -0.0009024407481774688 0.0001789024390745908
v 0.0007019737968221307 -0.0012158551253378391 0.0001789024390745908
v 0.00024379270325880498 -0.0013826192589476705 0.0001789024827303365
v -0.00024379341630265117 -0.0013826191425323486 0.00017890249728225172
v -0.0007019744371064007 -0.0012158546596765518 0.00017890246817842126
v -0.001075487001799047 -0.0009024401661008596 0.0001789024827303365
v -0.0013192801270633936 -0.0004801781033165753 0.00017890246817842126
v 0.0 -1.4424431649118219e-09 0.006244170479476452
v -0.0016575318295508623 -2.2584704939543343e-10 0.00624239444732666
v -0.0015575704164803028 0.0005669090314768255 0.00624239444732666
v -0.0012697428464889526 0.001065440708771348 0.00624239444732666
v -0.0008287659147754312 0.0014354645973071456 0.00624239444732666
v -0.00028782724984921515 0.0016323497984558344 0.00624239444732666
v 0.00028782765730284154 0.0016323497984558344 0.00624239444732666
v 0.0008287661476060748 0.0014354642480611801 0.0062423935160040855
v 0.0012697430793195963 0.001065440708771348 0.00624239444732666
v 0.0015575705328956246 0.0005669087404385209 0.00624239444732666
v 0.0016575318295508623 -6.142061859115699e-10 0.0062423935160040855
v 0.0015575704164803028 -0.0005669097299687564 0.0062423935160040855
v 0.0012697428464889526 -0.0010654412908479571 0.0062423935160040855
v 0.0008287655655294657 -0.0014354651793837547 0.00624239444732666
v 0.0002878269297070801 -0.0016323504969477654 0.00624239444732666
v -0.0002878278319258243 -0.0016323503805324435 0.0062423935160040855
v -0.0008287662640213966 -0.0014354645973071456 0.0062423935160040855
v -0.00126974331215024 -0.001065440708771348 0.00624239444732666
v -0.0015575705328956246 -0.0005669089150615036 0.00624239444732666
v -0.0014219731092453003 -2.7529799186826187e-12 0.00019054637232329696
v -0.001336217625066638 0.00048634345876052976 0.00019054637232329696
v -0.0010892944410443306 0.000914026633836329 0.00019054637232329696
v -0.0007109864382073283 0.0012314649065956473 0.00019054637232329696
v -0.0002469229220878333 0.001400369917973876 0.00019054637232329696
v 0.00024692315491847694 0.001400369917973876 0.00019054637232329696
v 0.000710986671037972 0.0012314646737650037 0.00019054637232329696
v 0.0010892945574596524 0.0009140264592133462 0.00019054637232329696
v 0.001336217625066638 0.0004863432259298861 0.00019054637232329696
v 0.0014219731092453003 -2.7904631383357525e-10 0.00019054635777138174
v 0.001336217625066638 -0.0004863436915911734 0.00019054637232329696
v 0.0010892943246290088 -0.0009140268666669726 0.00019054637232329696
v 0.0007109861471690238 -0.0012314650230109692 0.00019054637232329696
v 0.0002469226601533592 -0.0014003701508045197 0.00019054637232329696
v -0.0002469233877491206 -0.001400369917973876 0.00019054637232329696
v -0.0007109868456609547 -0.0012314645573496819 0.00019054637232329696
v -0.001089294790290296 -0.0009140262263827026 0.00019054637232329696
v -0.0013362177414819598 -0.0004863429057877511 0.00019054637232329696
v -1.1254907596180974e-12 -5.792799573356433e-11 0.0005703652859665453
v -1.1254907596180974e-12 -5.792799573356433e-11 0.0005703652859665453
v -1.1254907596180974e-12 -5.792799573356433e-11 0.0005703652859665453
v -1.1254907596180974e-12 -5.792799573356433e-11 0.0005703652859665453
v -0.0002469229220878333 0.001400369917973876 0.00019054637232329696
v -1.1254907596180974e-12 -5.792799573356433e-11 0.0005703652859665453
v 0.00024692315491847694 0.001400369917973876 0.00019054637232329696
v -1.1254907596180974e-12 -5.792799573356433e-11 0.0005703652859665453
v -1.1254907596180974e-12 -5.792799573356433e-11 0.0005703652859665453
v -1.1254907596180974e-12 -5.792799573356433e-11 0.0005703652859665453
v -1.1254907596180974e-12 -5.792799573356433e-11 0.0005703652859665453
v -1.1254907596180974e-12 -5.792799573356433e-11 0.0005703652859665453
v -1.1254907596180974e-12 -5.792799573356433e-11 0.0005703652859665453
v -1.1254907596180974e-12 -5.792799573356433e-11 0.0005703652859665453
v -1.1254907596180974e-12 -5.792799573356433e-11 0.0005703652859665453
v -1.1254907596180974e-12 -5.792799573356433e-11 0.0005703652859665453
v -1.1254907596180974e-12 -5.792799573356433e-11 0.0005703652859665453
v -1.1254907596180974e-12 -5.792799573356433e-11 0.0005703652859665453
v -1.1254907596180974e-12 -5.792799573356433e-11 0.0005703652859665453
v 0.00024379313981626183 0.0013826191425323486 0.00017890235176309943
v 0.00028782765730284154 0.0016323497984558344 0.00624239444732666
v -0.0016575318295508623 -2.2584704939543343e-10 0.00624239444732666
v -0.0015575704164803028 0.0005669090314768255 0.00624239444732666
v 0.0 -1.4424431649118219e-09 0.006244170479476452
v -0.0012697428464889526 0.001065440708771348 0.00624239444732666
v 0.0 -1.4424431649118219e-09 0.006244170479476452
v -0.0008287659147754312 0.0014354645973071456 0.00624239444732666
v 0.0 -1.4424431649118219e-09 0.006244170479476452
v -0.00028782724984921515 0.0016323497984558344 0.00624239444732666
v 0.0 -1.4424431649118219e-09 0.006244170479476452
v 0.00028782765730284154 0.0016323497984558344 0.00624239444732666
v 0.00028782765730284154 0.0016323497984558344 0.00624239444732666
v 0.0 -1.4424431649118219e-09 0.006244170479476452
v 0.0008287661476060748 0.0014354642480611801 0.0062423935160040855
v 0.0 -1.4424431649118219e-09 0.006244170479476452
v 0.0012697430793195963 0.001065440708771348 0.00624239444732666
v 0.0 -1.4424431649118219e-09 0.006244170479476452
v 0.0015575705328956246 0.0005669087404385209 0.00624239444732666
v 0.0 -1.4424431649118219e-09 0.006244170479476452
v 0.0016575318295508623 -6.142061859115699e-10 0.0062423935160040855
v 0.0 -1.4424431649118219e-09 0.006244170479476452
v 0.0015575704164803028 -0.0005669097299687564 0.0062423935160040855
v 0.0 -1.4424431649118219e-09 0.006244170479476452
v 0.0012697428464889526 -0.0010654412908479571 0.0062423935160040855
v 0.0 -1.4424431649118219e-09 0.006244170479476452
v 0.0008287655655294657 -0.0014354651793837547 0.00624239444732666
v 0.0 -1.4424431649118219e-09 0.006244170479476452
v 0.0002878269297070801 -0.0016323504969477654 0.00624239444732666
v 0.0 -1.4424431649118219e-09 0.006244170479476452
v -0.0002878278319258243 -0.0016323503805324435 0.0062423935160040855
v 0.0 -1.4424431649118219e-09 0.006244170479476452
v -0.0008287662640213966 -0.0014354645973071456 0.0062423935160040855
v 0.0 -1.4424431649118219e-09 0.006244170479476452
v -0.00126974331215024 -0.001065440708771348 0.00624239444732666
v 0.0 -1.4424431649118219e-09 0.006244170479476452
v -0.0015575705328956246 -0.0005669089150615036 0.00624239444732666
v 0.0 -1.4424431649118219e-09 0.006244170479476452
v -0.00131927989423275 0.00048017874360084534 0.00017890259914565831
v -0.0014219731092453003 -2.7529799186826187e-12 0.00019054637232329696
v -0.0014039482921361923 -1.1143662381751795e-11 0.0001789024390745908
v -0.001336217625066638 0.00048634345876052976 0.00019054637232329696
v -0.0010754867689684033 0.0009024405153468251 0.00017890259914565831
v -0.0010892944410443306 0.000914026633836329 0.00019054637232329696
v -0.0007019740878604352 0.0012158548925071955 0.0001789024390745908
v -0.0007109864382073283 0.0012314649065956473 0.00019054637232329696
v -0.00024379295064136386 0.0013826191425323486 0.0001789024827303365
v -0.0002469229220878333 0.001400369917973876 0.00019054637232329696
v 0.00024379313981626183 0.0013826191425323486 0.00017890235176309943
v 0.00024692315491847694 0.001400369917973876 0.00019054637232329696
v 0.0007019743206910789 0.0012158546596765518 0.0001789023372111842
v 0.00024692315491847694 0.001400369917973876 0.00019054637232329696
v 0.00024379313981626183 0.0013826191425323486 0.00017890235176309943
v 0.000710986671037972 0.0012314646737650037 0.00019054637232329696
v 0.0010754868853837252 0.0009024404571391642 0.00017890246817842126
v 0.0010892945574596524 0.0009140264592133462 0.00019054637232329696
v 0.00131927989423275 0.0004801784234587103 0.00017890246817842126
v 0.001336217625066638 0.0004863432259298861 0.00019054637232329696
v 0.0014039482921361923 -2.811201271768482e-10 0.0001789024390745908
v 0.0014219731092453003 -2.7904631383357525e-10 0.00019054635777138174
v 0.00131927989423275 -0.0004801788309123367 0.0001789024827303365
v 0.001336217625066638 -0.0004863436915911734 0.00019054637232329696
v 0.0010754865361377597 -0.0009024407481774688 0.0001789024390745908
v 0.0010892943246290088 -0.0009140268666669726 0.00019054637232329696
v 0.0007019737968221307 -0.0012158551253378391 0.0001789024390745908
v 0.0007109861471690238 -0.0012314650230109692 0.00019054637232329696
v 0.00024379270325880498 -0.0013826192589476705 0.0001789024827303365
v 0.0002469226601533592 -0.0014003701508045197 0.00019054637232329696
v -0.00024379341630265117 -0.0013826191425323486 0.00017890249728225172
v -0.0002469233877491206 -0.001400369917973876 0.00019054637232329696
v -0.0007019744371064007 -0.0012158546596765518 0.00017890246817842126
v -0.0007109868456609547 -0.0012314645573496819 0.00019054637232329696
v -0.001075487001799047 -0.0009024401661008596 0.0001789024827303365
v -0.001089294790290296 -0.0009140262263827026 0.00019054637232329696
v -0.0013192801270633936 -0.0004801781033165753 0.00017890246817842126
v -0.0013362177414819598 -0.0004863429057877511 0.00019054637232329696
g submesh_0
f 40 1 39
f 41 57 40
f 42 58 41
f 43 59 42
f 44 60 61
f 45 62 63
f 46 64 45
f 47 65 46
f 48 66 47
f 49 67 48
f 50 68 49
f 51 69 50
f 52 70 51
f 53 71 52
f 54 72 53
f 55 73 54
f 56 74 55
f 39 75 56
f 79 78 20
f 81 79 80
f 83 81 82
f 85 83 84
f 87 85 86
f 90 88 89
f 92 90 91
f 94 92 93
f 96 94 95
f 98 96 97
f 100 98 99
f 102 100 101
f 104 102 103
f 106 104 105
f 108 106 107
f 110 108 109
f 112 110 111
f 78 112 113
f 76 77 27
f 76 27 8
f 8 27 28
f 8 28 9
f 9 28 29
f 9 29 10
f 10 29 30
f 10 30 11
f 11 30 31
f 11 31 12
f 12 31 32
f 12 32 13
f 13 32 33
f 13 33 14
f 14 33 34
f 14 34 15
f 15 34 35
f 15 35 16
f 16 35 36
f 16 36 17
f 17 36 37
f 17 37 18
f 18 37 38
f 18 38 19
f 19 38 21
f 19 21 2
f 2 21 22
f 2 22 3
f 3 22 23
f 3 23 4
f 4 23 24
f 4 24 5
f 5 24 25
f 5 25 6
f 6 25 26
f 6 26 7
f 127 128 126
f 127 126 129
f 129 126 130
f 129 130 131
f 131 130 132
f 131 132 133
f 133 132 134
f 133 134 135
f 135 134 136
f 135 136 137
f 137 136 138
f 137 138 139
f 139 138 140
f 139 140 141
f 141 140 142
f 141 142 143
f 143 142 144
f 143 144 145
f 145 144 146
f 145 146 147
f 147 146 148
f 147 148 149
f 149 148 150
f 149 150 151
f 151 150 116
f 151 116 115
f 115 116 114
f 115 114 117
f 117 114 118
f 117 118 119
f 119 118 120
f 119 120 121
f 121 120 122
f 121 122 123
f 123 122 124
f 123 124 125
