# round_01
v 1.784773349761963 0.22619011998176575 -2.2573276581283608e-08
v 1.4748666286468506 -0.010323140770196915 -1.157522078187867e-08
v 1.134063959121704 -0.19962216913700104 -3.991458275010018e-09
v 0.7695043087005615 -0.3377414643764496 3.1672242606362033e-10
v 0.38882479071617126 -0.4217875897884369 1.556667239555054e-09
v 2.418587830010921e-10 -0.44999998807907104 1.057198282362282e-17
v -0.38882479071617126 -0.4217875897884369 -4.023072541770034e-09
v -0.7695043087005615 -0.3377414643764496 -1.013067496558051e-08
v -1.134063959121704 -0.19962216913700104 -1.7897265891519964e-08
v -1.4748666286468506 -0.01032314170151949 -2.6862545965400386e-08
v -1.784773349761963 0.22619011998176575 -3.6541131009926175e-08
v 1.188415288925171 0.9002501964569092 -3.87647922650558e-08
v 0.9820597767829895 0.7427647113800049 -2.6694765509205354e-08
v 0.7551316618919373 0.6167174577713013 -1.6898201948833957e-08
v 0.5123847723007202 0.5247488021850586 -9.282727475579122e-09
v 0.25890418887138367 0.4687855839729309 -3.7102836358826607e-09
v 1.6104491351587313e-10 0.44999998807907104 7.039497264367153e-18
v -0.25890418887138367 0.4687855839729309 2.0679964407577245e-09
v -0.5123847723007202 0.5247488021850586 2.7479789554973877e-09
v -0.7551316618919373 0.6167174577713013 2.3232973322961925e-09
v -0.9820597767829895 0.7427647113800049 1.1004521738300355e-09
v -1.188415288925171 0.9002501964569092 -5.973470051934271e-10
g submesh_0
f 22 11 10
f 22 10 21
f 21 10 9
f 21 9 20
f 20 9 8
f 20 8 19
f 19 8 7
f 19 7 18
f 18 7 6
f 18 6 17
f 17 6 5
f 17 5 16
f 16 5 4
f 16 4 15
f 15 4 3
f 15 3 14
f 14 3 2
f 14 2 13
f 13 2 1
f 13 1 12
