# Root
v 2.2340619721949576e-23 1.1940111122044073e-08 0.000215515261515975
v -0.0017563499277457595 1.1940112010222492e-08 1.2834537301387172e-05
v -0.001696504303254187 0.0004545858537312597 1.2834560038754717e-05
v -0.0015210473211482167 0.0008781807846389711 1.2834570952691138e-05
v -0.0012419302947819233 0.0012419361155480146 1.2834595509048086e-05
v -0.0008781749638728797 0.001521035097539425 1.2834606422984507e-05
v -0.00045457991654984653 0.0016965102404356003 1.2834606422984507e-05
v -5.8712456834304414e-18 0.0017563499277457595 1.2834606422984507e-05
v 0.00045457991654984653 0.0016965100076049566 1.2834606422984507e-05
v 0.0008781749638728797 0.001521035097539425 1.2834606422984507e-05
v 0.0012419302947819233 0.0012419361155480146 1.2834595509048086e-05
v 0.0015210473211482167 0.0008781807846389711 1.2834570952691138e-05
v 0.001696504303254187 0.0004545857955235988 1.2834560038754717e-05
v 0.0017563499277457595 1.1940111122044073e-08 1.2834537301387172e-05
v 0.001696504303254187 -0.0004545860574580729 1.2834512745030224e-05
v 0.0015210473211482167 -0.0008781810756772757 1.2834501831093803e-05
v 0.0012419302947819233 -0.0012419364647939801 1.1954753972531762e-05
v 0.0008781749638728797 -0.0015210354467853904 1.2834466360800434e-05
v 0.00045457991654984653 -0.001696510473266244 1.2834466360800434e-05
v -5.710646913142046e-18 -0.0017563499277457595 1.2834466360800434e-05
v -0.00045457991654984653 -0.0016965102404356003 1.2834466360800434e-05
v -0.0008781749638728797 -0.0015210354467853904 1.2834466360800434e-05
v -0.0012419302947819233 -0.0012419364647939801 1.2834478184231557e-05
v -0.0015210473211482167 -0.0008781810756772757 1.2834501831093803e-05
v -0.001696504303254187 -0.000454585999250412 1.2834512745030224e-05
v -0.0018677004845812917 1.1940112010222492e-08 6.983379716984928e-05
v -0.0018040577415376902 0.0004833983548451215 6.983381899772212e-05
v -0.0016174742486327887 0.0009338562958873808 6.983384082559496e-05
v -0.0013206592993810773 0.0013206710573285818 6.983385537751019e-05
v -0.0009338502422906458 0.0016174622578546405 6.98338626534678e-05
v -0.0004833985003642738 0.0018040577415376902 6.98338626534678e-05
v -3.2712151861068125e-18 0.0018677004845812917 6.983387720538303e-05
v 0.0004833985003642738 0.0018040575087070465 6.98338626534678e-05
v 0.0009338502422906458 0.0016174620250239968 6.98338626534678e-05
v 0.0013206592993810773 0.0013206710573285818 6.983385537751019e-05
v 0.0016174742486327887 0.0009338562958873808 6.983384082559496e-05
v 0.0018040577415376902 0.00048339832574129105 6.983381899772212e-05
v 0.0018677004845812917 1.1940112010222492e-08 6.983379716984928e-05
v 0.0018040577415376902 -0.0004833986167795956 6.983377534197643e-05
v 0.0016174742486327887 -0.0009338563540950418 6.983375351410359e-05
v 0.0013206592993810773 -0.0013206715229898691 6.983373168623075e-05
v 0.0009338502422906458 -0.0016174864722415805 6.983372441027313e-05
v 0.0004833985003642738 -0.001804057857953012 6.983372441027313e-05
v -2.706296115871632e-18 -0.0018677004845812917 6.98337098583579e-05
v -0.0004833985003642738 -0.0018040577415376902 6.983372441027313e-05
v -0.0009338502422906458 -0.0016174622578546405 6.983372441027313e-05
v -0.0013206592993810773 -0.0013206715229898691 6.983373168623075e-05
v -0.0016174742486327887 -0.0009338563540950418 6.983375351410359e-05
v -0.0018040577415376902 -0.00048339858767576516 6.983377534197643e-05
v -0.0018462067237123847 8.855679745067846e-09 0.0030035434756428003
v -0.0018141531618312001 0.00048609203076921403 0.0029665513429790735
v -0.0016265237936750054 0.0009390718769282103 0.00296655111014843
v -0.0013280522543936968 0.0013280523708090186 0.00296655111014843
v -0.0009390763589181006 0.0016265325248241425 0.0029665513429790735
v -0.0004861009365413338 0.0018141531618312001 0.0029665513429790735
v -4.2300192592711156e-18 0.0018781527178362012 0.0029665513429790735
v 0.0004861009365413338 0.0018141531618312001 0.0029665513429790735
v 0.0009390763589181006 0.0016265325248241425 0.0029665513429790735
v 0.0013280522543936968 0.0013280522543936968 0.00296655111014843
v 0.0016265237936750054 0.0009390718769282103 0.00296655111014843
v 0.0018141531618312001 0.00048609203076921403 0.0029665513429790735
v 0.0018781482940539718 8.855679745067846e-09 0.00296655111014843
v 0.0018141531618312001 -0.0004861098132096231 0.0029665513429790735
v 0.0016265237936750054 -0.000939072051551193 0.00296655111014843
v 0.0013280522543936968 -0.0013280526036396623 0.00296655111014843
v 0.0009390763589181006 -0.0016265329904854298 0.0029665513429790735
v 0.0004861009365413338 -0.001814153278246522 0.0029665513429790735
v -4.037951643349059e-18 -0.0018781527178362012 0.0029665513429790735
v -0.0004861009365413338 -0.0018141531618312001 0.0029665513429790735
v -0.0009390763589181006 -0.0016265325248241425 0.0029665513429790735
v -0.0013280522543936968 -0.0013280523708090186 0.00296655111014843
v -0.0016265237936750054 -0.000939072051551193 0.00296655111014843
v -0.0018141531618312001 -0.0004861098132096231 0.0029665513429790735
v -0.0017716543516144156 8.855680633246266e-09 0.0030035434756428003
v -0.0017112856730818748 0.0004585344868246466 0.0030035434756428003
v -0.0015342998085543513 0.0008858181536197662 0.0030035434756428003
v -0.0012527512153610587 0.001252742251381278 0.0030035434756428003
v -0.0008858271758072078 0.001534295384772122 0.0030035434756428003
v -0.0004585389979183674 0.0017112856730818748 0.0030035434756428003
v -4.488150481995332e-18 0.0017716631991788745 0.0030035434756428003
v 0.0004585389979183674 0.001711285556666553 0.0030035434756428003
v 0.0008858271758072078 0.0015342951519414783 0.0030035434756428003
v 0.0012527512153610587 0.001252742251381278 0.0030035434756428003
v 0.0015342998085543513 0.0008858181536197662 0.0030035434756428003
v 0.0017112856730818748 0.0004585344868246466 0.0030035434756428003
v 0.0017716543516144156 8.855679745067846e-09 0.0030035434756428003
v 0.0017112856730818748 -0.00045853466144762933 0.0030035434756428003
v 0.0015342998085543513 -0.0008858360815793276 0.0030035434756428003
v 0.0012527512153610587 -0.0012527423677965999 0.0030035434756428003
v 0.0008858271758072078 -0.0015342955011874437 0.0030035434756428003
v 0.0004585389979183674 -0.0017112860223278403 0.0030035434756428003
v -3.825104423259058e-18 -0.0017716631991788745 0.0030035434756428003
v -0.0004585389979183674 -0.0017112856730818748 0.0030035434756428003
v -0.0008858271758072078 -0.001534295384772122 0.0030035434756428003
v -0.0012527512153610587 -0.001252742251381278 0.0030035434756428003
v -0.0015342998085543513 -0.0008858360815793276 0.0030035434756428003
v -0.0017112856730818748 -0.00045853466144762933 0.0030035434756428003
v -0.0018781482940539718 8.855678856889426e-09 0.00296655111014843
v -0.0017832997255027294 0.00047782674664631486 0.0030035434756428003
v -0.001598863280378282 0.0009230991709046066 0.0030035434756428003
v -0.001305467914789915 0.0013054651208221912 0.0030035434756428003
v -0.0009231066214852035 0.0015988701488822699 0.0030035434756428003
v -0.0004778342554345727 0.0017833001911640167 0.0030035434756428003
v -4.33095142402453e-18 0.0018462110310792923 0.0030035434756428003
v 0.0004778342554345727 0.0017832998419180512 0.0030035434756428003
v 0.0009231066214852035 0.0015988697996363044 0.0030035434756428003
v 0.001305467914789915 0.0013054648879915476 0.0030035434756428003
v 0.001598863280378282 0.0009230991126969457 0.0030035434756428003
v 0.0017832997255027294 0.00047782674664631486 0.0030035434756428003
v 0.0018462067237123847 8.855679745067846e-09 0.0030035434756428003
v 0.0017833014717325568 -0.00047783914487808943 0.0030035434756428003
v 0.0015988607192412019 -0.0009231038857251406 0.0030035434756428003
v 0.001305467914789915 -0.0013054651208221912 0.0030035434756428003
v 0.0009231066214852035 -0.0015988702652975917 0.0030035434756428003
v 0.0004778342554345727 -0.0017833001911640167 0.0030035434756428003
v -3.9823034812298604e-18 -0.0018462110310792923 0.0030035434756428003
v -0.0004778342554345727 -0.0017833001911640167 0.0030035434756428003
v -0.0009231066214852035 -0.0015988701488822699 0.0030035434756428003
v -0.001305467914789915 -0.0013054651208221912 0.0030035434756428003
v -0.0015988607192412019 -0.0009231038857251406 0.0030035434756428003
v -0.0017833014717325568 -0.00047783914487808943 0.0030035434756428003
v -0.0018700292566791177 1.125261750445361e-08 0.0007154886843636632
v -0.001806307933293283 0.0004839987668674439 0.0007154886261560023
v -0.001619491376914084 0.0009350188774988055 0.0007154886261560023
v -0.0013223071582615376 0.0013223163550719619 0.0007154886261560023
v -0.0009350151522085071 0.0016194840427488089 0.0007154886261560023
v -0.00048400083323940635 0.001806307933293283 0.0007154886261560023
v -3.4849247419854e-18 0.0018700303044170141 0.0007154886261560023
v 0.00048400083323940635 0.0018063077004626393 0.0007154886261560023
v 0.0009350151522085071 0.0016194838099181652 0.0007154886261560023
v 0.0013223071582615376 0.0013223163550719619 0.0007154886261560023
v 0.001619491376914084 0.0009350188774988055 0.0007154886261560023
v 0.001806307933293283 0.000483998708659783 0.0007154886261560023
v 0.0018700292566791177 1.125261750445361e-08 0.0007154886261560023
v 0.001806307933293283 -0.0004840028996113688 0.0007154886261560023
v 0.0016194912604987621 -0.0009350188774988055 0.0007154886261560023
v 0.0013223071582615376 -0.0013223168207332492 0.0007154886843636632
v 0.0009350150357931852 -0.0016195029020309448 0.0007154886261560023
v 0.00048400083323940635 -0.0018063081661239266 0.0007154886261560023
v -3.0031112671225034e-18 -0.0018700300715863705 0.0007154886261560023
v -0.00048400083323940635 -0.001806307933293283 0.0007154886261560023
v -0.0009350150357931852 -0.001619483926333487 0.0007154886261560023
v -0.0013223071582615376 -0.0013223168207332492 0.0007154886843636632
v -0.0016194912604987621 -0.0009350188774988055 0.0007154886261560023
v -0.001806307933293283 -0.0004840028996113688 0.0007154886261560023
v -4.2300192592711156e-18 0.0018781527178362012 0.0029665513429790735
v -3.4849247419854e-18 0.0018700303044170141 0.0007154886261560023
v -4.33095142402453e-18 0.0018462110310792923 0.0030035434756428003
v -4.488150481995332e-18 0.0017716631991788745 0.0030035434756428003
v -0.0018781482940539718 8.855678856889426e-09 0.00296655111014843
v -0.0017832997255027294 0.00047782674664631486 0.0030035434756428003
v -0.0018462067237123847 8.855679745067846e-09 0.0030035434756428003
v -0.001598863280378282 0.0009230991709046066 0.0030035434756428003
v -0.001305467914789915 0.0013054651208221912 0.0030035434756428003
v -0.0009231066214852035 0.0015988701488822699 0.0030035434756428003
v -0.0004778342554345727 0.0017833001911640167 0.0030035434756428003
v -4.33095142402453e-18 0.0018462110310792923 0.0030035434756428003
v 0.0004778342554345727 0.0017832998419180512 0.0030035434756428003
v -4.33095142402453e-18 0.0018462110310792923 0.0030035434756428003
v 0.0009231066214852035 0.0015988697996363044 0.0030035434756428003
v 0.001305467914789915 0.0013054648879915476 0.0030035434756428003
v 0.001598863280378282 0.0009230991126969457 0.0030035434756428003
v 0.0017832997255027294 0.00047782674664631486 0.0030035434756428003
v 0.0018462067237123847 8.855679745067846e-09 0.0030035434756428003
v 0.0017833014717325568 -0.00047783914487808943 0.0030035434756428003
v 0.0015988607192412019 -0.0009231038857251406 0.0030035434756428003
v 0.001305467914789915 -0.0013054651208221912 0.0030035434756428003
v 0.0009231066214852035 -0.0015988702652975917 0.0030035434756428003
v 0.0004778342554345727 -0.0017833001911640167 0.0030035434756428003
v -3.9823034812298604e-18 -0.0018462110310792923 0.0030035434756428003
v -0.0004778342554345727 -0.0017833001911640167 0.0030035434756428003
v -0.0009231066214852035 -0.0015988701488822699 0.0030035434756428003
v -0.001305467914789915 -0.0013054651208221912 0.0030035434756428003
v -0.0015988607192412019 -0.0009231038857251406 0.0030035434756428003
v -0.0017833014717325568 -0.00047783914487808943 0.0030035434756428003
v -0.0018677004845812917 1.1940112010222492e-08 6.983379716984928e-05
v -0.0018040577415376902 0.0004833983548451215 6.983381899772212e-05
v -0.0016174742486327887 0.0009338562958873808 6.983384082559496e-05
v -0.0013206592993810773 0.0013206710573285818 6.983385537751019e-05
v -0.0009338502422906458 0.0016174622578546405 6.98338626534678e-05
v -0.0004833985003642738 0.0018040577415376902 6.98338626534678e-05
v -3.2712151861068125e-18 0.0018677004845812917 6.983387720538303e-05
v -3.2712151861068125e-18 0.0018677004845812917 6.983387720538303e-05
v 0.0004833985003642738 0.0018040575087070465 6.98338626534678e-05
v 0.0009338502422906458 0.0016174620250239968 6.98338626534678e-05
v 0.0013206592993810773 0.0013206710573285818 6.983385537751019e-05
v 0.0016174742486327887 0.0009338562958873808 6.983384082559496e-05
v 0.0018040577415376902 0.00048339832574129105 6.983381899772212e-05
v 0.0018677004845812917 1.1940112010222492e-08 6.983379716984928e-05
v 0.0018677004845812917 1.1940112010222492e-08 6.983379716984928e-05
v 0.0018040577415376902 -0.0004833986167795956 6.983377534197643e-05
v 0.0016174742486327887 -0.0009338563540950418 6.983375351410359e-05
v 0.0013206592993810773 -0.0013206715229898691 6.983373168623075e-05
v 0.0009338502422906458 -0.0016174864722415805 6.983372441027313e-05
v 0.0004833985003642738 -0.001804057857953012 6.983372441027313e-05
v -2.706296115871632e-18 -0.0018677004845812917 6.98337098583579e-05
v -0.0004833985003642738 -0.0018040577415376902 6.983372441027313e-05
v -0.0009338502422906458 -0.0016174622578546405 6.983372441027313e-05
v -0.0013206592993810773 -0.0013206715229898691 6.983373168623075e-05
v -0.0016174742486327887 -0.0009338563540950418 6.983375351410359e-05
v -0.0018040577415376902 -0.00048339858767576516 6.983377534197643e-05
v -0.0018677004845812917 1.1940112010222492e-08 6.983379716984928e-05
g submesh_0
f 148 149 81
f 148 81 105
f 105 81 82
f 105 82 106
f 106 82 83
f 106 83 107
f 107 83 84
f 107 84 108
f 108 84 85
f 108 85 109
f 109 85 86
f 109 86 110
f 110 86 87
f 110 87 111
f 111 87 88
f 111 88 112
f 112 88 89
f 112 89 113
f 113 89 90
f 113 90 114
f 114 90 91
f 114 91 115
f 115 91 92
f 115 92 116
f 116 92 93
f 116 93 117
f 117 93 94
f 117 94 118
f 118 94 95
f 118 95 119
f 119 95 96
f 119 96 120
f 120 96 97
f 120 97 121
f 121 97 74
f 121 74 50
f 50 74 75
f 50 75 99
f 99 75 76
f 99 76 100
f 100 76 77
f 100 77 101
f 101 77 78
f 101 78 102
f 102 78 79
f 102 79 103
f 103 79 80
f 103 80 104
f 157 56 55
f 157 55 156
f 156 55 54
f 156 54 155
f 155 54 53
f 155 53 154
f 154 53 52
f 154 52 153
f 153 52 51
f 153 51 151
f 151 51 150
f 151 150 152
f 152 150 73
f 152 73 175
f 175 73 72
f 175 72 174
f 174 72 71
f 174 71 173
f 173 71 70
f 173 70 172
f 172 70 69
f 172 69 171
f 171 69 68
f 171 68 170
f 170 68 67
f 170 67 169
f 169 67 66
f 169 66 168
f 168 66 65
f 168 65 167
f 167 65 64
f 167 64 166
f 166 64 63
f 166 63 165
f 165 63 62
f 165 62 164
f 164 62 61
f 164 61 163
f 163 61 60
f 163 60 162
f 162 60 59
f 162 59 161
f 161 59 58
f 161 58 160
f 160 58 57
f 160 57 158
f 158 57 146
f 158 146 159
f 176 122 123
f 176 123 177
f 177 123 124
f 177 124 178
f 178 124 125
f 178 125 179
f 179 125 126
f 179 126 180
f 180 126 127
f 180 127 181
f 181 127 128
f 181 128 182
f 183 147 129
f 183 129 184
f 184 129 130
f 184 130 185
f 185 130 131
f 185 131 186
f 186 131 132
f 186 132 187
f 187 132 133
f 187 133 188
f 188 133 134
f 188 134 189
f 190 134 135
f 190 135 191
f 191 135 136
f 191 136 192
f 192 136 137
f 192 137 193
f 193 137 138
f 193 138 194
f 194 138 139
f 194 139 195
f 195 139 140
f 195 140 196
f 196 140 141
f 196 141 197
f 197 141 142
f 197 142 198
f 198 142 143
f 198 143 199
f 199 143 144
f 199 144 200
f 200 144 145
f 200 145 201
f 201 145 122
f 201 122 202
f 2 27 3
f 3 27 28
f 3 28 4
f 4 28 29
f 4 29 5
f 5 29 30
f 5 30 6
f 6 30 31
f 6 31 7
f 7 31 32
f 7 32 8
f 8 32 33
f 8 33 9
f 9 33 34
f 9 34 10
f 10 34 35
f 10 35 11
f 11 35 36
f 11 36 12
f 12 36 37
f 12 37 13
f 13 37 38
f 13 38 14
f 14 38 39
f 14 39 15
f 15 39 40
f 15 40 16
f 16 40 41
f 16 41 17
f 17 41 42
f 17 42 18
f 18 42 43
f 18 43 19
f 19 43 44
f 19 44 20
f 20 44 45
f 20 45 21
f 21 45 46
f 21 46 22
f 22 46 47
f 22 47 23
f 23 47 48
f 23 48 24
f 24 48 49
f 24 49 25
f 25 49 26
f 25 26 2
f 2 26 27
f 147 146 129
f 129 146 57
f 129 57 130
f 130 57 58
f 130 58 131
f 131 58 59
f 131 59 132
f 132 59 60
f 132 60 133
f 133 60 61
f 133 61 134
f 134 61 62
f 134 62 135
f 135 62 63
f 135 63 136
f 136 63 64
f 136 64 137
f 137 64 65
f 137 65 138
f 138 65 66
f 138 66 139
f 139 66 67
f 139 67 140
f 140 67 68
f 140 68 141
f 141 68 69
f 141 69 142
f 142 69 70
f 142 70 143
f 143 70 71
f 143 71 144
f 144 71 72
f 144 72 145
f 145 72 73
f 145 73 122
f 122 73 98
f 122 98 123
f 123 98 51
f 123 51 124
f 124 51 52
f 124 52 125
f 125 52 53
f 125 53 126
f 126 53 54
f 126 54 127
f 127 54 55
f 127 55 128
f 128 55 56
f 24 25 1
f 1 25 2
f 1 2 3
f 3 4 1
f 1 4 5
f 1 5 6
f 6 7 1
f 1 7 8
f 1 8 9
f 9 10 1
f 1 10 11
f 1 11 12
f 12 13 1
f 1 13 14
f 1 14 15
f 15 16 1
f 1 16 17
f 1 17 18
f 18 19 1
f 1 19 20
f 1 20 21
f 21 22 1
f 1 22 23
f 1 23 24
