# hula_00
v -0.0023379665799438953 0.004409027751535177 0.0051536899991333485
v -0.0028236955404281616 0.0036869882605969906 0.005102817434817553
v -0.0034518614411354065 0.0032246317714452744 0.005195605102926493
v -0.003954397514462471 0.004098688717931509 0.005127605516463518
v -0.003998915199190378 0.004928810987621546 0.005186945199966431
v -0.00324001582339406 0.006073928903788328 0.002291294978931546
v -0.0034401847515255213 0.005566495470702648 0.005418612156063318
v -0.002191305160522461 0.006092299707233906 0.0023239392321556807
v -0.0028439201414585114 0.005844695493578911 0.005573722533881664
v -0.002595521043986082 0.0053929598070681095 0.005398559849709272
v -0.0016340030124410987 0.005301530938595533 0.0023536584340035915
v -0.0019530071876943111 0.0040855142287909985 0.0022450636606663465
v -0.004277242347598076 0.00516959372907877 0.0022313573863357306
v -0.002721677301451564 0.0026832998264580965 0.002440154552459717
v -0.0029832825530320406 0.002189884427934885 0.004088830668479204
v -0.0044004544615745544 0.0013328042114153504 0.004380723927170038
v -0.004989688750356436 0.003152472898364067 0.0036613293923437595
v -0.004998281132429838 0.0038895311299711466 0.0024603058118373156
v -0.00497604813426733 -0.00035963751724921167 0.003801272949203849
v -0.004185795318335295 -0.0004079806385561824 0.003778481390327215
v -0.005099339876323938 -0.0006757578812539577 0.0027564738411456347
v -0.004076018929481506 -0.0007776309503242373 0.002610399154946208
v -0.005698223132640123 0.000608544796705246 0.0034916421864181757
v -0.005888697225600481 0.0003235256881453097 0.00247226282954216
v -0.0034579485654830933 0.0008058255189098418 0.0040094018913805485
v -0.005524012725800276 0.0018037291010841727 0.0036243568174540997
v -0.0032156272791326046 0.0007245996966958046 0.0023531303741037846
v -0.005762866698205471 0.002185369608923793 0.002360924379900098
v 0.002987424610182643 0.0007817795849405229 0.005109806545078754
v 0.003465561429038644 5.468994640978053e-05 0.004945589695125818
v 0.0029779011383652687 0.0013309511123225093 0.0021529810037463903
v 0.0019571904558688402 0.0015721238451078534 0.002187358448281884
v 0.002388399327173829 0.0011395588517189026 0.005245293956249952
v 0.0020948273595422506 0.0006915705744177103 0.005135511048138142
v 0.0012437165714800358 0.0009181862114928663 0.0021976071875542402
v 0.0017184121534228325 -0.0002983862650580704 0.00515971751883626
v 0.0012960664462298155 -0.00033478596014901996 0.0020577090326696634
v 0.002124971244484186 -0.0010806233622133732 0.00517630809918046
v 0.0033295345492661 -0.0007814650307409465 0.004996050149202347
v 0.0037982636131346226 0.00022769495262764394 0.0020687829237431288
v 0.0017466371646150947 -0.0018732970347627997 0.002216103719547391
v 0.0018897923873737454 -0.0024524808395653963 0.0038513662293553352
v 0.0026970484759658575 -0.001601188792847097 0.0051925648003816605
v 0.0030899213161319494 -0.0035996027290821075 0.004119630437344313
v 0.004057304933667183 -0.0019303456647321582 0.0034460751339793205
v 0.004228249192237854 -0.001182198291644454 0.0022641958203166723
v 0.0032931738533079624 -0.005360833369195461 0.00349658471532166
v 0.0025109373964369297 -0.005238637328147888 0.003473524935543537
v 0.003350538434460759 -0.005669637583196163 0.002443925943225622
v 0.0023297052830457687 -0.005546827334910631 0.0022965429816395044
v 0.004206801764667034 -0.00456182612106204 0.003210818162187934
v 0.0043363324366509914 -0.004855250474065542 0.002184284618124366
v 0.002058192389085889 -0.0039035503286868334 0.0037361534778028727
v 0.0042913504876196384 -0.003360738977789879 0.0033741311635822058
v 0.0018111601239070296 -0.0038894833996891975 0.002078643999993801
v 0.00461158249527216 -0.0030073150992393494 0.0021205388475209475
v 0.0015162620693445206 -5.022172263124958e-05 0.010151139460504055
v 0.0018071080558001995 -0.0008530768100172281 0.010157087817788124
v 0.003170907963067293 -0.0015956599963828921 0.010164341889321804
v 0.003976272884756327 -0.0011250347597524524 0.010162410326302052
v 0.00445666303858161 0.000203122544917278 0.01015410479158163
v 0.003612798172980547 0.001350276404991746 0.010342387482523918
v 0.0028588019777089357 0.0016590324230492115 0.010329948738217354
v 0.0017814772436395288 0.0009085949859581888 0.010145003907382488
v 0.004741044715046883 0.0006040478474460542 0.012529173865914345
v 0.0010700183920562267 0.0003696335479617119 0.012532733380794525
v 0.0013627191074192524 -0.0007576081552542746 0.012797268107533455
v 0.003381437622010708 -0.0018137773731723428 0.012818150222301483
v 0.0019927409011870623 -0.0011787514667958021 0.012805202975869179
v 0.004492793697863817 -0.0009763249545358121 0.012807616963982582
v 0.004214519169181585 0.0015235492028295994 0.012319241650402546
v 0.003601481206715107 0.002112816320732236 0.01224545668810606
v 0.00282733584754169 0.00212127435952425 0.012317219749093056
v 0.0020982716232538223 0.002110738307237625 0.012231568805873394
v 0.0014593955129384995 0.0012741927057504654 0.012288280762732029
v 0.0016230656765401363 -0.0011225860798731446 0.015639888122677803
v 0.0013420613249763846 -1.2050566510879435e-05 0.01561747957020998
v 0.002612902084365487 -0.001947688520886004 0.015475712716579437
v 0.0036098493728786707 -0.0016724803717806935 0.015558511950075626
v 0.00442491052672267 -0.0009397544781677425 0.01566152833402157
v 0.004599446430802345 0.00027672338183037937 0.015619530342519283
v 0.004221414681524038 0.0015341693069785833 0.015337551943957806
v 0.002816850086674094 0.0022568050771951675 0.014818516559898853
v 0.0014705487992614508 0.001468438422307372 0.015219256281852722
v 0.0015240029897540808 -0.00019183072436135262 0.01717161387205124
v 0.0015855110250413418 -0.0011148619232699275 0.01721842773258686
v 0.0023078524973243475 -0.0019829273223876953 0.01726558990776539
v 0.0026610339991748333 -0.002466995269060135 0.017291663214564323
v 0.00356059311889112 -0.0024694958701729774 0.017296040430665016
v 0.0038406054954975843 -0.0019993234891444445 0.017273668199777603
v 0.004380152095109224 -0.0009539394523017108 0.017223535105586052
v 0.004348957445472479 6.634611054323614e-05 0.01717197708785534
v 0.004010739736258984 0.001021387754008174 0.017122242599725723
v 0.003096535801887512 0.0015048879431560636 0.01709355041384697
v 0.0019863347988575697 0.0009719861554913223 0.017115145921707153
v 0.0013223601272329688 -0.00042123193270526826 0.018940461799502373
v 0.001553614973090589 -0.0013807645300403237 0.01883482187986374
v 0.001904266537167132 -0.0020569204352796078 0.019062310457229614
v 0.002704011043533683 -0.0024309600703418255 0.019094377756118774
v 0.0036541882436722517 -0.002358433324843645 0.019095126539468765
v 0.004414594266563654 -0.0012178726028651 0.018841085955500603
v 0.004567739553749561 -0.00013752278755418956 0.018940424546599388
v 0.004082839470356703 0.0009529808885417879 0.01885857805609703
v 0.003003883408382535 0.0013973158784210682 0.018819672986865044
v 0.0020187338814139366 0.0009469207725487649 0.018846001476049423
v 0.0010008984245359898 -0.0004467044200282544 0.023293746635317802
v 0.001474916934967041 -0.00170289003290236 0.023293746635317802
v 0.0023667991627007723 -0.0025790587533265352 0.023293746635317802
v 0.003696592291817069 -0.0027803208213299513 0.023293746635317802
v 0.004786378238350153 -0.0014695157296955585 0.023293746635317802
v 0.004965412430465221 -0.00018017900583799928 0.023293746635317802
v 0.004546631593257189 0.0008451177855022252 0.023293746635317802
v 0.0032539789099246264 0.001911771367304027 0.023293746635317802
v 0.0022214308846741915 0.001711374381557107 0.023293746635317802
v 0.001550596673041582 0.0007350307423621416 0.023293746635317802
v -0.0019866900984197855 0.0026033695321530104 0.009874367155134678
v -0.0033494143281131983 0.0018632132560014725 0.009793234057724476
v -0.004620356485247612 0.003574435133486986 0.010380882769823074
v -0.0037565245293080807 0.00464167445898056 0.01080313976854086
v -0.003004460595548153 0.0049552321434021 0.010812201537191868
v -0.004149120766669512 0.002302582375705242 0.009986947290599346
v -0.004661808721721172 0.003220532089471817 0.01274188607931137
v -0.0016925132367759943 0.003382536582648754 0.01006296370178461
v -0.0009766709990799427 0.003075767308473587 0.012412331067025661
v -0.001247274805791676 0.001915455562993884 0.012401563115417957
v -0.0032827311661094427 0.0008475733338855207 0.012304605916142464
v -0.001979973167181015 0.0014981449348852038 0.012358533218502998
v -0.004391842056065798 0.0016322137089446187 0.01258937455713749
v -0.0041538747027516365 0.004172051325440407 0.012735037133097649
v -0.0035491471644490957 0.004772666376084089 0.012768704444169998
v -0.0027723251841962337 0.004780174698680639 0.01278267428278923
v -0.0019514273153617978 0.004302157089114189 0.010340390726923943
v -0.002052256604656577 0.004808304365724325 0.012643891386687756
v -0.0013840132160112262 0.00400086073204875 0.01243610866367817
v -0.0010256200330331922 0.0018954864935949445 0.015306289307773113
v -0.0012909488286823034 0.0008079111576080322 0.015092293731868267
v -0.0022774972021579742 1.6912590581341647e-05 0.01480485126376152
v -0.0032694556284695864 0.00023360343766398728 0.015006011351943016
v -0.004084424115717411 0.0008936978410929441 0.015319851227104664
v -0.004275595303624868 0.002074161311611533 0.015565851703286171
v -0.0039310394786298275 0.0033656854648143053 0.015557014383375645
v -0.00257124868221581 0.004225423093885183 0.015137456357479095
v -0.0011956384405493736 0.0034135091118514538 0.015265772119164467
v -0.0011192674282938242 0.001389755168929696 0.016797514632344246
v -0.0011499898973852396 0.0004797365691047162 0.01667708344757557
v -0.0018412466160953045 -0.0004060512292198837 0.016589593142271042
v -0.002177254296839237 -0.0008977705729193985 0.01653888076543808
v -0.0030738499481230974 -0.0009407881298102438 0.01657344028353691
v -0.003368546487763524 -0.0004912892472930253 0.016646863892674446
v -0.003941013012081385 0.0005118798580951989 0.01680689863860607
v -0.0039437310770154 0.0015161220217123628 0.016941461712121964
v -0.003638247959315777 0.002470082137733698 0.017055414617061615
v -0.0027429962065070868 0.0029865321703255177 0.017084293067455292
v -0.001618691487237811 0.002512812614440918 0.01697031408548355
v -0.0008913684287108481 0.000959016673732549 0.018525684252381325
v -0.001073921681381762 1.760046143317595e-05 0.018291974440217018
v -0.001385645242407918 -0.0006983533385209739 0.018425989896059036
v -0.00216340902261436 -0.0011165154865011573 0.01841358095407486
v -0.0031146323308348656 -0.0011003583204001188 0.01843322068452835
v -0.0039351326413452625 1.1183982678630855e-05 0.01834740675985813
v -0.004142205696552992 0.0010499092750251293 0.018595142289996147
v -0.0037160103674978018 0.0021605633664876223 0.01866009458899498
v -0.0026635383255779743 0.0026648826897144318 0.018672822043299675
v -0.0016575913177803159 0.0022758045233786106 0.018627513200044632
v -0.0005862818215973675 0.0007632463239133358 0.023293746635317802
v -0.000980907236225903 -0.0005147561896592379 0.023293746635317802
v -0.001816091244108975 -0.0014313210267573595 0.023293746635317802
v -0.003130233148112893 -0.0016912599094212055 0.023293746635317802
v -0.004299023188650608 -0.0004347703652456403 0.023293746635317802
v -0.004557913634926081 0.0008436516509391367 0.023293746635317802
v -0.004203983582556248 0.0018866127356886864 0.023293746635317802
v -0.002980861347168684 0.0030127374920994043 0.023293746635317802
v -0.0019382716855034232 0.0028595386538654566 0.023293746635317802
v -0.0012081952299922705 0.0019139478681609035 0.023293746635317802
v -0.00993871409446001 0.0 0.0
v -0.00933933537453413 0.0033992405515164137 0.0
v -0.0076134963892400265 0.006388482172042131 0.0
v -0.004969357047230005 0.008607178926467896 0.0
v -0.00172583875246346 0.009787723422050476 0.0
v 0.001725840731523931 0.009787721559405327 0.0
v 0.004969357512891293 0.008607177995145321 0.0
v 0.0076134963892400265 0.006388482172042131 0.0
v 0.00933933537453413 0.0033992412500083447 0.0
v 0.00993871409446001 1.5007040055081688e-09 0.0
v 0.009339336305856705 -0.003399238223209977 0.0
v 0.007613498251885176 -0.006388479843735695 0.0
v 0.004969359841197729 -0.008607177063822746 0.0
v 0.0017258436419069767 -0.009787721559405327 0.0
v -0.001725834677927196 -0.009787723422050476 0.0
v -0.004969351924955845 -0.008607180789113045 0.0
v -0.007613492663949728 -0.006388487294316292 0.0
v -0.00933933351188898 -0.0033992468379437923 0.0
v -0.006654979661107063 -1.7009854635929855e-10 0.0030209808610379696
v -0.006253634579479694 0.002276137238368392 0.0030209808610379696
v -0.0050980094820261 0.004277738742530346 0.0030209808610379696
v -0.0033274893648922443 0.005763381719589233 0.0030209808610379696
v -0.0011556243989616632 0.006553875748068094 0.0030209808610379696
v 0.0011556261451914907 0.006553875282406807 0.0030209808610379696
v 0.00332749099470675 0.005763380788266659 0.0030209808610379696
v 0.005098010879009962 0.004277738742530346 0.0030209808610379696
v 0.006253635510802269 0.0022761374711990356 0.0030209808610379696
v 0.006654980592429638 8.347755264814793e-10 0.0030209808610379696
v 0.006253636442124844 -0.0022761363070458174 0.0030209808610379696
v 0.005098012741655111 -0.004277737811207771 0.0030209808610379696
v 0.003327492391690612 -0.005763380788266659 0.0030209808610379696
v 0.0011556282406672835 -0.0065538762137293816 0.0030209808610379696
v -0.0011556217214092612 -0.006553876679390669 0.0030209808610379696
v -0.003327486105263233 -0.00576338404789567 0.0030209808610379696
v -0.005098007153719664 -0.004277742002159357 0.0030209808610379696
v -0.0062536331824958324 -0.002276141894981265 0.0030209808610379696
v 3.088506672632718e-10 -1.7009854635929855e-10 0.0038433962035924196
v -0.003172003896906972 0.0056908950209617615 0.005467119161039591
v -0.00306174298748374 0.005626280326396227 0.004579083062708378
v -0.003116873325780034 0.0062541477382183075 0.004918088670819998
v -0.0036901331041008234 0.00530014093965292 0.005404611583799124
v -0.0035798721946775913 0.005146329291164875 0.004532304126769304
v -0.0038864060770720243 0.005601920187473297 0.004837924614548683
v -0.0040209535509347916 0.004397580400109291 0.005479855462908745
v -0.003910692408680916 0.004243769217282534 0.004607547074556351
v -0.004344544839113951 0.004337595775723457 0.00513966241851449
v -0.0038639181293547153 0.0035861332435160875 0.005662763025611639
v -0.0037533848080784082 0.0031787860207259655 0.004835228901356459
v -0.004059919156134129 0.0028551991563290358 0.005278239957988262
v -0.0031913467682898045 0.0031097119208425283 0.006080037448555231
v -0.0030810858588665724 0.003344152821227908 0.00513926986604929
v -0.0031262023840099573 0.0024678753688931465 0.005661809351295233
v -0.002729641506448388 0.0036447627935558558 0.006040890235453844
v -0.002619316568598151 0.0037117348983883858 0.005129667930305004
v -0.0022839370649307966 0.0029195290990173817 0.005643073935061693
v -0.0023303639609366655 0.004470904357731342 0.0058956933207809925
v -0.0023408327251672745 0.004311856348067522 0.004993688780814409
v -0.001919695409014821 0.004409418907016516 0.005546991713345051
v -0.002639640588313341 0.005401612259447575 0.005653145723044872
v -0.002370101399719715 0.005254709627479315 0.0048200152814388275
v -0.002173828426748514 0.005732107441872358 0.005249313078820705
v 0.002737069968134165 0.0010231570340692997 0.005832463502883911
v 0.002580885775387287 0.0010231570340692997 0.004946698900312185
v 0.0026589781045913696 0.0015826182207092643 0.005389581900089979
v 0.002127490472048521 0.0008361476939171553 0.005939948838204145
v 0.0019713060464709997 0.0008361476939171553 0.00505418423563242
v 0.0017566937021911144 0.0012317466316744685 0.0055486783385276794
v 0.001699930871836841 -0.00025219283998012543 0.006015339400619268
v 0.0015437466790899634 -0.00025219283998012543 0.005129574332386255
v 0.0012078918516635895 -0.00025219283998012543 0.005645446479320526
v 0.0021189088001847267 -0.0010257738176733255 0.005941462237387896
v 0.001962724607437849 -0.0010257738176733255 0.00505569763481617
v 0.0017481119139119983 -0.0014213727554306388 0.005550191272050142
v 0.002737069968134165 -0.0015697923954576254 0.005832463502883911
v 0.002580885775387287 -0.0015697923954576254 0.004946698900312185
v 0.0026589776389300823 -0.002129253465682268 0.005389581434428692
v 0.003310242434963584 -0.0009898616699501872 0.005731397774070501
v 0.00315405847504735 -0.0009898616699501872 0.004845632705837488
v 0.003524855012074113 -0.0013854607241228223 0.005236903205513954
v 0.0035520123783499002 -0.0002521927235648036 0.005688767414540052
v 0.0033958284184336662 -0.0002521927235648036 0.004803002811968327
v 0.003887866623699665 -0.0002521926653571427 0.0051728952676057816
v 0.003403859678655863 0.0005287816748023033 0.005714890081435442
v 0.003247675485908985 0.0005287816748023033 0.004829125944525003
v 0.0036184724885970354 0.0009243806707672775 0.005220396444201469
v -0.002191305160522461 0.006092299707233906 0.0023239392321556807
v -0.0028439201414585114 0.005844695493578911 0.005573722533881664
v -0.002191305160522461 0.006092299707233906 0.0023239392321556807
v -0.002595521043986082 0.0053929598070681095 0.005398559849709272
v -0.002191305160522461 0.006092299707233906 0.0023239392321556807
v -0.0023379665799438953 0.004409027751535177 0.0051536899991333485
v -0.0023379665799438953 0.004409027751535177 0.0051536899991333485
v -0.0019530071876943111 0.0040855142287909985 0.0022450636606663465
v -0.0028236955404281616 0.0036869882605969906 0.005102817434817553
v -0.0028236955404281616 0.0036869882605969906 0.005102817434817553
v -0.0028236955404281616 0.0036869882605969906 0.005102817434817553
v -0.0029832825530320406 0.002189884427934885 0.004088830668479204
v -0.0028236955404281616 0.0036869882605969906 0.005102817434817553
v -0.0044004544615745544 0.0013328042114153504 0.004380723927170038
v -0.003954397514462471 0.004098688717931509 0.005127605516463518
v -0.0044004544615745544 0.0013328042114153504 0.004380723927170038
v -0.0044004544615745544 0.0013328042114153504 0.004380723927170038
v -0.0034518614411354065 0.0032246317714452744 0.005195605102926493
v -0.003954397514462471 0.004098688717931509 0.005127605516463518
v -0.003954397514462471 0.004098688717931509 0.005127605516463518
v -0.004185795318335295 -0.0004079806385561824 0.003778481390327215
v -0.005099339876323938 -0.0006757578812539577 0.0027564738411456347
v -0.005099339876323938 -0.0006757578812539577 0.0027564738411456347
v -0.00497604813426733 -0.00035963751724921167 0.003801272949203849
v -0.0029832825530320406 0.002189884427934885 0.004088830668479204
v -0.0044004544615745544 0.0013328042114153504 0.004380723927170038
v -0.0044004544615745544 0.0013328042114153504 0.004380723927170038
v -0.0034579485654830933 0.0008058255189098418 0.0040094018913805485
v -0.004076018929481506 -0.0007776309503242373 0.002610399154946208
v -0.004185795318335295 -0.0004079806385561824 0.003778481390327215
v -0.004185795318335295 -0.0004079806385561824 0.003778481390327215
v -0.004185795318335295 -0.0004079806385561824 0.003778481390327215
v -0.0034579485654830933 0.0008058255189098418 0.0040094018913805485
v -0.00497604813426733 -0.00035963751724921167 0.003801272949203849
v -0.00497604813426733 -0.00035963751724921167 0.003801272949203849
v -0.00497604813426733 -0.00035963751724921167 0.003801272949203849
v 0.0029779011383652687 0.0013309511123225093 0.0021529810037463903
v 0.002987424610182643 0.0007817795849405229 0.005109806545078754
v 0.0019571904558688402 0.0015721238451078534 0.002187358448281884
v 0.0019571904558688402 0.0015721238451078534 0.002187358448281884
v 0.002388399327173829 0.0011395588517189026 0.005245293956249952
v 0.0019571904558688402 0.0015721238451078534 0.002187358448281884
v 0.0012437165714800358 0.0009181862114928663 0.0021976071875542402
v 0.0020948273595422506 0.0006915705744177103 0.005135511048138142
v 0.0017184121534228325 -0.0002983862650580704 0.00515971751883626
v 0.0012960664462298155 -0.00033478596014901996 0.0020577090326696634
v 0.0017184121534228325 -0.0002983862650580704 0.00515971751883626
v 0.002124971244484186 -0.0010806233622133732 0.00517630809918046
v 0.002124971244484186 -0.0010806233622133732 0.00517630809918046
v 0.002124971244484186 -0.0010806233622133732 0.00517630809918046
v 0.0030899213161319494 -0.0035996027290821075 0.004119630437344313
v 0.0018897923873737454 -0.0024524808395653963 0.0038513662293553352
v 0.0030899213161319494 -0.0035996027290821075 0.004119630437344313
v 0.0033295345492661 -0.0007814650307409465 0.004996050149202347
v 0.0026970484759658575 -0.001601188792847097 0.0051925648003816605
v 0.0030899213161319494 -0.0035996027290821075 0.004119630437344313
v 0.0033295345492661 -0.0007814650307409465 0.004996050149202347
v 0.004057304933667183 -0.0019303456647321582 0.0034460751339793205
v 0.003350538434460759 -0.005669637583196163 0.002443925943225622
v 0.003350538434460759 -0.005669637583196163 0.002443925943225622
v 0.0032931738533079624 -0.005360833369195461 0.00349658471532166
v 0.003350538434460759 -0.005669637583196163 0.002443925943225622
v 0.0030899213161319494 -0.0035996027290821075 0.004119630437344313
v 0.0018897923873737454 -0.0024524808395653963 0.0038513662293553352
v 0.0030899213161319494 -0.0035996027290821075 0.004119630437344313
v 0.004057304933667183 -0.0019303456647321582 0.0034460751339793205
v 0.002058192389085889 -0.0039035503286868334 0.0037361534778028727
v 0.0025109373964369297 -0.005238637328147888 0.003473524935543537
v 0.0023297052830457687 -0.005546827334910631 0.0022965429816395044
v 0.0025109373964369297 -0.005238637328147888 0.003473524935543537
v 0.0032931738533079624 -0.005360833369195461 0.00349658471532166
v 0.0025109373964369297 -0.005238637328147888 0.003473524935543537
v 0.0032931738533079624 -0.005360833369195461 0.00349658471532166
v 0.0030899213161319494 -0.0035996027290821075 0.004119630437344313
v 0.0032931738533079624 -0.005360833369195461 0.00349658471532166
v 0.0026970484759658575 -0.001601188792847097 0.0051925648003816605
v 0.002388399327173829 0.0011395588517189026 0.005245293956249952
v 0.0018071080558001995 -0.0008530768100172281 0.010157087817788124
v 0.0013627191074192524 -0.0007576081552542746 0.012797268107533455
v 0.003381437622010708 -0.0018137773731723428 0.012818150222301483
v 0.003381437622010708 -0.0018137773731723428 0.012818150222301483
v 0.0017814772436395288 0.0009085949859581888 0.010145003907382488
v 0.0017814772436395288 0.0009085949859581888 0.010145003907382488
v 0.0016230656765401363 -0.0011225860798731446 0.015639888122677803
v 0.002612902084365487 -0.001947688520886004 0.015475712716579437
v 0.0015855110250413418 -0.0011148619232699275 0.01721842773258686
v 0.002612902084365487 -0.001947688520886004 0.015475712716579437
v 0.00356059311889112 -0.0024694958701729774 0.017296040430665016
v 0.001553614973090589 -0.0013807645300403237 0.01883482187986374
v 0.00356059311889112 -0.0024694958701729774 0.017296040430665016
v 0.001474916934967041 -0.00170289003290236 0.023293746635317802
v 0.003696592291817069 -0.0027803208213299513 0.023293746635317802
v 0.003696592291817069 -0.0027803208213299513 0.023293746635317802
v 0.0017184121534228325 -0.0002983862650580704 0.00515971751883626
v 0.002124971244484186 -0.0010806233622133732 0.00517630809918046
v 0.002124971244484186 -0.0010806233622133732 0.00517630809918046
v 0.0026970484759658575 -0.001601188792847097 0.0051925648003816605
v 0.0026970484759658575 -0.001601188792847097 0.0051925648003816605
v 0.0033295345492661 -0.0007814650307409465 0.004996050149202347
v 0.0033295345492661 -0.0007814650307409465 0.004996050149202347
v 0.002388399327173829 0.0011395588517189026 0.005245293956249952
v -0.0034518614411354065 0.0032246317714452744 0.005195605102926493
v -0.0028439201414585114 0.005844695493578911 0.005573722533881664
v -0.0019866900984197855 0.0026033695321530104 0.009874367155134678
v -0.001979973167181015 0.0014981449348852038 0.012358533218502998
v -0.0032827311661094427 0.0008475733338855207 0.012304605916142464
v -0.0032827311661094427 0.0008475733338855207 0.012304605916142464
v -0.0019514273153617978 0.004302157089114189 0.010340390726923943
v -0.0019514273153617978 0.004302157089114189 0.010340390726923943
v -0.0022774972021579742 1.6912590581341647e-05 0.01480485126376152
v -0.0022774972021579742 1.6912590581341647e-05 0.01480485126376152
v -0.0022774972021579742 1.6912590581341647e-05 0.01480485126376152
v -0.0018412466160953045 -0.0004060512292198837 0.016589593142271042
v -0.0030738499481230974 -0.0009407881298102438 0.01657344028353691
v -0.0030738499481230974 -0.0009407881298102438 0.01657344028353691
v -0.001618691487237811 0.002512812614440918 0.01697031408548355
v -0.001385645242407918 -0.0006983533385209739 0.018425989896059036
v -0.0030738499481230974 -0.0009407881298102438 0.01657344028353691
v -0.0030738499481230974 -0.0009407881298102438 0.01657344028353691
v -0.001618691487237811 0.002512812614440918 0.01697031408548355
v -0.000980907236225903 -0.0005147561896592379 0.023293746635317802
v -0.003130233148112893 -0.0016912599094212055 0.023293746635317802
v -0.003130233148112893 -0.0016912599094212055 0.023293746635317802
v -0.0028236955404281616 0.0036869882605969906 0.005102817434817553
v -0.0034518614411354065 0.0032246317714452744 0.005195605102926493
v -0.0028236955404281616 0.0036869882605969906 0.005102817434817553
v -0.0034518614411354065 0.0032246317714452744 0.005195605102926493
v -0.003954397514462471 0.004098688717931509 0.005127605516463518
v -0.0034518614411354065 0.0032246317714452744 0.005195605102926493
v -0.003954397514462471 0.004098688717931509 0.005127605516463518
v -0.0028439201414585114 0.005844695493578911 0.005573722533881664
v -0.0028439201414585114 0.005844695493578911 0.005573722533881664
v -0.0028439201414585114 0.005844695493578911 0.005573722533881664
v 0.00993871409446001 1.5007040055081688e-09 0.0
v 0.006654980592429638 8.347755264814793e-10 0.0030209808610379696
v -0.006654979661107063 -1.7009854635929855e-10 0.0030209808610379696
v -0.00993871409446001 0.0 0.0
v 3.088506672632718e-10 -1.7009854635929855e-10 0.0038433962035924196
v 3.088506672632718e-10 -1.7009854635929855e-10 0.0038433962035924196
v 3.088506672632718e-10 -1.7009854635929855e-10 0.0038433962035924196
v 3.088506672632718e-10 -1.7009854635929855e-10 0.0038433962035924196
v 3.088506672632718e-10 -1.7009854635929855e-10 0.0038433962035924196
v 3.088506672632718e-10 -1.7009854635929855e-10 0.0038433962035924196
v 3.088506672632718e-10 -1.7009854635929855e-10 0.0038433962035924196
v 3.088506672632718e-10 -1.7009854635929855e-10 0.0038433962035924196
v 3.088506672632718e-10 -1.7009854635929855e-10 0.0038433962035924196
v 3.088506672632718e-10 -1.7009854635929855e-10 0.0038433962035924196
v 3.088506672632718e-10 -1.7009854635929855e-10 0.0038433962035924196
v 3.088506672632718e-10 -1.7009854635929855e-10 0.0038433962035924196
v 3.088506672632718e-10 -1.7009854635929855e-10 0.0038433962035924196
v 3.088506672632718e-10 -1.7009854635929855e-10 0.0038433962035924196
v 3.088506672632718e-10 -1.7009854635929855e-10 0.0038433962035924196
v 3.088506672632718e-10 -1.7009854635929855e-10 0.0038433962035924196
v 3.088506672632718e-10 -1.7009854635929855e-10 0.0038433962035924196
v -0.003116873325780034 0.0062541477382183075 0.004918088670819998
v -0.0038864060770720243 0.005601920187473297 0.004837924614548683
v -0.003116873325780034 0.0062541477382183075 0.004918088670819998
v -0.0038864060770720243 0.005601920187473297 0.004837924614548683
v -0.004344544839113951 0.004337595775723457 0.00513966241851449
v -0.003910692408680916 0.004243769217282534 0.004607547074556351
v -0.004059919156134129 0.0028551991563290358 0.005278239957988262
v -0.004344544839113951 0.004337595775723457 0.00513966241851449
v -0.004344544839113951 0.004337595775723457 0.00513966241851449
v -0.004059919156134129 0.0028551991563290358 0.005278239957988262
v -0.0040209535509347916 0.004397580400109291 0.005479855462908745
v -0.0037533848080784082 0.0031787860207259655 0.004835228901356459
v -0.0037533848080784082 0.0031787860207259655 0.004835228901356459
v -0.0031262023840099573 0.0024678753688931465 0.005661809351295233
v -0.0031262023840099573 0.0024678753688931465 0.005661809351295233
v -0.0030810858588665724 0.003344152821227908 0.00513926986604929
v -0.0022839370649307966 0.0029195290990173817 0.005643073935061693
v -0.0031262023840099573 0.0024678753688931465 0.005661809351295233
v -0.0031262023840099573 0.0024678753688931465 0.005661809351295233
v -0.0022839370649307966 0.0029195290990173817 0.005643073935061693
v -0.0031262023840099573 0.0024678753688931465 0.005661809351295233
v -0.0031913467682898045 0.0031097119208425283 0.006080037448555231
v -0.001919695409014821 0.004409418907016516 0.005546991713345051
v -0.0022839370649307966 0.0029195290990173817 0.005643073935061693
v -0.001919695409014821 0.004409418907016516 0.005546991713345051
v -0.0023408327251672745 0.004311856348067522 0.004993688780814409
v -0.002173828426748514 0.005732107441872358 0.005249313078820705
v -0.001919695409014821 0.004409418907016516 0.005546991713345051
v -0.001919695409014821 0.004409418907016516 0.005546991713345051
v -0.002173828426748514 0.005732107441872358 0.005249313078820705
v -0.001919695409014821 0.004409418907016516 0.005546991713345051
v -0.0023303639609366655 0.004470904357731342 0.0058956933207809925
v -0.00306174298748374 0.005626280326396227 0.004579083062708378
v -0.003116873325780034 0.0062541477382183075 0.004918088670819998
v -0.003116873325780034 0.0062541477382183075 0.004918088670819998
v -0.002173828426748514 0.005732107441872358 0.005249313078820705
v -0.003116873325780034 0.0062541477382183075 0.004918088670819998
v -0.003172003896906972 0.0056908950209617615 0.005467119161039591
v 0.0026589781045913696 0.0015826182207092643 0.005389581900089979
v 0.0017566937021911144 0.0012317466316744685 0.0055486783385276794
v 0.0026589781045913696 0.0015826182207092643 0.005389581900089979
v 0.0017566937021911144 0.0012317466316744685 0.0055486783385276794
v 0.0012078918516635895 -0.00025219283998012543 0.005645446479320526
v 0.0015437466790899634 -0.00025219283998012543 0.005129574332386255
v 0.0017481119139119983 -0.0014213727554306388 0.005550191272050142
v 0.0012078918516635895 -0.00025219283998012543 0.005645446479320526
v 0.0012078918516635895 -0.00025219283998012543 0.005645446479320526
v 0.0017481119139119983 -0.0014213727554306388 0.005550191272050142
v 0.001699930871836841 -0.00025219283998012543 0.006015339400619268
v 0.0026589776389300823 -0.002129253465682268 0.005389581434428692
v 0.0026589776389300823 -0.002129253465682268 0.005389581434428692
v 0.002580885775387287 -0.0015697923954576254 0.004946698900312185
v 0.0026589776389300823 -0.002129253465682268 0.005389581434428692
v 0.0026589776389300823 -0.002129253465682268 0.005389581434428692
v 0.003524855012074113 -0.0013854607241228223 0.005236903205513954
v 0.0026589776389300823 -0.002129253465682268 0.005389581434428692
v 0.002737069968134165 -0.0015697923954576254 0.005832463502883911
v 0.003524855012074113 -0.0013854607241228223 0.005236903205513954
v 0.003887866623699665 -0.0002521926653571427 0.0051728952676057816
v 0.0033958284184336662 -0.0002521927235648036 0.004803002811968327
v 0.0036184724885970354 0.0009243806707672775 0.005220396444201469
v 0.003887866623699665 -0.0002521926653571427 0.0051728952676057816
v 0.003887866623699665 -0.0002521926653571427 0.0051728952676057816
v 0.0036184724885970354 0.0009243806707672775 0.005220396444201469
v 0.0035520123783499002 -0.0002521927235648036 0.005688767414540052
v 0.002580885775387287 0.0010231570340692997 0.004946698900312185
v 0.0026589781045913696 0.0015826182207092643 0.005389581900089979
v 0.0026589781045913696 0.0015826182207092643 0.005389581900089979
v 0.0026589781045913696 0.0015826182207092643 0.005389581900089979
v 0.002737069968134165 0.0010231570340692997 0.005832463502883911
g submesh_0
f 7 9 260
f 262 261 10
f 12 265 2
f 11 266 267
f 268 14 267
f 270 3 16
f 273 271 272
f 275 274 17
f 278 276 277
f 20 19 21
f 281 22 280
f 23 21 283
f 289 288 27
f 293 291 292
f 297 296 32
f 34 301 35
f 303 302 36
f 304 37 38
f 306 302 305
f 41 307 305
f 43 309 44
f 311 310 307
f 39 312 45
f 315 313 314
f 40 316 46
f 47 48 49
f 50 318 48
f 321 51 320
f 53 322 323
f 328 327 55
f 331 330 53
f 333 53 332
f 347 88 78
f 58 355 356
f 60 314 358
f 147 373 369
f 385 116 384
f 388 121 387
f 212 416 215
f 218 417 418
f 223 419 222
f 421 419 420
f 226 425 225
f 223 426 427
f 431 429 430
f 435 434 227
f 232 228 231
f 230 437 438
f 441 439 440
f 445 444 233
f 447 234 446
f 451 449 450
f 236 454 239
f 242 455 456
f 459 457 458
f 250 246 249
f 470 469 251
f 254 471 472
f 475 473 474
f 480 258 479
f 8 6 7
f 7 6 5
f 7 5 118
f 118 5 389
f 118 389 121
f 264 263 11
f 11 263 1
f 4 5 13
f 13 5 6
f 287 290 27
f 287 27 15
f 15 27 14
f 15 14 269
f 23 295 26
f 23 26 28
f 28 26 17
f 28 17 18
f 18 17 279
f 18 279 13
f 282 23 24
f 24 23 28
f 284 285 25
f 25 285 294
f 298 33 29
f 29 33 62
f 29 62 61
f 61 62 71
f 61 71 65
f 65 71 82
f 65 82 81
f 81 82 92
f 81 92 80
f 80 92 91
f 80 91 79
f 79 91 90
f 79 90 89
f 337 67 66
f 337 66 57
f 57 66 342
f 57 342 34
f 34 342 300
f 34 300 299
f 39 40 30
f 30 40 31
f 30 31 29
f 329 326 55
f 55 326 42
f 55 42 41
f 41 42 308
f 334 51 54
f 54 51 56
f 54 56 317
f 317 56 46
f 317 46 39
f 56 51 52
f 52 51 319
f 325 324 54
f 54 324 334
f 350 348 98
f 98 348 345
f 98 345 87
f 87 345 343
f 87 343 78
f 78 343 69
f 78 69 68
f 68 69 58
f 68 58 59
f 59 58 335
f 336 63 62
f 62 63 73
f 62 73 72
f 72 73 83
f 72 83 82
f 82 83 93
f 82 93 92
f 92 93 102
f 92 102 91
f 91 102 101
f 91 101 90
f 90 101 100
f 90 100 349
f 339 59 60
f 60 59 357
f 97 107 96
f 97 96 86
f 86 96 85
f 86 85 77
f 77 85 95
f 77 95 84
f 84 95 83
f 84 83 74
f 74 83 73
f 74 73 341
f 67 76 77
f 67 77 66
f 66 77 84
f 66 84 75
f 75 84 74
f 75 74 64
f 89 344 79
f 79 344 339
f 346 88 87
f 87 88 99
f 87 99 98
f 98 99 108
f 98 108 350
f 108 99 109
f 88 89 99
f 99 89 100
f 99 100 351
f 352 100 101
f 83 95 94
f 94 95 104
f 94 104 93
f 93 104 103
f 93 103 102
f 102 103 111
f 102 111 101
f 101 111 110
f 101 110 351
f 354 337 353
f 353 337 57
f 353 57 34
f 39 61 60
f 60 61 65
f 60 65 70
f 70 65 81
f 70 81 80
f 29 61 30
f 30 61 359
f 73 63 64
f 64 63 360
f 364 369 126
f 364 126 116
f 116 126 117
f 116 117 361
f 378 159 149
f 149 159 160
f 149 160 150
f 150 160 161
f 150 161 151
f 151 161 152
f 151 152 141
f 141 152 142
f 141 142 130
f 130 142 131
f 130 131 119
f 119 131 120
f 119 120 362
f 386 117 121
f 121 117 365
f 154 143 142
f 142 143 133
f 142 133 131
f 131 133 367
f 137 127 136
f 136 127 125
f 136 125 135
f 135 125 124
f 135 124 143
f 143 124 134
f 143 134 133
f 133 134 132
f 365 370 138
f 138 370 148
f 380 167 376
f 376 167 158
f 376 158 372
f 372 158 147
f 372 147 371
f 390 7 119
f 119 7 118
f 119 118 129
f 129 118 122
f 129 122 141
f 141 122 140
f 141 140 151
f 151 140 139
f 151 139 150
f 150 139 138
f 150 138 149
f 149 138 374
f 143 375 135
f 148 158 159
f 159 158 381
f 158 377 147
f 172 173 163
f 163 173 164
f 163 164 379
f 158 167 168
f 159 382 160
f 381 169 160
f 160 169 170
f 160 170 161
f 161 170 162
f 161 162 152
f 152 162 163
f 152 163 153
f 153 163 154
f 153 154 142
f 392 368 10
f 10 368 123
f 10 123 265
f 265 123 363
f 265 363 383
f 391 120 132
f 132 120 131
f 175 193 194
f 175 194 176
f 176 194 195
f 176 195 177
f 177 195 196
f 177 196 178
f 178 196 197
f 178 197 179
f 179 197 198
f 179 198 180
f 180 198 199
f 180 199 181
f 181 199 200
f 181 200 182
f 182 200 201
f 182 201 183
f 183 201 202
f 183 202 184
f 393 394 203
f 393 203 185
f 185 203 204
f 185 204 186
f 186 204 205
f 186 205 187
f 187 205 206
f 187 206 188
f 188 206 207
f 188 207 189
f 189 207 208
f 189 208 190
f 190 208 209
f 190 209 191
f 191 209 210
f 191 210 192
f 192 210 395
f 192 395 396
f 193 211 194
f 194 397 195
f 195 398 196
f 196 399 197
f 197 400 198
f 198 401 199
f 199 402 200
f 200 403 201
f 201 404 202
f 394 405 203
f 203 406 204
f 204 407 205
f 205 408 206
f 206 409 207
f 207 410 208
f 208 411 209
f 209 412 210
f 210 413 395
f 219 220 216
f 216 220 217
f 216 217 213
f 213 217 214
f 218 215 415
f 415 215 414
f 428 224 423
f 423 224 221
f 423 221 422
f 422 221 424
f 436 229 228
f 228 229 429
f 230 227 433
f 433 227 432
f 448 235 234
f 234 235 439
f 451 233 443
f 443 233 442
f 243 244 240
f 240 244 241
f 240 241 237
f 237 241 238
f 242 239 453
f 453 239 452
f 463 247 246
f 246 247 457
f 464 248 461
f 461 248 245
f 461 245 460
f 460 245 462
f 255 256 252
f 252 256 253
f 252 253 465
f 465 253 466
f 254 251 468
f 468 251 467
f 481 259 258
f 258 259 473
f 482 483 477
f 477 483 257
f 477 257 476
f 476 257 478
f 295 286 26
f 26 286 17
f 343 338 69
f 69 338 58
f 60 70 340
f 340 70 80
f 340 80 79
f 75 342 66
f 86 77 76
f 107 106 96
f 96 106 115
f 96 115 105
f 105 115 114
f 105 114 104
f 104 114 113
f 104 113 103
f 103 113 112
f 103 112 111
f 123 368 124
f 123 124 363
f 363 124 125
f 363 125 127
f 138 139 366
f 366 139 128
f 366 128 121
f 121 128 122
f 121 122 118
f 368 134 124
f 173 174 164
f 164 174 155
f 164 155 154
f 154 155 144
f 154 144 135
f 135 144 145
f 135 145 136
f 136 145 146
f 136 146 137
f 174 165 155
f 155 165 166
f 155 166 156
f 156 166 157
f 156 157 145
f 145 157 146
f 170 171 162
f 162 171 172
f 162 172 163
f 62 72 71
f 71 72 82
f 94 93 83
f 85 96 95
f 95 96 105
f 95 105 104
f 119 129 130
f 130 129 141
f 122 128 140
f 140 128 139
f 152 153 142
f 144 155 145
f 145 155 156
