# rich_13
v -0.2658282518386841 0.30400004982948303 -4.999999418942025e-07
v -0.014171752147376537 0.30400004982948303 -4.999999418942025e-07
v -0.014171752147376537 0.15400004386901855 -4.999999418942025e-07
v -0.03817199543118477 0.15400004386901855 -4.999999418942025e-07
v -0.03817199543118477 -0.145999938249588 -4.999999418942025e-07
v 0.037828367203474045 -0.145999938249588 -4.999999418942025e-07
v 0.037828367203474045 0.15400004386901855 -4.999999418942025e-07
v 0.014828491024672985 0.15400004386901855 -4.999999418942025e-07
v 0.014828491024672985 0.30400004982948303 -4.999999418942025e-07
v 0.2658282518386841 0.30400004982948303 -4.999999418942025e-07
v 0.2658282518386841 0.14600005745887756 -4.999999418942025e-07
v 0.21882812678813934 0.14600005745887756 -4.999999418942025e-07
v 0.21882812678813934 -0.19887492060661316 -4.999999418942025e-07
v 0.11348449438810349 -0.3039999306201935 -4.999999418942025e-07
v -0.1101403757929802 -0.3039999306201935 -4.999999418942025e-07
v -0.21917174756526947 -0.19518743455410004 -4.999999418942025e-07
v -0.21917174756526947 0.14600005745887756 -4.999999418942025e-07
v -0.2658282518386841 0.14600005745887756 -4.999999418942025e-07
g submesh_0
f 4 3 2
f 4 2 17
f 17 2 1
f 17 1 18
f 8 7 9
f 9 7 12
f 9 12 10
f 10 12 11
f 14 13 6
f 6 13 12
f 6 12 7
f 17 16 5
f 5 16 15
f 5 15 6
f 6 15 14
f 5 4 17
