# 08
v -0.19202594459056854 -0.01989503763616085 -0.10097404569387436
v -0.13839976489543915 0.037796154618263245 -0.10097404569387436
v -0.17402595281600952 0.07084882259368896 -0.10097404569387436
v -0.17402595281600952 0.20627084374427795 -0.10097404569387436
v -0.0998660996556282 0.27802595496177673 -0.10097404569387436
v 0.10172206908464432 0.27802595496177673 -0.10097404569387436
v 0.17502595484256744 0.20647817850112915 -0.10097404569387436
v 0.17502595484256744 0.07126966118812561 -0.10097404569387436
v 0.1395058035850525 0.0384441539645195 -0.10097404569387436
v 0.19202594459056854 -0.01918514259159565 -0.10097404569387436
v 0.19202594459056854 -0.18694879114627838 -0.10097404569387436
v 0.10100235044956207 -0.27802595496177673 -0.10097404569387436
v -0.10095103830099106 -0.27802595496177673 -0.10097404569387436
v -0.19202594459056854 -0.1862812638282776 -0.10097404569387436
v 0.054974038153886795 0.06702596694231033 -0.10097404569387436
v 0.054974038153886795 0.17497403919696808 -0.10097404569387436
v -0.053974054753780365 0.17497403919696808 -0.10097404569387436
v -0.053974054753780365 0.06702596694231033 -0.10097404569387436
v 0.06297402828931808 -0.1719740331172943 -0.10097404569387436
v 0.06297402828931808 -0.019025955349206924 -0.10097404569387436
v -0.06297405064105988 -0.019025955349206924 -0.10097404569387436
v -0.06297405064105988 -0.1719740331172943 -0.10097404569387436
v -0.21799999475479126 -0.009687500074505806 -0.07499999552965164
v -0.17512500286102295 0.0364375114440918 -0.07499999552965164
v -0.19999998807907104 0.05951562896370888 -0.07499999552965164
v -0.19999998807907104 0.21728123724460602 -0.07499999552965164
v -0.11037501692771912 0.30399999022483826 -0.07499999552965164
v 0.11229687184095383 0.30399999022483826 -0.07499999552965164
v 0.20100000500679016 0.21742188930511475 -0.07499999552965164
v 0.20100000500679016 0.0599062517285347 -0.07499999552965164
v 0.17607812583446503 0.03687501698732376 -0.07499999552965164
v 0.21799999475479126 -0.009124984964728355 -0.07499999552965164
v 0.21799999475479126 -0.19770312309265137 -0.07499999552965164
v 0.11176562309265137 -0.30399999022483826 -0.07499999552965164
v -0.11176563054323196 -0.30399999022483826 -0.07499999552965164
v -0.21799999475479126 -0.19698436558246613 -0.07499999552965164
v 0.028999995440244675 0.09300000965595245 -0.07499999552965164
v 0.028999995440244675 0.14899998903274536 -0.07499999552965164
v -0.028000010177493095 0.14899998903274536 -0.07499999552965164
v -0.028000010177493095 0.09300000965595245 -0.07499999552965164
v 0.03699998930096626 -0.1459999978542328 -0.07499999552965164
v 0.03699998930096626 -0.044999998062849045 -0.07499999552965164
v -0.037000007927417755 -0.044999998062849045 -0.07499999552965164
v -0.037000007927417755 -0.1459999978542328 -0.07499999552965164
v -0.21799999475479126 -0.009687500074505806 0.07499999552965164
v -0.17512500286102295 0.0364375114440918 0.07499999552965164
v -0.19999998807907104 0.05951562896370888 0.07499999552965164
v -0.19999998807907104 0.21728123724460602 0.07499999552965164
v -0.11037501692771912 0.30399999022483826 0.07499999552965164
v 0.11229687184095383 0.30399999022483826 0.07499999552965164
v 0.20100000500679016 0.21742188930511475 0.07499999552965164
v 0.20100000500679016 0.0599062517285347 0.07499999552965164
v 0.17607812583446503 0.03687501698732376 0.07499999552965164
v 0.21799999475479126 -0.009124984964728355 0.07499999552965164
v 0.21799999475479126 -0.19770312309265137 0.07499999552965164
v 0.11176562309265137 -0.30399999022483826 0.07499999552965164
v -0.11176563054323196 -0.30399999022483826 0.07499999552965164
v -0.21799999475479126 -0.19698436558246613 0.07499999552965164
v 0.028999995440244675 0.09300000965595245 0.07499999552965164
v 0.028999995440244675 0.14899998903274536 0.07499999552965164
v -0.028000010177493095 0.14899998903274536 0.07499999552965164
v -0.028000010177493095 0.09300000965595245 0.07499999552965164
v 0.03699998930096626 -0.1459999978542328 0.07499999552965164
v 0.03699998930096626 -0.044999998062849045 0.07499999552965164
v -0.037000007927417755 -0.044999998062849045 0.07499999552965164
v -0.037000007927417755 -0.1459999978542328 0.07499999552965164
v -0.19202594459056854 -0.01989503763616085 0.10097404569387436
v -0.13839976489543915 0.037796154618263245 0.10097404569387436
v -0.17402595281600952 0.07084882259368896 0.10097404569387436
v -0.17402595281600952 0.20627084374427795 0.10097404569387436
v -0.0998660996556282 0.27802595496177673 0.10097404569387436
v 0.10172206908464432 0.27802595496177673 0.10097404569387436
v 0.17502595484256744 0.20647817850112915 0.10097404569387436
v 0.17502595484256744 0.07126966118812561 0.10097404569387436
v 0.1395058035850525 0.0384441539645195 0.10097404569387436
v 0.19202594459056854 -0.01918514259159565 0.10097404569387436
v 0.19202594459056854 -0.18694879114627838 0.10097404569387436
v 0.10100235044956207 -0.27802595496177673 0.10097404569387436
v -0.10095103830099106 -0.27802595496177673 0.10097404569387436
v -0.19202594459056854 -0.1862812638282776 0.10097404569387436
v 0.054974038153886795 0.06702596694231033 0.10097404569387436
v 0.054974038153886795 0.17497403919696808 0.10097404569387436
v -0.053974054753780365 0.17497403919696808 0.10097404569387436
v -0.053974054753780365 0.06702596694231033 0.10097404569387436
v 0.06297402828931808 -0.1719740331172943 0.10097404569387436
v 0.06297402828931808 -0.019025955349206924 0.10097404569387436
v -0.06297405064105988 -0.019025955349206924 0.10097404569387436
v -0.06297405064105988 -0.1719740331172943 0.10097404569387436
v -0.17512500286102295 0.0364375114440918 -0.07499999552965164
v -0.17512500286102295 0.0364375114440918 0.07499999552965164
v -0.19999998807907104 0.05951562896370888 -0.07499999552965164
v -0.19999998807907104 0.05951562896370888 0.07499999552965164
v -0.19999998807907104 0.21728123724460602 -0.07499999552965164
v -0.19999998807907104 0.21728123724460602 0.07499999552965164
v -0.11037501692771912 0.30399999022483826 -0.07499999552965164
v -0.11037501692771912 0.30399999022483826 0.07499999552965164
v 0.11229687184095383 0.30399999022483826 -0.07499999552965164
v 0.11229687184095383 0.30399999022483826 0.07499999552965164
v 0.20100000500679016 0.21742188930511475 -0.07499999552965164
v 0.20100000500679016 0.21742188930511475 0.07499999552965164
v 0.20100000500679016 0.0599062517285347 -0.07499999552965164
v 0.20100000500679016 0.0599062517285347 0.07499999552965164
v 0.17607812583446503 0.03687501698732376 -0.07499999552965164
v 0.17607812583446503 0.03687501698732376 0.07499999552965164
v 0.11176562309265137 -0.30399999022483826 -0.07499999552965164
v 0.11176562309265137 -0.30399999022483826 0.07499999552965164
v -0.11176563054323196 -0.30399999022483826 -0.07499999552965164
v -0.11176563054323196 -0.30399999022483826 0.07499999552965164
v 0.028999995440244675 0.14899998903274536 -0.07499999552965164
v 0.028999995440244675 0.14899998903274536 0.07499999552965164
v -0.028000010177493095 0.14899998903274536 -0.07499999552965164
v -0.028000010177493095 0.14899998903274536 0.07499999552965164
v -0.028000010177493095 0.09300000965595245 -0.07499999552965164
v -0.028000010177493095 0.09300000965595245 0.07499999552965164
v 0.028999995440244675 0.09300000965595245 -0.07499999552965164
v 0.028999995440244675 0.09300000965595245 0.07499999552965164
v 0.03699998930096626 -0.044999998062849045 -0.07499999552965164
v 0.03699998930096626 -0.044999998062849045 0.07499999552965164
v -0.037000007927417755 -0.044999998062849045 -0.07499999552965164
v -0.037000007927417755 -0.044999998062849045 0.07499999552965164
v -0.037000007927417755 -0.1459999978542328 -0.07499999552965164
v -0.037000007927417755 -0.1459999978542328 0.07499999552965164
v 0.03699998930096626 -0.1459999978542328 -0.07499999552965164
v 0.03699998930096626 -0.1459999978542328 0.07499999552965164
v 0.06297402828931808 -0.019025955349206924 0.10097404569387436
v -0.19202594459056854 -0.01989503763616085 0.10097404569387436
v -0.06297405064105988 -0.019025955349206924 0.10097404569387436
v 0.06297402828931808 -0.019025955349206924 -0.10097404569387436
v -0.19202594459056854 -0.01989503763616085 -0.10097404569387436
v -0.06297405064105988 -0.019025955349206924 -0.10097404569387436
v -0.17512500286102295 0.0364375114440918 -0.07499999552965164
v -0.19202594459056854 -0.01989503763616085 -0.10097404569387436
v -0.21799999475479126 -0.009687500074505806 -0.07499999552965164
v -0.13839976489543915 0.037796154618263245 -0.10097404569387436
v -0.19999998807907104 0.05951562896370888 -0.07499999552965164
v -0.13839976489543915 0.037796154618263245 -0.10097404569387436
v -0.17512500286102295 0.0364375114440918 -0.07499999552965164
v -0.17402595281600952 0.07084882259368896 -0.10097404569387436
v -0.19999998807907104 0.21728123724460602 -0.07499999552965164
v -0.19999998807907104 0.05951562896370888 -0.07499999552965164
v -0.17402595281600952 0.20627084374427795 -0.10097404569387436
v -0.11037501692771912 0.30399999022483826 -0.07499999552965164
v -0.19999998807907104 0.21728123724460602 -0.07499999552965164
v -0.0998660996556282 0.27802595496177673 -0.10097404569387436
v 0.11229687184095383 0.30399999022483826 -0.07499999552965164
v 0.10172206908464432 0.27802595496177673 -0.10097404569387436
v 0.20100000500679016 0.21742188930511475 -0.07499999552965164
v 0.11229687184095383 0.30399999022483826 -0.07499999552965164
v 0.17502595484256744 0.20647817850112915 -0.10097404569387436
v 0.20100000500679016 0.0599062517285347 -0.07499999552965164
v 0.20100000500679016 0.21742188930511475 -0.07499999552965164
v 0.17502595484256744 0.07126966118812561 -0.10097404569387436
v 0.17607812583446503 0.03687501698732376 -0.07499999552965164
v 0.20100000500679016 0.0599062517285347 -0.07499999552965164
v 0.1395058035850525 0.0384441539645195 -0.10097404569387436
v 0.17607812583446503 0.03687501698732376 -0.07499999552965164
v 0.19202594459056854 -0.01918514259159565 -0.10097404569387436
v 0.19202594459056854 -0.18694879114627838 -0.10097404569387436
v 0.11176562309265137 -0.30399999022483826 -0.07499999552965164
v 0.10100235044956207 -0.27802595496177673 -0.10097404569387436
v -0.11176563054323196 -0.30399999022483826 -0.07499999552965164
v 0.11176562309265137 -0.30399999022483826 -0.07499999552965164
v -0.10095103830099106 -0.27802595496177673 -0.10097404569387436
v -0.21799999475479126 -0.19698436558246613 -0.07499999552965164
v -0.11176563054323196 -0.30399999022483826 -0.07499999552965164
v -0.19202594459056854 -0.1862812638282776 -0.10097404569387436
v -0.21799999475479126 -0.009687500074505806 -0.07499999552965164
v -0.21799999475479126 -0.19698436558246613 -0.07499999552965164
v 0.028999995440244675 0.14899998903274536 -0.07499999552965164
v 0.054974038153886795 0.06702596694231033 -0.10097404569387436
v 0.028999995440244675 0.09300000965595245 -0.07499999552965164
v 0.054974038153886795 0.17497403919696808 -0.10097404569387436
v -0.028000010177493095 0.14899998903274536 -0.07499999552965164
v 0.054974038153886795 0.17497403919696808 -0.10097404569387436
v 0.028999995440244675 0.14899998903274536 -0.07499999552965164
v -0.053974054753780365 0.17497403919696808 -0.10097404569387436
v -0.053974054753780365 0.17497403919696808 -0.10097404569387436
v -0.053974054753780365 0.06702596694231033 -0.10097404569387436
v 0.028999995440244675 0.09300000965595245 -0.07499999552965164
v -0.053974054753780365 0.06702596694231033 -0.10097404569387436
v -0.028000010177493095 0.09300000965595245 -0.07499999552965164
v 0.054974038153886795 0.06702596694231033 -0.10097404569387436
v 0.03699998930096626 -0.044999998062849045 -0.07499999552965164
v 0.06297402828931808 -0.1719740331172943 -0.10097404569387436
v 0.03699998930096626 -0.1459999978542328 -0.07499999552965164
v 0.06297402828931808 -0.019025955349206924 -0.10097404569387436
v -0.037000007927417755 -0.044999998062849045 -0.07499999552965164
v 0.06297402828931808 -0.019025955349206924 -0.10097404569387436
v 0.03699998930096626 -0.044999998062849045 -0.07499999552965164
v -0.06297405064105988 -0.019025955349206924 -0.10097404569387436
v -0.06297405064105988 -0.019025955349206924 -0.10097404569387436
v -0.06297405064105988 -0.1719740331172943 -0.10097404569387436
v 0.03699998930096626 -0.1459999978542328 -0.07499999552965164
v -0.06297405064105988 -0.1719740331172943 -0.10097404569387436
v -0.037000007927417755 -0.1459999978542328 -0.07499999552965164
v 0.06297402828931808 -0.1719740331172943 -0.10097404569387436
v -0.13839976489543915 0.037796154618263245 0.10097404569387436
v -0.19202594459056854 -0.01989503763616085 0.10097404569387436
v -0.17402595281600952 0.07084882259368896 0.10097404569387436
v -0.19999998807907104 0.05951562896370888 0.07499999552965164
v -0.13839976489543915 0.037796154618263245 0.10097404569387436
v -0.19999998807907104 0.05951562896370888 0.07499999552965164
v -0.17402595281600952 0.20627084374427795 0.10097404569387436
v -0.19999998807907104 0.21728123724460602 0.07499999552965164
v -0.19999998807907104 0.21728123724460602 0.07499999552965164
v -0.0998660996556282 0.27802595496177673 0.10097404569387436
v -0.11037501692771912 0.30399999022483826 0.07499999552965164
v -0.11037501692771912 0.30399999022483826 0.07499999552965164
v 0.10172206908464432 0.27802595496177673 0.10097404569387436
v 0.11229687184095383 0.30399999022483826 0.07499999552965164
v 0.17502595484256744 0.20647817850112915 0.10097404569387436
v 0.20100000500679016 0.21742188930511475 0.07499999552965164
v 0.20100000500679016 0.21742188930511475 0.07499999552965164
v 0.17502595484256744 0.07126966118812561 0.10097404569387436
v 0.20100000500679016 0.0599062517285347 0.07499999552965164
v 0.20100000500679016 0.0599062517285347 0.07499999552965164
v 0.1395058035850525 0.0384441539645195 0.10097404569387436
v 0.17607812583446503 0.03687501698732376 0.07499999552965164
v 0.17607812583446503 0.03687501698732376 0.07499999552965164
v 0.19202594459056854 -0.01918514259159565 0.10097404569387436
v 0.21799999475479126 -0.009124984964728355 0.07499999552965164
v 0.21799999475479126 -0.009124984964728355 0.07499999552965164
v 0.19202594459056854 -0.18694879114627838 0.10097404569387436
v 0.21799999475479126 -0.19770312309265137 0.07499999552965164
v 0.21799999475479126 -0.19770312309265137 0.07499999552965164
v 0.10100235044956207 -0.27802595496177673 0.10097404569387436
v 0.11176562309265137 -0.30399999022483826 0.07499999552965164
v 0.11176562309265137 -0.30399999022483826 0.07499999552965164
v -0.10095103830099106 -0.27802595496177673 0.10097404569387436
v -0.11176563054323196 -0.30399999022483826 0.07499999552965164
v -0.11176563054323196 -0.30399999022483826 0.07499999552965164
v -0.19202594459056854 -0.1862812638282776 0.10097404569387436
v 0.054974038153886795 0.17497403919696808 0.10097404569387436
v 0.054974038153886795 0.06702596694231033 0.10097404569387436
v 0.028999995440244675 0.14899998903274536 0.07499999552965164
v -0.053974054753780365 0.17497403919696808 0.10097404569387436
v -0.028000010177493095 0.14899998903274536 0.07499999552965164
v 0.054974038153886795 0.17497403919696808 0.10097404569387436
v -0.028000010177493095 0.14899998903274536 0.07499999552965164
v -0.053974054753780365 0.06702596694231033 0.10097404569387436
v -0.028000010177493095 0.09300000965595245 0.07499999552965164
v -0.053974054753780365 0.17497403919696808 0.10097404569387436
v -0.028000010177493095 0.09300000965595245 0.07499999552965164
v 0.054974038153886795 0.06702596694231033 0.10097404569387436
v 0.028999995440244675 0.09300000965595245 0.07499999552965164
v -0.053974054753780365 0.06702596694231033 0.10097404569387436
v 0.06297402828931808 -0.019025955349206924 0.10097404569387436
v 0.06297402828931808 -0.1719740331172943 0.10097404569387436
v 0.03699998930096626 -0.044999998062849045 0.07499999552965164
v -0.06297405064105988 -0.019025955349206924 0.10097404569387436
v -0.037000007927417755 -0.044999998062849045 0.07499999552965164
v 0.06297402828931808 -0.019025955349206924 0.10097404569387436
v -0.037000007927417755 -0.044999998062849045 0.07499999552965164
v -0.06297405064105988 -0.1719740331172943 0.10097404569387436
v -0.037000007927417755 -0.1459999978542328 0.07499999552965164
v -0.06297405064105988 -0.019025955349206924 0.10097404569387436
v -0.037000007927417755 -0.1459999978542328 0.07499999552965164
v 0.06297402828931808 -0.1719740331172943 0.10097404569387436
v 0.03699998930096626 -0.1459999978542328 0.07499999552965164
v -0.06297405064105988 -0.1719740331172943 0.10097404569387436
g submesh_0
f 86 67 87
f 21 1 20
f 47 25 90
f 90 25 89
f 48 26 92
f 92 26 91
f 49 27 94
f 94 27 93
f 50 28 96
f 96 28 95
f 51 29 98
f 98 29 97
f 52 30 100
f 100 30 99
f 53 31 102
f 102 31 101
f 56 34 55
f 55 34 33
f 55 33 54
f 54 33 32
f 54 32 104
f 104 32 103
f 57 35 106
f 106 35 105
f 46 24 45
f 45 24 23
f 45 23 58
f 58 23 36
f 58 36 108
f 108 36 107
f 233 60 59
f 59 60 38
f 59 38 37
f 61 39 110
f 110 39 109
f 177 111 40
f 40 111 112
f 40 112 62
f 116 115 114
f 114 115 113
f 247 64 63
f 63 64 42
f 63 42 41
f 65 43 118
f 118 43 117
f 191 119 44
f 44 119 120
f 44 120 66
f 124 123 122
f 122 123 121
f 74 73 82
f 74 82 75
f 75 82 81
f 75 81 125
f 125 81 68
f 125 68 126
f 79 78 88
f 79 88 80
f 80 88 127
f 80 127 126
f 7 8 16
f 16 8 9
f 16 9 15
f 15 9 128
f 15 128 2
f 2 128 129
f 12 13 22
f 22 13 14
f 22 14 130
f 130 14 129
f 133 131 132
f 132 131 134
f 137 135 136
f 136 135 138
f 140 139 138
f 138 139 141
f 145 146 144
f 145 144 142
f 142 144 141
f 142 141 143
f 148 147 146
f 146 147 149
f 151 150 149
f 149 150 152
f 154 153 152
f 152 153 155
f 159 160 158
f 159 158 33
f 33 158 157
f 33 157 32
f 32 157 155
f 32 155 156
f 162 161 160
f 160 161 163
f 165 164 163
f 163 164 166
f 168 167 166
f 166 167 132
f 171 169 170
f 170 169 172
f 175 173 174
f 174 173 176
f 178 177 40
f 181 179 180
f 180 179 182
f 185 183 184
f 184 183 186
f 189 187 188
f 188 187 190
f 192 191 44
f 195 193 194
f 194 193 196
f 200 90 199
f 199 90 201
f 204 202 203
f 203 202 199
f 207 205 206
f 206 205 203
f 211 212 210
f 211 210 209
f 209 210 208
f 209 208 206
f 215 213 214
f 214 213 211
f 218 216 217
f 217 216 214
f 221 219 220
f 220 219 217
f 224 222 223
f 223 222 220
f 227 225 226
f 226 225 223
f 230 228 229
f 229 228 226
f 197 46 45
f 197 45 198
f 198 45 58
f 198 58 232
f 232 58 231
f 232 231 229
f 234 233 59
f 237 235 236
f 236 235 238
f 241 239 240
f 240 239 242
f 245 243 244
f 244 243 246
f 248 247 63
f 251 249 250
f 250 249 252
f 255 253 254
f 254 253 256
f 259 257 258
f 258 257 260
f 71 70 83
f 83 70 69
f 83 69 84
f 84 69 68
f 84 68 81
f 88 78 85
f 85 78 77
f 85 77 76
f 85 76 125
f 125 76 75
f 73 72 82
f 82 72 71
f 82 71 83
f 15 2 18
f 18 2 3
f 18 3 17
f 17 3 4
f 17 4 5
f 10 11 19
f 19 11 12
f 19 12 22
f 19 128 10
f 10 128 9
f 17 5 16
f 16 5 6
f 16 6 7
