# 12
v 0.1764662265777588 -0.1719740331172943 -0.10097404569387436
v 0.22262249886989594 -0.1719740331172943 -0.10097404569387436
v 0.22262249886989594 0.27802595496177673 -0.10097404569387436
v 0.3557884097099304 0.27802595496177673 -0.10097404569387436
v 0.4097212851047516 0.22459226846694946 -0.10097404569387436
v 0.4097212851047516 0.16131779551506042 -0.10097404569387436
v 0.356190025806427 0.16131779551506042 -0.10097404569387436
v 0.356190025806427 -0.1719740331172943 -0.10097404569387436
v 0.40234625339508057 -0.1719740331172943 -0.10097404569387436
v 0.40234625339508057 -0.27802595496177673 -0.10097404569387436
v 0.1764662265777588 -0.27802595496177673 -0.10097404569387436
v -0.4097212851047516 -0.1719740331172943 -0.10097404569387436
v -0.17625416815280914 -0.1719740331172943 -0.10097404569387436
v -0.4097212851047516 0.03267847001552582 -0.10097404569387436
v -0.4097212851047516 0.1873161494731903 -0.10097404569387436
v -0.320454865694046 0.27802595496177673 -0.10097404569387436
v -0.11851560324430466 0.27802595496177673 -0.10097404569387436
v -0.026669330894947052 0.18713067471981049 -0.10097404569387436
v -0.026669330894947052 0.09947405010461807 -0.10097404569387436
v -0.1557212620973587 0.09947405010461807 -0.10097404569387436
v -0.1557212620973587 0.1719740480184555 -0.10097404569387436
v -0.28066930174827576 0.1719740480184555 -0.10097404569387436
v -0.28066930174827576 0.07360684871673584 -0.10097404569387436
v -0.026669330894947052 -0.15600252151489258 -0.10097404569387436
v -0.026669330894947052 -0.27802595496177673 -0.10097404569387436
v -0.4097212851047516 -0.27802595496177673 -0.10097404569387436
v 0.15049219131469727 -0.1459999978542328 -0.07499999552965164
v 0.1966484636068344 -0.1459999978542328 -0.07499999552965164
v 0.1966484636068344 0.30399999022483826 -0.07499999552965164
v 0.3664765954017639 0.30399999022483826 -0.07499999552965164
v 0.4356953203678131 0.23542188107967377 -0.07499999552965164
v 0.4356953203678131 0.1353437602519989 -0.07499999552965164
v 0.3821640610694885 0.1353437602519989 -0.07499999552965164
v 0.3821640610694885 -0.1459999978542328 -0.07499999552965164
v 0.4283202886581421 -0.1459999978542328 -0.07499999552965164
v 0.4283202886581421 -0.30399999022483826 -0.07499999552965164
v 0.15049219131469727 -0.30399999022483826 -0.07499999552965164
v -0.4356953203678131 -0.1459999978542328 -0.07499999552965164
v -0.24528905749320984 -0.1459999978542328 -0.07499999552965164
v -0.4356953203678131 0.020906277000904083 -0.07499999552965164
v -0.4356953203678131 0.19795311987400055 -0.07499999552965164
v -0.3313359022140503 0.30399999022483826 -0.07499999552965164
v -0.10783590376377106 0.30399999022483826 -0.07499999552965164
v -0.0006952857947908342 0.1979687660932541 -0.07499999552965164
v -0.0006952857947908342 0.07349999994039536 -0.07499999552965164
v -0.18169529736042023 0.07349999994039536 -0.07499999552965164
v -0.18169529736042023 0.1459999978542328 -0.07499999552965164
v -0.25469526648521423 0.1459999978542328 -0.07499999552965164
v -0.25469526648521423 0.08514063060283661 -0.07499999552965164
v -0.0006952857947908342 -0.1444687396287918 -0.07499999552965164
v -0.0006952857947908342 -0.30399999022483826 -0.07499999552965164
v -0.4356953203678131 -0.30399999022483826 -0.07499999552965164
v 0.15049219131469727 -0.1459999978542328 0.07499999552965164
v 0.1966484636068344 -0.1459999978542328 0.07499999552965164
v 0.1966484636068344 0.30399999022483826 0.07499999552965164
v 0.3664765954017639 0.30399999022483826 0.07499999552965164
v 0.4356953203678131 0.23542188107967377 0.07499999552965164
v 0.4356953203678131 0.1353437602519989 0.07499999552965164
v 0.3821640610694885 0.1353437602519989 0.07499999552965164
v 0.3821640610694885 -0.1459999978542328 0.07499999552965164
v 0.4283202886581421 -0.1459999978542328 0.07499999552965164
v 0.4283202886581421 -0.30399999022483826 0.07499999552965164
v 0.15049219131469727 -0.30399999022483826 0.07499999552965164
v -0.4356953203678131 -0.1459999978542328 0.07499999552965164
v -0.24528905749320984 -0.1459999978542328 0.07499999552965164
v -0.4356953203678131 0.020906277000904083 0.07499999552965164
v -0.4356953203678131 0.19795311987400055 0.07499999552965164
v -0.3313359022140503 0.30399999022483826 0.07499999552965164
v -0.10783590376377106 0.30399999022483826 0.07499999552965164
v -0.0006952857947908342 0.1979687660932541 0.07499999552965164
v -0.0006952857947908342 0.07349999994039536 0.07499999552965164
v -0.18169529736042023 0.07349999994039536 0.07499999552965164
v -0.18169529736042023 0.1459999978542328 0.07499999552965164
v -0.25469526648521423 0.1459999978542328 0.07499999552965164
v -0.25469526648521423 0.08514063060283661 0.07499999552965164
v -0.0006952857947908342 -0.1444687396287918 0.07499999552965164
v -0.0006952857947908342 -0.30399999022483826 0.07499999552965164
v -0.4356953203678131 -0.30399999022483826 0.07499999552965164
v 0.1764662265777588 -0.1719740331172943 0.10097404569387436
v 0.22262249886989594 -0.1719740331172943 0.10097404569387436
v 0.22262249886989594 0.27802595496177673 0.10097404569387436
v 0.3557884097099304 0.27802595496177673 0.10097404569387436
v 0.4097212851047516 0.22459226846694946 0.10097404569387436
v 0.4097212851047516 0.16131779551506042 0.10097404569387436
v 0.356190025806427 0.16131779551506042 0.10097404569387436
v 0.356190025806427 -0.1719740331172943 0.10097404569387436
v 0.40234625339508057 -0.1719740331172943 0.10097404569387436
v 0.40234625339508057 -0.27802595496177673 0.10097404569387436
v 0.1764662265777588 -0.27802595496177673 0.10097404569387436
v -0.4097212851047516 -0.1719740331172943 0.10097404569387436
v -0.17625416815280914 -0.1719740331172943 0.10097404569387436
v -0.4097212851047516 0.03267847001552582 0.10097404569387436
v -0.4097212851047516 0.1873161494731903 0.10097404569387436
v -0.320454865694046 0.27802595496177673 0.10097404569387436
v -0.11851560324430466 0.27802595496177673 0.10097404569387436
v -0.026669330894947052 0.18713067471981049 0.10097404569387436
v -0.026669330894947052 0.09947405010461807 0.10097404569387436
v -0.1557212620973587 0.09947405010461807 0.10097404569387436
v -0.1557212620973587 0.1719740480184555 0.10097404569387436
v -0.28066930174827576 0.1719740480184555 0.10097404569387436
v -0.28066930174827576 0.07360684871673584 0.10097404569387436
v -0.026669330894947052 -0.15600252151489258 0.10097404569387436
v -0.026669330894947052 -0.27802595496177673 0.10097404569387436
v -0.4097212851047516 -0.27802595496177673 0.10097404569387436
v 0.1966484636068344 -0.1459999978542328 -0.07499999552965164
v 0.1966484636068344 -0.1459999978542328 0.07499999552965164
v 0.1966484636068344 0.30399999022483826 -0.07499999552965164
v 0.1966484636068344 0.30399999022483826 0.07499999552965164
v 0.3664765954017639 0.30399999022483826 -0.07499999552965164
v 0.3664765954017639 0.30399999022483826 0.07499999552965164
v 0.4356953203678131 0.23542188107967377 -0.07499999552965164
v 0.4356953203678131 0.23542188107967377 0.07499999552965164
v 0.4356953203678131 0.1353437602519989 -0.07499999552965164
v 0.4356953203678131 0.1353437602519989 0.07499999552965164
v 0.3821640610694885 0.1353437602519989 -0.07499999552965164
v 0.3821640610694885 0.1353437602519989 0.07499999552965164
v 0.3821640610694885 -0.1459999978542328 -0.07499999552965164
v 0.3821640610694885 -0.1459999978542328 0.07499999552965164
v 0.4283202886581421 -0.1459999978542328 -0.07499999552965164
v 0.4283202886581421 -0.1459999978542328 0.07499999552965164
v 0.4283202886581421 -0.30399999022483826 -0.07499999552965164
v 0.4283202886581421 -0.30399999022483826 0.07499999552965164
v 0.15049219131469727 -0.30399999022483826 -0.07499999552965164
v 0.15049219131469727 -0.30399999022483826 0.07499999552965164
v 0.15049219131469727 -0.1459999978542328 -0.07499999552965164
v 0.15049219131469727 -0.1459999978542328 0.07499999552965164
v -0.24528905749320984 -0.1459999978542328 -0.07499999552965164
v -0.24528905749320984 -0.1459999978542328 0.07499999552965164
v -0.4356953203678131 0.020906277000904083 -0.07499999552965164
v -0.4356953203678131 0.020906277000904083 0.07499999552965164
v -0.3313359022140503 0.30399999022483826 -0.07499999552965164
v -0.3313359022140503 0.30399999022483826 0.07499999552965164
v -0.10783590376377106 0.30399999022483826 -0.07499999552965164
v -0.10783590376377106 0.30399999022483826 0.07499999552965164
v -0.0006952857947908342 0.1979687660932541 -0.07499999552965164
v -0.0006952857947908342 0.1979687660932541 0.07499999552965164
v -0.0006952857947908342 0.07349999994039536 -0.07499999552965164
v -0.0006952857947908342 0.07349999994039536 0.07499999552965164
v -0.18169529736042023 0.07349999994039536 -0.07499999552965164
v -0.18169529736042023 0.07349999994039536 0.07499999552965164
v -0.18169529736042023 0.1459999978542328 -0.07499999552965164
v -0.18169529736042023 0.1459999978542328 0.07499999552965164
v -0.25469526648521423 0.1459999978542328 -0.07499999552965164
v -0.25469526648521423 0.1459999978542328 0.07499999552965164
v -0.25469526648521423 0.08514063060283661 -0.07499999552965164
v -0.25469526648521423 0.08514063060283661 0.07499999552965164
v -0.0006952857947908342 -0.1444687396287918 -0.07499999552965164
v -0.0006952857947908342 -0.1444687396287918 0.07499999552965164
v -0.0006952857947908342 -0.30399999022483826 -0.07499999552965164
v -0.0006952857947908342 -0.30399999022483826 0.07499999552965164
v -0.4356953203678131 -0.30399999022483826 -0.07499999552965164
v -0.4356953203678131 -0.30399999022483826 0.07499999552965164
v -0.4356953203678131 -0.1459999978542328 -0.07499999552965164
v -0.4356953203678131 -0.1459999978542328 0.07499999552965164
v 0.1966484636068344 -0.1459999978542328 -0.07499999552965164
v 0.1764662265777588 -0.1719740331172943 -0.10097404569387436
v 0.15049219131469727 -0.1459999978542328 -0.07499999552965164
v 0.22262249886989594 -0.1719740331172943 -0.10097404569387436
v 0.1966484636068344 0.30399999022483826 -0.07499999552965164
v 0.22262249886989594 -0.1719740331172943 -0.10097404569387436
v 0.1966484636068344 -0.1459999978542328 -0.07499999552965164
v 0.22262249886989594 0.27802595496177673 -0.10097404569387436
v 0.3664765954017639 0.30399999022483826 -0.07499999552965164
v 0.22262249886989594 0.27802595496177673 -0.10097404569387436
v 0.1966484636068344 0.30399999022483826 -0.07499999552965164
v 0.3557884097099304 0.27802595496177673 -0.10097404569387436
v 0.4356953203678131 0.23542188107967377 -0.07499999552965164
v 0.3664765954017639 0.30399999022483826 -0.07499999552965164
v 0.4097212851047516 0.22459226846694946 -0.10097404569387436
v 0.4356953203678131 0.23542188107967377 -0.07499999552965164
v 0.4097212851047516 0.16131779551506042 -0.10097404569387436
v 0.3821640610694885 0.1353437602519989 -0.07499999552965164
v 0.4097212851047516 0.16131779551506042 -0.10097404569387436
v 0.4356953203678131 0.1353437602519989 -0.07499999552965164
v 0.356190025806427 0.16131779551506042 -0.10097404569387436
v 0.356190025806427 0.16131779551506042 -0.10097404569387436
v 0.356190025806427 -0.1719740331172943 -0.10097404569387436
v 0.4283202886581421 -0.1459999978542328 -0.07499999552965164
v 0.356190025806427 -0.1719740331172943 -0.10097404569387436
v 0.3821640610694885 -0.1459999978542328 -0.07499999552965164
v 0.40234625339508057 -0.1719740331172943 -0.10097404569387436
v 0.40234625339508057 -0.1719740331172943 -0.10097404569387436
v 0.40234625339508057 -0.27802595496177673 -0.10097404569387436
v 0.15049219131469727 -0.30399999022483826 -0.07499999552965164
v 0.40234625339508057 -0.27802595496177673 -0.10097404569387436
v 0.4283202886581421 -0.30399999022483826 -0.07499999552965164
v 0.1764662265777588 -0.27802595496177673 -0.10097404569387436
v 0.15049219131469727 -0.1459999978542328 -0.07499999552965164
v 0.1764662265777588 -0.27802595496177673 -0.10097404569387436
v 0.15049219131469727 -0.30399999022483826 -0.07499999552965164
v 0.1764662265777588 -0.1719740331172943 -0.10097404569387436
v -0.24528905749320984 -0.1459999978542328 -0.07499999552965164
v -0.4097212851047516 -0.1719740331172943 -0.10097404569387436
v -0.4356953203678131 -0.1459999978542328 -0.07499999552965164
v -0.17625416815280914 -0.1719740331172943 -0.10097404569387436
v -0.4356953203678131 0.020906277000904083 -0.07499999552965164
v -0.17625416815280914 -0.1719740331172943 -0.10097404569387436
v -0.24528905749320984 -0.1459999978542328 -0.07499999552965164
v -0.4097212851047516 0.03267847001552582 -0.10097404569387436
v -0.4356953203678131 0.19795311987400055 -0.07499999552965164
v -0.4356953203678131 0.020906277000904083 -0.07499999552965164
v -0.4097212851047516 0.1873161494731903 -0.10097404569387436
v -0.3313359022140503 0.30399999022483826 -0.07499999552965164
v -0.4356953203678131 0.19795311987400055 -0.07499999552965164
v -0.320454865694046 0.27802595496177673 -0.10097404569387436
v -0.10783590376377106 0.30399999022483826 -0.07499999552965164
v -0.3313359022140503 0.30399999022483826 -0.07499999552965164
v -0.11851560324430466 0.27802595496177673 -0.10097404569387436
v -0.0006952857947908342 0.1979687660932541 -0.07499999552965164
v -0.10783590376377106 0.30399999022483826 -0.07499999552965164
v -0.026669330894947052 0.18713067471981049 -0.10097404569387436
v -0.0006952857947908342 0.1979687660932541 -0.07499999552965164
v -0.026669330894947052 0.09947405010461807 -0.10097404569387436
v -0.18169529736042023 0.07349999994039536 -0.07499999552965164
v -0.026669330894947052 0.09947405010461807 -0.10097404569387436
v -0.0006952857947908342 0.07349999994039536 -0.07499999552965164
v -0.1557212620973587 0.09947405010461807 -0.10097404569387436
v -0.18169529736042023 0.1459999978542328 -0.07499999552965164
v -0.1557212620973587 0.09947405010461807 -0.10097404569387436
v -0.18169529736042023 0.07349999994039536 -0.07499999552965164
v -0.1557212620973587 0.1719740480184555 -0.10097404569387436
v -0.25469526648521423 0.1459999978542328 -0.07499999552965164
v -0.1557212620973587 0.1719740480184555 -0.10097404569387436
v -0.18169529736042023 0.1459999978542328 -0.07499999552965164
v -0.28066930174827576 0.1719740480184555 -0.10097404569387436
v -0.25469526648521423 0.08514063060283661 -0.07499999552965164
v -0.28066930174827576 0.1719740480184555 -0.10097404569387436
v -0.28066930174827576 0.07360684871673584 -0.10097404569387436
v -0.0006952857947908342 -0.1444687396287918 -0.07499999552965164
v -0.25469526648521423 0.08514063060283661 -0.07499999552965164
v -0.026669330894947052 -0.15600252151489258 -0.10097404569387436
v -0.0006952857947908342 -0.1444687396287918 -0.07499999552965164
v -0.026669330894947052 -0.27802595496177673 -0.10097404569387436
v -0.4356953203678131 -0.30399999022483826 -0.07499999552965164
v -0.026669330894947052 -0.27802595496177673 -0.10097404569387436
v -0.0006952857947908342 -0.30399999022483826 -0.07499999552965164
v -0.4097212851047516 -0.27802595496177673 -0.10097404569387436
v -0.4356953203678131 -0.1459999978542328 -0.07499999552965164
v -0.4097212851047516 -0.27802595496177673 -0.10097404569387436
v -0.4356953203678131 -0.30399999022483826 -0.07499999552965164
v -0.4097212851047516 -0.1719740331172943 -0.10097404569387436
v 0.15049219131469727 -0.1459999978542328 0.07499999552965164
v 0.22262249886989594 -0.1719740331172943 0.10097404569387436
v 0.1966484636068344 -0.1459999978542328 0.07499999552965164
v 0.1764662265777588 -0.1719740331172943 0.10097404569387436
v 0.22262249886989594 0.27802595496177673 0.10097404569387436
v 0.22262249886989594 -0.1719740331172943 0.10097404569387436
v 0.1966484636068344 0.30399999022483826 0.07499999552965164
v 0.3557884097099304 0.27802595496177673 0.10097404569387436
v 0.3664765954017639 0.30399999022483826 0.07499999552965164
v 0.22262249886989594 0.27802595496177673 0.10097404569387436
v 0.4097212851047516 0.22459226846694946 0.10097404569387436
v 0.4356953203678131 0.23542188107967377 0.07499999552965164
v 0.4356953203678131 0.23542188107967377 0.07499999552965164
v 0.4097212851047516 0.16131779551506042 0.10097404569387436
v 0.4356953203678131 0.1353437602519989 0.07499999552965164
v 0.4356953203678131 0.1353437602519989 0.07499999552965164
v 0.356190025806427 0.16131779551506042 0.10097404569387436
v 0.3821640610694885 0.1353437602519989 0.07499999552965164
v 0.4097212851047516 0.16131779551506042 0.10097404569387436
v 0.3821640610694885 0.1353437602519989 0.07499999552965164
v 0.356190025806427 -0.1719740331172943 0.10097404569387436
v 0.3821640610694885 -0.1459999978542328 0.07499999552965164
v 0.356190025806427 0.16131779551506042 0.10097404569387436
v 0.3821640610694885 -0.1459999978542328 0.07499999552965164
v 0.40234625339508057 -0.1719740331172943 0.10097404569387436
v 0.4283202886581421 -0.1459999978542328 0.07499999552965164
v 0.356190025806427 -0.1719740331172943 0.10097404569387436
v 0.4283202886581421 -0.1459999978542328 0.07499999552965164
v 0.40234625339508057 -0.27802595496177673 0.10097404569387436
v 0.4283202886581421 -0.30399999022483826 0.07499999552965164
v 0.40234625339508057 -0.1719740331172943 0.10097404569387436
v 0.4283202886581421 -0.30399999022483826 0.07499999552965164
v 0.1764662265777588 -0.27802595496177673 0.10097404569387436
v 0.15049219131469727 -0.30399999022483826 0.07499999552965164
v 0.40234625339508057 -0.27802595496177673 0.10097404569387436
v 0.1764662265777588 -0.1719740331172943 0.10097404569387436
v 0.1764662265777588 -0.27802595496177673 0.10097404569387436
v -0.4356953203678131 -0.1459999978542328 0.07499999552965164
v -0.17625416815280914 -0.1719740331172943 0.10097404569387436
v -0.24528905749320984 -0.1459999978542328 0.07499999552965164
v -0.4097212851047516 -0.1719740331172943 0.10097404569387436
v -0.4097212851047516 0.03267847001552582 0.10097404569387436
v -0.4356953203678131 0.020906277000904083 0.07499999552965164
v -0.17625416815280914 -0.1719740331172943 0.10097404569387436
v -0.4356953203678131 0.020906277000904083 0.07499999552965164
v -0.4097212851047516 0.1873161494731903 0.10097404569387436
v -0.320454865694046 0.27802595496177673 0.10097404569387436
v -0.3313359022140503 0.30399999022483826 0.07499999552965164
v -0.3313359022140503 0.30399999022483826 0.07499999552965164
v -0.11851560324430466 0.27802595496177673 0.10097404569387436
v -0.10783590376377106 0.30399999022483826 0.07499999552965164
v -0.026669330894947052 0.18713067471981049 0.10097404569387436
v -0.0006952857947908342 0.1979687660932541 0.07499999552965164
v -0.0006952857947908342 0.1979687660932541 0.07499999552965164
v -0.026669330894947052 0.09947405010461807 0.10097404569387436
v -0.0006952857947908342 0.07349999994039536 0.07499999552965164
v -0.0006952857947908342 0.07349999994039536 0.07499999552965164
v -0.1557212620973587 0.09947405010461807 0.10097404569387436
v -0.18169529736042023 0.07349999994039536 0.07499999552965164
v -0.026669330894947052 0.09947405010461807 0.10097404569387436
v -0.1557212620973587 0.1719740480184555 0.10097404569387436
v -0.1557212620973587 0.09947405010461807 0.10097404569387436
v -0.18169529736042023 0.1459999978542328 0.07499999552965164
v -0.28066930174827576 0.1719740480184555 0.10097404569387436
v -0.25469526648521423 0.1459999978542328 0.07499999552965164
v -0.1557212620973587 0.1719740480184555 0.10097404569387436
v -0.25469526648521423 0.1459999978542328 0.07499999552965164
v -0.28066930174827576 0.07360684871673584 0.10097404569387436
v -0.25469526648521423 0.08514063060283661 0.07499999552965164
v -0.28066930174827576 0.1719740480184555 0.10097404569387436
v -0.25469526648521423 0.08514063060283661 0.07499999552965164
v -0.026669330894947052 -0.15600252151489258 0.10097404569387436
v -0.0006952857947908342 -0.1444687396287918 0.07499999552965164
v -0.0006952857947908342 -0.1444687396287918 0.07499999552965164
v -0.026669330894947052 -0.27802595496177673 0.10097404569387436
v -0.0006952857947908342 -0.30399999022483826 0.07499999552965164
v -0.0006952857947908342 -0.30399999022483826 0.07499999552965164
v -0.4097212851047516 -0.27802595496177673 0.10097404569387436
v -0.4356953203678131 -0.30399999022483826 0.07499999552965164
v -0.026669330894947052 -0.27802595496177673 0.10097404569387436
v -0.4097212851047516 -0.1719740331172943 0.10097404569387436
v -0.4097212851047516 -0.27802595496177673 0.10097404569387436
g submesh_0
f 54 28 53
f 53 28 27
f 246 55 106
f 106 55 29
f 106 29 105
f 56 30 108
f 108 30 107
f 57 31 110
f 110 31 109
f 58 32 112
f 112 32 111
f 59 33 114
f 114 33 113
f 176 115 34
f 34 115 116
f 34 116 60
f 61 35 118
f 118 35 117
f 182 119 36
f 36 119 120
f 36 120 62
f 63 37 122
f 122 37 121
f 277 126 124
f 124 126 125
f 124 125 123
f 65 39 64
f 64 39 38
f 66 40 128
f 128 40 127
f 68 42 67
f 67 42 41
f 67 41 130
f 130 41 129
f 69 43 132
f 132 43 131
f 70 44 134
f 134 44 133
f 71 45 136
f 136 45 135
f 72 46 138
f 138 46 137
f 302 73 140
f 140 73 47
f 140 47 139
f 74 48 142
f 142 48 141
f 75 49 144
f 144 49 143
f 76 50 146
f 146 50 145
f 77 51 148
f 148 51 147
f 78 52 150
f 150 52 149
f 322 154 152
f 152 154 153
f 152 153 151
f 86 85 80
f 86 80 88
f 88 80 79
f 88 79 89
f 87 86 88
f 84 83 85
f 85 83 82
f 85 82 81
f 102 101 91
f 102 91 103
f 103 91 90
f 103 90 104
f 98 97 99
f 99 97 96
f 99 96 95
f 7 8 2
f 2 8 10
f 2 10 1
f 1 10 11
f 10 8 9
f 3 4 7
f 7 4 5
f 7 5 6
f 23 24 13
f 13 24 25
f 13 25 12
f 12 25 26
f 17 18 21
f 21 18 19
f 21 19 20
f 157 155 156
f 156 155 158
f 161 159 160
f 160 159 162
f 165 163 164
f 164 163 166
f 168 167 166
f 166 167 169
f 170 32 169
f 169 32 171
f 174 172 173
f 173 172 175
f 177 176 34
f 180 178 179
f 179 178 181
f 183 182 36
f 186 184 185
f 185 184 187
f 190 188 189
f 189 188 191
f 194 192 193
f 193 192 195
f 198 196 197
f 197 196 199
f 201 200 199
f 199 200 202
f 204 203 202
f 202 203 205
f 207 206 205
f 205 206 208
f 210 209 208
f 208 209 211
f 212 45 211
f 211 45 213
f 216 214 215
f 215 214 217
f 220 218 219
f 219 218 221
f 224 222 223
f 223 222 225
f 143 226 227
f 227 226 228
f 230 229 228
f 228 229 231
f 232 51 231
f 231 51 233
f 236 234 235
f 235 234 237
f 240 238 239
f 239 238 241
f 244 242 243
f 243 242 245
f 247 246 106
f 252 253 250
f 252 250 249
f 249 250 248
f 249 248 251
f 256 254 255
f 255 254 252
f 259 257 258
f 258 257 260
f 263 261 262
f 262 261 264
f 267 265 266
f 266 265 268
f 271 269 270
f 270 269 272
f 275 273 274
f 274 273 276
f 278 277 124
f 281 279 280
f 280 279 282
f 284 128 283
f 283 128 285
f 288 289 67
f 288 67 287
f 287 67 286
f 287 286 283
f 293 294 292
f 293 292 291
f 291 292 290
f 291 290 288
f 297 295 296
f 296 295 293
f 300 298 299
f 299 298 301
f 303 302 140
f 306 304 305
f 305 304 307
f 310 308 309
f 309 308 311
f 314 312 313
f 313 312 309
f 317 315 316
f 316 315 313
f 320 318 319
f 319 318 321
f 323 322 152
f 80 85 81
f 95 94 100
f 100 94 93
f 100 93 101
f 101 93 92
f 101 92 91
f 100 99 95
f 3 7 2
f 13 14 23
f 23 14 15
f 23 15 22
f 22 15 16
f 22 16 17
f 17 21 22
