# Inside
v -0.0013786227209493518 7.088665210375211e-09 0.0033997499849647284
v -0.0013316465774551034 0.00035681138979271054 0.0033997499849647284
v -0.0011939238756895065 0.000689304550178349 0.003399749519303441
v -0.0009748354204930365 0.0009748287266120315 0.003399749519303441
v -0.0006893113604746759 0.0011939207324758172 0.0033997499849647284
v -0.00035681473673321307 0.0013316466938704252 0.0033997499849647284
v -3.646175971826898e-13 0.0013786298222839832 0.0033997499849647284
v 0.0003568147076293826 0.0013316465774551034 0.0033997499849647284
v 0.0006893113604746759 0.0011939206160604954 0.0033997499849647284
v 0.0009748353622853756 0.0009748285519890487 0.003399749519303441
v 0.0011939239921048284 0.000689304550178349 0.003399749519303441
v 0.0013316465774551034 0.00035681138979271054 0.0033997499849647284
v 0.0013786227209493518 7.088664766286001e-09 0.0033997499849647284
v 0.0013316465774551034 -0.000356811098754406 0.00339974882081151
v 0.0011939238756895065 -0.0006893181707710028 0.0033997492864727974
v 0.0009748354204930365 -0.0009748282609507442 0.0033997492864727974
v 0.0006893113604746759 -0.0011939203832298517 0.00339974882081151
v 0.00035681473673321307 -0.0013316465774551034 0.00339974882081151
v -3.64627598947731e-13 -0.0013786294730380177 0.00339974882081151
v -0.0003568147076293826 -0.0013316464610397816 0.00339974882081151
v -0.0006893113604746759 -0.0011939203832298517 0.00339974882081151
v -0.0009748353622853756 -0.0009748281445354223 0.0033997492864727974
v -0.0011939239921048284 -0.0006893181707710028 0.0033997492864727974
v -0.0013316465774551034 -0.000356811098754406 0.00339974882081151
v 5.87126982676457e-20 4.937804831683934e-09 0.0005567759508267045
v -0.0006805851007811725 4.938888853445178e-09 0.000670706678647548
v -0.0006573934224434197 0.0001761495805112645 0.0006707067368552089
v -0.0005894041387364268 0.00034029583912342787 0.0006707067368552089
v -0.00048124618479050696 0.0004812483675777912 0.0006707067368552089
v -0.00034029135713353753 0.0005894040805287659 0.0006707067368552089
v -0.0001761473249644041 0.0006573933060280979 0.0006707067368552089
v -3.167405880387786e-19 0.0006805877201259136 0.0006707067368552089
v 0.0001761473249644041 0.0006573934224434197 0.0006707067368552089
v 0.000340293743647635 0.0005894040805287659 0.0006707067368552089
v 0.00048124618479050696 0.00048124833847396076 0.0006707067368552089
v 0.0005894041387364268 0.00034029583912342787 0.0006707067368552089
v 0.0006573958089575171 0.00017614956595934927 0.0006707067368552089
v 0.0006805851007811725 4.938888853445178e-09 0.0006707067368552089
v 0.0006573934224434197 -0.00017614965327084064 0.000670706678647548
v 0.0005894041387364268 -0.00034029639209620655 0.000670706678647548
v 0.00048124618479050696 -0.0004812483675777912 0.000670706678647548
v 0.00034029135713353753 -0.0005894040805287659 0.000670706678647548
v 0.0001761473249644041 -0.0006573934224434197 0.000670706678647548
v -5.381276724715655e-19 -0.0006805875455029309 0.000670706678647548
v -0.0001761473249644041 -0.0006573934806510806 0.000670706678647548
v -0.000340293743647635 -0.0005894040805287659 0.000670706678647548
v -0.00048124618479050696 -0.0004812483675777912 0.000670706678647548
v -0.0005894041387364268 -0.00034029639209620655 0.000670706678647548
v -0.0006573958089575171 -0.0001761496241670102 0.000670706678647548
v 0.0006805851007811725 4.938888853445178e-09 0.0006707067368552089
v -0.0006805851007811725 4.938888853445178e-09 0.000670706678647548
v -0.0006805851007811725 4.938888853445178e-09 0.000670706678647548
v -0.0006573934224434197 0.0001761495805112645 0.0006707067368552089
v -0.0005894041387364268 0.00034029583912342787 0.0006707067368552089
v -0.00048124618479050696 0.0004812483675777912 0.0006707067368552089
v -0.00034029135713353753 0.0005894040805287659 0.0006707067368552089
v -0.0001761473249644041 0.0006573933060280979 0.0006707067368552089
v -3.167405880387786e-19 0.0006805877201259136 0.0006707067368552089
v -3.167405880387786e-19 0.0006805877201259136 0.0006707067368552089
v 0.0001761473249644041 0.0006573934224434197 0.0006707067368552089
v -3.646175971826898e-13 0.0013786298222839832 0.0033997499849647284
v 0.000340293743647635 0.0005894040805287659 0.0006707067368552089
v 0.00048124618479050696 0.00048124833847396076 0.0006707067368552089
v 0.0005894041387364268 0.00034029583912342787 0.0006707067368552089
v 0.0006573958089575171 0.00017614956595934927 0.0006707067368552089
v 0.0006805851007811725 4.938888853445178e-09 0.0006707067368552089
v 0.0006805851007811725 4.938888853445178e-09 0.0006707067368552089
v 0.0006573934224434197 -0.00017614965327084064 0.000670706678647548
v 0.0005894041387364268 -0.00034029639209620655 0.000670706678647548
v 0.00048124618479050696 -0.0004812483675777912 0.000670706678647548
v 0.00034029135713353753 -0.0005894040805287659 0.000670706678647548
v 0.0001761473249644041 -0.0006573934224434197 0.000670706678647548
v -5.381276724715655e-19 -0.0006805875455029309 0.000670706678647548
v -0.0001761473249644041 -0.0006573934806510806 0.000670706678647548
v -0.000340293743647635 -0.0005894040805287659 0.000670706678647548
v -0.00048124618479050696 -0.0004812483675777912 0.000670706678647548
v -0.0005894041387364268 -0.00034029639209620655 0.000670706678647548
v -0.0006573958089575171 -0.0001761496241670102 0.000670706678647548
v -0.0006805851007811725 4.938888853445178e-09 0.000670706678647548
g submesh_0
f 29 28 25
f 25 28 27
f 25 27 26
f 38 37 25
f 25 37 36
f 25 36 35
f 41 40 25
f 25 40 39
f 25 39 50
f 51 49 25
f 25 49 48
f 25 48 47
f 58 7 57
f 57 7 6
f 57 6 56
f 56 6 5
f 56 5 55
f 55 5 4
f 55 4 54
f 54 4 3
f 54 3 53
f 53 3 2
f 53 2 52
f 52 2 1
f 66 13 65
f 65 13 12
f 65 12 64
f 64 12 11
f 64 11 63
f 63 11 10
f 63 10 62
f 62 10 9
f 62 9 60
f 60 9 8
f 60 8 59
f 59 8 61
f 79 1 78
f 78 1 24
f 78 24 77
f 77 24 23
f 77 23 76
f 76 23 22
f 76 22 75
f 75 22 21
f 75 21 74
f 74 21 20
f 74 20 73
f 73 20 19
f 73 19 72
f 72 19 18
f 72 18 71
f 71 18 17
f 71 17 70
f 70 17 16
f 70 16 69
f 69 16 15
f 69 15 68
f 68 15 14
f 68 14 67
f 67 14 13
f 32 31 25
f 25 31 30
f 25 30 29
f 35 34 25
f 25 34 33
f 25 33 32
f 44 43 25
f 25 43 42
f 25 42 41
f 47 46 25
f 25 46 45
f 25 45 44
