# shots00
v -0.26318833231925964 0.010441971011459827 -5.023066478315741e-07
v -0.16714560985565186 0.10551803559064865 -5.023066478315741e-07
v 0.047301024198532104 0.10551803559064865 -5.023066478315741e-07
v 0.047301024198532104 0.17707613110542297 -5.023066478315741e-07
v -0.052152860909700394 0.17707613110542297 -5.023066478315741e-07
v -0.052152860909700394 0.1322007030248642 -5.023066478315741e-07
v -0.254698246717453 0.1322007030248642 -5.023066478315741e-07
v -0.254698246717453 0.251022070646286 -5.023066478315741e-07
v -0.13726043701171875 0.36870643496513367 -5.023066478315741e-07
v 0.13902267813682556 0.36870643496513367 -5.023066478315741e-07
v 0.2631881535053253 0.24329018592834473 -5.023066478315741e-07
v 0.2631881535053253 0.032765958458185196 -5.023066478315741e-07
v 0.1615934669971466 -0.06913230568170547 -5.023066478315741e-07
v -0.04608863592147827 -0.06913230568170547 -5.023066478315741e-07
v -0.04608863592147827 -0.1770760715007782 -5.023066478315741e-07
v 0.047301024198532104 -0.1770760715007782 -5.023066478315741e-07
v 0.047301024198532104 -0.114007867872715 -5.023066478315741e-07
v 0.255911260843277 -0.114007867872715 -5.023066478315741e-07
v 0.255911260843277 -0.24694755673408508 -5.023066478315741e-07
v 0.13422805070877075 -0.3687063455581665 -5.023066478315741e-07
v -0.13034339249134064 -0.3687063455581665 -5.023066478315741e-07
v -0.26318833231925964 -0.23561500012874603 -5.023066478315741e-07
g submesh_0
f 21 20 16
f 16 20 19
f 16 19 17
f 17 19 18
f 9 8 5
f 5 8 7
f 5 7 6
f 1 22 15
f 15 22 21
f 15 21 16
f 3 2 14
f 14 2 1
f 14 1 15
f 14 13 3
f 3 13 12
f 3 12 11
f 3 11 4
f 4 11 10
f 4 10 9
f 4 9 5
