# game_over_b
v 0.7390487790107727 0.9027873873710632 2.4742147886058774e-08
v 0.8989086747169495 0.7744863629341125 2.877066407336315e-08
v 0.7977920174598694 0.6677883863449097 2.2589047077303803e-08
v 0.7781277298927307 0.6859750151634216 2.220218320303502e-08
v 0.7412777543067932 0.6451452374458313 1.9971993836520596e-08
v 0.7966406345367432 0.5913397669792175 2.089734962851253e-08
v 1.0077401399612427 0.7930845618247986 3.4069923771085087e-08
v 0.9369186162948608 0.8619139194488525 3.181223107162623e-08
v 0.903188169002533 0.8245408535003662 2.9770889753422125e-08
v 0.7612463235855103 0.9356490969657898 2.6009473685917328e-08
v 0.8192940950393677 1.021583914756775 2.932349119078026e-08
v 0.9830734133720398 1.0303117036819458 3.6112613344130295e-08
v 1.1846286058425903 0.8324201703071594 4.37208278469825e-08
v 1.1795763969421387 0.6663281321525574 4.15117753505001e-08
v 0.8548721075057983 0.4389677345752716 1.9929975891841423e-08
v 0.7196069359779358 0.4407326877117157 1.3938770138111067e-08
v 0.5375390648841858 0.6044690608978271 1.323769538430497e-08
v 0.12305999547243118 0.911320149898529 1.5450495993718505e-08
v 0.168182373046875 0.9067654013633728 1.5362639160798608e-08
v 0.3984246850013733 1.32114839553833 2.0770565711814015e-08
v 0.6010589599609375 1.2556114196777344 2.5069311959668994e-08
v 0.5521163940429688 0.7809462547302246 1.739124755317789e-08
v 0.589117705821991 0.7591866850852966 1.782136571648607e-08
v 0.5062466263771057 0.6246638298034668 1.3172720692011808e-08
v 0.34144774079322815 0.70405113697052 1.3252028807642091e-08
v 0.3922775089740753 0.8451764583587646 1.58617332601807e-08
v 0.4240344166755676 0.8331477642059326 1.607095256872526e-08
v 0.42565855383872986 0.8733066320419312 1.6693011417601156e-08
v 0.32681670784950256 0.9058058857917786 1.5992371871220712e-08
v 0.30584442615509033 0.8721100687980652 1.545235051025884e-08
v 0.33936309814453125 0.862644612789154 1.5582772405764445e-08
v 0.29618194699287415 0.7189944386482239 1.3417738919940803e-08
v 0.11060424894094467 0.7538118362426758 1.4884608212639705e-08
v 0.4377279579639435 1.0041279792785645 1.8593672379552117e-08
v 0.4374545216560364 1.080233097076416 1.9439758247585814e-08
v 0.39747923612594604 1.017414927482605 1.8089448161617838e-08
v -0.4700503349304199 0.7814085483551025 2.5890912525028398e-08
v -0.43835845589637756 0.7984336614608765 2.4739856385735948e-08
v -0.5725591778755188 1.0588932037353516 2.0296138103503836e-08
v -0.6131304502487183 1.0370978116989136 2.1267586802764527e-08
v -0.6897979378700256 1.1741054058074951 1.8790233369259113e-08
v -0.4568344056606293 1.2794299125671387 1.5454460822184046e-08
v -0.2755255103111267 1.135595679283142 1.6435333094477755e-08
v -0.18532927334308624 1.3474100828170776 1.4588840357987465e-08
v 0.07324981689453125 1.3642187118530273 1.61210120808164e-08
v 0.06982482969760895 1.2072560787200928 1.596963450367639e-08
v 0.022647399455308914 1.2074540853500366 1.5734658020960524e-08
v 0.026580810546875 0.9144803881645203 1.5905424533002588e-08
v 0.0634332224726677 0.9143258333206177 1.5687183108070712e-08
v 0.059986572712659836 0.7563634514808655 1.5534933339722556e-08
v -0.12525969743728638 0.7409393191337585 1.9039580578805726e-08
v -0.15478239953517914 0.8961566090583801 1.787076975290347e-08
v -0.11586090177297592 0.9028008580207825 1.731463150633772e-08
v -0.13862395286560059 1.053213119506836 1.639444136003476e-08
v -0.18563444912433624 0.926473081111908 1.795011428384896e-08
v -0.25486937165260315 0.9092559814453125 1.911313951552529e-08
v -0.35483673214912415 0.9994080662727356 1.8993850048332206e-08
v -0.30465179681777954 0.85593181848526 2.0814914236666482e-08
v -0.26798003911972046 0.8680039048194885 1.9966936548598824e-08
v -0.22135436534881592 0.7170401811599731 2.1697450947044672e-08
v -0.39289426803588867 0.6435282826423645 2.838405599447924e-08
v -0.8520525693893433 0.4938785135746002 4.7114006918036466e-08
v -0.760353684425354 0.6077408194541931 3.915138080401448e-08
v -0.7280135750770569 0.57790607213974 3.9945842189581526e-08
v -0.6780813336372375 0.6284705996513367 3.637756762486788e-08
v -0.7296258211135864 0.6829516291618347 3.502136536326361e-08
v -0.8217577934265137 0.5846364498138428 4.155812405315373e-08
v -0.9387161135673523 0.6817173361778259 3.884630217498852e-08
v -0.8340890407562256 0.7933663725852966 3.227294698149308e-08
v -0.8794482350349426 0.841309666633606 3.107946966451891e-08
v -0.9433703422546387 0.7765779495239258 3.46554962504797e-08
v -0.9176449179649353 0.752845823764801 3.5287449406951055e-08
v -1.0273510217666626 0.6166238188743591 4.34403411020412e-08
v -1.1846282482147217 0.7267504930496216 4.014433230281611e-08
v -0.7662197947502136 1.1282998323440552 2.055548975476995e-08
v -0.6815310716629028 0.9961001873016357 2.31733068289941e-08
v -0.7198778986930847 0.9705937504768372 2.4404180010151322e-08
v -0.5534347295761108 0.7294595241546631 2.9412511537429964e-08
v -0.5234805345535278 0.7493836283683777 2.8058783740902982e-08
v -0.43825194239616394 0.6163419485092163 3.069330034577433e-08
v -0.6865838766098022 0.37801605463027954 5.0581693500362235e-08
v 0.5416549444198608 -0.7151585221290588 3.1344802309263287e-09
v 0.5477004647254944 -0.5797004699707031 -2.5236681633344915e-09
v 0.669624924659729 -0.46216636896133423 -1.2455750209028338e-08
v 0.8004412651062012 -0.46148550510406494 -1.5801235875301245e-08
v 1.1284475326538086 -0.6911581158638 -8.927311334616661e-09
v 1.1331826448440552 -0.8555859327316284 -1.532282523086792e-09
v 0.9210891723632812 -1.0595424175262451 8.276982654820131e-09
v 0.7555621266365051 -1.0481919050216675 9.740505291233603e-09
v 0.9568120837211609 -0.8151943683624268 -8.778101578954534e-10
v 0.7466781735420227 -0.6124441623687744 -6.161865240272846e-09
v 0.6932967901229858 -0.6637809872627258 -2.5357826949345963e-09
v 0.8876904249191284 -0.8816688060760498 2.7219333453842864e-09
v 0.05535583198070526 -0.7568493485450745 1.546318983969286e-08
v 0.2446829229593277 -0.7300243973731995 1.1129738908266518e-08
v 0.2844192385673523 -0.8819125294685364 1.2643210922647086e-08
v 0.2599136233329773 -0.8879905343055725 1.3105379892408564e-08
v 0.34508025646209717 -1.0334060192108154 1.3953793676080295e-08
v 0.3436935245990753 -0.8644101023674011 1.1365625773862575e-08
v 0.32044920325279236 -0.8717544078826904 1.1894551121827135e-08
v 0.2749951183795929 -0.7214784026145935 1.020158091336043e-08
v 0.45131438970565796 -0.6449596881866455 3.067941456436074e-09
v 0.5300289988517761 -0.78080153465271 5.583785878116032e-09
v 0.4812997281551361 -0.8072426915168762 7.393425871526915e-09
v 0.5098962187767029 -1.28424072265625 1.6356315413190714e-08
v 0.3285678029060364 -1.3346854448318481 1.7130478369153934e-08
v 0.11233855783939362 -0.9110186696052551 1.5167314515451835e-08
v 0.05937743932008743 -0.9137977361679077 1.5636759442827497e-08
v -0.49860259890556335 -1.0427120923995972 9.355133556709916e-09
v -0.3364425599575043 -1.1064016819000244 1.2233503099423615e-08
v -0.3496069312095642 -1.148386001586914 1.157000806273345e-08
v -0.26148590445518494 -1.172603726387024 1.293985363304273e-08
v -0.24420073628425598 -1.0996226072311401 1.3783608920903134e-08
v -0.38981321454048157 -1.0552741289138794 1.1746632111453437e-08
v -0.3364492654800415 -0.9129495024681091 1.4502146150618955e-08
v -0.2091699242591858 -0.9517144560813904 1.54937502827579e-08
v -0.193959042429924 -0.8874911069869995 1.6236297639693476e-08
v -0.26194456219673157 -0.8688073754310608 1.5988478097028747e-08
v -0.2724163830280304 -0.9022040963172913 1.5460681623835626e-08
v -0.4065515100955963 -0.8495214581489563 1.4288414007523897e-08
v -0.32396361231803894 -0.6761915683746338 1.8714560567900662e-08
v 0.004561462439596653 -0.7566003203392029 1.6263763669144282e-08
v -0.0009988403180614114 -0.9135017395019531 1.60164557172493e-08
v -0.03664184361696243 -0.9115942120552063 1.616724887298915e-08
v -0.05757507309317589 -1.203845500946045 1.521951986660497e-08
v -0.01137542724609375 -1.2063180208206177 1.5554832089037518e-08
v -0.016971129924058914 -1.364218831062317 1.5305921863273397e-08
v -0.5854915976524353 -1.225069522857666 4.698486044674155e-09
v -1.0163449048995972 -0.6603283286094666 -6.320881151822277e-09
v -0.9814693927764893 -0.7077781558036804 -5.00356911459221e-09
v -0.8520980477333069 -0.6784176230430603 2.1908612701793118e-09
v -0.8433797955513 -0.5967849493026733 4.084465654585756e-09
v -0.7072454690933228 -0.4925307333469391 1.2973138119320993e-08
v -0.5787038803100586 -0.4880817234516144 1.837069696364324e-08
v -0.36569273471832275 -0.6548466086387634 1.8754978015067536e-08
v -0.44109711050987244 -0.7925533652305603 1.4615650023586113e-08
v -0.4728381335735321 -0.7744024395942688 1.427069662440772e-08
v -0.6229619979858398 -1.026020884513855 5.899745136872525e-09
v -0.5818197727203369 -1.0495476722717285 6.890585435570529e-09
v -0.657704770565033 -1.1881316900253296 2.724881209559271e-09
v -0.9138769507408142 -1.0092157125473022 -5.4967332907551736e-09
v -0.8171294927597046 -0.8985407948493958 3.200682219262063e-10
v -0.792004406452179 -0.9199447631835938 1.0862629684638136e-09
v -0.7396295070648193 -0.8568505644798279 4.202044934231708e-09
v -0.7718655467033386 -0.8291213512420654 3.3246010389120784e-09
v -0.8574898838996887 -0.8617269992828369 -9.5515362286136e-10
v -0.8479580283164978 -0.8732038736343384 -6.85033640923649e-10
v -0.9468231201171875 -0.9795080423355103 -6.705488164726603e-09
v -1.1457709074020386 -0.7509533762931824 -1.492339052333591e-08
v -0.6422716975212097 -0.7323107719421387 1.0138862194253306e-08
v -0.6011773347854614 -0.683246910572052 1.2588022180182179e-08
v -0.6504449248313904 -0.6390966773033142 1.1826666757031035e-08
v -0.6947265267372131 -0.6853042244911194 9.11331632380552e-09
v -0.016971129924058914 -1.364218831062317 1.5305921863273397e-08
v -0.3496069312095642 -1.148386001586914 1.157000806273345e-08
v -0.49860259890556335 -1.0427120923995972 9.355133556709916e-09
v -0.9814693927764893 -0.7077781558036804 -5.00356911459221e-09
v -0.8479580283164978 -0.8732038736343384 -6.85033640923649e-10
v -0.8574898838996887 -0.8617269992828369 -9.5515362286136e-10
v -0.792004406452179 -0.9199447631835938 1.0862629684638136e-09
v -0.5818197727203369 -1.0495476722717285 6.890585435570529e-09
v -0.6229619979858398 -1.026020884513855 5.899745136872525e-09
g submesh_0
f 128 127 109
f 110 109 111
f 156 154 155
f 158 146 157
f 161 138 160
f 13 12 8
f 8 12 11
f 8 11 9
f 9 11 10
f 3 2 4
f 4 2 1
f 4 1 5
f 5 1 17
f 5 17 6
f 6 17 16
f 6 16 15
f 30 29 19
f 30 19 32
f 32 19 18
f 32 18 33
f 31 30 32
f 26 25 27
f 27 25 24
f 27 24 23
f 58 57 38
f 58 38 60
f 60 38 37
f 60 37 61
f 59 58 60
f 49 48 50
f 50 48 53
f 50 53 51
f 51 53 52
f 46 45 47
f 47 45 44
f 47 44 43
f 55 54 57
f 57 54 43
f 57 43 39
f 39 43 42
f 39 42 40
f 40 42 41
f 57 56 55
f 65 64 80
f 80 64 62
f 80 62 81
f 68 67 69
f 69 67 66
f 69 66 77
f 77 66 65
f 77 65 78
f 78 65 80
f 78 80 79
f 71 70 74
f 74 70 77
f 74 77 75
f 75 77 76
f 73 72 74
f 74 72 71
f 63 62 64
f 97 96 95
f 97 95 107
f 107 95 94
f 107 94 108
f 100 99 101
f 101 99 104
f 101 104 102
f 102 104 103
f 115 114 116
f 116 114 113
f 116 113 124
f 124 113 112
f 124 112 125
f 125 112 127
f 125 127 126
f 118 117 121
f 121 117 124
f 121 124 122
f 122 124 123
f 120 119 121
f 121 119 118
f 111 127 112
f 147 130 148
f 148 130 129
f 148 129 149
f 142 141 143
f 143 141 140
f 143 140 139
f 151 150 137
f 137 150 144
f 137 144 162
f 162 144 143
f 152 151 134
f 134 151 137
f 134 137 135
f 135 137 136
f 15 14 7
f 7 14 13
f 7 13 8
f 7 6 15
f 22 21 35
f 35 21 20
f 35 20 36
f 36 20 19
f 36 19 34
f 34 19 29
f 34 29 28
f 28 27 34
f 34 27 22
f 34 22 35
f 23 22 27
f 38 57 39
f 43 54 47
f 47 54 53
f 47 53 48
f 69 77 70
f 89 88 93
f 89 93 82
f 82 93 92
f 82 92 91
f 85 84 91
f 91 84 83
f 91 83 82
f 88 87 90
f 90 87 86
f 90 86 91
f 91 86 85
f 90 93 88
f 107 106 98
f 98 106 105
f 98 105 99
f 99 105 104
f 98 97 107
f 116 124 117
f 134 133 152
f 152 133 132
f 152 132 153
f 153 132 131
f 153 131 150
f 150 131 130
f 150 130 159
f 159 145 150
f 150 145 144
