# lightrays_01
v -0.19580645859241486 -3.3122227183213226e-09 0.0
v -0.1384560614824295 0.1384560763835907 9.239894904023794e-16
v 8.558972197647563e-09 0.19580645859241486 -7.562151588358886e-24
v 0.1384560763835907 0.1384560763835907 2.1287882169812312e-16
v 0.19580645859241486 -2.0430169556107103e-08 -1.0164395139859663e-22
v 0.1384560465812683 -0.1384560912847519 2.1287875552367412e-16
v -2.3349695510432866e-09 -0.19580644369125366 5.684341229630267e-16
v -0.1384560465812683 -0.1384560912847519 9.239894904023794e-16
v -0.5055894255638123 -2.542228472179886e-08 1.5883196592330933
v -0.3575056791305542 0.3575057089328766 1.5883196592330933
v 2.2100016039416914e-08 0.5055894255638123 1.5883196592330933
v 0.3575057089328766 0.3575056791305542 1.5883196592330933
v 0.5055894255638123 -6.962231680063269e-08 1.5883196592330933
v 0.3575056493282318 -0.35750579833984375 1.5883196592330933
v -6.0290901160442445e-09 -0.505589485168457 1.5883196592330933
v -0.3575056791305542 -0.357505738735199 1.5883196592330933
v 8.558972197647563e-09 0.19580645859241486 -7.562151588358886e-24
v 2.2100016039416914e-08 0.5055894255638123 1.5883196592330933
g submesh_0
f 17 18 12
f 17 12 4
f 4 12 13
f 4 13 5
f 5 13 14
f 5 14 6
f 6 14 15
f 6 15 7
f 7 15 16
f 7 16 8
f 8 16 9
f 8 9 1
f 1 9 10
f 1 10 2
f 2 10 11
f 2 11 3
