# lazy_susan_00
v -0.01053128857165575 -5.26767952174767e-12 0.00012051090016029775
v -0.0098961740732193 0.0036019128747284412 0.00012051090016029775
v -0.008067434653639793 0.0067693814635276794 0.00012051090016029775
v -0.005265644285827875 0.009120363742113113 0.00012051090016029775
v -0.0018287381390109658 0.010371293872594833 0.00012051090016029775
v 0.0018287403509020805 0.010371293872594833 0.00012051090016029775
v 0.0052656447514891624 0.009120362810790539 0.00012051090016029775
v 0.008067434653639793 0.0067693814635276794 0.00012051090016029775
v 0.009896173141896725 0.0036019133403897285 0.00012051090016029775
v 0.01053128857165575 1.5849125345468451e-09 0.00012051090016029775
v 0.0098961740732193 -0.003601910313591361 0.00012051090016029775
v 0.008067436516284943 -0.006769379135221243 0.00012051090016029775
v 0.005265647545456886 -0.00912036094814539 0.00012051090016029775
v 0.0018287434941157699 -0.010371293872594833 0.00012051090016029775
v -0.0018287338316440582 -0.010371294803917408 0.00012051090016029775
v -0.0052656386978924274 -0.009120366536080837 0.00012051090016029775
v -0.008067430928349495 -0.006769387051463127 0.00012051090016029775
v -0.009896171279251575 -0.003601919626817107 0.00012051090016029775
v -0.01053128857165575 0.0 0.0007244247244670987
v -0.0098961740732193 0.0036019128747284412 0.0007244247244670987
v -0.008067434653639793 0.0067693814635276794 0.0007244247244670987
v -0.005265644285827875 0.009120363742113113 0.0007244247244670987
v -0.0018287381390109658 0.010371293872594833 0.0007244247244670987
v 0.0018287403509020805 0.010371293872594833 0.0007244247244670987
v 0.0052656447514891624 0.009120362810790539 0.0007244247244670987
v 0.008067434653639793 0.0067693814635276794 0.0007244247244670987
v 0.009896173141896725 0.0036019133403897285 0.0007244247244670987
v 0.01053128857165575 1.590180209731784e-09 0.0007244247244670987
v 0.0098961740732193 -0.003601910313591361 0.0007244247244670987
v 0.008067436516284943 -0.006769379135221243 0.0007244247244670987
v 0.005265647545456886 -0.00912036094814539 0.0007244247244670987
v 0.0018287434941157699 -0.010371293872594833 0.0007244247244670987
v -0.0018287338316440582 -0.010371294803917408 0.0007244247244670987
v -0.0052656386978924274 -0.009120366536080837 0.0007244247244670987
v -0.008067430928349495 -0.006769387051463127 0.0007244247244670987
v -0.009896171279251575 -0.003601919626817107 0.0007244247244670987
v -1.0730516475376817e-10 3.615827429137575e-11 0.0008412461611442268
v -0.010364565998315811 2.118735742406841e-10 0.0008412461611442268
v -0.009739506058394909 0.0035448900889605284 0.0008412461611442268
v -0.007939716801047325 0.006662214174866676 0.0008412461611442268
v -0.005182282999157906 0.008975977078080177 0.0008412461611442268
v -0.0017997872782871127 0.010207103565335274 0.0008412461611442268
v 0.0017997893737629056 0.010207103565335274 0.0008412461611442268
v 0.005182283464819193 0.008975976146757603 0.0008412461611442268
v 0.0079397177323699 0.006662214174866676 0.0008412461611442268
v 0.009739505127072334 0.003544891020283103 0.0008412461611442268
v 0.010364565998315811 1.5924487284380007e-09 0.0008412461611442268
v 0.009739506989717484 -0.003544888226315379 0.0008412461611442268
v 0.007939719595015049 -0.006662212312221527 0.0008412461611442268
v 0.005182286258786917 -0.008975975215435028 0.0008412461611442268
v 0.0017997921677306294 -0.010207103565335274 0.0008412461611442268
v -0.0017997829709202051 -0.010207104496657848 0.0008412461611442268
v -0.005182277411222458 -0.008975979872047901 0.0008412461611442268
v -0.007939714007079601 -0.006662219762802124 0.0008412461611442268
v -0.009739503264427185 -0.003544897073879838 0.0008412461611442268
v -0.008067434653639793 0.0067693814635276794 0.0007244247244670987
v -0.008067434653639793 0.0067693814635276794 0.0007244247244670987
v -0.005265644285827875 0.009120363742113113 0.0007244247244670987
v 0.008067434653639793 0.0067693814635276794 0.0007244247244670987
v 0.008067436516284943 -0.006769379135221243 0.0007244247244670987
v 0.005265647545456886 -0.00912036094814539 0.0007244247244670987
v -0.0052656386978924274 -0.009120366536080837 0.0007244247244670987
v -0.008067430928349495 -0.006769387051463127 0.0007244247244670987
v -0.01053128857165575 0.0 0.0007244247244670987
v -0.0098961740732193 0.0036019128747284412 0.0007244247244670987
v -0.008067434653639793 0.0067693814635276794 0.0007244247244670987
v -0.008067434653639793 0.0067693814635276794 0.0007244247244670987
v -0.0018287381390109658 0.010371293872594833 0.0007244247244670987
v 0.0018287403509020805 0.010371293872594833 0.0007244247244670987
v 0.0052656447514891624 0.009120362810790539 0.0007244247244670987
v 0.008067434653639793 0.0067693814635276794 0.0007244247244670987
v 0.009896173141896725 0.0036019133403897285 0.0007244247244670987
v 0.01053128857165575 1.590180209731784e-09 0.0007244247244670987
v 0.0098961740732193 -0.003601910313591361 0.0007244247244670987
v 0.008067436516284943 -0.006769379135221243 0.0007244247244670987
v 0.0018287434941157699 -0.010371293872594833 0.0007244247244670987
v -0.0018287338316440582 -0.010371294803917408 0.0007244247244670987
v -0.008067430928349495 -0.006769387051463127 0.0007244247244670987
v -0.009896171279251575 -0.003601919626817107 0.0007244247244670987
g submesh_0
f 3 2 56
f 22 3 57
f 21 2 20
f 20 2 1
f 20 1 19
f 19 1 18
f 19 18 36
f 36 18 17
f 36 17 63
f 3 58 4
f 4 58 23
f 4 23 5
f 5 23 24
f 5 24 6
f 6 24 25
f 6 25 7
f 7 25 26
f 7 26 8
f 30 11 29
f 29 11 10
f 29 10 28
f 28 10 9
f 28 9 27
f 27 9 8
f 27 8 59
f 11 60 12
f 12 60 31
f 12 31 13
f 34 16 15
f 34 15 33
f 33 15 14
f 33 14 32
f 32 14 13
f 32 13 61
f 17 16 35
f 35 16 62
f 35 62 54
f 54 62 53
f 54 53 37
f 37 53 52
f 37 52 51
f 51 52 76
f 51 76 31
f 78 54 55
f 78 55 79
f 79 55 38
f 79 38 64
f 64 38 39
f 64 39 65
f 65 39 40
f 65 40 66
f 51 31 50
f 50 31 75
f 50 75 49
f 49 75 74
f 49 74 48
f 48 74 73
f 48 73 47
f 47 73 72
f 47 72 46
f 46 72 71
f 46 71 45
f 45 71 70
f 45 70 44
f 44 70 69
f 44 69 43
f 43 69 68
f 43 68 42
f 42 68 22
f 42 22 41
f 41 22 67
f 41 67 40
f 76 52 77
f 77 52 53
f 77 53 62
f 41 40 37
f 37 40 39
f 37 39 38
f 44 43 37
f 37 43 42
f 37 42 41
f 47 46 37
f 37 46 45
f 37 45 44
f 50 49 37
f 37 49 48
f 37 48 47
f 50 37 51
f 54 37 55
f 55 37 38
