# helo_tail_rotor
v -0.004014193546026945 3.4080224753374466e-10 -0.02419871836900711
v 1.7546601671636353e-10 0.00401419447734952 -0.024198712781071663
v 0.004014193546026945 -1.0129674876679928e-11 -0.02419871836900711
v -4.786878185503163e-11 -0.004014193080365658 -0.02419871836900711
v -0.003982876427471638 6.029432508825039e-10 -0.0015473878011107445
v 3.2931865567853436e-10 0.0039828778244555 -0.0015473889652639627
v 0.003982876893132925 1.5590842505908142e-10 -0.0015473878011107445
v 3.129542458513157e-11 -0.00398287596181035 -0.0015473878011107445
v -0.014275114051997662 7.519548317347358e-10 0.005131992045789957
v 7.763534815019568e-10 0.014275114051997662 0.003940194845199585
v 0.014275114983320236 -1.036184471558954e-09 0.005131992045789957
v 1.8030706094851467e-10 -0.014275114983320236 0.003940186463296413
v -0.014342976734042168 7.519548317347358e-10 0.011425062082707882
v 7.763534815019568e-10 0.014342973940074444 0.013236788101494312
v 0.014342976734042168 -1.036184471558954e-09 0.011425062082707882
v 1.8030703319293906e-10 -0.014342977665364742 0.013236778788268566
v -0.007965278811752796 0.004972174298018217 0.007121254224330187
v -0.10677427798509598 0.012068149633705616 0.007713014725595713
v -0.007965278811752796 0.00497217383235693 0.009871818125247955
v -0.10677427798509598 0.012068149633705616 0.009280064143240452
v -0.007965278811752796 -0.00497217383235693 0.007121254224330187
v -0.10677427798509598 -0.012068201787769794 0.007713007740676403
v -0.007965278811752796 -0.00497217383235693 0.00987181719392538
v -0.10677427798509598 -0.012068201787769794 0.009280060417950153
v -0.11362045258283615 -2.1301763908354587e-08 0.007121254224330187
v -0.11362045258283615 -2.1301763908354587e-08 0.00987181719392538
v 0.007965277880430222 -0.0049721719697117805 0.007121254224330187
v 0.10677427053451538 -0.012068120762705803 0.007713007740676403
v 0.007965277880430222 -0.004972172435373068 0.00987181719392538
v 0.10677427053451538 -0.01206811610609293 0.009280060417950153
v 0.007965278811752796 0.004972176160663366 0.007121254224330187
v 0.10677427053451538 0.01206823531538248 0.007713014725595713
v 0.007965278811752796 0.004972175695002079 0.009871818125247955
v 0.10677427053451538 0.01206823531538248 0.009280064143240452
v 0.11362042278051376 5.0223810887928266e-08 0.007121254224330187
v 0.11362042278051376 5.0223810887928266e-08 0.00987181719392538
v 1.7546601671636353e-10 0.00401419447734952 -0.024198712781071663
v 3.2931865567853436e-10 0.0039828778244555 -0.0015473889652639627
v 0.004014193546026945 -1.0129674876679928e-11 -0.02419871836900711
v 0.003982876893132925 1.5590842505908142e-10 -0.0015473878011107445
v -4.786878185503163e-11 -0.004014193080365658 -0.02419871836900711
v 3.129542458513157e-11 -0.00398287596181035 -0.0015473878011107445
v -0.003982876427471638 6.029432508825039e-10 -0.0015473878011107445
v -0.004014193546026945 3.4080224753374466e-10 -0.02419871836900711
v -0.003982876427471638 6.029432508825039e-10 -0.0015473878011107445
v 3.2931865567853436e-10 0.0039828778244555 -0.0015473889652639627
v 3.2931865567853436e-10 0.0039828778244555 -0.0015473889652639627
v 7.763534815019568e-10 0.014275114051997662 0.003940194845199585
v 0.003982876893132925 1.5590842505908142e-10 -0.0015473878011107445
v 0.003982876893132925 1.5590842505908142e-10 -0.0015473878011107445
v 0.014275114983320236 -1.036184471558954e-09 0.005131992045789957
v 3.129542458513157e-11 -0.00398287596181035 -0.0015473878011107445
v 3.129542458513157e-11 -0.00398287596181035 -0.0015473878011107445
v 1.8030706094851467e-10 -0.014275114983320236 0.003940186463296413
v -0.014275114051997662 7.519548317347358e-10 0.005131992045789957
v -0.003982876427471638 6.029432508825039e-10 -0.0015473878011107445
v -0.014275114051997662 7.519548317347358e-10 0.005131992045789957
v 7.763534815019568e-10 0.014275114051997662 0.003940194845199585
v 7.763534815019568e-10 0.014275114051997662 0.003940194845199585
v 7.763534815019568e-10 0.014342973940074444 0.013236788101494312
v 0.014275114983320236 -1.036184471558954e-09 0.005131992045789957
v 0.014275114983320236 -1.036184471558954e-09 0.005131992045789957
v 0.014342976734042168 -1.036184471558954e-09 0.011425062082707882
v 1.8030706094851467e-10 -0.014275114983320236 0.003940186463296413
v 1.8030706094851467e-10 -0.014275114983320236 0.003940186463296413
v 1.8030703319293906e-10 -0.014342977665364742 0.013236778788268566
v -0.014342976734042168 7.519548317347358e-10 0.011425062082707882
v -0.014275114051997662 7.519548317347358e-10 0.005131992045789957
v -0.014342976734042168 7.519548317347358e-10 0.011425062082707882
v 1.8030703319293906e-10 -0.014342977665364742 0.013236778788268566
v 7.763534815019568e-10 0.014342973940074444 0.013236788101494312
v 0.014342976734042168 -1.036184471558954e-09 0.011425062082707882
v -0.007965278811752796 0.004972174298018217 0.007121254224330187
v -0.10677427798509598 0.012068149633705616 0.007713014725595713
v -0.10677427798509598 -0.012068201787769794 0.007713007740676403
v -0.007965278811752796 -0.00497217383235693 0.007121254224330187
v -0.10677427798509598 0.012068149633705616 0.007713014725595713
v -0.10677427798509598 0.012068149633705616 0.009280064143240452
v -0.11362045258283615 -2.1301763908354587e-08 0.007121254224330187
v -0.10677427798509598 -0.012068201787769794 0.009280060417950153
v -0.10677427798509598 -0.012068201787769794 0.007713007740676403
v -0.007965278811752796 0.00497217383235693 0.009871818125247955
v -0.10677427798509598 0.012068149633705616 0.009280064143240452
v -0.11362045258283615 -2.1301763908354587e-08 0.00987181719392538
v -0.007965278811752796 -0.00497217383235693 0.00987181719392538
v -0.10677427798509598 -0.012068201787769794 0.009280060417950153
v 0.007965277880430222 -0.0049721719697117805 0.007121254224330187
v 0.10677427053451538 -0.012068120762705803 0.007713007740676403
v 0.10677427053451538 0.01206823531538248 0.007713014725595713
v 0.007965278811752796 0.004972176160663366 0.007121254224330187
v 0.10677427053451538 -0.012068120762705803 0.007713007740676403
v 0.10677427053451538 -0.01206811610609293 0.009280060417950153
v 0.11362042278051376 5.0223810887928266e-08 0.007121254224330187
v 0.10677427053451538 0.01206823531538248 0.009280064143240452
v 0.10677427053451538 0.01206823531538248 0.007713014725595713
v 0.007965277880430222 -0.004972172435373068 0.00987181719392538
v 0.10677427053451538 -0.01206811610609293 0.009280060417950153
v 0.11362042278051376 5.0223810887928266e-08 0.00987181719392538
v 0.007965278811752796 0.004972175695002079 0.009871818125247955
v 0.10677427053451538 0.01206823531538248 0.009280064143240452
g submesh_0
f 5 6 1
f 1 6 2
f 38 7 37
f 37 7 3
f 40 8 39
f 39 8 4
f 42 43 41
f 41 43 44
f 9 10 45
f 45 10 46
f 48 11 47
f 47 11 49
f 51 12 50
f 50 12 52
f 54 55 53
f 53 55 56
f 13 14 57
f 57 14 58
f 60 15 59
f 59 15 61
f 63 16 62
f 62 16 64
f 66 67 65
f 65 67 68
f 72 71 70
f 70 71 69
f 19 17 20
f 20 17 18
f 22 21 24
f 24 21 23
f 76 75 73
f 73 75 25
f 73 25 74
f 81 80 79
f 79 80 26
f 79 26 77
f 77 26 78
f 86 85 84
f 84 85 82
f 84 82 83
f 29 27 30
f 30 27 28
f 32 31 34
f 34 31 33
f 90 89 87
f 87 89 35
f 87 35 88
f 95 94 93
f 93 94 36
f 93 36 91
f 91 36 92
f 100 99 98
f 98 99 96
f 98 96 97
