# name_leaderboard
v 1.2799999713897705 -0.6399999856948853 -4.95910626341356e-07
v -1.2799999713897705 -0.6399999856948853 -4.95910626341356e-07
v 1.2799999713897705 0.6407458186149597 -4.95910626341356e-07
v -1.2799999713897705 0.6407458186149597 -4.95910626341356e-07
v 1.28000009059906 2.0413835048675537 -4.95910626341356e-07
v -1.28000009059906 2.0413835048675537 -4.95910626341356e-07
v 1.2799999713897705 0.6407458186149597 -4.95910626341356e-07
v -1.2799999713897705 0.6407458186149597 -4.95910626341356e-07
g submesh_0
f 2 1 4
f 4 1 3
f 8 7 6
f 6 7 5
