# secret
v -0.26749664545059204 0.1851690262556076 -0.08500000089406967
v -0.25234150886535645 0.21031661331653595 -0.08500000089406967
v -0.22483111917972565 0.2392178624868393 -0.08500000089406967
v -0.19123438000679016 0.26426172256469727 -0.08500000089406967
v -0.15083707869052887 0.2828815281391144 -0.08500000089406967
v -0.10681092739105225 0.29618141055107117 -0.08500000089406967
v -0.05770440772175789 0.30203330516815186 -0.08500000089406967
v 0.0014457773650065064 0.3022243082523346 -0.08500000089406967
v 0.0599462054669857 0.29235267639160156 -0.08500000089406967
v 0.10993049293756485 0.2748876214027405 -0.08500000089406967
v 0.14801552891731262 0.24700260162353516 -0.08500000089406967
v 0.1878788322210312 0.19482272863388062 -0.08500000089406967
v 0.20598788559436798 0.13332846760749817 -0.08500000089406967
v 0.20469003915786743 0.07974430173635483 -0.08500000089406967
v 0.1888580322265625 0.03544113039970398 -0.08500000089406967
v 0.16572776436805725 0.0039281463250517845 -0.08500000089406967
v 0.1412944346666336 -0.01624290458858013 -0.08500000089406967
v 0.11609486490488052 -0.029894331470131874 -0.08500000089406967
v 0.08773325383663177 -0.042291030287742615 -0.08500000089406967
v 0.031389668583869934 -0.06406421214342117 -0.08500000089406967
v -0.021490108221769333 -0.08361160010099411 -0.08500000089406967
v -0.048514995723962784 -0.09516216069459915 -0.08500000089406967
v -0.06099459528923035 -0.10645972937345505 -0.08500000089406967
v -0.06630860269069672 -0.11975330114364624 -0.08500000089406967
v -0.06282249093055725 -0.13926902413368225 -0.08500000089406967
v -0.04368625953793526 -0.15820597112178802 -0.08500000089406967
v -0.008509626612067223 -0.1671907752752304 -0.08500000089406967
v 0.024372436106204987 -0.16637137532234192 -0.08500000089406967
v 0.05404813960194588 -0.1594122052192688 -0.08500000089406967
v 0.07848150283098221 -0.14739179611206055 -0.08500000089406967
v 0.0963619276881218 -0.12904483079910278 -0.08500000089406967
v 0.10899999737739563 -0.10563668608665466 -0.08500000089406967
v 0.2789999842643738 -0.1387929469347 -0.08500000089406967
v 0.26416367292404175 -0.1721920222043991 -0.08500000089406967
v 0.2456570565700531 -0.20211532711982727 -0.08500000089406967
v 0.22256259620189667 -0.22769393026828766 -0.08500000089406967
v 0.1957978457212448 -0.2497967630624771 -0.08500000089406967
v 0.16464278101921082 -0.2675769031047821 -0.08500000089406967
v 0.13100269436836243 -0.28201329708099365 -0.08500000089406967
v 0.09475023299455643 -0.2923249900341034 -0.08500000089406967
v 0.05640784651041031 -0.2993369698524475 -0.08500000089406967
v 0.015453050844371319 -0.30222421884536743 -0.08500000089406967
v -0.030911020934581757 -0.30145159363746643 -0.08500000089406967
v -0.0756460577249527 -0.2949334979057312 -0.08500000089406967
v -0.11656984686851501 -0.283674955368042 -0.08500000089406967
v -0.15272961556911469 -0.2664909064769745 -0.08500000089406967
v -0.18507814407348633 -0.24456638097763062 -0.08500000089406967
v -0.21147720515727997 -0.21809867024421692 -0.08500000089406967
v -0.23216837644577026 -0.18910226225852966 -0.08500000089406967
v -0.24572469294071198 -0.15694496035575867 -0.08500000089406967
v -0.25357306003570557 -0.12225896865129471 -0.08500000089406967
v -0.2522640526294708 -0.07156021147966385 -0.08500000089406967
v -0.2427736222743988 -0.037965964525938034 -0.08500000089406967
v -0.2259872406721115 -0.008873138576745987 -0.08500000089406967
v -0.2044898122549057 0.014145354740321636 -0.08500000089406967
v -0.1824171096086502 0.031656913459300995 -0.08500000089406967
v -0.15097342431545258 0.0495133213698864 -0.08500000089406967
v -0.025306761264801025 0.09647025913000107 -0.08500000089406967
v -0.001991711789742112 0.10659385472536087 -0.08500000089406967
v 0.011649712920188904 0.11653846502304077 -0.08500000089406967
v 0.016336731612682343 0.12355079501867294 -0.08500000089406967
v 0.01841740682721138 0.13157817721366882 -0.08500000089406967
v 0.017815686762332916 0.14693984389305115 -0.08500000089406967
v 0.011301974765956402 0.15917770564556122 -0.08500000089406967
v 5.102366048959084e-05 0.1682574450969696 -0.08500000089406967
v -0.024424748495221138 0.17404742538928986 -0.08500000089406967
v -0.056219495832920074 0.17393848299980164 -0.08500000089406967
v -0.08433761447668076 0.1657455414533615 -0.08500000089406967
v -0.10865290462970734 0.15079452097415924 -0.08500000089406967
v -0.12247100472450256 0.13320636749267578 -0.08500000089406967
v -0.12800000607967377 0.11936328560113907 -0.08500000089406967
v -0.2789999842643738 0.1577070653438568 -0.08500000089406967
v -0.26749664545059204 0.1851690262556076 0.08500000089406967
v -0.25234150886535645 0.21031661331653595 0.08500000089406967
v -0.22483111917972565 0.2392178624868393 0.08500000089406967
v -0.19123438000679016 0.26426172256469727 0.08500000089406967
v -0.15083707869052887 0.2828815281391144 0.08500000089406967
v -0.10681092739105225 0.29618141055107117 0.08500000089406967
v -0.05770440772175789 0.30203330516815186 0.08500000089406967
v 0.0014457773650065064 0.3022243082523346 0.08500000089406967
v 0.0599462054669857 0.29235267639160156 0.08500000089406967
v 0.10993049293756485 0.2748876214027405 0.08500000089406967
v 0.14801552891731262 0.24700260162353516 0.08500000089406967
v 0.1878788322210312 0.19482272863388062 0.08500000089406967
v 0.20598788559436798 0.13332846760749817 0.08500000089406967
v 0.20469003915786743 0.07974430173635483 0.08500000089406967
v 0.1888580322265625 0.03544113039970398 0.08500000089406967
v 0.16572776436805725 0.0039281463250517845 0.08500000089406967
v 0.1412944346666336 -0.01624290458858013 0.08500000089406967
v 0.11609486490488052 -0.029894331470131874 0.08500000089406967
v 0.08773325383663177 -0.042291030287742615 0.08500000089406967
v 0.031389668583869934 -0.06406421214342117 0.08500000089406967
v -0.021490108221769333 -0.08361160010099411 0.08500000089406967
v -0.048514995723962784 -0.09516216069459915 0.08500000089406967
v -0.06099459528923035 -0.10645972937345505 0.08500000089406967
v -0.06630860269069672 -0.11975330114364624 0.08500000089406967
v -0.06282249093055725 -0.13926902413368225 0.08500000089406967
v -0.04368625953793526 -0.15820597112178802 0.08500000089406967
v -0.008509626612067223 -0.1671907752752304 0.08500000089406967
v 0.024372436106204987 -0.16637137532234192 0.08500000089406967
v 0.05404813960194588 -0.1594122052192688 0.08500000089406967
v 0.07848150283098221 -0.14739179611206055 0.08500000089406967
v 0.0963619276881218 -0.12904483079910278 0.08500000089406967
v 0.10899999737739563 -0.10563668608665466 0.08500000089406967
v 0.2789999842643738 -0.1387929469347 0.08500000089406967
v 0.26416367292404175 -0.1721920222043991 0.08500000089406967
v 0.2456570565700531 -0.20211532711982727 0.08500000089406967
v 0.22256259620189667 -0.22769393026828766 0.08500000089406967
v 0.1957978457212448 -0.2497967630624771 0.08500000089406967
v 0.16464278101921082 -0.2675769031047821 0.08500000089406967
v 0.13100269436836243 -0.28201329708099365 0.08500000089406967
v 0.09475023299455643 -0.2923249900341034 0.08500000089406967
v 0.05640784651041031 -0.2993369698524475 0.08500000089406967
v 0.015453050844371319 -0.30222421884536743 0.08500000089406967
v -0.030911020934581757 -0.30145159363746643 0.08500000089406967
v -0.0756460577249527 -0.2949334979057312 0.08500000089406967
v -0.11656984686851501 -0.283674955368042 0.08500000089406967
v -0.15272961556911469 -0.2664909064769745 0.08500000089406967
v -0.18507814407348633 -0.24456638097763062 0.08500000089406967
v -0.21147720515727997 -0.21809867024421692 0.08500000089406967
v -0.23216837644577026 -0.18910226225852966 0.08500000089406967
v -0.24572469294071198 -0.15694496035575867 0.08500000089406967
v -0.25357306003570557 -0.12225896865129471 0.08500000089406967
v -0.2522640526294708 -0.07156021147966385 0.08500000089406967
v -0.2427736222743988 -0.037965964525938034 0.08500000089406967
v -0.2259872406721115 -0.008873138576745987 0.08500000089406967
v -0.2044898122549057 0.014145354740321636 0.08500000089406967
v -0.1824171096086502 0.031656913459300995 0.08500000089406967
v -0.15097342431545258 0.0495133213698864 0.08500000089406967
v -0.025306761264801025 0.09647025913000107 0.08500000089406967
v -0.001991711789742112 0.10659385472536087 0.08500000089406967
v 0.011649712920188904 0.11653846502304077 0.08500000089406967
v 0.016336731612682343 0.12355079501867294 0.08500000089406967
v 0.01841740682721138 0.13157817721366882 0.08500000089406967
v 0.017815686762332916 0.14693984389305115 0.08500000089406967
v 0.011301974765956402 0.15917770564556122 0.08500000089406967
v 5.102366048959084e-05 0.1682574450969696 0.08500000089406967
v -0.024424748495221138 0.17404742538928986 0.08500000089406967
v -0.056219495832920074 0.17393848299980164 0.08500000089406967
v -0.08433761447668076 0.1657455414533615 0.08500000089406967
v -0.10865290462970734 0.15079452097415924 0.08500000089406967
v -0.12247100472450256 0.13320636749267578 0.08500000089406967
v -0.12800000607967377 0.11936328560113907 0.08500000089406967
v -0.2789999842643738 0.1577070653438568 0.08500000089406967
v 0.10899999737739563 -0.10563668608665466 -0.08500000089406967
v 0.10899999737739563 -0.10563668608665466 0.08500000089406967
v 0.2789999842643738 -0.1387929469347 -0.08500000089406967
v 0.2789999842643738 -0.1387929469347 0.08500000089406967
v -0.12800000607967377 0.11936328560113907 -0.08500000089406967
v -0.12800000607967377 0.11936328560113907 0.08500000089406967
v -0.2789999842643738 0.1577070653438568 -0.08500000089406967
v -0.2789999842643738 0.1577070653438568 0.08500000089406967
v 0.10899999737739563 -0.10563668608665466 0.08500000089406967
v 0.26416367292404175 -0.1721920222043991 0.08500000089406967
v 0.2789999842643738 -0.1387929469347 0.08500000089406967
v 0.2456570565700531 -0.20211532711982727 0.08500000089406967
v 0.0963619276881218 -0.12904483079910278 0.08500000089406967
v 0.22256259620189667 -0.22769393026828766 0.08500000089406967
v 0.1957978457212448 -0.2497967630624771 0.08500000089406967
v 0.16464278101921082 -0.2675769031047821 0.08500000089406967
v 0.07848150283098221 -0.14739179611206055 0.08500000089406967
v 0.13100269436836243 -0.28201329708099365 0.08500000089406967
v 0.05404813960194588 -0.1594122052192688 0.08500000089406967
v 0.09475023299455643 -0.2923249900341034 0.08500000089406967
v -0.12800000607967377 0.11936328560113907 0.08500000089406967
v -0.26749664545059204 0.1851690262556076 0.08500000089406967
v -0.2789999842643738 0.1577070653438568 0.08500000089406967
v -0.12247100472450256 0.13320636749267578 0.08500000089406967
v -0.25234150886535645 0.21031661331653595 0.08500000089406967
v -0.22483111917972565 0.2392178624868393 0.08500000089406967
v -0.10865290462970734 0.15079452097415924 0.08500000089406967
v -0.19123438000679016 0.26426172256469727 0.08500000089406967
v -0.15083707869052887 0.2828815281391144 0.08500000089406967
v -0.08433761447668076 0.1657455414533615 0.08500000089406967
v -0.10681092739105225 0.29618141055107117 0.08500000089406967
v -0.05770440772175789 0.30203330516815186 0.08500000089406967
v -0.056219495832920074 0.17393848299980164 0.08500000089406967
v 0.05640784651041031 -0.2993369698524475 0.08500000089406967
v 0.024372436106204987 -0.16637137532234192 0.08500000089406967
v 0.015453050844371319 -0.30222421884536743 0.08500000089406967
v -0.024424748495221138 0.17404742538928986 0.08500000089406967
v -0.008509626612067223 -0.1671907752752304 0.08500000089406967
v -0.030911020934581757 -0.30145159363746643 0.08500000089406967
v -0.0756460577249527 -0.2949334979057312 0.08500000089406967
v -0.04368625953793526 -0.15820597112178802 0.08500000089406967
v 0.0014457773650065064 0.3022243082523346 0.08500000089406967
v 0.0599462054669857 0.29235267639160156 0.08500000089406967
v 5.102366048959084e-05 0.1682574450969696 0.08500000089406967
v -0.11656984686851501 -0.283674955368042 0.08500000089406967
v -0.15272961556911469 -0.2664909064769745 0.08500000089406967
v -0.06282249093055725 -0.13926902413368225 0.08500000089406967
v -0.18507814407348633 -0.24456638097763062 0.08500000089406967
v -0.21147720515727997 -0.21809867024421692 0.08500000089406967
v 0.011301974765956402 0.15917770564556122 0.08500000089406967
v -0.23216837644577026 -0.18910226225852966 0.08500000089406967
v -0.06630860269069672 -0.11975330114364624 0.08500000089406967
v -0.24572469294071198 -0.15694496035575867 0.08500000089406967
v -0.25357306003570557 -0.12225896865129471 0.08500000089406967
v -0.2522640526294708 -0.07156021147966385 0.08500000089406967
v -0.2427736222743988 -0.037965964525938034 0.08500000089406967
v -0.06099459528923035 -0.10645972937345505 0.08500000089406967
v -0.2259872406721115 -0.008873138576745987 0.08500000089406967
v -0.2044898122549057 0.014145354740321636 0.08500000089406967
v -0.1824171096086502 0.031656913459300995 0.08500000089406967
v -0.15097342431545258 0.0495133213698864 0.08500000089406967
v -0.048514995723962784 -0.09516216069459915 0.08500000089406967
v -0.025306761264801025 0.09647025913000107 0.08500000089406967
v -0.021490108221769333 -0.08361160010099411 0.08500000089406967
v 0.031389668583869934 -0.06406421214342117 0.08500000089406967
v -0.001991711789742112 0.10659385472536087 0.08500000089406967
v 0.08773325383663177 -0.042291030287742615 0.08500000089406967
v 0.011649712920188904 0.11653846502304077 0.08500000089406967
v 0.11609486490488052 -0.029894331470131874 0.08500000089406967
v 0.10993049293756485 0.2748876214027405 0.08500000089406967
v 0.14801552891731262 0.24700260162353516 0.08500000089406967
v 0.017815686762332916 0.14693984389305115 0.08500000089406967
v 0.1878788322210312 0.19482272863388062 0.08500000089406967
v 0.01841740682721138 0.13157817721366882 0.08500000089406967
v 0.20598788559436798 0.13332846760749817 0.08500000089406967
v 0.20469003915786743 0.07974430173635483 0.08500000089406967
v 0.1888580322265625 0.03544113039970398 0.08500000089406967
v 0.016336731612682343 0.12355079501867294 0.08500000089406967
v 0.16572776436805725 0.0039281463250517845 0.08500000089406967
v 0.1412944346666336 -0.01624290458858013 0.08500000089406967
v 0.10899999737739563 -0.10563668608665466 -0.08500000089406967
v 0.2789999842643738 -0.1387929469347 -0.08500000089406967
v 0.26416367292404175 -0.1721920222043991 -0.08500000089406967
v 0.2456570565700531 -0.20211532711982727 -0.08500000089406967
v 0.0963619276881218 -0.12904483079910278 -0.08500000089406967
v 0.22256259620189667 -0.22769393026828766 -0.08500000089406967
v 0.1957978457212448 -0.2497967630624771 -0.08500000089406967
v 0.16464278101921082 -0.2675769031047821 -0.08500000089406967
v 0.07848150283098221 -0.14739179611206055 -0.08500000089406967
v 0.13100269436836243 -0.28201329708099365 -0.08500000089406967
v 0.05404813960194588 -0.1594122052192688 -0.08500000089406967
v 0.09475023299455643 -0.2923249900341034 -0.08500000089406967
v -0.12800000607967377 0.11936328560113907 -0.08500000089406967
v -0.2789999842643738 0.1577070653438568 -0.08500000089406967
v -0.26749664545059204 0.1851690262556076 -0.08500000089406967
v -0.12247100472450256 0.13320636749267578 -0.08500000089406967
v -0.25234150886535645 0.21031661331653595 -0.08500000089406967
v -0.22483111917972565 0.2392178624868393 -0.08500000089406967
v -0.10865290462970734 0.15079452097415924 -0.08500000089406967
v -0.19123438000679016 0.26426172256469727 -0.08500000089406967
v -0.15083707869052887 0.2828815281391144 -0.08500000089406967
v -0.08433761447668076 0.1657455414533615 -0.08500000089406967
v -0.10681092739105225 0.29618141055107117 -0.08500000089406967
v -0.05770440772175789 0.30203330516815186 -0.08500000089406967
v -0.056219495832920074 0.17393848299980164 -0.08500000089406967
v 0.05640784651041031 -0.2993369698524475 -0.08500000089406967
v 0.024372436106204987 -0.16637137532234192 -0.08500000089406967
v 0.015453050844371319 -0.30222421884536743 -0.08500000089406967
v -0.024424748495221138 0.17404742538928986 -0.08500000089406967
v -0.008509626612067223 -0.1671907752752304 -0.08500000089406967
v -0.030911020934581757 -0.30145159363746643 -0.08500000089406967
v -0.0756460577249527 -0.2949334979057312 -0.08500000089406967
v -0.04368625953793526 -0.15820597112178802 -0.08500000089406967
v 0.0014457773650065064 0.3022243082523346 -0.08500000089406967
v 0.0599462054669857 0.29235267639160156 -0.08500000089406967
v 5.102366048959084e-05 0.1682574450969696 -0.08500000089406967
v -0.11656984686851501 -0.283674955368042 -0.08500000089406967
v -0.15272961556911469 -0.2664909064769745 -0.08500000089406967
v -0.06282249093055725 -0.13926902413368225 -0.08500000089406967
v -0.18507814407348633 -0.24456638097763062 -0.08500000089406967
v -0.21147720515727997 -0.21809867024421692 -0.08500000089406967
v 0.011301974765956402 0.15917770564556122 -0.08500000089406967
v -0.23216837644577026 -0.18910226225852966 -0.08500000089406967
v -0.06630860269069672 -0.11975330114364624 -0.08500000089406967
v -0.24572469294071198 -0.15694496035575867 -0.08500000089406967
v -0.25357306003570557 -0.12225896865129471 -0.08500000089406967
v -0.2522640526294708 -0.07156021147966385 -0.08500000089406967
v -0.2427736222743988 -0.037965964525938034 -0.08500000089406967
v -0.06099459528923035 -0.10645972937345505 -0.08500000089406967
v -0.2259872406721115 -0.008873138576745987 -0.08500000089406967
v -0.2044898122549057 0.014145354740321636 -0.08500000089406967
v -0.1824171096086502 0.031656913459300995 -0.08500000089406967
v -0.15097342431545258 0.0495133213698864 -0.08500000089406967
v -0.048514995723962784 -0.09516216069459915 -0.08500000089406967
v -0.025306761264801025 0.09647025913000107 -0.08500000089406967
v -0.021490108221769333 -0.08361160010099411 -0.08500000089406967
v 0.031389668583869934 -0.06406421214342117 -0.08500000089406967
v -0.001991711789742112 0.10659385472536087 -0.08500000089406967
v 0.08773325383663177 -0.042291030287742615 -0.08500000089406967
v 0.011649712920188904 0.11653846502304077 -0.08500000089406967
v 0.11609486490488052 -0.029894331470131874 -0.08500000089406967
v 0.10993049293756485 0.2748876214027405 -0.08500000089406967
v 0.14801552891731262 0.24700260162353516 -0.08500000089406967
v 0.017815686762332916 0.14693984389305115 -0.08500000089406967
v 0.1878788322210312 0.19482272863388062 -0.08500000089406967
v 0.01841740682721138 0.13157817721366882 -0.08500000089406967
v 0.20598788559436798 0.13332846760749817 -0.08500000089406967
v 0.20469003915786743 0.07974430173635483 -0.08500000089406967
v 0.1888580322265625 0.03544113039970398 -0.08500000089406967
v 0.016336731612682343 0.12355079501867294 -0.08500000089406967
v 0.16572776436805725 0.0039281463250517845 -0.08500000089406967
v 0.1412944346666336 -0.01624290458858013 -0.08500000089406967
g submesh_0
f 151 152 1
f 1 152 73
f 1 73 2
f 2 73 74
f 2 74 3
f 3 74 75
f 3 75 4
f 4 75 76
f 4 76 5
f 5 76 77
f 5 77 6
f 6 77 78
f 6 78 7
f 7 78 79
f 7 79 8
f 8 79 80
f 8 80 9
f 9 80 81
f 9 81 10
f 10 81 82
f 10 82 11
f 11 82 83
f 11 83 12
f 12 83 84
f 12 84 13
f 13 84 85
f 13 85 14
f 14 85 86
f 14 86 15
f 15 86 87
f 15 87 16
f 16 87 88
f 16 88 17
f 17 88 89
f 17 89 18
f 18 89 90
f 18 90 19
f 19 90 91
f 19 91 20
f 20 91 92
f 20 92 21
f 21 92 93
f 21 93 22
f 22 93 94
f 22 94 23
f 23 94 95
f 23 95 24
f 24 95 96
f 24 96 25
f 25 96 97
f 25 97 26
f 26 97 98
f 26 98 27
f 27 98 99
f 27 99 28
f 28 99 100
f 28 100 29
f 29 100 101
f 29 101 30
f 30 101 102
f 30 102 31
f 31 102 103
f 31 103 32
f 32 103 104
f 105 33 146
f 146 33 145
f 143 71 142
f 142 71 70
f 142 70 141
f 141 70 69
f 141 69 140
f 140 69 68
f 140 68 139
f 139 68 67
f 139 67 138
f 138 67 66
f 138 66 137
f 137 66 65
f 137 65 136
f 136 65 64
f 136 64 135
f 135 64 63
f 135 63 134
f 134 63 62
f 134 62 133
f 133 62 61
f 133 61 132
f 132 61 60
f 132 60 131
f 131 60 59
f 131 59 130
f 130 59 58
f 130 58 129
f 129 58 57
f 129 57 128
f 128 57 56
f 128 56 127
f 127 56 55
f 127 55 126
f 126 55 54
f 126 54 125
f 125 54 53
f 125 53 124
f 124 53 52
f 124 52 123
f 123 52 51
f 123 51 122
f 122 51 50
f 122 50 121
f 121 50 49
f 121 49 120
f 120 49 48
f 120 48 119
f 119 48 47
f 119 47 118
f 118 47 46
f 118 46 117
f 117 46 45
f 117 45 116
f 116 45 44
f 116 44 115
f 115 44 43
f 115 43 114
f 114 43 42
f 114 42 113
f 113 42 41
f 113 41 112
f 112 41 40
f 112 40 111
f 111 40 39
f 111 39 110
f 110 39 38
f 110 38 109
f 109 38 37
f 109 37 108
f 108 37 36
f 108 36 107
f 107 36 35
f 107 35 106
f 106 35 34
f 106 34 148
f 148 34 147
f 144 72 150
f 150 72 149
f 159 158 157
f 157 158 156
f 157 156 153
f 153 156 154
f 153 154 155
f 170 169 168
f 168 169 166
f 168 166 165
f 165 166 167
f 226 227 225
f 225 227 228
f 225 228 229
f 229 228 230
f 229 230 231
f 241 242 240
f 241 240 239
f 239 240 237
f 239 237 238
f 178 164 163
f 163 164 162
f 163 162 161
f 161 162 160
f 161 160 157
f 157 160 159
f 173 172 171
f 171 172 170
f 171 170 168
f 176 175 174
f 174 175 173
f 174 173 171
f 187 186 181
f 181 186 176
f 181 176 177
f 177 176 174
f 184 183 182
f 182 183 180
f 182 180 179
f 179 180 178
f 179 178 163
f 190 189 185
f 185 189 184
f 185 184 182
f 215 214 194
f 194 214 187
f 194 187 188
f 188 187 181
f 193 192 191
f 191 192 190
f 191 190 185
f 198 197 196
f 196 197 195
f 196 195 191
f 191 195 193
f 203 202 201
f 201 202 200
f 201 200 196
f 196 200 199
f 196 199 198
f 208 209 207
f 208 207 206
f 206 207 205
f 206 205 201
f 201 205 204
f 201 204 203
f 207 209 210
f 210 209 211
f 210 211 212
f 212 211 213
f 212 213 224
f 220 219 218
f 218 219 217
f 218 217 216
f 216 217 215
f 216 215 194
f 220 218 221
f 221 218 222
f 221 222 223
f 223 222 212
f 223 212 224
f 236 250 235
f 236 235 234
f 234 235 233
f 234 233 232
f 232 233 229
f 232 229 231
f 240 242 243
f 243 242 244
f 243 244 245
f 243 245 246
f 246 245 247
f 246 247 248
f 258 259 253
f 258 253 248
f 248 253 249
f 248 249 246
f 235 250 251
f 251 250 252
f 251 252 254
f 254 252 255
f 254 255 256
f 254 256 257
f 257 256 261
f 257 261 262
f 286 287 266
f 286 266 259
f 259 266 260
f 259 260 253
f 257 262 263
f 263 262 264
f 263 264 265
f 269 270 268
f 269 268 267
f 267 268 263
f 267 263 265
f 270 271 268
f 268 271 272
f 268 272 273
f 273 272 274
f 273 274 275
f 281 280 279
f 279 280 278
f 279 278 277
f 277 278 273
f 277 273 276
f 276 273 275
f 296 285 284
f 284 285 283
f 284 283 282
f 282 283 281
f 282 281 279
f 266 287 288
f 288 287 289
f 288 289 290
f 290 289 291
f 290 291 292
f 296 284 295
f 295 284 294
f 295 294 293
f 293 294 290
f 293 290 292
