# COL
v -0.0013786227209493518 7.088665210375211e-09 0.0033997499849647284
v -0.0013316465774551034 0.00035681138979271054 0.0033997499849647284
v -0.0011939238756895065 0.000689304550178349 0.003399749519303441
v -0.0009748354204930365 0.0009748287266120315 0.003399749519303441
v -0.0006893113604746759 0.0011939207324758172 0.0033997499849647284
v -0.00035681473673321307 0.0013316466938704252 0.0033997499849647284
v -3.646175971826898e-13 0.0013786298222839832 0.0033997499849647284
v 0.0003568147076293826 0.0013316465774551034 0.0033997499849647284
v 0.0006893113604746759 0.0011939206160604954 0.0033997499849647284
v 0.0009748353622853756 0.0009748285519890487 0.003399749519303441
v 0.0011939239921048284 0.000689304550178349 0.003399749519303441
v 0.0013316465774551034 0.00035681138979271054 0.0033997499849647284
v 0.0013786227209493518 7.088664766286001e-09 0.0033997499849647284
v 0.0013316465774551034 -0.000356811098754406 0.00339974882081151
v 0.0011939238756895065 -0.0006893181707710028 0.0033997492864727974
v 0.0009748354204930365 -0.0009748282609507442 0.0033997492864727974
v 0.0006893113604746759 -0.0011939203832298517 0.00339974882081151
v 0.00035681473673321307 -0.0013316465774551034 0.00339974882081151
v -3.64627598947731e-13 -0.0013786294730380177 0.00339974882081151
v -0.0003568147076293826 -0.0013316464610397816 0.00339974882081151
v -0.0006893113604746759 -0.0011939203832298517 0.00339974882081151
v -0.0009748353622853756 -0.0009748281445354223 0.0033997492864727974
v -0.0011939239921048284 -0.0006893181707710028 0.0033997492864727974
v -0.0013316465774551034 -0.000356811098754406 0.00339974882081151
v 5.87126982676457e-20 4.937804831683934e-09 0.0005567759508267045
v -0.0006805851007811725 4.938888853445178e-09 0.000670706678647548
v -0.0006573934224434197 0.0001761495805112645 0.0006707067368552089
v -0.0005894041387364268 0.00034029583912342787 0.0006707067368552089
v -0.00048124618479050696 0.0004812483675777912 0.0006707067368552089
v -0.00034029135713353753 0.0005894040805287659 0.0006707067368552089
v -0.0001761473249644041 0.0006573933060280979 0.0006707067368552089
v -3.167405880387786e-19 0.0006805877201259136 0.0006707067368552089
v 0.0001761473249644041 0.0006573934224434197 0.0006707067368552089
v 0.000340293743647635 0.0005894040805287659 0.0006707067368552089
v 0.00048124618479050696 0.00048124833847396076 0.0006707067368552089
v 0.0005894041387364268 0.00034029583912342787 0.0006707067368552089
v 0.0006573958089575171 0.00017614956595934927 0.0006707067368552089
v 0.0006805851007811725 4.938888853445178e-09 0.0006707067368552089
v 0.0006573934224434197 -0.00017614965327084064 0.000670706678647548
v 0.0005894041387364268 -0.00034029639209620655 0.000670706678647548
v 0.00048124618479050696 -0.0004812483675777912 0.000670706678647548
v 0.00034029135713353753 -0.0005894040805287659 0.000670706678647548
v 0.0001761473249644041 -0.0006573934224434197 0.000670706678647548
v -5.381276724715655e-19 -0.0006805875455029309 0.000670706678647548
v -0.0001761473249644041 -0.0006573934806510806 0.000670706678647548
v -0.000340293743647635 -0.0005894040805287659 0.000670706678647548
v -0.00048124618479050696 -0.0004812483675777912 0.000670706678647548
v -0.0005894041387364268 -0.00034029639209620655 0.000670706678647548
v -0.0006573958089575171 -0.0001761496241670102 0.000670706678647548
v -0.0007257643155753613 4.933930153327992e-09 5.303526450006757e-06
v -0.0007010346744209528 0.00018784536223392934 5.3035359997011255e-06
v -0.0006285318522714078 0.00036288457340560853 5.303541001921985e-06
v -0.0005131942452862859 0.0005131967482157052 5.303550551616354e-06
v -0.0003628821577876806 0.0006285267882049084 5.3035560085845646e-06
v -0.00018784290296025574 0.0007010371773503721 5.3035560085845646e-06
v -2.426134178302984e-18 0.0007257643155753613 5.3035560085845646e-06
v 0.00018784290296025574 0.0007010371191427112 5.3035560085845646e-06
v 0.0003628821577876806 0.0006285267882049084 5.3035560085845646e-06
v 0.0005131942452862859 0.0005131966900080442 5.303550551616354e-06
v 0.0006285318522714078 0.00036288457340560853 5.303541001921985e-06
v 0.0007010346744209528 0.00018784533313009888 5.3035359997011255e-06
v 0.0007257643155753613 4.933929709238782e-09 5.303526450006757e-06
v 0.0007010346744209528 -0.0001878454495454207 5.303516900312388e-06
v 0.0006285318522714078 -0.0003628846607170999 5.3035118980915286e-06
v 0.0005131942452862859 -0.0005131968064233661 2.885691537812818e-05
v 0.0003628821577876806 -0.0006285269628278911 5.303497800923651e-06
v 0.00018784290296025574 -0.000701037235558033 5.303497800923651e-06
v -2.3597709253239267e-18 -0.0007257643155753613 5.303497800923651e-06
v -0.00018784290296025574 -0.0007010371773503721 5.303497800923651e-06
v -0.0003628821577876806 -0.0006285269628278911 5.303497800923651e-06
v -0.0005131942452862859 -0.0005131967482157052 5.30350234839716e-06
v -0.0006285318522714078 -0.0003628846607170999 5.3035118980915286e-06
v -0.0007010346744209528 -0.00018784543499350548 5.303516900312388e-06
v -0.0007717770058661699 4.933930153327992e-09 2.8856933568022214e-05
v -0.000745478319004178 0.00019975136092398316 2.885694630094804e-05
v -0.0006683777319267392 0.0003858909185510129 2.8856955395895056e-05
v -0.0005457269144244492 0.0005457318620756269 2.8856959033873864e-05
v -0.00038588850293308496 0.0006683727842755616 2.8856966309831478e-05
v -0.00019975140457972884 0.000745478319004178 2.8856966309831478e-05
v -1.3517416440993226e-18 0.0007717770058661699 2.885696812882088e-05
v 0.00019975140457972884 0.0007454782607965171 2.8856966309831478e-05
v 0.00038588850293308496 0.0006683726678602397 2.8856966309831478e-05
v 0.0005457269144244492 0.0005457318038679659 2.8856959033873864e-05
v 0.0006683777319267392 0.0003858909185510129 2.8856955395895056e-05
v 0.000745478319004178 0.00019975134637206793 2.885694630094804e-05
v 0.0007717770058661699 4.933930153327992e-09 2.8856933568022214e-05
v 0.000745478319004178 -0.00019975147733930498 2.88569262920646e-05
v 0.0006683777319267392 -0.00038589100586250424 2.885691537812818e-05
v 0.0005457269144244492 -0.0005457319784909487 2.8856909921159968e-05
v 0.00038588850293308496 -0.0006683827959932387 2.885690628318116e-05
v 0.00019975140457972884 -0.000745478377211839 2.885690628318116e-05
v -1.118304140804075e-18 -0.0007717770058661699 2.885690082621295e-05
v -0.00019975140457972884 -0.000745478319004178 2.885690628318116e-05
v -0.00038588850293308496 -0.0006683727842755616 2.885690628318116e-05
v -0.0005457269144244492 -0.0005457319202832878 2.8856909921159968e-05
v -0.0006683777319267392 -0.00038589100586250424 2.885691537812818e-05
v -0.000745478319004178 -0.0001997514336835593 2.88569262920646e-05
v -0.00143663608469069 7.088663878107582e-09 0.0033997499849647284
v -0.0014116935199126601 0.00037825541221536696 0.003370963968336582
v -0.0012656885664910078 0.000730744213797152 0.003370963968336582
v -0.0010334313847124577 0.0010334316175431013 0.003370963968336582
v -0.000730747589841485 0.0012656956678256392 0.003370963968336582
v -0.0003782621643040329 0.001411693636327982 0.003370963968336582
v -3.646253221231688e-13 0.0014614952960982919 0.003370963968336582
v 0.00037826213520020247 0.0014116935199126601 0.003370963968336582
v 0.0007307474734261632 0.0012656955514103174 0.003370963968336582
v 0.0010334313847124577 0.0010334316175431013 0.003370963968336582
v 0.0012656886829063296 0.000730744272004813 0.003370963968336582
v 0.0014116935199126601 0.0003782554704230279 0.003370963968336582
v 0.0014614915708079934 7.088663878107582e-09 0.003370963968336582
v 0.0014116935199126601 -0.0003782688290812075 0.003370963968336582
v 0.0012656885664910078 -0.0007307439809665084 0.003370963968336582
v 0.0010334313847124577 -0.0010334312682971358 0.003370963968336582
v 0.000730747589841485 -0.0012656955514103174 0.003370963968336582
v 0.00037826213520020247 -0.0014116935199126601 0.003370963968336582
v -3.646374380824463e-13 -0.0014614948304370046 0.003370963968336582
v -0.00037826213520020247 -0.0014116931706666946 0.003370963968336582
v -0.0007307474734261632 -0.0012656950857490301 0.003370963968336582
v -0.0010334313847124577 -0.001033431151881814 0.003370963968336582
v -0.0012656886829063296 -0.0007307439809665084 0.003370963968336582
v -0.0014116935199126601 -0.00037826888728886843 0.003370963968336582
v -0.0014614915708079934 7.088664766286001e-09 0.003370963968336582
v -0.001387684722431004 0.00037182369851507246 0.0033997499849647284
v -0.001244164421223104 0.0007183150155469775 0.003399749519303441
v -0.00101585709489882 0.0010158552322536707 0.003399749519303441
v -0.0007183206034824252 0.0012441698927432299 0.0033997499849647284
v -0.000371829402865842 0.0013876850716769695 0.0033997499849647284
v -3.6462393976539886e-13 0.0014366396935656667 0.0033997499849647284
v 0.000371829402865842 0.0013876850716769695 0.0033997499849647284
v 0.0007183206034824252 0.001244169776327908 0.0033997499849647284
v 0.00101585709489882 0.001015854999423027 0.003399749519303441
v 0.001244164421223104 0.0007183149573393166 0.003399749519303441
v 0.001387684722431004 0.0003718237567227334 0.0033997499849647284
v 0.00143663608469069 7.088663434018372e-09 0.0033997499849647284
v 0.001387686119414866 -0.00037183298263698816 0.00339974882081151
v 0.0012441623257473111 -0.0007183182751759887 0.0033997492864727974
v 0.00101585709489882 -0.0010158547665923834 0.0033997492864727974
v 0.0007183206034824252 -0.0012441695434972644 0.00339974882081151
v 0.000371829402865842 -0.0013876850716769695 0.00339974882081151
v -3.6463307416870205e-13 -0.0014366393443197012 0.00339974882081151
v -0.000371829402865842 -0.001387684722431004 0.00339974882081151
v -0.0007183206034824252 -0.0012441694270819426 0.00339974882081151
v -0.00101585709489882 -0.0010158546501770616 0.0033997492864727974
v -0.0012441623257473111 -0.0007183182751759887 0.0033997492864727974
v -0.001387686119414866 -0.0003718330117408186 0.00339974882081151
v -0.0007966268458403647 4.639258754934872e-09 0.0006704017869196832
v -0.0007694818777963519 0.00020618154667317867 0.0006704016705043614
v -0.00068989850115031 0.00039831476169638336 0.0006704017287120223
v -0.0005632990505546331 0.000563302484806627 0.0006704017287120223
v -0.00039831374306231737 0.0006898961146362126 0.0006704017287120223
v -0.0002061827981378883 0.000769481819588691 0.0006704017287120223
v -7.564757061864422e-14 0.0007966274861246347 0.0006704017287120223
v 0.0002061827981378883 0.000769481819588691 0.0006704017287120223
v 0.00039831374306231737 0.0006898961146362126 0.0006704017287120223
v 0.0005632990505546331 0.000563302484806627 0.0006704017287120223
v 0.00068989850115031 0.00039831476169638336 0.0006704017287120223
v 0.0007694818777963519 0.00020618151756934822 0.0006704016705043614
v 0.0007966267876327038 4.639257422667242e-09 0.0006704016705043614
v 0.0007694818777963519 -0.00020618410781025887 0.0006704016705043614
v 0.00068989850115031 -0.0003983148781117052 0.0006704017287120223
v 0.000563299108762294 -0.0005633026012219489 0.0006704017287120223
v 0.00039831374306231737 -0.0006899031577631831 0.0006704016705043614
v 0.0002061827981378883 -0.0007694819360040128 0.0006704016705043614
v -7.564506340112034e-14 -0.0007966273697093129 0.0006704016705043614
v -0.0002061827981378883 -0.0007694819360040128 0.0006704016705043614
v -0.00039831374306231737 -0.0006898962310515344 0.0006704016705043614
v -0.000563299108762294 -0.0005633026012219489 0.0006704017287120223
v -0.00068989850115031 -0.0003983148781117052 0.0006704017287120223
v -0.0007694818777963519 -0.0002061840787064284 0.0006704016705043614
v -0.0008132721995934844 4.681777188153546e-09 0.0007523383246734738
v -0.0007855600561015308 0.00021048948110546917 0.000752338208258152
v -0.000704313802998513 0.0004066373221576214 0.000752338208258152
v -0.0005750691634602845 0.0005750724812969565 0.000752338208258152
v -0.0004066364490427077 0.000704311765730381 0.000752338208258152
v -0.000210490936296992 0.0007855600561015308 0.000752338208258152
v -8.290963808511506e-14 0.0008132728980854154 0.000752338208258152
v 0.000210490936296992 0.0007855600561015308 0.000752338208258152
v 0.0004066364490427077 0.0007043117075227201 0.000752338208258152
v 0.0005750691634602845 0.0005750724812969565 0.000752338208258152
v 0.000704313802998513 0.0004066373221576214 0.000752338208258152
v 0.0007855601143091917 0.0002104894520016387 0.000752338208258152
v 0.0008132721413858235 4.681775855885917e-09 0.000752338208258152
v 0.0007855600561015308 -0.0002104924205923453 0.000752338208258152
v 0.0007043138612061739 -0.0004066374385729432 0.000752338208258152
v 0.0005750692216679454 -0.0005750725395046175 0.000752338208258152
v 0.0004066364490427077 -0.0007043186342343688 0.000752338208258152
v 0.000210490936296992 -0.0007855601143091917 0.000752338208258152
v -8.291436791709253e-14 -0.0008132727816700935 0.000752338208258152
v -0.000210490936296992 -0.0007855601143091917 0.000752338208258152
v -0.0004066364490427077 -0.0007043119403533638 0.0007523381500504911
v -0.0005750692216679454 -0.0005750725395046175 0.000752338208258152
v -0.0007043138612061739 -0.0004066374385729432 0.000752338208258152
v -0.0007855600561015308 -0.0002104923769365996 0.000752338208258152
v 9.156715579127378e-24 4.93316676397626e-09 0.00010651494085323066
v 5.87126982676457e-20 4.937804831683934e-09 0.0005567759508267045
v 5.87126982676457e-20 4.937804831683934e-09 0.0005567759508267045
v 5.87126982676457e-20 4.937804831683934e-09 0.0005567759508267045
v 5.87126982676457e-20 4.937804831683934e-09 0.0005567759508267045
v 5.87126982676457e-20 4.937804831683934e-09 0.0005567759508267045
v 5.87126982676457e-20 4.937804831683934e-09 0.0005567759508267045
v -3.167405880387786e-19 0.0006805877201259136 0.0006707067368552089
v 5.87126982676457e-20 4.937804831683934e-09 0.0005567759508267045
v 5.87126982676457e-20 4.937804831683934e-09 0.0005567759508267045
v 5.87126982676457e-20 4.937804831683934e-09 0.0005567759508267045
v 5.87126982676457e-20 4.937804831683934e-09 0.0005567759508267045
v 5.87126982676457e-20 4.937804831683934e-09 0.0005567759508267045
v 5.87126982676457e-20 4.937804831683934e-09 0.0005567759508267045
v 5.87126982676457e-20 4.937804831683934e-09 0.0005567759508267045
v 5.87126982676457e-20 4.937804831683934e-09 0.0005567759508267045
v 5.87126982676457e-20 4.937804831683934e-09 0.0005567759508267045
v 5.87126982676457e-20 4.937804831683934e-09 0.0005567759508267045
v 5.87126982676457e-20 4.937804831683934e-09 0.0005567759508267045
v 5.87126982676457e-20 4.937804831683934e-09 0.0005567759508267045
v 5.87126982676457e-20 4.937804831683934e-09 0.0005567759508267045
v 5.87126982676457e-20 4.937804831683934e-09 0.0005567759508267045
v 5.87126982676457e-20 4.937804831683934e-09 0.0005567759508267045
v 5.87126982676457e-20 4.937804831683934e-09 0.0005567759508267045
v 5.87126982676457e-20 4.937804831683934e-09 0.0005567759508267045
v -0.0006805851007811725 4.938888853445178e-09 0.000670706678647548
v -0.0006573934224434197 0.0001761495805112645 0.0006707067368552089
v -0.0005894041387364268 0.00034029583912342787 0.0006707067368552089
v -0.00048124618479050696 0.0004812483675777912 0.0006707067368552089
v -0.00034029135713353753 0.0005894040805287659 0.0006707067368552089
v -0.0001761473249644041 0.0006573933060280979 0.0006707067368552089
v -3.167405880387786e-19 0.0006805877201259136 0.0006707067368552089
v -3.167405880387786e-19 0.0006805877201259136 0.0006707067368552089
v 0.0001761473249644041 0.0006573934224434197 0.0006707067368552089
v -3.646175971826898e-13 0.0013786298222839832 0.0033997499849647284
v 0.000340293743647635 0.0005894040805287659 0.0006707067368552089
v 0.00048124618479050696 0.00048124833847396076 0.0006707067368552089
v 0.0005894041387364268 0.00034029583912342787 0.0006707067368552089
v 0.0006573958089575171 0.00017614956595934927 0.0006707067368552089
v 0.0006805851007811725 4.938888853445178e-09 0.0006707067368552089
v 0.0006573934224434197 -0.00017614965327084064 0.000670706678647548
v 0.0005894041387364268 -0.00034029639209620655 0.000670706678647548
v 0.00048124618479050696 -0.0004812483675777912 0.000670706678647548
v 0.00034029135713353753 -0.0005894040805287659 0.000670706678647548
v 0.0001761473249644041 -0.0006573934224434197 0.000670706678647548
v -5.381276724715655e-19 -0.0006805875455029309 0.000670706678647548
v -0.0001761473249644041 -0.0006573934806510806 0.000670706678647548
v -0.000340293743647635 -0.0005894040805287659 0.000670706678647548
v -0.00048124618479050696 -0.0004812483675777912 0.000670706678647548
v -0.0005894041387364268 -0.00034029639209620655 0.000670706678647548
v -0.0006573958089575171 -0.0001761496241670102 0.000670706678647548
v -2.426134178302984e-18 0.0007257643155753613 5.3035560085845646e-06
v -1.3517416440993226e-18 0.0007717770058661699 2.885696812882088e-05
v 0.00038588850293308496 -0.0006683827959932387 2.885690628318116e-05
v -3.646253221231688e-13 0.0014614952960982919 0.003370963968336582
v -8.290963808511506e-14 0.0008132728980854154 0.000752338208258152
v -0.0013316465774551034 0.00035681138979271054 0.0033997499849647284
v -0.0013786227209493518 7.088665210375211e-09 0.0033997499849647284
v -0.0011939238756895065 0.000689304550178349 0.003399749519303441
v -0.0009748354204930365 0.0009748287266120315 0.003399749519303441
v -0.0006893113604746759 0.0011939207324758172 0.0033997499849647284
v -0.00035681473673321307 0.0013316466938704252 0.0033997499849647284
v -3.646175971826898e-13 0.0013786298222839832 0.0033997499849647284
v -3.6462393976539886e-13 0.0014366396935656667 0.0033997499849647284
v 0.0003568147076293826 0.0013316465774551034 0.0033997499849647284
v -3.646175971826898e-13 0.0013786298222839832 0.0033997499849647284
v 0.0006893113604746759 0.0011939206160604954 0.0033997499849647284
v 0.0009748353622853756 0.0009748285519890487 0.003399749519303441
v 0.0011939239921048284 0.000689304550178349 0.003399749519303441
v 0.0013316465774551034 0.00035681138979271054 0.0033997499849647284
v 0.0013786227209493518 7.088664766286001e-09 0.0033997499849647284
v 0.0013316465774551034 -0.000356811098754406 0.00339974882081151
v 0.0011939238756895065 -0.0006893181707710028 0.0033997492864727974
v 0.0009748354204930365 -0.0009748282609507442 0.0033997492864727974
v 0.0006893113604746759 -0.0011939203832298517 0.00339974882081151
v 0.00035681473673321307 -0.0013316465774551034 0.00339974882081151
v -3.64627598947731e-13 -0.0013786294730380177 0.00339974882081151
v -0.0003568147076293826 -0.0013316464610397816 0.00339974882081151
v -0.0006893113604746759 -0.0011939203832298517 0.00339974882081151
v -0.0009748353622853756 -0.0009748281445354223 0.0033997492864727974
v -0.0011939239921048284 -0.0006893181707710028 0.0033997492864727974
v -0.0013316465774551034 -0.000356811098754406 0.00339974882081151
v -0.0014614915708079934 7.088664766286001e-09 0.003370963968336582
v -0.001387684722431004 0.00037182369851507246 0.0033997499849647284
v -0.0014116935199126601 0.00037825541221536696 0.003370963968336582
v -0.001387684722431004 0.00037182369851507246 0.0033997499849647284
v -0.0014614915708079934 7.088664766286001e-09 0.003370963968336582
v -0.00143663608469069 7.088663878107582e-09 0.0033997499849647284
v -0.001244164421223104 0.0007183150155469775 0.003399749519303441
v -0.0012656885664910078 0.000730744213797152 0.003370963968336582
v -0.00101585709489882 0.0010158552322536707 0.003399749519303441
v -0.0010334313847124577 0.0010334316175431013 0.003370963968336582
v -0.0007183206034824252 0.0012441698927432299 0.0033997499849647284
v -0.000730747589841485 0.0012656956678256392 0.003370963968336582
v -0.000371829402865842 0.0013876850716769695 0.0033997499849647284
v -0.0003782621643040329 0.001411693636327982 0.003370963968336582
v -3.6462393976539886e-13 0.0014366396935656667 0.0033997499849647284
v -3.646253221231688e-13 0.0014614952960982919 0.003370963968336582
v 0.000371829402865842 0.0013876850716769695 0.0033997499849647284
v 0.00037826213520020247 0.0014116935199126601 0.003370963968336582
v 0.000371829402865842 0.0013876850716769695 0.0033997499849647284
v 0.0007183206034824252 0.001244169776327908 0.0033997499849647284
v 0.00101585709489882 0.001015854999423027 0.003399749519303441
v 0.0007183206034824252 0.001244169776327908 0.0033997499849647284
v 0.001244164421223104 0.0007183149573393166 0.003399749519303441
v 0.00101585709489882 0.001015854999423027 0.003399749519303441
v 0.001387684722431004 0.0003718237567227334 0.0033997499849647284
v 0.001244164421223104 0.0007183149573393166 0.003399749519303441
v 0.00143663608469069 7.088663434018372e-09 0.0033997499849647284
v 0.001387684722431004 0.0003718237567227334 0.0033997499849647284
v 0.001387686119414866 -0.00037183298263698816 0.00339974882081151
v 0.00143663608469069 7.088663434018372e-09 0.0033997499849647284
v 0.0014116935199126601 -0.0003782688290812075 0.003370963968336582
v 0.0012441623257473111 -0.0007183182751759887 0.0033997492864727974
v 0.001387686119414866 -0.00037183298263698816 0.00339974882081151
v 0.0012656885664910078 -0.0007307439809665084 0.003370963968336582
v 0.00101585709489882 -0.0010158547665923834 0.0033997492864727974
v 0.0012441623257473111 -0.0007183182751759887 0.0033997492864727974
v 0.0010334313847124577 -0.0010334312682971358 0.003370963968336582
v 0.0007183206034824252 -0.0012441695434972644 0.00339974882081151
v 0.00101585709489882 -0.0010158547665923834 0.0033997492864727974
v 0.000730747589841485 -0.0012656955514103174 0.003370963968336582
v 0.000371829402865842 -0.0013876850716769695 0.00339974882081151
v 0.00037826213520020247 -0.0014116935199126601 0.003370963968336582
v 0.000371829402865842 -0.0013876850716769695 0.00339974882081151
v 0.0007183206034824252 -0.0012441695434972644 0.00339974882081151
v -3.6463307416870205e-13 -0.0014366393443197012 0.00339974882081151
v -3.646374380824463e-13 -0.0014614948304370046 0.003370963968336582
v -0.000371829402865842 -0.001387684722431004 0.00339974882081151
v -0.00037826213520020247 -0.0014116931706666946 0.003370963968336582
v -0.0007183206034824252 -0.0012441694270819426 0.00339974882081151
v -0.0007307474734261632 -0.0012656950857490301 0.003370963968336582
v -0.00101585709489882 -0.0010158546501770616 0.0033997492864727974
v -0.0010334313847124577 -0.001033431151881814 0.003370963968336582
v -0.0012441623257473111 -0.0007183182751759887 0.0033997492864727974
v -0.0012656886829063296 -0.0007307439809665084 0.003370963968336582
v -0.001387686119414866 -0.0003718330117408186 0.00339974882081151
v -0.0014116935199126601 -0.00037826888728886843 0.003370963968336582
v -0.0007717770058661699 4.933930153327992e-09 2.8856933568022214e-05
v -0.000745478319004178 0.00019975136092398316 2.885694630094804e-05
v -0.0006683777319267392 0.0003858909185510129 2.8856955395895056e-05
v -0.0005457269144244492 0.0005457318620756269 2.8856959033873864e-05
v -0.00038588850293308496 0.0006683727842755616 2.8856966309831478e-05
v -0.00019975140457972884 0.000745478319004178 2.8856966309831478e-05
v -1.3517416440993226e-18 0.0007717770058661699 2.885696812882088e-05
v -1.3517416440993226e-18 0.0007717770058661699 2.885696812882088e-05
v 0.00019975140457972884 0.0007454782607965171 2.8856966309831478e-05
v -7.564757061864422e-14 0.0007966274861246347 0.0006704017287120223
v 0.00038588850293308496 0.0006683726678602397 2.8856966309831478e-05
v 0.0005457269144244492 0.0005457318038679659 2.8856959033873864e-05
v 0.0006683777319267392 0.0003858909185510129 2.8856955395895056e-05
v 0.000745478319004178 0.00019975134637206793 2.885694630094804e-05
v 0.0007717770058661699 4.933930153327992e-09 2.8856933568022214e-05
v 0.000745478319004178 -0.00019975147733930498 2.88569262920646e-05
v 0.0006683777319267392 -0.00038589100586250424 2.885691537812818e-05
v 0.0005457269144244492 -0.0005457319784909487 2.8856909921159968e-05
v 0.00038588850293308496 -0.0006683827959932387 2.885690628318116e-05
v 0.00038588850293308496 -0.0006683827959932387 2.885690628318116e-05
v 0.00019975140457972884 -0.000745478377211839 2.885690628318116e-05
v -1.118304140804075e-18 -0.0007717770058661699 2.885690082621295e-05
v -0.00019975140457972884 -0.000745478319004178 2.885690628318116e-05
v -0.00038588850293308496 -0.0006683727842755616 2.885690628318116e-05
v -0.0005457269144244492 -0.0005457319202832878 2.8856909921159968e-05
v -0.0006683777319267392 -0.00038589100586250424 2.885691537812818e-05
v -0.000745478319004178 -0.0001997514336835593 2.88569262920646e-05
v -0.0008132721995934844 4.681777188153546e-09 0.0007523383246734738
v -0.0007855600561015308 0.00021048948110546917 0.000752338208258152
v -0.0007966268458403647 4.639258754934872e-09 0.0006704017869196832
v -0.0007855600561015308 0.00021048948110546917 0.000752338208258152
v -0.000704313802998513 0.0004066373221576214 0.000752338208258152
v -0.0007694818777963519 0.00020618154667317867 0.0006704016705043614
v -0.000704313802998513 0.0004066373221576214 0.000752338208258152
v -0.0005750691634602845 0.0005750724812969565 0.000752338208258152
v -0.00068989850115031 0.00039831476169638336 0.0006704017287120223
v -0.0005750691634602845 0.0005750724812969565 0.000752338208258152
v -0.0004066364490427077 0.000704311765730381 0.000752338208258152
v -0.0005632990505546331 0.000563302484806627 0.0006704017287120223
v -0.0004066364490427077 0.000704311765730381 0.000752338208258152
v -0.000210490936296992 0.0007855600561015308 0.000752338208258152
v -0.00039831374306231737 0.0006898961146362126 0.0006704017287120223
v -0.000210490936296992 0.0007855600561015308 0.000752338208258152
v -8.290963808511506e-14 0.0008132728980854154 0.000752338208258152
v -0.0002061827981378883 0.000769481819588691 0.0006704017287120223
v -8.290963808511506e-14 0.0008132728980854154 0.000752338208258152
v 0.000210490936296992 0.0007855600561015308 0.000752338208258152
v -7.564757061864422e-14 0.0007966274861246347 0.0006704017287120223
v 0.0002061827981378883 0.000769481819588691 0.0006704017287120223
v -7.564757061864422e-14 0.0007966274861246347 0.0006704017287120223
v 0.0004066364490427077 0.0007043117075227201 0.000752338208258152
v 0.0004066364490427077 0.0007043117075227201 0.000752338208258152
v 0.0005750691634602845 0.0005750724812969565 0.000752338208258152
v 0.00039831374306231737 0.0006898961146362126 0.0006704017287120223
v 0.0005750691634602845 0.0005750724812969565 0.000752338208258152
v 0.000704313802998513 0.0004066373221576214 0.000752338208258152
v 0.0005632990505546331 0.000563302484806627 0.0006704017287120223
v 0.000704313802998513 0.0004066373221576214 0.000752338208258152
v 0.0007855601143091917 0.0002104894520016387 0.000752338208258152
v 0.00068989850115031 0.00039831476169638336 0.0006704017287120223
v 0.0007855601143091917 0.0002104894520016387 0.000752338208258152
v 0.0008132721413858235 4.681775855885917e-09 0.000752338208258152
v 0.0007694818777963519 0.00020618151756934822 0.0006704016705043614
v 0.0008132721413858235 4.681775855885917e-09 0.000752338208258152
v 0.0007855600561015308 -0.0002104924205923453 0.000752338208258152
v 0.0007966267876327038 4.639257422667242e-09 0.0006704016705043614
v 0.0007855600561015308 -0.0002104924205923453 0.000752338208258152
v 0.0007043138612061739 -0.0004066374385729432 0.000752338208258152
v 0.0007694818777963519 -0.00020618410781025887 0.0006704016705043614
v 0.0007043138612061739 -0.0004066374385729432 0.000752338208258152
v 0.0005750692216679454 -0.0005750725395046175 0.000752338208258152
v 0.00068989850115031 -0.0003983148781117052 0.0006704017287120223
v 0.0005750692216679454 -0.0005750725395046175 0.000752338208258152
v 0.0005750692216679454 -0.0005750725395046175 0.000752338208258152
v 0.0004066364490427077 -0.0007043186342343688 0.000752338208258152
v 0.000563299108762294 -0.0005633026012219489 0.0006704017287120223
v 0.0004066364490427077 -0.0007043186342343688 0.000752338208258152
v 0.000210490936296992 -0.0007855601143091917 0.000752338208258152
v 0.00039831374306231737 -0.0006899031577631831 0.0006704016705043614
v 0.000210490936296992 -0.0007855601143091917 0.000752338208258152
v -8.291436791709253e-14 -0.0008132727816700935 0.000752338208258152
v 0.0002061827981378883 -0.0007694819360040128 0.0006704016705043614
v -8.291436791709253e-14 -0.0008132727816700935 0.000752338208258152
v -0.000210490936296992 -0.0007855601143091917 0.000752338208258152
v -7.564506340112034e-14 -0.0007966273697093129 0.0006704016705043614
v -0.000210490936296992 -0.0007855601143091917 0.000752338208258152
v -0.0004066364490427077 -0.0007043119403533638 0.0007523381500504911
v -0.0002061827981378883 -0.0007694819360040128 0.0006704016705043614
v -0.0004066364490427077 -0.0007043119403533638 0.0007523381500504911
v -0.0004066364490427077 -0.0007043119403533638 0.0007523381500504911
v -0.0005750692216679454 -0.0005750725395046175 0.000752338208258152
v -0.00039831374306231737 -0.0006898962310515344 0.0006704016705043614
v -0.0005750692216679454 -0.0005750725395046175 0.000752338208258152
v -0.0007043138612061739 -0.0004066374385729432 0.000752338208258152
v -0.000563299108762294 -0.0005633026012219489 0.0006704017287120223
v -0.0007043138612061739 -0.0004066374385729432 0.000752338208258152
v -0.0007855600561015308 -0.0002104923769365996 0.000752338208258152
v -0.00068989850115031 -0.0003983148781117052 0.0006704017287120223
v -0.0007855600561015308 -0.0002104923769365996 0.000752338208258152
v -0.0008132721995934844 4.681777188153546e-09 0.0007523383246734738
v -0.0007694818777963519 -0.0002061840787064284 0.0006704016705043614
v 9.156715579127378e-24 4.93316676397626e-09 0.00010651494085323066
v 9.156715579127378e-24 4.93316676397626e-09 0.00010651494085323066
v 9.156715579127378e-24 4.93316676397626e-09 0.00010651494085323066
v 9.156715579127378e-24 4.93316676397626e-09 0.00010651494085323066
v 9.156715579127378e-24 4.93316676397626e-09 0.00010651494085323066
v 9.156715579127378e-24 4.93316676397626e-09 0.00010651494085323066
v 9.156715579127378e-24 4.93316676397626e-09 0.00010651494085323066
v 9.156715579127378e-24 4.93316676397626e-09 0.00010651494085323066
v 9.156715579127378e-24 4.93316676397626e-09 0.00010651494085323066
v 9.156715579127378e-24 4.93316676397626e-09 0.00010651494085323066
v 9.156715579127378e-24 4.93316676397626e-09 0.00010651494085323066
v 9.156715579127378e-24 4.93316676397626e-09 0.00010651494085323066
v 9.156715579127378e-24 4.93316676397626e-09 0.00010651494085323066
v 9.156715579127378e-24 4.93316676397626e-09 0.00010651494085323066
v 9.156715579127378e-24 4.93316676397626e-09 0.00010651494085323066
v 9.156715579127378e-24 4.93316676397626e-09 0.00010651494085323066
v 9.156715579127378e-24 4.93316676397626e-09 0.00010651494085323066
v 9.156715579127378e-24 4.93316676397626e-09 0.00010651494085323066
v 9.156715579127378e-24 4.93316676397626e-09 0.00010651494085323066
v 9.156715579127378e-24 4.93316676397626e-09 0.00010651494085323066
v 9.156715579127378e-24 4.93316676397626e-09 0.00010651494085323066
v 9.156715579127378e-24 4.93316676397626e-09 0.00010651494085323066
v 9.156715579127378e-24 4.93316676397626e-09 0.00010651494085323066
g submesh_0
f 26 25 27
f 27 195 28
f 28 196 29
f 29 197 30
f 30 198 31
f 31 199 32
f 201 200 33
f 33 202 34
f 34 203 35
f 35 204 36
f 36 205 37
f 37 206 38
f 38 207 39
f 39 208 40
f 40 209 41
f 41 210 42
f 42 211 43
f 43 212 44
f 44 213 45
f 45 214 46
f 46 215 47
f 47 216 48
f 48 217 49
f 49 218 26
f 278 276 277
f 281 279 280
f 293 291 292
f 112 306 307
f 308 307 111
f 113 309 310
f 311 310 112
f 114 312 313
f 314 313 113
f 317 315 316
f 319 318 114
f 321 317 320
f 318 320 115
f 323 321 322
f 320 322 116
f 325 323 324
f 322 324 117
f 327 325 326
f 324 326 118
f 361 359 360
f 364 360 363
f 367 363 366
f 370 366 369
f 373 369 372
f 376 372 375
f 379 375 378
f 385 382 384
f 388 384 387
f 391 387 390
f 394 390 393
f 397 393 396
f 400 396 399
f 403 399 402
f 407 405 406
f 410 406 409
f 413 409 412
f 416 412 415
f 419 415 418
f 423 421 422
f 426 422 425
f 429 425 428
f 432 428 359
f 228 226 8
f 8 226 227
f 8 227 9
f 9 227 229
f 9 229 10
f 10 229 230
f 10 230 11
f 11 230 231
f 11 231 12
f 12 231 232
f 12 232 13
f 13 232 233
f 13 233 14
f 14 233 234
f 14 234 15
f 15 234 235
f 15 235 16
f 16 235 236
f 16 236 17
f 17 236 237
f 17 237 18
f 18 237 238
f 18 238 19
f 19 238 239
f 19 239 20
f 20 239 240
f 20 240 21
f 21 240 241
f 21 241 22
f 22 241 242
f 22 242 23
f 23 242 243
f 23 243 24
f 24 243 244
f 24 244 1
f 1 244 219
f 1 219 2
f 2 219 220
f 2 220 3
f 3 220 221
f 3 221 4
f 4 221 222
f 4 222 5
f 5 222 223
f 5 223 6
f 6 223 224
f 6 224 7
f 7 224 225
f 247 65 89
f 89 65 64
f 89 64 88
f 88 64 63
f 88 63 87
f 87 63 62
f 87 62 86
f 86 62 61
f 86 61 85
f 85 61 60
f 85 60 84
f 84 60 59
f 84 59 83
f 83 59 58
f 83 58 82
f 82 58 57
f 82 57 81
f 81 57 245
f 81 245 246
f 90 66 65
f 65 66 447
f 80 56 55
f 80 55 79
f 79 55 54
f 79 54 78
f 78 54 53
f 78 53 77
f 77 53 52
f 77 52 76
f 76 52 51
f 76 51 75
f 75 51 50
f 75 50 74
f 74 50 73
f 74 73 97
f 97 73 72
f 97 72 96
f 96 72 71
f 96 71 95
f 95 71 70
f 95 70 94
f 94 70 69
f 94 69 93
f 93 69 68
f 93 68 92
f 92 68 67
f 92 67 91
f 91 67 66
f 91 66 247
f 104 176 103
f 103 176 175
f 103 175 102
f 102 175 174
f 102 174 101
f 101 174 173
f 101 173 100
f 100 173 172
f 100 172 99
f 99 172 171
f 99 171 122
f 122 171 170
f 122 170 121
f 121 170 193
f 121 193 120
f 120 193 192
f 120 192 119
f 119 192 191
f 119 191 118
f 118 191 190
f 118 190 117
f 117 190 189
f 117 189 116
f 116 189 188
f 116 188 115
f 115 188 187
f 115 187 114
f 114 187 186
f 114 186 113
f 113 186 185
f 113 185 112
f 112 185 184
f 112 184 111
f 111 184 183
f 111 183 110
f 110 183 182
f 110 182 109
f 109 182 181
f 109 181 108
f 108 181 180
f 108 180 107
f 107 180 179
f 107 179 106
f 106 179 178
f 106 178 105
f 105 178 177
f 105 177 248
f 248 177 249
f 257 259 258
f 257 258 129
f 129 258 260
f 129 260 130
f 130 260 261
f 130 261 131
f 131 261 262
f 131 262 132
f 132 262 263
f 132 263 133
f 133 263 264
f 133 264 134
f 134 264 265
f 134 265 135
f 135 265 266
f 135 266 136
f 136 266 267
f 136 267 137
f 137 267 268
f 137 268 138
f 138 268 269
f 138 269 139
f 139 269 270
f 139 270 140
f 140 270 271
f 140 271 141
f 141 271 272
f 141 272 142
f 142 272 273
f 142 273 143
f 143 273 274
f 143 274 144
f 144 274 275
f 144 275 145
f 145 275 251
f 145 251 98
f 98 251 250
f 98 250 123
f 123 250 252
f 123 252 124
f 124 252 253
f 124 253 125
f 125 253 254
f 125 254 126
f 126 254 255
f 126 255 127
f 127 255 256
f 127 256 128
f 283 99 282
f 282 99 277
f 285 100 284
f 284 100 282
f 287 101 286
f 286 101 284
f 289 102 288
f 288 102 286
f 294 104 290
f 290 104 103
f 290 103 288
f 294 295 105
f 105 295 106
f 297 296 106
f 106 296 107
f 299 298 107
f 107 298 108
f 301 300 108
f 108 300 109
f 303 302 109
f 109 302 110
f 305 304 110
f 110 304 111
f 329 119 328
f 328 119 326
f 98 276 331
f 98 331 330
f 330 331 120
f 330 120 328
f 351 162 163
f 351 163 352
f 352 163 164
f 352 164 353
f 353 164 165
f 353 165 354
f 354 165 166
f 354 166 355
f 355 166 167
f 355 167 356
f 356 167 168
f 356 168 357
f 357 168 169
f 357 169 358
f 358 169 146
f 358 146 332
f 332 146 147
f 332 147 333
f 333 147 148
f 333 148 334
f 334 148 149
f 334 149 335
f 335 149 150
f 335 150 336
f 336 150 151
f 336 151 337
f 337 151 152
f 337 152 338
f 162 350 349
f 162 349 161
f 161 349 348
f 161 348 160
f 160 348 347
f 160 347 159
f 159 347 346
f 159 346 158
f 158 346 345
f 158 345 157
f 157 345 344
f 157 344 156
f 156 344 343
f 156 343 155
f 155 343 342
f 155 342 154
f 154 342 340
f 154 340 153
f 153 340 339
f 153 339 341
f 362 147 146
f 365 148 147
f 368 149 148
f 371 150 149
f 374 151 150
f 377 152 151
f 381 378 380
f 380 378 382
f 383 154 153
f 386 155 154
f 389 156 155
f 392 157 156
f 395 158 157
f 398 159 158
f 401 160 159
f 404 161 160
f 408 162 161
f 411 163 162
f 414 164 163
f 417 165 164
f 420 166 165
f 424 167 166
f 427 168 167
f 430 169 168
f 431 146 169
f 51 194 50
f 52 433 51
f 53 434 52
f 54 435 53
f 55 436 54
f 56 437 55
f 57 438 245
f 58 439 57
f 59 440 58
f 60 441 59
f 61 442 60
f 62 443 61
f 63 444 62
f 64 445 63
f 65 446 64
f 67 448 66
f 68 449 67
f 69 450 68
f 70 451 69
f 71 452 70
f 72 453 71
f 73 454 72
f 50 455 73
