# button_pause
v 0.16518265008926392 5.029044700677332e-07 -0.1599999964237213
v 0.0051826476119458675 5.029044700677332e-07 -0.1599999964237213
v 0.16518265008926392 4.889167826149787e-07 0.1599999964237213
v 0.0051826476119458675 4.889167826149787e-07 0.1599999964237213
v -0.0051826476119458675 5.029044700677332e-07 -0.1599999964237213
v -0.16518265008926392 5.029044700677332e-07 -0.1599999964237213
v -0.0051826476119458675 4.889167826149787e-07 0.1599999964237213
v -0.16518265008926392 4.889167826149787e-07 0.1599999964237213
g submesh_0
f 2 1 4
f 4 1 3
f 6 5 8
f 8 5 7
