# helo_base
v 0.001340207876637578 -0.001340207876637578 4.1851230889733415e-06
v -0.001340207876637578 -0.001340207876637578 4.1851230889733415e-06
v 0.0013101730728521943 -0.0011838726932182908 0.0010042303474619985
v -0.0011838728096336126 -0.0013101731892675161 0.0010042303474619985
v 0.0014839025679975748 -0.0013826295034959912 0.0003718321677297354
v 0.0 0.0 0.001145831891335547
v -0.0004157195216976106 -0.0007730204961262643 0.001145831891335547
v 0.0007730204961262643 -0.0004157195216976106 0.001145831891335547
v 0.0004157182411290705 -0.0007730209035798907 0.001145831891335547
v 0.001183880027383566 -0.0013101742370054126 0.0010042303474619985
v 0.0013826378853991628 -0.0014839045470580459 0.00037178638740442693
v -0.0013826297363266349 -0.0014839025679975748 0.0003718321677297354
v 0.0014796467730775476 -0.0013766001211479306 0.0003012601810041815
v 0.0013766008196398616 -0.0014796400209888816 0.00030121824238449335
v -0.001376599888317287 -0.0014796466566622257 0.0003012601810041815
v 0.0013838899321854115 -0.0012826165184378624 0.0009066691854968667
v -0.0012826165184378624 -0.0013838900486007333 0.0009066691854968667
v 0.0012826237361878157 -0.001383890281431377 0.0009066688944585621
v -0.0009475619881413877 -0.0012275753542780876 0.0009478652500547469
v -0.00034553161822259426 -0.0008318299078382552 0.0010894667357206345
v 0.000361593731213361 -0.0008318301988765597 0.0010894667357206345
v 0.000962811813224107 -0.001227573025971651 0.0009478652500547469
v 0.0011839447543025017 -0.0014013031031936407 0.00039926281897351146
v -0.0011678817681968212 -0.0014013031031936407 0.000399262789869681
v -0.0010272290091961622 -0.0013012890703976154 0.0008503037388436496
v 0.0010424803476780653 -0.0013012890703976154 0.0008503037388436496
v -0.001340207876637578 0.001340207876637578 4.1851230889733415e-06
v -0.0014796466566622257 0.0013766001211479306 0.0003012601810041815
v -0.0014796400209888816 -0.0013766008196398616 0.00030121824238449335
v -0.0014013029867783189 -0.0011839447543025017 0.00039926281897351146
v -0.0014013031031936407 0.0011678817681968212 0.000399262789869681
v -0.0013012890703976154 0.0010272290091961622 0.0008503037388436496
v -0.0013012890703976154 -0.0010424803476780653 0.0008503037388436496
v -0.0007730209035798907 -0.0004157182411290705 0.001145831891335547
v -0.0007730204961262643 0.0004157195216976106 0.001145831891335547
v -0.001383890165016055 -0.0012826237361878157 0.0009066688944585621
v -0.001483904430642724 -0.0013826378853991628 0.00037178638740442693
v -0.001227573025971651 -0.000962811813224107 0.0009478652500547469
v -0.0012275753542780876 0.0009475619881413877 0.0009478652500547469
v -0.0008318299078382552 0.00034553161822259426 0.0010894667357206345
v -0.0013101744698360562 -0.001183880027383566 0.0010042303474619985
v -0.0008318301988765597 -0.000361593731213361 0.0010894667357206345
v -0.0014839025679975748 0.0013826295034959912 0.0003718321677297354
v -0.0013838900486007333 0.0012826165184378624 0.0009066691854968667
v -0.0013101731892675161 0.0011838728096336126 0.0010042303474619985
v 0.001340207876637578 0.001340207876637578 4.1851230889733415e-06
v 0.001376599888317287 0.0014796466566622257 0.0003012601810041815
v -0.0013766008196398616 0.0014796400209888816 0.00030121824238449335
v -0.0011839447543025017 0.0014013031031936407 0.00039926281897351146
v 0.0011678817681968212 0.0014013031031936407 0.000399262789869681
v 0.0010272288927808404 0.0013012890703976154 0.0008503037388436496
v -0.0010424803476780653 0.0013012890703976154 0.0008503037388436496
v -0.0004157182411290705 0.0007730209035798907 0.001145831891335547
v 0.0004157195216976106 0.0007730204961262643 0.001145831891335547
v -0.0012826237361878157 0.0013838900486007333 0.0009066688944585621
v -0.0013826378853991628 0.0014839041978120804 0.00037178638740442693
v -0.000962811813224107 0.001227573025971651 0.0009478652500547469
v 0.0009475619881413877 0.0012275753542780876 0.0009478652500547469
v 0.00034553161822259426 0.0008318299078382552 0.0010894667357206345
v -0.001183879910968244 0.0013101742370054126 0.0010042303474619985
v -0.000361593731213361 0.0008318301988765597 0.0010894667357206345
v 0.0013826297363266349 0.0014839025679975748 0.0003718321677297354
v 0.0012826165184378624 0.0013838900486007333 0.0009066691854968667
v 0.0011838726932182908 0.0013101731892675161 0.0010042303474619985
v 0.0014796400209888816 0.0013766008196398616 0.00030121824238449335
v 0.0014013029867783189 0.0011839446378871799 0.00039926281897351146
v 0.0014013031031936407 -0.0011678817681968212 0.000399262789869681
v 0.0013012888375669718 -0.0010272290091961622 0.0008503037388436496
v 0.0013012890703976154 0.0010424803476780653 0.0008503037388436496
v 0.0007730209035798907 0.0004157182411290705 0.001145831891335547
v 0.001383890165016055 0.001282623503357172 0.0009066688944585621
v 0.001483904430642724 0.001382637768983841 0.00037178638740442693
v 0.001227573025971651 0.000962811813224107 0.0009478652500547469
v 0.0012275753542780876 -0.0009475619881413877 0.0009478652500547469
v 0.0008318299078382552 -0.00034553161822259426 0.0010894667357206345
v 0.0013101741205900908 0.0011838797945529222 0.0010042303474619985
v 0.0008318301988765597 0.000361593731213361 0.0010894667357206345
v 0.0 0.0 0.001145831891335547
v 0.001340207876637578 -0.001340207876637578 4.1851230889733415e-06
v 0.0013101730728521943 -0.0011838726932182908 0.0010042303474619985
v 0.0007730204961262643 -0.0004157195216976106 0.001145831891335547
v 0.0013826378853991628 -0.0014839045470580459 0.00037178638740442693
v 0.0013826378853991628 -0.0014839045470580459 0.00037178638740442693
v -0.0011678817681968212 -0.0014013031031936407 0.000399262789869681
v -0.0013826297363266349 -0.0014839025679975748 0.0003718321677297354
v 0.0011839447543025017 -0.0014013031031936407 0.00039926281897351146
v -0.0011678817681968212 -0.0014013031031936407 0.000399262789869681
v -0.0013826297363266349 -0.0014839025679975748 0.0003718321677297354
v 0.0012826237361878157 -0.001383890281431377 0.0009066688944585621
v 0.0011839447543025017 -0.0014013031031936407 0.00039926281897351146
v 0.0013826378853991628 -0.0014839045470580459 0.00037178638740442693
v -0.0004157195216976106 -0.0007730204961262643 0.001145831891335547
v 0.001183880027383566 -0.0013101742370054126 0.0010042303474619985
v -0.0011838728096336126 -0.0013101731892675161 0.0010042303474619985
v 0.001183880027383566 -0.0013101742370054126 0.0010042303474619985
v -0.001340207876637578 -0.001340207876637578 4.1851230889733415e-06
v 0.0 0.0 0.001145831891335547
v -0.0004157195216976106 -0.0007730204961262643 0.001145831891335547
v 0.0 0.0 0.001145831891335547
v -0.001340207876637578 -0.001340207876637578 4.1851230889733415e-06
v -0.001376599888317287 -0.0014796466566622257 0.0003012601810041815
v -0.0012826165184378624 -0.0013838900486007333 0.0009066691854968667
v -0.0013826297363266349 -0.0014839025679975748 0.0003718321677297354
v -0.0011838728096336126 -0.0013101731892675161 0.0010042303474619985
v -0.0011838728096336126 -0.0013101731892675161 0.0010042303474619985
v -0.0004157195216976106 -0.0007730204961262643 0.001145831891335547
v -0.001483904430642724 -0.0013826378853991628 0.00037178638740442693
v -0.001483904430642724 -0.0013826378853991628 0.00037178638740442693
v -0.0014013031031936407 0.0011678817681968212 0.000399262789869681
v -0.0014839025679975748 0.0013826295034959912 0.0003718321677297354
v -0.0014013029867783189 -0.0011839447543025017 0.00039926281897351146
v -0.0014013031031936407 0.0011678817681968212 0.000399262789869681
v -0.0014839025679975748 0.0013826295034959912 0.0003718321677297354
v -0.001383890165016055 -0.0012826237361878157 0.0009066688944585621
v -0.0014013029867783189 -0.0011839447543025017 0.00039926281897351146
v -0.001483904430642724 -0.0013826378853991628 0.00037178638740442693
v -0.0007730204961262643 0.0004157195216976106 0.001145831891335547
v -0.0013101744698360562 -0.001183880027383566 0.0010042303474619985
v -0.0013101731892675161 0.0011838728096336126 0.0010042303474619985
v -0.0013101744698360562 -0.001183880027383566 0.0010042303474619985
v -0.001340207876637578 0.001340207876637578 4.1851230889733415e-06
v 0.0 0.0 0.001145831891335547
v -0.0007730204961262643 0.0004157195216976106 0.001145831891335547
v 0.0 0.0 0.001145831891335547
v -0.001340207876637578 0.001340207876637578 4.1851230889733415e-06
v -0.0014796466566622257 0.0013766001211479306 0.0003012601810041815
v -0.0013838900486007333 0.0012826165184378624 0.0009066691854968667
v -0.0014839025679975748 0.0013826295034959912 0.0003718321677297354
v -0.0013101731892675161 0.0011838728096336126 0.0010042303474619985
v -0.0013101731892675161 0.0011838728096336126 0.0010042303474619985
v -0.0007730204961262643 0.0004157195216976106 0.001145831891335547
v -0.0013826378853991628 0.0014839041978120804 0.00037178638740442693
v -0.0013826378853991628 0.0014839041978120804 0.00037178638740442693
v 0.0011678817681968212 0.0014013031031936407 0.000399262789869681
v 0.0013826297363266349 0.0014839025679975748 0.0003718321677297354
v -0.0011839447543025017 0.0014013031031936407 0.00039926281897351146
v 0.0011678817681968212 0.0014013031031936407 0.000399262789869681
v 0.0013826297363266349 0.0014839025679975748 0.0003718321677297354
v -0.0012826237361878157 0.0013838900486007333 0.0009066688944585621
v -0.0011839447543025017 0.0014013031031936407 0.00039926281897351146
v -0.0013826378853991628 0.0014839041978120804 0.00037178638740442693
v 0.0004157195216976106 0.0007730204961262643 0.001145831891335547
v -0.001183879910968244 0.0013101742370054126 0.0010042303474619985
v 0.0011838726932182908 0.0013101731892675161 0.0010042303474619985
v -0.001183879910968244 0.0013101742370054126 0.0010042303474619985
v 0.001340207876637578 0.001340207876637578 4.1851230889733415e-06
v 0.0014796467730775476 -0.0013766001211479306 0.0003012601810041815
v 0.001340207876637578 -0.001340207876637578 4.1851230889733415e-06
v 0.0 0.0 0.001145831891335547
v 0.0004157195216976106 0.0007730204961262643 0.001145831891335547
v 0.0 0.0 0.001145831891335547
v 0.0007730204961262643 -0.0004157195216976106 0.001145831891335547
v 0.001340207876637578 0.001340207876637578 4.1851230889733415e-06
v 0.001376599888317287 0.0014796466566622257 0.0003012601810041815
v 0.0012826165184378624 0.0013838900486007333 0.0009066691854968667
v 0.0013826297363266349 0.0014839025679975748 0.0003718321677297354
v 0.0011838726932182908 0.0013101731892675161 0.0010042303474619985
v 0.0011838726932182908 0.0013101731892675161 0.0010042303474619985
v 0.0004157195216976106 0.0007730204961262643 0.001145831891335547
v 0.001483904430642724 0.001382637768983841 0.00037178638740442693
v 0.0014839025679975748 -0.0013826295034959912 0.0003718321677297354
v 0.001483904430642724 0.001382637768983841 0.00037178638740442693
v 0.0014013031031936407 -0.0011678817681968212 0.000399262789869681
v 0.0014839025679975748 -0.0013826295034959912 0.0003718321677297354
v 0.0014013029867783189 0.0011839446378871799 0.00039926281897351146
v 0.0014013031031936407 -0.0011678817681968212 0.000399262789869681
v 0.0013838899321854115 -0.0012826165184378624 0.0009066691854968667
v 0.0014839025679975748 -0.0013826295034959912 0.0003718321677297354
v 0.001383890165016055 0.001282623503357172 0.0009066688944585621
v 0.0014013029867783189 0.0011839446378871799 0.00039926281897351146
v 0.001483904430642724 0.001382637768983841 0.00037178638740442693
v 0.0007730204961262643 -0.0004157195216976106 0.001145831891335547
v 0.0013101730728521943 -0.0011838726932182908 0.0010042303474619985
v 0.0013101741205900908 0.0011838797945529222 0.0010042303474619985
v 0.0013101730728521943 -0.0011838726932182908 0.0010042303474619985
v 0.0013101741205900908 0.0011838797945529222 0.0010042303474619985
g submesh_0
f 8 6 9
f 9 80 81
f 19 92 4
f 98 97 34
f 34 105 106
f 39 117 45
f 123 122 53
f 53 130 131
f 58 142 64
f 150 149 70
f 70 158 159
f 74 172 173
f 82 12 14
f 14 12 15
f 14 15 1
f 1 15 2
f 24 23 25
f 25 23 26
f 25 26 19
f 19 26 22
f 19 22 20
f 20 22 21
f 20 21 7
f 7 21 9
f 7 9 78
f 5 16 11
f 5 11 13
f 13 11 14
f 13 14 79
f 18 11 16
f 18 16 10
f 10 16 3
f 10 3 9
f 85 83 84
f 84 83 86
f 19 94 25
f 25 94 17
f 25 17 87
f 87 17 88
f 95 22 26
f 95 26 89
f 89 26 90
f 89 90 91
f 93 9 22
f 22 9 21
f 107 43 29
f 29 43 28
f 29 28 96
f 96 28 27
f 31 30 32
f 32 30 33
f 32 33 39
f 39 33 38
f 39 38 40
f 40 38 42
f 40 42 35
f 35 42 34
f 35 34 99
f 103 102 37
f 103 37 101
f 101 37 29
f 101 29 100
f 36 37 102
f 36 102 41
f 41 102 104
f 41 104 34
f 110 108 109
f 109 108 111
f 39 119 32
f 32 119 44
f 32 44 112
f 112 44 113
f 120 38 33
f 120 33 114
f 114 33 115
f 114 115 116
f 118 34 38
f 38 34 42
f 132 62 48
f 48 62 47
f 48 47 121
f 121 47 46
f 50 49 51
f 51 49 52
f 51 52 58
f 58 52 57
f 58 57 59
f 59 57 61
f 59 61 54
f 54 61 53
f 54 53 124
f 128 127 56
f 128 56 126
f 126 56 48
f 126 48 125
f 55 56 127
f 55 127 60
f 60 127 129
f 60 129 53
f 135 133 134
f 134 133 136
f 58 144 51
f 51 144 63
f 51 63 137
f 137 63 138
f 145 57 52
f 145 52 139
f 139 52 140
f 139 140 141
f 143 53 57
f 57 53 61
f 160 161 65
f 65 161 147
f 65 147 146
f 146 147 148
f 67 66 68
f 68 66 69
f 68 69 74
f 74 69 73
f 74 73 75
f 75 73 77
f 75 77 152
f 152 77 70
f 152 70 151
f 156 155 72
f 156 72 154
f 154 72 65
f 154 65 153
f 71 72 155
f 71 155 76
f 76 155 157
f 76 157 70
f 164 162 163
f 163 162 165
f 74 175 68
f 68 175 167
f 68 167 166
f 166 167 168
f 176 73 69
f 176 69 169
f 169 69 170
f 169 170 171
f 174 70 73
f 73 70 77
f 7 19 20
f 35 39 40
f 54 58 59
f 152 74 75
