# 09
v -0.19152595102787018 0.1874074637889862 -0.10097404569387436
v -0.103963702917099 0.27802595496177673 -0.10097404569387436
v 0.09967071563005447 0.27802595496177673 -0.10097404569387436
v 0.19152595102787018 0.18701466917991638 -0.10097404569387436
v 0.19152595102787018 0.03692663088440895 -0.10097404569387436
v 0.1244715079665184 -0.030025938525795937 -0.10097404569387436
v -0.06547406315803528 -0.030025938525795937 -0.10097404569387436
v -0.06547404825687408 -0.1719740331172943 -0.10097404569387436
v 0.06547403335571289 -0.1719740331172943 -0.10097404569387436
v 0.06547403335571289 -0.1199740394949913 -0.10097404569387436
v 0.18552595376968384 -0.1199740394949913 -0.10097404569387436
v 0.18552595376968384 -0.19026170670986176 -0.10097404569387436
v 0.09978232532739639 -0.27802595496177673 -0.10097404569387436
v -0.10036400705575943 -0.27802595496177673 -0.10097404569387436
v -0.19152595102787018 -0.18627455830574036 -0.10097404569387436
v 0.06247403845191002 0.06202596426010132 -0.10097404569387436
v 0.06247403845191002 0.1719740480184555 -0.10097404569387436
v -0.06547404825687408 0.1719740480184555 -0.10097404569387436
v -0.06547404825687408 0.06202596426010132 -0.10097404569387436
v -0.2175000011920929 0.1979062408208847 -0.07499999552965164
v -0.11498439311981201 0.30399999022483826 -0.07499999552965164
v 0.11035936325788498 0.30399999022483826 -0.07499999552965164
v 0.2175000011920929 0.1978437602519989 -0.07499999552965164
v 0.2175000011920929 0.02615625411272049 -0.07499999552965164
v 0.13521873950958252 -0.055999983102083206 -0.07499999552965164
v -0.039500005543231964 -0.055999983102083206 -0.07499999552965164
v -0.039500005543231964 -0.1459999978542328 -0.07499999552965164
v 0.03949998691678047 -0.1459999978542328 -0.07499999552965164
v 0.03949998691678047 -0.09399999678134918 -0.07499999552965164
v 0.21149998903274536 -0.09399999678134918 -0.07499999552965164
v 0.21149998903274536 -0.20084373652935028 -0.07499999552965164
v 0.110718734562397 -0.30399999022483826 -0.07499999552965164
v -0.11117187142372131 -0.30399999022483826 -0.07499999552965164
v -0.2175000011920929 -0.19698436558246613 -0.07499999552965164
v 0.0364999957382679 0.08800000697374344 -0.07499999552965164
v 0.0364999957382679 0.1459999978542328 -0.07499999552965164
v -0.039500005543231964 0.1459999978542328 -0.07499999552965164
v -0.039500005543231964 0.08800000697374344 -0.07499999552965164
v -0.2175000011920929 0.1979062408208847 0.07499999552965164
v -0.11498439311981201 0.30399999022483826 0.07499999552965164
v 0.11035936325788498 0.30399999022483826 0.07499999552965164
v 0.2175000011920929 0.1978437602519989 0.07499999552965164
v 0.2175000011920929 0.02615625411272049 0.07499999552965164
v 0.13521873950958252 -0.055999983102083206 0.07499999552965164
v -0.039500005543231964 -0.055999983102083206 0.07499999552965164
v -0.039500005543231964 -0.1459999978542328 0.07499999552965164
v 0.03949998691678047 -0.1459999978542328 0.07499999552965164
v 0.03949998691678047 -0.09399999678134918 0.07499999552965164
v 0.21149998903274536 -0.09399999678134918 0.07499999552965164
v 0.21149998903274536 -0.20084373652935028 0.07499999552965164
v 0.110718734562397 -0.30399999022483826 0.07499999552965164
v -0.11117187142372131 -0.30399999022483826 0.07499999552965164
v -0.2175000011920929 -0.19698436558246613 0.07499999552965164
v 0.0364999957382679 0.08800000697374344 0.07499999552965164
v 0.0364999957382679 0.1459999978542328 0.07499999552965164
v -0.039500005543231964 0.1459999978542328 0.07499999552965164
v -0.039500005543231964 0.08800000697374344 0.07499999552965164
v -0.19152595102787018 0.1874074637889862 0.10097404569387436
v -0.103963702917099 0.27802595496177673 0.10097404569387436
v 0.09967071563005447 0.27802595496177673 0.10097404569387436
v 0.19152595102787018 0.18701466917991638 0.10097404569387436
v 0.19152595102787018 0.03692663088440895 0.10097404569387436
v 0.1244715079665184 -0.030025938525795937 0.10097404569387436
v -0.06547404825687408 -0.030025938525795937 0.10097404569387436
v -0.06547404825687408 -0.1719740331172943 0.10097404569387436
v 0.06547403335571289 -0.1719740331172943 0.10097404569387436
v 0.06547403335571289 -0.1199740394949913 0.10097404569387436
v 0.18552595376968384 -0.1199740394949913 0.10097404569387436
v 0.18552595376968384 -0.19026170670986176 0.10097404569387436
v 0.09978232532739639 -0.27802595496177673 0.10097404569387436
v -0.10036400705575943 -0.27802595496177673 0.10097404569387436
v -0.19152595102787018 -0.18627455830574036 0.10097404569387436
v 0.06247403845191002 0.06202596426010132 0.10097404569387436
v 0.06247403845191002 0.1719740480184555 0.10097404569387436
v -0.06547404825687408 0.1719740480184555 0.10097404569387436
v -0.06547404825687408 0.06202596426010132 0.10097404569387436
v -0.11498439311981201 0.30399999022483826 -0.07499999552965164
v -0.11498439311981201 0.30399999022483826 0.07499999552965164
v 0.11035936325788498 0.30399999022483826 -0.07499999552965164
v 0.11035936325788498 0.30399999022483826 0.07499999552965164
v 0.2175000011920929 0.1978437602519989 -0.07499999552965164
v 0.2175000011920929 0.1978437602519989 0.07499999552965164
v 0.2175000011920929 0.02615625411272049 -0.07499999552965164
v 0.2175000011920929 0.02615625411272049 0.07499999552965164
v 0.13521873950958252 -0.055999983102083206 -0.07499999552965164
v 0.13521873950958252 -0.055999983102083206 0.07499999552965164
v -0.039500005543231964 -0.055999983102083206 -0.07499999552965164
v -0.039500005543231964 -0.055999983102083206 0.07499999552965164
v -0.039500005543231964 -0.1459999978542328 -0.07499999552965164
v -0.039500005543231964 -0.1459999978542328 0.07499999552965164
v 0.03949998691678047 -0.1459999978542328 -0.07499999552965164
v 0.03949998691678047 -0.1459999978542328 0.07499999552965164
v 0.03949998691678047 -0.09399999678134918 -0.07499999552965164
v 0.03949998691678047 -0.09399999678134918 0.07499999552965164
v 0.21149998903274536 -0.09399999678134918 -0.07499999552965164
v 0.21149998903274536 -0.09399999678134918 0.07499999552965164
v 0.110718734562397 -0.30399999022483826 -0.07499999552965164
v 0.110718734562397 -0.30399999022483826 0.07499999552965164
v -0.11117187142372131 -0.30399999022483826 -0.07499999552965164
v -0.11117187142372131 -0.30399999022483826 0.07499999552965164
v 0.0364999957382679 0.1459999978542328 -0.07499999552965164
v 0.0364999957382679 0.1459999978542328 0.07499999552965164
v -0.039500005543231964 0.1459999978542328 -0.07499999552965164
v -0.039500005543231964 0.1459999978542328 0.07499999552965164
v -0.039500005543231964 0.08800000697374344 -0.07499999552965164
v -0.039500005543231964 0.08800000697374344 0.07499999552965164
v 0.0364999957382679 0.08800000697374344 -0.07499999552965164
v 0.0364999957382679 0.08800000697374344 0.07499999552965164
v -0.19152595102787018 -0.18627455830574036 0.10097404569387436
v -0.06547404825687408 0.06202596426010132 0.10097404569387436
v -0.19152595102787018 -0.18627455830574036 0.10097404569387436
v -0.06547404825687408 0.06202596426010132 0.10097404569387436
v -0.19152595102787018 -0.18627455830574036 -0.10097404569387436
v -0.06547404825687408 0.06202596426010132 -0.10097404569387436
v -0.19152595102787018 -0.18627455830574036 -0.10097404569387436
v -0.06547404825687408 0.06202596426010132 -0.10097404569387436
v -0.11498439311981201 0.30399999022483826 -0.07499999552965164
v -0.19152595102787018 0.1874074637889862 -0.10097404569387436
v -0.2175000011920929 0.1979062408208847 -0.07499999552965164
v -0.103963702917099 0.27802595496177673 -0.10097404569387436
v 0.11035936325788498 0.30399999022483826 -0.07499999552965164
v -0.11498439311981201 0.30399999022483826 -0.07499999552965164
v 0.09967071563005447 0.27802595496177673 -0.10097404569387436
v 0.2175000011920929 0.1978437602519989 -0.07499999552965164
v 0.11035936325788498 0.30399999022483826 -0.07499999552965164
v 0.19152595102787018 0.18701466917991638 -0.10097404569387436
v 0.2175000011920929 0.02615625411272049 -0.07499999552965164
v 0.2175000011920929 0.1978437602519989 -0.07499999552965164
v 0.19152595102787018 0.03692663088440895 -0.10097404569387436
v 0.2175000011920929 0.02615625411272049 -0.07499999552965164
v 0.1244715079665184 -0.030025938525795937 -0.10097404569387436
v -0.039500005543231964 -0.055999983102083206 -0.07499999552965164
v 0.13521873950958252 -0.055999983102083206 -0.07499999552965164
v -0.039500005543231964 -0.055999983102083206 -0.07499999552965164
v -0.06547406315803528 -0.030025938525795937 -0.10097404569387436
v -0.06547406315803528 -0.030025938525795937 -0.10097404569387436
v -0.039500005543231964 -0.055999983102083206 -0.07499999552965164
v -0.06547404825687408 -0.1719740331172943 -0.10097404569387436
v 0.03949998691678047 -0.1459999978542328 -0.07499999552965164
v -0.06547404825687408 -0.1719740331172943 -0.10097404569387436
v -0.039500005543231964 -0.1459999978542328 -0.07499999552965164
v 0.06547403335571289 -0.1719740331172943 -0.10097404569387436
v 0.03949998691678047 -0.09399999678134918 -0.07499999552965164
v 0.06547403335571289 -0.1719740331172943 -0.10097404569387436
v 0.03949998691678047 -0.1459999978542328 -0.07499999552965164
v 0.06547403335571289 -0.1199740394949913 -0.10097404569387436
v 0.21149998903274536 -0.09399999678134918 -0.07499999552965164
v 0.06547403335571289 -0.1199740394949913 -0.10097404569387436
v 0.03949998691678047 -0.09399999678134918 -0.07499999552965164
v 0.18552595376968384 -0.1199740394949913 -0.10097404569387436
v 0.18552595376968384 -0.1199740394949913 -0.10097404569387436
v 0.18552595376968384 -0.19026170670986176 -0.10097404569387436
v 0.110718734562397 -0.30399999022483826 -0.07499999552965164
v 0.09978232532739639 -0.27802595496177673 -0.10097404569387436
v -0.11117187142372131 -0.30399999022483826 -0.07499999552965164
v 0.110718734562397 -0.30399999022483826 -0.07499999552965164
v -0.10036400705575943 -0.27802595496177673 -0.10097404569387436
v -0.2175000011920929 -0.19698436558246613 -0.07499999552965164
v -0.11117187142372131 -0.30399999022483826 -0.07499999552965164
v -0.19152595102787018 -0.18627455830574036 -0.10097404569387436
v -0.2175000011920929 0.1979062408208847 -0.07499999552965164
v -0.2175000011920929 -0.19698436558246613 -0.07499999552965164
v 0.0364999957382679 0.1459999978542328 -0.07499999552965164
v 0.06247403845191002 0.06202596426010132 -0.10097404569387436
v 0.0364999957382679 0.08800000697374344 -0.07499999552965164
v 0.06247403845191002 0.1719740480184555 -0.10097404569387436
v -0.039500005543231964 0.1459999978542328 -0.07499999552965164
v 0.06247403845191002 0.1719740480184555 -0.10097404569387436
v 0.0364999957382679 0.1459999978542328 -0.07499999552965164
v -0.06547404825687408 0.1719740480184555 -0.10097404569387436
v -0.06547404825687408 0.1719740480184555 -0.10097404569387436
v -0.06547404825687408 0.06202596426010132 -0.10097404569387436
v 0.0364999957382679 0.08800000697374344 -0.07499999552965164
v -0.06547404825687408 0.06202596426010132 -0.10097404569387436
v -0.039500005543231964 0.08800000697374344 -0.07499999552965164
v 0.06247403845191002 0.06202596426010132 -0.10097404569387436
v -0.103963702917099 0.27802595496177673 0.10097404569387436
v -0.11498439311981201 0.30399999022483826 0.07499999552965164
v -0.19152595102787018 0.1874074637889862 0.10097404569387436
v -0.11498439311981201 0.30399999022483826 0.07499999552965164
v 0.09967071563005447 0.27802595496177673 0.10097404569387436
v 0.11035936325788498 0.30399999022483826 0.07499999552965164
v 0.19152595102787018 0.18701466917991638 0.10097404569387436
v 0.2175000011920929 0.1978437602519989 0.07499999552965164
v 0.2175000011920929 0.1978437602519989 0.07499999552965164
v 0.19152595102787018 0.03692663088440895 0.10097404569387436
v 0.2175000011920929 0.02615625411272049 0.07499999552965164
v 0.2175000011920929 0.02615625411272049 0.07499999552965164
v 0.1244715079665184 -0.030025938525795937 0.10097404569387436
v 0.13521873950958252 -0.055999983102083206 0.07499999552965164
v -0.06547404825687408 -0.030025938525795937 0.10097404569387436
v -0.039500005543231964 -0.055999983102083206 0.07499999552965164
v -0.039500005543231964 -0.055999983102083206 0.07499999552965164
v -0.06547404825687408 -0.1719740331172943 0.10097404569387436
v -0.039500005543231964 -0.1459999978542328 0.07499999552965164
v -0.06547404825687408 -0.030025938525795937 0.10097404569387436
v -0.039500005543231964 -0.1459999978542328 0.07499999552965164
v 0.06547403335571289 -0.1719740331172943 0.10097404569387436
v 0.03949998691678047 -0.1459999978542328 0.07499999552965164
v -0.06547404825687408 -0.1719740331172943 0.10097404569387436
v 0.06547403335571289 -0.1199740394949913 0.10097404569387436
v 0.06547403335571289 -0.1719740331172943 0.10097404569387436
v 0.03949998691678047 -0.09399999678134918 0.07499999552965164
v 0.18552595376968384 -0.1199740394949913 0.10097404569387436
v 0.21149998903274536 -0.09399999678134918 0.07499999552965164
v 0.06547403335571289 -0.1199740394949913 0.10097404569387436
v 0.21149998903274536 -0.09399999678134918 0.07499999552965164
v 0.18552595376968384 -0.19026170670986176 0.10097404569387436
v 0.21149998903274536 -0.20084373652935028 0.07499999552965164
v 0.18552595376968384 -0.1199740394949913 0.10097404569387436
v 0.21149998903274536 -0.20084373652935028 0.07499999552965164
v 0.09978232532739639 -0.27802595496177673 0.10097404569387436
v 0.110718734562397 -0.30399999022483826 0.07499999552965164
v 0.110718734562397 -0.30399999022483826 0.07499999552965164
v -0.10036400705575943 -0.27802595496177673 0.10097404569387436
v -0.11117187142372131 -0.30399999022483826 0.07499999552965164
v -0.11117187142372131 -0.30399999022483826 0.07499999552965164
v -0.19152595102787018 -0.18627455830574036 0.10097404569387436
v 0.06247403845191002 0.1719740480184555 0.10097404569387436
v 0.06247403845191002 0.06202596426010132 0.10097404569387436
v 0.0364999957382679 0.1459999978542328 0.07499999552965164
v -0.06547404825687408 0.1719740480184555 0.10097404569387436
v -0.039500005543231964 0.1459999978542328 0.07499999552965164
v 0.06247403845191002 0.1719740480184555 0.10097404569387436
v -0.039500005543231964 0.1459999978542328 0.07499999552965164
v -0.06547404825687408 0.06202596426010132 0.10097404569387436
v -0.039500005543231964 0.08800000697374344 0.07499999552965164
v -0.06547404825687408 0.1719740480184555 0.10097404569387436
v -0.039500005543231964 0.08800000697374344 0.07499999552965164
v 0.06247403845191002 0.06202596426010132 0.10097404569387436
v 0.0364999957382679 0.08800000697374344 0.07499999552965164
v -0.06547404825687408 0.06202596426010132 0.10097404569387436
g submesh_0
f 75 109 76
f 112 111 64
f 19 113 18
f 7 115 116
f 133 132 131
f 135 131 134
f 99 100 34
f 34 100 53
f 34 53 20
f 20 53 39
f 20 39 21
f 21 39 40
f 41 22 78
f 78 22 77
f 42 23 80
f 80 23 79
f 43 24 82
f 82 24 81
f 44 25 84
f 84 25 83
f 45 26 86
f 86 26 85
f 46 27 88
f 88 27 87
f 47 28 90
f 90 28 89
f 201 48 92
f 92 48 29
f 92 29 91
f 49 30 94
f 94 30 93
f 95 96 31
f 31 96 50
f 31 50 32
f 32 50 51
f 52 33 98
f 98 33 97
f 219 55 54
f 54 55 36
f 54 36 35
f 56 37 102
f 102 37 101
f 171 103 38
f 38 103 104
f 38 104 57
f 108 107 106
f 106 107 105
f 60 59 74
f 74 59 58
f 74 58 75
f 75 58 72
f 110 64 73
f 73 64 63
f 73 63 62
f 64 72 65
f 65 72 71
f 65 71 70
f 70 69 66
f 66 69 68
f 66 68 67
f 2 3 17
f 2 17 1
f 1 17 18
f 1 18 15
f 5 6 16
f 16 6 7
f 16 7 114
f 13 14 8
f 8 14 15
f 8 15 7
f 10 11 9
f 9 11 12
f 9 12 13
f 119 117 118
f 118 117 120
f 122 121 120
f 120 121 123
f 125 124 123
f 123 124 126
f 128 127 126
f 126 127 129
f 130 25 129
f 129 25 131
f 137 27 136
f 136 27 138
f 141 139 140
f 140 139 142
f 145 143 144
f 144 143 146
f 149 147 148
f 148 147 150
f 151 95 31
f 151 31 152
f 152 31 153
f 152 153 154
f 156 155 154
f 154 155 157
f 159 158 157
f 157 158 160
f 162 161 160
f 160 161 118
f 165 163 164
f 164 163 166
f 169 167 168
f 168 167 170
f 172 171 38
f 175 173 174
f 174 173 176
f 217 215 218
f 217 218 53
f 53 218 179
f 53 179 39
f 39 179 177
f 39 177 178
f 183 184 182
f 183 182 181
f 181 182 180
f 181 180 177
f 187 185 186
f 186 185 183
f 191 192 190
f 191 190 189
f 189 190 188
f 189 188 186
f 195 193 194
f 194 193 196
f 199 197 198
f 198 197 200
f 202 201 92
f 205 203 204
f 204 203 206
f 209 207 208
f 208 207 210
f 213 211 212
f 212 211 208
f 216 214 215
f 215 214 212
f 220 219 54
f 223 221 222
f 222 221 224
f 227 225 226
f 226 225 228
f 231 229 230
f 230 229 232
f 73 62 74
f 74 62 61
f 74 61 60
f 65 70 66
f 3 4 17
f 17 4 5
f 17 5 16
f 9 13 8
