# Root
v 0.0009492963436059654 -0.00046109961112961173 0.0019201162504032254
v -0.0009492963436059654 -0.00046109961112961173 0.0019201162504032254
v 0.0009492963436059654 -0.0004610995820257813 9.191855497192591e-05
v -0.0009492963436059654 -0.0004610995820257813 9.191855497192591e-05
v 0.0010129358852282166 -0.00043473925325088203 0.0019201162504032254
v 0.0010129358852282166 -0.0004347391950432211 9.191855497192591e-05
v 0.0009942963952198625 -0.0004347391950432211 4.69185397378169e-05
v 0.0009492963436059654 -0.0004347391950432211 2.8278975150897168e-05
v -0.0009492963436059654 -0.0004347391950432211 2.8278975150897168e-05
v -0.0009942963952198625 -0.0004347391950432211 4.69185397378169e-05
v -0.0010129358852282166 -0.0004347391950432211 9.191855497192591e-05
v -0.0010129358852282166 -0.00043473925325088203 0.0019201162504032254
v 0.0010392963886260986 -0.00037109959521330893 0.0019201162504032254
v 0.0010392963886260986 -0.0003710995661094785 9.191855497192591e-05
v 0.0010129358852282166 -0.0003710995661094785 2.8278975150897168e-05
v 0.0009492963436059654 -0.0003710995661094785 1.9185245037078857e-06
v -0.0009492963436059654 -0.0003710995661094785 1.9185245037078857e-06
v -0.0010129358852282166 -0.0003710995661094785 2.8278975150897168e-05
v -0.0010392963886260986 -0.0003710995661094785 9.191855497192591e-05
v -0.0010392963886260986 -0.00037109959521330893 0.0019201162504032254
v 0.0010392963886260986 0.0003710995661094785 0.0019201162504032254
v 0.0010392963886260986 0.00037109959521330893 9.191855497192591e-05
v 0.0010129358852282166 0.00037109959521330893 2.8278975150897168e-05
v 0.0009492963436059654 0.00037109959521330893 1.9185245037078857e-06
v -0.0009492963436059654 0.00037109959521330893 1.9185245037078857e-06
v -0.0010129358852282166 0.00037109959521330893 2.8278975150897168e-05
v -0.0010392963886260986 0.00037109959521330893 9.191855497192591e-05
v -0.0010392963886260986 0.0003710995661094785 0.0019201162504032254
v 0.0010129358852282166 0.00043473916593939066 0.0019201162504032254
v 0.0010129358852282166 0.0004347391950432211 9.191855497192591e-05
v 0.0009942963952198625 0.0004347391950432211 4.69185397378169e-05
v 0.0009492963436059654 0.0004347391950432211 2.8278975150897168e-05
v -0.0009492963436059654 0.0004347391950432211 2.8278975150897168e-05
v -0.0009942963952198625 0.0004347391950432211 4.69185397378169e-05
v -0.0010129358852282166 0.0004347391950432211 9.191855497192591e-05
v -0.0010129358852282166 0.00043473916593939066 0.0019201162504032254
v -0.0009492963436059654 0.0004610995820257813 9.191855497192591e-05
v 0.0009492963436059654 0.0004610995820257813 9.191855497192591e-05
v -0.0009492963436059654 0.0004610995529219508 0.0019201162504032254
v 0.0009492963436059654 0.0004610995529219508 0.0019201162504032254
v -0.0004500754876062274 -0.00020696783030871302 0.0020126125309616327
v 0.0004566027782857418 -0.00020696783030871302 0.0020126125309616327
v 0.000483485811855644 -0.00017147207108791918 0.0020126125309616327
v -0.0004769585211761296 -0.00017147207108791918 0.0020126125309616327
v 0.000483485811855644 0.00017147194012068212 0.0020126125309616327
v -0.0004769585211761296 0.00017147194012068212 0.0020126125309616327
v 0.0004566027782857418 0.00020696765568573028 0.0020126125309616327
v -0.0004500754876062274 0.00020696765568573028 0.0020126125309616327
v -0.0004500754876062274 -0.00020696783030871302 0.0027529492508620024
v 0.0004566027782857418 -0.00020696783030871302 0.0027529492508620024
v 0.000483485811855644 -0.00017147207108791918 0.0027529492508620024
v -0.0004769585211761296 -0.00017147207108791918 0.0027529492508620024
v 0.000483485811855644 0.00017147194012068212 0.002752949483692646
v -0.0004769585211761296 0.00017147194012068212 0.002752949483692646
v 0.0004566027782857418 0.00020696765568573028 0.002752949483692646
v -0.0004500754876062274 0.00020696765568573028 0.002752949483692646
v -0.0003814905940089375 -0.00017565602320246398 0.0027529492508620024
v 0.0003880178846884519 -0.00017565602320246398 0.0027529492508620024
v 0.0004108338034711778 -0.00014553035725839436 0.0027529492508620024
v -0.00040430648368783295 -0.00014553035725839436 0.0027529492508620024
v 0.0004108338034711778 0.00014553025539498776 0.002752949483692646
v -0.00040430648368783295 0.00014553025539498776 0.002752949483692646
v 0.0003880178846884519 0.00017565590678714216 0.002752949483692646
v -0.0003814905940089375 0.00017565590678714216 0.002752949483692646
v -0.00038909586146473885 -0.00016561411030124873 0.002120354911312461
v 0.00039562321035191417 -0.00016561411030124873 0.002120354911312461
v 0.00039562321035191417 0.0001656140375416726 0.002120354911312461
v -0.00038909591967239976 0.0001656140375416726 0.002120354911312461
v -0.0006765974103473127 0.00013614109775517136 0.002392024267464876
v -0.0009408334153704345 9.999996836995706e-05 0.002392024267464876
v -0.0008634404512122273 9.999991016229615e-05 0.0025788673665374517
v -0.0006765974103473127 9.999996109399945e-05 0.002656260272487998
v -0.0004897543112747371 9.999991016229615e-05 0.0025788673665374517
v -0.0004123613762203604 9.999993199016899e-05 0.002392024267464876
v -0.000489754369482398 9.999997564591467e-05 0.0022051811683923006
v -0.0006765974103473127 9.999993199016899e-05 0.0021277882624417543
v -0.0008634405676275492 9.999997564591467e-05 0.0022051811683923006
v -0.0009408334153704345 -0.00010000006295740604 0.002392024267464876
v -0.0008634404512122273 -0.00010000007750932127 0.002578867133706808
v -0.0006765974103473127 -0.00010000003385357559 0.0026562600396573544
v -0.0004897543112747371 -0.00010000007750932127 0.002578867133706808
v -0.0004123613762203604 -0.00010000006295740604 0.002392024267464876
v -0.000489754369482398 -0.00010000001202570274 0.0022051811683923006
v -0.0006765974103473127 -0.00010000006295740604 0.0021277882624417543
v -0.0008634405676275492 -0.00010000001202570274 0.0022051811683923006
v -0.0006765974103473127 -0.00013614122872240841 0.002392024267464876
v 0.0010129358852282166 -0.00043473925325088203 0.0019201162504032254
v 0.0010129358852282166 -0.0004347391950432211 9.191855497192591e-05
v 0.0009942963952198625 -0.0004347391950432211 4.69185397378169e-05
v 0.0009942963952198625 -0.0004347391950432211 4.69185397378169e-05
v 0.0010129358852282166 -0.0003710995661094785 2.8278975150897168e-05
v 0.0009492963436059654 -0.0004347391950432211 2.8278975150897168e-05
v -0.0009492963436059654 -0.0004347391950432211 2.8278975150897168e-05
v -0.0009942963952198625 -0.0004347391950432211 4.69185397378169e-05
v -0.0009942963952198625 -0.0004347391950432211 4.69185397378169e-05
v -0.0010129358852282166 -0.0003710995661094785 2.8278975150897168e-05
v -0.0010129358852282166 -0.0004347391950432211 9.191855497192591e-05
v -0.0010129358852282166 -0.00043473925325088203 0.0019201162504032254
v 0.0010129358852282166 -0.0003710995661094785 2.8278975150897168e-05
v 0.0010129358852282166 0.00037109959521330893 2.8278975150897168e-05
v -0.0010129358852282166 0.00037109959521330893 2.8278975150897168e-05
v 0.0009942963952198625 0.0004347391950432211 4.69185397378169e-05
v -0.0010129358852282166 0.00037109959521330893 2.8278975150897168e-05
v -0.0009942963952198625 0.0004347391950432211 4.69185397378169e-05
v 0.0010129358852282166 0.00043473916593939066 0.0019201162504032254
v 0.0010129358852282166 0.0004347391950432211 9.191855497192591e-05
v 0.0009942963952198625 0.0004347391950432211 4.69185397378169e-05
v 0.0009492963436059654 0.0004347391950432211 2.8278975150897168e-05
v -0.0009492963436059654 0.0004347391950432211 2.8278975150897168e-05
v -0.0009942963952198625 0.0004347391950432211 4.69185397378169e-05
v -0.0010129358852282166 0.0004347391950432211 9.191855497192591e-05
v -0.0010129358852282166 0.00043473916593939066 0.0019201162504032254
v 0.0009492963436059654 -0.00046109961112961173 0.0019201162504032254
v -0.0009492963436059654 -0.00046109961112961173 0.0019201162504032254
v 0.0010129358852282166 -0.00043473925325088203 0.0019201162504032254
v -0.0010129358852282166 -0.00043473925325088203 0.0019201162504032254
v 0.0010392963886260986 -0.00037109959521330893 0.0019201162504032254
v -0.0010392963886260986 -0.00037109959521330893 0.0019201162504032254
v 0.000483485811855644 -0.00017147207108791918 0.0020126125309616327
v 0.0010392963886260986 0.0003710995661094785 0.0019201162504032254
v 0.0010392963886260986 -0.00037109959521330893 0.0019201162504032254
v -0.0010392963886260986 -0.00037109959521330893 0.0019201162504032254
v -0.0004769585211761296 -0.00017147207108791918 0.0020126125309616327
v -0.0010392963886260986 0.0003710995661094785 0.0019201162504032254
v 0.0010129358852282166 0.00043473916593939066 0.0019201162504032254
v -0.0010129358852282166 0.00043473916593939066 0.0019201162504032254
v 0.0009492963436059654 0.0004610995529219508 0.0019201162504032254
v -0.0009492963436059654 0.0004610995529219508 0.0019201162504032254
v 0.0004566027782857418 -0.00020696783030871302 0.0020126125309616327
v -0.0004500754876062274 -0.00020696783030871302 0.0020126125309616327
v 0.000483485811855644 -0.00017147207108791918 0.0020126125309616327
v -0.0004769585211761296 -0.00017147207108791918 0.0020126125309616327
v 0.000483485811855644 -0.00017147207108791918 0.0027529492508620024
v 0.000483485811855644 0.00017147194012068212 0.0020126125309616327
v 0.000483485811855644 -0.00017147207108791918 0.0020126125309616327
v -0.0004769585211761296 -0.00017147207108791918 0.0020126125309616327
v -0.0004769585211761296 -0.00017147207108791918 0.0027529492508620024
v -0.0004769585211761296 0.00017147194012068212 0.0020126125309616327
v 0.000483485811855644 0.00017147194012068212 0.002752949483692646
v 0.0004566027782857418 0.00020696765568573028 0.0020126125309616327
v 0.000483485811855644 0.00017147194012068212 0.0020126125309616327
v -0.0004769585211761296 0.00017147194012068212 0.0020126125309616327
v -0.0004769585211761296 0.00017147194012068212 0.002752949483692646
v -0.0004500754876062274 0.00020696765568573028 0.0020126125309616327
v 0.0004566027782857418 -0.00020696783030871302 0.0027529492508620024
v -0.0004500754876062274 -0.00020696783030871302 0.0027529492508620024
v 0.000483485811855644 -0.00017147207108791918 0.0027529492508620024
v -0.0004769585211761296 -0.00017147207108791918 0.0027529492508620024
v 0.000483485811855644 0.00017147194012068212 0.002752949483692646
v -0.0004769585211761296 0.00017147194012068212 0.002752949483692646
v 0.0004566027782857418 0.00020696765568573028 0.002752949483692646
v -0.0004500754876062274 0.00020696765568573028 0.002752949483692646
v 0.0003880178846884519 -0.00017565602320246398 0.0027529492508620024
v -0.0003814905940089375 -0.00017565602320246398 0.0027529492508620024
v 0.0004108338034711778 -0.00014553035725839436 0.0027529492508620024
v 0.00039562321035191417 -0.00016561411030124873 0.002120354911312461
v -0.00038909586146473885 -0.00016561411030124873 0.002120354911312461
v -0.00040430648368783295 -0.00014553035725839436 0.0027529492508620024
v 0.00039562321035191417 -0.00016561411030124873 0.002120354911312461
v 0.0004108338034711778 0.00014553025539498776 0.002752949483692646
v 0.0004108338034711778 -0.00014553035725839436 0.0027529492508620024
v -0.00040430648368783295 -0.00014553035725839436 0.0027529492508620024
v -0.00038909586146473885 -0.00016561411030124873 0.002120354911312461
v -0.00040430648368783295 0.00014553025539498776 0.002752949483692646
v 0.0003880178846884519 0.00017565590678714216 0.002752949483692646
v 0.00039562321035191417 0.0001656140375416726 0.002120354911312461
v 0.0004108338034711778 0.00014553025539498776 0.002752949483692646
v -0.00040430648368783295 0.00014553025539498776 0.002752949483692646
v -0.00038909591967239976 0.0001656140375416726 0.002120354911312461
v -0.0003814905940089375 0.00017565590678714216 0.002752949483692646
v 0.00039562321035191417 0.0001656140375416726 0.002120354911312461
v -0.00038909591967239976 0.0001656140375416726 0.002120354911312461
v -0.00038909586146473885 -0.00016561411030124873 0.002120354911312461
v 0.00039562321035191417 -0.00016561411030124873 0.002120354911312461
v -0.00038909591967239976 0.0001656140375416726 0.002120354911312461
v 0.00039562321035191417 0.0001656140375416726 0.002120354911312461
v -0.0009408334153704345 9.999996836995706e-05 0.002392024267464876
v -0.0008634404512122273 9.999991016229615e-05 0.0025788673665374517
v -0.0008634404512122273 9.999991016229615e-05 0.0025788673665374517
v -0.0008634404512122273 -0.00010000007750932127 0.002578867133706808
v -0.0006765974103473127 9.999996109399945e-05 0.002656260272487998
v -0.0004897543112747371 9.999991016229615e-05 0.0025788673665374517
v -0.0004897543112747371 9.999991016229615e-05 0.0025788673665374517
v -0.0004123613762203604 9.999993199016899e-05 0.002392024267464876
v -0.000489754369482398 9.999997564591467e-05 0.0022051811683923006
v -0.000489754369482398 9.999997564591467e-05 0.0022051811683923006
v -0.0006765974103473127 9.999993199016899e-05 0.0021277882624417543
v -0.0008634405676275492 9.999997564591467e-05 0.0022051811683923006
v -0.0008634405676275492 9.999997564591467e-05 0.0022051811683923006
v -0.0008634405676275492 -0.00010000001202570274 0.0022051811683923006
v -0.0008634404512122273 -0.00010000007750932127 0.002578867133706808
v -0.0009408334153704345 -0.00010000006295740604 0.002392024267464876
v -0.0006765974103473127 -0.00010000003385357559 0.0026562600396573544
v -0.0004897543112747371 -0.00010000007750932127 0.002578867133706808
v -0.0004123613762203604 -0.00010000006295740604 0.002392024267464876
v -0.000489754369482398 -0.00010000001202570274 0.0022051811683923006
v -0.0006765974103473127 -0.00010000006295740604 0.0021277882624417543
v -0.0008634405676275492 -0.00010000001202570274 0.0022051811683923006
g submesh_0
f 153 155 156
f 158 154 157
f 167 165 166
f 170 168 169
f 10 9 4
f 4 9 3
f 4 3 1
f 1 3 6
f 1 6 5
f 13 87 14
f 14 87 88
f 14 88 15
f 15 88 89
f 34 33 25
f 34 25 26
f 26 25 17
f 26 17 18
f 18 17 93
f 18 93 94
f 36 35 27
f 36 27 28
f 28 27 19
f 28 19 20
f 20 19 97
f 20 97 98
f 31 30 22
f 31 22 23
f 23 22 14
f 23 14 99
f 95 97 19
f 95 19 96
f 96 19 27
f 96 27 101
f 13 14 22
f 13 22 21
f 21 22 30
f 21 30 29
f 90 92 16
f 90 16 91
f 91 16 24
f 91 24 100
f 100 24 32
f 100 32 102
f 104 103 35
f 35 103 27
f 107 108 38
f 38 108 37
f 38 37 39
f 39 37 111
f 39 111 112
f 113 115 42
f 42 115 117
f 42 117 43
f 114 113 41
f 114 41 116
f 116 41 44
f 116 44 118
f 127 128 47
f 127 47 125
f 125 47 45
f 125 45 120
f 120 45 119
f 120 119 121
f 128 126 48
f 48 126 124
f 48 124 46
f 46 124 122
f 46 122 123
f 52 132 130
f 52 130 49
f 49 130 129
f 49 129 50
f 50 129 131
f 50 131 51
f 53 133 134
f 134 133 135
f 137 54 136
f 136 54 138
f 142 143 56
f 142 56 144
f 144 56 55
f 144 55 140
f 140 55 139
f 140 139 141
f 66 65 153
f 153 65 154
f 67 159 160
f 160 159 161
f 163 68 162
f 162 68 164
f 172 171 170
f 170 171 165
f 176 175 174
f 174 175 173
f 189 190 78
f 189 78 177
f 177 78 79
f 177 79 178
f 81 182 181
f 81 181 80
f 80 181 179
f 80 179 180
f 83 185 184
f 83 184 82
f 82 184 183
f 82 183 81
f 85 188 187
f 85 187 84
f 84 187 186
f 84 186 83
f 1 2 4
f 4 2 12
f 4 12 11
f 9 8 3
f 3 8 7
f 3 7 6
f 10 4 11
f 33 32 24
f 33 24 25
f 25 24 16
f 25 16 17
f 17 16 92
f 17 92 93
f 39 40 38
f 38 40 105
f 38 105 106
f 38 106 107
f 108 109 37
f 37 109 110
f 37 110 111
f 42 41 113
f 48 47 128
f 145 57 146
f 146 57 60
f 146 60 148
f 148 60 62
f 148 62 150
f 150 62 64
f 150 64 152
f 152 64 63
f 152 63 151
f 151 63 61
f 151 61 149
f 149 61 59
f 149 59 147
f 147 59 58
f 147 58 145
f 145 58 57
f 76 77 69
f 69 77 70
f 69 70 71
f 71 72 69
f 69 72 73
f 69 73 74
f 74 75 69
f 69 75 76
f 194 193 86
f 86 193 191
f 86 191 192
f 197 196 86
f 86 196 195
f 86 195 194
f 197 86 198
f 198 86 192
