# ballista_base_00
v 0.02241642400622368 0.07159661501646042 1.5497776985284872e-05
v 0.022416431456804276 0.05868325009942055 1.549951048218645e-05
v 0.022416437044739723 0.014319326728582382 1.549951048218645e-05
v 0.02241644077003002 -0.014319315552711487 1.5497776985284872e-05
v 0.02241644822061062 -0.05868324264883995 1.5497776985284872e-05
v 0.022416451945900917 -0.07159660011529922 1.549951048218645e-05
v 0.02241642400622368 0.07159661501646042 0.01304467860609293
v 0.022416431456804276 0.05868325009942055 0.01304467860609293
v 0.022416437044739723 0.014319326728582382 0.01304467860609293
v 0.02241644263267517 -0.014319315552711487 0.01304467860609293
v 0.02241644822061062 -0.05868324264883995 0.013044677674770355
v 0.022416451945900917 -0.07159660011529922 0.01304467860609293
v 0.022416431456804276 0.04295797273516655 0.025157758966088295
v 0.022416438907384872 0.014319326728582382 0.025157758966088295
v 0.02241644263267517 -0.014319315552711487 0.025157760828733444
v 0.02241644822061062 -0.042957957834005356 0.025157758966088295
v 0.02241644077003002 0.014319326728582382 0.031066784635186195
v 0.02241644263267517 -0.014319315552711487 0.031066784635186195
v 0.03001614660024643 0.07159661501646042 1.5497776985284872e-05
v 0.030016152188181877 0.05868325009942055 1.549951048218645e-05
v 0.030016157776117325 0.014319327659904957 1.549951048218645e-05
v 0.030016161501407623 -0.014319314621388912 1.5497776985284872e-05
v 0.03001616895198822 -0.05868324264883995 1.5497776985284872e-05
v 0.03001617081463337 -0.07159660011529922 1.549951048218645e-05
v 0.030016152188181877 0.07159661501646042 0.01304467860609293
v 0.030016154050827026 0.05868325009942055 0.013044677674770355
v 0.030016157776117325 0.014319327659904957 0.01304467860609293
v 0.030016161501407623 -0.014319314621388912 0.01304467860609293
v 0.03001616895198822 -0.05868324264883995 0.01304467860609293
v 0.03001617081463337 -0.07159660011529922 0.01304467860609293
v 0.030016154050827026 0.04295797273516655 0.025157753378152847
v 0.030016161501407623 0.014319327659904957 0.025157758966088295
v 0.030016163364052773 -0.014319314621388912 0.025157758966088295
v 0.03001616895198822 -0.04295795410871506 0.025157758966088295
v 0.030016161501407623 0.014319327659904957 0.031066784635186195
v 0.030016163364052773 -0.014319314621388912 0.031066784635186195
v -0.02241642028093338 0.07159660011529922 1.549430817249231e-05
v -0.02241642400622368 0.05868324264883995 1.549604166939389e-05
v -0.022416425868868828 -0.05868325009942055 1.5497776985284872e-05
v -0.022416437044739723 -0.07159661501646042 1.549951048218645e-05
v -0.02241642028093338 0.07159660011529922 0.013044677674770355
v -0.02241642400622368 0.05868324264883995 0.013044673949480057
v -0.022416425868868828 -0.05868325009942055 0.01304467860609293
v -0.022416431456804276 -0.07159661501646042 0.013044681400060654
v -0.022416407242417336 0.014319310896098614 1.549604166939389e-05
v -0.022416407242417336 -0.014319331385195255 1.549430817249231e-05
v -0.022416407242417336 0.014319311827421188 0.013044677674770355
v -0.022416407242417336 -0.01431933045387268 0.013044677674770355
v -0.02241639606654644 0.042957957834005356 0.025157753378152847
v -0.022416407242417336 0.014319311827421188 0.025157753378152847
v -0.022416407242417336 -0.01431933045387268 0.025157758966088295
v -0.02241642028093338 -0.04295797273516655 0.025157758966088295
v -0.022416407242417336 0.014319311827421188 0.031066784635186195
v -0.022416407242417336 -0.01431933045387268 0.031066784635186195
v -0.030016107484698296 0.07159660011529922 1.5497776985284872e-05
v -0.03001611866056919 0.05868324264883995 1.549951048218645e-05
v -0.030016133561730385 0.014319314621388912 1.5502979294979014e-05
v -0.030016133561730385 -0.014319327659904957 1.550124397908803e-05
v -0.03001614660024643 -0.05868325009942055 1.550124397908803e-05
v -0.030016154050827026 -0.07159661501646042 1.5502979294979014e-05
v -0.030016107484698296 0.07159660011529922 0.013044674880802631
v -0.03001611866056919 0.05868324264883995 0.01304467860609293
v -0.030016126111149788 0.014319313690066338 0.013044677674770355
v -0.030016133561730385 -0.014319328591227531 0.01304467860609293
v -0.030016141012310982 -0.05868325009942055 0.013044681400060654
v -0.030016154050827026 -0.07159661501646042 0.013044681400060654
v -0.030016116797924042 0.042957961559295654 0.025157753378152847
v -0.030016126111149788 0.014319314621388912 0.025157758966088295
v -0.030016133561730385 -0.014319327659904957 0.025157760828733444
v -0.03001614473760128 -0.042957961559295654 0.025157758966088295
v -0.030016126111149788 0.014319314621388912 0.031066784635186195
v -0.030016126111149788 -0.014319327659904957 0.031066784635186195
v 0.022416450083255768 -0.01811840943992138 1.549951048218645e-05
v 0.022416450083255768 -0.018118413165211678 0.02723660320043564
v -0.02241642400622368 -0.018118426203727722 0.02723660320043564
v -0.02241642400622368 -0.018118424341082573 1.549951048218645e-05
v 0.02241644263267517 -0.02918079122900963 0.027236610651016235
v -0.022416438907384872 -0.029180804267525673 0.027236614376306534
v 0.02241644822061062 -0.02918078564107418 1.5504714610869996e-05
v -0.022416438907384872 -0.029180800542235374 1.5504714610869996e-05
v -0.005139313172549009 0.02930927462875843 1.550124397908803e-05
v -0.005139313172549009 0.02930927835404873 0.007308537140488625
v -0.02241642400622368 0.029309265315532684 0.007308539003133774
v -0.02241642400622368 0.029309265315532684 1.550124397908803e-05
v -0.005139321554452181 0.01824689656496048 0.007308543659746647
v -0.02241644077003002 0.018246889114379883 0.007308547385036945
v -0.005139318760484457 0.01824689283967018 1.5506448107771575e-05
v -0.02241644077003002 0.018246887251734734 1.5506448107771575e-05
v 0.02242288552224636 -0.03329765051603317 0.0
v 0.014136802405118942 -0.03329765051603317 0.0
v 0.02242288552224636 -0.02915460430085659 0.0
v 0.014136802405118942 -0.02915460430085659 0.0
v 0.02242288365960121 -0.03329765051603317 0.08184997737407684
v 0.014136801473796368 -0.03329765051603317 0.08184997737407684
v 0.02242288365960121 -0.02915460430085659 0.08184997737407684
v 0.014136802405118942 -0.02915460430085659 0.08184997737407684
v 0.02242288365960121 -0.025011565536260605 0.08184997737407684
v 0.014136802405118942 -0.025011565536260605 0.08184997737407684
v 0.02242288552224636 -0.03329765051603317 0.027195483446121216
v 0.014136801473796368 -0.03329765051603317 0.027195483446121216
v 0.014136802405118942 -0.02915460430085659 0.027195483446121216
v 0.014136802405118942 -0.025011565536260605 0.027195483446121216
v 0.02242288552224636 -0.025011565536260605 0.027195483446121216
v 0.02242288552224636 -0.02915460430085659 0.027195483446121216
v -0.014173701405525208 -0.03329765051603317 0.0
v -0.022459784522652626 -0.03329765051603317 0.0
v -0.014173701405525208 -0.02915460430085659 0.0
v -0.022459784522652626 -0.02915460430085659 0.0
v -0.014173703268170357 -0.03329765051603317 0.08184997737407684
v -0.022459784522652626 -0.03329765051603317 0.08184997737407684
v -0.014173700474202633 -0.02915460430085659 0.08184997737407684
v -0.022459784522652626 -0.02915460430085659 0.08184997737407684
v -0.014173700474202633 -0.025011565536260605 0.08184997737407684
v -0.022459784522652626 -0.025011561810970306 0.08184997737407684
v -0.014173701405525208 -0.03329765051603317 0.027195483446121216
v -0.022459784522652626 -0.03329765051603317 0.027195483446121216
v -0.022459784522652626 -0.02915460430085659 0.027195483446121216
v -0.022459784522652626 -0.025011565536260605 0.027195483446121216
v -0.014173701405525208 -0.025011565536260605 0.027195483446121216
v -0.014173701405525208 -0.02915460430085659 0.027195483446121216
v -0.014269528910517693 -0.033231738954782486 0.07379099726676941
v -0.022290050983428955 -0.033231738954782486 0.07379099726676941
v -0.014269528910517693 -0.0332222543656826 0.059358205646276474
v -0.022290050983428955 -0.0332222543656826 0.059358205646276474
v -0.014269528910517693 -0.07086068391799927 0.013044733554124832
v -0.022290050983428955 -0.07086068391799927 0.013044733554124832
v -0.022290050983428955 -0.06103759631514549 0.013045116327702999
v -0.014269528910517693 -0.06103759631514549 0.013045117259025574
v 0.022308478131890297 -0.033231738954782486 0.07379099726676941
v 0.014241140335798264 -0.033231738954782486 0.07379099726676941
v 0.022308478131890297 -0.0332222543656826 0.059358205646276474
v 0.014241140335798264 -0.0332222543656826 0.059358205646276474
v 0.022308478131890297 -0.07086068391799927 0.013044733554124832
v 0.014241139404475689 -0.07086068391799927 0.013044733554124832
v 0.014241140335798264 -0.06103759631514549 0.013045117259025574
v 0.022308478131890297 -0.06103759631514549 0.013045116327702999
v 0.0183119960129261 -0.044937100261449814 0.059408705681562424
v 0.010025913827121258 -0.044937100261449814 0.059408705681562424
v 0.0183119960129261 -0.044937100261449814 0.06769479811191559
v 0.010025913827121258 -0.044937100261449814 0.06769479811191559
v 0.0183119960129261 -0.02501075714826584 0.059408705681562424
v 0.010025911033153534 -0.02501075714826584 0.059408705681562424
v 0.010025913827121258 -0.02501075714826584 0.06769479811191559
v 0.0183119960129261 -0.02501075714826584 0.06769479811191559
v -0.010781386867165565 -0.044937100261449814 0.059408705681562424
v -0.019067469984292984 -0.044937100261449814 0.059408705681562424
v -0.010781386867165565 -0.044937100261449814 0.06769479811191559
v -0.019067469984292984 -0.044937100261449814 0.06769479811191559
v -0.010781386867165565 -0.02501075714826584 0.059408705681562424
v -0.019067471846938133 -0.02501075714826584 0.059408705681562424
v -0.019067469984292984 -0.02501075714826584 0.06769479811191559
v -0.010781386867165565 -0.02501075714826584 0.06769479811191559
v -0.022069798782467842 -0.025134317576885223 0.07790543138980865
v -0.022069798782467842 -0.025134317576885223 0.054144278168678284
v -0.022069798782467842 -0.018574554473161697 0.07790543138980865
v -0.022069798782467842 -0.018574552610516548 0.054144278168678284
v 0.022069796919822693 -0.025134317576885223 0.07790543138980865
v 0.022069796919822693 -0.025134317576885223 0.05414427071809769
v 0.022069796919822693 -0.018574552610516548 0.05414427071809769
v 0.022069796919822693 -0.018574554473161697 0.07790543138980865
v -0.008156094700098038 -0.018693462014198303 0.07647709548473358
v -0.008156094700098038 -0.018693462014198303 0.055572617799043655
v -0.008156094700098038 -0.016664279624819756 0.07647709548473358
v -0.008156094700098038 -0.016664279624819756 0.05557261407375336
v 0.008156092837452888 -0.018693460151553154 0.07647708803415298
v 0.008156092837452888 -0.018693460151553154 0.05557261407375336
v 0.008156092837452888 -0.016664275899529457 0.05557261407375336
v 0.008156092837452888 -0.016664277762174606 0.07647708803415298
v 0.032749395817518234 -0.009348902851343155 0.008175292983651161
v 0.03234795108437538 -0.008289512246847153 0.007115901913493872
v 0.03125118836760521 -0.007513984106481075 0.006340374238789082
v 0.02975298836827278 -0.007230121176689863 0.0060565113089978695
v 0.029752982780337334 -0.01146768406033516 0.01029407512396574
v 0.03125118836760521 -0.01118382066488266 0.010010212659835815
v 0.03234795108437538 -0.010408294387161732 0.009234685450792313
v 0.035745806992053986 -0.009348902851343155 0.008175292983651161
v 0.03494292125105858 -0.007230121176689863 0.0060565113089978695
v 0.032749395817518234 -0.005679065361618996 0.004505455028265715
v 0.02975298836827278 -0.0051113395020365715 0.003937728703022003
v 0.029752982780337334 -0.013586467131972313 0.012412856332957745
v 0.032749392092227936 -0.013018738478422165 0.011845131404697895
v 0.03494291752576828 -0.011467686854302883 0.01029407698661089
v 0.035745806992053986 -0.006870265584439039 0.01065392978489399
v 0.03494292125105858 -0.0047514839097857475 0.008535146713256836
v 0.032749395817518234 -0.0032004283275455236 0.006984091829508543
v 0.02975298836827278 -0.0026327024679630995 0.006416365969926119
v 0.029752982780337334 -0.011107828468084335 0.014891494065523148
v 0.032749392092227936 -0.010540103539824486 0.014323768205940723
v 0.03494291752576828 -0.008989050053060055 0.012772713787853718
v 0.032749395817518234 -0.006870265584439039 0.01065392978489399
v 0.03234795108437538 -0.00581087451428175 0.009594538249075413
v 0.03125118836760521 -0.005035347305238247 0.00881901104003191
v 0.02975298836827278 -0.0047514839097857475 0.008535146713256836
v 0.029752982780337334 -0.008989046327769756 0.012772712856531143
v 0.03125118836760521 -0.00870518572628498 0.01248884852975607
v 0.03234795108437538 -0.007929656654596329 0.011713322252035141
v -0.032761264592409134 -0.009348902851343155 0.008175292983651161
v -0.03235981985926628 -0.008289512246847153 0.007115901447832584
v -0.03126306086778641 -0.007513984106481075 0.006340374238789082
v -0.029764853417873383 -0.007230120711028576 0.0060565113089978695
v -0.029764853417873383 -0.01146768406033516 0.01029407512396574
v -0.03126306086778641 -0.01118382066488266 0.010010212659835815
v -0.03235981985926628 -0.010408294387161732 0.009234684519469738
v -0.035757679492235184 -0.009348902851343155 0.008175292983651161
v -0.03495479002594948 -0.007230120711028576 0.0060565113089978695
v -0.032761264592409134 -0.005679064895957708 0.004505455028265715
v -0.029764853417873383 -0.005111339036375284 0.003937729634344578
v -0.029764853417873383 -0.013586466200649738 0.012412856332957745
v -0.032761264592409134 -0.013018741272389889 0.011845131404697895
v -0.03495479002594948 -0.011467684991657734 0.01029407698661089
v -0.035757679492235184 -0.006870265584439039 0.01065392978489399
v -0.03495479002594948 -0.0047514839097857475 0.008535148575901985
v -0.032761264592409134 -0.0032004278618842363 0.00698409229516983
v -0.029764853417873383 -0.002632702235132456 0.006416366435587406
v -0.029764853417873383 -0.01110782939940691 0.014891494065523148
v -0.032761264592409134 -0.010540102608501911 0.014323768205940723
v -0.03495479002594948 -0.008989050053060055 0.012772713787853718
v -0.032761264592409134 -0.006870265584439039 0.01065392978489399
v -0.03235981985926628 -0.005810874979943037 0.009594538249075413
v -0.03126306086778641 -0.00503534683957696 0.00881901104003191
v -0.029764853417873383 -0.0047514839097857475 0.008535148575901985
v -0.029764853417873383 -0.008989046327769756 0.012772712856531143
v -0.03126306086778641 -0.008705184794962406 0.01248884852975607
v -0.03235981985926628 -0.007929657585918903 0.011713322252035141
v 0.005034409463405609 0.02930927462875843 1.550124397908803e-05
v 0.005034410394728184 0.02930927835404873 0.007308537140488625
v 0.005034401081502438 0.01824689656496048 0.007308543659746647
v 0.005034404341131449 0.01824689283967018 1.5506448107771575e-05
v 0.022545231506228447 0.02930927462875843 1.550124397908803e-05
v 0.022545231506228447 0.02930927835404873 0.007308537140488625
v 0.0225452221930027 0.01824689656496048 0.007308543659746647
v 0.02254522778093815 0.01824689283967018 1.5506448107771575e-05
v -0.00720616802573204 0.029309282079339027 0.014219041913747787
v -0.02241642400622368 0.029309267178177834 0.014219042845070362
v -0.007206180598586798 0.018246900290250778 0.01421904843300581
v -0.02241644077003002 0.01824689283967018 0.014219052158296108
v 0.007101268973201513 0.029309282079339027 0.014219041913747787
v 0.007101257331669331 0.018246900290250778 0.01421904843300581
v 0.022545231506228447 0.029309282079339027 0.014219041913747787
v 0.0225452221930027 0.018246900290250778 0.01421904843300581
v -0.029820572584867477 -0.06406471878290176 0.0030235692393034697
v -0.029820572584867477 -0.06604356318712234 0.0030235692393034697
v -0.029820572584867477 -0.06360070407390594 0.0035101668909192085
v -0.029820572584867477 -0.06650758534669876 0.0035101675894111395
v -0.029820572584867477 -0.06360070407390594 0.009252717718482018
v -0.029820572584867477 -0.06650758534669876 0.009252717718482018
v -0.029820572584867477 -0.06406471878290176 0.009739315137267113
v -0.029820572584867477 -0.06604356318712234 0.009739315137267113
v -0.030964946374297142 -0.06406471878290176 0.0030235692393034697
v -0.030964946374297142 -0.06604356318712234 0.0030235692393034697
v -0.03072706237435341 -0.06360070407390594 0.0035101664252579212
v -0.03072706237435341 -0.06650758534669876 0.0035101668909192085
v -0.03072706237435341 -0.06360070407390594 0.009252715855836868
v -0.030964946374297142 -0.06406471878290176 0.009739315137267113
v -0.03096494823694229 -0.06604356318712234 0.009739315137267113
v -0.03072706237435341 -0.06650758534669876 0.009252715855836868
v -0.029820570722222328 -0.022928977385163307 0.0012894863029941916
v -0.029820570722222328 -0.024907827377319336 0.0012894863029941916
v -0.029820570722222328 -0.022464964538812637 0.0017760837217792869
v -0.029820570722222328 -0.025371843948960304 0.0017760839546099305
v -0.029820570722222328 -0.022464964538812637 0.012711409479379654
v -0.029820570722222328 -0.025371843948960304 0.012711409479379654
v -0.029820570722222328 -0.022928977385163307 0.013198007829487324
v -0.029820570722222328 -0.024907827377319336 0.013198007829487324
v -0.030964940786361694 -0.022928977385163307 0.0012894863029941916
v -0.030964940786361694 -0.024907827377319336 0.0012894863029941916
v -0.03072705678641796 -0.022464964538812637 0.0017760832561179996
v -0.03072705678641796 -0.025371843948960304 0.0017760837217792869
v -0.03072705678641796 -0.022464964538812637 0.012711409479379654
v -0.030964940786361694 -0.022928977385163307 0.013198007829487324
v -0.030964946374297142 -0.024907827377319336 0.013198007829487324
v -0.03072705678641796 -0.025371843948960304 0.012711409479379654
v -0.02982056513428688 0.024698829278349876 0.001289483974687755
v -0.02982056513428688 0.022719983011484146 0.001289483974687755
v -0.02982056513428688 0.025162845849990845 0.001776082324795425
v -0.02982056513428688 0.022255966439843178 0.001776082324795425
v -0.02982056513428688 0.025162845849990845 0.012711407616734505
v -0.02982056513428688 0.022255966439843178 0.012711407616734505
v -0.02982056513428688 0.024698829278349876 0.013198005966842175
v -0.02982056513428688 0.022719983011484146 0.013198005966842175
v -0.030964938923716545 0.024698829278349876 0.001289483974687755
v -0.030964938923716545 0.022719983011484146 0.001289483974687755
v -0.030727054923772812 0.025162845849990845 0.0017760813934728503
v -0.030727054923772812 0.022255966439843178 0.0017760813934728503
v -0.030727054923772812 0.025162845849990845 0.012711407616734505
v -0.030964938923716545 0.024698829278349876 0.013198005966842175
v -0.030964940786361694 0.022719983011484146 0.013198005966842175
v -0.030727054923772812 0.022255966439843178 0.012711407616734505
v -0.02982056513428688 0.06602288782596588 0.0030235631857067347
v -0.02982056513428688 0.0640440285205841 0.003023563651368022
v -0.02982056513428688 0.0664869025349617 0.003510161302983761
v -0.02982056513428688 0.06358002871274948 0.0035101615358144045
v -0.02982056513428688 0.0664869025349617 0.009252711199223995
v -0.02982056513428688 0.06358002871274948 0.009252711199223995
v -0.02982056513428688 0.06602288782596588 0.009739309549331665
v -0.02982056513428688 0.0640440285205841 0.009739309549331665
v -0.030964938923716545 0.06602288782596588 0.0030235631857067347
v -0.030964938923716545 0.0640440285205841 0.003023563651368022
v -0.030727054923772812 0.0664869025349617 0.00351016060449183
v -0.030727054923772812 0.06358002871274948 0.003510161070153117
v -0.030727054923772812 0.0664869025349617 0.00925271026790142
v -0.030964938923716545 0.06602288782596588 0.009739309549331665
v -0.030964940786361694 0.0640440285205841 0.009739309549331665
v -0.030727054923772812 0.06358002871274948 0.00925271026790142
v 0.029932305216789246 -0.06406471878290176 0.0030235692393034697
v 0.029932305216789246 -0.06604356318712234 0.0030235692393034697
v 0.029932305216789246 -0.06360070407390594 0.003510167123749852
v 0.029932305216789246 -0.06650758534669876 0.003510167123749852
v 0.029932305216789246 -0.06360070407390594 0.009252717718482018
v 0.029932305216789246 -0.06650758534669876 0.009252717718482018
v 0.029932305216789246 -0.06406471878290176 0.009739315137267113
v 0.029932305216789246 -0.06604356318712234 0.009739315137267113
v 0.031076675280928612 -0.06406471878290176 0.0030235692393034697
v 0.031076675280928612 -0.06604356318712234 0.0030235692393034697
v 0.03083879128098488 -0.06360070407390594 0.003510166658088565
v 0.03083879128098488 -0.06650758534669876 0.003510166658088565
v 0.03083879128098488 -0.06360070407390594 0.009252715855836868
v 0.031076675280928612 -0.06406471878290176 0.009739315137267113
v 0.03107668086886406 -0.06604356318712234 0.009739315137267113
v 0.03083879128098488 -0.06650758534669876 0.009252715855836868
v 0.029932299628853798 -0.022928977385163307 0.0012894896790385246
v 0.029932299628853798 -0.024907827377319336 0.0012894896790385246
v 0.029932299628853798 -0.022464964538812637 0.0017760875634849072
v 0.029932299628853798 -0.025371843948960304 0.0017760875634849072
v 0.029932299628853798 -0.022464964538812637 0.012711412273347378
v 0.029932299628853798 -0.025371843948960304 0.012711412273347378
v 0.029932299628853798 -0.022928977385163307 0.013198010623455048
v 0.029932299628853798 -0.024907827377319336 0.013198010623455048
v 0.031076673418283463 -0.022928977385163307 0.0012894896790385246
v 0.031076673418283463 -0.024907827377319336 0.0012894896790385246
v 0.03083878941833973 -0.022464964538812637 0.0017760870978236198
v 0.03083878941833973 -0.025371843948960304 0.0017760870978236198
v 0.03083878941833973 -0.022464964538812637 0.012711412273347378
v 0.031076673418283463 -0.022928977385163307 0.013198010623455048
v 0.031076675280928612 -0.024907827377319336 0.013198010623455048
v 0.03083878941833973 -0.025371843948960304 0.012711412273347378
v 0.02993229776620865 0.024698829278349876 0.0012894917745143175
v 0.02993229776620865 0.022719983011484146 0.0012894917745143175
v 0.02993229776620865 0.025162845849990845 0.0017760901246219873
v 0.02993229776620865 0.022255966439843178 0.0017760901246219873
v 0.02993229776620865 0.025162845849990845 0.012711415067315102
v 0.02993229776620865 0.022255966439843178 0.012711415067315102
v 0.02993229776620865 0.024698829278349876 0.013198013417422771
v 0.02993229776620865 0.022719983011484146 0.013198013417422771
v 0.031076669692993164 0.024698829278349876 0.0012894917745143175
v 0.031076669692993164 0.022719983011484146 0.0012894917745143175
v 0.03083878383040428 0.025162845849990845 0.0017760891932994127
v 0.03083878383040428 0.022255966439843178 0.0017760891932994127
v 0.03083878383040428 0.025162845849990845 0.012711415067315102
v 0.031076669692993164 0.024698829278349876 0.013198013417422771
v 0.031076673418283463 0.022719983011484146 0.013198013417422771
v 0.03083878383040428 0.022255966439843178 0.012711415067315102
v 0.02993229776620865 0.06602288782596588 0.0030235748272389174
v 0.02993229776620865 0.0640440285205841 0.0030235748272389174
v 0.02993229776620865 0.0664869025349617 0.0035101729445159435
v 0.02993229776620865 0.06358002871274948 0.0035101729445159435
v 0.02993229776620865 0.0664869025349617 0.00925272237509489
v 0.02993229776620865 0.06358002871274948 0.00925272237509489
v 0.02993229776620865 0.06602288782596588 0.00973932072520256
v 0.02993229776620865 0.0640440285205841 0.00973932072520256
v 0.031076669692993164 0.06602288782596588 0.0030235748272389174
v 0.031076669692993164 0.0640440285205841 0.0030235748272389174
v 0.03083878383040428 0.0664869025349617 0.0035101722460240126
v 0.03083878383040428 0.06358002871274948 0.0035101722460240126
v 0.03083878383040428 0.0664869025349617 0.00925272237509489
v 0.031076669692993164 0.06602288782596588 0.00973932072520256
v 0.031076673418283463 0.0640440285205841 0.00973932072520256
v 0.03083878383040428 0.06358002871274948 0.00925272237509489
v -0.01595209166407585 -0.01784404180943966 0.06347698718309402
v -0.015488073229789734 -0.017606157809495926 0.06299040466547012
v -0.015488073229789734 -0.017606157809495926 0.06970613449811935
v -0.01595209166407585 -0.01784404180943966 0.06921955198049545
v -0.013509227894246578 -0.017606157809495926 0.06299040466547012
v -0.013509227894246578 -0.017606154084205627 0.06970613449811935
v -0.013045210391283035 -0.01784404180943966 0.06347698718309402
v -0.013045210391283035 -0.01784404180943966 0.06921955198049545
v -0.015488073229789734 -0.01875052973628044 0.06299040466547012
v -0.013509227894246578 -0.01875052973628044 0.06299040466547012
v -0.013045210391283035 -0.01875052973628044 0.06347698718309402
v -0.013045210391283035 -0.01875052973628044 0.06921955198049545
v -0.013509227894246578 -0.01875052973628044 0.06970613449811935
v -0.015488073229789734 -0.01875052973628044 0.06970613449811935
v -0.01595209166407585 -0.01875052973628044 0.06921955198049545
v -0.01595209166407585 -0.01875052973628044 0.06347698718309402
v 0.01234055869281292 -0.01784404180943966 0.06347698718309402
v 0.012804576195776463 -0.017606157809495926 0.06299040466547012
v 0.012804576195776463 -0.017606157809495926 0.06970613449811935
v 0.01234055869281292 -0.01784404180943966 0.06921955198049545
v 0.014783421531319618 -0.017606157809495926 0.06299040466547012
v 0.014783421531319618 -0.017606154084205627 0.06970613449811935
v 0.015247439965605736 -0.01784404180943966 0.06347698718309402
v 0.015247439965605736 -0.01784404180943966 0.06921955198049545
v 0.012804576195776463 -0.01875052973628044 0.06299040466547012
v 0.014783421531319618 -0.01875052973628044 0.06299040466547012
v 0.015247439965605736 -0.01875052973628044 0.06347698718309402
v 0.015247439965605736 -0.01875052973628044 0.06921955198049545
v 0.014783421531319618 -0.01875052973628044 0.06970613449811935
v 0.012804576195776463 -0.01875052973628044 0.06970613449811935
v 0.01234055869281292 -0.01875052973628044 0.06921955198049545
v 0.01234055869281292 -0.01875052973628044 0.06347698718309402
v -0.022612323984503746 -0.009512587450444698 0.010085933841764927
v -0.022612323984503746 -0.007616235874593258 0.011453641578555107
v -0.022612323984503746 -0.0057294643484056 0.01007275003939867
v -0.022612323984503746 -0.006459726952016354 0.00785160344094038
v -0.022612323984503746 -0.008797826245427132 0.007859751582145691
v 0.022612323984503746 -0.009512579999864101 0.010085932910442352
v 0.022612323984503746 -0.007616229355335236 0.011453640647232533
v 0.022612323984503746 -0.005729457829147577 0.010072747245430946
v 0.022612323984503746 -0.006459720432758331 0.00785160157829523
v 0.022612323984503746 -0.00879781972616911 0.007859750650823116
v 0.03001617081463337 -0.07159660011529922 0.01304467860609293
v 0.022416451945900917 -0.07159660011529922 0.01304467860609293
v 0.03001617081463337 -0.07159660011529922 1.549951048218645e-05
v 0.022416451945900917 -0.07159660011529922 0.01304467860609293
v 0.03001616895198822 -0.04295795410871506 0.025157758966088295
v 0.02241644822061062 -0.042957957834005356 0.025157758966088295
v 0.03001617081463337 -0.07159660011529922 0.01304467860609293
v 0.030016163364052773 -0.014319314621388912 0.031066784635186195
v 0.02241644263267517 -0.014319315552711487 0.031066784635186195
v 0.030016161501407623 0.014319327659904957 0.031066784635186195
v 0.02241644077003002 0.014319326728582382 0.031066784635186195
v 0.030016154050827026 0.04295797273516655 0.025157753378152847
v 0.022416431456804276 0.04295797273516655 0.025157758966088295
v 0.030016152188181877 0.07159661501646042 0.01304467860609293
v 0.02241642400622368 0.07159661501646042 0.01304467860609293
v 0.02241642400622368 0.07159661501646042 0.01304467860609293
v 0.03001614660024643 0.07159661501646042 1.5497776985284872e-05
v 0.030016152188181877 0.07159661501646042 0.01304467860609293
v 0.02241642400622368 0.07159661501646042 1.5497776985284872e-05
v 0.02241642400622368 0.07159661501646042 0.01304467860609293
v 0.02241642400622368 0.07159661501646042 0.01304467860609293
v 0.022416431456804276 0.05868325009942055 0.01304467860609293
v -0.02241642028093338 0.07159660011529922 0.013044677674770355
v 0.022416431456804276 0.05868325009942055 0.01304467860609293
v 0.022416431456804276 0.05868325009942055 1.549951048218645e-05
v -0.02241642400622368 0.05868324264883995 0.013044673949480057
v 0.02241644822061062 -0.05868324264883995 1.5497776985284872e-05
v 0.02241644822061062 -0.05868324264883995 0.013044677674770355
v 0.02241644822061062 -0.05868324264883995 0.013044677674770355
v 0.022416451945900917 -0.07159660011529922 0.01304467860609293
v -0.022416425868868828 -0.05868325009942055 0.01304467860609293
v 0.022416451945900917 -0.07159660011529922 0.01304467860609293
v 0.022416451945900917 -0.07159660011529922 1.549951048218645e-05
v -0.022416431456804276 -0.07159661501646042 0.013044681400060654
v -0.02241642400622368 0.05868324264883995 0.013044673949480057
v -0.02241642400622368 0.05868324264883995 1.549604166939389e-05
v -0.022416425868868828 -0.05868325009942055 0.01304467860609293
v -0.022416425868868828 -0.05868325009942055 1.5497776985284872e-05
v -0.02241642028093338 0.07159660011529922 0.013044677674770355
v -0.022416431456804276 -0.07159661501646042 0.013044681400060654
v -0.022416431456804276 -0.07159661501646042 0.013044681400060654
v -0.030016154050827026 -0.07159661501646042 0.013044681400060654
v -0.022416437044739723 -0.07159661501646042 1.549951048218645e-05
v -0.030016154050827026 -0.07159661501646042 1.5502979294979014e-05
v -0.02241642028093338 -0.04295797273516655 0.025157758966088295
v -0.03001614473760128 -0.042957961559295654 0.025157758966088295
v -0.022416431456804276 -0.07159661501646042 0.013044681400060654
v -0.030016154050827026 -0.07159661501646042 0.013044681400060654
v -0.022416407242417336 -0.01431933045387268 0.031066784635186195
v -0.030016126111149788 -0.014319327659904957 0.031066784635186195
v -0.022416407242417336 0.014319311827421188 0.031066784635186195
v -0.030016126111149788 0.014319314621388912 0.031066784635186195
v -0.02241639606654644 0.042957957834005356 0.025157753378152847
v -0.030016116797924042 0.042957961559295654 0.025157753378152847
v -0.02241642028093338 0.07159660011529922 0.013044677674770355
v -0.030016107484698296 0.07159660011529922 0.013044674880802631
v -0.02241642028093338 0.07159660011529922 1.549430817249231e-05
v -0.030016107484698296 0.07159660011529922 1.5497776985284872e-05
v -0.02241642028093338 0.07159660011529922 0.013044677674770355
v -0.030016107484698296 0.07159660011529922 0.013044674880802631
v 0.022416450083255768 -0.018118413165211678 0.02723660320043564
v -0.02241642400622368 -0.018118426203727722 0.02723660320043564
v 0.02241644263267517 -0.02918079122900963 0.027236610651016235
v -0.022416438907384872 -0.029180804267525673 0.027236614376306534
v 0.014136801473796368 -0.03329765051603317 0.08184997737407684
v 0.02242288365960121 -0.03329765051603317 0.08184997737407684
v 0.014136802405118942 -0.03329765051603317 0.0
v 0.014136801473796368 -0.03329765051603317 0.027195483446121216
v 0.014136802405118942 -0.02915460430085659 0.08184997737407684
v 0.014136801473796368 -0.03329765051603317 0.08184997737407684
v 0.014136802405118942 -0.02915460430085659 0.027195483446121216
v 0.014136802405118942 -0.025011565536260605 0.08184997737407684
v 0.014136802405118942 -0.02915460430085659 0.08184997737407684
v 0.014136802405118942 -0.025011565536260605 0.027195483446121216
v 0.02242288365960121 -0.025011565536260605 0.08184997737407684
v 0.014136802405118942 -0.025011565536260605 0.08184997737407684
v 0.02242288552224636 -0.03329765051603317 0.027195483446121216
v 0.02242288552224636 -0.03329765051603317 0.0
v 0.02242288552224636 -0.025011565536260605 0.027195483446121216
v 0.02242288365960121 -0.02915460430085659 0.08184997737407684
v 0.02242288552224636 -0.02915460430085659 0.027195483446121216
v 0.02242288365960121 -0.025011565536260605 0.08184997737407684
v 0.02242288365960121 -0.03329765051603317 0.08184997737407684
v 0.02242288365960121 -0.02915460430085659 0.08184997737407684
v -0.022459784522652626 -0.03329765051603317 0.08184997737407684
v -0.014173703268170357 -0.03329765051603317 0.08184997737407684
v -0.022459784522652626 -0.03329765051603317 0.0
v -0.022459784522652626 -0.03329765051603317 0.027195483446121216
v -0.022459784522652626 -0.02915460430085659 0.08184997737407684
v -0.022459784522652626 -0.03329765051603317 0.08184997737407684
v -0.022459784522652626 -0.02915460430085659 0.027195483446121216
v -0.022459784522652626 -0.025011561810970306 0.08184997737407684
v -0.022459784522652626 -0.02915460430085659 0.08184997737407684
v -0.022459784522652626 -0.025011565536260605 0.027195483446121216
v -0.014173700474202633 -0.025011565536260605 0.08184997737407684
v -0.022459784522652626 -0.025011561810970306 0.08184997737407684
v -0.014173701405525208 -0.03329765051603317 0.027195483446121216
v -0.014173701405525208 -0.03329765051603317 0.0
v -0.014173701405525208 -0.025011565536260605 0.027195483446121216
v -0.014173700474202633 -0.02915460430085659 0.08184997737407684
v -0.014173701405525208 -0.02915460430085659 0.027195483446121216
v -0.014173700474202633 -0.025011565536260605 0.08184997737407684
v -0.014173703268170357 -0.03329765051603317 0.08184997737407684
v -0.014173700474202633 -0.02915460430085659 0.08184997737407684
v -0.022290050983428955 -0.07086068391799927 0.013044733554124832
v -0.022290050983428955 -0.0332222543656826 0.059358205646276474
v -0.022290050983428955 -0.07086068391799927 0.013044733554124832
v -0.022290050983428955 -0.033231738954782486 0.07379099726676941
v -0.022290050983428955 -0.06103759631514549 0.013045116327702999
v -0.022290050983428955 -0.0332222543656826 0.059358205646276474
v -0.014269528910517693 -0.06103759631514549 0.013045117259025574
v -0.014269528910517693 -0.033231738954782486 0.07379099726676941
v -0.014269528910517693 -0.07086068391799927 0.013044733554124832
v -0.014269528910517693 -0.033231738954782486 0.07379099726676941
v -0.014269528910517693 -0.06103759631514549 0.013045117259025574
v -0.014269528910517693 -0.0332222543656826 0.059358205646276474
v 0.014241139404475689 -0.07086068391799927 0.013044733554124832
v 0.014241140335798264 -0.0332222543656826 0.059358205646276474
v 0.014241139404475689 -0.07086068391799927 0.013044733554124832
v 0.014241140335798264 -0.033231738954782486 0.07379099726676941
v 0.014241140335798264 -0.06103759631514549 0.013045117259025574
v 0.014241140335798264 -0.0332222543656826 0.059358205646276474
v 0.022308478131890297 -0.06103759631514549 0.013045116327702999
v 0.022308478131890297 -0.033231738954782486 0.07379099726676941
v 0.022308478131890297 -0.07086068391799927 0.013044733554124832
v 0.022308478131890297 -0.033231738954782486 0.07379099726676941
v 0.022308478131890297 -0.06103759631514549 0.013045116327702999
v 0.022308478131890297 -0.0332222543656826 0.059358205646276474
v 0.010025913827121258 -0.044937100261449814 0.059408705681562424
v 0.0183119960129261 -0.044937100261449814 0.059408705681562424
v 0.010025911033153534 -0.02501075714826584 0.059408705681562424
v 0.010025913827121258 -0.044937100261449814 0.06769479811191559
v 0.010025913827121258 -0.044937100261449814 0.059408705681562424
v 0.010025913827121258 -0.02501075714826584 0.06769479811191559
v 0.0183119960129261 -0.044937100261449814 0.06769479811191559
v 0.010025913827121258 -0.044937100261449814 0.06769479811191559
v 0.0183119960129261 -0.02501075714826584 0.06769479811191559
v 0.0183119960129261 -0.044937100261449814 0.059408705681562424
v 0.0183119960129261 -0.02501075714826584 0.059408705681562424
v 0.0183119960129261 -0.044937100261449814 0.06769479811191559
v -0.019067469984292984 -0.044937100261449814 0.059408705681562424
v -0.010781386867165565 -0.044937100261449814 0.059408705681562424
v -0.019067471846938133 -0.02501075714826584 0.059408705681562424
v -0.019067469984292984 -0.044937100261449814 0.06769479811191559
v -0.019067469984292984 -0.044937100261449814 0.059408705681562424
v -0.019067469984292984 -0.02501075714826584 0.06769479811191559
v -0.010781386867165565 -0.044937100261449814 0.06769479811191559
v -0.019067469984292984 -0.044937100261449814 0.06769479811191559
v -0.010781386867165565 -0.02501075714826584 0.06769479811191559
v -0.010781386867165565 -0.044937100261449814 0.059408705681562424
v -0.010781386867165565 -0.02501075714826584 0.059408705681562424
v -0.010781386867165565 -0.044937100261449814 0.06769479811191559
v -0.022069798782467842 -0.025134317576885223 0.054144278168678284
v -0.022069798782467842 -0.025134317576885223 0.07790543138980865
v 0.022069796919822693 -0.025134317576885223 0.05414427071809769
v -0.022069798782467842 -0.018574552610516548 0.054144278168678284
v -0.022069798782467842 -0.025134317576885223 0.054144278168678284
v 0.022069796919822693 -0.018574552610516548 0.05414427071809769
v -0.022069798782467842 -0.018574554473161697 0.07790543138980865
v -0.022069798782467842 -0.018574552610516548 0.054144278168678284
v 0.022069796919822693 -0.018574554473161697 0.07790543138980865
v -0.022069798782467842 -0.025134317576885223 0.07790543138980865
v 0.022069796919822693 -0.025134317576885223 0.07790543138980865
v -0.022069798782467842 -0.018574554473161697 0.07790543138980865
v 0.022069796919822693 -0.018574552610516548 0.05414427071809769
v 0.022069796919822693 -0.025134317576885223 0.07790543138980865
v 0.022069796919822693 -0.025134317576885223 0.05414427071809769
v 0.022069796919822693 -0.018574554473161697 0.07790543138980865
v -0.008156094700098038 -0.016664279624819756 0.05557261407375336
v -0.008156094700098038 -0.018693462014198303 0.055572617799043655
v 0.008156092837452888 -0.016664275899529457 0.05557261407375336
v -0.008156094700098038 -0.016664279624819756 0.07647709548473358
v -0.008156094700098038 -0.016664279624819756 0.05557261407375336
v 0.008156092837452888 -0.016664277762174606 0.07647708803415298
v -0.008156094700098038 -0.018693462014198303 0.07647709548473358
v -0.008156094700098038 -0.016664279624819756 0.07647709548473358
v 0.008156092837452888 -0.016664275899529457 0.05557261407375336
v 0.008156092837452888 -0.018693460151553154 0.07647708803415298
v 0.008156092837452888 -0.018693460151553154 0.05557261407375336
v 0.008156092837452888 -0.016664275899529457 0.05557261407375336
v 0.008156092837452888 -0.016664277762174606 0.07647708803415298
v 0.008156092837452888 -0.018693460151553154 0.07647708803415298
v 0.035745806992053986 -0.009348902851343155 0.008175292983651161
v 0.03494292125105858 -0.007230121176689863 0.0060565113089978695
v 0.032749395817518234 -0.005679065361618996 0.004505455028265715
v 0.02975298836827278 -0.0051113395020365715 0.003937728703022003
v 0.029752982780337334 -0.013586467131972313 0.012412856332957745
v 0.032749392092227936 -0.013018738478422165 0.011845131404697895
v 0.032749392092227936 -0.010540103539824486 0.014323768205940723
v 0.032749392092227936 -0.013018738478422165 0.011845131404697895
v 0.03494291752576828 -0.011467686854302883 0.01029407698661089
v 0.035745806992053986 -0.006870265584439039 0.01065392978489399
v 0.03494292125105858 -0.0047514839097857475 0.008535146713256836
v 0.032749395817518234 -0.0032004283275455236 0.006984091829508543
v 0.02975298836827278 -0.0026327024679630995 0.006416365969926119
v 0.029752982780337334 -0.011107828468084335 0.014891494065523148
v 0.032749392092227936 -0.010540103539824486 0.014323768205940723
v 0.03494291752576828 -0.008989050053060055 0.012772713787853718
v 0.03125118836760521 -0.007513984106481075 0.006340374238789082
v 0.03125118836760521 -0.005035347305238247 0.00881901104003191
v 0.02975298836827278 -0.007230121176689863 0.0060565113089978695
v 0.02975298836827278 -0.0047514839097857475 0.008535146713256836
v 0.03234795108437538 -0.008289512246847153 0.007115901913493872
v 0.03234795108437538 -0.00581087451428175 0.009594538249075413
v 0.032749395817518234 -0.009348902851343155 0.008175292983651161
v 0.032749395817518234 -0.006870265584439039 0.01065392978489399
v 0.03234795108437538 -0.010408294387161732 0.009234685450792313
v 0.03234795108437538 -0.007929656654596329 0.011713322252035141
v 0.03125118836760521 -0.01118382066488266 0.010010212659835815
v 0.03125118836760521 -0.00870518572628498 0.01248884852975607
v 0.03234795108437538 -0.010408294387161732 0.009234685450792313
v 0.03234795108437538 -0.007929656654596329 0.011713322252035141
v 0.029752982780337334 -0.01146768406033516 0.01029407512396574
v 0.029752982780337334 -0.008989046327769756 0.012772712856531143
v 0.03125118836760521 -0.01118382066488266 0.010010212659835815
v 0.03125118836760521 -0.00870518572628498 0.01248884852975607
v -0.035757679492235184 -0.009348902851343155 0.008175292983651161
v -0.03495479002594948 -0.007230120711028576 0.0060565113089978695
v -0.032761264592409134 -0.005679064895957708 0.004505455028265715
v -0.029764853417873383 -0.005111339036375284 0.003937729634344578
v -0.029764853417873383 -0.013586466200649738 0.012412856332957745
v -0.032761264592409134 -0.013018741272389889 0.011845131404697895
v -0.032761264592409134 -0.013018741272389889 0.011845131404697895
v -0.032761264592409134 -0.010540102608501911 0.014323768205940723
v -0.03495479002594948 -0.011467684991657734 0.01029407698661089
v -0.035757679492235184 -0.006870265584439039 0.01065392978489399
v -0.03495479002594948 -0.0047514839097857475 0.008535148575901985
v -0.032761264592409134 -0.0032004278618842363 0.00698409229516983
v -0.029764853417873383 -0.002632702235132456 0.006416366435587406
v -0.029764853417873383 -0.01110782939940691 0.014891494065523148
v -0.032761264592409134 -0.010540102608501911 0.014323768205940723
v -0.03495479002594948 -0.008989050053060055 0.012772713787853718
v -0.029764853417873383 -0.007230120711028576 0.0060565113089978695
v -0.03126306086778641 -0.00503534683957696 0.00881901104003191
v -0.03126306086778641 -0.007513984106481075 0.006340374238789082
v -0.029764853417873383 -0.0047514839097857475 0.008535148575901985
v -0.03235981985926628 -0.005810874979943037 0.009594538249075413
v -0.03235981985926628 -0.008289512246847153 0.007115901447832584
v -0.032761264592409134 -0.006870265584439039 0.01065392978489399
v -0.032761264592409134 -0.009348902851343155 0.008175292983651161
v -0.03235981985926628 -0.007929657585918903 0.011713322252035141
v -0.03235981985926628 -0.010408294387161732 0.009234684519469738
v -0.03235981985926628 -0.010408294387161732 0.009234684519469738
v -0.03126306086778641 -0.008705184794962406 0.01248884852975607
v -0.03126306086778641 -0.01118382066488266 0.010010212659835815
v -0.03235981985926628 -0.007929657585918903 0.011713322252035141
v -0.03126306086778641 -0.01118382066488266 0.010010212659835815
v -0.029764853417873383 -0.008989046327769756 0.012772712856531143
v -0.029764853417873383 -0.01146768406033516 0.01029407512396574
v -0.03126306086778641 -0.008705184794962406 0.01248884852975607
v -0.005139313172549009 0.02930927835404873 0.007308537140488625
v -0.005139313172549009 0.02930927462875843 1.550124397908803e-05
v -0.005139318760484457 0.01824689283967018 1.5506448107771575e-05
v -0.005139321554452181 0.01824689656496048 0.007308543659746647
v 0.005034410394728184 0.02930927835404873 0.007308537140488625
v 0.005034409463405609 0.02930927462875843 1.550124397908803e-05
v 0.005034404341131449 0.01824689283967018 1.5506448107771575e-05
v 0.005034401081502438 0.01824689656496048 0.007308543659746647
v -0.00720616802573204 0.029309282079339027 0.014219041913747787
v -0.02241642400622368 0.029309267178177834 0.014219042845070362
v -0.02241644077003002 0.01824689283967018 0.014219052158296108
v -0.007206180598586798 0.018246900290250778 0.01421904843300581
v 0.022545231506228447 0.029309282079339027 0.014219041913747787
v 0.007101268973201513 0.029309282079339027 0.014219041913747787
v 0.007101257331669331 0.018246900290250778 0.01421904843300581
v 0.0225452221930027 0.018246900290250778 0.01421904843300581
v -0.005139313172549009 0.02930927835404873 0.007308537140488625
v -0.007206180598586798 0.018246900290250778 0.01421904843300581
v -0.005139321554452181 0.01824689656496048 0.007308543659746647
v -0.00720616802573204 0.029309282079339027 0.014219041913747787
v -0.005139313172549009 0.02930927835404873 0.007308537140488625
v 0.005034401081502438 0.01824689656496048 0.007308543659746647
v 0.005034410394728184 0.02930927835404873 0.007308537140488625
v -0.005139321554452181 0.01824689656496048 0.007308543659746647
v 0.005034410394728184 0.02930927835404873 0.007308537140488625
v 0.007101257331669331 0.018246900290250778 0.01421904843300581
v 0.007101268973201513 0.029309282079339027 0.014219041913747787
v 0.005034401081502438 0.01824689656496048 0.007308543659746647
v -0.030964946374297142 -0.06604356318712234 0.0030235692393034697
v -0.030964946374297142 -0.06406471878290176 0.0030235692393034697
v -0.03072706237435341 -0.06650758534669876 0.0035101668909192085
v -0.029820572584867477 -0.06604356318712234 0.0030235692393034697
v -0.030964946374297142 -0.06604356318712234 0.0030235692393034697
v -0.03072706237435341 -0.06650758534669876 0.009252715855836868
v -0.029820572584867477 -0.06650758534669876 0.0035101675894111395
v -0.03072706237435341 -0.06650758534669876 0.0035101668909192085
v -0.03096494823694229 -0.06604356318712234 0.009739315137267113
v -0.030964946374297142 -0.06406471878290176 0.009739315137267113
v -0.029820572584867477 -0.06604356318712234 0.009739315137267113
v -0.03096494823694229 -0.06604356318712234 0.009739315137267113
v -0.03072706237435341 -0.06360070407390594 0.009252715855836868
v -0.029820572584867477 -0.06406471878290176 0.009739315137267113
v -0.030964946374297142 -0.06406471878290176 0.009739315137267113
v -0.03072706237435341 -0.06360070407390594 0.0035101664252579212
v -0.029820572584867477 -0.06360070407390594 0.009252717718482018
v -0.03072706237435341 -0.06360070407390594 0.009252715855836868
v -0.029820572584867477 -0.06406471878290176 0.0030235692393034697
v -0.030964946374297142 -0.06406471878290176 0.0030235692393034697
v -0.030964940786361694 -0.024907827377319336 0.0012894863029941916
v -0.030964940786361694 -0.022928977385163307 0.0012894863029941916
v -0.03072705678641796 -0.025371843948960304 0.0017760837217792869
v -0.029820570722222328 -0.024907827377319336 0.0012894863029941916
v -0.030964940786361694 -0.024907827377319336 0.0012894863029941916
v -0.03072705678641796 -0.025371843948960304 0.012711409479379654
v -0.029820570722222328 -0.025371843948960304 0.0017760839546099305
v -0.03072705678641796 -0.025371843948960304 0.0017760837217792869
v -0.030964946374297142 -0.024907827377319336 0.013198007829487324
v -0.030964940786361694 -0.022928977385163307 0.013198007829487324
v -0.029820570722222328 -0.024907827377319336 0.013198007829487324
v -0.030964946374297142 -0.024907827377319336 0.013198007829487324
v -0.03072705678641796 -0.022464964538812637 0.012711409479379654
v -0.029820570722222328 -0.022928977385163307 0.013198007829487324
v -0.030964940786361694 -0.022928977385163307 0.013198007829487324
v -0.03072705678641796 -0.022464964538812637 0.0017760832561179996
v -0.029820570722222328 -0.022464964538812637 0.012711409479379654
v -0.03072705678641796 -0.022464964538812637 0.012711409479379654
v -0.029820570722222328 -0.022928977385163307 0.0012894863029941916
v -0.030964940786361694 -0.022928977385163307 0.0012894863029941916
v -0.030964938923716545 0.022719983011484146 0.001289483974687755
v -0.030964938923716545 0.024698829278349876 0.001289483974687755
v -0.030727054923772812 0.022255966439843178 0.0017760813934728503
v -0.02982056513428688 0.022719983011484146 0.001289483974687755
v -0.030964938923716545 0.022719983011484146 0.001289483974687755
v -0.030727054923772812 0.022255966439843178 0.012711407616734505
v -0.02982056513428688 0.022255966439843178 0.001776082324795425
v -0.030727054923772812 0.022255966439843178 0.0017760813934728503
v -0.030964940786361694 0.022719983011484146 0.013198005966842175
v -0.030964938923716545 0.024698829278349876 0.013198005966842175
v -0.02982056513428688 0.022719983011484146 0.013198005966842175
v -0.030964940786361694 0.022719983011484146 0.013198005966842175
v -0.030727054923772812 0.025162845849990845 0.012711407616734505
v -0.02982056513428688 0.024698829278349876 0.013198005966842175
v -0.030964938923716545 0.024698829278349876 0.013198005966842175
v -0.030727054923772812 0.025162845849990845 0.0017760813934728503
v -0.02982056513428688 0.025162845849990845 0.012711407616734505
v -0.030727054923772812 0.025162845849990845 0.012711407616734505
v -0.02982056513428688 0.024698829278349876 0.001289483974687755
v -0.030964938923716545 0.024698829278349876 0.001289483974687755
v -0.030964938923716545 0.0640440285205841 0.003023563651368022
v -0.030964938923716545 0.06602288782596588 0.0030235631857067347
v -0.030727054923772812 0.06358002871274948 0.003510161070153117
v -0.02982056513428688 0.0640440285205841 0.003023563651368022
v -0.030964938923716545 0.0640440285205841 0.003023563651368022
v -0.030727054923772812 0.06358002871274948 0.00925271026790142
v -0.030727054923772812 0.06358002871274948 0.003510161070153117
v -0.030964940786361694 0.0640440285205841 0.009739309549331665
v -0.030964938923716545 0.06602288782596588 0.009739309549331665
v -0.02982056513428688 0.0640440285205841 0.009739309549331665
v -0.030964940786361694 0.0640440285205841 0.009739309549331665
v -0.030727054923772812 0.0664869025349617 0.00925271026790142
v -0.02982056513428688 0.06602288782596588 0.009739309549331665
v -0.030964938923716545 0.06602288782596588 0.009739309549331665
v -0.030727054923772812 0.0664869025349617 0.00351016060449183
v -0.02982056513428688 0.0664869025349617 0.009252711199223995
v -0.030727054923772812 0.0664869025349617 0.00925271026790142
v -0.02982056513428688 0.06602288782596588 0.0030235631857067347
v -0.030964938923716545 0.06602288782596588 0.0030235631857067347
v -0.02982056513428688 0.0664869025349617 0.003510161302983761
v 0.031076675280928612 -0.06604356318712234 0.0030235692393034697
v 0.031076675280928612 -0.06406471878290176 0.0030235692393034697
v 0.029932305216789246 -0.06604356318712234 0.0030235692393034697
v 0.03083879128098488 -0.06650758534669876 0.003510166658088565
v 0.031076675280928612 -0.06604356318712234 0.0030235692393034697
v 0.029932305216789246 -0.06650758534669876 0.003510167123749852
v 0.03083879128098488 -0.06650758534669876 0.009252715855836868
v 0.03083879128098488 -0.06650758534669876 0.003510166658088565
v 0.03107668086886406 -0.06604356318712234 0.009739315137267113
v 0.03083879128098488 -0.06650758534669876 0.009252715855836868
v 0.029932305216789246 -0.06604356318712234 0.009739315137267113
v 0.031076675280928612 -0.06406471878290176 0.009739315137267113
v 0.03107668086886406 -0.06604356318712234 0.009739315137267113
v 0.029932305216789246 -0.06406471878290176 0.009739315137267113
v 0.03083879128098488 -0.06360070407390594 0.009252715855836868
v 0.031076675280928612 -0.06406471878290176 0.009739315137267113
v 0.03083879128098488 -0.06360070407390594 0.003510166658088565
v 0.03083879128098488 -0.06360070407390594 0.009252715855836868
v 0.031076675280928612 -0.06406471878290176 0.0030235692393034697
v 0.029932305216789246 -0.06406471878290176 0.0030235692393034697
v 0.031076673418283463 -0.024907827377319336 0.0012894896790385246
v 0.031076673418283463 -0.022928977385163307 0.0012894896790385246
v 0.029932299628853798 -0.024907827377319336 0.0012894896790385246
v 0.03083878941833973 -0.025371843948960304 0.0017760870978236198
v 0.031076673418283463 -0.024907827377319336 0.0012894896790385246
v 0.029932299628853798 -0.025371843948960304 0.0017760875634849072
v 0.03083878941833973 -0.025371843948960304 0.012711412273347378
v 0.03083878941833973 -0.025371843948960304 0.0017760870978236198
v 0.031076675280928612 -0.024907827377319336 0.013198010623455048
v 0.029932299628853798 -0.024907827377319336 0.013198010623455048
v 0.031076673418283463 -0.022928977385163307 0.013198010623455048
v 0.031076675280928612 -0.024907827377319336 0.013198010623455048
v 0.029932299628853798 -0.022928977385163307 0.013198010623455048
v 0.03083878941833973 -0.022464964538812637 0.012711412273347378
v 0.031076673418283463 -0.022928977385163307 0.013198010623455048
v 0.029932299628853798 -0.022464964538812637 0.012711412273347378
v 0.03083878941833973 -0.022464964538812637 0.0017760870978236198
v 0.03083878941833973 -0.022464964538812637 0.012711412273347378
v 0.031076673418283463 -0.022928977385163307 0.0012894896790385246
v 0.029932299628853798 -0.022928977385163307 0.0012894896790385246
v 0.031076669692993164 0.022719983011484146 0.0012894917745143175
v 0.031076669692993164 0.024698829278349876 0.0012894917745143175
v 0.02993229776620865 0.022719983011484146 0.0012894917745143175
v 0.03083878383040428 0.022255966439843178 0.0017760891932994127
v 0.031076669692993164 0.022719983011484146 0.0012894917745143175
v 0.02993229776620865 0.022255966439843178 0.0017760901246219873
v 0.03083878383040428 0.022255966439843178 0.012711415067315102
v 0.03083878383040428 0.022255966439843178 0.0017760891932994127
v 0.031076673418283463 0.022719983011484146 0.013198013417422771
v 0.02993229776620865 0.022719983011484146 0.013198013417422771
v 0.031076669692993164 0.024698829278349876 0.013198013417422771
v 0.031076673418283463 0.022719983011484146 0.013198013417422771
v 0.02993229776620865 0.024698829278349876 0.013198013417422771
v 0.03083878383040428 0.025162845849990845 0.012711415067315102
v 0.031076669692993164 0.024698829278349876 0.013198013417422771
v 0.02993229776620865 0.025162845849990845 0.012711415067315102
v 0.03083878383040428 0.025162845849990845 0.0017760891932994127
v 0.03083878383040428 0.025162845849990845 0.012711415067315102
v 0.031076669692993164 0.024698829278349876 0.0012894917745143175
v 0.02993229776620865 0.024698829278349876 0.0012894917745143175
v 0.031076669692993164 0.0640440285205841 0.0030235748272389174
v 0.031076669692993164 0.06602288782596588 0.0030235748272389174
v 0.02993229776620865 0.0640440285205841 0.0030235748272389174
v 0.03083878383040428 0.06358002871274948 0.0035101722460240126
v 0.031076669692993164 0.0640440285205841 0.0030235748272389174
v 0.02993229776620865 0.06358002871274948 0.0035101729445159435
v 0.03083878383040428 0.06358002871274948 0.00925272237509489
v 0.03083878383040428 0.06358002871274948 0.0035101722460240126
v 0.031076673418283463 0.0640440285205841 0.00973932072520256
v 0.02993229776620865 0.0640440285205841 0.00973932072520256
v 0.031076669692993164 0.06602288782596588 0.00973932072520256
v 0.031076673418283463 0.0640440285205841 0.00973932072520256
v 0.02993229776620865 0.06602288782596588 0.00973932072520256
v 0.03083878383040428 0.0664869025349617 0.00925272237509489
v 0.031076669692993164 0.06602288782596588 0.00973932072520256
v 0.02993229776620865 0.0664869025349617 0.00925272237509489
v 0.03083878383040428 0.0664869025349617 0.0035101722460240126
v 0.03083878383040428 0.0664869025349617 0.00925272237509489
v 0.031076669692993164 0.06602288782596588 0.0030235748272389174
v 0.02993229776620865 0.06602288782596588 0.0030235748272389174
v -0.013509227894246578 -0.017606157809495926 0.06299040466547012
v -0.015488073229789734 -0.017606157809495926 0.06299040466547012
v -0.013045210391283035 -0.01784404180943966 0.06347698718309402
v -0.013509227894246578 -0.017606157809495926 0.06299040466547012
v -0.013045210391283035 -0.01784404180943966 0.06921955198049545
v -0.013045210391283035 -0.01875052973628044 0.06921955198049545
v -0.013509227894246578 -0.017606154084205627 0.06970613449811935
v -0.013045210391283035 -0.01784404180943966 0.06921955198049545
v -0.015488073229789734 -0.017606157809495926 0.06970613449811935
v -0.013509227894246578 -0.017606154084205627 0.06970613449811935
v -0.015488073229789734 -0.01875052973628044 0.06970613449811935
v -0.01595209166407585 -0.01784404180943966 0.06921955198049545
v -0.015488073229789734 -0.017606157809495926 0.06970613449811935
v -0.01595209166407585 -0.01784404180943966 0.06347698718309402
v -0.01595209166407585 -0.01784404180943966 0.06921955198049545
v -0.015488073229789734 -0.017606157809495926 0.06299040466547012
v -0.015488073229789734 -0.01875052973628044 0.06299040466547012
v 0.014783421531319618 -0.017606157809495926 0.06299040466547012
v 0.012804576195776463 -0.017606157809495926 0.06299040466547012
v 0.014783421531319618 -0.01875052973628044 0.06299040466547012
v 0.015247439965605736 -0.01784404180943966 0.06347698718309402
v 0.014783421531319618 -0.017606157809495926 0.06299040466547012
v 0.015247439965605736 -0.01784404180943966 0.06921955198049545
v 0.015247439965605736 -0.01875052973628044 0.06921955198049545
v 0.014783421531319618 -0.017606154084205627 0.06970613449811935
v 0.015247439965605736 -0.01784404180943966 0.06921955198049545
v 0.014783421531319618 -0.01875052973628044 0.06970613449811935
v 0.012804576195776463 -0.017606157809495926 0.06970613449811935
v 0.014783421531319618 -0.017606154084205627 0.06970613449811935
v 0.01234055869281292 -0.01784404180943966 0.06921955198049545
v 0.01234055869281292 -0.01875052973628044 0.06921955198049545
v 0.01234055869281292 -0.01784404180943966 0.06347698718309402
v 0.01234055869281292 -0.01784404180943966 0.06921955198049545
v -0.022612323984503746 -0.007616235874593258 0.011453641578555107
v 0.022612323984503746 -0.007616229355335236 0.011453640647232533
v -0.022612323984503746 -0.0057294643484056 0.01007275003939867
v 0.022612323984503746 -0.005729457829147577 0.010072747245430946
v 0.022612323984503746 -0.009512579999864101 0.010085932910442352
v -0.022612323984503746 -0.009512587450444698 0.010085933841764927
g submesh_0
f 127 515 124
f 518 516 517
f 523 521 522
f 526 524 525
f 135 527 132
f 530 528 529
f 535 533 534
f 538 536 537
f 589 587 588
f 592 590 591
f 17 13 14
f 17 14 18
f 18 14 15
f 18 15 16
f 16 15 10
f 16 10 11
f 11 10 4
f 11 4 5
f 10 15 9
f 9 15 14
f 9 14 8
f 8 14 13
f 8 13 7
f 16 11 12
f 19 25 26
f 19 26 20
f 20 26 27
f 20 27 21
f 21 27 28
f 21 28 22
f 22 28 29
f 22 29 23
f 23 29 30
f 23 30 24
f 412 6 411
f 411 6 413
f 424 425 423
f 424 423 422
f 422 423 421
f 422 421 420
f 420 421 419
f 420 419 418
f 418 419 416
f 418 416 415
f 415 416 414
f 415 414 417
f 1 426 427
f 427 426 428
f 430 429 41
f 41 429 37
f 432 431 42
f 42 431 433
f 435 434 38
f 38 434 436
f 438 437 43
f 43 437 39
f 440 439 44
f 44 439 441
f 443 442 40
f 40 442 444
f 49 53 50
f 50 53 54
f 50 54 51
f 51 54 52
f 51 52 48
f 48 52 447
f 48 447 46
f 46 447 448
f 449 49 445
f 445 49 50
f 445 50 47
f 47 50 51
f 47 51 48
f 447 52 450
f 61 55 62
f 62 55 56
f 62 56 63
f 63 56 57
f 63 57 64
f 64 57 58
f 64 58 65
f 65 58 59
f 65 59 66
f 66 59 60
f 454 453 452
f 452 453 451
f 465 466 463
f 463 466 464
f 463 464 461
f 461 464 462
f 461 462 459
f 459 462 460
f 459 460 455
f 455 460 456
f 455 456 457
f 457 456 458
f 470 469 468
f 468 469 467
f 74 73 75
f 75 73 76
f 77 471 78
f 78 471 472
f 79 473 80
f 80 473 474
f 669 82 83
f 83 82 81
f 83 81 84
f 235 233 236
f 236 233 234
f 671 86 85
f 85 86 88
f 85 88 87
f 97 98 95
f 95 98 96
f 95 96 93
f 93 96 94
f 476 475 99
f 99 475 100
f 99 100 89
f 89 100 90
f 480 479 478
f 478 479 101
f 478 101 477
f 477 101 92
f 102 481 482
f 482 481 483
f 103 484 485
f 485 484 486
f 494 493 104
f 104 493 487
f 104 487 91
f 91 487 488
f 491 489 490
f 490 489 492
f 113 114 111
f 111 114 112
f 111 112 109
f 109 112 110
f 496 495 115
f 115 495 116
f 115 116 105
f 105 116 106
f 500 499 498
f 498 499 117
f 498 117 497
f 497 117 108
f 118 501 502
f 502 501 503
f 119 504 505
f 505 504 506
f 514 513 120
f 120 513 507
f 120 507 107
f 107 507 508
f 511 509 510
f 510 509 512
f 126 125 122
f 122 125 121
f 128 519 123
f 123 519 520
f 134 133 130
f 130 133 129
f 136 531 131
f 131 531 532
f 138 137 140
f 140 137 139
f 142 141 539
f 539 141 540
f 143 541 542
f 542 541 543
f 144 544 545
f 545 544 546
f 549 547 548
f 548 547 550
f 146 145 148
f 148 145 147
f 150 149 551
f 551 149 552
f 151 553 554
f 554 553 555
f 152 556 557
f 557 556 558
f 561 559 560
f 560 559 562
f 154 153 156
f 156 153 155
f 158 157 563
f 563 157 564
f 159 565 566
f 566 565 567
f 160 568 569
f 569 568 570
f 573 571 572
f 572 571 574
f 577 575 576
f 576 575 578
f 162 161 164
f 164 161 163
f 167 166 579
f 579 166 580
f 168 581 582
f 582 581 583
f 165 584 585
f 585 584 586
f 180 173 181
f 181 173 174
f 181 174 182
f 182 174 175
f 182 175 176
f 176 175 169
f 176 169 177
f 177 169 170
f 177 170 178
f 178 170 171
f 178 171 179
f 179 171 172
f 599 600 189
f 189 600 601
f 189 601 183
f 183 601 593
f 183 593 184
f 184 593 594
f 184 594 185
f 185 594 595
f 185 595 186
f 186 595 596
f 187 597 188
f 188 597 598
f 194 606 195
f 195 606 607
f 195 607 196
f 196 607 608
f 196 608 190
f 190 608 602
f 190 602 191
f 191 602 603
f 191 603 192
f 192 603 604
f 192 604 193
f 193 604 605
f 617 618 615
f 615 618 616
f 615 616 613
f 613 616 614
f 613 614 609
f 609 614 610
f 609 610 611
f 611 610 612
f 622 621 620
f 620 621 619
f 626 625 624
f 624 625 623
f 201 208 209
f 201 209 202
f 202 209 210
f 202 210 203
f 203 210 204
f 203 204 197
f 197 204 205
f 197 205 198
f 198 205 206
f 198 206 199
f 199 206 207
f 199 207 200
f 633 634 217
f 633 217 635
f 635 217 211
f 635 211 627
f 627 211 212
f 627 212 628
f 628 212 213
f 628 213 629
f 629 213 214
f 629 214 630
f 215 216 631
f 631 216 632
f 640 222 223
f 640 223 641
f 641 223 224
f 641 224 642
f 642 224 218
f 642 218 636
f 636 218 219
f 636 219 637
f 637 219 220
f 637 220 638
f 638 220 221
f 638 221 639
f 651 652 650
f 651 650 649
f 649 650 648
f 649 648 647
f 647 648 645
f 647 645 644
f 644 645 643
f 644 643 646
f 655 653 654
f 654 653 656
f 659 657 658
f 658 657 660
f 226 225 661
f 661 225 662
f 228 227 663
f 663 227 664
f 673 230 665
f 665 230 229
f 665 229 666
f 240 239 238
f 238 239 237
f 675 668 231
f 231 668 667
f 231 667 232
f 670 669 83
f 672 671 85
f 674 673 665
f 676 675 231
f 679 677 678
f 678 677 680
f 683 681 682
f 682 681 684
f 687 685 686
f 686 685 688
f 252 256 250
f 250 256 255
f 250 255 249
f 249 255 254
f 249 254 251
f 251 254 253
f 690 241 689
f 689 241 242
f 693 692 691
f 691 692 244
f 248 697 246
f 246 697 694
f 246 694 695
f 695 694 696
f 700 699 698
f 698 699 247
f 703 702 701
f 701 702 245
f 707 708 243
f 243 708 704
f 243 704 705
f 705 704 706
f 268 272 266
f 266 272 271
f 266 271 265
f 265 271 270
f 265 270 267
f 267 270 269
f 710 257 709
f 709 257 258
f 713 712 711
f 711 712 260
f 264 717 262
f 262 717 714
f 262 714 715
f 715 714 716
f 720 719 718
f 718 719 263
f 723 722 721
f 721 722 261
f 727 728 259
f 259 728 724
f 259 724 725
f 725 724 726
f 284 288 282
f 282 288 287
f 282 287 281
f 281 287 286
f 281 286 283
f 283 286 285
f 730 273 729
f 729 273 274
f 733 732 731
f 731 732 276
f 280 737 278
f 278 737 734
f 278 734 735
f 735 734 736
f 740 739 738
f 738 739 279
f 743 742 741
f 741 742 277
f 747 748 275
f 275 748 744
f 275 744 745
f 745 744 746
f 300 304 298
f 298 304 303
f 298 303 297
f 297 303 302
f 297 302 299
f 299 302 301
f 750 289 749
f 749 289 290
f 753 752 751
f 751 752 292
f 296 756 294
f 294 756 754
f 294 754 292
f 292 754 755
f 759 758 757
f 757 758 295
f 762 761 760
f 760 761 293
f 765 764 763
f 763 764 291
f 763 768 767
f 767 768 766
f 320 316 314
f 320 314 319
f 319 314 313
f 319 313 318
f 318 313 315
f 318 315 317
f 306 305 769
f 769 305 770
f 308 771 772
f 772 771 773
f 310 774 775
f 775 774 776
f 312 310 777
f 777 310 778
f 311 779 780
f 780 779 781
f 309 782 783
f 783 782 784
f 787 788 307
f 787 307 785
f 785 307 309
f 785 309 786
f 336 332 330
f 336 330 335
f 335 330 329
f 335 329 334
f 334 329 331
f 334 331 333
f 322 321 789
f 789 321 790
f 324 791 792
f 792 791 793
f 797 328 326
f 797 326 795
f 795 326 794
f 795 794 796
f 327 798 799
f 799 798 800
f 325 801 802
f 802 801 803
f 807 808 323
f 807 323 805
f 805 323 804
f 805 804 806
f 352 348 346
f 352 346 351
f 351 346 345
f 351 345 350
f 350 345 347
f 350 347 349
f 338 337 809
f 809 337 810
f 340 811 812
f 812 811 813
f 817 344 342
f 817 342 815
f 815 342 814
f 815 814 816
f 343 818 819
f 819 818 820
f 341 821 822
f 822 821 823
f 827 828 339
f 827 339 825
f 825 339 824
f 825 824 826
f 368 364 362
f 368 362 367
f 367 362 361
f 367 361 366
f 366 361 363
f 366 363 365
f 354 353 829
f 829 353 830
f 356 831 832
f 832 831 833
f 837 360 358
f 837 358 835
f 835 358 834
f 835 834 836
f 359 838 839
f 839 838 840
f 357 841 842
f 842 841 843
f 847 848 355
f 847 355 845
f 845 355 844
f 845 844 846
f 376 375 373
f 376 373 374
f 374 373 370
f 374 370 371
f 371 370 369
f 371 369 372
f 378 377 849
f 849 377 850
f 853 380 379
f 853 379 851
f 851 379 378
f 851 378 852
f 381 854 855
f 855 854 856
f 382 381 857
f 857 381 858
f 383 859 860
f 860 859 861
f 864 865 384
f 864 384 862
f 862 384 383
f 862 383 863
f 392 391 389
f 392 389 390
f 390 389 386
f 390 386 387
f 387 386 385
f 387 385 388
f 879 881 880
f 879 880 400
f 400 880 867
f 400 867 393
f 393 867 866
f 393 866 394
f 871 396 395
f 871 395 869
f 869 395 868
f 869 868 870
f 397 872 873
f 873 872 874
f 878 399 398
f 878 398 876
f 876 398 875
f 876 875 877
f 406 407 401
f 401 407 402
f 883 408 882
f 882 408 403
f 885 409 884
f 884 409 404
f 410 886 405
f 405 886 887
f 4 10 3
f 3 10 9
f 3 9 2
f 2 9 8
f 30 29 34
f 34 29 28
f 34 28 33
f 33 28 27
f 33 27 32
f 32 27 26
f 32 26 31
f 31 26 25
f 34 33 36
f 36 33 32
f 36 32 35
f 35 32 31
f 48 46 45
f 48 45 47
f 47 45 446
f 47 446 445
f 65 66 70
f 65 70 64
f 64 70 69
f 64 69 63
f 63 69 68
f 63 68 62
f 62 68 67
f 62 67 61
f 69 70 72
f 69 72 68
f 68 72 71
f 68 71 67
