# complete01
v -0.2210000604391098 0.19698438048362732 -4.999999987376214e-07
v -0.11395355314016342 0.30399999022483826 -4.999999987376214e-07
v 0.11765594035387039 0.30399999022483826 -4.999999987376214e-07
v 0.22099944949150085 0.20067189633846283 -4.999999987376214e-07
v 0.22099944949150085 -0.19974997639656067 -4.999999987376214e-07
v 0.11673431098461151 -0.30399999022483826 -4.999999987376214e-07
v -0.11581268161535263 -0.30399999022483826 -4.999999987376214e-07
v -0.2210000604391098 -0.19882811605930328 -4.999999987376214e-07
v 0.042999573051929474 -0.1459999978542328 -4.999999987376214e-07
v 0.042999573051929474 0.1459999978542328 -4.999999987376214e-07
v -0.0420004278421402 0.1459999978542328 -4.999999987376214e-07
v -0.0420004278421402 -0.1459999978542328 -4.999999987376214e-07
g submesh_0
f 8 7 12
f 8 12 1
f 1 12 11
f 1 11 10
f 4 3 10
f 10 3 2
f 10 2 1
f 7 6 9
f 9 6 5
f 9 5 10
f 10 5 4
f 9 12 7
