# 02
v -0.2175000011920929 -0.1459999978542328 -0.07499999552965164
v -0.027093734592199326 -0.1459999978542328 -0.07499999552965164
v -0.2175000011920929 0.020906277000904083 -0.07499999552965164
v -0.2175000011920929 0.19795311987400055 -0.07499999552965164
v -0.11314056068658829 0.30399999022483826 -0.07499999552965164
v 0.11035941541194916 0.30399999022483826 -0.07499999552965164
v 0.2175000011920929 0.1979687660932541 -0.07499999552965164
v 0.2175000011920929 0.07349999994039536 -0.07499999552965164
v 0.03650001436471939 0.07349999994039536 -0.07499999552965164
v 0.03650001436471939 0.1459999978542328 -0.07499999552965164
v -0.03649993985891342 0.1459999978542328 -0.07499999552965164
v -0.03649993985891342 0.08514063060283661 -0.07499999552965164
v 0.2175000011920929 -0.1444687396287918 -0.07499999552965164
v 0.2175000011920929 -0.30399999022483826 -0.07499999552965164
v -0.2175000011920929 -0.30399999022483826 -0.07499999552965164
v -0.2175000011920929 -0.1459999978542328 0.07499999552965164
v -0.027093734592199326 -0.1459999978542328 0.07499999552965164
v -0.2175000011920929 0.020906277000904083 0.07499999552965164
v -0.2175000011920929 0.19795311987400055 0.07499999552965164
v -0.11314056068658829 0.30399999022483826 0.07499999552965164
v 0.11035941541194916 0.30399999022483826 0.07499999552965164
v 0.2175000011920929 0.1979687660932541 0.07499999552965164
v 0.2175000011920929 0.07349999994039536 0.07499999552965164
v 0.03650001436471939 0.07349999994039536 0.07499999552965164
v 0.03650001436471939 0.1459999978542328 0.07499999552965164
v -0.03649993985891342 0.1459999978542328 0.07499999552965164
v -0.03649993985891342 0.08514063060283661 0.07499999552965164
v 0.2175000011920929 -0.1444687396287918 0.07499999552965164
v 0.2175000011920929 -0.30399999022483826 0.07499999552965164
v -0.2175000011920929 -0.30399999022483826 0.07499999552965164
v -0.19913360476493835 -0.16436639428138733 -0.10071296244859695
v 0.02172122895717621 -0.16436639428138733 -0.10071296244859695
v -0.19913360476493835 0.029230479151010513 -0.10071296244859695
v -0.19913360476493835 0.1904316544532776 -0.10071296244859695
v -0.10544651001691818 0.2856335937976837 -0.10071296244859695
v 0.10280776768922806 0.2856335937976837 -0.10071296244859695
v 0.19913360476493835 0.19030511379241943 -0.10071296244859695
v 0.19913360476493835 0.0918663963675499 -0.10071296244859695
v 0.05486640706658363 0.0918663963675499 -0.10071296244859695
v 0.05486640706658363 0.16436639428138733 -0.10071296244859695
v -0.054866332560777664 0.16436639428138733 -0.10071296244859695
v -0.054866332560777664 0.07698503136634827 -0.10071296244859695
v 0.19913360476493835 -0.15262433886528015 -0.10071296244859695
v 0.19913360476493835 -0.28563356399536133 -0.10071296244859695
v -0.19913360476493835 -0.28563356399536133 -0.10071296244859695
v -0.19913360476493835 -0.16436639428138733 0.10071296244859695
v 0.02172122895717621 -0.16436639428138733 0.10071296244859695
v -0.19913360476493835 0.029230479151010513 0.10071296244859695
v -0.19913360476493835 0.1904316544532776 0.10071296244859695
v -0.10544651001691818 0.2856335937976837 0.10071296244859695
v 0.10280776768922806 0.2856335937976837 0.10071296244859695
v 0.19913360476493835 0.19030511379241943 0.10071296244859695
v 0.19913360476493835 0.0918663963675499 0.10071296244859695
v 0.05486640706658363 0.0918663963675499 0.10071296244859695
v 0.05486640706658363 0.16436639428138733 0.10071296244859695
v -0.054866332560777664 0.16436639428138733 0.10071296244859695
v -0.054866332560777664 0.07698503136634827 0.10071296244859695
v 0.19913360476493835 -0.15262433886528015 0.10071296244859695
v 0.19913360476493835 -0.28563356399536133 0.10071296244859695
v -0.19913360476493835 -0.28563356399536133 0.10071296244859695
v -0.027093734592199326 -0.1459999978542328 -0.07499999552965164
v -0.027093734592199326 -0.1459999978542328 0.07499999552965164
v -0.11314056068658829 0.30399999022483826 -0.07499999552965164
v -0.11314056068658829 0.30399999022483826 0.07499999552965164
v 0.11035941541194916 0.30399999022483826 -0.07499999552965164
v 0.11035941541194916 0.30399999022483826 0.07499999552965164
v 0.2175000011920929 0.07349999994039536 -0.07499999552965164
v 0.2175000011920929 0.07349999994039536 0.07499999552965164
v 0.03650001436471939 0.07349999994039536 -0.07499999552965164
v 0.03650001436471939 0.07349999994039536 0.07499999552965164
v 0.03650001436471939 0.1459999978542328 -0.07499999552965164
v 0.03650001436471939 0.1459999978542328 0.07499999552965164
v -0.03649993985891342 0.1459999978542328 -0.07499999552965164
v -0.03649993985891342 0.1459999978542328 0.07499999552965164
v 0.2175000011920929 -0.30399999022483826 -0.07499999552965164
v 0.2175000011920929 -0.30399999022483826 0.07499999552965164
v -0.2175000011920929 -0.30399999022483826 -0.07499999552965164
v -0.2175000011920929 -0.30399999022483826 0.07499999552965164
v -0.2175000011920929 -0.1459999978542328 -0.07499999552965164
v -0.2175000011920929 -0.1459999978542328 0.07499999552965164
v -0.027093734592199326 -0.1459999978542328 -0.07499999552965164
v -0.19913360476493835 -0.16436639428138733 -0.10071296244859695
v -0.2175000011920929 -0.1459999978542328 -0.07499999552965164
v 0.02172122895717621 -0.16436639428138733 -0.10071296244859695
v -0.2175000011920929 0.020906277000904083 -0.07499999552965164
v 0.02172122895717621 -0.16436639428138733 -0.10071296244859695
v -0.027093734592199326 -0.1459999978542328 -0.07499999552965164
v -0.2175000011920929 0.19795311987400055 -0.07499999552965164
v -0.11314056068658829 0.30399999022483826 -0.07499999552965164
v -0.2175000011920929 0.19795311987400055 -0.07499999552965164
v 0.11035941541194916 0.30399999022483826 -0.07499999552965164
v 0.11035941541194916 0.30399999022483826 -0.07499999552965164
v 0.19913360476493835 0.0918663963675499 -0.10071296244859695
v 0.03650001436471939 0.07349999994039536 -0.07499999552965164
v 0.19913360476493835 0.0918663963675499 -0.10071296244859695
v 0.2175000011920929 0.07349999994039536 -0.07499999552965164
v 0.05486640706658363 0.0918663963675499 -0.10071296244859695
v 0.03650001436471939 0.1459999978542328 -0.07499999552965164
v 0.05486640706658363 0.0918663963675499 -0.10071296244859695
v 0.03650001436471939 0.07349999994039536 -0.07499999552965164
v 0.05486640706658363 0.16436639428138733 -0.10071296244859695
v -0.03649993985891342 0.1459999978542328 -0.07499999552965164
v 0.05486640706658363 0.16436639428138733 -0.10071296244859695
v 0.03650001436471939 0.1459999978542328 -0.07499999552965164
v -0.054866332560777664 0.16436639428138733 -0.10071296244859695
v -0.054866332560777664 0.16436639428138733 -0.10071296244859695
v 0.19913360476493835 -0.28563356399536133 -0.10071296244859695
v -0.2175000011920929 -0.30399999022483826 -0.07499999552965164
v 0.19913360476493835 -0.28563356399536133 -0.10071296244859695
v 0.2175000011920929 -0.30399999022483826 -0.07499999552965164
v -0.19913360476493835 -0.28563356399536133 -0.10071296244859695
v -0.2175000011920929 -0.1459999978542328 -0.07499999552965164
v -0.19913360476493835 -0.28563356399536133 -0.10071296244859695
v -0.2175000011920929 -0.30399999022483826 -0.07499999552965164
v -0.19913360476493835 -0.16436639428138733 -0.10071296244859695
v -0.2175000011920929 -0.1459999978542328 0.07499999552965164
v 0.02172122895717621 -0.16436639428138733 0.10071296244859695
v -0.027093734592199326 -0.1459999978542328 0.07499999552965164
v -0.19913360476493835 -0.16436639428138733 0.10071296244859695
v 0.02172122895717621 -0.16436639428138733 0.10071296244859695
v -0.11314056068658829 0.30399999022483826 0.07499999552965164
v -0.11314056068658829 0.30399999022483826 0.07499999552965164
v 0.11035941541194916 0.30399999022483826 0.07499999552965164
v 0.2175000011920929 0.1979687660932541 0.07499999552965164
v 0.19913360476493835 0.0918663963675499 0.10071296244859695
v 0.2175000011920929 0.07349999994039536 0.07499999552965164
v 0.2175000011920929 0.07349999994039536 0.07499999552965164
v 0.05486640706658363 0.0918663963675499 0.10071296244859695
v 0.03650001436471939 0.07349999994039536 0.07499999552965164
v 0.19913360476493835 0.0918663963675499 0.10071296244859695
v 0.05486640706658363 0.16436639428138733 0.10071296244859695
v 0.05486640706658363 0.0918663963675499 0.10071296244859695
v 0.03650001436471939 0.1459999978542328 0.07499999552965164
v -0.054866332560777664 0.16436639428138733 0.10071296244859695
v -0.03649993985891342 0.1459999978542328 0.07499999552965164
v 0.05486640706658363 0.16436639428138733 0.10071296244859695
v -0.03649993985891342 0.1459999978542328 0.07499999552965164
v -0.03649993985891342 0.08514063060283661 0.07499999552965164
v -0.054866332560777664 0.16436639428138733 0.10071296244859695
v 0.2175000011920929 -0.1444687396287918 0.07499999552965164
v 0.19913360476493835 -0.28563356399536133 0.10071296244859695
v 0.2175000011920929 -0.30399999022483826 0.07499999552965164
v 0.2175000011920929 -0.30399999022483826 0.07499999552965164
v -0.19913360476493835 -0.28563356399536133 0.10071296244859695
v -0.2175000011920929 -0.30399999022483826 0.07499999552965164
v 0.19913360476493835 -0.28563356399536133 0.10071296244859695
v -0.19913360476493835 -0.16436639428138733 0.10071296244859695
v -0.19913360476493835 -0.28563356399536133 0.10071296244859695
g submesh_0
f 17 2 16
f 16 2 1
f 20 5 19
f 19 5 4
f 19 4 18
f 18 4 3
f 18 3 62
f 62 3 61
f 21 6 64
f 64 6 63
f 23 8 22
f 22 8 7
f 22 7 66
f 66 7 65
f 24 9 68
f 68 9 67
f 131 25 70
f 70 25 10
f 70 10 69
f 26 11 72
f 72 11 71
f 32 33 42
f 32 42 43
f 43 42 13
f 43 13 14
f 14 13 28
f 14 28 29
f 30 15 76
f 76 15 75
f 147 80 78
f 78 80 79
f 78 79 77
f 138 137 57
f 138 57 58
f 58 57 47
f 58 47 59
f 59 47 46
f 59 46 60
f 54 53 55
f 55 53 52
f 55 52 51
f 51 52 123
f 51 123 122
f 45 31 44
f 44 31 32
f 44 32 43
f 92 7 36
f 36 7 37
f 36 37 40
f 40 37 38
f 40 38 39
f 83 81 82
f 82 81 84
f 88 34 33
f 88 33 85
f 85 33 86
f 85 86 87
f 90 89 34
f 34 89 35
f 34 35 41
f 41 35 36
f 41 36 40
f 93 37 8
f 8 37 7
f 96 94 95
f 95 94 97
f 100 98 99
f 99 98 101
f 104 102 103
f 103 102 105
f 107 43 14
f 110 108 109
f 109 108 111
f 114 112 113
f 113 112 115
f 118 116 117
f 117 116 119
f 50 121 19
f 50 19 49
f 49 19 18
f 49 18 48
f 48 18 62
f 48 62 120
f 123 52 124
f 124 52 125
f 124 125 126
f 129 127 128
f 128 127 130
f 132 131 70
f 135 133 134
f 134 133 136
f 139 57 137
f 138 58 140
f 140 58 141
f 140 141 142
f 145 143 144
f 144 143 146
f 148 147 78
f 28 13 27
f 27 13 12
f 27 12 74
f 74 12 73
f 51 122 50
f 51 50 56
f 56 50 49
f 56 49 57
f 57 49 48
f 57 48 47
f 56 55 51
f 33 34 42
f 42 34 41
f 89 91 35
f 35 91 36
f 13 42 12
f 12 42 106
f 12 106 73
