# rich_17
v -0.21599990129470825 -0.055328063666820526 -4.999999418942025e-07
v -0.04899993911385536 -0.055328063666820526 -4.999999418942025e-07
v -0.04899993911385536 -0.14299993216991425 -4.999999418942025e-07
v 0.03300018236041069 -0.14299993216991425 -4.999999418942025e-07
v 0.03300018236041069 0.14600005745887756 -4.999999418942025e-07
v -0.04899993911385536 0.14600005745887756 -4.999999418942025e-07
v -0.04899993911385536 0.06796882301568985 -4.999999418942025e-07
v -0.21599990129470825 0.06796882301568985 -4.999999418942025e-07
v -0.21599990129470825 0.1970469206571579 -4.999999418942025e-07
v -0.10892181098461151 0.30400004982948303 -4.999999418942025e-07
v 0.10892211645841599 0.30400004982948303 -4.999999418942025e-07
v 0.2160000503063202 0.1969844400882721 -4.999999418942025e-07
v 0.2160000503063202 -0.19512492418289185 -4.999999418942025e-07
v 0.10707824677228928 -0.3039999306201935 -4.999999418942025e-07
v -0.10339049994945526 -0.3039999306201935 -4.999999418942025e-07
v -0.21599990129470825 -0.1911093145608902 -4.999999418942025e-07
g submesh_0
f 11 10 6
f 6 10 9
f 6 9 7
f 7 9 8
f 2 1 3
f 3 1 16
f 3 16 15
f 13 12 5
f 5 12 11
f 5 11 6
f 15 14 4
f 4 14 13
f 4 13 5
f 4 3 15
