# pend_00
v 1.8283594083179366e-10 -2.1519233617262046e-10 0.0018433233490213752
v 1.6455234397305674e-10 -0.0005621862947009504 0.001281137578189373
v 1.3712694868495134e-10 -1.1689664514147324e-10 0.0007189518655650318
v 1.6455234397305674e-10 0.000562185887247324 0.001281137578189373
v -0.0021151627879589796 -1.9041869470104444e-10 0.001276568160392344
v -0.0018340698443353176 -0.0005621862947009504 0.0007897003670223057
v -0.0015529769007116556 -9.870747275098068e-11 0.0003028324863407761
v -0.0018340698443353176 0.000562185887247324 0.0007897003670223057
v -0.0036635699216276407 -1.2273566885045994e-10 -0.00027183874044567347
v -0.003176702419295907 -0.0005621861782856286 -0.0005529321497306228
v -0.002689835149794817 -4.9013848535395255e-11 -0.0008340255590155721
v -0.003176702419295907 0.0005621859454549849 -0.0005529321497306228
v -0.0042303260415792465 -3.027895989493601e-11 -0.0023870018776506186
v -0.0036681401543319225 -0.0005621861200779676 -0.0023870018776506186
v -0.0031059542670845985 1.886890643731931e-11 -0.0023870018776506186
v -0.0036681401543319225 0.0005621860618703067 -0.0023870018776506186
v -0.0036635699216276407 6.217774906058793e-11 -0.0045021651312708855
v -0.003176702419295907 -0.0005621860618703067 -0.0042210728861391544
v -0.002689835149794817 8.675173079897291e-11 -0.003939978778362274
v -0.003176702419295907 0.0005621861200779676 -0.0042210728861391544
v 0.000636264740023762 2.1858695409271434e-10 -0.00808039028197527
v 7.496273046747604e-10 -0.0005621858290396631 -0.00808039028197527
v -0.0006334224017336965 2.677348620583331e-10 -0.00808039028197527
v 7.496273046747604e-10 0.0005621862947009504 -0.00808039028197527
v 0.0019768693018704653 1.3873172055589578e-10 -0.006253515835851431
v 0.0015793434577062726 -0.0005621859454549849 -0.00585599010810256
v 0.0011818180792033672 1.531267751486709e-10 -0.005458464380353689
v 0.0015793434577062726 0.0005621861782856286 -0.00585599010810256
v 0.0036635699216276407 6.217774906058793e-11 -0.0045021651312708855
v 0.003176702419295907 -0.0005621860618703067 -0.0042210728861391544
v 0.002689835149794817 8.675173079897291e-11 -0.003939978778362274
v 0.003176702419295907 0.0005621861200779676 -0.0042210728861391544
v 0.0042303260415792465 -3.027889050599697e-11 -0.002387003041803837
v 0.0036681401543319225 -0.0005621861200779676 -0.002387003041803837
v 0.0031059542670845985 1.8868974091534874e-11 -0.002387003041803837
v 0.0036681401543319225 0.0005621860618703067 -0.002387003041803837
v 0.003663570387288928 -1.2273566885045994e-10 -0.00027183990459889174
v 0.0031767028849571943 -0.0005621861782856286 -0.000552933372091502
v 0.0026898356154561043 -4.9013848535395255e-11 -0.0008340255590155721
v 0.0031767028849571943 0.0005621859454549849 -0.000552933372091502
v 0.002115164417773485 -1.904186253121054e-10 0.0012765669962391257
v 0.0018340711249038577 -0.0005621862947009504 0.0007896991446614265
v 0.001552977948449552 -9.870743805651117e-11 0.0003028324863407761
v 0.0018340711249038577 0.000562185887247324 0.0007896991446614265
v 0.000636264740023762 3.63721763818603e-09 -0.08610409498214722
v 7.454136197182493e-10 -0.0005621824529953301 -0.08610409498214722
v -0.0006334224017336965 3.686365879218556e-09 -0.08610409498214722
v 7.454136197182493e-10 0.0005621896707452834 -0.08610409498214722
v 1.636149549177901e-10 0.0004235154774505645 -0.08438432216644287
v 0.00029946144786663353 0.00029947463190183043 -0.08438432216644287
v 0.00042350246803835034 1.3334605419856871e-08 -0.08438432216644287
v 0.00029946150607429445 -0.00029944785637781024 -0.08438432216644287
v 1.462687471143198e-10 -0.0004234889929648489 -0.08438432216644287
v -0.00029946130234748125 -0.00029944785637781024 -0.08438432216644287
v -0.0004235020314808935 1.3554008582161714e-08 -0.08438432216644287
v -0.00029946083668619394 0.000299474922940135 -0.08438432216644287
v 1.389459380884972e-10 0.0031787168700248003 -0.08535878360271454
v 0.0012164374347776175 0.0029367522802203894 -0.08535878360271454
v 0.002247682772576809 0.0022476958110928535 -0.08535878360271454
v 0.002936739008873701 0.001216450473293662 -0.08535878360271454
v 0.0031787033658474684 1.3453505864902127e-08 -0.08535878360271454
v 0.0029367394745349884 -0.00121642358135432 -0.08535878360271454
v 0.00224768347106874 -0.002247669268399477 -0.08535878360271454
v 0.001216437667608261 -0.002936725504696369 -0.08535878360271454
v -3.7906316974201104e-11 -0.00317869009450078 -0.08535878360271454
v -0.001216437667608261 -0.002936725504696369 -0.08535878360271454
v -0.00224768347106874 -0.0022476690355688334 -0.08535878360271454
v -0.0029367399401962757 -0.0012164227664470673 -0.08535878360271454
v -0.0031787033658474684 1.5045040768768558e-08 -0.08535878360271454
v -0.0029367380775511265 0.001216452568769455 -0.08535878360271454
v -0.002247680677101016 0.00224769813939929 -0.08535878360271454
v -0.0012164338259026408 0.002936753910034895 -0.08535878360271454
v 1.8154144854065635e-10 0.004153189714998007 -0.0868171826004982
v 0.0015893520321696997 0.003837047843262553 -0.0868171826004982
v 0.0029367392417043447 0.0029367520473897457 -0.0868171826004982
v 0.003837034571915865 0.0015893654199317098 -0.0868171826004982
v 0.004153176676481962 1.3600646830980168e-08 -0.0868171826004982
v 0.0038370348047465086 -0.0015893375966697931 -0.0868171826004982
v 0.0029367401730269194 -0.002936725039035082 -0.0868171826004982
v 0.0015893522650003433 -0.0038370213005691767 -0.0868171826004982
v -4.9525508694081566e-11 -0.00415316317230463 -0.0868171826004982
v -0.001589352497830987 -0.0038370213005691767 -0.0868171826004982
v -0.0029367401730269194 -0.002936725039035082 -0.0868171826004982
v -0.0038370355032384396 -0.0015893365489318967 -0.0868171826004982
v -0.004153176676481962 1.5680088338854148e-08 -0.0868171826004982
v -0.0038370334077626467 0.0015893680974841118 -0.0868171826004982
v -0.0029367362149059772 0.002936755074188113 -0.0868171826004982
v -0.0015893474919721484 0.003837049473077059 -0.0868171826004982
v 1.964995388625823e-10 0.00449537904933095 -0.08853749185800552
v 0.0017203023890033364 0.004153189714998007 -0.08853749185800552
v 0.0031787033658474684 0.0031787168700248003 -0.08853749185800552
v 0.004153176210820675 0.0017203151946887374 -0.08853749185800552
v 0.004495365545153618 1.3652316610546222e-08 -0.08853749185800552
v 0.004153176676481962 -0.0017202880699187517 -0.08853749185800552
v 0.0031787045300006866 -0.0031786891631782055 -0.08853749185800552
v 0.00172030262183398 -0.004153162706643343 -0.08853749185800552
v -5.360762528328067e-11 -0.004495352040976286 -0.08853749185800552
v -0.00172030262183398 -0.004153162706643343 -0.08853749185800552
v -0.0031787045300006866 -0.0031786891631782055 -0.08853749185800552
v -0.0041531771421432495 -0.0017202869057655334 -0.08853749185800552
v -0.004495365545153618 1.5903086847401937e-08 -0.08853749185800552
v -0.004153174813836813 0.0017203183379024267 -0.08853749185800552
v -0.003178700339049101 0.0031787201296538115 -0.08853749185800552
v -0.001720297266729176 0.004153192043304443 -0.08853749185800552
v 1.964995388625823e-10 0.00449537904933095 -0.10026318579912186
v 0.0017203023890033364 0.004153189714998007 -0.10026318579912186
v 0.0031787033658474684 0.0031787168700248003 -0.10026318579912186
v 0.004153176210820675 0.0017203156603500247 -0.10026318579912186
v 0.004495365545153618 1.4065299147603127e-08 -0.10026318579912186
v 0.004153176676481962 -0.0017202876042574644 -0.10026318579912186
v 0.0031787045300006866 -0.0031786891631782055 -0.10026318579912186
v 0.00172030262183398 -0.004153162706643343 -0.10026318579912186
v -5.360762528328067e-11 -0.004495352040976286 -0.10026318579912186
v -0.00172030262183398 -0.004153162706643343 -0.10026318579912186
v -0.0031787045300006866 -0.0031786891631782055 -0.10026318579912186
v -0.0041531771421432495 -0.0017202864401042461 -0.10026318579912186
v -0.004495365545153618 1.6316068496280423e-08 -0.10026318579912186
v -0.004153174813836813 0.001720318803563714 -0.10026318579912186
v -0.003178700339049101 0.0031787201296538115 -0.10026318579912186
v -0.001720297266729176 0.004153192043304443 -0.10026318579912186
v 6.033586408271674e-10 1.4797293168555825e-08 -0.11149128526449203
v 1.8283594083179366e-10 -2.1519233617262046e-10 0.0018433233490213752
v 1.6455234397305674e-10 -0.0005621862947009504 0.001281137578189373
v -0.0018340698443353176 -0.0005621862947009504 0.0007897003670223057
v -0.0015529769007116556 -9.870747275098068e-11 0.0003028324863407761
v 1.3712694868495134e-10 -1.1689664514147324e-10 0.0007189518655650318
v -0.0015529769007116556 -9.870747275098068e-11 0.0003028324863407761
v 1.3712694868495134e-10 -1.1689664514147324e-10 0.0007189518655650318
v 1.6455234397305674e-10 0.000562185887247324 0.001281137578189373
v -0.0018340698443353176 0.000562185887247324 0.0007897003670223057
v -0.0021151627879589796 -1.9041869470104444e-10 0.001276568160392344
v -0.0021151627879589796 -1.9041869470104444e-10 0.001276568160392344
v 1.8283594083179366e-10 -2.1519233617262046e-10 0.0018433233490213752
v -0.0021151627879589796 -1.9041869470104444e-10 0.001276568160392344
v -0.003176702419295907 -0.0005621861782856286 -0.0005529321497306228
v -0.002689835149794817 -4.9013848535395255e-11 -0.0008340255590155721
v -0.0015529769007116556 -9.870747275098068e-11 0.0003028324863407761
v -0.002689835149794817 -4.9013848535395255e-11 -0.0008340255590155721
v -0.003176702419295907 0.0005621859454549849 -0.0005529321497306228
v -0.0036635699216276407 -1.2273566885045994e-10 -0.00027183874044567347
v -0.0036635699216276407 -1.2273566885045994e-10 -0.00027183874044567347
v -0.0036635699216276407 -1.2273566885045994e-10 -0.00027183874044567347
v -0.0036681401543319225 -0.0005621861200779676 -0.0023870018776506186
v -0.0031059542670845985 1.886890643731931e-11 -0.0023870018776506186
v -0.002689835149794817 -4.9013848535395255e-11 -0.0008340255590155721
v -0.0031059542670845985 1.886890643731931e-11 -0.0023870018776506186
v -0.0036681401543319225 0.0005621860618703067 -0.0023870018776506186
v -0.0042303260415792465 -3.027895989493601e-11 -0.0023870018776506186
v -0.0042303260415792465 -3.027895989493601e-11 -0.0023870018776506186
v -0.0042303260415792465 -3.027895989493601e-11 -0.0023870018776506186
v -0.003176702419295907 -0.0005621860618703067 -0.0042210728861391544
v -0.002689835149794817 8.675173079897291e-11 -0.003939978778362274
v -0.0031059542670845985 1.886890643731931e-11 -0.0023870018776506186
v -0.002689835149794817 8.675173079897291e-11 -0.003939978778362274
v -0.003176702419295907 0.0005621861200779676 -0.0042210728861391544
v -0.0036635699216276407 6.217774906058793e-11 -0.0045021651312708855
v -0.0036635699216276407 6.217774906058793e-11 -0.0045021651312708855
v 0.000636264740023762 2.1858695409271434e-10 -0.00808039028197527
v 7.496273046747604e-10 -0.0005621858290396631 -0.00808039028197527
v 0.0015793434577062726 -0.0005621859454549849 -0.00585599010810256
v 7.496273046747604e-10 -0.0005621858290396631 -0.00808039028197527
v 0.0011818180792033672 1.531267751486709e-10 -0.005458464380353689
v -0.0006334224017336965 2.677348620583331e-10 -0.00808039028197527
v 0.0011818180792033672 1.531267751486709e-10 -0.005458464380353689
v -0.0006334224017336965 2.677348620583331e-10 -0.00808039028197527
v 7.496273046747604e-10 0.0005621862947009504 -0.00808039028197527
v 0.0015793434577062726 0.0005621861782856286 -0.00585599010810256
v 0.0019768693018704653 1.3873172055589578e-10 -0.006253515835851431
v 7.496273046747604e-10 0.0005621862947009504 -0.00808039028197527
v 0.0019768693018704653 1.3873172055589578e-10 -0.006253515835851431
v 0.000636264740023762 2.1858695409271434e-10 -0.00808039028197527
v 0.0019768693018704653 1.3873172055589578e-10 -0.006253515835851431
v 0.003176702419295907 -0.0005621860618703067 -0.0042210728861391544
v 0.0011818180792033672 1.531267751486709e-10 -0.005458464380353689
v 0.002689835149794817 8.675173079897291e-11 -0.003939978778362274
v 0.003176702419295907 0.0005621861200779676 -0.0042210728861391544
v 0.0036635699216276407 6.217774906058793e-11 -0.0045021651312708855
v 0.0036635699216276407 6.217774906058793e-11 -0.0045021651312708855
v 0.0036681401543319225 -0.0005621861200779676 -0.002387003041803837
v 0.0031059542670845985 1.8868974091534874e-11 -0.002387003041803837
v 0.002689835149794817 8.675173079897291e-11 -0.003939978778362274
v 0.0031059542670845985 1.8868974091534874e-11 -0.002387003041803837
v 0.0036681401543319225 0.0005621860618703067 -0.002387003041803837
v 0.0042303260415792465 -3.027889050599697e-11 -0.002387003041803837
v 0.0042303260415792465 -3.027889050599697e-11 -0.002387003041803837
v 0.0042303260415792465 -3.027889050599697e-11 -0.002387003041803837
v 0.0031767028849571943 -0.0005621861782856286 -0.000552933372091502
v 0.0026898356154561043 -4.9013848535395255e-11 -0.0008340255590155721
v 0.0031059542670845985 1.8868974091534874e-11 -0.002387003041803837
v 0.0026898356154561043 -4.9013848535395255e-11 -0.0008340255590155721
v 0.0031767028849571943 0.0005621859454549849 -0.000552933372091502
v 0.003663570387288928 -1.2273566885045994e-10 -0.00027183990459889174
v 0.003663570387288928 -1.2273566885045994e-10 -0.00027183990459889174
v 0.003663570387288928 -1.2273566885045994e-10 -0.00027183990459889174
v 0.0018340711249038577 -0.0005621862947009504 0.0007896991446614265
v 0.001552977948449552 -9.870743805651117e-11 0.0003028324863407761
v 0.0026898356154561043 -4.9013848535395255e-11 -0.0008340255590155721
v 0.001552977948449552 -9.870743805651117e-11 0.0003028324863407761
v 0.0018340711249038577 0.000562185887247324 0.0007896991446614265
v 0.002115164417773485 -1.904186253121054e-10 0.0012765669962391257
v 0.002115164417773485 -1.904186253121054e-10 0.0012765669962391257
v 0.002115164417773485 -1.904186253121054e-10 0.0012765669962391257
v 1.3712694868495134e-10 -1.1689664514147324e-10 0.0007189518655650318
v 0.001552977948449552 -9.870743805651117e-11 0.0003028324863407761
v 1.8283594083179366e-10 -2.1519233617262046e-10 0.0018433233490213752
v 7.496273046747604e-10 -0.0005621858290396631 -0.00808039028197527
v 0.000636264740023762 2.1858695409271434e-10 -0.00808039028197527
v 7.454136197182493e-10 -0.0005621824529953301 -0.08610409498214722
v -0.0006334224017336965 2.677348620583331e-10 -0.00808039028197527
v 7.496273046747604e-10 -0.0005621858290396631 -0.00808039028197527
v -0.0006334224017336965 3.686365879218556e-09 -0.08610409498214722
v 7.496273046747604e-10 0.0005621862947009504 -0.00808039028197527
v -0.0006334224017336965 2.677348620583331e-10 -0.00808039028197527
v 7.454136197182493e-10 0.0005621896707452834 -0.08610409498214722
v 0.000636264740023762 2.1858695409271434e-10 -0.00808039028197527
v 0.000636264740023762 3.63721763818603e-09 -0.08610409498214722
v 7.496273046747604e-10 0.0005621862947009504 -0.00808039028197527
v 0.00042350246803835034 1.3334605419856871e-08 -0.08438432216644287
v 0.0031787033658474684 1.3453505864902127e-08 -0.08535878360271454
v -0.0004235020314808935 1.3554008582161714e-08 -0.08438432216644287
v -0.0031787033658474684 1.5045040768768558e-08 -0.08535878360271454
v 0.004153176676481962 1.3600646830980168e-08 -0.0868171826004982
v -0.004153176676481962 1.5680088338854148e-08 -0.0868171826004982
v 0.004495365545153618 1.3652316610546222e-08 -0.08853749185800552
v -0.004495365545153618 1.5903086847401937e-08 -0.08853749185800552
v 0.004495365545153618 1.4065299147603127e-08 -0.10026318579912186
v -0.004495365545153618 1.6316068496280423e-08 -0.10026318579912186
v 6.033586408271674e-10 1.4797293168555825e-08 -0.11149128526449203
v 6.033586408271674e-10 1.4797293168555825e-08 -0.11149128526449203
v 6.033586408271674e-10 1.4797293168555825e-08 -0.11149128526449203
v 6.033586408271674e-10 1.4797293168555825e-08 -0.11149128526449203
v 6.033586408271674e-10 1.4797293168555825e-08 -0.11149128526449203
v 6.033586408271674e-10 1.4797293168555825e-08 -0.11149128526449203
v 6.033586408271674e-10 1.4797293168555825e-08 -0.11149128526449203
v 6.033586408271674e-10 1.4797293168555825e-08 -0.11149128526449203
v 6.033586408271674e-10 1.4797293168555825e-08 -0.11149128526449203
v 6.033586408271674e-10 1.4797293168555825e-08 -0.11149128526449203
v 6.033586408271674e-10 1.4797293168555825e-08 -0.11149128526449203
v 6.033586408271674e-10 1.4797293168555825e-08 -0.11149128526449203
v 6.033586408271674e-10 1.4797293168555825e-08 -0.11149128526449203
v 6.033586408271674e-10 1.4797293168555825e-08 -0.11149128526449203
v 6.033586408271674e-10 1.4797293168555825e-08 -0.11149128526449203
g submesh_0
f 18 150 17
f 19 143 151
f 20 153 154
f 156 147 155
f 22 158 26
f 23 161 162
f 24 165 28
f 171 169 170
f 10 6 5
f 5 6 1
f 6 2 122
f 122 2 202
f 136 7 124
f 124 7 123
f 125 3 123
f 123 3 195
f 12 8 127
f 127 8 126
f 8 4 128
f 128 4 204
f 141 131 130
f 130 131 129
f 132 133 129
f 129 133 199
f 14 10 9
f 9 10 134
f 144 11 135
f 135 11 124
f 16 12 138
f 138 12 137
f 149 140 139
f 139 140 130
f 18 14 13
f 13 14 142
f 152 15 143
f 143 15 135
f 20 16 146
f 146 16 145
f 157 148 147
f 147 148 139
f 30 26 25
f 25 26 21
f 173 180 31
f 173 31 160
f 160 31 27
f 160 27 159
f 32 28 164
f 164 28 163
f 176 185 177
f 176 177 167
f 167 177 168
f 167 168 166
f 34 30 29
f 29 30 172
f 36 32 175
f 175 32 174
f 38 34 33
f 33 34 178
f 188 35 179
f 179 35 173
f 40 36 182
f 182 36 181
f 193 184 183
f 183 184 176
f 42 38 37
f 37 38 186
f 196 39 187
f 187 39 179
f 44 40 190
f 190 40 189
f 201 192 191
f 191 192 183
f 2 42 41
f 41 42 194
f 203 43 195
f 195 43 187
f 4 44 198
f 198 44 197
f 205 200 199
f 199 200 191
f 46 45 206
f 206 45 207
f 47 208 209
f 209 208 210
f 48 211 212
f 212 211 213
f 216 214 215
f 215 214 217
f 220 56 71
f 71 56 72
f 71 72 88
f 88 72 73
f 88 73 89
f 89 73 90
f 89 90 105
f 105 90 106
f 105 106 121
f 56 49 72
f 72 49 57
f 72 57 73
f 73 57 74
f 73 74 90
f 90 74 91
f 90 91 106
f 106 91 107
f 106 107 228
f 57 49 58
f 57 58 74
f 74 58 75
f 74 75 91
f 91 75 92
f 91 92 107
f 107 92 108
f 107 108 229
f 58 49 59
f 58 59 75
f 75 59 76
f 75 76 92
f 92 76 93
f 92 93 108
f 108 93 109
f 108 109 230
f 231 226 110
f 110 226 94
f 110 94 95
f 95 94 78
f 95 78 79
f 79 78 62
f 79 62 63
f 63 62 218
f 63 218 52
f 232 110 111
f 111 110 95
f 111 95 96
f 96 95 79
f 96 79 80
f 80 79 63
f 80 63 64
f 64 63 52
f 64 52 53
f 233 111 112
f 112 111 96
f 112 96 97
f 97 96 80
f 97 80 81
f 81 80 64
f 81 64 65
f 65 64 53
f 65 53 66
f 66 53 67
f 66 67 83
f 83 67 84
f 83 84 100
f 100 84 101
f 100 101 116
f 116 101 117
f 116 117 238
f 234 112 113
f 113 112 97
f 113 97 98
f 98 97 81
f 98 81 82
f 82 81 65
f 82 65 66
f 66 83 82
f 82 83 99
f 82 99 98
f 98 99 114
f 98 114 113
f 113 114 235
f 83 100 99
f 99 100 115
f 99 115 114
f 114 115 236
f 237 115 116
f 116 115 100
f 220 71 70
f 70 71 87
f 70 87 86
f 86 87 103
f 86 103 102
f 102 103 118
f 102 118 227
f 227 118 239
f 71 88 87
f 87 88 104
f 87 104 103
f 103 104 119
f 103 119 118
f 118 119 240
f 88 89 104
f 104 89 120
f 104 120 119
f 119 120 241
f 242 120 105
f 105 120 89
f 49 50 59
f 59 50 60
f 59 60 76
f 76 60 77
f 76 77 93
f 50 51 60
f 60 51 61
f 60 61 77
f 226 224 94
f 94 224 222
f 94 222 78
f 78 222 219
f 78 219 62
f 62 219 218
f 53 54 67
f 67 54 68
f 67 68 84
f 84 68 85
f 84 85 101
f 54 55 68
f 68 55 69
f 68 69 85
f 227 225 102
f 102 225 223
f 102 223 86
f 86 223 221
f 86 221 70
f 70 221 220
