# 15
v 0.13419856131076813 -0.1719740331172943 -0.10098438709974289
v 0.18035486340522766 -0.1719740331172943 -0.10098438709974289
v 0.18035486340522766 0.27802595496177673 -0.10098438709974289
v 0.31352078914642334 0.27802595496177673 -0.10098438709974289
v 0.36745360493659973 0.22459226846694946 -0.10098438709974289
v 0.36745360493659973 0.161317840218544 -0.10098438709974289
v 0.31392234563827515 0.161317840218544 -0.10098438709974289
v 0.31392234563827515 -0.1719740331172943 -0.10098438709974289
v 0.3600786626338959 -0.1719740331172943 -0.10098440200090408
v 0.3600786626338959 -0.27802592515945435 -0.10098440200090408
v 0.13419856131076813 -0.27802592515945435 -0.10098438709974289
v -0.36745360493659973 0.0048507689498364925 -0.10096368193626404
v -0.29012173414230347 0.08202596753835678 -0.10096368193626404
v -0.11845359206199646 0.08202596753835678 -0.10096368193626404
v -0.11845359206199646 0.17797406017780304 -0.10096368193626404
v -0.34234419465065 0.17797406017780304 -0.10096368193626404
v -0.34234419465065 0.27802595496177673 -0.10096368193626404
v 0.004598312079906464 0.27802595496177673 -0.10096368193626404
v 0.004598312079906464 -0.0030259513296186924 -0.10096368193626404
v -0.2384016364812851 -0.0030259513296186924 -0.10096368193626404
v -0.2384016364812851 -0.1719740331172943 -0.10096368193626404
v -0.11045356839895248 -0.1719740331172943 -0.10096368193626404
v -0.11045356839895248 -0.08897403627634048 -0.10096368193626404
v 0.014598311856389046 -0.08897403627634048 -0.10096368193626404
v 0.014598311856389046 -0.18889743089675903 -0.10096368193626404
v -0.07453016191720963 -0.27802595496177673 -0.10096368193626404
v -0.2764121890068054 -0.27802595496177673 -0.10096368193626404
v -0.36745360493659973 -0.18615396320819855 -0.10096368193626404
v 0.1082245409488678 -0.1459999978542328 -0.07501035183668137
v 0.15438081324100494 -0.1459999978542328 -0.07501034438610077
v 0.15438081324100494 0.30399999022483826 -0.07501034438610077
v 0.32420891523361206 0.30399999022483826 -0.07501035183668137
v 0.39342769980430603 0.23542192578315735 -0.07501035183668137
v 0.39342769980430603 0.1353437900543213 -0.07501035183668137
v 0.33989641070365906 0.1353437900543213 -0.07501035183668137
v 0.33989641070365906 -0.1459999978542328 -0.07501035183668137
v 0.386052668094635 -0.1459999978542328 -0.07501035183668137
v 0.386052668094635 -0.30399999022483826 -0.07501035183668137
v 0.1082245409488678 -0.30399999022483826 -0.07501035183668137
v -0.39342764019966125 0.015625 -0.07498964667320251
v -0.3008650839328766 0.1080000102519989 -0.07498964667320251
v -0.14442764222621918 0.1080000102519989 -0.07498964667320251
v -0.14442764222621918 0.15200002491474152 -0.07498964667320251
v -0.36831822991371155 0.15200002491474152 -0.07498964667320251
v -0.36831822991371155 0.30399999022483826 -0.07498964667320251
v 0.030572356656193733 0.30399999022483826 -0.07498964667320251
v 0.030572356656193733 -0.028999995440244675 -0.07498964667320251
v -0.21242758631706238 -0.028999995440244675 -0.07498964667320251
v -0.21242758631706238 -0.1459999978542328 -0.07498964667320251
v -0.1364276111125946 -0.1459999978542328 -0.07498964667320251
v -0.1364276111125946 -0.06299999356269836 -0.07498964667320251
v 0.040572356432676315 -0.06299999356269836 -0.07498964667320251
v 0.040572356432676315 -0.19965624809265137 -0.07498964667320251
v -0.06377135962247849 -0.30399999022483826 -0.07498964667320251
v -0.2872401475906372 -0.30399999022483826 -0.07498964667320251
v -0.39342764019966125 -0.19684375822544098 -0.07498964667320251
v 0.1082245409488678 -0.1459999978542328 0.07498964667320251
v 0.15438082814216614 -0.1459999978542328 0.07498963922262192
v 0.15438082814216614 0.30399999022483826 0.07498963922262192
v 0.32420891523361206 0.30399999022483826 0.07498964667320251
v 0.39342764019966125 0.23542192578315735 0.07498963922262192
v 0.39342764019966125 0.1353437900543213 0.07498963922262192
v 0.33989638090133667 0.1353437900543213 0.07498965412378311
v 0.33989638090133667 -0.1459999978542328 0.07498965412378311
v 0.386052668094635 -0.1459999978542328 0.07498964667320251
v 0.386052668094635 -0.30399999022483826 0.07498964667320251
v 0.1082245409488678 -0.30399999022483826 0.07498964667320251
v -0.39342764019966125 0.015625 0.07501035183668137
v -0.3008650839328766 0.1080000102519989 0.07501035183668137
v -0.14442764222621918 0.1080000102519989 0.07501035183668137
v -0.14442764222621918 0.15200002491474152 0.07501035183668137
v -0.36831822991371155 0.15200002491474152 0.07501035183668137
v -0.36831822991371155 0.30399999022483826 0.07501035183668137
v 0.030572356656193733 0.30399999022483826 0.07501035183668137
v 0.030572356656193733 -0.028999995440244675 0.07501035183668137
v -0.21242758631706238 -0.028999995440244675 0.07501035183668137
v -0.21242758631706238 -0.1459999978542328 0.07501035183668137
v -0.1364276111125946 -0.1459999978542328 0.07501035183668137
v -0.1364276111125946 -0.06299999356269836 0.07501035183668137
v 0.040572356432676315 -0.06299999356269836 0.07501035183668137
v 0.040572356432676315 -0.19965624809265137 0.07501035183668137
v -0.06377135962247849 -0.30399999022483826 0.07501035183668137
v -0.2872401475906372 -0.30399999022483826 0.07501035183668137
v -0.39342764019966125 -0.19684375822544098 0.07501035183668137
v 0.13419859111309052 -0.1719740331172943 0.10096370428800583
v 0.18035483360290527 -0.1719740331172943 0.10096370428800583
v 0.18035483360290527 0.27802595496177673 0.10096370428800583
v 0.31352078914642334 0.27802595496177673 0.10096368193626404
v 0.36745360493659973 0.22459226846694946 0.10096370428800583
v 0.36745360493659973 0.161317840218544 0.10096370428800583
v 0.31392234563827515 0.161317840218544 0.10096368193626404
v 0.31392234563827515 -0.1719740331172943 0.10096368193626404
v 0.3600786626338959 -0.1719740331172943 0.10096370428800583
v 0.3600786626338959 -0.27802592515945435 0.10096370428800583
v 0.13419859111309052 -0.27802592515945435 0.10096370428800583
v -0.36745360493659973 0.0048507689498364925 0.10098440200090408
v -0.29012173414230347 0.08202596753835678 0.10098440200090408
v -0.11845359206199646 0.08202596753835678 0.10098440200090408
v -0.11845359206199646 0.17797406017780304 0.10098440200090408
v -0.34234419465065 0.17797406017780304 0.10098440200090408
v -0.34234419465065 0.27802595496177673 0.10098440200090408
v 0.004598312079906464 0.27802595496177673 0.10098440200090408
v 0.004598312079906464 -0.0030259513296186924 0.10098440200090408
v -0.2384016364812851 -0.0030259513296186924 0.10098440200090408
v -0.2384016364812851 -0.1719740331172943 0.10098440200090408
v -0.11045356839895248 -0.1719740331172943 0.10098440200090408
v -0.11045356839895248 -0.08897403627634048 0.10098440200090408
v 0.014598311856389046 -0.08897403627634048 0.10098440200090408
v 0.014598311856389046 -0.18889743089675903 0.10098440200090408
v -0.07453016191720963 -0.27802595496177673 0.10098440200090408
v -0.2764121890068054 -0.27802595496177673 0.10098440200090408
v -0.36745360493659973 -0.18615396320819855 0.10098440200090408
v 0.15438081324100494 -0.1459999978542328 -0.07501034438610077
v 0.15438082814216614 -0.1459999978542328 0.07498963922262192
v 0.15438081324100494 0.30399999022483826 -0.07501034438610077
v 0.15438082814216614 0.30399999022483826 0.07498963922262192
v 0.32420891523361206 0.30399999022483826 -0.07501035183668137
v 0.32420891523361206 0.30399999022483826 0.07498964667320251
v 0.39342769980430603 0.23542192578315735 -0.07501035183668137
v 0.39342764019966125 0.23542192578315735 0.07498963922262192
v 0.39342769980430603 0.1353437900543213 -0.07501035183668137
v 0.39342764019966125 0.1353437900543213 0.07498963922262192
v 0.33989641070365906 0.1353437900543213 -0.07501035183668137
v 0.33989638090133667 0.1353437900543213 0.07498965412378311
v 0.33989641070365906 -0.1459999978542328 -0.07501035183668137
v 0.33989638090133667 -0.1459999978542328 0.07498965412378311
v 0.386052668094635 -0.1459999978542328 -0.07501035183668137
v 0.386052668094635 -0.1459999978542328 0.07498964667320251
v 0.386052668094635 -0.30399999022483826 -0.07501035183668137
v 0.386052668094635 -0.30399999022483826 0.07498964667320251
v 0.1082245409488678 -0.30399999022483826 -0.07501035183668137
v 0.1082245409488678 -0.30399999022483826 0.07498964667320251
v 0.1082245409488678 -0.1459999978542328 -0.07501035183668137
v 0.1082245409488678 -0.1459999978542328 0.07498964667320251
v -0.3008650839328766 0.1080000102519989 -0.07498964667320251
v -0.3008650839328766 0.1080000102519989 0.07501035183668137
v -0.14442764222621918 0.1080000102519989 -0.07498964667320251
v -0.14442764222621918 0.1080000102519989 0.07501035183668137
v -0.14442764222621918 0.15200002491474152 -0.07498964667320251
v -0.14442764222621918 0.15200002491474152 0.07501035183668137
v -0.36831822991371155 0.15200002491474152 -0.07498964667320251
v -0.36831822991371155 0.15200002491474152 0.07501035183668137
v -0.36831822991371155 0.30399999022483826 -0.07498964667320251
v -0.36831822991371155 0.30399999022483826 0.07501035183668137
v 0.030572356656193733 0.30399999022483826 -0.07498964667320251
v 0.030572356656193733 0.30399999022483826 0.07501035183668137
v 0.030572356656193733 -0.028999995440244675 -0.07498964667320251
v 0.030572356656193733 -0.028999995440244675 0.07501035183668137
v -0.21242758631706238 -0.028999995440244675 -0.07498964667320251
v -0.21242758631706238 -0.028999995440244675 0.07501035183668137
v -0.21242758631706238 -0.1459999978542328 -0.07498964667320251
v -0.21242758631706238 -0.1459999978542328 0.07501035183668137
v -0.1364276111125946 -0.1459999978542328 -0.07498964667320251
v -0.1364276111125946 -0.1459999978542328 0.07501035183668137
v -0.1364276111125946 -0.06299999356269836 -0.07498964667320251
v -0.1364276111125946 -0.06299999356269836 0.07501035183668137
v 0.040572356432676315 -0.06299999356269836 -0.07498964667320251
v 0.040572356432676315 -0.06299999356269836 0.07501035183668137
v 0.040572356432676315 -0.19965624809265137 -0.07498964667320251
v -0.06377135962247849 -0.30399999022483826 -0.07498964667320251
v -0.06377135962247849 -0.30399999022483826 0.07501035183668137
v -0.2872401475906372 -0.30399999022483826 -0.07498964667320251
v -0.2872401475906372 -0.30399999022483826 0.07501035183668137
v -0.39342764019966125 0.015625 -0.07498964667320251
v -0.39342764019966125 0.015625 0.07501035183668137
v 0.15438081324100494 -0.1459999978542328 -0.07501034438610077
v 0.13419856131076813 -0.1719740331172943 -0.10098438709974289
v 0.1082245409488678 -0.1459999978542328 -0.07501035183668137
v 0.18035486340522766 -0.1719740331172943 -0.10098438709974289
v 0.15438081324100494 0.30399999022483826 -0.07501034438610077
v 0.18035486340522766 -0.1719740331172943 -0.10098438709974289
v 0.15438081324100494 -0.1459999978542328 -0.07501034438610077
v 0.18035486340522766 0.27802595496177673 -0.10098438709974289
v 0.32420891523361206 0.30399999022483826 -0.07501035183668137
v 0.18035486340522766 0.27802595496177673 -0.10098438709974289
v 0.15438081324100494 0.30399999022483826 -0.07501034438610077
v 0.18035486340522766 0.27802595496177673 -0.10098438709974289
v 0.31352078914642334 0.27802595496177673 -0.10098438709974289
v 0.39342769980430603 0.23542192578315735 -0.07501035183668137
v 0.32420891523361206 0.30399999022483826 -0.07501035183668137
v 0.36745360493659973 0.22459226846694946 -0.10098438709974289
v 0.39342769980430603 0.1353437900543213 -0.07501035183668137
v 0.39342769980430603 0.23542192578315735 -0.07501035183668137
v 0.36745360493659973 0.161317840218544 -0.10098438709974289
v 0.33989641070365906 0.1353437900543213 -0.07501035183668137
v 0.39342769980430603 0.1353437900543213 -0.07501035183668137
v 0.31392234563827515 0.161317840218544 -0.10098438709974289
v 0.33989641070365906 -0.1459999978542328 -0.07501035183668137
v 0.33989641070365906 0.1353437900543213 -0.07501035183668137
v 0.31392234563827515 -0.1719740331172943 -0.10098438709974289
v 0.386052668094635 -0.1459999978542328 -0.07501035183668137
v 0.31392234563827515 -0.1719740331172943 -0.10098438709974289
v 0.33989641070365906 -0.1459999978542328 -0.07501035183668137
v 0.31392234563827515 -0.1719740331172943 -0.10098438709974289
v 0.3600786626338959 -0.1719740331172943 -0.10098440200090408
v 0.3600786626338959 -0.1719740331172943 -0.10098440200090408
v 0.3600786626338959 -0.27802592515945435 -0.10098440200090408
v 0.1082245409488678 -0.30399999022483826 -0.07501035183668137
v 0.3600786626338959 -0.27802592515945435 -0.10098440200090408
v 0.386052668094635 -0.30399999022483826 -0.07501035183668137
v 0.1082245409488678 -0.30399999022483826 -0.07501035183668137
v 0.13419856131076813 -0.27802592515945435 -0.10098438709974289
v 0.1082245409488678 -0.1459999978542328 -0.07501035183668137
v 0.1082245409488678 -0.30399999022483826 -0.07501035183668137
v 0.13419856131076813 -0.1719740331172943 -0.10098438709974289
v -0.3008650839328766 0.1080000102519989 -0.07498964667320251
v -0.36745360493659973 0.0048507689498364925 -0.10096368193626404
v -0.39342764019966125 0.015625 -0.07498964667320251
v -0.29012173414230347 0.08202596753835678 -0.10096368193626404
v -0.14442764222621918 0.1080000102519989 -0.07498964667320251
v -0.11845359206199646 0.08202596753835678 -0.10096368193626404
v -0.14442764222621918 0.15200002491474152 -0.07498964667320251
v -0.14442764222621918 0.1080000102519989 -0.07498964667320251
v -0.11845359206199646 0.17797406017780304 -0.10096368193626404
v -0.36831822991371155 0.15200002491474152 -0.07498964667320251
v -0.14442764222621918 0.15200002491474152 -0.07498964667320251
v -0.34234419465065 0.17797406017780304 -0.10096368193626404
v -0.36831822991371155 0.30399999022483826 -0.07498964667320251
v -0.34234419465065 0.17797406017780304 -0.10096368193626404
v -0.36831822991371155 0.15200002491474152 -0.07498964667320251
v -0.34234419465065 0.27802595496177673 -0.10096368193626404
v 0.030572356656193733 0.30399999022483826 -0.07498964667320251
v -0.34234419465065 0.27802595496177673 -0.10096368193626404
v -0.36831822991371155 0.30399999022483826 -0.07498964667320251
v 0.004598312079906464 0.27802595496177673 -0.10096368193626404
v 0.030572356656193733 -0.028999995440244675 -0.07498964667320251
v 0.030572356656193733 0.30399999022483826 -0.07498964667320251
v 0.004598312079906464 -0.0030259513296186924 -0.10096368193626404
v -0.21242758631706238 -0.028999995440244675 -0.07498964667320251
v 0.030572356656193733 -0.028999995440244675 -0.07498964667320251
v -0.2384016364812851 -0.0030259513296186924 -0.10096368193626404
v -0.21242758631706238 -0.1459999978542328 -0.07498964667320251
v -0.21242758631706238 -0.028999995440244675 -0.07498964667320251
v -0.2384016364812851 -0.1719740331172943 -0.10096368193626404
v -0.1364276111125946 -0.1459999978542328 -0.07498964667320251
v -0.21242758631706238 -0.1459999978542328 -0.07498964667320251
v -0.11045356839895248 -0.1719740331172943 -0.10096368193626404
v -0.1364276111125946 -0.06299999356269836 -0.07498964667320251
v -0.1364276111125946 -0.1459999978542328 -0.07498964667320251
v -0.11045356839895248 -0.08897403627634048 -0.10096368193626404
v 0.040572356432676315 -0.06299999356269836 -0.07498964667320251
v -0.1364276111125946 -0.06299999356269836 -0.07498964667320251
v 0.014598311856389046 -0.08897403627634048 -0.10096368193626404
v 0.040572356432676315 -0.19965624809265137 -0.07498964667320251
v 0.040572356432676315 -0.06299999356269836 -0.07498964667320251
v 0.014598311856389046 -0.18889743089675903 -0.10096368193626404
v -0.06377135962247849 -0.30399999022483826 -0.07498964667320251
v 0.040572356432676315 -0.19965624809265137 -0.07498964667320251
v -0.07453016191720963 -0.27802595496177673 -0.10096368193626404
v -0.2872401475906372 -0.30399999022483826 -0.07498964667320251
v -0.06377135962247849 -0.30399999022483826 -0.07498964667320251
v -0.2764121890068054 -0.27802595496177673 -0.10096368193626404
v -0.39342764019966125 -0.19684375822544098 -0.07498964667320251
v -0.2872401475906372 -0.30399999022483826 -0.07498964667320251
v -0.36745360493659973 -0.18615396320819855 -0.10096368193626404
v -0.39342764019966125 0.015625 -0.07498964667320251
v -0.39342764019966125 -0.19684375822544098 -0.07498964667320251
v 0.1082245409488678 -0.1459999978542328 0.07498964667320251
v 0.18035483360290527 -0.1719740331172943 0.10096370428800583
v 0.15438082814216614 -0.1459999978542328 0.07498963922262192
v 0.13419859111309052 -0.1719740331172943 0.10096370428800583
v 0.18035483360290527 0.27802595496177673 0.10096370428800583
v 0.18035483360290527 -0.1719740331172943 0.10096370428800583
v 0.15438082814216614 0.30399999022483826 0.07498963922262192
v 0.31352078914642334 0.27802595496177673 0.10096368193626404
v 0.32420891523361206 0.30399999022483826 0.07498964667320251
v 0.18035483360290527 0.27802595496177673 0.10096370428800583
v 0.36745360493659973 0.22459226846694946 0.10096370428800583
v 0.39342764019966125 0.23542192578315735 0.07498963922262192
v 0.39342764019966125 0.23542192578315735 0.07498963922262192
v 0.36745360493659973 0.161317840218544 0.10096370428800583
v 0.39342764019966125 0.1353437900543213 0.07498963922262192
v 0.39342764019966125 0.1353437900543213 0.07498963922262192
v 0.31392234563827515 0.161317840218544 0.10096368193626404
v 0.33989638090133667 0.1353437900543213 0.07498965412378311
v 0.31392234563827515 0.161317840218544 0.10096368193626404
v 0.39342764019966125 0.1353437900543213 0.07498963922262192
v 0.36745360493659973 0.161317840218544 0.10096370428800583
v 0.33989638090133667 0.1353437900543213 0.07498965412378311
v 0.31392234563827515 -0.1719740331172943 0.10096368193626404
v 0.33989638090133667 -0.1459999978542328 0.07498965412378311
v 0.31392234563827515 0.161317840218544 0.10096368193626404
v 0.33989638090133667 -0.1459999978542328 0.07498965412378311
v 0.3600786626338959 -0.1719740331172943 0.10096370428800583
v 0.386052668094635 -0.1459999978542328 0.07498964667320251
v 0.31392234563827515 -0.1719740331172943 0.10096368193626404
v 0.386052668094635 -0.1459999978542328 0.07498964667320251
v 0.3600786626338959 -0.27802592515945435 0.10096370428800583
v 0.386052668094635 -0.30399999022483826 0.07498964667320251
v 0.3600786626338959 -0.1719740331172943 0.10096370428800583
v 0.386052668094635 -0.30399999022483826 0.07498964667320251
v 0.13419859111309052 -0.27802592515945435 0.10096370428800583
v 0.1082245409488678 -0.30399999022483826 0.07498964667320251
v 0.3600786626338959 -0.27802592515945435 0.10096370428800583
v 0.13419859111309052 -0.1719740331172943 0.10096370428800583
v 0.13419859111309052 -0.27802592515945435 0.10096370428800583
v -0.39342764019966125 0.015625 0.07501035183668137
v -0.29012173414230347 0.08202596753835678 0.10098440200090408
v -0.3008650839328766 0.1080000102519989 0.07501035183668137
v -0.36745360493659973 0.0048507689498364925 0.10098440200090408
v -0.3008650839328766 0.1080000102519989 0.07501035183668137
v -0.11845359206199646 0.08202596753835678 0.10098440200090408
v -0.14442764222621918 0.1080000102519989 0.07501035183668137
v -0.11845359206199646 0.17797406017780304 0.10098440200090408
v -0.11845359206199646 0.08202596753835678 0.10098440200090408
v -0.14442764222621918 0.15200002491474152 0.07501035183668137
v -0.34234419465065 0.17797406017780304 0.10098440200090408
v -0.36831822991371155 0.15200002491474152 0.07501035183668137
v -0.11845359206199646 0.17797406017780304 0.10098440200090408
v -0.34234419465065 0.27802595496177673 0.10098440200090408
v -0.34234419465065 0.17797406017780304 0.10098440200090408
v -0.36831822991371155 0.30399999022483826 0.07501035183668137
v 0.004598312079906464 0.27802595496177673 0.10098440200090408
v 0.030572356656193733 0.30399999022483826 0.07501035183668137
v -0.34234419465065 0.27802595496177673 0.10098440200090408
v 0.030572356656193733 0.30399999022483826 0.07501035183668137
v 0.004598312079906464 -0.0030259513296186924 0.10098440200090408
v 0.030572356656193733 -0.028999995440244675 0.07501035183668137
v 0.004598312079906464 0.27802595496177673 0.10098440200090408
v 0.030572356656193733 -0.028999995440244675 0.07501035183668137
v -0.2384016364812851 -0.0030259513296186924 0.10098440200090408
v -0.21242758631706238 -0.028999995440244675 0.07501035183668137
v 0.004598312079906464 -0.0030259513296186924 0.10098440200090408
v -0.21242758631706238 -0.028999995440244675 0.07501035183668137
v -0.2384016364812851 -0.1719740331172943 0.10098440200090408
v -0.21242758631706238 -0.1459999978542328 0.07501035183668137
v -0.2384016364812851 -0.0030259513296186924 0.10098440200090408
v -0.21242758631706238 -0.1459999978542328 0.07501035183668137
v -0.11045356839895248 -0.1719740331172943 0.10098440200090408
v -0.1364276111125946 -0.1459999978542328 0.07501035183668137
v -0.2384016364812851 -0.1719740331172943 0.10098440200090408
v -0.11045356839895248 -0.08897403627634048 0.10098440200090408
v -0.11045356839895248 -0.1719740331172943 0.10098440200090408
v -0.1364276111125946 -0.06299999356269836 0.07501035183668137
v 0.014598311856389046 -0.08897403627634048 0.10098440200090408
v 0.040572356432676315 -0.06299999356269836 0.07501035183668137
v -0.11045356839895248 -0.08897403627634048 0.10098440200090408
v 0.040572356432676315 -0.06299999356269836 0.07501035183668137
v 0.014598311856389046 -0.18889743089675903 0.10098440200090408
v 0.040572356432676315 -0.19965624809265137 0.07501035183668137
v 0.014598311856389046 -0.08897403627634048 0.10098440200090408
v 0.040572356432676315 -0.19965624809265137 0.07501035183668137
v -0.07453016191720963 -0.27802595496177673 0.10098440200090408
v -0.06377135962247849 -0.30399999022483826 0.07501035183668137
v -0.2764121890068054 -0.27802595496177673 0.10098440200090408
v -0.2872401475906372 -0.30399999022483826 0.07501035183668137
v -0.2872401475906372 -0.30399999022483826 0.07501035183668137
v -0.36745360493659973 -0.18615396320819855 0.10098440200090408
v -0.39342764019966125 0.015625 0.07501035183668137
g submesh_0
f 176 174 175
f 178 177 174
f 193 191 192
f 195 194 191
f 200 198 199
f 202 199 201
f 275 273 274
f 278 276 277
f 58 30 57
f 57 30 29
f 262 59 114
f 114 59 31
f 114 31 113
f 60 32 116
f 116 32 115
f 61 33 118
f 118 33 117
f 62 34 120
f 120 34 119
f 63 35 122
f 122 35 121
f 64 36 124
f 124 36 123
f 65 37 126
f 126 37 125
f 196 127 38
f 38 127 128
f 38 128 66
f 67 39 130
f 130 39 129
f 295 134 132
f 132 134 133
f 132 133 131
f 69 41 68
f 68 41 40
f 70 42 136
f 136 42 135
f 304 71 138
f 138 71 43
f 138 43 137
f 72 44 140
f 140 44 139
f 310 73 142
f 142 73 45
f 142 45 141
f 74 46 144
f 144 46 143
f 75 47 146
f 146 47 145
f 76 48 148
f 148 48 147
f 77 49 150
f 150 49 149
f 78 50 152
f 152 50 151
f 332 79 154
f 154 79 51
f 154 51 153
f 80 52 156
f 156 52 155
f 81 53 158
f 158 53 157
f 82 54 81
f 81 54 159
f 83 55 161
f 161 55 160
f 165 164 84
f 84 164 56
f 84 56 163
f 163 56 162
f 92 91 86
f 92 86 94
f 94 86 85
f 94 85 95
f 93 92 94
f 90 89 91
f 91 89 88
f 91 88 87
f 111 110 106
f 106 110 109
f 106 109 107
f 107 109 108
f 104 103 98
f 98 103 102
f 98 102 99
f 99 102 101
f 99 101 100
f 7 8 2
f 2 8 10
f 2 10 1
f 1 10 11
f 10 8 9
f 3 4 7
f 7 4 5
f 7 5 6
f 26 27 22
f 26 22 25
f 25 22 23
f 25 23 24
f 16 17 15
f 15 17 18
f 15 18 14
f 14 18 19
f 14 19 20
f 168 166 167
f 167 166 169
f 172 170 171
f 171 170 173
f 180 179 178
f 178 179 181
f 183 182 181
f 181 182 184
f 186 185 184
f 184 185 187
f 189 188 187
f 187 188 190
f 197 196 38
f 204 203 202
f 202 203 205
f 210 211 209
f 210 209 206
f 206 209 207
f 206 207 208
f 213 212 211
f 211 212 214
f 216 215 214
f 214 215 217
f 220 218 219
f 219 218 221
f 224 222 223
f 223 222 225
f 227 226 225
f 225 226 228
f 230 229 228
f 228 229 231
f 233 232 231
f 231 232 234
f 236 235 234
f 234 235 237
f 239 238 237
f 237 238 240
f 242 241 240
f 240 241 243
f 245 244 243
f 243 244 246
f 248 247 246
f 246 247 249
f 251 250 249
f 249 250 252
f 254 253 252
f 252 253 255
f 257 256 255
f 255 256 207
f 260 258 259
f 259 258 261
f 263 262 114
f 268 269 266
f 268 266 265
f 265 266 264
f 265 264 267
f 272 270 271
f 271 270 268
f 281 279 280
f 280 279 282
f 285 283 284
f 284 283 286
f 289 287 288
f 288 287 290
f 293 291 292
f 292 291 294
f 296 295 132
f 299 297 298
f 298 297 300
f 303 301 302
f 302 301 298
f 305 304 138
f 308 306 307
f 307 306 309
f 311 310 142
f 314 312 313
f 313 312 315
f 318 316 317
f 317 316 319
f 322 320 321
f 321 320 323
f 326 324 325
f 325 324 327
f 330 328 329
f 329 328 331
f 333 332 154
f 336 334 335
f 335 334 337
f 340 338 339
f 339 338 341
f 345 346 344
f 345 344 343
f 343 344 342
f 343 342 339
f 300 349 84
f 300 84 348
f 348 84 347
f 348 347 345
f 86 91 87
f 96 112 105
f 105 112 111
f 105 111 106
f 98 97 104
f 104 97 96
f 104 96 105
f 3 7 2
f 22 27 21
f 21 27 28
f 21 28 12
f 21 12 20
f 20 12 13
f 20 13 14
