# biplane_prop
v -0.0001440215128241107 -4.557371084956685e-06 -0.00013399156159721315
v -0.0001440215128241107 -9.718179353512824e-05 -9.562497871229425e-05
v -0.0001440215128241107 -0.00013554930046666414 -2.9998527679708786e-06
v -0.0001440215128241107 -9.718179353512824e-05 8.962528227129951e-05
v -0.0001440215128241107 -4.557371084956685e-06 0.00012799189426004887
v -0.00014402135275304317 8.806824189377949e-05 8.962529682321474e-05
v -0.00014402135275304317 0.00012643456284422427 -2.9998225272720447e-06
v -0.00014402135275304317 8.806824189377949e-05 -9.56249496084638e-05
v -2.190142731706146e-05 -4.557371084956685e-06 -0.00013399156159721315
v -2.190142731706146e-05 -9.718179353512824e-05 -9.562499326420948e-05
v -2.190142731706146e-05 -0.00013554930046666414 -2.999857542818063e-06
v -2.190142731706146e-05 -9.718179353512824e-05 8.962528227129951e-05
v -2.190142731706146e-05 -4.557371084956685e-06 0.00012799187970813364
v -2.1901279978919774e-05 8.806824189377949e-05 8.96252749953419e-05
v -2.1901279978919774e-05 0.00012643456284422427 -2.999827302119229e-06
v -2.1901279978919774e-05 8.806824189377949e-05 -9.562495688442141e-05
v 8.835151675157249e-05 -4.557371084956685e-06 -0.00010229053441435099
v 8.835151675157249e-05 -7.476568134734407e-05 -7.32089756638743e-05
v 8.835151675157249e-05 -0.00010384797496953979 -2.9998598165548174e-06
v 8.835166227072477e-05 -7.47668746043928e-05 6.720925739500672e-05
v 8.835151675157249e-05 -4.557371084956685e-06 9.629084524931386e-05
v 8.835151675157249e-05 6.565212970599532e-05 6.720927194692194e-05
v 8.835166227072477e-05 9.473323734709993e-05 -2.9998434456501855e-06
v 8.835151675157249e-05 6.565212970599532e-05 -7.320894656004384e-05
v 0.0001440215128241107 -4.557371084956685e-06 -2.999855041707633e-06
v -1.0570436643320136e-05 3.4390686778351665e-05 6.401673454092816e-05
v 1.7527341697132215e-05 -3.1676292564952746e-05 6.401672726497054e-05
v -5.0812213885365054e-05 9.186267561744899e-05 0.0004653266223613173
v 5.776926627731882e-05 -8.914827776607126e-05 0.00046532656415365636
v -5.0812213885365054e-05 9.186267561744899e-05 0.0008193686371669173
v 5.776941543444991e-05 -8.914827776607126e-05 0.0008193686953745782
v -2.532079815864563e-05 5.545615931623615e-05 0.0010193412890657783
v 3.227799970773049e-05 -5.274295835988596e-05 0.0010193411726504564
v 4.190236359136179e-05 -1.4609097888751421e-05 6.401673454092816e-05
v 8.21444409666583e-05 -7.207989256130531e-05 0.0004653265932574868
v 8.21444409666583e-05 -7.207989256130531e-05 0.0008193686371669173
v 5.665302160196006e-05 -3.567456951714121e-05 0.0010193412890657783
v -1.0570436643320136e-05 4.9620866775512695e-05 -4.255339445080608e-05
v 1.7527341697132215e-05 4.9620866775512695e-05 2.3513865016866475e-05
v -5.0812363042496145e-05 0.0004509305872488767 -0.00010002488124882802
v 5.776926627731882e-05 0.0004509305872488767 8.098523539956659e-05
v -5.0812512199627236e-05 0.0008049726020544767 -0.00010002493945648894
v 5.776926627731882e-05 0.0008049726020544767 8.09851917438209e-05
v -2.532109647290781e-05 0.001004945021122694 -6.361937266774476e-05
v 3.2277701393468305e-05 0.001004945021122694 4.457956674741581e-05
v 4.190251274849288e-05 4.9620866775512695e-05 6.446230599976843e-06
v 8.21444409666583e-05 0.0004509305872488767 6.39175996184349e-05
v 8.21442881715484e-05 0.0008049726020544767 6.391754141077399e-05
v 5.665287244482897e-05 0.001004945021122694 2.7511916414368898e-05
v -1.0570436643320136e-05 -4.961967351846397e-05 3.2047548302216455e-05
v 1.7527341697132215e-05 -4.961967351846397e-05 -3.401972935535014e-05
v -5.0812213885365054e-05 -0.00045092939399182796 8.95189368748106e-05
v 5.776941543444991e-05 -0.00045092939399182796 -9.149121615337208e-05
v -5.081206472823396e-05 -0.0008049726020544767 8.951887866714969e-05
v 5.7769564591581e-05 -0.0008049726020544767 -9.149126708507538e-05
v -2.532079815864563e-05 -0.001004945021122694 5.3113268222659826e-05
v 3.227799970773049e-05 -0.001004945021122694 -5.50857002963312e-05
v 4.190251274849288e-05 -4.961967351846397e-05 -1.695209175522905e-05
v 8.214458648581058e-05 -0.00045092939399182796 -7.44235803722404e-05
v 8.214473200496286e-05 -0.0008049726020544767 -7.442362402798608e-05
v 5.6653170759091154e-05 -0.001004945021122694 -3.801806451519951e-05
v -1.0570436643320136e-05 -4.021048516733572e-05 -6.40165526419878e-05
v 1.7527341697132215e-05 2.5857685614028014e-05 -6.401654536603019e-05
v -5.0812363042496145e-05 -9.768128074938431e-05 -0.0004653264186345041
v 5.776941543444991e-05 8.332848665304482e-05 -0.000465326476842165
v -5.0812363042496145e-05 -9.768128074938431e-05 -0.0008193686371669173
v 5.776941543444991e-05 8.332848665304482e-05 -0.0008193685789592564
v -2.532094731577672e-05 -6.12759540672414e-05 -0.0010193410562351346
v 3.2277850550599396e-05 4.6923159970901906e-05 -0.0010193410562351346
v 4.190251274849288e-05 8.789300409262069e-06 -6.401654536603019e-05
v 8.21444409666583e-05 6.626128742936999e-05 -0.00046532644773833454
v 8.21444409666583e-05 6.626128742936999e-05 -0.0008193686371669173
v 5.665287244482897e-05 2.9854772947146557e-05 -0.0010193410562351346
v -0.0001440215128241107 -4.557371084956685e-06 0.00012799189426004887
v -2.190142731706146e-05 -4.557371084956685e-06 0.00012799187970813364
v -2.190142731706146e-05 -4.557371084956685e-06 -0.00013399156159721315
v -0.0001440215128241107 -4.557371084956685e-06 -0.00013399156159721315
v 8.835151675157249e-05 -4.557371084956685e-06 9.629084524931386e-05
v 8.835151675157249e-05 -4.557371084956685e-06 -0.00010229053441435099
v 0.0001440215128241107 -4.557371084956685e-06 -2.999855041707633e-06
v 0.0001440215128241107 -4.557371084956685e-06 -2.999855041707633e-06
v 0.0001440215128241107 -4.557371084956685e-06 -2.999855041707633e-06
v 0.0001440215128241107 -4.557371084956685e-06 -2.999855041707633e-06
v 0.0001440215128241107 -4.557371084956685e-06 -2.999855041707633e-06
v 0.0001440215128241107 -4.557371084956685e-06 -2.999855041707633e-06
v 0.0001440215128241107 -4.557371084956685e-06 -2.999855041707633e-06
v -1.0570436643320136e-05 3.4390686778351665e-05 6.401673454092816e-05
v -5.0812213885365054e-05 9.186267561744899e-05 0.0004653266223613173
v -5.0812213885365054e-05 9.186267561744899e-05 0.0008193686371669173
v -2.532079815864563e-05 5.545615931623615e-05 0.0010193412890657783
v 1.7527341697132215e-05 -3.1676292564952746e-05 6.401672726497054e-05
v 8.21444409666583e-05 -7.207989256130531e-05 0.0004653265932574868
v 5.776926627731882e-05 -8.914827776607126e-05 0.00046532656415365636
v 4.190236359136179e-05 -1.4609097888751421e-05 6.401673454092816e-05
v 8.21444409666583e-05 -7.207989256130531e-05 0.0008193686371669173
v 5.776941543444991e-05 -8.914827776607126e-05 0.0008193686953745782
v 5.665302160196006e-05 -3.567456951714121e-05 0.0010193412890657783
v 3.227799970773049e-05 -5.274295835988596e-05 0.0010193411726504564
v -2.532079815864563e-05 5.545615931623615e-05 0.0010193412890657783
v 3.227799970773049e-05 -5.274295835988596e-05 0.0010193411726504564
v 5.665302160196006e-05 -3.567456951714121e-05 0.0010193412890657783
v -1.0570436643320136e-05 4.9620866775512695e-05 -4.255339445080608e-05
v -5.0812363042496145e-05 0.0004509305872488767 -0.00010002488124882802
v -5.0812512199627236e-05 0.0008049726020544767 -0.00010002493945648894
v -2.532109647290781e-05 0.001004945021122694 -6.361937266774476e-05
v 1.7527341697132215e-05 4.9620866775512695e-05 2.3513865016866475e-05
v 8.21444409666583e-05 0.0004509305872488767 6.39175996184349e-05
v 5.776926627731882e-05 0.0004509305872488767 8.098523539956659e-05
v 4.190251274849288e-05 4.9620866775512695e-05 6.446230599976843e-06
v 8.21442881715484e-05 0.0008049726020544767 6.391754141077399e-05
v 5.776926627731882e-05 0.0008049726020544767 8.09851917438209e-05
v 5.665287244482897e-05 0.001004945021122694 2.7511916414368898e-05
v 3.2277701393468305e-05 0.001004945021122694 4.457956674741581e-05
v -2.532109647290781e-05 0.001004945021122694 -6.361937266774476e-05
v 3.2277701393468305e-05 0.001004945021122694 4.457956674741581e-05
v 5.665287244482897e-05 0.001004945021122694 2.7511916414368898e-05
v -1.0570436643320136e-05 -4.961967351846397e-05 3.2047548302216455e-05
v -5.0812213885365054e-05 -0.00045092939399182796 8.95189368748106e-05
v -5.081206472823396e-05 -0.0008049726020544767 8.951887866714969e-05
v -2.532079815864563e-05 -0.001004945021122694 5.3113268222659826e-05
v 1.7527341697132215e-05 -4.961967351846397e-05 -3.401972935535014e-05
v 8.214458648581058e-05 -0.00045092939399182796 -7.44235803722404e-05
v 5.776941543444991e-05 -0.00045092939399182796 -9.149121615337208e-05
v 4.190251274849288e-05 -4.961967351846397e-05 -1.695209175522905e-05
v 8.214473200496286e-05 -0.0008049726020544767 -7.442362402798608e-05
v 5.7769564591581e-05 -0.0008049726020544767 -9.149126708507538e-05
v 5.6653170759091154e-05 -0.001004945021122694 -3.801806451519951e-05
v 3.227799970773049e-05 -0.001004945021122694 -5.50857002963312e-05
v -2.532079815864563e-05 -0.001004945021122694 5.3113268222659826e-05
v 3.227799970773049e-05 -0.001004945021122694 -5.50857002963312e-05
v 5.6653170759091154e-05 -0.001004945021122694 -3.801806451519951e-05
v -1.0570436643320136e-05 -4.021048516733572e-05 -6.40165526419878e-05
v -5.0812363042496145e-05 -9.768128074938431e-05 -0.0004653264186345041
v -5.0812363042496145e-05 -9.768128074938431e-05 -0.0008193686371669173
v -2.532094731577672e-05 -6.12759540672414e-05 -0.0010193410562351346
v 1.7527341697132215e-05 2.5857685614028014e-05 -6.401654536603019e-05
v 8.21444409666583e-05 6.626128742936999e-05 -0.00046532644773833454
v 5.776941543444991e-05 8.332848665304482e-05 -0.000465326476842165
v 4.190251274849288e-05 8.789300409262069e-06 -6.401654536603019e-05
v 8.21444409666583e-05 6.626128742936999e-05 -0.0008193686371669173
v 5.776941543444991e-05 8.332848665304482e-05 -0.0008193685789592564
v 5.665287244482897e-05 2.9854772947146557e-05 -0.0010193410562351346
v 3.2277850550599396e-05 4.6923159970901906e-05 -0.0010193410562351346
v -2.532094731577672e-05 -6.12759540672414e-05 -0.0010193410562351346
v 3.2277850550599396e-05 4.6923159970901906e-05 -0.0010193410562351346
v 5.665287244482897e-05 2.9854772947146557e-05 -0.0010193410562351346
g submesh_0
f 101 99 100
f 116 114 115
f 131 129 130
f 146 144 145
f 1 9 10
f 1 10 2
f 2 10 11
f 2 11 3
f 3 11 12
f 3 12 4
f 4 12 13
f 4 13 5
f 74 75 14
f 74 14 6
f 6 14 15
f 6 15 7
f 7 15 16
f 7 16 8
f 8 16 76
f 8 76 77
f 10 9 18
f 18 9 17
f 18 17 25
f 11 10 19
f 19 10 18
f 19 18 80
f 12 11 20
f 20 11 19
f 20 19 81
f 13 12 21
f 21 12 20
f 21 20 82
f 14 75 22
f 22 75 78
f 22 78 83
f 15 14 23
f 23 14 22
f 23 22 84
f 16 15 24
f 24 15 23
f 24 23 85
f 76 16 79
f 79 16 24
f 79 24 86
f 33 32 30
f 33 30 31
f 31 30 28
f 31 28 29
f 29 28 26
f 29 26 27
f 90 37 89
f 89 37 36
f 89 36 88
f 88 36 35
f 88 35 87
f 87 35 34
f 97 98 96
f 97 96 95
f 95 96 93
f 95 93 92
f 92 93 91
f 92 91 94
f 45 44 42
f 45 42 43
f 43 42 40
f 43 40 41
f 41 40 38
f 41 38 39
f 105 49 104
f 104 49 48
f 104 48 103
f 103 48 47
f 103 47 102
f 102 47 46
f 112 113 111
f 112 111 110
f 110 111 108
f 110 108 107
f 107 108 106
f 107 106 109
f 57 56 54
f 57 54 55
f 55 54 52
f 55 52 53
f 53 52 50
f 53 50 51
f 120 61 119
f 119 61 60
f 119 60 118
f 118 60 59
f 118 59 117
f 117 59 58
f 127 128 126
f 127 126 125
f 125 126 123
f 125 123 122
f 122 123 121
f 122 121 124
f 69 68 66
f 69 66 67
f 67 66 64
f 67 64 65
f 65 64 62
f 65 62 63
f 135 73 134
f 134 73 72
f 134 72 133
f 133 72 71
f 133 71 132
f 132 71 70
f 142 143 141
f 142 141 140
f 140 141 138
f 140 138 137
f 137 138 136
f 137 136 139
