# cellphone
v 0.21935990452766418 0.01902414672076702 0.0487835630774498
v 0.22600746154785156 0.02545127645134926 0.07276996225118637
v 0.22600746154785156 0.04301054775714874 0.09032921493053436
v 0.22600746154785156 0.06699693202972412 0.09675635397434235
v 0.2263914793729782 0.09102262556552887 0.09032120555639267
v 0.22634366154670715 0.1085425615310669 0.07276995480060577
v 0.22638647258281708 0.11498674750328064 0.048817720264196396
v 0.22600743174552917 0.10854259133338928 0.024797193706035614
v 0.22600746154785156 0.0909833237528801 0.007237924728542566
v 0.22600746154785156 0.06699692457914352 0.000810793018899858
v 0.2319164276123047 0.025451282039284706 0.02479717694222927
v 0.2193896621465683 -0.5260673761367798 0.0485861636698246
v 0.21936465799808502 -0.6054828763008118 0.0005727388779632747
v 0.22527101635932922 -0.6373382210731506 0.024559130892157555
v 0.21938973665237427 -0.6437801718711853 0.04117775708436966
v 0.21935997903347015 -0.5391054153442383 0.07091537117958069
v 0.21935997903347015 -0.6364420056343079 0.07087981700897217
v 0.2356816679239273 0.02219383977353573 0.04900316521525383
v 0.23568163812160492 0.028213301673531532 0.07146811485290527
v 0.23568163812160492 0.04465878754854202 0.08791361004114151
v 0.23568163812160492 0.06712374091148376 0.09393307566642761
v 0.23568163812160492 0.08958867937326431 0.0879136174917221
v 0.2356816679239273 0.10603418201208115 0.07146810740232468
v 0.2356816679239273 0.11205363273620605 0.04900315776467323
v 0.2356816679239273 0.10603415966033936 0.026538219302892685
v 0.23568163812160492 0.08958867192268372 0.010092724114656448
v 0.23568163812160492 0.06712371855974197 0.004073260352015495
v 0.23568163812160492 0.028213297948241234 0.026538226753473282
v 0.1502419263124466 0.0909833088517189 0.09032921493053436
v 0.1502419412136078 0.06699689477682114 0.000810793018899858
v 0.14956972002983093 -0.6511228680610657 0.04117777198553085
v 0.1502419263124466 0.01902412809431553 0.0487835668027401
v 0.1502419412136078 0.025451263412833214 0.07276996970176697
v 0.1502419412136078 0.04301052540540695 0.09032921493053436
v 0.1502419412136078 0.06699690967798233 0.09675636887550354
v 0.15023942291736603 0.11495857685804367 0.04880465567111969
v 0.1502419412136078 0.1085425540804863 0.024797193706035614
v 0.1502419412136078 0.0909833014011383 0.007237924728542566
v 0.14999784529209137 -0.6127779483795166 0.0005727383540943265
v 0.1496458649635315 -0.645088791847229 0.024559127166867256
v 0.14956972002983093 -0.5334101319313049 0.0485861711204052
v 0.14956974983215332 -0.5390355587005615 0.06355234235525131
v 0.14956970512866974 -0.6438146233558655 0.07087983191013336
v 0.22600746154785156 0.020930519327521324 0.05589820444583893
v 0.23238089680671692 0.02111237496137619 0.04892823472619057
v 0.22775815427303314 0.02092837356030941 0.04167691245675087
v 0.22600749135017395 -0.5327370166778564 0.04109540954232216
v 0.22600749135017395 -0.5928033590316772 0.0005680195754393935
v 0.23191645741462708 -0.6290486454963684 0.024556076154112816
v 0.22600749135017395 -0.6357186436653137 0.04105985537171364
v 0.21938973665237427 -0.5316926836967468 0.06355231255292892
v 0.22600753605365753 -0.5383623838424683 0.06354975700378418
v 0.22600747644901276 -0.6357650756835938 0.06351419538259506
v 0.21938972175121307 -0.6438266038894653 0.06351166218519211
v 0.14956974983215332 -0.5464119911193848 0.07091540098190308
v 0.14956970512866974 -0.6511692404747009 0.06351166218519211
v 7.562763748580892e-09 0.06699689477682114 0.000810793018899858
v 7.562760195867213e-09 -0.6178820729255676 0.0005727858515456319
v 7.562761972224052e-09 -0.6562271118164062 0.04117782413959503
v 7.562754866796695e-09 -0.6562735438346863 0.06351170688867569
v 8.549752905651076e-09 0.0909833088517189 0.09032921493053436
v 7.562762860402472e-09 0.01902412436902523 0.0487835668027401
v 7.562762860402472e-09 0.025451265275478363 0.07276996225118637
v 7.562764636759312e-09 0.04301052168011665 0.09032921493053436
v 7.562762860402472e-09 0.06699692457914352 0.09675635397434235
v -2.50438188231783e-06 0.11495856940746307 0.04880465567111969
v 7.562762860402472e-09 0.10854258388280869 0.02479717694222927
v 7.562763748580892e-09 0.0909833014011383 0.007237912621349096
v 7.562757531331954e-09 -0.65019291639328 0.024559177458286285
v 7.562759307688793e-09 -0.538514256477356 0.04858621582388878
v 6.9544463521253874e-09 -0.5515161156654358 0.07091542333364487
v 7.562760195867213e-09 -0.6489188075065613 0.07087984681129456
v 6.954445463946968e-09 -0.5441396236419678 0.0635523721575737
v -0.21935993432998657 0.019024157896637917 0.0487835630774498
v -0.22600746154785156 0.025451289489865303 0.07276996225118637
v -0.22600746154785156 0.04301055520772934 0.09032920747995377
v -0.22600746154785156 0.06699693202972412 0.09675633907318115
v -0.2263915240764618 0.09102261066436768 0.09032119810581207
v -0.22631685435771942 0.10854259878396988 0.07276994735002518
v -0.2263915240764618 0.11498674750328064 0.0488177128136158
v -0.22600746154785156 0.10854258388280869 0.02479717694222927
v -0.22600746154785156 0.0909833237528801 0.007237912621349096
v -0.22600746154785156 0.06699691712856293 0.0008107786998152733
v -0.2319164276123047 0.0254512932151556 0.02479717694222927
v -0.21938970685005188 -0.526067316532135 0.04858621582388878
v -0.21936465799808502 -0.6054829359054565 0.0005727866664528847
v -0.22527101635932922 -0.6373381614685059 0.024559184908866882
v -0.21938973665237427 -0.6437801718711853 0.04117780551314354
v -0.2193598747253418 -0.5391055941581726 0.07091541588306427
v -0.21935996413230896 -0.6364420056343079 0.07087986916303635
v -0.23568163812160492 0.022193843498826027 0.04900315776467323
v -0.23568163812160492 0.028213312849402428 0.07146811485290527
v -0.23568163812160492 0.04465880244970322 0.08791359513998032
v -0.2356816828250885 0.06712374836206436 0.09393307566642761
v -0.2356816828250885 0.08958868682384491 0.08791359513998032
v -0.2356816828250885 0.10603417456150055 0.07146809995174408
v -0.2356816828250885 0.11205364018678665 0.04900315776467323
v -0.2356816828250885 0.10603418201208115 0.026538202539086342
v -0.2356816828250885 0.08958867192268372 0.010092724114656448
v -0.2356816828250885 0.06712372601032257 0.004073248244822025
v -0.23568163812160492 0.028213301673531532 0.026538226753473282
v -0.1502419114112854 0.0909833237528801 0.09032921493053436
v -0.1502419412136078 0.06699689477682114 0.000810793018899858
v -0.14956972002983093 -0.6511229276657104 0.04117783531546593
v -0.1502419114112854 0.019024133682250977 0.0487835668027401
v -0.1502419114112854 0.025451263412833214 0.07276996225118637
v -0.1502419263124466 0.04301052913069725 0.09032921493053436
v -0.1502419412136078 0.06699691712856293 0.09675635397434235
v -0.15024442970752716 0.11495856940746307 0.04880465567111969
v -0.1502419114112854 0.1085425317287445 0.02479717694222927
v -0.1502419114112854 0.0909833014011383 0.007237912621349096
v -0.14999783039093018 -0.6127780079841614 0.0005727862589992583
v -0.1496458500623703 -0.645088791847229 0.024559196084737778
v -0.14956972002983093 -0.5334101915359497 0.04858621954917908
v -0.14956964552402496 -0.5390354990959167 0.0635523721575737
v -0.14956973493099213 -0.6438146829605103 0.07087986171245575
v -0.22600746154785156 0.020930515602231026 0.05589820444583893
v -0.23238089680671692 0.021112367510795593 0.04892823472619057
v -0.22775816917419434 0.02092837728559971 0.041676901280879974
v -0.22600747644901276 -0.5327369570732117 0.041095469146966934
v -0.22600749135017395 -0.5928033590316772 0.0005680698668584228
v -0.23191651701927185 -0.6290485858917236 0.02455613575875759
v -0.22600752115249634 -0.6357187032699585 0.04105990752577782
v -0.2193896621465683 -0.5316928029060364 0.06355234980583191
v -0.22600746154785156 -0.538362443447113 0.06354982405900955
v -0.22600749135017395 -0.635765016078949 0.06351426243782043
v -0.21938973665237427 -0.6438267230987549 0.06351172924041748
v -0.14956972002983093 -0.5464119911193848 0.07091545313596725
v -0.14956973493099213 -0.65116947889328 0.06351172924041748
v 0.15019407868385315 0.10850325226783752 0.07277797907590866
v -4.783630356541835e-05 0.10850324481725693 0.07277797907590866
v -0.15028974413871765 0.10850325226783752 0.07277797907590866
v -0.22643940150737762 0.1085425540804863 0.07276995480060577
v 0.22600749135017395 -0.5928033590316772 0.0005680195754393935
v 0.22600746154785156 0.06699692457914352 0.000810793018899858
v 0.23191645741462708 -0.6290486454963684 0.024556076154112816
v 0.2319164276123047 0.025451282039284706 0.02479717694222927
v 0.23568163812160492 0.028213301673531532 0.07146811485290527
v 0.23568163812160492 0.028213301673531532 0.07146811485290527
v 0.2356816679239273 0.02219383977353573 0.04900316521525383
v 0.23238089680671692 0.02111237496137619 0.04892823472619057
v 0.23568163812160492 0.04465878754854202 0.08791361004114151
v 0.23568163812160492 0.06712374091148376 0.09393307566642761
v 0.23568163812160492 0.08958867937326431 0.0879136174917221
v 0.2263914793729782 0.09102262556552887 0.09032120555639267
v 0.23568163812160492 0.06712374091148376 0.09393307566642761
v 0.2356816679239273 0.10603415966033936 0.026538219302892685
v 0.2356816679239273 0.10603415966033936 0.026538219302892685
v 0.22638647258281708 0.11498674750328064 0.048817720264196396
v 0.2356816679239273 0.11205363273620605 0.04900315776467323
v 0.23568163812160492 0.08958867192268372 0.010092724114656448
v 0.23568163812160492 0.06712371855974197 0.004073260352015495
v 0.22600746154785156 0.06699692457914352 0.000810793018899858
v 0.2263914793729782 0.09102262556552887 0.09032120555639267
v 0.2356816679239273 0.10603418201208115 0.07146810740232468
v 0.2356816679239273 0.10603418201208115 0.07146810740232468
v 0.2356816679239273 0.11205363273620605 0.04900315776467323
v 0.2356816679239273 0.11205363273620605 0.04900315776467323
v 0.22638647258281708 0.11498674750328064 0.048817720264196396
v 0.22634366154670715 0.1085425615310669 0.07276995480060577
v 0.23568163812160492 0.028213297948241234 0.026538226753473282
v 0.2319164276123047 0.025451282039284706 0.02479717694222927
v 0.23568163812160492 0.028213297948241234 0.026538226753473282
v 0.22600746154785156 0.06699692457914352 0.000810793018899858
v 0.2356816679239273 0.02219383977353573 0.04900316521525383
v 0.2319164276123047 0.025451282039284706 0.02479717694222927
v 0.2319164276123047 0.025451282039284706 0.02479717694222927
v 0.22775815427303314 0.02092837356030941 0.04167691245675087
v 0.2319164276123047 0.025451282039284706 0.02479717694222927
v 0.22600746154785156 0.02545127645134926 0.07276996225118637
v 0.22600746154785156 0.020930519327521324 0.05589820444583893
v 0.22600746154785156 0.04301054775714874 0.09032921493053436
v 0.22600746154785156 0.06699693202972412 0.09675635397434235
v 0.2263914793729782 0.09102262556552887 0.09032120555639267
v 0.2263914793729782 0.09102262556552887 0.09032120555639267
v 0.22600743174552917 0.10854259133338928 0.024797193706035614
v 0.22638647258281708 0.11498674750328064 0.048817720264196396
v 0.22600746154785156 0.0909833237528801 0.007237924728542566
v 0.22600746154785156 0.06699692457914352 0.000810793018899858
v 0.1502419412136078 0.06699689477682114 0.000810793018899858
v 0.21936465799808502 -0.6054828763008118 0.0005727388779632747
v 0.14999784529209137 -0.6127779483795166 0.0005727383540943265
v 0.22527101635932922 -0.6373382210731506 0.024559130892157555
v 0.21935990452766418 0.01902414672076702 0.0487835630774498
v 0.1502419263124466 0.01902412809431553 0.0487835668027401
v 0.2193896621465683 -0.5260673761367798 0.0485861636698246
v 0.14956972002983093 -0.5334101319313049 0.0485861711204052
v 0.14956970512866974 -0.6511692404747009 0.06351166218519211
v 7.562763748580892e-09 0.06699689477682114 0.000810793018899858
v 7.562760195867213e-09 -0.6178820729255676 0.0005727858515456319
v 7.562761972224052e-09 -0.6562271118164062 0.04117782413959503
v 0.23238089680671692 0.02111237496137619 0.04892823472619057
v 0.21935990452766418 0.01902414672076702 0.0487835630774498
v 0.22775815427303314 0.02092837356030941 0.04167691245675087
v 0.22600746154785156 0.020930519327521324 0.05589820444583893
v 0.21935997903347015 -0.5391054153442383 0.07091537117958069
v 0.21938973665237427 -0.5316926836967468 0.06355231255292892
v 0.21935997903347015 -0.6364420056343079 0.07087981700897217
v 0.21938972175121307 -0.6438266038894653 0.06351166218519211
v 0.21936465799808502 -0.6054828763008118 0.0005727388779632747
v 0.23191645741462708 -0.6290486454963684 0.024556076154112816
v 0.22527101635932922 -0.6373382210731506 0.024559130892157555
v 0.22600749135017395 -0.5928033590316772 0.0005680195754393935
v 0.2193896621465683 -0.5260673761367798 0.0485861636698246
v 0.21935990452766418 0.01902414672076702 0.0487835630774498
v 0.22527101635932922 -0.6373382210731506 0.024559130892157555
v 0.21938973665237427 -0.6437801718711853 0.04117775708436966
v 0.21938972175121307 -0.6438266038894653 0.06351166218519211
v 0.14956970512866974 -0.6511692404747009 0.06351166218519211
v 0.21935997903347015 -0.5391054153442383 0.07091537117958069
v 0.21938973665237427 -0.5316926836967468 0.06355231255292892
v 0.2193896621465683 -0.5260673761367798 0.0485861636698246
v 0.21935997903347015 -0.5391054153442383 0.07091537117958069
v 0.21938973665237427 -0.5316926836967468 0.06355231255292892
v 7.562762860402472e-09 0.01902412436902523 0.0487835668027401
v 7.562759307688793e-09 -0.538514256477356 0.04858621582388878
v 7.562754866796695e-09 -0.6562735438346863 0.06351170688867569
v -0.22600746154785156 0.06699691712856293 0.0008107786998152733
v -0.22600749135017395 -0.5928033590316772 0.0005680698668584228
v -0.23191651701927185 -0.6290485858917236 0.02455613575875759
v -0.2319164276123047 0.0254512932151556 0.02479717694222927
v -0.23568163812160492 0.028213312849402428 0.07146811485290527
v -0.23568163812160492 0.022193843498826027 0.04900315776467323
v -0.23568163812160492 0.04465880244970322 0.08791359513998032
v -0.2356816828250885 0.06712374836206436 0.09393307566642761
v -0.2356816828250885 0.08958868682384491 0.08791359513998032
v -0.2356816828250885 0.10603418201208115 0.026538202539086342
v -0.2356816828250885 0.11205364018678665 0.04900315776467323
v -0.2263915240764618 0.11498674750328064 0.0488177128136158
v -0.2356816828250885 0.08958867192268372 0.010092724114656448
v -0.22600746154785156 0.06699691712856293 0.0008107786998152733
v -0.2356816828250885 0.06712372601032257 0.004073248244822025
v -0.2356816828250885 0.10603417456150055 0.07146809995174408
v -0.2263915240764618 0.09102261066436768 0.09032119810581207
v -0.2356816828250885 0.11205364018678665 0.04900315776467323
v -0.2263915240764618 0.11498674750328064 0.0488177128136158
v -0.2319164276123047 0.0254512932151556 0.02479717694222927
v -0.23568163812160492 0.028213301673531532 0.026538226753473282
v -0.22600746154785156 0.06699691712856293 0.0008107786998152733
v -0.23568163812160492 0.028213301673531532 0.026538226753473282
v -0.2319164276123047 0.0254512932151556 0.02479717694222927
v -0.23568163812160492 0.022193843498826027 0.04900315776467323
v -0.22775816917419434 0.02092837728559971 0.041676901280879974
v -0.2319164276123047 0.0254512932151556 0.02479717694222927
v -0.22600746154785156 0.020930515602231026 0.05589820444583893
v -0.22600746154785156 0.025451289489865303 0.07276996225118637
v -0.22600746154785156 0.04301055520772934 0.09032920747995377
v -0.22600746154785156 0.06699693202972412 0.09675633907318115
v -0.2263915240764618 0.09102261066436768 0.09032119810581207
v -0.2263915240764618 0.09102261066436768 0.09032119810581207
v -0.2263915240764618 0.11498674750328064 0.0488177128136158
v -0.22600746154785156 0.10854258388280869 0.02479717694222927
v -0.22600746154785156 0.0909833237528801 0.007237912621349096
v -0.1502419412136078 0.06699689477682114 0.000810793018899858
v -0.22600746154785156 0.06699691712856293 0.0008107786998152733
v -0.14999783039093018 -0.6127780079841614 0.0005727862589992583
v -0.21936465799808502 -0.6054829359054565 0.0005727866664528847
v -0.22527101635932922 -0.6373381614685059 0.024559184908866882
v -0.1502419114112854 0.019024133682250977 0.0487835668027401
v -0.21935993432998657 0.019024157896637917 0.0487835630774498
v -0.14956972002983093 -0.5334101915359497 0.04858621954917908
v -0.21938970685005188 -0.526067316532135 0.04858621582388878
v -0.14956973493099213 -0.65116947889328 0.06351172924041748
v 7.562761972224052e-09 -0.6562271118164062 0.04117782413959503
v -0.22775816917419434 0.02092837728559971 0.041676901280879974
v -0.21935993432998657 0.019024157896637917 0.0487835630774498
v -0.23238089680671692 0.021112367510795593 0.04892823472619057
v -0.22600746154785156 0.020930515602231026 0.05589820444583893
v -0.2193896621465683 -0.5316928029060364 0.06355234980583191
v -0.2193598747253418 -0.5391055941581726 0.07091541588306427
v -0.21938973665237427 -0.6438267230987549 0.06351172924041748
v -0.21935996413230896 -0.6364420056343079 0.07087986916303635
v -0.22527101635932922 -0.6373381614685059 0.024559184908866882
v -0.23191651701927185 -0.6290485858917236 0.02455613575875759
v -0.21936465799808502 -0.6054829359054565 0.0005727866664528847
v -0.22600749135017395 -0.5928033590316772 0.0005680698668584228
v -0.21938970685005188 -0.526067316532135 0.04858621582388878
v -0.21935993432998657 0.019024157896637917 0.0487835630774498
v -0.21938973665237427 -0.6437801718711853 0.04117780551314354
v -0.22527101635932922 -0.6373381614685059 0.024559184908866882
v -0.14956973493099213 -0.65116947889328 0.06351172924041748
v -0.21938973665237427 -0.6438267230987549 0.06351172924041748
v -0.2193598747253418 -0.5391055941581726 0.07091541588306427
v -0.21938970685005188 -0.526067316532135 0.04858621582388878
v -0.2193896621465683 -0.5316928029060364 0.06355234980583191
v -0.2193598747253418 -0.5391055941581726 0.07091541588306427
v -0.2193896621465683 -0.5316928029060364 0.06355234980583191
v 0.1502419263124466 0.0909833088517189 0.09032921493053436
v 0.2263914793729782 0.09102262556552887 0.09032120555639267
v 0.15023942291736603 0.11495857685804367 0.04880465567111969
v 8.549752905651076e-09 0.0909833088517189 0.09032921493053436
v -2.50438188231783e-06 0.11495856940746307 0.04880465567111969
v -0.1502419114112854 0.0909833237528801 0.09032921493053436
v -0.15024442970752716 0.11495856940746307 0.04880465567111969
g submesh_0
f 150 148 149
f 162 153 161
f 152 163 164
f 161 165 166
f 168 167 141
f 212 211 47
f 227 228 229
f 231 237 238
f 240 232 239
f 242 238 241
f 285 284 120
f 21 20 28
f 28 20 19
f 28 19 18
f 27 26 28
f 28 26 25
f 28 25 24
f 10 48 30
f 30 48 13
f 30 13 39
f 135 11 134
f 134 11 49
f 199 207 53
f 53 207 50
f 53 50 47
f 47 50 136
f 47 136 46
f 46 136 137
f 40 183 15
f 40 15 31
f 31 15 54
f 31 54 56
f 169 140 45
f 45 140 139
f 5 4 143
f 143 4 3
f 143 3 142
f 142 3 2
f 142 2 138
f 138 2 44
f 138 44 141
f 146 144 145
f 145 144 156
f 7 147 8
f 8 147 151
f 8 151 9
f 9 151 152
f 9 152 153
f 157 6 155
f 155 6 154
f 236 133 294
f 294 133 132
f 294 132 292
f 292 132 131
f 292 131 290
f 290 131 130
f 290 130 159
f 159 130 160
f 159 160 158
f 248 247 107
f 107 247 106
f 107 106 63
f 63 106 62
f 63 62 33
f 33 62 32
f 33 32 170
f 170 32 1
f 170 1 171
f 248 107 108
f 108 107 64
f 108 64 65
f 65 64 35
f 65 35 29
f 29 35 174
f 107 63 64
f 64 63 34
f 64 34 35
f 35 34 173
f 35 173 175
f 255 253 111
f 111 253 110
f 111 110 67
f 67 110 66
f 67 66 37
f 37 66 36
f 37 36 176
f 176 36 177
f 190 182 40
f 40 182 181
f 40 181 14
f 12 184 41
f 41 184 185
f 41 185 70
f 70 185 215
f 70 215 259
f 51 186 42
f 42 186 187
f 42 187 73
f 73 187 216
f 73 216 261
f 60 59 188
f 188 59 31
f 194 192 193
f 193 192 195
f 53 47 52
f 52 47 197
f 52 197 196
f 202 200 201
f 201 200 203
f 205 204 46
f 46 204 47
f 49 50 206
f 206 50 207
f 199 53 198
f 198 53 52
f 198 52 210
f 89 90 116
f 89 116 128
f 128 116 72
f 128 72 71
f 71 72 55
f 71 55 42
f 42 55 213
f 42 213 214
f 91 92 101
f 101 92 93
f 101 93 94
f 97 98 101
f 101 98 99
f 101 99 100
f 112 86 103
f 103 86 121
f 103 121 83
f 122 84 219
f 219 84 218
f 279 271 126
f 279 126 123
f 123 126 120
f 123 120 220
f 220 120 119
f 220 119 221
f 258 113 88
f 88 113 104
f 88 104 127
f 127 104 129
f 231 232 82
f 82 232 230
f 82 230 81
f 81 230 227
f 81 227 80
f 236 235 79
f 79 235 233
f 79 233 234
f 118 117 222
f 222 117 75
f 222 75 224
f 224 75 76
f 224 76 225
f 225 76 77
f 225 77 226
f 226 77 78
f 226 78 233
f 222 223 118
f 118 223 244
f 118 244 243
f 62 106 105
f 105 106 246
f 105 246 74
f 74 246 245
f 29 61 65
f 65 61 102
f 65 102 108
f 108 102 249
f 108 250 248
f 251 109 252
f 252 109 110
f 252 110 253
f 87 257 113
f 113 257 256
f 113 256 190
f 70 259 114
f 114 259 260
f 114 260 85
f 73 261 115
f 115 261 262
f 115 262 124
f 104 264 263
f 263 264 60
f 268 267 266
f 266 267 265
f 270 269 125
f 125 269 120
f 125 120 126
f 276 275 274
f 274 275 273
f 120 277 119
f 119 277 278
f 279 123 280
f 280 123 122
f 283 125 272
f 272 125 126
f 272 126 271
f 287 286 115
f 115 286 128
f 115 128 71
f 133 234 132
f 132 234 293
f 132 293 131
f 131 293 291
f 131 291 130
f 130 291 288
f 130 288 160
f 160 288 289
f 24 23 28
f 28 23 22
f 28 22 21
f 173 34 172
f 172 34 33
f 172 33 170
f 176 178 37
f 37 178 38
f 37 38 67
f 67 38 68
f 67 68 111
f 111 68 254
f 111 254 255
f 178 179 38
f 38 179 180
f 38 180 68
f 68 180 189
f 68 189 254
f 282 281 116
f 116 281 217
f 116 217 72
f 72 217 43
f 72 43 55
f 55 43 16
f 209 208 43
f 43 208 17
f 43 17 16
f 30 39 57
f 57 39 58
f 57 58 112
f 190 40 69
f 69 40 31
f 69 31 191
f 209 43 217
f 94 95 101
f 101 95 96
f 101 96 97
f 247 246 106
f 112 103 57
f 110 109 66
f 191 104 69
f 69 104 113
f 69 113 190
f 116 90 282
f 33 34 63
f 42 73 71
f 71 73 115
