# table_00
v 0.00024500975268892944 -0.00024608601233921945 0.00022676767548546195
v -0.00024608615785837173 -0.0002450096362736076 0.00022676767548546195
v 0.00024500975268892944 -0.0002450096362736076 0.00024179632600862533
v -0.00024608615785837173 -0.0002450096362736076 0.00024071996449492872
v 0.00024500975268892944 0.000246085983235389 0.0002407200081506744
v -0.00024608615785837173 0.00024500960716977715 0.0002407200081506744
v 0.00024608615785837173 0.00024500960716977715 0.0002267677045892924
v -0.00024500975268892944 0.000246085983235389 0.0002267677045892924
v -0.0002319903578609228 0.00023199034330900759 0.00023308776144403964
v 0.0002319903578609228 0.00023199034330900759 0.00023308776144403964
v 0.0002319903578609228 -0.00023199038696475327 0.00023308771778829396
v -0.0002319903578609228 -0.00023199038696475327 0.00023308771778829396
v -0.0002319903578609228 0.0002319903578609228 0.0001921490766108036
v 0.0002319903578609228 0.0002319903578609228 0.0001921490766108036
v 0.0002319903578609228 -0.0002319903578609228 0.00019214903295505792
v -0.0002319903578609228 -0.0002319903578609228 0.00019214903295505792
v -0.00022017174342181534 0.00022017143783159554 9.623999513985737e-12
v -0.00019624977721832693 0.00022017143783159554 9.623999513985737e-12
v -0.00022017174342181534 0.00022017143783159554 0.00020410993602126837
v -0.00019624977721832693 0.00022017143783159554 0.00020410993602126837
v -0.00022017174342181534 0.00019624977721832693 0.00020410992146935314
v -0.00019624977721832693 0.00019624977721832693 0.00020410992146935314
v -0.00022017174342181534 0.00019624977721832693 8.578350703392079e-12
v -0.00019624977721832693 0.00019624977721832693 8.578350703392079e-12
v 0.00024608615785837173 -0.0002450096362736076 0.00022676767548546195
v -0.00024500975268892944 -0.00024608601233921945 0.00022676767548546195
v 0.00024608615785837173 -0.0002450096362736076 0.00024071996449492872
v 0.00024500975268892944 -0.00024608601233921945 0.00024071996449492872
v -0.00024500975268892944 -0.0002450096362736076 0.00024179632600862533
v -0.00024500975268892944 -0.00024608601233921945 0.00024071996449492872
v 0.00024608615785837173 0.00024500960716977715 0.0002407200081506744
v 0.00024500975268892944 0.00024500960716977715 0.00024179636966437101
v -0.00024500975268892944 0.000246085983235389 0.0002407200081506744
v -0.00024500975268892944 0.00024500960716977715 0.00024179636966437101
v 0.00024500975268892944 0.000246085983235389 0.0002267677045892924
v -0.00024608615785837173 0.00024500960716977715 0.0002267677045892924
v -0.00022017174342181534 -0.00019608830916695297 1.09840374643011e-11
v -0.0001962497626664117 -0.00019608830916695297 1.09840374643011e-11
v -0.0001962497626664117 -0.00019608830916695297 0.00020410993602126837
v -0.00022017174342181534 -0.00019608830916695297 0.00020410993602126837
v -0.00022017174342181534 -0.0002200099843321368 0.00020410992146935314
v -0.0001962497626664117 -0.0002200099843321368 0.00020410992146935314
v -0.0001962497626664117 -0.0002200099843321368 9.938388653707442e-12
v -0.00022017174342181534 -0.0002200099843321368 9.938388653707442e-12
v 0.00019730874919332564 -0.00019608830916695297 1.09840374643011e-11
v 0.00022123071539681405 -0.00019608830916695297 1.09840374643011e-11
v 0.00022123071539681405 -0.00019608830916695297 0.00020410993602126837
v 0.00019730874919332564 -0.00019608830916695297 0.00020410993602126837
v 0.00019730874919332564 -0.00022000995522830635 0.00020410992146935314
v 0.00022123071539681405 -0.00022000995522830635 0.00020410992146935314
v 0.00022123071539681405 -0.00022000995522830635 9.93838952106918e-12
v 0.00019730874919332564 -0.00022000995522830635 9.93838952106918e-12
v 0.00019730874919332564 0.000220171466935426 9.624000381347475e-12
v 0.00022123071539681405 0.000220171466935426 9.624000381347475e-12
v 0.00022123071539681405 0.000220171466935426 0.0002041099505731836
v 0.00019730874919332564 0.000220171466935426 0.0002041099505731836
v 0.00019730874919332564 0.00019624979177024215 0.00020410989236552268
v 0.00022123071539681405 0.00019624979177024215 0.00020410989236552268
v 0.00022123071539681405 0.00019624979177024215 8.578351570753817e-12
v 0.00019730874919332564 0.00019624979177024215 8.578351570753817e-12
v 0.0002319903578609228 0.0002319903578609228 0.0001921490766108036
v 0.0002319903578609228 0.00023199034330900759 0.00023308776144403964
v 0.0002319903578609228 -0.0002319903578609228 0.00019214903295505792
v 0.0002319903578609228 -0.00023199038696475327 0.00023308771778829396
v -0.0002319903578609228 0.00023199034330900759 0.00023308776144403964
v -0.0002319903578609228 -0.0002319903578609228 0.00019214903295505792
v -0.0002319903578609228 -0.00023199038696475327 0.00023308771778829396
v -0.0002319903578609228 0.0002319903578609228 0.0001921490766108036
v -0.00019624977721832693 0.00022017143783159554 9.623999513985737e-12
v -0.00019624977721832693 0.00019624977721832693 0.00020410992146935314
v -0.00019624977721832693 0.00019624977721832693 8.578350703392079e-12
v -0.00019624977721832693 0.00022017143783159554 0.00020410993602126837
v -0.00022017174342181534 0.00019624977721832693 8.578350703392079e-12
v -0.00022017174342181534 0.00022017143783159554 0.00020410993602126837
v -0.00022017174342181534 0.00022017143783159554 9.623999513985737e-12
v -0.00022017174342181534 0.00019624977721832693 0.00020410992146935314
v 0.00024500975268892944 -0.0002450096362736076 0.00024179632600862533
v 0.00024500975268892944 -0.00024608601233921945 0.00024071996449492872
v 0.00024608615785837173 -0.0002450096362736076 0.00024071996449492872
v -0.00024608615785837173 -0.0002450096362736076 0.00024071996449492872
v -0.00024500975268892944 -0.00024608601233921945 0.00024071996449492872
v -0.00024500975268892944 -0.0002450096362736076 0.00024179632600862533
v 0.00024500975268892944 0.000246085983235389 0.0002407200081506744
v 0.00024500975268892944 0.00024500960716977715 0.00024179636966437101
v 0.00024608615785837173 0.00024500960716977715 0.0002407200081506744
v -0.00024608615785837173 0.00024500960716977715 0.0002407200081506744
v -0.00024500975268892944 0.00024500960716977715 0.00024179636966437101
v -0.00024500975268892944 0.000246085983235389 0.0002407200081506744
v -0.00024608615785837173 -0.0002450096362736076 0.00022676767548546195
v -0.00024608615785837173 -0.0002450096362736076 0.00024071996449492872
v 0.00024500975268892944 -0.00024608601233921945 0.00024071996449492872
v -0.00024500975268892944 -0.00024608601233921945 0.00024071996449492872
v 0.00024608615785837173 -0.0002450096362736076 0.00024071996449492872
v 0.00024500975268892944 -0.00024608601233921945 0.00022676767548546195
v 0.00024500975268892944 -0.00024608601233921945 0.00024071996449492872
v -0.00024500975268892944 -0.0002450096362736076 0.00024179632600862533
v -0.00024500975268892944 0.00024500960716977715 0.00024179636966437101
v -0.00024608615785837173 -0.0002450096362736076 0.00024071996449492872
v -0.00024608615785837173 0.00024500960716977715 0.0002407200081506744
v -0.00024500975268892944 0.000246085983235389 0.0002407200081506744
v 0.00024608615785837173 -0.0002450096362736076 0.00024071996449492872
v 0.00024608615785837173 0.00024500960716977715 0.0002407200081506744
v 0.00024500975268892944 -0.0002450096362736076 0.00024179632600862533
v 0.00024500975268892944 0.00024500960716977715 0.00024179636966437101
v -0.00024500975268892944 0.000246085983235389 0.0002407200081506744
v -0.00024500975268892944 0.000246085983235389 0.0002267677045892924
v -0.00024608615785837173 0.00024500960716977715 0.0002407200081506744
v 0.00024608615785837173 0.00024500960716977715 0.0002407200081506744
v 0.00024608615785837173 0.00024500960716977715 0.0002267677045892924
v -0.0001962497626664117 -0.00019608830916695297 1.09840374643011e-11
v -0.0001962497626664117 -0.0002200099843321368 0.00020410992146935314
v -0.0001962497626664117 -0.0002200099843321368 9.938388653707442e-12
v -0.0001962497626664117 -0.00019608830916695297 0.00020410993602126837
v -0.00022017174342181534 -0.0002200099843321368 9.938388653707442e-12
v -0.00022017174342181534 -0.00019608830916695297 0.00020410993602126837
v -0.00022017174342181534 -0.00019608830916695297 1.09840374643011e-11
v -0.00022017174342181534 -0.0002200099843321368 0.00020410992146935314
v 0.00022123071539681405 -0.00019608830916695297 1.09840374643011e-11
v 0.00022123071539681405 -0.00022000995522830635 0.00020410992146935314
v 0.00022123071539681405 -0.00022000995522830635 9.93838952106918e-12
v 0.00022123071539681405 -0.00019608830916695297 0.00020410993602126837
v 0.00019730874919332564 -0.00022000995522830635 9.93838952106918e-12
v 0.00019730874919332564 -0.00019608830916695297 0.00020410993602126837
v 0.00019730874919332564 -0.00019608830916695297 1.09840374643011e-11
v 0.00019730874919332564 -0.00022000995522830635 0.00020410992146935314
v 0.00022123071539681405 0.000220171466935426 9.624000381347475e-12
v 0.00022123071539681405 0.00019624979177024215 0.00020410989236552268
v 0.00022123071539681405 0.00019624979177024215 8.578351570753817e-12
v 0.00022123071539681405 0.000220171466935426 0.0002041099505731836
v 0.00019730874919332564 0.00019624979177024215 8.578351570753817e-12
v 0.00019730874919332564 0.000220171466935426 0.0002041099505731836
v 0.00019730874919332564 0.000220171466935426 9.624000381347475e-12
v 0.00019730874919332564 0.00019624979177024215 0.00020410989236552268
g submesh_0
f 79 77 78
f 82 80 81
f 88 86 87
f 89 26 30
f 30 26 1
f 30 1 28
f 29 3 34
f 34 3 32
f 109 35 5
f 5 35 8
f 5 8 33
f 36 2 6
f 6 2 4
f 25 7 27
f 27 7 31
f 9 10 13
f 13 10 14
f 62 11 61
f 61 11 15
f 64 12 63
f 63 12 16
f 67 65 66
f 66 65 68
f 18 17 20
f 20 17 19
f 22 21 24
f 24 21 23
f 71 69 70
f 70 69 72
f 75 73 74
f 74 73 76
f 85 83 84
f 84 83 100
f 84 100 87
f 30 90 89
f 92 91 82
f 82 91 77
f 95 94 93
f 93 94 25
f 99 98 97
f 97 98 96
f 104 103 102
f 102 103 101
f 36 107 106
f 106 107 105
f 5 108 109
f 38 37 39
f 39 37 40
f 42 41 43
f 43 41 44
f 112 110 111
f 111 110 113
f 116 114 115
f 115 114 117
f 46 45 47
f 47 45 48
f 50 49 51
f 51 49 52
f 120 118 119
f 119 118 121
f 124 122 123
f 123 122 125
f 54 53 55
f 55 53 56
f 58 57 59
f 59 57 60
f 128 126 127
f 127 126 129
f 132 130 131
f 131 130 133
