# 15
v 0.1764662265777588 -0.1719740331172943 -0.10097404569387436
v 0.22262249886989594 -0.1719740331172943 -0.10097404569387436
v 0.22262249886989594 0.27802595496177673 -0.10097404569387436
v 0.3557884097099304 0.27802595496177673 -0.10097404569387436
v 0.4097212851047516 0.22459226846694946 -0.10097404569387436
v 0.4097212851047516 0.16131779551506042 -0.10097404569387436
v 0.356190025806427 0.16131779551506042 -0.10097404569387436
v 0.356190025806427 -0.1719740331172943 -0.10097404569387436
v 0.40234625339508057 -0.1719740331172943 -0.10097404569387436
v 0.40234625339508057 -0.27802595496177673 -0.10097404569387436
v 0.1764662265777588 -0.27802595496177673 -0.10097404569387436
v -0.4097212851047516 0.0048507689498364925 -0.10097404569387436
v -0.33238935470581055 0.08202596753835678 -0.10097404569387436
v -0.16072125732898712 0.08202596753835678 -0.10097404569387436
v -0.16072125732898712 0.17797406017780304 -0.10097404569387436
v -0.3846118748188019 0.17797406017780304 -0.10097404569387436
v -0.3846118748188019 0.27802595496177673 -0.10097404569387436
v -0.0376693531870842 0.27802595496177673 -0.10097404569387436
v -0.0376693531870842 -0.0030259513296186924 -0.10097404569387436
v -0.28066930174827576 -0.0030259513296186924 -0.10097404569387436
v -0.28066930174827576 -0.1719740331172943 -0.10097404569387436
v -0.15272122621536255 -0.1719740331172943 -0.10097404569387436
v -0.15272122621536255 -0.08897403627634048 -0.10097404569387436
v -0.027669353410601616 -0.08897403627634048 -0.10097404569387436
v -0.027669353410601616 -0.18889743089675903 -0.10097404569387436
v -0.11679782718420029 -0.27802595496177673 -0.10097404569387436
v -0.3186798393726349 -0.27802595496177673 -0.10097404569387436
v -0.4097212851047516 -0.18615396320819855 -0.10097404569387436
v 0.15049219131469727 -0.1459999978542328 -0.07499999552965164
v 0.1966484636068344 -0.1459999978542328 -0.07499999552965164
v 0.1966484636068344 0.30399999022483826 -0.07499999552965164
v 0.3664765954017639 0.30399999022483826 -0.07499999552965164
v 0.4356953203678131 0.23542188107967377 -0.07499999552965164
v 0.4356953203678131 0.1353437602519989 -0.07499999552965164
v 0.3821640610694885 0.1353437602519989 -0.07499999552965164
v 0.3821640610694885 -0.1459999978542328 -0.07499999552965164
v 0.4283202886581421 -0.1459999978542328 -0.07499999552965164
v 0.4283202886581421 -0.30399999022483826 -0.07499999552965164
v 0.15049219131469727 -0.30399999022483826 -0.07499999552965164
v -0.4356953203678131 0.015625 -0.07499999552965164
v -0.34313276410102844 0.1080000102519989 -0.07499999552965164
v -0.18669530749320984 0.1080000102519989 -0.07499999552965164
v -0.18669530749320984 0.15200002491474152 -0.07499999552965164
v -0.4105859398841858 0.15200002491474152 -0.07499999552965164
v -0.4105859398841858 0.30399999022483826 -0.07499999552965164
v -0.011695308610796928 0.30399999022483826 -0.07499999552965164
v -0.011695308610796928 -0.028999995440244675 -0.07499999552965164
v -0.25469526648521423 -0.028999995440244675 -0.07499999552965164
v -0.25469526648521423 -0.1459999978542328 -0.07499999552965164
v -0.17869527637958527 -0.1459999978542328 -0.07499999552965164
v -0.17869527637958527 -0.06299999356269836 -0.07499999552965164
v -0.0016953086014837027 -0.06299999356269836 -0.07499999552965164
v -0.0016953086014837027 -0.19965624809265137 -0.07499999552965164
v -0.10603902488946915 -0.30399999022483826 -0.07499999552965164
v -0.32950782775878906 -0.30399999022483826 -0.07499999552965164
v -0.4356953203678131 -0.19684375822544098 -0.07499999552965164
v 0.15049219131469727 -0.1459999978542328 0.07499999552965164
v 0.1966484636068344 -0.1459999978542328 0.07499999552965164
v 0.1966484636068344 0.30399999022483826 0.07499999552965164
v 0.3664765954017639 0.30399999022483826 0.07499999552965164
v 0.4356953203678131 0.23542188107967377 0.07499999552965164
v 0.4356953203678131 0.1353437602519989 0.07499999552965164
v 0.3821640610694885 0.1353437602519989 0.07499999552965164
v 0.3821640610694885 -0.1459999978542328 0.07499999552965164
v 0.4283202886581421 -0.1459999978542328 0.07499999552965164
v 0.4283202886581421 -0.30399999022483826 0.07499999552965164
v 0.15049219131469727 -0.30399999022483826 0.07499999552965164
v -0.4356953203678131 0.015625 0.07499999552965164
v -0.34313276410102844 0.1080000102519989 0.07499999552965164
v -0.18669530749320984 0.1080000102519989 0.07499999552965164
v -0.18669530749320984 0.15200002491474152 0.07499999552965164
v -0.4105859398841858 0.15200002491474152 0.07499999552965164
v -0.4105859398841858 0.30399999022483826 0.07499999552965164
v -0.011695308610796928 0.30399999022483826 0.07499999552965164
v -0.011695308610796928 -0.028999995440244675 0.07499999552965164
v -0.25469526648521423 -0.028999995440244675 0.07499999552965164
v -0.25469526648521423 -0.1459999978542328 0.07499999552965164
v -0.17869527637958527 -0.1459999978542328 0.07499999552965164
v -0.17869527637958527 -0.06299999356269836 0.07499999552965164
v -0.0016953086014837027 -0.06299999356269836 0.07499999552965164
v -0.0016953086014837027 -0.19965624809265137 0.07499999552965164
v -0.10603902488946915 -0.30399999022483826 0.07499999552965164
v -0.32950782775878906 -0.30399999022483826 0.07499999552965164
v -0.4356953203678131 -0.19684375822544098 0.07499999552965164
v 0.1764662265777588 -0.1719740331172943 0.10097404569387436
v 0.22262249886989594 -0.1719740331172943 0.10097404569387436
v 0.22262249886989594 0.27802595496177673 0.10097404569387436
v 0.3557884097099304 0.27802595496177673 0.10097404569387436
v 0.4097212851047516 0.22459226846694946 0.10097404569387436
v 0.4097212851047516 0.16131779551506042 0.10097404569387436
v 0.356190025806427 0.16131779551506042 0.10097404569387436
v 0.356190025806427 -0.1719740331172943 0.10097404569387436
v 0.40234625339508057 -0.1719740331172943 0.10097404569387436
v 0.40234625339508057 -0.27802595496177673 0.10097404569387436
v 0.1764662265777588 -0.27802595496177673 0.10097404569387436
v -0.4097212851047516 0.0048507689498364925 0.10097404569387436
v -0.33238935470581055 0.08202596753835678 0.10097404569387436
v -0.16072125732898712 0.08202596753835678 0.10097404569387436
v -0.16072125732898712 0.17797406017780304 0.10097404569387436
v -0.3846118748188019 0.17797406017780304 0.10097404569387436
v -0.3846118748188019 0.27802595496177673 0.10097404569387436
v -0.0376693531870842 0.27802595496177673 0.10097404569387436
v -0.0376693531870842 -0.0030259513296186924 0.10097404569387436
v -0.28066930174827576 -0.0030259513296186924 0.10097404569387436
v -0.28066930174827576 -0.1719740331172943 0.10097404569387436
v -0.15272122621536255 -0.1719740331172943 0.10097404569387436
v -0.15272122621536255 -0.08897403627634048 0.10097404569387436
v -0.027669353410601616 -0.08897403627634048 0.10097404569387436
v -0.027669353410601616 -0.18889743089675903 0.10097404569387436
v -0.11679782718420029 -0.27802595496177673 0.10097404569387436
v -0.3186798393726349 -0.27802595496177673 0.10097404569387436
v -0.4097212851047516 -0.18615396320819855 0.10097404569387436
v 0.1966484636068344 -0.1459999978542328 -0.07499999552965164
v 0.1966484636068344 -0.1459999978542328 0.07499999552965164
v 0.1966484636068344 0.30399999022483826 -0.07499999552965164
v 0.1966484636068344 0.30399999022483826 0.07499999552965164
v 0.3664765954017639 0.30399999022483826 -0.07499999552965164
v 0.3664765954017639 0.30399999022483826 0.07499999552965164
v 0.4356953203678131 0.23542188107967377 -0.07499999552965164
v 0.4356953203678131 0.23542188107967377 0.07499999552965164
v 0.4356953203678131 0.1353437602519989 -0.07499999552965164
v 0.4356953203678131 0.1353437602519989 0.07499999552965164
v 0.3821640610694885 0.1353437602519989 -0.07499999552965164
v 0.3821640610694885 0.1353437602519989 0.07499999552965164
v 0.3821640610694885 -0.1459999978542328 -0.07499999552965164
v 0.3821640610694885 -0.1459999978542328 0.07499999552965164
v 0.4283202886581421 -0.1459999978542328 -0.07499999552965164
v 0.4283202886581421 -0.1459999978542328 0.07499999552965164
v 0.4283202886581421 -0.30399999022483826 -0.07499999552965164
v 0.4283202886581421 -0.30399999022483826 0.07499999552965164
v 0.15049219131469727 -0.30399999022483826 -0.07499999552965164
v 0.15049219131469727 -0.30399999022483826 0.07499999552965164
v 0.15049219131469727 -0.1459999978542328 -0.07499999552965164
v 0.15049219131469727 -0.1459999978542328 0.07499999552965164
v -0.34313276410102844 0.1080000102519989 -0.07499999552965164
v -0.34313276410102844 0.1080000102519989 0.07499999552965164
v -0.18669530749320984 0.1080000102519989 -0.07499999552965164
v -0.18669530749320984 0.1080000102519989 0.07499999552965164
v -0.18669530749320984 0.15200002491474152 -0.07499999552965164
v -0.18669530749320984 0.15200002491474152 0.07499999552965164
v -0.4105859398841858 0.15200002491474152 -0.07499999552965164
v -0.4105859398841858 0.15200002491474152 0.07499999552965164
v -0.4105859398841858 0.30399999022483826 -0.07499999552965164
v -0.4105859398841858 0.30399999022483826 0.07499999552965164
v -0.011695308610796928 0.30399999022483826 -0.07499999552965164
v -0.011695308610796928 0.30399999022483826 0.07499999552965164
v -0.011695308610796928 -0.028999995440244675 -0.07499999552965164
v -0.011695308610796928 -0.028999995440244675 0.07499999552965164
v -0.25469526648521423 -0.028999995440244675 -0.07499999552965164
v -0.25469526648521423 -0.028999995440244675 0.07499999552965164
v -0.25469526648521423 -0.1459999978542328 -0.07499999552965164
v -0.25469526648521423 -0.1459999978542328 0.07499999552965164
v -0.17869527637958527 -0.1459999978542328 -0.07499999552965164
v -0.17869527637958527 -0.1459999978542328 0.07499999552965164
v -0.17869527637958527 -0.06299999356269836 -0.07499999552965164
v -0.17869527637958527 -0.06299999356269836 0.07499999552965164
v -0.0016953086014837027 -0.06299999356269836 -0.07499999552965164
v -0.0016953086014837027 -0.06299999356269836 0.07499999552965164
v -0.0016953086014837027 -0.19965624809265137 -0.07499999552965164
v -0.10603902488946915 -0.30399999022483826 -0.07499999552965164
v -0.10603902488946915 -0.30399999022483826 0.07499999552965164
v -0.32950782775878906 -0.30399999022483826 -0.07499999552965164
v -0.32950782775878906 -0.30399999022483826 0.07499999552965164
v -0.4356953203678131 0.015625 -0.07499999552965164
v -0.4356953203678131 0.015625 0.07499999552965164
v 0.1966484636068344 -0.1459999978542328 -0.07499999552965164
v 0.1764662265777588 -0.1719740331172943 -0.10097404569387436
v 0.15049219131469727 -0.1459999978542328 -0.07499999552965164
v 0.22262249886989594 -0.1719740331172943 -0.10097404569387436
v 0.1966484636068344 0.30399999022483826 -0.07499999552965164
v 0.22262249886989594 -0.1719740331172943 -0.10097404569387436
v 0.1966484636068344 -0.1459999978542328 -0.07499999552965164
v 0.22262249886989594 0.27802595496177673 -0.10097404569387436
v 0.3664765954017639 0.30399999022483826 -0.07499999552965164
v 0.22262249886989594 0.27802595496177673 -0.10097404569387436
v 0.1966484636068344 0.30399999022483826 -0.07499999552965164
v 0.3557884097099304 0.27802595496177673 -0.10097404569387436
v 0.4356953203678131 0.23542188107967377 -0.07499999552965164
v 0.3664765954017639 0.30399999022483826 -0.07499999552965164
v 0.4097212851047516 0.22459226846694946 -0.10097404569387436
v 0.4356953203678131 0.23542188107967377 -0.07499999552965164
v 0.4097212851047516 0.16131779551506042 -0.10097404569387436
v 0.3821640610694885 0.1353437602519989 -0.07499999552965164
v 0.4097212851047516 0.16131779551506042 -0.10097404569387436
v 0.4356953203678131 0.1353437602519989 -0.07499999552965164
v 0.356190025806427 0.16131779551506042 -0.10097404569387436
v 0.356190025806427 0.16131779551506042 -0.10097404569387436
v 0.356190025806427 -0.1719740331172943 -0.10097404569387436
v 0.4283202886581421 -0.1459999978542328 -0.07499999552965164
v 0.356190025806427 -0.1719740331172943 -0.10097404569387436
v 0.3821640610694885 -0.1459999978542328 -0.07499999552965164
v 0.40234625339508057 -0.1719740331172943 -0.10097404569387436
v 0.40234625339508057 -0.1719740331172943 -0.10097404569387436
v 0.40234625339508057 -0.27802595496177673 -0.10097404569387436
v 0.15049219131469727 -0.30399999022483826 -0.07499999552965164
v 0.40234625339508057 -0.27802595496177673 -0.10097404569387436
v 0.4283202886581421 -0.30399999022483826 -0.07499999552965164
v 0.1764662265777588 -0.27802595496177673 -0.10097404569387436
v 0.15049219131469727 -0.1459999978542328 -0.07499999552965164
v 0.1764662265777588 -0.27802595496177673 -0.10097404569387436
v 0.15049219131469727 -0.30399999022483826 -0.07499999552965164
v 0.1764662265777588 -0.1719740331172943 -0.10097404569387436
v -0.34313276410102844 0.1080000102519989 -0.07499999552965164
v -0.4097212851047516 0.0048507689498364925 -0.10097404569387436
v -0.4356953203678131 0.015625 -0.07499999552965164
v -0.33238935470581055 0.08202596753835678 -0.10097404569387436
v -0.18669530749320984 0.1080000102519989 -0.07499999552965164
v -0.16072125732898712 0.08202596753835678 -0.10097404569387436
v -0.18669530749320984 0.15200002491474152 -0.07499999552965164
v -0.16072125732898712 0.08202596753835678 -0.10097404569387436
v -0.18669530749320984 0.1080000102519989 -0.07499999552965164
v -0.16072125732898712 0.17797406017780304 -0.10097404569387436
v -0.4105859398841858 0.15200002491474152 -0.07499999552965164
v -0.16072125732898712 0.17797406017780304 -0.10097404569387436
v -0.18669530749320984 0.15200002491474152 -0.07499999552965164
v -0.3846118748188019 0.17797406017780304 -0.10097404569387436
v -0.4105859398841858 0.30399999022483826 -0.07499999552965164
v -0.3846118748188019 0.17797406017780304 -0.10097404569387436
v -0.4105859398841858 0.15200002491474152 -0.07499999552965164
v -0.3846118748188019 0.27802595496177673 -0.10097404569387436
v -0.011695308610796928 0.30399999022483826 -0.07499999552965164
v -0.3846118748188019 0.27802595496177673 -0.10097404569387436
v -0.4105859398841858 0.30399999022483826 -0.07499999552965164
v -0.0376693531870842 0.27802595496177673 -0.10097404569387436
v -0.0376693531870842 0.27802595496177673 -0.10097404569387436
v -0.0376693531870842 -0.0030259513296186924 -0.10097404569387436
v -0.25469526648521423 -0.028999995440244675 -0.07499999552965164
v -0.0376693531870842 -0.0030259513296186924 -0.10097404569387436
v -0.011695308610796928 -0.028999995440244675 -0.07499999552965164
v -0.28066930174827576 -0.0030259513296186924 -0.10097404569387436
v -0.28066930174827576 -0.0030259513296186924 -0.10097404569387436
v -0.28066930174827576 -0.1719740331172943 -0.10097404569387436
v -0.17869527637958527 -0.1459999978542328 -0.07499999552965164
v -0.28066930174827576 -0.1719740331172943 -0.10097404569387436
v -0.25469526648521423 -0.1459999978542328 -0.07499999552965164
v -0.15272122621536255 -0.1719740331172943 -0.10097404569387436
v -0.17869527637958527 -0.06299999356269836 -0.07499999552965164
v -0.15272122621536255 -0.1719740331172943 -0.10097404569387436
v -0.17869527637958527 -0.1459999978542328 -0.07499999552965164
v -0.15272122621536255 -0.08897403627634048 -0.10097404569387436
v -0.0016953086014837027 -0.06299999356269836 -0.07499999552965164
v -0.15272122621536255 -0.08897403627634048 -0.10097404569387436
v -0.17869527637958527 -0.06299999356269836 -0.07499999552965164
v -0.027669353410601616 -0.08897403627634048 -0.10097404569387436
v -0.027669353410601616 -0.08897403627634048 -0.10097404569387436
v -0.027669353410601616 -0.18889743089675903 -0.10097404569387436
v -0.10603902488946915 -0.30399999022483826 -0.07499999552965164
v -0.0016953086014837027 -0.19965624809265137 -0.07499999552965164
v -0.11679782718420029 -0.27802595496177673 -0.10097404569387436
v -0.32950782775878906 -0.30399999022483826 -0.07499999552965164
v -0.10603902488946915 -0.30399999022483826 -0.07499999552965164
v -0.3186798393726349 -0.27802595496177673 -0.10097404569387436
v -0.4356953203678131 -0.19684375822544098 -0.07499999552965164
v -0.32950782775878906 -0.30399999022483826 -0.07499999552965164
v -0.4097212851047516 -0.18615396320819855 -0.10097404569387436
v -0.4356953203678131 0.015625 -0.07499999552965164
v -0.4356953203678131 -0.19684375822544098 -0.07499999552965164
v 0.15049219131469727 -0.1459999978542328 0.07499999552965164
v 0.22262249886989594 -0.1719740331172943 0.10097404569387436
v 0.1966484636068344 -0.1459999978542328 0.07499999552965164
v 0.1764662265777588 -0.1719740331172943 0.10097404569387436
v 0.22262249886989594 0.27802595496177673 0.10097404569387436
v 0.22262249886989594 -0.1719740331172943 0.10097404569387436
v 0.1966484636068344 0.30399999022483826 0.07499999552965164
v 0.3557884097099304 0.27802595496177673 0.10097404569387436
v 0.3664765954017639 0.30399999022483826 0.07499999552965164
v 0.22262249886989594 0.27802595496177673 0.10097404569387436
v 0.4097212851047516 0.22459226846694946 0.10097404569387436
v 0.4356953203678131 0.23542188107967377 0.07499999552965164
v 0.4356953203678131 0.23542188107967377 0.07499999552965164
v 0.4097212851047516 0.16131779551506042 0.10097404569387436
v 0.4356953203678131 0.1353437602519989 0.07499999552965164
v 0.4356953203678131 0.1353437602519989 0.07499999552965164
v 0.356190025806427 0.16131779551506042 0.10097404569387436
v 0.3821640610694885 0.1353437602519989 0.07499999552965164
v 0.4097212851047516 0.16131779551506042 0.10097404569387436
v 0.3821640610694885 0.1353437602519989 0.07499999552965164
v 0.356190025806427 -0.1719740331172943 0.10097404569387436
v 0.3821640610694885 -0.1459999978542328 0.07499999552965164
v 0.356190025806427 0.16131779551506042 0.10097404569387436
v 0.3821640610694885 -0.1459999978542328 0.07499999552965164
v 0.40234625339508057 -0.1719740331172943 0.10097404569387436
v 0.4283202886581421 -0.1459999978542328 0.07499999552965164
v 0.356190025806427 -0.1719740331172943 0.10097404569387436
v 0.4283202886581421 -0.1459999978542328 0.07499999552965164
v 0.40234625339508057 -0.27802595496177673 0.10097404569387436
v 0.4283202886581421 -0.30399999022483826 0.07499999552965164
v 0.40234625339508057 -0.1719740331172943 0.10097404569387436
v 0.4283202886581421 -0.30399999022483826 0.07499999552965164
v 0.1764662265777588 -0.27802595496177673 0.10097404569387436
v 0.15049219131469727 -0.30399999022483826 0.07499999552965164
v 0.40234625339508057 -0.27802595496177673 0.10097404569387436
v 0.1764662265777588 -0.1719740331172943 0.10097404569387436
v 0.1764662265777588 -0.27802595496177673 0.10097404569387436
v -0.4356953203678131 0.015625 0.07499999552965164
v -0.33238935470581055 0.08202596753835678 0.10097404569387436
v -0.34313276410102844 0.1080000102519989 0.07499999552965164
v -0.4097212851047516 0.0048507689498364925 0.10097404569387436
v -0.34313276410102844 0.1080000102519989 0.07499999552965164
v -0.16072125732898712 0.08202596753835678 0.10097404569387436
v -0.18669530749320984 0.1080000102519989 0.07499999552965164
v -0.16072125732898712 0.17797406017780304 0.10097404569387436
v -0.16072125732898712 0.08202596753835678 0.10097404569387436
v -0.18669530749320984 0.15200002491474152 0.07499999552965164
v -0.3846118748188019 0.17797406017780304 0.10097404569387436
v -0.4105859398841858 0.15200002491474152 0.07499999552965164
v -0.16072125732898712 0.17797406017780304 0.10097404569387436
v -0.3846118748188019 0.27802595496177673 0.10097404569387436
v -0.3846118748188019 0.17797406017780304 0.10097404569387436
v -0.4105859398841858 0.30399999022483826 0.07499999552965164
v -0.0376693531870842 0.27802595496177673 0.10097404569387436
v -0.011695308610796928 0.30399999022483826 0.07499999552965164
v -0.3846118748188019 0.27802595496177673 0.10097404569387436
v -0.011695308610796928 0.30399999022483826 0.07499999552965164
v -0.0376693531870842 -0.0030259513296186924 0.10097404569387436
v -0.011695308610796928 -0.028999995440244675 0.07499999552965164
v -0.0376693531870842 0.27802595496177673 0.10097404569387436
v -0.011695308610796928 -0.028999995440244675 0.07499999552965164
v -0.28066930174827576 -0.0030259513296186924 0.10097404569387436
v -0.25469526648521423 -0.028999995440244675 0.07499999552965164
v -0.0376693531870842 -0.0030259513296186924 0.10097404569387436
v -0.25469526648521423 -0.028999995440244675 0.07499999552965164
v -0.28066930174827576 -0.1719740331172943 0.10097404569387436
v -0.25469526648521423 -0.1459999978542328 0.07499999552965164
v -0.28066930174827576 -0.0030259513296186924 0.10097404569387436
v -0.25469526648521423 -0.1459999978542328 0.07499999552965164
v -0.15272122621536255 -0.1719740331172943 0.10097404569387436
v -0.17869527637958527 -0.1459999978542328 0.07499999552965164
v -0.28066930174827576 -0.1719740331172943 0.10097404569387436
v -0.15272122621536255 -0.08897403627634048 0.10097404569387436
v -0.15272122621536255 -0.1719740331172943 0.10097404569387436
v -0.17869527637958527 -0.06299999356269836 0.07499999552965164
v -0.027669353410601616 -0.08897403627634048 0.10097404569387436
v -0.0016953086014837027 -0.06299999356269836 0.07499999552965164
v -0.15272122621536255 -0.08897403627634048 0.10097404569387436
v -0.0016953086014837027 -0.06299999356269836 0.07499999552965164
v -0.027669353410601616 -0.18889743089675903 0.10097404569387436
v -0.0016953086014837027 -0.19965624809265137 0.07499999552965164
v -0.027669353410601616 -0.08897403627634048 0.10097404569387436
v -0.0016953086014837027 -0.19965624809265137 0.07499999552965164
v -0.11679782718420029 -0.27802595496177673 0.10097404569387436
v -0.10603902488946915 -0.30399999022483826 0.07499999552965164
v -0.3186798393726349 -0.27802595496177673 0.10097404569387436
v -0.32950782775878906 -0.30399999022483826 0.07499999552965164
v -0.32950782775878906 -0.30399999022483826 0.07499999552965164
v -0.4097212851047516 -0.18615396320819855 0.10097404569387436
v -0.4356953203678131 0.015625 0.07499999552965164
g submesh_0
f 58 30 57
f 57 30 29
f 262 59 114
f 114 59 31
f 114 31 113
f 60 32 116
f 116 32 115
f 61 33 118
f 118 33 117
f 62 34 120
f 120 34 119
f 63 35 122
f 122 35 121
f 187 123 36
f 36 123 124
f 36 124 64
f 65 37 126
f 126 37 125
f 193 127 38
f 38 127 128
f 38 128 66
f 67 39 130
f 130 39 129
f 293 134 132
f 132 134 133
f 132 133 131
f 69 41 68
f 68 41 40
f 70 42 136
f 136 42 135
f 302 71 138
f 138 71 43
f 138 43 137
f 72 44 140
f 140 44 139
f 308 73 142
f 142 73 45
f 142 45 141
f 74 46 144
f 144 46 143
f 225 145 47
f 47 145 146
f 47 146 75
f 76 48 148
f 148 48 147
f 231 149 49
f 49 149 150
f 49 150 77
f 78 50 152
f 152 50 151
f 330 79 154
f 154 79 51
f 154 51 153
f 80 52 156
f 156 52 155
f 81 53 158
f 158 53 157
f 82 54 81
f 81 54 159
f 83 55 161
f 161 55 160
f 165 164 84
f 84 164 56
f 84 56 163
f 163 56 162
f 92 91 86
f 92 86 94
f 94 86 85
f 94 85 95
f 93 92 94
f 90 89 91
f 91 89 88
f 91 88 87
f 111 110 106
f 106 110 109
f 106 109 107
f 107 109 108
f 104 103 98
f 98 103 102
f 98 102 99
f 99 102 101
f 99 101 100
f 7 8 2
f 2 8 10
f 2 10 1
f 1 10 11
f 10 8 9
f 3 4 7
f 7 4 5
f 7 5 6
f 26 27 22
f 26 22 25
f 25 22 23
f 25 23 24
f 16 17 15
f 15 17 18
f 15 18 14
f 14 18 19
f 14 19 20
f 168 166 167
f 167 166 169
f 172 170 171
f 171 170 173
f 176 174 175
f 175 174 177
f 179 178 177
f 177 178 180
f 181 34 180
f 180 34 182
f 185 183 184
f 184 183 186
f 188 187 36
f 191 189 190
f 190 189 192
f 194 193 38
f 197 195 196
f 196 195 198
f 201 199 200
f 200 199 202
f 207 208 206
f 207 206 203
f 203 206 204
f 203 204 205
f 211 209 210
f 210 209 212
f 215 213 214
f 214 213 216
f 219 217 218
f 218 217 220
f 223 221 222
f 222 221 224
f 226 225 47
f 229 227 228
f 228 227 230
f 232 231 49
f 235 233 234
f 234 233 236
f 239 237 238
f 238 237 240
f 243 241 242
f 242 241 244
f 157 159 245
f 245 159 246
f 248 247 246
f 246 247 249
f 251 250 249
f 249 250 252
f 254 253 252
f 252 253 255
f 257 256 255
f 255 256 204
f 260 258 259
f 259 258 261
f 263 262 114
f 268 269 266
f 268 266 265
f 265 266 264
f 265 264 267
f 272 270 271
f 271 270 268
f 275 273 274
f 274 273 276
f 279 277 278
f 278 277 280
f 283 281 282
f 282 281 284
f 287 285 286
f 286 285 288
f 291 289 290
f 290 289 292
f 294 293 132
f 297 295 296
f 296 295 298
f 301 299 300
f 300 299 296
f 303 302 138
f 306 304 305
f 305 304 307
f 309 308 142
f 312 310 311
f 311 310 313
f 316 314 315
f 315 314 317
f 320 318 319
f 319 318 321
f 324 322 323
f 323 322 325
f 328 326 327
f 327 326 329
f 331 330 154
f 334 332 333
f 333 332 335
f 338 336 337
f 337 336 339
f 343 344 342
f 343 342 341
f 341 342 340
f 341 340 337
f 298 347 84
f 298 84 346
f 346 84 345
f 346 345 343
f 86 91 87
f 96 112 105
f 105 112 111
f 105 111 106
f 98 97 104
f 104 97 96
f 104 96 105
f 3 7 2
f 22 27 21
f 21 27 28
f 21 28 12
f 21 12 20
f 20 12 13
f 20 13 14
