# of
v 0.037500303238630295 0.1969843953847885 -4.720413357972575e-07
v 0.14454680681228638 0.30400002002716064 -4.720413357972575e-07
v 0.3761563003063202 0.30400002002716064 -4.720413357972575e-07
v 0.47949981689453125 0.20067191123962402 -4.720413357972575e-07
v 0.47949981689453125 -0.19974997639656067 -4.720413357972575e-07
v 0.3752346634864807 -0.30399996042251587 -4.720413357972575e-07
v 0.14268767833709717 -0.30399996042251587 -4.720413357972575e-07
v 0.037500303238630295 -0.1988280862569809 -4.720413357972575e-07
v 0.3014999330043793 -0.1459999680519104 -4.720413357972575e-07
v 0.3014999330043793 0.14600001275539398 -4.720413357972575e-07
v 0.2164999395608902 0.14600001275539398 -4.720413357972575e-07
v 0.2164999395608902 -0.1459999680519104 -4.720413357972575e-07
v -0.47949981689453125 0.30400002002716064 -4.720413357972575e-07
v -0.027499694377183914 0.30400002002716064 -4.720413357972575e-07
v -0.027499694377183914 0.1470000445842743 -4.720413357972575e-07
v -0.06849944591522217 0.1470000445842743 -4.720413357972575e-07
v -0.06849944591522217 -0.1459999680519104 -4.720413357972575e-07
v -0.027499694377183914 -0.1459999680519104 -4.720413357972575e-07
v -0.027499694377183914 -0.30399996042251587 -4.720413357972575e-07
v -0.29049956798553467 -0.30399996042251587 -4.720413357972575e-07
v -0.29049956798553467 -0.1459999680519104 -4.720413357972575e-07
v -0.24949981272220612 -0.1459999680519104 -4.720413357972575e-07
v -0.24949981272220612 -0.08499997854232788 -4.720413357972575e-07
v -0.3856246769428253 -0.08499997854232788 -4.720413357972575e-07
v -0.3856246769428253 0.06800002604722977 -4.720413357972575e-07
v -0.24949981272220612 0.06800002604722977 -4.720413357972575e-07
v -0.24949981272220612 0.1470000445842743 -4.720413357972575e-07
v -0.31949982047080994 0.1470000445842743 -4.720413357972575e-07
v -0.31949982047080994 0.10700004547834396 -4.720413357972575e-07
v -0.47949981689453125 0.10700004547834396 -4.720413357972575e-07
g submesh_0
f 24 23 26
f 26 23 16
f 26 16 27
f 27 16 14
f 27 14 28
f 28 14 13
f 28 13 29
f 29 13 30
f 25 24 26
f 18 17 19
f 19 17 22
f 19 22 20
f 20 22 21
f 14 16 15
f 8 7 12
f 8 12 1
f 1 12 11
f 1 11 10
f 4 3 10
f 10 3 2
f 10 2 1
f 7 6 9
f 9 6 5
f 9 5 10
f 10 5 4
f 9 12 7
f 17 16 22
f 22 16 23
