# 04
v -0.24182814359664917 0.025000018998980522 -0.07499999552965164
v -0.1711718738079071 0.025000018998980522 -0.07499999552965164
v -0.1711718738079071 0.30399999022483826 -0.07499999552965164
v 0.014546813443303108 0.30399999022483826 -0.07499999552965164
v 0.24182814359664917 0.0032500075176358223 -0.07499999552965164
v 0.24182814359664917 -0.11299999058246613 -0.07499999552965164
v 0.0008280944894067943 -0.11299999058246613 -0.07499999552965164
v 0.0008280944894067943 -0.1459999978542328 -0.07499999552965164
v 0.053828123956918716 -0.1459999978542328 -0.07499999552965164
v 0.053828123956918716 -0.30399999022483826 -0.07499999552965164
v -0.20817184448242188 -0.30399999022483826 -0.07499999552965164
v -0.20817184448242188 -0.1459999978542328 -0.07499999552965164
v -0.16517196595668793 -0.1459999978542328 -0.07499999552965164
v -0.16517196595668793 -0.11299999058246613 -0.07499999552965164
v -0.24182814359664917 -0.11299999058246613 -0.07499999552965164
v 0.04707809165120125 0.025000018998980522 -0.07499999552965164
v -0.0021719359792768955 0.09200002253055573 -0.07499999552965164
v -0.0021719359792768955 0.025000018998980522 -0.07499999552965164
v -0.24182814359664917 0.025000018998980522 0.07499999552965164
v -0.1711718738079071 0.025000018998980522 0.07499999552965164
v -0.1711718738079071 0.30399999022483826 0.07499999552965164
v 0.014546813443303108 0.30399999022483826 0.07499999552965164
v 0.24182814359664917 0.0032500075176358223 0.07499999552965164
v 0.24182814359664917 -0.11299999058246613 0.07499999552965164
v 0.0008280944894067943 -0.11299999058246613 0.07499999552965164
v 0.0008280944894067943 -0.1459999978542328 0.07499999552965164
v 0.053828123956918716 -0.1459999978542328 0.07499999552965164
v 0.053828123956918716 -0.30399999022483826 0.07499999552965164
v -0.20817184448242188 -0.30399999022483826 0.07499999552965164
v -0.20817184448242188 -0.1459999978542328 0.07499999552965164
v -0.16517196595668793 -0.1459999978542328 0.07499999552965164
v -0.16517196595668793 -0.11299999058246613 0.07499999552965164
v -0.24182814359664917 -0.11299999058246613 0.07499999552965164
v 0.04707809165120125 0.025000018998980522 0.07499999552965164
v -0.0021719359792768955 0.09200002253055573 0.07499999552965164
v -0.0021719359792768955 0.025000018998980522 0.07499999552965164
v -0.22346176207065582 0.006633624900132418 -0.10071296244859695
v -0.15280547738075256 0.006633624900132418 -0.10071296244859695
v -0.15280547738075256 0.2856335937976837 -0.10071296244859695
v 0.005405426025390625 0.2856335937976837 -0.10071296244859695
v 0.22346176207065582 -0.002909374190494418 -0.10071296244859695
v 0.22346176207065582 -0.09463357925415039 -0.10071296244859695
v -0.017538299784064293 -0.09463357925415039 -0.10071296244859695
v -0.017538299784064293 -0.16436639428138733 -0.10071296244859695
v 0.035461731255054474 -0.16436639428138733 -0.10071296244859695
v 0.035461731255054474 -0.28563356399536133 -0.10071296244859695
v -0.18980544805526733 -0.28563356399536133 -0.10071296244859695
v -0.18980544805526733 -0.16436639428138733 -0.10071296244859695
v -0.1468055695295334 -0.16436639428138733 -0.10071296244859695
v -0.1468055695295334 -0.09463357925415039 -0.10071296244859695
v -0.22346176207065582 -0.09463357925415039 -0.10071296244859695
v 0.08337337523698807 0.006633624900132418 -0.10071296244859695
v -0.020538330078125 0.14799566566944122 -0.10071296244859695
v -0.020538330078125 0.006633624900132418 -0.10071296244859695
v -0.22346176207065582 0.006633624900132418 0.10071296244859695
v -0.15280547738075256 0.006633624900132418 0.10071296244859695
v -0.15280547738075256 0.2856335937976837 0.10071296244859695
v 0.005405426025390625 0.2856335937976837 0.10071296244859695
v 0.22346176207065582 -0.002909374190494418 0.10071296244859695
v 0.22346176207065582 -0.09463357925415039 0.10071296244859695
v -0.017538299784064293 -0.09463357925415039 0.10071296244859695
v -0.017538299784064293 -0.16436639428138733 0.10071296244859695
v 0.035461731255054474 -0.16436639428138733 0.10071296244859695
v 0.035461731255054474 -0.28563356399536133 0.10071296244859695
v -0.18980544805526733 -0.28563356399536133 0.10071296244859695
v -0.18980544805526733 -0.16436639428138733 0.10071296244859695
v -0.1468055695295334 -0.16436639428138733 0.10071296244859695
v -0.1468055695295334 -0.09463357925415039 0.10071296244859695
v -0.22346176207065582 -0.09463357925415039 0.10071296244859695
v 0.08337337523698807 0.006633624900132418 0.10071296244859695
v -0.020538330078125 0.14799566566944122 0.10071296244859695
v -0.020538330078125 0.006633624900132418 0.10071296244859695
v -0.1711718738079071 0.025000018998980522 -0.07499999552965164
v -0.1711718738079071 0.025000018998980522 0.07499999552965164
v -0.1711718738079071 0.30399999022483826 -0.07499999552965164
v -0.1711718738079071 0.30399999022483826 0.07499999552965164
v 0.014546813443303108 0.30399999022483826 -0.07499999552965164
v 0.014546813443303108 0.30399999022483826 0.07499999552965164
v 0.24182814359664917 -0.11299999058246613 -0.07499999552965164
v 0.24182814359664917 -0.11299999058246613 0.07499999552965164
v 0.0008280944894067943 -0.11299999058246613 -0.07499999552965164
v 0.0008280944894067943 -0.11299999058246613 0.07499999552965164
v 0.0008280944894067943 -0.1459999978542328 -0.07499999552965164
v 0.0008280944894067943 -0.1459999978542328 0.07499999552965164
v 0.053828123956918716 -0.1459999978542328 -0.07499999552965164
v 0.053828123956918716 -0.1459999978542328 0.07499999552965164
v 0.053828123956918716 -0.30399999022483826 -0.07499999552965164
v 0.053828123956918716 -0.30399999022483826 0.07499999552965164
v -0.20817184448242188 -0.30399999022483826 -0.07499999552965164
v -0.20817184448242188 -0.30399999022483826 0.07499999552965164
v -0.20817184448242188 -0.1459999978542328 -0.07499999552965164
v -0.20817184448242188 -0.1459999978542328 0.07499999552965164
v -0.16517196595668793 -0.1459999978542328 -0.07499999552965164
v -0.16517196595668793 -0.1459999978542328 0.07499999552965164
v -0.16517196595668793 -0.11299999058246613 -0.07499999552965164
v -0.16517196595668793 -0.11299999058246613 0.07499999552965164
v -0.24182814359664917 -0.11299999058246613 -0.07499999552965164
v -0.24182814359664917 -0.11299999058246613 0.07499999552965164
v -0.24182814359664917 0.025000018998980522 -0.07499999552965164
v -0.24182814359664917 0.025000018998980522 0.07499999552965164
v -0.0021719359792768955 0.09200002253055573 -0.07499999552965164
v -0.0021719359792768955 0.09200002253055573 0.07499999552965164
v -0.0021719359792768955 0.025000018998980522 -0.07499999552965164
v -0.0021719359792768955 0.025000018998980522 0.07499999552965164
v 0.04707809165120125 0.025000018998980522 -0.07499999552965164
v 0.04707809165120125 0.025000018998980522 0.07499999552965164
v -0.1711718738079071 0.025000018998980522 -0.07499999552965164
v -0.22346176207065582 0.006633624900132418 -0.10071296244859695
v -0.24182814359664917 0.025000018998980522 -0.07499999552965164
v -0.15280547738075256 0.006633624900132418 -0.10071296244859695
v -0.1711718738079071 0.30399999022483826 -0.07499999552965164
v -0.15280547738075256 0.006633624900132418 -0.10071296244859695
v -0.1711718738079071 0.025000018998980522 -0.07499999552965164
v -0.15280547738075256 0.2856335937976837 -0.10071296244859695
v 0.014546813443303108 0.30399999022483826 -0.07499999552965164
v -0.15280547738075256 0.2856335937976837 -0.10071296244859695
v -0.1711718738079071 0.30399999022483826 -0.07499999552965164
v 0.014546813443303108 0.30399999022483826 -0.07499999552965164
v 0.22346176207065582 -0.09463357925415039 -0.10071296244859695
v 0.0008280944894067943 -0.11299999058246613 -0.07499999552965164
v 0.22346176207065582 -0.09463357925415039 -0.10071296244859695
v 0.24182814359664917 -0.11299999058246613 -0.07499999552965164
v -0.017538299784064293 -0.09463357925415039 -0.10071296244859695
v -0.017538299784064293 -0.09463357925415039 -0.10071296244859695
v -0.017538299784064293 -0.16436639428138733 -0.10071296244859695
v 0.053828123956918716 -0.1459999978542328 -0.07499999552965164
v -0.017538299784064293 -0.16436639428138733 -0.10071296244859695
v 0.0008280944894067943 -0.1459999978542328 -0.07499999552965164
v 0.035461731255054474 -0.16436639428138733 -0.10071296244859695
v 0.035461731255054474 -0.16436639428138733 -0.10071296244859695
v 0.035461731255054474 -0.28563356399536133 -0.10071296244859695
v -0.20817184448242188 -0.30399999022483826 -0.07499999552965164
v 0.035461731255054474 -0.28563356399536133 -0.10071296244859695
v 0.053828123956918716 -0.30399999022483826 -0.07499999552965164
v -0.18980544805526733 -0.28563356399536133 -0.10071296244859695
v -0.20817184448242188 -0.1459999978542328 -0.07499999552965164
v -0.18980544805526733 -0.28563356399536133 -0.10071296244859695
v -0.20817184448242188 -0.30399999022483826 -0.07499999552965164
v -0.18980544805526733 -0.16436639428138733 -0.10071296244859695
v -0.16517196595668793 -0.1459999978542328 -0.07499999552965164
v -0.18980544805526733 -0.16436639428138733 -0.10071296244859695
v -0.20817184448242188 -0.1459999978542328 -0.07499999552965164
v -0.1468055695295334 -0.16436639428138733 -0.10071296244859695
v -0.16517196595668793 -0.11299999058246613 -0.07499999552965164
v -0.1468055695295334 -0.16436639428138733 -0.10071296244859695
v -0.16517196595668793 -0.1459999978542328 -0.07499999552965164
v -0.1468055695295334 -0.09463357925415039 -0.10071296244859695
v -0.24182814359664917 -0.11299999058246613 -0.07499999552965164
v -0.1468055695295334 -0.09463357925415039 -0.10071296244859695
v -0.16517196595668793 -0.11299999058246613 -0.07499999552965164
v -0.22346176207065582 -0.09463357925415039 -0.10071296244859695
v -0.24182814359664917 0.025000018998980522 -0.07499999552965164
v -0.22346176207065582 -0.09463357925415039 -0.10071296244859695
v -0.24182814359664917 -0.11299999058246613 -0.07499999552965164
v -0.22346176207065582 0.006633624900132418 -0.10071296244859695
v -0.0021719359792768955 0.09200002253055573 -0.07499999552965164
v 0.08337337523698807 0.006633624900132418 -0.10071296244859695
v 0.04707809165120125 0.025000018998980522 -0.07499999552965164
v -0.020538330078125 0.14799566566944122 -0.10071296244859695
v -0.020538330078125 0.14799566566944122 -0.10071296244859695
v -0.020538330078125 0.006633624900132418 -0.10071296244859695
v 0.04707809165120125 0.025000018998980522 -0.07499999552965164
v -0.020538330078125 0.006633624900132418 -0.10071296244859695
v -0.0021719359792768955 0.025000018998980522 -0.07499999552965164
v 0.08337337523698807 0.006633624900132418 -0.10071296244859695
v -0.24182814359664917 0.025000018998980522 0.07499999552965164
v -0.15280547738075256 0.006633624900132418 0.10071296244859695
v -0.1711718738079071 0.025000018998980522 0.07499999552965164
v -0.22346176207065582 0.006633624900132418 0.10071296244859695
v -0.15280547738075256 0.2856335937976837 0.10071296244859695
v -0.15280547738075256 0.006633624900132418 0.10071296244859695
v -0.1711718738079071 0.30399999022483826 0.07499999552965164
v 0.014546813443303108 0.30399999022483826 0.07499999552965164
v -0.15280547738075256 0.2856335937976837 0.10071296244859695
v 0.014546813443303108 0.30399999022483826 0.07499999552965164
v 0.24182814359664917 0.0032500075176358223 0.07499999552965164
v 0.22346176207065582 -0.09463357925415039 0.10071296244859695
v 0.24182814359664917 -0.11299999058246613 0.07499999552965164
v 0.24182814359664917 -0.11299999058246613 0.07499999552965164
v -0.017538299784064293 -0.09463357925415039 0.10071296244859695
v 0.0008280944894067943 -0.11299999058246613 0.07499999552965164
v 0.22346176207065582 -0.09463357925415039 0.10071296244859695
v 0.0008280944894067943 -0.11299999058246613 0.07499999552965164
v -0.017538299784064293 -0.16436639428138733 0.10071296244859695
v 0.0008280944894067943 -0.1459999978542328 0.07499999552965164
v -0.017538299784064293 -0.09463357925415039 0.10071296244859695
v 0.0008280944894067943 -0.1459999978542328 0.07499999552965164
v 0.035461731255054474 -0.16436639428138733 0.10071296244859695
v 0.053828123956918716 -0.1459999978542328 0.07499999552965164
v -0.017538299784064293 -0.16436639428138733 0.10071296244859695
v 0.053828123956918716 -0.1459999978542328 0.07499999552965164
v 0.035461731255054474 -0.28563356399536133 0.10071296244859695
v 0.053828123956918716 -0.30399999022483826 0.07499999552965164
v 0.035461731255054474 -0.16436639428138733 0.10071296244859695
v 0.053828123956918716 -0.30399999022483826 0.07499999552965164
v -0.18980544805526733 -0.28563356399536133 0.10071296244859695
v -0.20817184448242188 -0.30399999022483826 0.07499999552965164
v 0.035461731255054474 -0.28563356399536133 0.10071296244859695
v -0.18980544805526733 -0.16436639428138733 0.10071296244859695
v -0.18980544805526733 -0.28563356399536133 0.10071296244859695
v -0.20817184448242188 -0.1459999978542328 0.07499999552965164
v -0.1468055695295334 -0.16436639428138733 0.10071296244859695
v -0.16517196595668793 -0.1459999978542328 0.07499999552965164
v -0.18980544805526733 -0.16436639428138733 0.10071296244859695
v -0.1468055695295334 -0.09463357925415039 0.10071296244859695
v -0.1468055695295334 -0.16436639428138733 0.10071296244859695
v -0.16517196595668793 -0.11299999058246613 0.07499999552965164
v -0.22346176207065582 -0.09463357925415039 0.10071296244859695
v -0.24182814359664917 -0.11299999058246613 0.07499999552965164
v -0.1468055695295334 -0.09463357925415039 0.10071296244859695
v -0.22346176207065582 0.006633624900132418 0.10071296244859695
v -0.22346176207065582 -0.09463357925415039 0.10071296244859695
v -0.020538330078125 0.14799566566944122 0.10071296244859695
v 0.08337337523698807 0.006633624900132418 0.10071296244859695
v -0.0021719359792768955 0.09200002253055573 0.07499999552965164
v -0.020538330078125 0.006633624900132418 0.10071296244859695
v -0.0021719359792768955 0.025000018998980522 0.07499999552965164
v -0.020538330078125 0.14799566566944122 0.10071296244859695
v -0.0021719359792768955 0.025000018998980522 0.07499999552965164
v 0.08337337523698807 0.006633624900132418 0.10071296244859695
v 0.04707809165120125 0.025000018998980522 0.07499999552965164
v -0.020538330078125 0.006633624900132418 0.10071296244859695
g submesh_0
f 20 2 19
f 19 2 1
f 170 21 74
f 74 21 3
f 74 3 73
f 22 4 76
f 76 4 75
f 24 6 23
f 23 6 5
f 23 5 78
f 78 5 77
f 25 7 80
f 80 7 79
f 124 81 8
f 8 81 82
f 8 82 26
f 27 9 84
f 84 9 83
f 130 85 10
f 10 85 86
f 10 86 28
f 29 11 88
f 88 11 87
f 199 30 90
f 90 30 12
f 90 12 89
f 31 13 92
f 92 13 91
f 205 32 94
f 94 32 14
f 94 14 93
f 33 15 96
f 96 15 95
f 211 100 98
f 98 100 99
f 98 99 97
f 213 35 34
f 34 35 17
f 34 17 16
f 160 101 18
f 18 101 102
f 18 102 36
f 106 105 104
f 104 105 103
f 72 71 56
f 72 56 68
f 68 56 55
f 68 55 69
f 63 62 64
f 64 62 67
f 64 67 65
f 65 67 66
f 53 54 38
f 38 54 50
f 38 50 37
f 37 50 51
f 44 45 46
f 44 46 49
f 49 46 47
f 49 47 48
f 109 107 108
f 108 107 110
f 113 111 112
f 112 111 114
f 117 115 116
f 116 115 40
f 6 119 41
f 6 41 5
f 5 41 40
f 5 40 118
f 122 120 121
f 121 120 123
f 125 124 8
f 128 126 127
f 127 126 129
f 131 130 10
f 134 132 133
f 133 132 135
f 138 136 137
f 137 136 139
f 142 140 141
f 141 140 143
f 146 144 145
f 145 144 147
f 150 148 149
f 149 148 151
f 154 152 153
f 153 152 155
f 158 156 157
f 157 156 159
f 161 160 18
f 164 162 163
f 163 162 165
f 168 166 167
f 167 166 169
f 171 170 74
f 173 172 58
f 58 172 174
f 175 58 59
f 175 59 176
f 176 59 177
f 176 177 178
f 181 179 180
f 180 179 182
f 185 183 184
f 184 183 186
f 189 187 188
f 188 187 190
f 193 191 192
f 192 191 194
f 197 195 196
f 196 195 198
f 200 199 90
f 203 201 202
f 202 201 204
f 206 205 94
f 209 207 208
f 208 207 210
f 212 211 98
f 214 213 34
f 217 215 216
f 216 215 218
f 221 219 220
f 220 219 222
f 59 58 71
f 71 58 57
f 71 57 56
f 61 60 70
f 70 60 59
f 70 59 71
f 72 68 61
f 61 68 67
f 61 67 62
f 72 61 70
f 38 39 53
f 53 39 40
f 53 40 41
f 53 41 52
f 52 41 42
f 52 42 43
f 44 49 43
f 43 49 50
f 43 50 54
f 52 43 54
