# beer_yard_00
v -0.0012230280553922057 -0.0007061163196340203 0.0003282749676145613
v -0.0014122319407761097 3.8612529840165166e-10 0.0003282749676145613
v -0.001223028521053493 0.0007061163196340203 0.0003282749676145613
v -0.0007061157957650721 0.0012230289867147803 0.0003282749676145613
v -6.194811330573202e-11 0.0014122320571914315 0.0003282749676145613
v 0.0007061159703880548 0.0012230289867147803 0.0003282749676145613
v 0.0012230284046381712 0.0007061163778416812 0.0003282749676145613
v 0.0014122315915301442 5.993663898529178e-10 0.0003282749676145613
v 0.0012230287538841367 -0.0007061150972731411 0.0003282749676145613
v 0.0007061163196340203 -0.0012230277061462402 0.0003282749676145613
v 7.038118976510077e-10 -0.0014122314751148224 0.0003282749676145613
v -0.0007061150390654802 -0.001223028521053493 0.0003282749676145613
v -0.0017016258789226413 4.6540307718778706e-10 0.0007988846045918763
v -0.0014736511511728168 0.0008508132887072861 0.0007988846045918763
v -0.0008508127648383379 0.001473651616834104 0.0007988846045918763
v -6.194811330573202e-11 0.0017016263445839286 0.0007988846045918763
v 0.0008508127648383379 0.001473651616834104 0.0007988846045918763
v 0.001473650918342173 0.0008508132887072861 0.0007988846045918763
v 0.0017016255296766758 7.223412978873966e-10 0.0007988846045918763
v 0.0014736511511728168 -0.000850812008138746 0.0007988846045918763
v 0.0008508132887072861 -0.0014736501034349203 0.0007988846045918763
v 7.038118976510077e-10 -0.0017016249476000667 0.0007988846045918763
v -0.000850812008138746 -0.001473650918342173 0.0007988846045918763
v -0.0014736508019268513 -0.0008508134633302689 0.0007988846045918763
v -0.0017674786504358053 5.375476175295546e-10 0.0011854588519781828
v -0.0015306813875213265 0.00088373979087919 0.0011854588519781828
v -0.0008837392088025808 0.0015306818531826138 0.0011854588519781828
v -6.194811330573202e-11 0.0017674789996817708 0.0011854588519781828
v 0.0008837393252179027 0.0015306818531826138 0.0011854588519781828
v 0.001530681038275361 0.0008837398490868509 0.0011854588519781828
v 0.0017674784176051617 8.044294119713413e-10 0.0011854588519781828
v 0.0015306813875213265 -0.0008837382774800062 0.0011854588519781828
v 0.00088373979087919 -0.001530680456198752 0.0011854588519781828
v 7.038118976510077e-10 -0.0017674779519438744 0.0011854588519781828
v -0.000883738393895328 -0.0015306812711060047 0.0011854588519781828
v -0.0015306809218600392 -0.0008837397326715291 0.0011854588519781828
v -0.0015418380498886108 5.703547634183792e-10 0.0020361689385026693
v -0.0013352708192542195 0.0007709193741902709 0.0020361689385026693
v -0.0007709190249443054 0.0013352715177461505 0.002036169171333313
v -1.0331663996554497e-10 0.00154183863196522 0.002036169171333313
v 0.0007709190249443054 0.0013352715177461505 0.002036169171333313
v 0.0013352707028388977 0.0007709196070209146 0.0020361689385026693
v 0.0015418377006426454 8.031658116358642e-10 0.0020361689385026693
v 0.0013352709356695414 -0.0007709182100370526 0.0020361689385026693
v 0.0007709194323979318 -0.001335269887931645 0.0020361689385026693
v 7.844235816456546e-10 -0.0015418374678120017 0.0020361689385026693
v -0.0007709180936217308 -0.0013352703535929322 0.0020361689385026693
v -0.0013352702371776104 -0.00077091931598261 0.0020361689385026693
v -0.0010404271306470037 6.388185536110313e-10 0.0029008062556385994
v -0.0009010363137349486 0.0005202142056077719 0.0029008062556385994
v -0.0005202135653235018 0.0009010370704345405 0.0029008062556385994
v 1.8310047922298622e-10 0.0010404278291389346 0.0029008062556385994
v 0.0005202137399464846 0.0009010370704345405 0.0029008062556385994
v 0.0009010362555272877 0.0005202142056077719 0.0029008062556385994
v 0.0010404270142316818 7.959188308426235e-10 0.0029008062556385994
v 0.0009010365465655923 -0.000520212750416249 0.0029008062556385994
v 0.0005202140309847891 -0.0009010354406200349 0.0029008062556385994
v 4.944047948818309e-10 -0.0010404264321550727 0.0029008062556385994
v -0.0005202129250392318 -0.0009010358480736613 0.0029008062556385994
v -0.0009010359644889832 -0.0005202135653235018 0.0029008062556385994
v -0.000744809687603265 6.759057757932396e-10 0.0036593484692275524
v -0.000645024236291647 0.0003724055422935635 0.0036593484692275524
v -0.00037240469828248024 0.0006450249347835779 0.0036593484692275524
v 1.9330521905391862e-10 0.0007448105607181787 0.0036593484692275524
v 0.00037240501842461526 0.0006450249347835779 0.0036593484692275524
v 0.0006450242944993079 0.0003724056005012244 0.0036593484692275524
v 0.0007448098040185869 7.883690367194163e-10 0.0036593484692275524
v 0.0006450242944993079 -0.00037240414530970156 0.0036593484692275524
v 0.0003724052803590894 -0.0006450233631767333 0.0036593484692275524
v 4.485585791691449e-10 -0.0007448091055266559 0.0036593484692275524
v -0.00037240443634800613 -0.0006450237124226987 0.0036593484692275524
v -0.0006450240034610033 -0.00037240469828248024 0.0036593484692275524
v -0.000744809687603265 3.502016454604018e-10 0.01018630713224411
v -0.000645024236291647 0.00037240530946291983 0.01018630713224411
v -0.00037240469828248024 0.0006450245855376124 0.01018630713224411
v 1.9330521905391862e-10 0.0007448101532645524 0.01018630713224411
v 0.00037240501842461526 0.0006450245855376124 0.01018630713224411
v 0.0006450242944993079 0.00037240530946291983 0.01018630713224411
v 0.0007448098040185869 4.6266476760870034e-10 0.01018630713224411
v 0.0006450242944993079 -0.00037240434903651476 0.01018630713224411
v 0.0003724052803590894 -0.0006450237124226987 0.010186306200921535
v 4.485585791691449e-10 -0.0007448093965649605 0.010186306200921535
v -0.00037240443634800613 -0.0006450240034610033 0.010186306200921535
v -0.0006450240034610033 -0.0003724049311131239 0.01018630713224411
v -0.0010408023372292519 3.6642966438904523e-10 0.011688719503581524
v -0.0009013611706905067 0.0005204014596529305 0.011688719503581524
v -0.0005204010521993041 0.0009013615199364722 0.011688719503581524
v 1.9360021918934933e-10 0.0010408024536445737 0.011688719503581524
v 0.0005204012268222868 0.0009013615199364722 0.011688719503581524
v 0.0009013611706905067 0.0005204015178605914 0.011688719503581524
v 0.00104080222081393 5.23586507483742e-10 0.011688719503581524
v 0.0009013612288981676 -0.0005204006447456777 0.011688719503581524
v 0.0005204015760682523 -0.0009013606468215585 0.011688719503581524
v 4.348491011718636e-10 -0.0010408021043986082 0.011688719503581524
v -0.0005204005283303559 -0.0009013611124828458 0.011688719503581524
v -0.000901360996067524 -0.0005204014596529305 0.011688719503581524
v -0.0022398827131837606 4.183906554544592e-10 0.01373395137488842
v -0.001939795445650816 0.0011199417058378458 0.01373395137488842
v -0.0011199413565918803 0.0019397956784814596 0.01373395137488842
v -9.004474943452578e-11 0.002239883178845048 0.01373395137488842
v 0.0011199411237612367 0.0019397956784814596 0.01373395137488842
v 0.0019397950964048505 0.0011199419386684895 0.01373395137488842
v 0.0022398822475224733 7.566035575834462e-10 0.01373395137488842
v 0.001939795445650816 -0.0011199403088539839 0.01373395137488842
v 0.0011199418222531676 -0.0019397943979129195 0.01373395137488842
v 1.0495082580774806e-09 -0.0022398820146918297 0.01373395137488842
v -0.0011199403088539839 -0.0019397953292354941 0.01373395137488842
v -0.0019397945143282413 -0.0011199421714991331 0.01373395137488842
v -0.0010247406316921115 -0.0005916349473409355 0.00043598024058155715
v -0.0010247410973533988 0.0005916348891332746 0.00043598024058155715
v -0.0011832693126052618 4.254938068548597e-10 0.00043598024058155715
v -0.0005916343652643263 0.0010247414465993643 0.00043598024058155715
v 1.9330521905391862e-10 0.0011832700110971928 0.00043598024058155715
v 0.0005916346563026309 0.0010247414465993643 0.00043598024058155715
v 0.001024740980938077 0.0005916349473409355 0.00043598024058155715
v 0.0011832689633592963 6.041625533192985e-10 0.00043598024058155715
v 0.0010247413301840425 -0.0005916339578106999 0.00043598024058155715
v 0.0005916351219639182 -0.0010247405152767897 0.00043598024058155715
v 4.485585791691449e-10 -0.0011832682648673654 0.00043598024058155715
v -0.000591633899603039 -0.001024740980938077 0.00043598024058155715
v -0.0012347307056188583 0.0007128724828362465 0.0008791559957899153
v -0.001425744267180562 4.891453353472741e-10 0.0008791559957899153
v -0.000712872133590281 0.0012347311712801456 0.0008791559957899153
v -6.194811330573202e-11 0.0014257446164265275 0.0008791559957899153
v 0.000712872133590281 0.0012347311712801456 0.0008791559957899153
v 0.0012347304727882147 0.0007128724828362465 0.0008791559957899153
v 0.0014257439179345965 7.044265171174402e-10 0.0008791559957899153
v 0.0012347307056188583 -0.00071287143509835 0.0008791559957899153
v 0.0007128724828362465 -0.0012347298907116055 0.0008791559957899153
v 7.038118976510077e-10 -0.0014257436851039529 0.0008791559957899153
v -0.0007128713186830282 -0.0012347304727882147 0.0008791559957899153
v -0.0012347304727882147 -0.0007128725992515683 0.0008791559957899153
v -0.0012825148878619075 0.0007404608768410981 0.0012431981740519404
v -0.0014809205895289779 5.473150821444506e-10 0.0012431981740519404
v -0.0007404601201415062 0.001282515237107873 0.0012431981740519404
v -6.194811330573202e-11 0.0014809208223596215 0.001243195845745504
v 0.0007404602947644889 0.001282515237107873 0.0012431981740519404
v 0.0012825144222006202 0.0007404608768410981 0.0012431981740519404
v 0.0014809202402830124 7.709279326029161e-10 0.0012431981740519404
v 0.0012825147714465857 -0.0007404592470265925 0.0012431981740519404
v 0.0007404606440104544 -0.0012825139565393329 0.0012431981740519404
v 7.038118976510077e-10 -0.001480919891037047 0.0012431981740519404
v -0.0007404594216495752 -0.0012825144222006202 0.0012431981740519404
v -0.0012825144222006202 -0.0007404604111798108 0.0012431981740519404
v -0.0011187855852767825 0.0006459315773099661 0.002044523833319545
v -0.0012918626889586449 5.694172910963857e-10 0.002044523833319545
v -0.0006459311116486788 0.0011187862837687135 0.002044523833319545
v 1.9259674410854188e-10 0.0012918636202812195 0.002044523833319545
v 0.0006459312862716615 0.0011187862837687135 0.002044523833319545
v 0.0011187858181074262 0.000645931635517627 0.002044523833319545
v 0.0012918624561280012 7.644829769226646e-10 0.002044523833319545
v 0.0011187858181074262 -0.0006459305877797306 0.002044523833319545
v 0.000645931635517627 -0.0011187851196154952 0.002044523833319545
v 4.885101767548861e-10 -0.0012918615248054266 0.0020445226691663265
v -0.0006459305295720696 -0.0011187855852767825 0.002044523833319545
v -0.0011187853524461389 -0.0006459316937252879 0.002044523833319545
v -0.0008643228211440146 0.0004990176530554891 0.0028507006354629993
v -0.0009980337927117944 6.613558034551659e-10 0.0028507006354629993
v -0.0004990168963558972 0.0008643235196359456 0.0028507006354629993
v 1.7210233238529327e-10 0.0009980344912037253 0.0028507006354629993
v 0.0004990172456018627 0.0008643235196359456 0.0028507006354629993
v 0.0008643229375593364 0.0004990176530554891 0.0028507006354629993
v 0.0009980341419577599 8.12054923304828e-10 0.0028507006354629993
v 0.0008643231121823192 -0.0004990162560716271 0.0028507006354629993
v 0.0004990175366401672 -0.0008643219480291009 0.0028507006354629993
v 5.285052950831926e-10 -0.000998033443465829 0.0028507006354629993
v -0.0004990162560716271 -0.0008643224136903882 0.0028507006354629993
v -0.0008643224136903882 -0.0004990171291865408 0.0028507006354629993
v -0.0006187419639900327 0.0003572314162738621 0.0036311629228293896
v -0.0007144616101868451 6.849835143540872e-10 0.0036311629228293896
v -0.0003572307468857616 0.0006187426624819636 0.0036311629228293896
v 1.8428732151409832e-10 0.0007144625997170806 0.0036311629228293896
v 0.00035723118344321847 0.0006187426624819636 0.0036311629228293896
v 0.0006187423714436591 0.0003572315035853535 0.0036311629228293896
v 0.0007144620758481324 7.928641632126698e-10 0.0036311629228293896
v 0.0006187425460666418 -0.00035723045584745705 0.0036311629228293896
v 0.00035723132896237075 -0.0006187414983287454 0.0036311629228293896
v 4.765192129774221e-10 -0.0007144612609408796 0.0036311629228293896
v -0.00035723045584745705 -0.0006187419639900327 0.0036311629228293896
v -0.0006187416729517281 -0.00035723097971640527 0.0036311629228293896
v -0.0006187419639900327 0.000357231154339388 0.010214973241090775
v -0.0007144616101868451 3.012694260728921e-10 0.010214973241090775
v -0.0003572307468857616 0.0006187423714436591 0.010214973241090775
v 1.8428732151409832e-10 0.000714462308678776 0.010214973241090775
v 0.00035723118344321847 0.0006187423714436591 0.010214973241090775
v 0.0006187423714436591 0.00035723118344321847 0.010214973241090775
v 0.0007144620758481324 4.091504357539577e-10 0.010214973241090775
v 0.0006187425460666418 -0.00035723060136660933 0.010214973241090775
v 0.00035723132896237075 -0.0006187419057823718 0.010214973241090775
v 4.765192129774221e-10 -0.0007144614937715232 0.010214973241090775
v -0.00035723045584745705 -0.0006187421968206763 0.010214973241090775
v -0.0006187416729517281 -0.00035723118344321847 0.010214973241090775
v -0.0008646345231682062 0.0004991971072740853 0.01172401662915945
v -0.000998393981717527 3.0298613618029435e-10 0.01172401662915945
v -0.0004991968162357807 0.000864634639583528 0.01172401662915945
v 1.8507709254045324e-10 0.000998393865302205 0.01172401662915945
v 0.0004991969908587635 0.000864634639583528 0.01172401662915945
v 0.0008646344067528844 0.0004991971072740853 0.01172401662915945
v 0.0009983937488868833 4.5373901857992394e-10 0.01172401662915945
v 0.000864634697791189 -0.000499196641612798 0.01172401662915945
v 0.0004991973983123899 -0.0008646341157145798 0.01172401662915945
v 4.6127562880471373e-10 -0.0009983937488868833 0.01172401662915945
v -0.0004991962923668325 -0.0008646345813758671 0.01172401662915945
v -0.0008646340575069189 -0.0004991973983123899 0.01172401662915945
v -0.0018137786537408829 0.00104718585498631 0.013739481568336487
v -0.0020943712443113327 3.4955177641293744e-10 0.013739481568336487
v -0.0010471855057403445 0.001813778537325561 0.013739481568336487
v -9.004474943452578e-11 0.002094371011480689 0.013739481568336487
v 0.0010471855057403445 0.001813778537325561 0.013739481568336487
v 0.0018137784209102392 0.0010471862042322755 0.013739481568336487
v 0.002094371011480689 6.657928097730803e-10 0.013739481568336487
v 0.0018137786537408829 -0.0010471846908330917 0.013739481568336487
v 0.0010471860878169537 -0.0018137781880795956 0.013739481568336487
v 7.646199784439034e-10 -0.0020943707786500454 0.013739481568336487
v -0.0010471846908330917 -0.0018137791194021702 0.013739481568336487
v -0.0018137781880795956 -0.0010471864370629191 0.013739481568336487
v -0.0014122319407761097 3.8612529840165166e-10 0.0003282749676145613
v -0.001223028521053493 0.0007061163196340203 0.0003282749676145613
v -0.0007061157957650721 0.0012230289867147803 0.0003282749676145613
v -6.194811330573202e-11 0.0014122320571914315 0.0003282749676145613
v -6.194811330573202e-11 0.0014122320571914315 0.0003282749676145613
v -6.194811330573202e-11 0.0017016263445839286 0.0007988846045918763
v 0.0007061159703880548 0.0012230289867147803 0.0003282749676145613
v 0.0012230284046381712 0.0007061163778416812 0.0003282749676145613
v 0.0014122315915301442 5.993663898529178e-10 0.0003282749676145613
v 0.0014122315915301442 5.993663898529178e-10 0.0003282749676145613
v 0.0012230287538841367 -0.0007061150972731411 0.0003282749676145613
v 0.0007061163196340203 -0.0012230277061462402 0.0003282749676145613
v 7.038118976510077e-10 -0.0014122314751148224 0.0003282749676145613
v -0.0007061150390654802 -0.001223028521053493 0.0003282749676145613
v -0.0012230280553922057 -0.0007061163196340203 0.0003282749676145613
v -0.0014122319407761097 3.8612529840165166e-10 0.0003282749676145613
v -6.194811330573202e-11 0.0017674789996817708 0.0011854588519781828
v -1.0331663996554497e-10 0.00154183863196522 0.002036169171333313
v 1.8310047922298622e-10 0.0010404278291389346 0.0029008062556385994
v 1.9330521905391862e-10 0.0007448105607181787 0.0036593484692275524
v -0.000744809687603265 6.759057757932396e-10 0.0036593484692275524
v -0.000645024236291647 0.0003724055422935635 0.0036593484692275524
v -0.00037240469828248024 0.0006450249347835779 0.0036593484692275524
v 1.9330521905391862e-10 0.0007448105607181787 0.0036593484692275524
v 1.9330521905391862e-10 0.0007448105607181787 0.0036593484692275524
v 1.9330521905391862e-10 0.0007448101532645524 0.01018630713224411
v 0.00037240501842461526 0.0006450249347835779 0.0036593484692275524
v 0.0006450242944993079 0.0003724056005012244 0.0036593484692275524
v 0.0007448098040185869 7.883690367194163e-10 0.0036593484692275524
v 0.0006450242944993079 -0.00037240414530970156 0.0036593484692275524
v 0.0003724052803590894 -0.0006450233631767333 0.0036593484692275524
v 4.485585791691449e-10 -0.0007448091055266559 0.0036593484692275524
v -0.00037240443634800613 -0.0006450237124226987 0.0036593484692275524
v -0.0006450240034610033 -0.00037240469828248024 0.0036593484692275524
v -0.000744809687603265 3.502016454604018e-10 0.01018630713224411
v -0.000645024236291647 0.00037240530946291983 0.01018630713224411
v -0.00037240469828248024 0.0006450245855376124 0.01018630713224411
v 1.9330521905391862e-10 0.0007448101532645524 0.01018630713224411
v 1.9330521905391862e-10 0.0007448101532645524 0.01018630713224411
v 1.9360021918934933e-10 0.0010408024536445737 0.011688719503581524
v 0.00037240501842461526 0.0006450245855376124 0.01018630713224411
v 0.0006450242944993079 0.00037240530946291983 0.01018630713224411
v 0.0007448098040185869 4.6266476760870034e-10 0.01018630713224411
v 0.0006450242944993079 -0.00037240434903651476 0.01018630713224411
v 0.0003724052803590894 -0.0006450237124226987 0.010186306200921535
v 4.485585791691449e-10 -0.0007448093965649605 0.010186306200921535
v -0.00037240443634800613 -0.0006450240034610033 0.010186306200921535
v -0.0006450240034610033 -0.0003724049311131239 0.01018630713224411
v -9.004474943452578e-11 0.002239883178845048 0.01373395137488842
v -0.0011832693126052618 4.254938068548597e-10 0.00043598024058155715
v -0.0010247410973533988 0.0005916348891332746 0.00043598024058155715
v -0.0005916343652643263 0.0010247414465993643 0.00043598024058155715
v 1.9330521905391862e-10 0.0011832700110971928 0.00043598024058155715
v -6.194811330573202e-11 0.0014257446164265275 0.0008791559957899153
v 1.9330521905391862e-10 0.0011832700110971928 0.00043598024058155715
v 0.0005916346563026309 0.0010247414465993643 0.00043598024058155715
v 0.001024740980938077 0.0005916349473409355 0.00043598024058155715
v 0.0011832689633592963 6.041625533192985e-10 0.00043598024058155715
v 0.0011832689633592963 6.041625533192985e-10 0.00043598024058155715
v 0.0010247413301840425 -0.0005916339578106999 0.00043598024058155715
v 0.0005916351219639182 -0.0010247405152767897 0.00043598024058155715
v 4.485585791691449e-10 -0.0011832682648673654 0.00043598024058155715
v -0.000591633899603039 -0.001024740980938077 0.00043598024058155715
v -0.0010247406316921115 -0.0005916349473409355 0.00043598024058155715
v -0.0011832693126052618 4.254938068548597e-10 0.00043598024058155715
v -6.194811330573202e-11 0.0014809208223596215 0.001243195845745504
v 1.9259674410854188e-10 0.0012918636202812195 0.002044523833319545
v 1.7210233238529327e-10 0.0009980344912037253 0.0028507006354629993
v 1.8428732151409832e-10 0.0007144625997170806 0.0036311629228293896
v -0.0007144616101868451 6.849835143540872e-10 0.0036311629228293896
v -0.0006187419639900327 0.0003572314162738621 0.0036311629228293896
v -0.0003572307468857616 0.0006187426624819636 0.0036311629228293896
v 1.8428732151409832e-10 0.0007144625997170806 0.0036311629228293896
v 1.8428732151409832e-10 0.000714462308678776 0.010214973241090775
v 1.8428732151409832e-10 0.0007144625997170806 0.0036311629228293896
v 0.00035723118344321847 0.0006187426624819636 0.0036311629228293896
v 0.0006187423714436591 0.0003572315035853535 0.0036311629228293896
v 0.0007144620758481324 7.928641632126698e-10 0.0036311629228293896
v 0.0006187425460666418 -0.00035723045584745705 0.0036311629228293896
v 0.00035723132896237075 -0.0006187414983287454 0.0036311629228293896
v 4.765192129774221e-10 -0.0007144612609408796 0.0036311629228293896
v -0.00035723045584745705 -0.0006187419639900327 0.0036311629228293896
v -0.0006187416729517281 -0.00035723097971640527 0.0036311629228293896
v -0.0007144616101868451 3.012694260728921e-10 0.010214973241090775
v -0.0006187419639900327 0.000357231154339388 0.010214973241090775
v -0.0003572307468857616 0.0006187423714436591 0.010214973241090775
v 1.8428732151409832e-10 0.000714462308678776 0.010214973241090775
v 1.8507709254045324e-10 0.000998393865302205 0.01172401662915945
v 1.8428732151409832e-10 0.000714462308678776 0.010214973241090775
v 0.00035723118344321847 0.0006187423714436591 0.010214973241090775
v 0.0006187423714436591 0.00035723118344321847 0.010214973241090775
v 0.0007144620758481324 4.091504357539577e-10 0.010214973241090775
v 0.0006187425460666418 -0.00035723060136660933 0.010214973241090775
v 0.00035723132896237075 -0.0006187419057823718 0.010214973241090775
v 4.765192129774221e-10 -0.0007144614937715232 0.010214973241090775
v -0.00035723045584745705 -0.0006187421968206763 0.010214973241090775
v -0.0006187416729517281 -0.00035723118344321847 0.010214973241090775
v -9.004474943452578e-11 0.002094371011480689 0.013739481568336487
v -0.0010471855057403445 0.001813778537325561 0.013739481568336487
v -9.004474943452578e-11 0.002239883178845048 0.01373395137488842
v -0.0011199413565918803 0.0019397956784814596 0.01373395137488842
v -9.004474943452578e-11 0.002094371011480689 0.013739481568336487
v -0.0018137786537408829 0.00104718585498631 0.013739481568336487
v -0.001939795445650816 0.0011199417058378458 0.01373395137488842
v -9.004474943452578e-11 0.002094371011480689 0.013739481568336487
v 0.0011199411237612367 0.0019397956784814596 0.01373395137488842
v -9.004474943452578e-11 0.002239883178845048 0.01373395137488842
v 0.0010471855057403445 0.001813778537325561 0.013739481568336487
v 0.0019397950964048505 0.0011199419386684895 0.01373395137488842
v 0.0018137784209102392 0.0010471862042322755 0.013739481568336487
v 0.0022398822475224733 7.566035575834462e-10 0.01373395137488842
v 0.002094371011480689 6.657928097730803e-10 0.013739481568336487
v 0.001939795445650816 -0.0011199403088539839 0.01373395137488842
v 0.0018137786537408829 -0.0010471846908330917 0.013739481568336487
v 0.0011199418222531676 -0.0019397943979129195 0.01373395137488842
v 0.0010471860878169537 -0.0018137781880795956 0.013739481568336487
v 1.0495082580774806e-09 -0.0022398820146918297 0.01373395137488842
v 7.646199784439034e-10 -0.0020943707786500454 0.013739481568336487
v -0.0011199403088539839 -0.0019397953292354941 0.01373395137488842
v -0.0010471846908330917 -0.0018137791194021702 0.013739481568336487
v -0.0019397945143282413 -0.0011199421714991331 0.01373395137488842
v -0.0018137781880795956 -0.0010471864370629191 0.013739481568336487
v -0.0022398827131837606 4.183906554544592e-10 0.01373395137488842
v -0.0020943712443113327 3.4955177641293744e-10 0.013739481568336487
g submesh_0
f 2 3 1
f 1 3 4
f 1 4 5
f 9 10 1
f 1 10 11
f 1 11 12
f 63 64 51
f 51 64 52
f 51 52 39
f 39 52 40
f 39 40 27
f 27 40 28
f 27 28 15
f 15 28 16
f 15 16 219
f 219 16 220
f 66 67 54
f 54 67 55
f 54 55 42
f 42 55 43
f 42 43 30
f 30 43 31
f 30 31 18
f 18 31 19
f 18 19 224
f 224 19 225
f 226 19 20
f 226 20 227
f 227 20 21
f 227 21 228
f 228 21 22
f 228 22 229
f 229 22 23
f 229 23 230
f 230 23 24
f 230 24 231
f 231 24 13
f 231 13 232
f 223 221 17
f 17 221 222
f 17 222 29
f 29 222 233
f 29 233 41
f 41 233 234
f 41 234 53
f 53 234 235
f 53 235 65
f 65 235 236
f 241 242 77
f 241 77 243
f 243 77 78
f 243 78 244
f 244 78 79
f 244 79 245
f 245 79 80
f 245 80 246
f 246 80 81
f 246 81 247
f 247 81 82
f 247 82 248
f 248 82 83
f 248 83 249
f 249 83 84
f 249 84 250
f 250 84 73
f 250 73 237
f 237 73 74
f 237 74 238
f 238 74 75
f 238 75 239
f 239 75 76
f 239 76 240
f 255 256 89
f 255 89 257
f 257 89 90
f 257 90 258
f 258 90 91
f 258 91 259
f 259 91 92
f 259 92 260
f 260 92 93
f 260 93 261
f 261 93 94
f 261 94 262
f 262 94 95
f 262 95 263
f 263 95 96
f 263 96 264
f 264 96 85
f 264 85 251
f 251 85 86
f 251 86 252
f 252 86 87
f 252 87 253
f 253 87 88
f 253 88 254
f 100 88 87
f 100 87 99
f 99 87 86
f 99 86 98
f 98 86 85
f 98 85 97
f 97 85 96
f 97 96 108
f 108 96 95
f 108 95 107
f 107 95 94
f 107 94 106
f 106 94 93
f 106 93 105
f 105 93 92
f 105 92 104
f 104 92 91
f 104 91 103
f 103 91 90
f 103 90 102
f 102 90 89
f 102 89 101
f 101 89 256
f 101 256 265
f 113 112 109
f 109 112 110
f 109 110 111
f 120 119 109
f 109 119 118
f 109 118 117
f 172 171 159
f 172 159 160
f 160 159 147
f 160 147 148
f 148 147 135
f 148 135 136
f 136 135 123
f 136 123 124
f 124 123 268
f 124 268 269
f 175 174 162
f 175 162 163
f 163 162 150
f 163 150 151
f 151 150 138
f 151 138 139
f 139 138 126
f 139 126 127
f 127 126 273
f 127 273 274
f 127 275 128
f 128 275 276
f 128 276 129
f 129 276 277
f 129 277 130
f 130 277 278
f 130 278 131
f 131 278 279
f 131 279 132
f 132 279 280
f 132 280 122
f 122 280 281
f 271 272 125
f 271 125 270
f 270 125 137
f 270 137 282
f 282 137 149
f 282 149 283
f 283 149 161
f 283 161 284
f 284 161 173
f 284 173 285
f 290 291 185
f 185 291 292
f 185 292 186
f 186 292 293
f 186 293 187
f 187 293 294
f 187 294 188
f 188 294 295
f 188 295 189
f 189 295 296
f 189 296 190
f 190 296 297
f 190 297 191
f 191 297 298
f 191 298 192
f 192 298 299
f 192 299 182
f 182 299 286
f 182 286 181
f 181 286 287
f 181 287 183
f 183 287 288
f 183 288 184
f 184 288 289
f 304 305 197
f 197 305 306
f 197 306 198
f 198 306 307
f 198 307 199
f 199 307 308
f 199 308 200
f 200 308 309
f 200 309 201
f 201 309 310
f 201 310 202
f 202 310 311
f 202 311 203
f 203 311 312
f 203 312 204
f 204 312 313
f 204 313 194
f 194 313 300
f 194 300 193
f 193 300 301
f 193 301 195
f 195 301 302
f 195 302 196
f 196 302 303
f 196 208 195
f 195 208 207
f 195 207 193
f 193 207 205
f 193 205 194
f 194 205 206
f 194 206 204
f 204 206 216
f 204 216 203
f 203 216 215
f 203 215 202
f 202 215 214
f 202 214 201
f 201 214 213
f 201 213 200
f 200 213 212
f 200 212 199
f 199 212 211
f 199 211 198
f 198 211 210
f 198 210 197
f 197 210 209
f 197 209 304
f 304 209 314
f 323 321 322
f 322 321 324
f 322 324 325
f 325 324 326
f 325 326 327
f 327 326 328
f 327 328 329
f 329 328 330
f 329 330 331
f 331 330 332
f 331 332 333
f 333 332 334
f 333 334 335
f 335 334 336
f 335 336 337
f 337 336 338
f 337 338 339
f 339 338 340
f 339 340 320
f 320 340 319
f 320 319 317
f 317 319 315
f 317 315 316
f 316 315 318
f 5 6 1
f 1 6 7
f 1 7 8
f 9 1 8
f 218 217 14
f 14 217 13
f 14 13 26
f 26 13 25
f 26 25 38
f 38 25 37
f 38 37 50
f 50 37 49
f 50 49 62
f 62 49 61
f 62 63 50
f 50 63 51
f 50 51 38
f 38 51 39
f 38 39 26
f 26 39 27
f 26 27 14
f 14 27 15
f 14 15 218
f 218 15 219
f 65 66 53
f 53 66 54
f 53 54 41
f 41 54 42
f 41 42 29
f 29 42 30
f 29 30 17
f 17 30 18
f 17 18 223
f 223 18 224
f 61 49 60
f 61 60 72
f 72 60 59
f 72 59 71
f 71 59 58
f 71 58 70
f 70 58 57
f 70 57 69
f 69 57 56
f 69 56 68
f 68 56 55
f 68 55 67
f 116 115 109
f 109 115 114
f 109 114 113
f 109 117 116
f 266 267 121
f 266 121 122
f 122 121 133
f 122 133 134
f 134 133 145
f 134 145 146
f 146 145 157
f 146 157 158
f 158 157 169
f 158 169 170
f 171 169 157
f 171 157 159
f 159 157 145
f 159 145 147
f 147 145 133
f 147 133 135
f 135 133 121
f 135 121 123
f 123 121 267
f 123 267 268
f 174 173 161
f 174 161 162
f 162 161 149
f 162 149 150
f 150 149 137
f 150 137 138
f 138 137 125
f 138 125 126
f 126 125 272
f 126 272 273
f 158 170 168
f 168 170 180
f 168 180 167
f 167 180 179
f 167 179 166
f 166 179 178
f 166 178 165
f 165 178 177
f 165 177 164
f 164 177 176
f 164 176 163
f 163 176 175
f 25 13 24
f 25 24 36
f 36 24 23
f 36 23 35
f 35 23 22
f 35 22 34
f 34 22 21
f 34 21 33
f 33 21 20
f 33 20 32
f 32 20 19
f 32 19 31
f 37 25 36
f 37 36 48
f 48 36 35
f 48 35 47
f 47 35 34
f 47 34 46
f 46 34 33
f 46 33 45
f 45 33 32
f 45 32 44
f 44 32 31
f 44 31 43
f 49 37 48
f 49 48 60
f 60 48 47
f 60 47 59
f 59 47 46
f 59 46 58
f 58 46 45
f 58 45 57
f 57 45 44
f 57 44 56
f 56 44 43
f 56 43 55
f 122 134 132
f 132 134 144
f 132 144 131
f 131 144 143
f 131 143 130
f 130 143 142
f 130 142 129
f 129 142 141
f 129 141 128
f 128 141 140
f 128 140 127
f 127 140 139
f 134 146 144
f 144 146 156
f 144 156 143
f 143 156 155
f 143 155 142
f 142 155 154
f 142 154 141
f 141 154 153
f 141 153 140
f 140 153 152
f 140 152 139
f 139 152 151
f 146 158 156
f 156 158 168
f 156 168 155
f 155 168 167
f 155 167 154
f 154 167 166
f 154 166 153
f 153 166 165
f 153 165 152
f 152 165 164
f 152 164 151
f 151 164 163
