# Inside
v -0.0017716543516144156 8.855680633246266e-09 0.0030035434756428003
v -0.0017112856730818748 0.0004585344868246466 0.0030035434756428003
v -0.0015342998085543513 0.0008858181536197662 0.0030035434756428003
v -0.0012527512153610587 0.001252742251381278 0.0030035434756428003
v -0.0008858271758072078 0.001534295384772122 0.0030035434756428003
v -0.0004585389979183674 0.0017112856730818748 0.0030035434756428003
v -4.488150481995332e-18 0.0017716631991788745 0.0030035434756428003
v 0.0004585389979183674 0.001711285556666553 0.0030035434756428003
v 0.0008858271758072078 0.0015342951519414783 0.0030035434756428003
v 0.0012527512153610587 0.001252742251381278 0.0030035434756428003
v 0.0015342998085543513 0.0008858181536197662 0.0030035434756428003
v 0.0017112856730818748 0.0004585344868246466 0.0030035434756428003
v 0.0017716543516144156 8.855679745067846e-09 0.0030035434756428003
v 0.0017112856730818748 -0.00045853466144762933 0.0030035434756428003
v 0.0015342998085543513 -0.0008858360815793276 0.0030035434756428003
v 0.0012527512153610587 -0.0012527423677965999 0.0030035434756428003
v 0.0008858271758072078 -0.0015342955011874437 0.0030035434756428003
v 0.0004585389979183674 -0.0017112860223278403 0.0030035434756428003
v -3.825104423259058e-18 -0.0017716631991788745 0.0030035434756428003
v -0.0004585389979183674 -0.0017112856730818748 0.0030035434756428003
v -0.0008858271758072078 -0.001534295384772122 0.0030035434756428003
v -0.0012527512153610587 -0.001252742251381278 0.0030035434756428003
v -0.0015342998085543513 -0.0008858360815793276 0.0030035434756428003
v -0.0017112856730818748 -0.00045853466144762933 0.0030035434756428003
v 1.3431327210301148e-23 1.1940112010222492e-08 0.0004401323094498366
v -0.0016138938954100013 1.1940112010222492e-08 0.0006666912231594324
v -0.0015588983660563827 0.0004177096707280725 0.0006666912231594324
v -0.0013976732734590769 0.0008069558534771204 0.0006666912231594324
v -0.0011411947198212147 0.0011412006570026278 0.0006666912231594324
v -0.0008069439209066331 0.0013976732734590769 0.0006666912231594324
v -0.00041770367533899844 0.0015588982496410608 0.0006666912231594324
v -4.177001117909529e-18 0.0016138998325914145 0.0006666912231594324
v 0.00041770367533899844 0.0015588982496410608 0.0006666912231594324
v 0.0008069499162957072 0.0013976732734590769 0.0006666912231594324
v 0.0011411947198212147 0.0011412006570026278 0.0006666912231594324
v 0.0013976732734590769 0.0008069558534771204 0.0006666912231594324
v 0.0015589043032377958 0.00041770964162424207 0.0006666912231594324
v 0.0016138938954100013 1.1940112010222492e-08 0.0006666912231594324
v 0.0015588983660563827 -0.00041770978714339435 0.0006666912231594324
v 0.0013976732734590769 -0.0008069560281001031 0.0006666912231594324
v 0.0011411947198212147 -0.0011412007734179497 0.0006666912231594324
v 0.0008069439209066331 -0.0013976735062897205 0.0006666912231594324
v 0.00041770367533899844 -0.0015588984824717045 0.0006666912231594324
v -1.800510184068915e-18 -0.0016138998325914145 0.0006666912231594324
v -0.00041770367533899844 -0.0015588984824717045 0.0006666912231594324
v -0.0008069499162957072 -0.0013976735062897205 0.0006666912231594324
v -0.0011411947198212147 -0.0011412006570026278 0.0006666912231594324
v -0.0013976732734590769 -0.0008069560281001031 0.0006666912231594324
v -0.0015589043032377958 -0.0004177097580395639 0.0006666912231594324
v -0.0015588983660563827 0.0004177096707280725 0.0006666912231594324
v -0.0016138938954100013 1.1940112010222492e-08 0.0006666912231594324
v -0.0013976732734590769 0.0008069558534771204 0.0006666912231594324
v -0.0011411947198212147 0.0011412006570026278 0.0006666912231594324
v -0.0008069439209066331 0.0013976732734590769 0.0006666912231594324
v -0.00041770367533899844 0.0015588982496410608 0.0006666912231594324
v -4.177001117909529e-18 0.0016138998325914145 0.0006666912231594324
v -4.488150481995332e-18 0.0017716631991788745 0.0030035434756428003
v 0.00041770367533899844 0.0015588982496410608 0.0006666912231594324
v -4.177001117909529e-18 0.0016138998325914145 0.0006666912231594324
v 0.0008069499162957072 0.0013976732734590769 0.0006666912231594324
v 0.0011411947198212147 0.0011412006570026278 0.0006666912231594324
v 0.0013976732734590769 0.0008069558534771204 0.0006666912231594324
v 0.0015589043032377958 0.00041770964162424207 0.0006666912231594324
v 0.0016138938954100013 1.1940112010222492e-08 0.0006666912231594324
v 0.0015588983660563827 -0.00041770978714339435 0.0006666912231594324
v 0.0016138938954100013 1.1940112010222492e-08 0.0006666912231594324
v 0.0013976732734590769 -0.0008069560281001031 0.0006666912231594324
v 0.0011411947198212147 -0.0011412007734179497 0.0006666912231594324
v 0.0008069439209066331 -0.0013976735062897205 0.0006666912231594324
v 0.00041770367533899844 -0.0015588984824717045 0.0006666912231594324
v -1.800510184068915e-18 -0.0016138998325914145 0.0006666912231594324
v -0.00041770367533899844 -0.0015588984824717045 0.0006666912231594324
v -0.0008069499162957072 -0.0013976735062897205 0.0006666912231594324
v -0.0011411947198212147 -0.0011412006570026278 0.0006666912231594324
v -0.0013976732734590769 -0.0008069560281001031 0.0006666912231594324
v -0.0015589043032377958 -0.0004177097580395639 0.0006666912231594324
v -0.0016138938954100013 1.1940112010222492e-08 0.0006666912231594324
g submesh_0
f 56 7 6
f 56 6 55
f 55 6 5
f 55 5 54
f 54 5 4
f 54 4 53
f 53 4 3
f 53 3 52
f 52 3 2
f 52 2 50
f 50 2 1
f 50 1 51
f 64 13 12
f 64 12 63
f 63 12 11
f 63 11 62
f 62 11 10
f 62 10 61
f 61 10 9
f 61 9 60
f 60 9 8
f 60 8 58
f 58 8 57
f 58 57 59
f 77 1 24
f 77 24 76
f 76 24 23
f 76 23 75
f 75 23 22
f 75 22 74
f 74 22 21
f 74 21 73
f 73 21 20
f 73 20 72
f 72 20 19
f 72 19 71
f 71 19 18
f 71 18 70
f 70 18 17
f 70 17 69
f 69 17 16
f 69 16 68
f 68 16 15
f 68 15 67
f 67 15 14
f 67 14 65
f 65 14 13
f 65 13 66
f 29 28 25
f 25 28 27
f 25 27 26
f 32 31 25
f 25 31 30
f 25 30 29
f 35 34 25
f 25 34 33
f 25 33 32
f 38 37 25
f 25 37 36
f 25 36 35
f 41 40 25
f 25 40 39
f 25 39 38
f 44 43 25
f 25 43 42
f 25 42 41
f 47 46 25
f 25 46 45
f 25 45 44
f 26 49 25
f 25 49 48
f 25 48 47
