# Root
v 5.203922687734008e-13 -8.04149476607563e-06 0.00020381776266731322
v -0.0015261543449014425 -2.150326222421714e-13 4.993679795006756e-06
v -0.0014741518534719944 0.00039499785634689033 4.993679795006756e-06
v -0.0013216887600719929 0.0007630771724507213 4.993679795006756e-06
v -0.0010791540844365954 0.0010791540844365954 4.993679795006756e-06
v -0.0007630771142430604 0.0013216887600719929 4.993679795006756e-06
v -0.00039499776903539896 0.0014741522027179599 4.993679795006756e-06
v 6.723072792924611e-11 0.0015261545777320862 4.993679795006756e-06
v 0.00039499791455455124 0.0014741518534719944 4.993679795006756e-06
v 0.000763077347073704 0.0013216884108260274 4.993679795006756e-06
v 0.001079154317267239 0.0010791540844365954 4.993679795006756e-06
v 0.0013216885272413492 0.0007630771724507213 4.993679795006756e-06
v 0.0014741522027179599 0.0003949977399315685 4.993679795006756e-06
v 0.0015261545777320862 -1.3363569972835165e-10 4.993679795006756e-06
v 0.0014741519698873162 -0.00039499797276221216 4.993679795006756e-06
v 0.0013216884108260274 -0.000763077347073704 4.993679795006756e-06
v 0.0010791540844365954 -0.0010791542008519173 4.993679795006756e-06
v 0.0007630771142430604 -0.0013216887600719929 4.993679795006756e-06
v 0.0003949976235162467 -0.0014741522027179599 4.993679795006756e-06
v -1.9961060582218693e-10 -0.0015261545777320862 4.993679795006756e-06
v -0.00039499806007370353 -0.0014741518534719944 4.993679795006756e-06
v -0.0007630775216966867 -0.0013216884108260274 4.993679795006756e-06
v -0.001079154317267239 -0.0010791540844365954 4.993679795006756e-06
v -0.0013216885272413492 -0.0007630770560353994 4.993679795006756e-06
v -0.0014741519698873162 -0.0003949976235162467 4.993679795006756e-06
v -0.0015700265066698194 2.8398642812343944e-11 3.4217835491290316e-05
v -0.0015165291260927916 0.0004063528322149068 3.4217835491290316e-05
v -0.0013596831122413278 0.0007850133697502315 3.4217835491290316e-05
v -0.001110176439397037 0.001110176439397037 3.4217835491290316e-05
v -0.0007850132533349097 0.001359682995826006 3.4217835491290316e-05
v -0.000406352715799585 0.0015165292425081134 3.4217835491290316e-05
v 7.079970637535737e-11 0.0015700265066698194 3.4217835491290316e-05
v 0.00040635286131873727 0.0015165291260927916 3.4217835491290316e-05
v 0.0007850133697502315 0.0013596827629953623 3.4217835491290316e-05
v 0.0011101765558123589 0.001110176439397037 3.4217835491290316e-05
v 0.001359682995826006 0.0007850131951272488 3.4217835491290316e-05
v 0.001516529475338757 0.00040635265759192407 3.4217835491290316e-05
v 0.001570026739500463 -1.0885744389232954e-10 3.4217835491290316e-05
v 0.0015165291260927916 -0.00040635294863022864 3.4217835491290316e-05
v 0.0013596827629953623 -0.0007850134279578924 3.4217835491290316e-05
v 0.0011101763229817152 -0.001110176439397037 3.4217835491290316e-05
v 0.0007850131369195879 -0.001359682995826006 3.4217835491290316e-05
v 0.0004063525702804327 -0.0015165292425081134 3.4217835491290316e-05
v -2.0371244968675484e-10 -0.0015700265066698194 3.4217835491290316e-05
v -0.00040635300683788955 -0.0015165291260927916 3.4217835491290316e-05
v -0.0007850135443732142 -0.0013596827629953623 3.4217835491290316e-05
v -0.0011101766722276807 -0.0011101763229817152 3.4217835491290316e-05
v -0.001359682995826006 -0.000785013020504266 3.4217835491290316e-05
v -0.0015165292425081134 -0.00040635254117660224 3.4217835491290316e-05
v -0.0015316474018618464 9.430720093739353e-11 7.18565279385075e-05
v -0.0014794578310102224 0.00039641972398385406 7.18565279385075e-05
v -0.0013264459557831287 0.0007658239919692278 7.18565279385075e-05
v -0.001083038398064673 0.0010830385144799948 7.185593130998313e-05
v -0.0007658237009309232 0.0013264460721984506 7.185593130998313e-05
v -0.00039641952025704086 0.001479458180256188 7.185593130998313e-05
v 6.562164700518736e-11 0.0015316475182771683 7.185593130998313e-05
v 0.00039641960756853223 0.001479458180256188 7.185593130998313e-05
v 0.0007658239919692278 0.001326445722952485 7.185593130998313e-05
v 0.0010830386308953166 0.001083038398064673 7.185593130998313e-05
v 0.0013264456065371633 0.000765823875553906 7.18565279385075e-05
v 0.001479458063840866 0.00039641952025704086 7.18565279385075e-05
v 0.0015316478675231338 -3.959367902983679e-11 7.18565279385075e-05
v 0.001479458063840866 -0.0003964196366723627 7.18565279385075e-05
v 0.001326445722952485 -0.0007658237591385841 7.18565279385075e-05
v 0.0010830382816493511 -0.001083038398064673 7.18565279385075e-05
v 0.0007658237009309232 -0.001326445722952485 7.18565279385075e-05
v 0.0003964193456340581 -0.0014794578310102224 7.18565279385075e-05
v -2.0218007823480377e-10 -0.001531647751107812 7.18565279385075e-05
v -0.0003964197530876845 -0.0014794578310102224 7.18565279385075e-05
v -0.0007658240501768887 -0.0013264456065371633 7.18565279385075e-05
v -0.0010830386308953166 -0.0010830382816493511 7.18565279385075e-05
v -0.0013264459557831287 -0.0007658234098926187 7.18565279385075e-05
v -0.001479458180256188 -0.00039641925832256675 7.18565279385075e-05
v -0.00033148369402624667 1.4697336403468597e-10 0.00026165886083617806
v -0.0003201887011528015 8.579438144806772e-05 0.00026165886083617806
v -0.00028707340243272483 0.00016574191977269948 0.00026165886083617806
v -0.00023439443612005562 0.00023439443612005562 0.00026165886083617806
v -0.00016574184701312333 0.00028707340243272483 0.00026165886083617806
v -8.579433051636443e-05 0.00032018855563364923 0.00026165886083617806
v -2.6385036516751725e-11 0.00033148363581858575 0.00026165886083617806
v 8.579425048083067e-05 0.0003201888466719538 0.00026165886083617806
v 0.00016574174514971673 0.00028707340243272483 0.00026165886083617806
v 0.00023439436336047947 0.00023439450887963176 0.00026165886083617806
v 0.00028707311139442027 0.0001657420361880213 0.00026165886083617806
v 0.0003201887011528015 8.579438144806772e-05 0.00026165886083617806
v 0.0003314835485070944 1.1799412835689083e-10 0.00026165886083617806
v 0.00032018841011449695 -8.579419954912737e-05 0.00026165886083617806
v 0.00028707311139442027 -0.00016574170149397105 0.00026165886083617806
v 0.00023439429060090333 -0.0002343942178413272 0.00026165886083617806
v 0.00016574174514971673 -0.00028707311139442027 0.00026165886083617806
v 8.57942141010426e-05 -0.00032018846832215786 0.00026165886083617806
v -8.434346276953164e-11 -0.00033148363581858575 0.00026165886083617806
v -8.579433051636443e-05 -0.00032018846832215786 0.00026165886083617806
v -0.00016574196342844516 -0.00028707311139442027 0.00026165886083617806
v -0.00023439436336047947 -0.00023439414508175105 0.00026165886083617806
v -0.00028707340243272483 -0.00016574170149397105 0.00026165886083617806
v -0.00032018861384131014 -8.579414134146646e-05 0.00026165886083617806
v -0.00011565833847271279 9.994167299298695e-11 0.0004654726362787187
v -0.00011171743244631216 2.9934681151644327e-05 0.00046547382953576744
v -0.00010016307351179421 5.782924563391134e-05 0.00046547382953576744
v -8.178286225302145e-05 8.178286225302145e-05 0.00046547382953576744
v -5.782916923635639e-05 0.00010016314627137035 0.00046547382953576744
v -2.993460657307878e-05 0.00011171743244631216 0.00046547382953576744
v -4.21690321550372e-11 0.0001156581929535605 0.00046547382953576744
v 2.9934531994513236e-05 0.00011171743244631216 0.00046547382953576744
v 5.782909647678025e-05 0.00010016314627137035 0.00046547382953576744
v 8.178270945791155e-05 8.178286225302145e-05 0.00046547382953576744
v 0.00010016299347626045 5.782931839348748e-05 0.00046547382953576744
v 0.00011171727965120226 2.9934681151644327e-05 0.00046547382953576744
v 0.0001156581929535605 8.983050414634874e-11 0.0004654726362787187
v 0.00011171727965120226 -2.9934495614725165e-05 0.0004654726362787187
v 0.00010016299347626045 -5.782909647678025e-05 0.0004654726362787187
v 8.178270945791155e-05 -8.178270945791155e-05 0.0004654726362787187
v 5.782909647678025e-05 -0.00010016292071668431 0.0004654726362787187
v 2.9934495614725165e-05 -0.00011171727965120226 0.0004654726362787187
v -6.239136984831362e-11 -0.0001156581929535605 0.0004654726362787187
v -2.993460657307878e-05 -0.00011171727965120226 0.0004654726362787187
v -5.782924563391134e-05 -0.00010016292071668431 0.0004654726362787187
v -8.178286225302145e-05 -8.178263669833541e-05 0.0004654726362787187
v -0.00010016307351179421 -5.78290200792253e-05 0.0004654726362787187
v -0.00011171743244631216 -2.993445741594769e-05 0.0004654726362787187
v -0.00014475210628006607 2.0621317153857177e-11 0.003518609097227454
v -0.0001398198219249025 3.746464790310711e-05 0.003518609097227454
v -0.0001253591472050175 7.237605314003304e-05 0.003518609097227454
v -0.00010235525405732915 0.00010235525405732915 0.003518609097227454
v -7.237613317556679e-05 0.00012535900168586522 0.003518609097227454
v -3.746468428289518e-05 0.0001398198219249025 0.003518609097227454
v -3.977866994131496e-11 0.00014475210628006607 0.003518609097227454
v 3.746457150555216e-05 0.0001398198219249025 0.003518609097227454
v 7.23759803804569e-05 0.00012535900168586522 0.003518609097227454
v 0.000102355181297753 0.000102355181297753 0.003518609097227454
v 0.00012535900168586522 7.237613317556679e-05 0.003518609097227454
v 0.0001398198219249025 3.7464611523319036e-05 0.003518609097227454
v 0.00014475210628006607 7.966675930060063e-12 0.003518608631566167
v 0.00013981967640575022 -3.7464611523319036e-05 0.003518608631566167
v 0.00012535900168586522 -7.23759803804569e-05 0.003518608631566167
v 0.000102355181297753 -0.00010235525405732915 0.003518608631566167
v 7.23759803804569e-05 -0.00012535900168586522 0.003518608631566167
v 3.746453512576409e-05 -0.0001398198219249025 0.003518608631566167
v -6.508792810278052e-11 -0.00014475210628006607 0.003518608631566167
v -3.746464790310711e-05 -0.0001398198219249025 0.003518608631566167
v -7.237620593514293e-05 -0.00012535900168586522 0.003518608631566167
v -0.00010235525405732915 -0.000102355181297753 0.003518608631566167
v -0.0001253591472050175 -7.237605314003304e-05 0.003518608631566167
v -0.0001398198219249025 -3.746457150555216e-05 0.003518608631566167
v -0.0026164585724473 -1.3803568010839484e-10 0.006018752697855234
v -0.0025273049250245094 0.0006771894986741245 0.006018754094839096
v -0.00226592062972486 0.0013082289369776845 0.006018754094839096
v -0.001850116066634655 0.0018501159502193332 0.006018754094839096
v -0.00130822928622365 0.0022659196984022856 0.006018754094839096
v -0.0006771896150894463 0.0025273049250245094 0.006018754094839096
v 1.8840291826638378e-10 0.002616457873955369 0.006018754094839096
v 0.0006771897315047681 0.002527305157855153 0.006018754094839096
v 0.0013082290533930063 0.0022659199312329292 0.006018754094839096
v 0.0018501161830499768 0.0018501151353120804 0.006018754094839096
v 0.0022659199312329292 0.0013082280056551099 0.006018754094839096
v 0.0025273060891777277 0.000677189149428159 0.006018754094839096
v 0.0026164581067860126 -3.6677369474880095e-10 0.006018752697855234
v 0.0025273042265325785 -0.0006771897315047681 0.006018752697855234
v 0.0022659203968942165 -0.0013082301011309028 0.006018752697855234
v 0.0018501165322959423 -0.0018501164158806205 0.006018752697855234
v 0.00130822928622365 -0.0022659189999103546 0.0060187517665326595
v 0.0006771889165975153 -0.0025273056235164404 0.0060187517665326595
v -2.690732081589431e-10 -0.0026164585724473 0.0060187517665326595
v -0.0006771892076358199 -0.0025273060891777277 0.0060187517665326595
v -0.00130823056679219 -0.0022659203968942165 0.0060187517665326595
v -0.0018501157173886895 -0.0018501154845580459 0.006018752697855234
v -0.00226592062972486 -0.00130822928622365 0.006018752697855234
v -0.002527305157855153 -0.0006771889748051763 0.006018752697855234
v -0.002517764223739505 -8.25129478632114e-11 0.006063863635063171
v -0.0024319735821336508 0.0006516457069665194 0.006063863635063171
v -0.002180448966100812 0.001258881762623787 0.006063863635063171
v -0.001780328806489706 0.001780329504981637 0.006063864100724459
v -0.0012588822282850742 0.0021804491989314556 0.006063863635063171
v -0.0006516457069665194 0.0024319742806255817 0.006063863635063171
v 1.7659387840929242e-10 0.002517763990908861 0.006063863635063171
v 0.0006516458233818412 0.0024319742806255817 0.006063863635063171
v 0.0012588819954544306 0.0021804487332701683 0.006063863635063171
v 0.001780328806489706 0.0017803286900743842 0.006063864100724459
v 0.002180448267608881 0.001258881646208465 0.006063863635063171
v 0.002431974746286869 0.0006516448338516057 0.006063863635063171
v 0.002517763990908861 -3.0262331529584685e-10 0.0060638622380793095
v 0.00243197288364172 -0.0006516462890431285 0.006063863635063171
v 0.0021804485004395247 -0.0012588822282850742 0.006063863635063171
v 0.0017803291557356715 -0.0017803279915824533 0.006063863635063171
v 0.0012588821118697524 -0.0021804480347782373 0.006063863635063171
v 0.0006516450666822493 -0.0024319742806255817 0.006063863635063171
v -2.636260099109222e-10 -0.002517763990908861 0.006063863635063171
v -0.000651645299512893 -0.0024319742806255817 0.006063863635063171
v -0.0012588833924382925 -0.0021804466377943754 0.006063863635063171
v -0.0017803285736590624 -0.0017803274095058441 0.006063863635063171
v -0.002180448966100812 -0.0012588821118697524 0.006063863635063171
v -0.002431974047794938 -0.0006516448920592666 0.006063863635063171
v -0.002426724648103118 -3.110664850702882e-11 0.006016914267092943
v -0.0023440360091626644 0.0006280826637521386 0.006016914267092943
v -0.002101606223732233 0.0012133612763136625 0.006016914267092943
v -0.0017159540439024568 0.0017159533454105258 0.006016912870109081
v -0.0012133622076362371 0.002101604826748371 0.006016912870109081
v -0.0006280828383751214 0.0023440374061465263 0.006016912870109081
v 1.690929340991687e-10 0.0024267251137644053 0.006016912870109081
v 0.0006280829547904432 0.0023440371733158827 0.006016912870109081
v 0.0012133620912209153 0.0021016045939177275 0.006016912870109081
v 0.001715953811071813 0.0017159540439024568 0.006016912870109081
v 0.0021016052924096584 0.0012133620912209153 0.006016914267092943
v 0.0023440367076545954 0.0006280823145061731 0.006016914267092943
v 0.0024267241824418306 -2.432575252342417e-10 0.006016914267092943
v 0.00234403507784009 -0.0006280830129981041 0.006016912870109081
v 0.002101605525240302 -0.0012133620912209153 0.006016912870109081
v 0.0017159540439024568 -0.0017159543931484222 0.006016912870109081
v 0.0012133622076362371 -0.002101605525240302 0.006016912870109081
v 0.0006280821980908513 -0.002344035543501377 0.006016912870109081
v -2.5520929813893645e-10 -0.002426723251119256 0.006016912870109081
v -0.000628082430921495 -0.002344036241993308 0.006016912870109081
v -0.0012133634882047772 -0.0021016052924096584 0.006016912870109081
v -0.001715953811071813 -0.0017159535782411695 0.006016912870109081
v -0.0021016059909015894 -0.001213362906128168 0.006016912870109081
v -0.002344036241993308 -0.0006280819070525467 0.006016912870109081
v -0.0015261543449014425 -2.150326222421714e-13 4.993679795006756e-06
v -0.0014741518534719944 0.00039499785634689033 4.993679795006756e-06
v -0.0013216887600719929 0.0007630771724507213 4.993679795006756e-06
v -0.0010791540844365954 0.0010791540844365954 4.993679795006756e-06
v -0.0007630771142430604 0.0013216887600719929 4.993679795006756e-06
v -0.00039499776903539896 0.0014741522027179599 4.993679795006756e-06
v 6.723072792924611e-11 0.0015261545777320862 4.993679795006756e-06
v 6.723072792924611e-11 0.0015261545777320862 4.993679795006756e-06
v 7.079970637535737e-11 0.0015700265066698194 3.4217835491290316e-05
v 0.00039499791455455124 0.0014741518534719944 4.993679795006756e-06
v 0.000763077347073704 0.0013216884108260274 4.993679795006756e-06
v 0.001079154317267239 0.0010791540844365954 4.993679795006756e-06
v 0.0013216885272413492 0.0007630771724507213 4.993679795006756e-06
v 0.0014741522027179599 0.0003949977399315685 4.993679795006756e-06
v 0.0015261545777320862 -1.3363569972835165e-10 4.993679795006756e-06
v 0.0015261545777320862 -1.3363569972835165e-10 4.993679795006756e-06
v 0.0014741519698873162 -0.00039499797276221216 4.993679795006756e-06
v 0.0013216884108260274 -0.000763077347073704 4.993679795006756e-06
v 0.0010791540844365954 -0.0010791542008519173 4.993679795006756e-06
v 0.0007630771142430604 -0.0013216887600719929 4.993679795006756e-06
v 0.0003949976235162467 -0.0014741522027179599 4.993679795006756e-06
v -1.9961060582218693e-10 -0.0015261545777320862 4.993679795006756e-06
v -0.00039499806007370353 -0.0014741518534719944 4.993679795006756e-06
v -0.0007630775216966867 -0.0013216884108260274 4.993679795006756e-06
v -0.001079154317267239 -0.0010791540844365954 4.993679795006756e-06
v -0.0013216885272413492 -0.0007630770560353994 4.993679795006756e-06
v -0.0014741519698873162 -0.0003949976235162467 4.993679795006756e-06
v -0.0014741519698873162 -0.0003949976235162467 4.993679795006756e-06
v -0.0015261543449014425 -2.150326222421714e-13 4.993679795006756e-06
v -0.0015700265066698194 2.8398642812343944e-11 3.4217835491290316e-05
v -0.0015165291260927916 0.0004063528322149068 3.4217835491290316e-05
v -0.0013596831122413278 0.0007850133697502315 3.4217835491290316e-05
v -0.001110176439397037 0.001110176439397037 3.4217835491290316e-05
v -0.0007850132533349097 0.001359682995826006 3.4217835491290316e-05
v -0.000406352715799585 0.0015165292425081134 3.4217835491290316e-05
v 7.079970637535737e-11 0.0015700265066698194 3.4217835491290316e-05
v 7.079970637535737e-11 0.0015700265066698194 3.4217835491290316e-05
v 6.562164700518736e-11 0.0015316475182771683 7.185593130998313e-05
v 0.00040635286131873727 0.0015165291260927916 3.4217835491290316e-05
v 0.0007850133697502315 0.0013596827629953623 3.4217835491290316e-05
v 0.0011101765558123589 0.001110176439397037 3.4217835491290316e-05
v 0.001359682995826006 0.0007850131951272488 3.4217835491290316e-05
v 0.001516529475338757 0.00040635265759192407 3.4217835491290316e-05
v 0.001570026739500463 -1.0885744389232954e-10 3.4217835491290316e-05
v 0.0015165291260927916 -0.00040635294863022864 3.4217835491290316e-05
v 0.0013596827629953623 -0.0007850134279578924 3.4217835491290316e-05
v 0.0011101763229817152 -0.001110176439397037 3.4217835491290316e-05
v 0.0007850131369195879 -0.001359682995826006 3.4217835491290316e-05
v 0.0004063525702804327 -0.0015165292425081134 3.4217835491290316e-05
v -2.0371244968675484e-10 -0.0015700265066698194 3.4217835491290316e-05
v -0.00040635300683788955 -0.0015165291260927916 3.4217835491290316e-05
v -0.0007850135443732142 -0.0013596827629953623 3.4217835491290316e-05
v -0.0011101766722276807 -0.0011101763229817152 3.4217835491290316e-05
v -0.001359682995826006 -0.000785013020504266 3.4217835491290316e-05
v -0.0015165292425081134 -0.00040635254117660224 3.4217835491290316e-05
v -0.0015316474018618464 9.430720093739353e-11 7.18565279385075e-05
v -0.0014794578310102224 0.00039641972398385406 7.18565279385075e-05
v -0.0013264459557831287 0.0007658239919692278 7.18565279385075e-05
v -0.001083038398064673 0.0010830385144799948 7.185593130998313e-05
v -0.0007658237009309232 0.0013264460721984506 7.185593130998313e-05
v -0.00039641952025704086 0.001479458180256188 7.185593130998313e-05
v 6.562164700518736e-11 0.0015316475182771683 7.185593130998313e-05
v 6.562164700518736e-11 0.0015316475182771683 7.185593130998313e-05
v -2.6385036516751725e-11 0.00033148363581858575 0.00026165886083617806
v 0.00039641960756853223 0.001479458180256188 7.185593130998313e-05
v 0.0007658239919692278 0.001326445722952485 7.185593130998313e-05
v 0.0010830386308953166 0.001083038398064673 7.185593130998313e-05
v 0.0013264456065371633 0.000765823875553906 7.18565279385075e-05
v 0.001479458063840866 0.00039641952025704086 7.18565279385075e-05
v 0.0015316478675231338 -3.959367902983679e-11 7.18565279385075e-05
v 0.001479458063840866 -0.0003964196366723627 7.18565279385075e-05
v 0.001326445722952485 -0.0007658237591385841 7.18565279385075e-05
v 0.0010830382816493511 -0.001083038398064673 7.18565279385075e-05
v 0.0007658237009309232 -0.001326445722952485 7.18565279385075e-05
v 0.0003964193456340581 -0.0014794578310102224 7.18565279385075e-05
v -2.0218007823480377e-10 -0.001531647751107812 7.18565279385075e-05
v -0.0003964197530876845 -0.0014794578310102224 7.18565279385075e-05
v -0.0007658240501768887 -0.0013264456065371633 7.18565279385075e-05
v -0.0010830386308953166 -0.0010830382816493511 7.18565279385075e-05
v -0.0013264459557831287 -0.0007658234098926187 7.18565279385075e-05
v -0.001479458180256188 -0.00039641925832256675 7.18565279385075e-05
v -0.00033148369402624667 1.4697336403468597e-10 0.00026165886083617806
v -0.0003201887011528015 8.579438144806772e-05 0.00026165886083617806
v -0.00028707340243272483 0.00016574191977269948 0.00026165886083617806
v -0.00023439443612005562 0.00023439443612005562 0.00026165886083617806
v -0.00016574184701312333 0.00028707340243272483 0.00026165886083617806
v -8.579433051636443e-05 0.00032018855563364923 0.00026165886083617806
v -2.6385036516751725e-11 0.00033148363581858575 0.00026165886083617806
v -2.6385036516751725e-11 0.00033148363581858575 0.00026165886083617806
v -4.21690321550372e-11 0.0001156581929535605 0.00046547382953576744
v 8.579425048083067e-05 0.0003201888466719538 0.00026165886083617806
v 0.00016574174514971673 0.00028707340243272483 0.00026165886083617806
v 0.00023439436336047947 0.00023439450887963176 0.00026165886083617806
v 0.00028707311139442027 0.0001657420361880213 0.00026165886083617806
v 0.0003201887011528015 8.579438144806772e-05 0.00026165886083617806
v 0.0003314835485070944 1.1799412835689083e-10 0.00026165886083617806
v 0.00032018841011449695 -8.579419954912737e-05 0.00026165886083617806
v 0.00028707311139442027 -0.00016574170149397105 0.00026165886083617806
v 0.00023439429060090333 -0.0002343942178413272 0.00026165886083617806
v 0.00016574174514971673 -0.00028707311139442027 0.00026165886083617806
v 8.57942141010426e-05 -0.00032018846832215786 0.00026165886083617806
v -8.434346276953164e-11 -0.00033148363581858575 0.00026165886083617806
v -8.579433051636443e-05 -0.00032018846832215786 0.00026165886083617806
v -0.00016574196342844516 -0.00028707311139442027 0.00026165886083617806
v -0.00023439436336047947 -0.00023439414508175105 0.00026165886083617806
v -0.00028707340243272483 -0.00016574170149397105 0.00026165886083617806
v -0.00032018861384131014 -8.579414134146646e-05 0.00026165886083617806
v -3.977866994131496e-11 0.00014475210628006607 0.003518609097227454
v -0.00014475210628006607 2.0621317153857177e-11 0.003518609097227454
v -0.0001398198219249025 3.746464790310711e-05 0.003518609097227454
v -0.0001253591472050175 7.237605314003304e-05 0.003518609097227454
v -0.00010235525405732915 0.00010235525405732915 0.003518609097227454
v -7.237613317556679e-05 0.00012535900168586522 0.003518609097227454
v -3.746468428289518e-05 0.0001398198219249025 0.003518609097227454
v -3.746468428289518e-05 0.0001398198219249025 0.003518609097227454
v 1.8840291826638378e-10 0.002616457873955369 0.006018754094839096
v -3.977866994131496e-11 0.00014475210628006607 0.003518609097227454
v 3.746457150555216e-05 0.0001398198219249025 0.003518609097227454
v 7.23759803804569e-05 0.00012535900168586522 0.003518609097227454
v 0.000102355181297753 0.000102355181297753 0.003518609097227454
v 0.00012535900168586522 7.237613317556679e-05 0.003518609097227454
v 0.0001398198219249025 3.7464611523319036e-05 0.003518609097227454
v 0.00014475210628006607 7.966675930060063e-12 0.003518608631566167
v 0.0026164581067860126 -3.6677369474880095e-10 0.006018752697855234
v 0.00013981967640575022 -3.7464611523319036e-05 0.003518608631566167
v 0.00012535900168586522 -7.23759803804569e-05 0.003518608631566167
v 0.000102355181297753 -0.00010235525405732915 0.003518608631566167
v 7.23759803804569e-05 -0.00012535900168586522 0.003518608631566167
v 3.746453512576409e-05 -0.0001398198219249025 0.003518608631566167
v -6.508792810278052e-11 -0.00014475210628006607 0.003518608631566167
v -3.746464790310711e-05 -0.0001398198219249025 0.003518608631566167
v -7.237620593514293e-05 -0.00012535900168586522 0.003518608631566167
v -0.00010235525405732915 -0.000102355181297753 0.003518608631566167
v -0.0001253591472050175 -7.237605314003304e-05 0.003518608631566167
v -0.0001398198219249025 -3.746457150555216e-05 0.003518608631566167
v -0.0026164585724473 -1.3803568010839484e-10 0.006018752697855234
v -0.0026164585724473 -1.3803568010839484e-10 0.006018752697855234
v -0.0025273049250245094 0.0006771894986741245 0.006018754094839096
v -0.00226592062972486 0.0013082289369776845 0.006018754094839096
v -0.001850116066634655 0.0018501159502193332 0.006018754094839096
v -0.00130822928622365 0.0022659196984022856 0.006018754094839096
v -0.0006771896150894463 0.0025273049250245094 0.006018754094839096
v 1.8840291826638378e-10 0.002616457873955369 0.006018754094839096
v 0.0006771897315047681 0.002527305157855153 0.006018754094839096
v 0.0013082290533930063 0.0022659199312329292 0.006018754094839096
v 0.0018501161830499768 0.0018501151353120804 0.006018754094839096
v 0.0022659199312329292 0.0013082280056551099 0.006018754094839096
v 0.0025273060891777277 0.000677189149428159 0.006018754094839096
v 0.0026164581067860126 -3.6677369474880095e-10 0.006018752697855234
v 0.0025273042265325785 -0.0006771897315047681 0.006018752697855234
v 0.0022659203968942165 -0.0013082301011309028 0.006018752697855234
v 0.0018501165322959423 -0.0018501164158806205 0.006018752697855234
v 0.00130822928622365 -0.0022659189999103546 0.0060187517665326595
v 0.0006771889165975153 -0.0025273056235164404 0.0060187517665326595
v -2.690732081589431e-10 -0.0026164585724473 0.0060187517665326595
v -0.0006771892076358199 -0.0025273060891777277 0.0060187517665326595
v -0.00130823056679219 -0.0022659203968942165 0.0060187517665326595
v -0.0018501157173886895 -0.0018501154845580459 0.006018752697855234
v -0.00226592062972486 -0.00130822928622365 0.006018752697855234
v -0.002527305157855153 -0.0006771889748051763 0.006018752697855234
g submesh_0
f 246 245 26
f 32 224 223
f 32 223 31
f 31 223 222
f 31 222 30
f 30 222 221
f 30 221 29
f 29 221 220
f 29 220 28
f 28 220 219
f 28 219 27
f 27 219 218
f 27 218 26
f 38 232 231
f 38 231 37
f 37 231 230
f 37 230 36
f 36 230 229
f 36 229 35
f 35 229 228
f 35 228 34
f 34 228 227
f 34 227 33
f 33 227 225
f 33 225 226
f 26 244 49
f 49 244 243
f 49 243 48
f 48 243 242
f 48 242 47
f 47 242 241
f 47 241 46
f 46 241 240
f 46 240 45
f 45 240 239
f 45 239 44
f 44 239 238
f 44 238 43
f 43 238 237
f 43 237 42
f 42 237 236
f 42 236 41
f 41 236 235
f 41 235 40
f 40 235 234
f 40 234 39
f 39 234 233
f 39 233 38
f 254 255 57
f 254 57 256
f 256 57 58
f 256 58 257
f 257 58 59
f 257 59 258
f 258 59 60
f 258 60 259
f 259 60 61
f 259 61 260
f 260 61 62
f 260 62 261
f 261 62 63
f 261 63 262
f 262 63 64
f 262 64 263
f 263 64 65
f 263 65 264
f 264 65 66
f 264 66 265
f 265 66 67
f 265 67 266
f 266 67 68
f 266 68 267
f 267 68 69
f 267 69 268
f 268 69 70
f 268 70 269
f 269 70 71
f 269 71 270
f 270 71 72
f 270 72 271
f 271 72 73
f 271 73 272
f 272 73 50
f 272 50 247
f 247 50 51
f 247 51 248
f 248 51 52
f 248 52 249
f 249 52 53
f 249 53 250
f 250 53 54
f 250 54 251
f 251 54 55
f 251 55 252
f 252 55 56
f 252 56 253
f 280 281 81
f 280 81 282
f 282 81 82
f 282 82 283
f 283 82 83
f 283 83 284
f 284 83 84
f 284 84 285
f 285 84 85
f 285 85 286
f 286 85 86
f 286 86 287
f 287 86 87
f 287 87 288
f 288 87 88
f 288 88 289
f 289 88 89
f 289 89 290
f 290 89 90
f 290 90 291
f 291 90 91
f 291 91 292
f 292 91 92
f 292 92 293
f 293 92 93
f 293 93 294
f 294 93 94
f 294 94 295
f 295 94 95
f 295 95 296
f 296 95 96
f 296 96 297
f 297 96 97
f 297 97 298
f 298 97 74
f 298 74 273
f 273 74 75
f 273 75 274
f 274 75 76
f 274 76 275
f 275 76 77
f 275 77 276
f 276 77 78
f 276 78 277
f 277 78 79
f 277 79 278
f 278 79 80
f 278 80 279
f 306 307 105
f 306 105 308
f 308 105 106
f 308 106 309
f 309 106 107
f 309 107 310
f 310 107 108
f 310 108 311
f 311 108 109
f 311 109 312
f 312 109 110
f 312 110 313
f 313 110 111
f 313 111 314
f 314 111 112
f 314 112 315
f 315 112 113
f 315 113 316
f 316 113 114
f 316 114 317
f 317 114 115
f 317 115 318
f 318 115 116
f 318 116 319
f 319 116 117
f 319 117 320
f 320 117 118
f 320 118 321
f 321 118 119
f 321 119 322
f 322 119 120
f 322 120 323
f 323 120 121
f 323 121 324
f 324 121 98
f 324 98 299
f 299 98 99
f 299 99 300
f 300 99 100
f 300 100 301
f 301 100 101
f 301 101 302
f 302 101 102
f 302 102 303
f 303 102 103
f 303 103 304
f 304 103 104
f 304 104 305
f 128 104 103
f 128 103 127
f 127 103 102
f 127 102 126
f 126 102 101
f 126 101 125
f 125 101 100
f 125 100 124
f 124 100 99
f 124 99 123
f 123 99 98
f 123 98 122
f 122 98 121
f 122 121 145
f 145 121 120
f 145 120 144
f 144 120 119
f 144 119 143
f 143 119 118
f 143 118 142
f 142 118 117
f 142 117 141
f 141 117 116
f 141 116 140
f 140 116 115
f 140 115 139
f 139 115 114
f 139 114 138
f 138 114 113
f 138 113 137
f 137 113 112
f 137 112 136
f 136 112 111
f 136 111 135
f 135 111 110
f 135 110 134
f 134 110 109
f 134 109 133
f 133 109 108
f 133 108 132
f 132 108 107
f 132 107 131
f 131 107 106
f 131 106 130
f 130 106 105
f 130 105 129
f 129 105 307
f 129 307 325
f 152 331 151
f 151 331 330
f 151 330 150
f 150 330 329
f 150 329 149
f 149 329 328
f 149 328 148
f 148 328 327
f 148 327 147
f 147 327 326
f 147 326 146
f 332 333 334
f 334 333 153
f 334 153 335
f 335 153 154
f 335 154 336
f 336 154 155
f 336 155 337
f 337 155 156
f 337 156 338
f 338 156 157
f 338 157 339
f 339 157 158
f 339 158 340
f 353 326 352
f 353 352 169
f 169 352 351
f 169 351 168
f 168 351 350
f 168 350 167
f 167 350 349
f 167 349 166
f 166 349 348
f 166 348 165
f 165 348 347
f 165 347 164
f 164 347 346
f 164 346 163
f 163 346 345
f 163 345 162
f 162 345 344
f 162 344 161
f 161 344 343
f 161 343 160
f 160 343 342
f 160 342 159
f 159 342 340
f 159 340 341
f 24 25 1
f 1 25 2
f 1 2 3
f 3 4 1
f 1 4 5
f 1 5 6
f 6 7 1
f 1 7 8
f 1 8 9
f 9 10 1
f 1 10 11
f 1 11 12
f 12 13 1
f 1 13 14
f 1 14 15
f 15 16 1
f 1 16 17
f 1 17 18
f 18 19 1
f 1 19 20
f 1 20 21
f 21 22 1
f 1 22 23
f 1 23 24
f 171 354 170
f 170 354 377
f 170 377 193
f 193 377 376
f 193 376 192
f 192 376 375
f 192 375 191
f 191 375 374
f 191 374 190
f 190 374 373
f 190 373 189
f 189 373 372
f 189 372 188
f 188 372 371
f 188 371 187
f 187 371 370
f 187 370 186
f 186 370 369
f 186 369 185
f 185 369 368
f 185 368 184
f 184 368 367
f 184 367 183
f 183 367 366
f 183 366 182
f 182 366 365
f 182 365 181
f 181 365 364
f 181 364 180
f 180 364 363
f 180 363 179
f 179 363 362
f 179 362 178
f 178 362 361
f 178 361 177
f 177 361 360
f 177 360 176
f 176 360 359
f 176 359 175
f 175 359 358
f 175 358 174
f 174 358 357
f 174 357 173
f 173 357 356
f 173 356 172
f 172 356 355
f 172 355 171
f 171 355 354
f 170 195 171
f 171 195 196
f 171 196 172
f 172 196 197
f 172 197 173
f 173 197 198
f 173 198 174
f 174 198 199
f 174 199 175
f 175 199 200
f 175 200 176
f 176 200 201
f 176 201 177
f 177 201 202
f 177 202 178
f 178 202 203
f 178 203 179
f 179 203 204
f 179 204 180
f 180 204 205
f 180 205 181
f 181 205 206
f 181 206 182
f 182 206 207
f 182 207 183
f 183 207 208
f 183 208 184
f 184 208 209
f 184 209 185
f 185 209 210
f 185 210 186
f 186 210 211
f 186 211 187
f 187 211 212
f 187 212 188
f 188 212 213
f 188 213 189
f 189 213 214
f 189 214 190
f 190 214 215
f 190 215 191
f 191 215 216
f 191 216 192
f 192 216 217
f 192 217 193
f 193 217 194
f 193 194 170
f 170 194 195
