# Inside
v -0.001037972280755639 5.188343088491365e-09 0.0019262608839198947
v -0.0010026036761701107 0.00026864500250667334 0.0019262608839198947
v -0.0008989115594886243 0.0005189808434806764 0.0019262608839198947
v -0.0007339586154557765 0.0007339533767662942 0.0019262608839198947
v -0.0005189861403778195 0.0008989089401438832 0.0019262608839198947
v -0.0002686476509552449 0.0010026036761701107 0.0019262608839198947
v -2.775557396126769e-18 0.0010379775194451213 0.0019262608839198947
v 0.0002686476509552449 0.0010026035597547889 0.0019262608839198947
v 0.0005189861403778195 0.0008989088819362223 0.0019262608839198947
v 0.0007339586154557765 0.0007339533185586333 0.0019262608839198947
v 0.0008989115594886243 0.0005189808434806764 0.0019262608839198947
v 0.0010026036761701107 0.00026864500250667334 0.0019262608839198947
v 0.001037972280755639 5.188342200312945e-09 0.0019262608839198947
v 0.0010026036761701107 -0.0002686450898181647 0.0019262608839198947
v 0.0008989115594886243 -0.0005189913790673018 0.0019262608839198947
v 0.0007339586154557765 -0.0007339534931816161 0.0019262608839198947
v 0.0005189861403778195 -0.0008989089983515441 0.0019262608839198947
v 0.0002686476509552449 -0.0010026037925854325 0.0019262608839198947
v -2.2204459996194763e-18 -0.0010379775194451213 0.0019262608839198947
v -0.0002686476509552449 -0.0010026036761701107 0.0019262608839198947
v -0.0005189861403778195 -0.0008989089401438832 0.0019262608839198947
v -0.0007339586154557765 -0.0007339533767662942 0.0019262608839198947
v -0.0008989115594886243 -0.0005189913790673018 0.0019262608839198947
v -0.0010026036761701107 -0.0002686450898181647 0.0019262608839198947
v 0.0 5.188342200312945e-09 0.00030768601573072374
v -0.0007012860151007771 5.188342200312945e-09 0.0004061326908413321
v -0.0006773888017050922 0.00018150758114643395 0.0004061326908413321
v -0.0006073316326364875 0.0003506468783598393 0.0004061326908413321
v -0.0004958838690072298 0.0004958864883519709 0.0004061326908413321
v -0.000350641697878018 0.0006073316326364875 0.0004061326908413321
v -0.0001815049909055233 0.0006773888017050922 0.0004061326908413321
v -1.6653344997146072e-18 0.0007012886344455183 0.0004061326908413321
v 0.0001815049909055233 0.0006773888017050922 0.0004061326908413321
v 0.00035064431722275913 0.0006073316326364875 0.0004061326908413321
v 0.0004958838690072298 0.00049588643014431 0.0004061326908413321
v 0.0006073316326364875 0.0003506468783598393 0.0004061326908413321
v 0.0006773914210498333 0.0001815075520426035 0.0004061326908413321
v 0.0007012860151007771 5.188342200312945e-09 0.0004061326908413321
v 0.0006773888017050922 -0.00018150762480217963 0.0004061326908413321
v 0.0006073316326364875 -0.0003506469656713307 0.0004061326908413321
v 0.0004958838690072298 -0.0004958865465596318 0.0004061326908413321
v 0.000350641697878018 -0.0006073316908441484 0.0004061326908413321
v 0.0001815049909055233 -0.000677388918120414 0.0004061326908413321
v -5.551114999048691e-19 -0.0007012886344455183 0.0004061326908413321
v -0.0001815049909055233 -0.000677388918120414 0.0004061326908413321
v -0.00035064431722275913 -0.0006073316908441484 0.0004061326908413321
v -0.0004958838690072298 -0.0004958864883519709 0.0004061326908413321
v -0.0006073316326364875 -0.0003506469656713307 0.0004061326908413321
v -0.0006773914210498333 -0.0001815076102502644 0.0004061326908413321
v -0.0006773888017050922 0.00018150758114643395 0.0004061326908413321
v -0.0007012860151007771 5.188342200312945e-09 0.0004061326908413321
v -0.0006073316326364875 0.0003506468783598393 0.0004061326908413321
v -0.0004958838690072298 0.0004958864883519709 0.0004061326908413321
v -0.000350641697878018 0.0006073316326364875 0.0004061326908413321
v -0.0001815049909055233 0.0006773888017050922 0.0004061326908413321
v -0.0002686476509552449 0.0010026036761701107 0.0019262608839198947
v -1.6653344997146072e-18 0.0007012886344455183 0.0004061326908413321
v -0.0001815049909055233 0.0006773888017050922 0.0004061326908413321
v 0.0001815049909055233 0.0006773888017050922 0.0004061326908413321
v 0.00035064431722275913 0.0006073316326364875 0.0004061326908413321
v 0.0004958838690072298 0.00049588643014431 0.0004061326908413321
v 0.0006073316326364875 0.0003506468783598393 0.0004061326908413321
v 0.0006773914210498333 0.0001815075520426035 0.0004061326908413321
v 0.0007012860151007771 5.188342200312945e-09 0.0004061326908413321
v 0.0006773888017050922 -0.00018150762480217963 0.0004061326908413321
v 0.0007012860151007771 5.188342200312945e-09 0.0004061326908413321
v 0.0006073316326364875 -0.0003506469656713307 0.0004061326908413321
v 0.0004958838690072298 -0.0004958865465596318 0.0004061326908413321
v 0.000350641697878018 -0.0006073316908441484 0.0004061326908413321
v 0.0001815049909055233 -0.000677388918120414 0.0004061326908413321
v -5.551114999048691e-19 -0.0007012886344455183 0.0004061326908413321
v -0.0001815049909055233 -0.000677388918120414 0.0004061326908413321
v -0.00035064431722275913 -0.0006073316908441484 0.0004061326908413321
v -0.0004958838690072298 -0.0004958864883519709 0.0004061326908413321
v -0.0006073316326364875 -0.0003506469656713307 0.0004061326908413321
v -0.0006773914210498333 -0.0001815076102502644 0.0004061326908413321
v -0.0007012860151007771 5.188342200312945e-09 0.0004061326908413321
g submesh_0
f 55 6 5
f 55 5 54
f 54 5 4
f 54 4 53
f 53 4 3
f 53 3 52
f 52 3 2
f 52 2 50
f 50 2 1
f 50 1 51
f 64 13 12
f 64 12 63
f 63 12 11
f 63 11 62
f 62 11 10
f 62 10 61
f 61 10 9
f 61 9 60
f 60 9 8
f 60 8 59
f 59 8 7
f 59 7 57
f 57 7 56
f 57 56 58
f 77 1 24
f 77 24 76
f 76 24 23
f 76 23 75
f 75 23 22
f 75 22 74
f 74 22 21
f 74 21 73
f 73 21 20
f 73 20 72
f 72 20 19
f 72 19 71
f 71 19 18
f 71 18 70
f 70 18 17
f 70 17 69
f 69 17 16
f 69 16 68
f 68 16 15
f 68 15 67
f 67 15 14
f 67 14 65
f 65 14 13
f 65 13 66
f 29 28 25
f 25 28 27
f 25 27 26
f 32 31 25
f 25 31 30
f 25 30 29
f 35 34 25
f 25 34 33
f 25 33 32
f 38 37 25
f 25 37 36
f 25 36 35
f 41 40 25
f 25 40 39
f 25 39 38
f 44 43 25
f 25 43 42
f 25 42 41
f 47 46 25
f 25 46 45
f 25 45 44
f 26 49 25
f 25 49 48
f 25 48 47
