# COL
v 1.3871939158025102e-23 7.473485830189475e-09 0.0001613644853932783
v -0.0010994944022968411 7.474643126670344e-09 8.034560778469313e-06
v -0.001062030321918428 0.0002845757408067584 8.034575330384541e-06
v -0.0009521923493593931 0.0005497508682310581 8.034583515836857e-06
v -0.0007774620898999274 0.0007774658151902258 8.034598067752086e-06
v -0.0005497472011484206 0.0009521847823634744 8.034606253204402e-06
v -0.00028457201551645994 0.0010620341636240482 8.034606253204402e-06
v -3.675464141725765e-18 0.0010994944022968411 8.034606253204402e-06
v 0.00028457201551645994 0.0010620339307934046 8.034606253204402e-06
v 0.0005497472011484206 0.0009521847823634744 8.034606253204402e-06
v 0.0007774620898999274 0.0007774657569825649 8.034598067752086e-06
v 0.0009521923493593931 0.0005497508682310581 8.034583515836857e-06
v 0.001062030321918428 0.00028457571170292795 8.034575330384541e-06
v 0.0010994944022968411 7.474641350313505e-09 8.034560778469313e-06
v 0.001062030321918428 -0.0002845758863259107 8.034547136048786e-06
v 0.0009521923493593931 -0.00054975098464638 8.03453895059647e-06
v 0.0007774620898999274 -0.0007774659316055477 4.371669638203457e-05
v 0.0005497472011484206 -0.000952185015194118 8.03451803221833e-06
v 0.00028457201551645994 -0.00106203428003937 8.03451803221833e-06
v -3.5749277828954574e-18 -0.0010994944022968411 8.03451803221833e-06
v -0.00028457201551645994 -0.0010620341636240482 8.03451803221833e-06
v -0.0005497472011484206 -0.000952185015194118 8.03451803221833e-06
v -0.0007774620898999274 -0.0007774659316055477 8.034525308175944e-06
v -0.0009521923493593931 -0.00054975098464638 8.03453895059647e-06
v -0.001062030321918428 -0.00028457585722208023 8.034547136048786e-06
v -0.0011692012194544077 7.474643126670344e-09 4.371672184788622e-05
v -0.0011293600546196103 0.0003026127233169973 4.3716740037780255e-05
v -0.0010125567205250263 0.0005846042768098414 4.3716754589695483e-05
v -0.000826747331302613 0.0008267548400908709 4.3716765503631905e-05
v -0.0005846006097272038 0.0010125493863597512 4.371677277958952e-05
v -0.0003026127815246582 0.0011293600546196103 4.371677277958952e-05
v -2.0478169212972628e-18 0.0011692012194544077 4.371677277958952e-05
v 0.0003026127815246582 0.0011293600546196103 4.371677277958952e-05
v 0.0005846006097272038 0.0010125490371137857 4.371677277958952e-05
v 0.000826747331302613 0.0008267547818832099 4.3716765503631905e-05
v 0.0010125567205250263 0.0005846042768098414 4.3716754589695483e-05
v 0.0011293600546196103 0.00030261269421316683 4.3716740037780255e-05
v 0.0011692012194544077 7.474643126670344e-09 4.371672184788622e-05
v 0.0011293600546196103 -0.00030261289793998003 4.3716714571928605e-05
v 0.0010125567205250263 -0.0005846044514328241 4.371669638203457e-05
v 0.000826747331302613 -0.0008267548982985318 4.3716689106076956e-05
v 0.0005846006097272038 -0.001012564403936267 4.371668183011934e-05
v 0.0003026127815246582 -0.0011293601710349321 4.371668183011934e-05
v -1.6941713600367012e-18 -0.0011692012194544077 4.371667091618292e-05
v -0.0003026127815246582 -0.0011293600546196103 4.371668183011934e-05
v -0.0005846006097272038 -0.0010125493863597512 4.371668183011934e-05
v -0.000826747331302613 -0.0008267548982985318 4.3716689106076956e-05
v -0.0010125567205250263 -0.0005846044514328241 4.371669638203457e-05
v -0.0011293600546196103 -0.0003026128397323191 4.3716714571928605e-05
v -0.00143663608469069 6.974004040927184e-09 0.006022871471941471
v -0.0014116935199126601 0.0003782553249038756 0.005994085688143969
v -0.0012656885664910078 0.0007307441555894911 0.005994085688143969
v -0.0010334313847124577 0.0010334316175431013 0.005994085688143969
v -0.000730747589841485 0.0012656955514103174 0.005994085688143969
v -0.0003782621643040329 0.0014116935199126601 0.005994085688143969
v -3.646240210805618e-13 0.00146149517968297 0.005994085688143969
v 0.00037826213520020247 0.0014116934034973383 0.005994085688143969
v 0.0007307474734261632 0.0012656953185796738 0.005994085688143969
v 0.0010334313847124577 0.0010334313847124577 0.005994085688143969
v 0.0012656886829063296 0.0007307441555894911 0.005994085688143969
v 0.0014116935199126601 0.00037825535400770605 0.005994085688143969
v 0.0014614915708079934 6.974003596837974e-09 0.005994085688143969
v 0.0014116935199126601 -0.00037826894549652934 0.005994085688143969
v 0.0012656885664910078 -0.0007307441555894911 0.005994085688143969
v 0.0010334313847124577 -0.0010334313847124577 0.005994085688143969
v 0.000730747589841485 -0.0012656956678256392 0.005994085688143969
v 0.00037826213520020247 -0.001411693636327982 0.005994085688143969
v -3.646396064867913e-13 -0.0014614949468523264 0.005994085688143969
v -0.00037826213520020247 -0.0014116934034973383 0.005994085688143969
v -0.0007307474734261632 -0.001265695202164352 0.005994085688143969
v -0.0010334313847124577 -0.0010334312682971358 0.005994085688143969
v -0.0012656886829063296 -0.0007307440391741693 0.005994085688143969
v -0.0014116935199126601 -0.0003782689746003598 0.005994085688143969
v -0.0013786227209493518 6.974005373194814e-09 0.006022871471941471
v -0.0013316465774551034 0.0003568112733773887 0.006022871471941471
v -0.0011939238756895065 0.0006893044337630272 0.006022871471941471
v -0.0009748354204930365 0.0009748286684043705 0.006022871471941471
v -0.0006893113604746759 0.0011939206160604954 0.006022871471941471
v -0.00035681473673321307 0.0013316465774551034 0.006022871471941471
v -3.6461805796861313e-13 0.0013786295894533396 0.006022871471941471
v 0.0003568147076293826 0.0013316464610397816 0.006022871471941471
v 0.0006893113604746759 0.0011939204996451735 0.006022871471941471
v 0.0009748353622853756 0.0009748284355737269 0.006022871471941471
v 0.0011939239921048284 0.0006893043755553663 0.006022871471941471
v 0.0013316465774551034 0.00035681124427355826 0.006022871471941471
v 0.0013786227209493518 6.974004040927184e-09 0.006022871471941471
v 0.0013316465774551034 -0.00035681124427355826 0.0060228705406188965
v 0.0011939238756895065 -0.0006893182871863246 0.006022871006280184
v 0.0009748354204930365 -0.0009748284355737269 0.006022871006280184
v 0.0006893113604746759 -0.0011939204996451735 0.0060228705406188965
v 0.00035681473673321307 -0.0013316466938704252 0.0060228705406188965
v -3.6462572869898346e-13 -0.0013786295894533396 0.0060228705406188965
v -0.0003568147076293826 -0.0013316465774551034 0.0060228705406188965
v -0.0006893113604746759 -0.0011939204996451735 0.0060228705406188965
v -0.0009748353622853756 -0.0009748282027430832 0.006022871006280184
v -0.0011939239921048284 -0.0006893182289786637 0.006022871006280184
v -0.0013316465774551034 -0.0003568112151697278 0.0060228705406188965
v -0.0014614915708079934 6.974004485016394e-09 0.005994085688143969
v -0.001387684722431004 0.0003718236112035811 0.006022871471941471
v -0.001244164421223104 0.0007183149573393166 0.006022871471941471
v -0.00101585709489882 0.0010158551158383489 0.006022871471941471
v -0.0007183206034824252 0.001244169776327908 0.006022871471941471
v -0.000371829402865842 0.0013876849552616477 0.006022871471941471
v -3.6462505107262566e-13 0.0014366395771503448 0.006022871471941471
v 0.000371829402865842 0.0013876849552616477 0.006022871471941471
v 0.0007183206034824252 0.0012441696599125862 0.006022871471941471
v 0.00101585709489882 0.0010158548830077052 0.006022871471941471
v 0.001244164421223104 0.0007183147827163339 0.006022871471941471
v 0.001387684722431004 0.00037182364030741155 0.006022871471941471
v 0.00143663608469069 6.9740031527487645e-09 0.006022871471941471
v 0.001387686119414866 -0.00037183309905231 0.0060228705406188965
v 0.0012441623257473111 -0.0007183184497989714 0.006022871006280184
v 0.00101585709489882 -0.0010158548830077052 0.006022871006280184
v 0.0007183206034824252 -0.0012441695434972644 0.0060228705406188965
v 0.000371829402865842 -0.0013876851880922914 0.0060228705406188965
v -3.6463198996652957e-13 -0.0014366395771503448 0.0060228705406188965
v -0.000371829402865842 -0.0013876849552616477 0.0060228705406188965
v -0.0007183206034824252 -0.0012441695434972644 0.0060228705406188965
v -0.00101585709489882 -0.0010158547665923834 0.006022871006280184
v -0.0012441623257473111 -0.0007183183333836496 0.006022871006280184
v -0.001387686119414866 -0.00037183312815614045 0.0060228705406188965
v -0.0012079798616468906 6.99658464498043e-09 0.0010164901614189148
v -0.0011668179649859667 0.00031264705467037857 0.001016490045003593
v -0.0010461403289809823 0.0006039918516762555 0.001016490045003593
v -0.0008541689603589475 0.000854174024425447 0.001016490045003593
v -0.0006039903382770717 0.0010461369529366493 0.001016490045003593
v -0.00031264909193851054 0.0011668179649859667 0.001016490045003593
v -1.189327905907686e-13 0.0012079806765541434 0.001016490045003593
v 0.00031264909193851054 0.0011668179649859667 0.001016490045003593
v 0.0006039903382770717 0.0010461368365213275 0.001016490045003593
v 0.0008541689603589475 0.000854174024425447 0.001016490045003593
v 0.0010461403289809823 0.0006039917934685946 0.001016490045003593
v 0.0011668180814012885 0.00031264699646271765 0.001016490045003593
v 0.0012079797452315688 6.996582424534381e-09 0.001016490045003593
v 0.0011668179649859667 -0.00031265115831047297 0.001016490045003593
v 0.0010461403289809823 -0.0006039919680915773 0.001016490045003593
v 0.0008541690185666084 -0.0008541740826331079 0.001016490045003593
v 0.0006039903382770717 -0.0010461474303156137 0.001016490045003593
v 0.00031264909193851054 -0.0011668180814012885 0.001016490045003593
v -1.1893420005359284e-13 -0.0012079806765541434 0.001016490045003593
v -0.00031264909193851054 -0.0011668180814012885 0.001016490045003593
v -0.0006039903382770717 -0.001046137185767293 0.001016490045003593
v -0.0008541690185666084 -0.0008541740826331079 0.001016490045003593
v -0.0010461403289809823 -0.0006039919680915773 0.001016490045003593
v -0.0011668179649859667 -0.0003126511292066425 0.001016490045003593
v 8.894662140790196e-20 7.480512209667722e-09 0.0008434861083514988
v -0.0010310503421351314 7.482154451565748e-09 0.001016085036098957
v -0.0009959160815924406 0.000266857270617038 0.0010160851525142789
v -0.0008929159957915545 0.0005155301187187433 0.0010160851525142789
v -0.0007290624198503792 0.0007290657376870513 0.0010160851525142789
v -0.0005155233666300774 0.0008929159375838935 0.0010160851525142789
v -0.0002668538654688746 0.0009959159651771188 0.0010160851525142789
v -4.798451985953268e-19 0.0010310543002560735 0.0010160851525142789
v 0.0002668538654688746 0.0009959160815924406 0.0010160851525142789
v 0.000515526975505054 0.0008929159375838935 0.0010160851525142789
v 0.0007290624198503792 0.0007290656794793904 0.0010160851525142789
v 0.0008929159957915545 0.0005155301187187433 0.0010160851525142789
v 0.000995919806882739 0.00026685724151320755 0.0010160851525142789
v 0.0010310503421351314 7.482154451565748e-09 0.0010160851525142789
v 0.0009959160815924406 -0.00026685738703235984 0.001016085036098957
v 0.0008929159957915545 -0.000515530991833657 0.001016085036098957
v 0.0007290624198503792 -0.0007290657376870513 0.001016085036098957
v 0.0005155233666300774 -0.0008929159375838935 0.001016085036098957
v 0.0002668538654688746 -0.0009959160815924406 0.001016085036098957
v -8.152348320380548e-19 -0.0010310540674254298 0.001016085036098957
v -0.0002668538654688746 -0.0009959161980077624 0.001016085036098957
v -0.000515526975505054 -0.0008929159375838935 0.001016085036098957
v -0.0007290624198503792 -0.0007290657376870513 0.001016085036098957
v -0.0008929159957915545 -0.000515530991833657 0.001016085036098957
v -0.000995919806882739 -0.0002668573579285294 0.001016085036098957
v 1.3871939158025102e-23 7.473485830189475e-09 0.0001613644853932783
v 1.3871939158025102e-23 7.473485830189475e-09 0.0001613644853932783
v 1.3871939158025102e-23 7.473485830189475e-09 0.0001613644853932783
v 1.3871939158025102e-23 7.473485830189475e-09 0.0001613644853932783
v 1.3871939158025102e-23 7.473485830189475e-09 0.0001613644853932783
v 1.3871939158025102e-23 7.473485830189475e-09 0.0001613644853932783
v -3.675464141725765e-18 0.0010994944022968411 8.034606253204402e-06
v 1.3871939158025102e-23 7.473485830189475e-09 0.0001613644853932783
v 1.3871939158025102e-23 7.473485830189475e-09 0.0001613644853932783
v 1.3871939158025102e-23 7.473485830189475e-09 0.0001613644853932783
v 1.3871939158025102e-23 7.473485830189475e-09 0.0001613644853932783
v 1.3871939158025102e-23 7.473485830189475e-09 0.0001613644853932783
v 1.3871939158025102e-23 7.473485830189475e-09 0.0001613644853932783
v 1.3871939158025102e-23 7.473485830189475e-09 0.0001613644853932783
v 1.3871939158025102e-23 7.473485830189475e-09 0.0001613644853932783
v 1.3871939158025102e-23 7.473485830189475e-09 0.0001613644853932783
v 1.3871939158025102e-23 7.473485830189475e-09 0.0001613644853932783
v 1.3871939158025102e-23 7.473485830189475e-09 0.0001613644853932783
v 1.3871939158025102e-23 7.473485830189475e-09 0.0001613644853932783
v 1.3871939158025102e-23 7.473485830189475e-09 0.0001613644853932783
v 1.3871939158025102e-23 7.473485830189475e-09 0.0001613644853932783
v 1.3871939158025102e-23 7.473485830189475e-09 0.0001613644853932783
v 1.3871939158025102e-23 7.473485830189475e-09 0.0001613644853932783
v 1.3871939158025102e-23 7.473485830189475e-09 0.0001613644853932783
v -2.0478169212972628e-18 0.0011692012194544077 4.371677277958952e-05
v 0.0005846006097272038 -0.001012564403936267 4.371668183011934e-05
v -3.646240210805618e-13 0.00146149517968297 0.005994085688143969
v -1.189327905907686e-13 0.0012079806765541434 0.001016490045003593
v -3.6462505107262566e-13 0.0014366395771503448 0.006022871471941471
v -3.6461805796861313e-13 0.0013786295894533396 0.006022871471941471
v -0.0014614915708079934 6.974004485016394e-09 0.005994085688143969
v -0.001387684722431004 0.0003718236112035811 0.006022871471941471
v -0.0014116935199126601 0.0003782553249038756 0.005994085688143969
v -0.001387684722431004 0.0003718236112035811 0.006022871471941471
v -0.0014614915708079934 6.974004485016394e-09 0.005994085688143969
v -0.00143663608469069 6.974004040927184e-09 0.006022871471941471
v -0.001244164421223104 0.0007183149573393166 0.006022871471941471
v -0.0012656885664910078 0.0007307441555894911 0.005994085688143969
v -0.00101585709489882 0.0010158551158383489 0.006022871471941471
v -0.0010334313847124577 0.0010334316175431013 0.005994085688143969
v -0.0007183206034824252 0.001244169776327908 0.006022871471941471
v -0.000730747589841485 0.0012656955514103174 0.005994085688143969
v -0.000371829402865842 0.0013876849552616477 0.006022871471941471
v -0.0003782621643040329 0.0014116935199126601 0.005994085688143969
v -3.6462505107262566e-13 0.0014366395771503448 0.006022871471941471
v -3.646240210805618e-13 0.00146149517968297 0.005994085688143969
v 0.000371829402865842 0.0013876849552616477 0.006022871471941471
v 0.00037826213520020247 0.0014116934034973383 0.005994085688143969
v 0.000371829402865842 0.0013876849552616477 0.006022871471941471
v 0.0007183206034824252 0.0012441696599125862 0.006022871471941471
v 0.0007307474734261632 0.0012656953185796738 0.005994085688143969
v 0.00101585709489882 0.0010158548830077052 0.006022871471941471
v 0.0010334313847124577 0.0010334313847124577 0.005994085688143969
v 0.0007183206034824252 0.0012441696599125862 0.006022871471941471
v 0.001244164421223104 0.0007183147827163339 0.006022871471941471
v 0.0012656886829063296 0.0007307441555894911 0.005994085688143969
v 0.00101585709489882 0.0010158548830077052 0.006022871471941471
v 0.001387684722431004 0.00037182364030741155 0.006022871471941471
v 0.0014116935199126601 0.00037825535400770605 0.005994085688143969
v 0.001244164421223104 0.0007183147827163339 0.006022871471941471
v 0.00143663608469069 6.9740031527487645e-09 0.006022871471941471
v 0.0014614915708079934 6.974003596837974e-09 0.005994085688143969
v 0.001387684722431004 0.00037182364030741155 0.006022871471941471
v 0.001387686119414866 -0.00037183309905231 0.0060228705406188965
v 0.0014116935199126601 -0.00037826894549652934 0.005994085688143969
v 0.00143663608469069 6.9740031527487645e-09 0.006022871471941471
v 0.0012441623257473111 -0.0007183184497989714 0.006022871006280184
v 0.0012656885664910078 -0.0007307441555894911 0.005994085688143969
v 0.001387686119414866 -0.00037183309905231 0.0060228705406188965
v 0.00101585709489882 -0.0010158548830077052 0.006022871006280184
v 0.0010334313847124577 -0.0010334313847124577 0.005994085688143969
v 0.0012441623257473111 -0.0007183184497989714 0.006022871006280184
v 0.0007183206034824252 -0.0012441695434972644 0.0060228705406188965
v 0.000730747589841485 -0.0012656956678256392 0.005994085688143969
v 0.00101585709489882 -0.0010158548830077052 0.006022871006280184
v 0.000371829402865842 -0.0013876851880922914 0.0060228705406188965
v 0.00037826213520020247 -0.001411693636327982 0.005994085688143969
v 0.000371829402865842 -0.0013876851880922914 0.0060228705406188965
v 0.0007183206034824252 -0.0012441695434972644 0.0060228705406188965
v -3.6463198996652957e-13 -0.0014366395771503448 0.0060228705406188965
v -3.646396064867913e-13 -0.0014614949468523264 0.005994085688143969
v -0.000371829402865842 -0.0013876849552616477 0.0060228705406188965
v -0.00037826213520020247 -0.0014116934034973383 0.005994085688143969
v -0.0007183206034824252 -0.0012441695434972644 0.0060228705406188965
v -0.0007307474734261632 -0.001265695202164352 0.005994085688143969
v -0.00101585709489882 -0.0010158547665923834 0.006022871006280184
v -0.0010334313847124577 -0.0010334312682971358 0.005994085688143969
v -0.0012441623257473111 -0.0007183183333836496 0.006022871006280184
v -0.0012656886829063296 -0.0007307440391741693 0.005994085688143969
v -0.001387686119414866 -0.00037183312815614045 0.0060228705406188965
v -0.0014116935199126601 -0.0003782689746003598 0.005994085688143969
v -0.0011692012194544077 7.474643126670344e-09 4.371672184788622e-05
v -0.0011293600546196103 0.0003026127233169973 4.3716740037780255e-05
v -0.0010125567205250263 0.0005846042768098414 4.3716754589695483e-05
v -0.000826747331302613 0.0008267548400908709 4.3716765503631905e-05
v -0.0005846006097272038 0.0010125493863597512 4.371677277958952e-05
v -0.0003026127815246582 0.0011293600546196103 4.371677277958952e-05
v -2.0478169212972628e-18 0.0011692012194544077 4.371677277958952e-05
v -2.0478169212972628e-18 0.0011692012194544077 4.371677277958952e-05
v 0.0003026127815246582 0.0011293600546196103 4.371677277958952e-05
v 0.0005846006097272038 0.0010125490371137857 4.371677277958952e-05
v 0.000826747331302613 0.0008267547818832099 4.3716765503631905e-05
v 0.0010125567205250263 0.0005846042768098414 4.3716754589695483e-05
v 0.0011293600546196103 0.00030261269421316683 4.3716740037780255e-05
v 0.0011692012194544077 7.474643126670344e-09 4.371672184788622e-05
v 0.0011293600546196103 -0.00030261289793998003 4.3716714571928605e-05
v 0.0010125567205250263 -0.0005846044514328241 4.371669638203457e-05
v 0.000826747331302613 -0.0008267548982985318 4.3716689106076956e-05
v 0.0005846006097272038 -0.001012564403936267 4.371668183011934e-05
v 0.0005846006097272038 -0.001012564403936267 4.371668183011934e-05
v 0.0003026127815246582 -0.0011293601710349321 4.371668183011934e-05
v -1.6941713600367012e-18 -0.0011692012194544077 4.371667091618292e-05
v -0.0003026127815246582 -0.0011293600546196103 4.371668183011934e-05
v -0.0005846006097272038 -0.0010125493863597512 4.371668183011934e-05
v -0.000826747331302613 -0.0008267548982985318 4.3716689106076956e-05
v -0.0010125567205250263 -0.0005846044514328241 4.371669638203457e-05
v -0.0011293600546196103 -0.0003026128397323191 4.3716714571928605e-05
v 8.894662140790196e-20 7.480512209667722e-09 0.0008434861083514988
v 8.894662140790196e-20 7.480512209667722e-09 0.0008434861083514988
v 8.894662140790196e-20 7.480512209667722e-09 0.0008434861083514988
v 8.894662140790196e-20 7.480512209667722e-09 0.0008434861083514988
v 8.894662140790196e-20 7.480512209667722e-09 0.0008434861083514988
v 8.894662140790196e-20 7.480512209667722e-09 0.0008434861083514988
v -4.798451985953268e-19 0.0010310543002560735 0.0010160851525142789
v 8.894662140790196e-20 7.480512209667722e-09 0.0008434861083514988
v 8.894662140790196e-20 7.480512209667722e-09 0.0008434861083514988
v 8.894662140790196e-20 7.480512209667722e-09 0.0008434861083514988
v 8.894662140790196e-20 7.480512209667722e-09 0.0008434861083514988
v 8.894662140790196e-20 7.480512209667722e-09 0.0008434861083514988
v 8.894662140790196e-20 7.480512209667722e-09 0.0008434861083514988
v 8.894662140790196e-20 7.480512209667722e-09 0.0008434861083514988
v 8.894662140790196e-20 7.480512209667722e-09 0.0008434861083514988
v 8.894662140790196e-20 7.480512209667722e-09 0.0008434861083514988
v 8.894662140790196e-20 7.480512209667722e-09 0.0008434861083514988
v 8.894662140790196e-20 7.480512209667722e-09 0.0008434861083514988
v 8.894662140790196e-20 7.480512209667722e-09 0.0008434861083514988
v 8.894662140790196e-20 7.480512209667722e-09 0.0008434861083514988
v 8.894662140790196e-20 7.480512209667722e-09 0.0008434861083514988
v 8.894662140790196e-20 7.480512209667722e-09 0.0008434861083514988
v 8.894662140790196e-20 7.480512209667722e-09 0.0008434861083514988
v 8.894662140790196e-20 7.480512209667722e-09 0.0008434861083514988
v -0.0013316465774551034 0.0003568112733773887 0.006022871471941471
v -0.0010310503421351314 7.482154451565748e-09 0.001016085036098957
v -0.0009959160815924406 0.000266857270617038 0.0010160851525142789
v -0.0013786227209493518 6.974005373194814e-09 0.006022871471941471
v -0.0011939238756895065 0.0006893044337630272 0.006022871471941471
v -0.0008929159957915545 0.0005155301187187433 0.0010160851525142789
v -0.0009748354204930365 0.0009748286684043705 0.006022871471941471
v -0.0007290624198503792 0.0007290657376870513 0.0010160851525142789
v -0.0006893113604746759 0.0011939206160604954 0.006022871471941471
v -0.0005155233666300774 0.0008929159375838935 0.0010160851525142789
v -0.00035681473673321307 0.0013316465774551034 0.006022871471941471
v -0.0002668538654688746 0.0009959159651771188 0.0010160851525142789
v -3.6461805796861313e-13 0.0013786295894533396 0.006022871471941471
v -4.798451985953268e-19 0.0010310543002560735 0.0010160851525142789
v 0.0003568147076293826 0.0013316464610397816 0.006022871471941471
v -4.798451985953268e-19 0.0010310543002560735 0.0010160851525142789
v 0.0002668538654688746 0.0009959160815924406 0.0010160851525142789
v -3.6461805796861313e-13 0.0013786295894533396 0.006022871471941471
v 0.0006893113604746759 0.0011939204996451735 0.006022871471941471
v 0.000515526975505054 0.0008929159375838935 0.0010160851525142789
v 0.0009748353622853756 0.0009748284355737269 0.006022871471941471
v 0.0007290624198503792 0.0007290656794793904 0.0010160851525142789
v 0.0011939239921048284 0.0006893043755553663 0.006022871471941471
v 0.0008929159957915545 0.0005155301187187433 0.0010160851525142789
v 0.0013316465774551034 0.00035681124427355826 0.006022871471941471
v 0.000995919806882739 0.00026685724151320755 0.0010160851525142789
v 0.0013786227209493518 6.974004040927184e-09 0.006022871471941471
v 0.0010310503421351314 7.482154451565748e-09 0.0010160851525142789
v 0.0013316465774551034 -0.00035681124427355826 0.0060228705406188965
v 0.0009959160815924406 -0.00026685738703235984 0.001016085036098957
v 0.0011939238756895065 -0.0006893182871863246 0.006022871006280184
v 0.0008929159957915545 -0.000515530991833657 0.001016085036098957
v 0.0009748354204930365 -0.0009748284355737269 0.006022871006280184
v 0.0007290624198503792 -0.0007290657376870513 0.001016085036098957
v 0.0006893113604746759 -0.0011939204996451735 0.0060228705406188965
v 0.0005155233666300774 -0.0008929159375838935 0.001016085036098957
v 0.00035681473673321307 -0.0013316466938704252 0.0060228705406188965
v 0.0002668538654688746 -0.0009959160815924406 0.001016085036098957
v -3.6462572869898346e-13 -0.0013786295894533396 0.0060228705406188965
v -8.152348320380548e-19 -0.0010310540674254298 0.001016085036098957
v -0.0003568147076293826 -0.0013316465774551034 0.0060228705406188965
v -0.0002668538654688746 -0.0009959161980077624 0.001016085036098957
v -0.0006893113604746759 -0.0011939204996451735 0.0060228705406188965
v -0.000515526975505054 -0.0008929159375838935 0.001016085036098957
v -0.0009748353622853756 -0.0009748282027430832 0.006022871006280184
v -0.0007290624198503792 -0.0007290657376870513 0.001016085036098957
v -0.0011939239921048284 -0.0006893182289786637 0.006022871006280184
v -0.0008929159957915545 -0.000515530991833657 0.001016085036098957
v -0.0013316465774551034 -0.0003568112151697278 0.0060228705406188965
v -0.000995919806882739 -0.0002668573579285294 0.001016085036098957
g submesh_0
f 206 204 205
f 218 216 217
f 247 244 246
f 249 248 66
f 251 247 250
f 248 250 67
f 250 252 68
f 147 146 148
f 148 288 149
f 149 289 150
f 150 290 151
f 151 291 152
f 152 292 153
f 294 293 154
f 154 295 155
f 155 296 156
f 156 297 157
f 157 298 158
f 158 299 159
f 159 300 160
f 160 301 161
f 161 302 162
f 162 303 163
f 163 304 164
f 164 305 165
f 165 306 166
f 166 307 167
f 167 308 168
f 168 309 169
f 169 310 170
f 170 311 147
f 1 2 3
f 3 2 27
f 3 27 28
f 171 3 4
f 4 3 28
f 4 28 29
f 172 4 5
f 5 4 29
f 5 29 30
f 173 5 6
f 6 5 30
f 6 30 31
f 174 6 7
f 7 6 31
f 7 31 32
f 32 8 7
f 7 8 175
f 176 177 9
f 9 177 33
f 9 33 34
f 178 9 10
f 10 9 34
f 10 34 35
f 179 10 11
f 11 10 35
f 11 35 36
f 180 11 12
f 12 11 36
f 12 36 37
f 181 12 13
f 13 12 37
f 13 37 38
f 182 13 14
f 14 13 38
f 14 38 39
f 183 14 15
f 15 14 39
f 15 39 40
f 184 15 16
f 16 15 40
f 16 40 41
f 185 16 17
f 17 16 41
f 17 41 196
f 42 18 17
f 17 18 186
f 187 18 19
f 19 18 43
f 19 43 44
f 188 19 20
f 20 19 44
f 20 44 45
f 189 20 21
f 21 20 45
f 21 45 46
f 190 21 22
f 22 21 46
f 22 46 47
f 191 22 23
f 23 22 47
f 23 47 48
f 192 23 24
f 24 23 48
f 24 48 49
f 193 24 25
f 25 24 49
f 25 49 26
f 194 25 2
f 2 25 26
f 2 26 27
f 195 33 177
f 196 43 18
f 198 197 129
f 129 197 57
f 129 57 130
f 130 57 58
f 130 58 131
f 131 58 59
f 131 59 132
f 132 59 60
f 132 60 133
f 133 60 61
f 133 61 134
f 134 61 62
f 134 62 135
f 135 62 63
f 135 63 136
f 136 63 64
f 136 64 137
f 137 64 65
f 137 65 138
f 138 65 66
f 138 66 139
f 139 66 67
f 139 67 140
f 140 67 68
f 140 68 141
f 141 68 69
f 141 69 142
f 142 69 70
f 142 70 143
f 143 70 71
f 143 71 144
f 144 71 72
f 144 72 145
f 145 72 73
f 145 73 122
f 122 73 98
f 122 98 123
f 123 98 51
f 123 51 124
f 124 51 52
f 124 52 125
f 125 52 53
f 125 53 126
f 126 53 54
f 126 54 127
f 127 54 55
f 127 55 128
f 128 55 56
f 199 200 81
f 199 81 105
f 105 81 82
f 105 82 106
f 106 82 83
f 106 83 107
f 107 83 84
f 107 84 108
f 108 84 85
f 108 85 109
f 109 85 86
f 109 86 110
f 110 86 87
f 110 87 111
f 111 87 88
f 111 88 112
f 112 88 89
f 112 89 113
f 113 89 90
f 113 90 114
f 114 90 91
f 114 91 115
f 115 91 92
f 115 92 116
f 116 92 93
f 116 93 117
f 117 93 94
f 117 94 118
f 118 94 95
f 118 95 119
f 119 95 96
f 119 96 120
f 120 96 97
f 120 97 121
f 121 97 74
f 121 74 50
f 50 74 75
f 50 75 99
f 99 75 76
f 99 76 100
f 100 76 77
f 100 77 101
f 101 77 78
f 101 78 102
f 102 78 79
f 102 79 103
f 103 79 80
f 103 80 104
f 219 56 215
f 215 56 214
f 215 214 213
f 213 214 212
f 213 212 211
f 211 212 210
f 211 210 209
f 209 210 208
f 209 208 207
f 207 208 203
f 207 203 202
f 202 203 201
f 221 57 220
f 220 57 219
f 223 221 222
f 222 221 224
f 226 223 225
f 225 223 227
f 229 226 228
f 228 226 230
f 232 229 231
f 231 229 233
f 235 232 234
f 234 232 236
f 238 235 237
f 237 235 239
f 241 238 240
f 240 238 242
f 244 241 243
f 243 241 245
f 251 252 253
f 253 252 254
f 253 254 255
f 255 254 256
f 255 256 257
f 257 256 258
f 257 258 259
f 259 258 260
f 259 260 261
f 261 260 50
f 261 50 201
f 280 138 139
f 280 139 281
f 281 139 140
f 281 140 282
f 282 140 141
f 282 141 283
f 283 141 142
f 283 142 284
f 284 142 143
f 284 143 285
f 285 143 144
f 285 144 286
f 286 144 145
f 286 145 287
f 287 145 122
f 287 122 262
f 262 122 123
f 262 123 263
f 263 123 124
f 263 124 264
f 264 124 125
f 264 125 265
f 265 125 126
f 265 126 266
f 266 126 127
f 266 127 267
f 267 127 128
f 267 128 268
f 269 198 129
f 269 129 270
f 270 129 130
f 270 130 271
f 271 130 131
f 271 131 272
f 272 131 132
f 272 132 273
f 273 132 133
f 273 133 274
f 274 133 134
f 274 134 275
f 275 134 135
f 275 135 276
f 276 135 136
f 276 136 277
f 277 136 137
f 277 137 278
f 278 137 138
f 278 138 279
f 329 327 326
f 326 327 328
f 326 328 330
f 330 328 331
f 330 331 332
f 332 331 333
f 332 333 334
f 334 333 335
f 334 335 336
f 336 335 337
f 336 337 338
f 338 337 339
f 338 339 340
f 340 339 341
f 340 341 342
f 342 341 343
f 342 343 344
f 344 343 345
f 344 345 346
f 346 345 347
f 346 347 348
f 348 347 349
f 348 349 350
f 350 349 351
f 350 351 352
f 352 351 353
f 352 353 354
f 354 353 355
f 354 355 356
f 356 355 357
f 356 357 358
f 358 357 359
f 358 359 360
f 360 359 361
f 360 361 315
f 315 361 313
f 315 313 312
f 312 313 314
f 312 314 316
f 316 314 317
f 316 317 318
f 318 317 319
f 318 319 320
f 320 319 321
f 320 321 322
f 322 321 323
f 322 323 324
f 324 323 325
