# 01
v -0.14260154962539673 -0.1459999978542328 -0.07499999552965164
v -0.09644530713558197 -0.1459999978542328 -0.07499999552965164
v -0.09644530713558197 0.30399999022483826 -0.07499999552965164
v 0.07338286936283112 0.30399999022483826 -0.07499999552965164
v 0.1426016241312027 0.23542188107967377 -0.07499999552965164
v 0.1426016241312027 0.1353437602519989 -0.07499999552965164
v 0.08907035738229752 0.1353437602519989 -0.07499999552965164
v 0.08907035738229752 -0.1459999978542328 -0.07499999552965164
v 0.13522659242153168 -0.1459999978542328 -0.07499999552965164
v 0.13522659242153168 -0.30399999022483826 -0.07499999552965164
v -0.14260154962539673 -0.30399999022483826 -0.07499999552965164
v -0.14260154962539673 -0.1459999978542328 0.07499999552965164
v -0.09644530713558197 -0.1459999978542328 0.07499999552965164
v -0.09644530713558197 0.30399999022483826 0.07499999552965164
v 0.07338286936283112 0.30399999022483826 0.07499999552965164
v 0.1426016241312027 0.23542188107967377 0.07499999552965164
v 0.1426016241312027 0.1353437602519989 0.07499999552965164
v 0.08907035738229752 0.1353437602519989 0.07499999552965164
v 0.08907035738229752 -0.1459999978542328 0.07499999552965164
v 0.13522659242153168 -0.1459999978542328 0.07499999552965164
v 0.13522659242153168 -0.30399999022483826 0.07499999552965164
v -0.14260154962539673 -0.30399999022483826 0.07499999552965164
v -0.12423515319824219 -0.16436639428138733 -0.10071296244859695
v -0.07807891815900803 -0.16436639428138733 -0.10071296244859695
v -0.07807891815900803 0.2856335937976837 -0.10071296244859695
v 0.0658251941204071 0.2856335937976837 -0.10071296244859695
v 0.12423522770404816 0.22776417434215546 -0.10071296244859695
v 0.12423522770404816 0.15371015667915344 -0.10071296244859695
v 0.07070396095514297 0.15371015667915344 -0.10071296244859695
v 0.07070396095514297 -0.16436639428138733 -0.10071296244859695
v 0.11686019599437714 -0.16436639428138733 -0.10071296244859695
v 0.11686019599437714 -0.28563356399536133 -0.10071296244859695
v -0.12423515319824219 -0.28563356399536133 -0.10071296244859695
v -0.12423515319824219 -0.16436639428138733 0.10071296244859695
v -0.07807891815900803 -0.16436639428138733 0.10071296244859695
v -0.07807891815900803 0.2856335937976837 0.10071296244859695
v 0.0658251941204071 0.2856335937976837 0.10071296244859695
v 0.12423522770404816 0.22776417434215546 0.10071296244859695
v 0.12423522770404816 0.15371015667915344 0.10071296244859695
v 0.07070396095514297 0.15371015667915344 0.10071296244859695
v 0.07070396095514297 -0.16436639428138733 0.10071296244859695
v 0.11686019599437714 -0.16436639428138733 0.10071296244859695
v 0.11686019599437714 -0.28563356399536133 0.10071296244859695
v -0.12423515319824219 -0.28563356399536133 0.10071296244859695
v -0.09644530713558197 -0.1459999978542328 -0.07499999552965164
v -0.09644530713558197 -0.1459999978542328 0.07499999552965164
v -0.09644530713558197 0.30399999022483826 -0.07499999552965164
v -0.09644530713558197 0.30399999022483826 0.07499999552965164
v 0.07338286936283112 0.30399999022483826 -0.07499999552965164
v 0.07338286936283112 0.30399999022483826 0.07499999552965164
v 0.1426016241312027 0.1353437602519989 -0.07499999552965164
v 0.1426016241312027 0.1353437602519989 0.07499999552965164
v 0.08907035738229752 0.1353437602519989 -0.07499999552965164
v 0.08907035738229752 0.1353437602519989 0.07499999552965164
v 0.08907035738229752 -0.1459999978542328 -0.07499999552965164
v 0.08907035738229752 -0.1459999978542328 0.07499999552965164
v 0.13522659242153168 -0.1459999978542328 -0.07499999552965164
v 0.13522659242153168 -0.1459999978542328 0.07499999552965164
v 0.13522659242153168 -0.30399999022483826 -0.07499999552965164
v 0.13522659242153168 -0.30399999022483826 0.07499999552965164
v -0.14260154962539673 -0.30399999022483826 -0.07499999552965164
v -0.14260154962539673 -0.30399999022483826 0.07499999552965164
v -0.14260154962539673 -0.1459999978542328 -0.07499999552965164
v -0.14260154962539673 -0.1459999978542328 0.07499999552965164
v -0.09644530713558197 -0.1459999978542328 -0.07499999552965164
v -0.12423515319824219 -0.16436639428138733 -0.10071296244859695
v -0.14260154962539673 -0.1459999978542328 -0.07499999552965164
v -0.07807891815900803 -0.16436639428138733 -0.10071296244859695
v -0.09644530713558197 0.30399999022483826 -0.07499999552965164
v -0.07807891815900803 -0.16436639428138733 -0.10071296244859695
v -0.09644530713558197 -0.1459999978542328 -0.07499999552965164
v -0.07807891815900803 0.2856335937976837 -0.10071296244859695
v 0.07338286936283112 0.30399999022483826 -0.07499999552965164
v -0.07807891815900803 0.2856335937976837 -0.10071296244859695
v -0.09644530713558197 0.30399999022483826 -0.07499999552965164
v 0.07338286936283112 0.30399999022483826 -0.07499999552965164
v 0.12423522770404816 0.15371015667915344 -0.10071296244859695
v 0.08907035738229752 0.1353437602519989 -0.07499999552965164
v 0.12423522770404816 0.15371015667915344 -0.10071296244859695
v 0.1426016241312027 0.1353437602519989 -0.07499999552965164
v 0.07070396095514297 0.15371015667915344 -0.10071296244859695
v 0.07070396095514297 0.15371015667915344 -0.10071296244859695
v 0.07070396095514297 -0.16436639428138733 -0.10071296244859695
v 0.13522659242153168 -0.1459999978542328 -0.07499999552965164
v 0.07070396095514297 -0.16436639428138733 -0.10071296244859695
v 0.08907035738229752 -0.1459999978542328 -0.07499999552965164
v 0.11686019599437714 -0.16436639428138733 -0.10071296244859695
v 0.11686019599437714 -0.16436639428138733 -0.10071296244859695
v 0.11686019599437714 -0.28563356399536133 -0.10071296244859695
v -0.14260154962539673 -0.30399999022483826 -0.07499999552965164
v 0.11686019599437714 -0.28563356399536133 -0.10071296244859695
v 0.13522659242153168 -0.30399999022483826 -0.07499999552965164
v -0.12423515319824219 -0.28563356399536133 -0.10071296244859695
v -0.14260154962539673 -0.1459999978542328 -0.07499999552965164
v -0.12423515319824219 -0.28563356399536133 -0.10071296244859695
v -0.14260154962539673 -0.30399999022483826 -0.07499999552965164
v -0.12423515319824219 -0.16436639428138733 -0.10071296244859695
v -0.14260154962539673 -0.1459999978542328 0.07499999552965164
v -0.07807891815900803 -0.16436639428138733 0.10071296244859695
v -0.09644530713558197 -0.1459999978542328 0.07499999552965164
v -0.12423515319824219 -0.16436639428138733 0.10071296244859695
v -0.07807891815900803 0.2856335937976837 0.10071296244859695
v -0.07807891815900803 -0.16436639428138733 0.10071296244859695
v -0.09644530713558197 0.30399999022483826 0.07499999552965164
v 0.07338286936283112 0.30399999022483826 0.07499999552965164
v -0.07807891815900803 0.2856335937976837 0.10071296244859695
v 0.1426016241312027 0.23542188107967377 0.07499999552965164
v 0.1426016241312027 0.23542188107967377 0.07499999552965164
v 0.12423522770404816 0.15371015667915344 0.10071296244859695
v 0.1426016241312027 0.1353437602519989 0.07499999552965164
v 0.1426016241312027 0.1353437602519989 0.07499999552965164
v 0.07070396095514297 0.15371015667915344 0.10071296244859695
v 0.08907035738229752 0.1353437602519989 0.07499999552965164
v 0.12423522770404816 0.15371015667915344 0.10071296244859695
v 0.08907035738229752 0.1353437602519989 0.07499999552965164
v 0.07070396095514297 -0.16436639428138733 0.10071296244859695
v 0.08907035738229752 -0.1459999978542328 0.07499999552965164
v 0.07070396095514297 0.15371015667915344 0.10071296244859695
v 0.08907035738229752 -0.1459999978542328 0.07499999552965164
v 0.11686019599437714 -0.16436639428138733 0.10071296244859695
v 0.13522659242153168 -0.1459999978542328 0.07499999552965164
v 0.07070396095514297 -0.16436639428138733 0.10071296244859695
v 0.13522659242153168 -0.1459999978542328 0.07499999552965164
v 0.11686019599437714 -0.28563356399536133 0.10071296244859695
v 0.13522659242153168 -0.30399999022483826 0.07499999552965164
v 0.11686019599437714 -0.16436639428138733 0.10071296244859695
v 0.13522659242153168 -0.30399999022483826 0.07499999552965164
v -0.12423515319824219 -0.28563356399536133 0.10071296244859695
v -0.14260154962539673 -0.30399999022483826 0.07499999552965164
v 0.11686019599437714 -0.28563356399536133 0.10071296244859695
v -0.12423515319824219 -0.16436639428138733 0.10071296244859695
v -0.12423515319824219 -0.28563356399536133 0.10071296244859695
g submesh_0
f 13 2 12
f 12 2 1
f 102 14 46
f 46 14 3
f 46 3 45
f 15 4 48
f 48 4 47
f 17 6 16
f 16 6 5
f 16 5 50
f 50 5 49
f 18 7 52
f 52 7 51
f 82 53 8
f 8 53 54
f 8 54 19
f 20 9 56
f 56 9 55
f 88 57 10
f 10 57 58
f 10 58 21
f 22 11 60
f 60 11 59
f 131 64 62
f 62 64 63
f 62 63 61
f 41 40 35
f 41 35 43
f 43 35 34
f 43 34 44
f 42 41 43
f 105 104 37
f 105 37 38
f 38 37 40
f 38 40 39
f 29 30 24
f 24 30 32
f 24 32 23
f 23 32 33
f 32 30 31
f 76 5 26
f 26 5 27
f 26 27 29
f 29 27 28
f 67 65 66
f 66 65 68
f 71 69 70
f 70 69 72
f 75 73 74
f 74 73 26
f 77 27 6
f 6 27 5
f 80 78 79
f 79 78 81
f 83 82 8
f 86 84 85
f 85 84 87
f 89 88 10
f 92 90 91
f 91 90 93
f 96 94 95
f 95 94 97
f 100 98 99
f 99 98 101
f 103 102 46
f 106 37 104
f 107 105 38
f 110 108 109
f 109 108 38
f 113 111 112
f 112 111 114
f 117 115 116
f 116 115 118
f 121 119 120
f 120 119 122
f 125 123 124
f 124 123 126
f 129 127 128
f 128 127 130
f 132 131 62
f 35 40 36
f 36 40 37
f 24 25 29
f 29 25 26
