# helo_connector
v 5.215650890022516e-05 6.829619087511674e-05 1.9112378140562214e-05
v 8.869842638148384e-10 6.829619087511674e-05 4.5712738938163966e-05
v -5.21547335665673e-05 6.829619087511674e-05 1.9112378140562214e-05
v 5.215772398514673e-05 0.007975281216204166 1.9112085283268243e-05
v 2.107715779686714e-09 0.007975281216204166 4.571244426188059e-05
v -5.2153514843666926e-05 0.007975281216204166 1.9112085283268243e-05
v -5.21547335665673e-05 6.829619087511674e-05 1.9112378140562214e-05
v -5.2153514843666926e-05 0.007975281216204166 1.9112085283268243e-05
v 5.215772398514673e-05 0.007975281216204166 1.9112085283268243e-05
v 5.215650890022516e-05 6.829619087511674e-05 1.9112378140562214e-05
g submesh_0
f 6 3 2
f 6 2 5
f 5 2 1
f 5 1 4
f 8 9 7
f 7 9 10
