# COL
v 0.0009492963436059654 -0.00046109961112961173 0.0019201162504032254
v -0.0009492963436059654 -0.00046109961112961173 0.0019201162504032254
v 0.0009492963436059654 -0.0004610995820257813 9.191855497192591e-05
v -0.0009492963436059654 -0.0004610995820257813 9.191855497192591e-05
v 0.0010129358852282166 -0.00043473925325088203 0.0019201162504032254
v 0.0010129358852282166 -0.0004347391950432211 9.191855497192591e-05
v 0.0009942963952198625 -0.0004347391950432211 4.69185397378169e-05
v 0.0009492963436059654 -0.0004347391950432211 2.8278975150897168e-05
v -0.0009492963436059654 -0.0004347391950432211 2.8278975150897168e-05
v -0.0009942963952198625 -0.0004347391950432211 4.69185397378169e-05
v -0.0010129358852282166 -0.0004347391950432211 9.191855497192591e-05
v -0.0010129358852282166 -0.00043473925325088203 0.0019201162504032254
v 0.0010392963886260986 -0.00037109959521330893 0.0019201162504032254
v 0.0010392963886260986 -0.0003710995661094785 9.191855497192591e-05
v 0.0010129358852282166 -0.0003710995661094785 2.8278975150897168e-05
v 0.0009492963436059654 -0.0003710995661094785 1.9185245037078857e-06
v -0.0009492963436059654 -0.0003710995661094785 1.9185245037078857e-06
v -0.0010129358852282166 -0.0003710995661094785 2.8278975150897168e-05
v -0.0010392963886260986 -0.0003710995661094785 9.191855497192591e-05
v -0.0010392963886260986 -0.00037109959521330893 0.0019201162504032254
v 0.0010392963886260986 0.0003710995661094785 0.0019201162504032254
v 0.0010392963886260986 0.00037109959521330893 9.191855497192591e-05
v 0.0010129358852282166 0.00037109959521330893 2.8278975150897168e-05
v 0.0009492963436059654 0.00037109959521330893 1.9185245037078857e-06
v -0.0009492963436059654 0.00037109959521330893 1.9185245037078857e-06
v -0.0010129358852282166 0.00037109959521330893 2.8278975150897168e-05
v -0.0010392963886260986 0.00037109959521330893 9.191855497192591e-05
v -0.0010392963886260986 0.0003710995661094785 0.0019201162504032254
v 0.0010129358852282166 0.00043473916593939066 0.0019201162504032254
v 0.0010129358852282166 0.0004347391950432211 9.191855497192591e-05
v 0.0009942963952198625 0.0004347391950432211 4.69185397378169e-05
v 0.0009492963436059654 0.0004347391950432211 2.8278975150897168e-05
v -0.0009492963436059654 0.0004347391950432211 2.8278975150897168e-05
v -0.0009942963952198625 0.0004347391950432211 4.69185397378169e-05
v -0.0010129358852282166 0.0004347391950432211 9.191855497192591e-05
v -0.0010129358852282166 0.00043473916593939066 0.0019201162504032254
v -0.0009492963436059654 0.0004610995820257813 9.191855497192591e-05
v 0.0009492963436059654 0.0004610995820257813 9.191855497192591e-05
v -0.0009492963436059654 0.0004610995529219508 0.0019201162504032254
v 0.0009492963436059654 0.0004610995529219508 0.0019201162504032254
v 0.0009492963436059654 -0.00046109966933727264 0.002796508837491274
v -0.0009492963436059654 -0.00046109966933727264 0.002796508837491274
v 0.0009492963436059654 -0.0004347392823547125 0.002860148437321186
v 0.0009942963952198625 -0.0004347392823547125 0.002841508947312832
v 0.0010129358852282166 -0.0004347392823547125 0.002796508837491274
v -0.0010129358852282166 -0.0004347392823547125 0.002796508837491274
v -0.0009942963952198625 -0.0004347392823547125 0.002841508947312832
v -0.0009492963436059654 -0.0004347392823547125 0.002860148437321186
v 0.0009492963436059654 -0.0003710996243171394 0.0028865092899650335
v 0.0010129358852282166 -0.0003710996243171394 0.002860148437321186
v 0.0010392963886260986 -0.0003710996243171394 0.002796509303152561
v -0.0010392963886260986 -0.0003710996243171394 0.002796509303152561
v -0.0010129358852282166 -0.0003710996243171394 0.002860148437321186
v -0.0009492963436059654 -0.0003710996243171394 0.0028865092899650335
v 0.0009492963436059654 0.00037109950790181756 0.0028865092899650335
v 0.0010129358852282166 0.00037109950790181756 0.002860148437321186
v 0.0010392963886260986 0.00037109950790181756 0.002796509303152561
v -0.0010392963886260986 0.00037109950790181756 0.002796509303152561
v -0.0010129358852282166 0.00037109950790181756 0.002860148437321186
v -0.0009492963436059654 0.00037109950790181756 0.0028865092899650335
v 0.0009492963436059654 0.0004347391368355602 0.002860148437321186
v 0.0009942963952198625 0.0004347391368355602 0.002841508947312832
v 0.0010129358852282166 0.0004347391368355602 0.002796509303152561
v -0.0010129358852282166 0.0004347391368355602 0.002796509303152561
v -0.0009942963952198625 0.0004347391368355602 0.002841508947312832
v -0.0009492963436059654 0.0004347391368355602 0.002860148437321186
v -0.0009492963436059654 0.00046109952381812036 0.002796509303152561
v 0.0009492963436059654 0.00046109952381812036 0.002796509303152561
v 0.0010129358852282166 -0.00043473925325088203 0.0019201162504032254
v 0.0010129358852282166 -0.0004347391950432211 9.191855497192591e-05
v 0.0009942963952198625 -0.0004347391950432211 4.69185397378169e-05
v 0.0009942963952198625 -0.0004347391950432211 4.69185397378169e-05
v 0.0010129358852282166 -0.0003710995661094785 2.8278975150897168e-05
v 0.0009492963436059654 -0.0004347391950432211 2.8278975150897168e-05
v -0.0009492963436059654 -0.0004347391950432211 2.8278975150897168e-05
v -0.0009942963952198625 -0.0004347391950432211 4.69185397378169e-05
v -0.0009942963952198625 -0.0004347391950432211 4.69185397378169e-05
v -0.0010129358852282166 -0.0003710995661094785 2.8278975150897168e-05
v -0.0010129358852282166 -0.0004347391950432211 9.191855497192591e-05
v -0.0010129358852282166 -0.00043473925325088203 0.0019201162504032254
v 0.0010129358852282166 -0.0003710995661094785 2.8278975150897168e-05
v 0.0010129358852282166 0.00037109959521330893 2.8278975150897168e-05
v -0.0010129358852282166 0.00037109959521330893 2.8278975150897168e-05
v 0.0009942963952198625 0.0004347391950432211 4.69185397378169e-05
v -0.0010129358852282166 0.00037109959521330893 2.8278975150897168e-05
v -0.0009942963952198625 0.0004347391950432211 4.69185397378169e-05
v 0.0010129358852282166 0.00043473916593939066 0.0019201162504032254
v 0.0010129358852282166 0.0004347391950432211 9.191855497192591e-05
v 0.0009942963952198625 0.0004347391950432211 4.69185397378169e-05
v 0.0009492963436059654 0.0004347391950432211 2.8278975150897168e-05
v -0.0009492963436059654 0.0004347391950432211 2.8278975150897168e-05
v -0.0009942963952198625 0.0004347391950432211 4.69185397378169e-05
v -0.0010129358852282166 0.0004347391950432211 9.191855497192591e-05
v -0.0010129358852282166 0.00043473916593939066 0.0019201162504032254
v -0.0009492963436059654 -0.00046109961112961173 0.0019201162504032254
v 0.0009492963436059654 -0.00046109961112961173 0.0019201162504032254
v 0.0009492963436059654 -0.00046109966933727264 0.002796508837491274
v 0.0010129358852282166 -0.00043473925325088203 0.0019201162504032254
v 0.0010129358852282166 -0.0004347392823547125 0.002796508837491274
v -0.0010129358852282166 -0.00043473925325088203 0.0019201162504032254
v -0.0009492963436059654 -0.00046109966933727264 0.002796508837491274
v -0.0010129358852282166 -0.0004347392823547125 0.002796508837491274
v -0.0009492963436059654 -0.00046109966933727264 0.002796508837491274
v 0.0010392963886260986 -0.00037109959521330893 0.0019201162504032254
v 0.0010392963886260986 -0.0003710996243171394 0.002796509303152561
v -0.0010392963886260986 -0.00037109959521330893 0.0019201162504032254
v -0.0010392963886260986 -0.0003710996243171394 0.002796509303152561
v 0.0010392963886260986 -0.0003710996243171394 0.002796509303152561
v 0.0010392963886260986 0.0003710995661094785 0.0019201162504032254
v 0.0010392963886260986 0.00037109950790181756 0.002796509303152561
v 0.0010392963886260986 -0.00037109959521330893 0.0019201162504032254
v -0.0010392963886260986 -0.00037109959521330893 0.0019201162504032254
v -0.0010392963886260986 0.0003710995661094785 0.0019201162504032254
v -0.0010392963886260986 -0.0003710996243171394 0.002796509303152561
v -0.0010392963886260986 0.00037109950790181756 0.002796509303152561
v 0.0010129358852282166 0.00043473916593939066 0.0019201162504032254
v 0.0010129358852282166 0.0004347391368355602 0.002796509303152561
v -0.0010392963886260986 0.0003710995661094785 0.0019201162504032254
v -0.0010129358852282166 0.00043473916593939066 0.0019201162504032254
v -0.0010392963886260986 0.00037109950790181756 0.002796509303152561
v -0.0010129358852282166 0.0004347391368355602 0.002796509303152561
v 0.0009492963436059654 0.0004610995529219508 0.0019201162504032254
v 0.0009492963436059654 0.00046109952381812036 0.002796509303152561
v -0.0010129358852282166 0.00043473916593939066 0.0019201162504032254
v -0.0009492963436059654 0.0004610995529219508 0.0019201162504032254
v -0.0010129358852282166 0.0004347391368355602 0.002796509303152561
v -0.0009492963436059654 0.00046109952381812036 0.002796509303152561
v -0.0009492963436059654 0.00046109952381812036 0.002796509303152561
g submesh_0
f 10 9 4
f 4 9 3
f 4 3 1
f 1 3 6
f 1 6 5
f 13 69 14
f 14 69 70
f 14 70 15
f 15 70 71
f 34 33 25
f 34 25 26
f 26 25 17
f 26 17 18
f 18 17 75
f 18 75 76
f 36 35 27
f 36 27 28
f 28 27 19
f 28 19 20
f 20 19 79
f 20 79 80
f 31 30 22
f 31 22 23
f 23 22 14
f 23 14 81
f 77 79 19
f 77 19 78
f 78 19 27
f 78 27 83
f 13 14 22
f 13 22 21
f 21 22 30
f 21 30 29
f 72 74 16
f 72 16 73
f 73 16 24
f 73 24 82
f 82 24 32
f 82 32 84
f 86 85 35
f 35 85 27
f 89 90 38
f 38 90 37
f 38 37 39
f 39 37 93
f 39 93 94
f 95 96 41
f 41 96 98
f 41 98 99
f 99 98 104
f 99 104 105
f 41 42 95
f 95 42 46
f 95 46 100
f 100 46 52
f 100 52 106
f 67 123 122
f 122 123 117
f 122 117 116
f 116 117 110
f 116 110 109
f 109 110 108
f 109 108 111
f 113 112 58
f 58 112 114
f 119 118 64
f 64 118 120
f 122 125 67
f 67 125 124
f 67 124 126
f 128 66 68
f 68 66 61
f 68 61 62
f 62 61 55
f 62 55 56
f 56 55 49
f 56 49 50
f 50 49 43
f 50 43 44
f 44 43 97
f 44 97 45
f 1 2 4
f 4 2 12
f 4 12 11
f 9 8 3
f 3 8 7
f 3 7 6
f 10 4 11
f 33 32 24
f 33 24 25
f 25 24 16
f 25 16 17
f 17 16 74
f 17 74 75
f 39 40 38
f 38 40 87
f 38 87 88
f 38 88 89
f 90 91 37
f 37 91 92
f 37 92 93
f 127 121 65
f 65 121 115
f 65 115 59
f 59 115 107
f 59 107 53
f 53 107 102
f 53 102 47
f 47 102 101
f 47 101 48
f 103 97 43
f 103 43 48
f 48 43 49
f 48 49 54
f 54 49 55
f 54 55 60
f 60 55 61
f 60 61 66
f 68 62 63
f 63 62 56
f 63 56 57
f 57 56 50
f 57 50 51
f 51 50 44
f 51 44 45
f 127 65 66
f 66 65 59
f 66 59 60
f 60 59 53
f 60 53 54
f 54 53 47
f 54 47 48
