# Bird_Anim
v -5.577877049134372e-11 0.0017884112894535065 0.0002733080182224512
v 0.00010501321958145127 0.0017884112894535065 0.0002524195588193834
v 0.00019403915212024003 0.0017884112894535065 0.00019293432706035674
v 0.00025352436932735145 0.0017884112894535065 0.00010390837269369513
v 0.0002744127996265888 0.0017884112894535065 -1.1048967962778988e-06
v 0.000253524340223521 0.0017884112894535065 -0.000106118168332614
v 0.00019403912301640958 0.0017884112894535065 -0.00019514410814736038
v 0.00010501316864974797 0.0017884112894535065 -0.0002546293253544718
v -1.0375865444611776e-10 0.0017884112894535065 -0.0002755177556537092
v -0.00010501337237656116 0.0017884112894535065 -0.00025462929625064135
v -0.00019403929763939232 0.0017884112894535065 -0.00019514403538778424
v -0.0002535245439503342 0.0017884112894535065 -0.00010611808829708025
v -0.00027441297424957156 0.0017884112894535065 -1.104824832509621e-06
v -0.00025352451484650373 0.0017884112894535065 0.00010390843817731366
v -0.00019403922487981617 0.0017884112894535065 0.00019293438526801765
v -0.00010501327051315457 0.0017884112894535065 0.00025241958792321384
v -5.530149602139822e-11 0.002535030711442232 0.0007696849061176181
v 0.000294968398520723 0.002535030711442232 0.0007110119913704693
v 0.0005450305761769414 0.002535030711442232 0.0005439257365651429
v 0.0007121166563592851 0.002535030711442232 0.000293863529805094
v 0.000770789512898773 0.002535030711442232 -1.1049352224290487e-06
v 0.0007121166563592851 0.002535030711442232 -0.00029607341275550425
v 0.0005450305179692805 0.002535030711442232 -0.0005461355904117227
v 0.00029496822389774024 0.002535030711442232 -0.0007132217288017273
v -1.9007065366061227e-10 0.002535030711442232 -0.0007718945853412151
v -0.00029496868955902755 0.002535030711442232 -0.0007132217288017273
v -0.000545030867215246 0.002535030711442232 -0.0005461354739964008
v -0.0007121170638129115 0.002535030711442232 -0.00029607326723635197
v -0.0007707899785600603 0.002535030711442232 -1.1047330872315797e-06
v -0.0007121170638129115 0.002535030711442232 0.0002938637335319072
v -0.0005450306925922632 0.002535030711442232 0.0005439258529804647
v -0.0002949684567283839 0.002535030711442232 0.0007110121077857912
v -3.915908569629423e-11 0.002982217585667968 0.0009966000216081738
v 0.00038180500268936157 0.002982217585667968 0.0009206542163155973
v 0.0007054838351905346 0.002982217585667968 0.0007043789955787361
v 0.0009217591141350567 0.002982217585667968 0.00038070022128522396
v 0.0009977048030123115 0.002982217585667968 -1.1049438626287156e-06
v 0.0009217591141350567 0.002982217585667968 -0.00038291001692414284
v 0.0007054836605675519 0.0029822178184986115 -0.000706588733009994
v 0.00038180488627403975 0.0029822178184986115 -0.0009228640119545162
v -2.136033294686257e-10 0.002982217585667968 -0.000998809700831771
v -0.0003818053810391575 0.002982217585667968 -0.0009228638373315334
v -0.0007054840098135173 0.002982217585667968 -0.0007065886165946722
v -0.0009217589977197349 0.002982217585667968 -0.0003829097549896687
v -0.0009977048030123115 0.002982217585667968 -1.1046821555282804e-06
v -0.0009217589977197349 0.002982217585667968 0.00038070048321969807
v -0.0007054836605675519 0.002982217585667968 0.0007043791119940579
v -0.00038180503179319203 0.002982217585667968 0.0009206542745232582
v -3.174755597301626e-11 0.0035145324654877186 0.0011516505619511008
v 0.0004411403788253665 0.0035145324654877186 0.001063902280293405
v 0.0008151211659424007 0.0035145324654877186 0.0008140163845382631
v 0.0010650070616975427 0.0035145324654877186 0.0004400354519020766
v 0.0011527553433552384 0.0035145324654877186 -1.1049446584365796e-06
v 0.0010650070616975427 0.0035145324654877186 -0.0004422453639563173
v 0.000815120991319418 0.0035145324654877186 -0.0008162260637618601
v 0.0004411401750985533 0.0035145324654877186 -0.0010661118431016803
v -2.333017390387937e-10 0.0035145324654877186 -0.001153860124759376
v -0.0004411406407598406 0.0035145324654877186 -0.0010661118431016803
v -0.0008151212823577225 0.0035145324654877186 -0.0008162258309312165
v -0.0010650071781128645 0.0035145324654877186 -0.0004422451020218432
v -0.0011527554597705603 0.0035145324654877186 -1.1046423651350779e-06
v -0.0010650070616975427 0.0035145324654877186 0.00044003568473272026
v -0.000815120991319418 0.0035145324654877186 0.0008140166173689067
v -0.00044114026241004467 0.0035145324654877186 0.0010639023967087269
v -2.9360236464270884e-11 0.00404389388859272 0.001115421880967915
v 0.0004272762453183532 0.00404389388859272 0.0010304313618689775
v 0.00078950374154374 0.00404389388859272 0.0007883987273089588
v 0.001031536259688437 0.00404389388859272 0.00042617146391421556
v 0.0011165266623720527 0.00404389388859272 -1.1049284012187854e-06
v 0.0010315361432731152 0.00404389388859272 -0.00042838117224164307
v 0.0007895035669207573 0.00404389388859272 -0.0007906085811555386
v 0.00042727607069537044 0.00404389388859272 -0.0010326411575078964
v -2.2457999349079216e-10 0.00404389388859272 -0.001117631676606834
v -0.0004272765654604882 0.00404389388859272 -0.0010326410410925746
v -0.0007895038579590619 0.00404389388859272 -0.0007906083483248949
v -0.001031536259688437 0.00404389388859272 -0.0004283808812033385
v -0.0011165268952026963 0.00404389388859272 -1.1046355439248146e-06
v -0.0010315361432731152 0.00404389388859272 0.0004261716967448592
v -0.0007895035669207573 0.00404389388859272 0.0007883989601396024
v -0.00042727618711069226 0.00404389388859272 0.0010304314782842994
v -3.846117868633314e-11 0.004489733837544918 0.0008534477674402297
v 0.00032702312455512583 0.004489733837544918 0.0007883987855166197
v 0.000604259897954762 0.004489733837544918 0.0006031550583429635
v 0.0007895034505054355 0.004489733837544918 0.00032591825583949685
v 0.0008545523742213845 0.004489734768867493 -1.1048941814806312e-06
v 0.0007895034505054355 0.004489734768867493 -0.0003281279932707548
v 0.0006042598397471011 0.004489734768867493 -0.0006053647957742214
v 0.000327023008139804 0.004489734768867493 -0.0007906085229478776
v -1.8787589539659422e-10 0.004489734768867493 -0.0008556574466638267
v -0.0003270232700742781 0.004489734768867493 -0.0007906084065325558
v -0.0006042600725777447 0.004489734768867493 -0.0006053646793588996
v -0.0007895038579590619 0.004489734768867493 -0.0003281278186477721
v -0.0008545528398826718 0.004489733837544918 -1.104670104723482e-06
v -0.00078950374154374 0.004489733837544918 0.00032591845956631005
v -0.0006042598397471011 0.004489733837544918 0.0006031552329659462
v -0.000327023008139804 0.004489733837544918 0.0007883989019319415
v -5.3972232932908426e-11 0.0047889286652207375 0.00046137566096149385
v 0.00017698357987683266 0.0047889286652207375 0.00042617140570655465
v 0.00032702303724363446 0.0047889286652207375 0.00032591825583949685
v 0.00042727618711069226 0.0047889286652207375 0.00017587875481694937
v 0.000462480413261801 0.0047889286652207375 -1.1048523447243497e-06
v 0.0004272761580068618 0.0047889286652207375 -0.00017808849224820733
v 0.0003270229499321431 0.0047889286652207375 -0.0003281279350630939
v 0.00017698350711725652 0.0047889286652207375 -0.00042838105582632124
v -1.348348932506127e-10 0.0047889286652207375 -0.00046358528197743
v -0.00017698372539598495 0.0047889286652207375 -0.0004283810267224908
v -0.0003270232118666172 0.0047889286652207375 -0.00032812784775160253
v -0.00042727633262984455 0.0047889286652207375 -0.0001780883758328855
v -0.0004624805587809533 0.0047889286652207375 -1.1047311545553384e-06
v -0.0004272763035260141 0.0047889286652207375 0.0001758788712322712
v -0.0003270230663474649 0.0047889286652207375 0.0003259183431509882
v -0.00017698357987683266 0.0047889286652207375 0.000426171493018046
v -7.343427949058068e-11 0.0048981630243361 -1.1048098258470418e-06
v 0.00010501357610337436 -0.004584385082125664 0.0002524190931580961
v 3.1085203855418797e-10 -0.004584385547786951 0.00027330752345733345
v 0.0001940395450219512 -0.004584385082125664 0.00019293386139906943
v 0.00025352477678097785 -0.004584385082125664 0.0001039078997564502
v 0.00027441323618404567 -0.004584385082125664 -1.1053657544835005e-06
v 0.00025352477678097785 -0.004584385082125664 -0.00010611863399390131
v 0.0001940395450219512 -0.004584385082125664 -0.00019514455925673246
v 0.00010501357610337436 -0.004584385082125664 -0.00025462976191192865
v 3.1085198304303674e-10 -0.004584385547786951 -0.0002755182213149965
v -0.00010501293581910431 -0.004584385547786951 -0.00025462976191192865
v -0.0001940388756338507 -0.004584385547786951 -0.00019514455925673246
v -0.00025352410739287734 -0.004584385547786951 -0.00010611863399390131
v -0.0002744125376921147 -0.004584385547786951 -1.1053657544835005e-06
v -0.00025352410739287734 -0.004584385547786951 0.00010390789248049259
v -0.0001940388756338507 -0.004584385547786951 0.00019293386139906943
v -0.00010501293581910431 -0.004584385547786951 0.0002524190931580961
v 3.9558861741895157e-10 -0.004840322770178318 -0.0006647073896601796
v 0.00025394983822479844 -0.004840322770178318 -0.0006141936173662543
v 0.0004692377697210759 -0.004840322770178318 -0.00047034278395585716
v 0.0006130886031314731 -0.004840322770178318 -0.0002550548524595797
v 0.0006636022590100765 -0.004840322770178318 -1.105426804315357e-06
v 0.0006130885449238122 -0.004840322770178318 0.0002528440090827644
v 0.000469237711513415 -0.004840322770178318 0.0004681320278905332
v 0.0002539497218094766 -0.004840322770178318 0.000611982773989439
v 2.7956076342761094e-10 -0.004840322770178318 0.0006624963716603816
v -0.00025394916883669794 -0.004840322770178318 0.0006119827157817781
v -0.0004692370421253145 -0.004840322770178318 0.00046813185326755047
v -0.0006130877882242203 -0.004840322770178318 0.00025284389266744256
v -0.0006636015023104846 -0.004840322770178318 -1.1056037010348518e-06
v -0.0006130877882242203 -0.004840322770178318 -0.00025505502708256245
v -0.00046923692570999265 -0.004840322770178318 -0.00047034292947500944
v -0.00025394896510988474 -0.004840322770178318 -0.0006141936755739152
v 4.044810597569892e-10 -0.005144785158336163 -0.0008681430481374264
v 0.0003318013623356819 -0.005144785158336163 -0.0008021437679417431
v 0.0006130886031314731 -0.005144785158336163 -0.0006141936173662543
v 0.00080103863729164 -0.005144785158336163 -0.0003329063765704632
v 0.0008670379756949842 -0.005144785158336163 -1.1054127071474795e-06
v 0.00080103863729164 -0.005144785158336163 0.0003306955040898174
v 0.0006130884867161512 -0.0051163360476493835 0.0006119827157817781
v 0.0003318012459203601 -0.005097237881273031 0.0007999329245649278
v 2.5496174616002065e-10 -0.005097237881273031 0.0008659321465529501
v -0.00033180060563609004 -0.005097237881273031 0.0007999327499419451
v -0.0006130878464318812 -0.005116335581988096 0.0006119825411587954
v -0.0008010380552150309 -0.005144785158336163 0.00033069527125917375
v -0.0008670372189953923 -0.005144785158336163 -1.1056408766307868e-06
v -0.0008010378805920482 -0.005144785158336163 -0.0003329065802972764
v -0.0006130876718088984 -0.005144785158336163 -0.0006141937919892371
v -0.00033180031459778547 -0.005144785158336163 -0.000802143884357065
v 4.076036452804743e-10 -0.005503924563527107 -0.0009395802626386285
v 0.00035913908504880965 -0.005503924563527107 -0.0008681431063450873
v 0.0006636022008024156 -0.005503924563527107 -0.0006647073314525187
v 0.0008670380339026451 -0.005503924563527107 -0.00036024412838742137
v 0.0009384751319885254 -0.005503924563527107 -1.1054114565922646e-06
v 0.0008670379174873233 -0.005503924563527107 0.0003580333723220974
v 0.0006636022008024156 -0.005475475452840328 0.0006624964298680425
v 0.00035913893952965736 -0.005456377286463976 0.0009089289233088493
v 1.3106743468327409e-10 -0.005207644775509834 0.0021372041665017605
v -0.00035913853207603097 -0.005456377286463976 0.0009089288651011884
v -0.0006636016187258065 -0.005475474987179041 0.0006624963134527206
v -0.0008670373354107141 -0.005503924563527107 0.0003580331103876233
v -0.0009384743752889335 -0.005503924563527107 -1.1056582707169582e-06
v -0.0008670371607877314 -0.005503924563527107 -0.00036024433211423457
v -0.000663601269479841 -0.005503924563527107 -0.0006647075642831624
v -0.0003591382410377264 -0.005503924563527107 -0.0008681432227604091
v 4.044810597569892e-10 -0.00586306257173419 -0.0008681430481374264
v 0.00033180142054334283 -0.00586306257173419 -0.0008021437097340822
v 0.0006130885449238122 -0.00586306257173419 -0.0006141936755739152
v 0.00080103863729164 -0.00586306257173419 -0.0003329063474666327
v 0.0008670378010720015 -0.00586306257173419 -1.1054195283577428e-06
v 0.0008010385208763182 -0.00586306257173419 0.00033069547498598695
v 0.0006130884285084903 -0.005834613461047411 0.0006119826575741172
v 0.0003318012459203601 -0.005815515294671059 0.000799932808149606
v 2.560108236515646e-10 -0.005791515577584505 0.0008659320883452892
v -0.00033180060563609004 -0.005815515760332346 0.0007999326917342842
v -0.0006130879046395421 -0.005834613926708698 0.0006119824247434735
v -0.0008010380552150309 -0.00586306257173419 0.0003306952421553433
v -0.0008670372189953923 -0.00586306257173419 -1.10564769784105e-06
v -0.0008010378805920482 -0.00586306257173419 -0.0003329065511934459
v -0.0006130876718088984 -0.00586306257173419 -0.000614193850196898
v -0.000331800285493955 -0.00586306257173419 -0.0008021437679417431
v 3.9558861741895157e-10 -0.006167525425553322 -0.0006647073314525187
v 0.00025394983822479844 -0.006167525425553322 -0.0006141936755739152
v 0.0004692377697210759 -0.006167525425553322 -0.0004703428130596876
v 0.0006130884867161512 -0.006167525425553322 -0.0002550549106672406
v 0.0006636021425947547 -0.006167525425553322 -1.105442720472638e-06
v 0.0006130884285084903 -0.006167525425553322 0.0002528439508751035
v 0.000469237711513415 -0.006167525425553322 0.0004681318823713809
v 0.00025394975091330707 -0.006167525425553322 0.0006119826575741172
v 2.7956076342761094e-10 -0.006167525425553322 0.0006624963134527206
v -0.000253949110629037 -0.006167525425553322 0.0006119826575741172
v -0.00046923698391765356 -0.006167525425553322 0.00046813173685222864
v -0.0006130879046395421 -0.006167525425553322 0.00025284383445978165
v -0.0006636015023104846 -0.006167526822537184 -1.1056149560317863e-06
v -0.0006130877300165594 -0.006167526822537184 -0.0002550550561863929
v -0.0004692368383985013 -0.006167526822537184 -0.0004703429585788399
v -0.0002539489069022238 -0.006167526822537184 -0.0006141936755739152
v 4.298385536394278e-10 -0.006167525425553322 -0.0011498071253299713
v 0.00043958952301181853 -0.006167525425553322 -0.0010623674606904387
v 0.0008122550789266825 -0.006167525425553322 -0.0008133602677844465
v 0.001061262097209692 -0.006167525425553322 -0.0004406945954542607
v 0.0011487016454339027 -0.006167525425553322 -1.105503201870306e-06
v 0.0010612619807943702 -0.006167525425553322 0.0004384834901429713
v 0.0008122549043036997 -0.006167525425553322 0.0008111490169540048
v 0.00043958937749266624 -0.006167525425553322 0.0010601561516523361
v 2.2899314389146497e-10 -0.006167525425553322 0.0011475958162918687
v -0.00043958876631222665 -0.006167525425553322 0.0010601561516523361
v -0.0008122543222270906 -0.006167525425553322 0.0008111487841233611
v -0.0010612616315484047 -0.006167525425553322 0.0004384832864161581
v -0.001148701412603259 -0.006167526822537184 -1.105801288758812e-06
v -0.0010612615151330829 -0.006167526822537184 -0.0004406948573887348
v -0.000812254031188786 -0.006167526822537184 -0.0008133605006150901
v -0.0004395883879624307 -0.006167526822537184 -0.0010623675771057606
v 4.3552084161291305e-10 -0.006297520827502012 -0.0011498071253299713
v 0.0004395894648041576 -0.006297520827502012 -0.0010623674606904387
v 0.0008122550789266825 -0.006297520827502012 -0.0008133602677844465
v 0.001061262097209692 -0.006297520827502012 -0.0004406945954542607
v 0.0011487016454339027 -0.006297520827502012 -1.1055079767174902e-06
v 0.0010612619807943702 -0.006297520827502012 0.0004384834901429713
v 0.0008122549043036997 -0.006297520827502012 0.0008111490169540048
v 0.00043958931928500533 -0.006297520827502012 0.0010601561516523361
v 2.34675445742738e-10 -0.006297520827502012 0.0011475958162918687
v -0.00043958882451988757 -0.006297520827502012 0.0010601561516523361
v -0.0008122543222270906 -0.006297520827502012 0.0008111487841233611
v -0.0010612616315484047 -0.006297520827502012 0.0004384832864161581
v -0.001148701412603259 -0.006297522224485874 -1.1058059499191586e-06
v -0.0010612615151330829 -0.006297522224485874 -0.0004406948573887348
v -0.000812254031188786 -0.006297522224485874 -0.0008133605006150901
v -0.00043958844617009163 -0.006297522224485874 -0.0010623675771057606
v 3.9487485503642006e-10 -0.006299223285168409 -0.0006190248532220721
v 0.00023646799672860652 -0.006299221888184547 -0.000571988639421761
v 0.00043693542829714715 -0.006299221888184547 -0.0004380405298434198
v 0.000570883450563997 -0.006299221888184547 -0.00023757298185955733
v 0.000617919722571969 -0.006299221888184547 -1.1054424930989626e-06
v 0.0005708833923563361 -0.006299221888184547 0.00023536210937891155
v 0.0004369353409856558 -0.006299221888184547 0.00043582957005128264
v 0.00023646789486519992 -0.006299221888184547 0.0005697776796296239
v 2.8683436181786703e-10 -0.006299221888184547 0.0006168140098452568
v -0.00023646722547709942 -0.006299221888184547 0.0005697776796296239
v -0.0004369347880128771 -0.006299221888184547 0.0004358294536359608
v -0.0005708829849027097 -0.006299221888184547 0.0002353619784116745
v -0.0006179192569106817 -0.006299223285168409 -1.1056055200242554e-06
v -0.0005708828684873879 -0.006299223285168409 -0.00023757314193062484
v -0.0004369345842860639 -0.006299223285168409 -0.0004380406462587416
v -0.00023646702175028622 -0.006299223285168409 -0.000571988639421761
v 4.472432146851446e-10 -0.007497270591557026 -0.000619024969637394
v 0.00023646801128052175 -0.007497270591557026 -0.0005719887558370829
v 0.0004369355156086385 -0.007497270591557026 -0.0004380405880510807
v 0.0005708835669793189 -0.007497270591557026 -0.0002375730691710487
v 0.0006179197807796299 -0.007497270591557026 -1.1054956985390163e-06
v 0.000570883450563997 -0.007497270591557026 0.00023536202206742018
v 0.0004369354574009776 -0.007497270591557026 0.0004358294827397913
v 0.0002364679385209456 -0.007497270591557026 0.0005697775632143021
v 3.392027492221672e-10 -0.007497270591557026 0.000616813893429935
v -0.00023646719637326896 -0.007497270591557026 0.0005697775632143021
v -0.0004369346715975553 -0.007497270591557026 0.00043582936632446945
v -0.0005708828684873879 -0.007497270591557026 0.00023536190565209836
v -0.0006179191987030208 -0.0074972715228796005 -1.1056586117774714e-06
v -0.0005708827520720661 -0.0074972715228796005 -0.00023757321469020098
v -0.00043693449697457254 -0.0074972715228796005 -0.00043804070446640253
v -0.000236467007198371 -0.0074972715228796005 -0.0005719887558370829
v 1.3560554068536845e-10 -0.005064975004643202 0.001992681296542287
v 0.00017398034106008708 -0.005238954909145832 0.0019926810637116432
v -0.0001739801373332739 -0.005238954909145832 0.0019926810637116432
v 1.3560555456315626e-10 -0.005412934813648462 0.0019926810637116432
v 3.9889636038736853e-10 -0.007541468366980553 -1.1054769402107922e-06
v 2.336641713451826e-10 -0.002845583250746131 0.00027330763987265527
v 0.00010501350334379822 -0.002845583250746131 0.000252419151365757
v 0.00019403947226237506 -0.002845583250746131 0.00019293393415864557
v 0.0002535246894694865 -0.002845583250746131 0.0001039080016198568
v 0.0002744131488725543 -0.002845583250746131 -1.1052775334974285e-06
v 0.0002535246894694865 -0.002845583250746131 -0.00010611853940645233
v 0.00019403945771045983 -0.002845583250746131 -0.00019514448649715632
v 0.00010501348879188299 -0.002845583250746131 -0.00025462970370426774
v 2.222719230893233e-10 -0.002845583250746131 -0.0002755181340035051
v -0.00010501302313059568 -0.002845583250746131 -0.0002546296746004373
v -0.00019403896294534206 -0.002845583250746131 -0.00019514444284141064
v -0.0002535241947043687 -0.002845583250746131 -0.00010611853213049471
v -0.0002744126250036061 -0.002845583250746131 -1.1052635500163888e-06
v -0.0002535241947043687 -0.002845583250746131 0.00010390800889581442
v -0.00019403894839342684 -0.002845583250746131 0.00019293397781439126
v -0.00010501300857868046 -0.002845583250746131 0.00025241918046958745
v -1.0375865444611776e-10 0.0017884112894535065 -0.0002755177556537092
v -1.9007065366061227e-10 0.002535030711442232 -0.0007718945853412151
v -2.136033294686257e-10 0.002982217585667968 -0.000998809700831771
v -2.333017390387937e-10 0.0035145324654877186 -0.001153860124759376
v -2.2457999349079216e-10 0.00404389388859272 -0.001117631676606834
v -1.8787589539659422e-10 0.004489734768867493 -0.0008556574466638267
v -1.348348932506127e-10 0.0047889286652207375 -0.00046358528197743
v -7.343427949058068e-11 0.0048981630243361 -1.1048098258470418e-06
v -7.343427949058068e-11 0.0048981630243361 -1.1048098258470418e-06
v -7.343427949058068e-11 0.0048981630243361 -1.1048098258470418e-06
v -7.343427949058068e-11 0.0048981630243361 -1.1048098258470418e-06
v -7.343427949058068e-11 0.0048981630243361 -1.1048098258470418e-06
v -7.343427949058068e-11 0.0048981630243361 -1.1048098258470418e-06
v -7.343427949058068e-11 0.0048981630243361 -1.1048098258470418e-06
v -7.343427949058068e-11 0.0048981630243361 -1.1048098258470418e-06
v -7.343427949058068e-11 0.0048981630243361 -1.1048098258470418e-06
v -7.343427949058068e-11 0.0048981630243361 -1.1048098258470418e-06
v -7.343427949058068e-11 0.0048981630243361 -1.1048098258470418e-06
v -7.343427949058068e-11 0.0048981630243361 -1.1048098258470418e-06
v -7.343427949058068e-11 0.0048981630243361 -1.1048098258470418e-06
v -7.343427949058068e-11 0.0048981630243361 -1.1048098258470418e-06
v -7.343427949058068e-11 0.0048981630243361 -1.1048098258470418e-06
v 3.1085198304303674e-10 -0.004584385547786951 -0.0002755182213149965
v 2.222719230893233e-10 -0.002845583250746131 -0.0002755181340035051
v 3.1085198304303674e-10 -0.004584385547786951 -0.0002755182213149965
v 0.00010501357610337436 -0.004584385082125664 -0.00025462976191192865
v 0.0001940395450219512 -0.004584385082125664 -0.00019514455925673246
v 0.00025352477678097785 -0.004584385082125664 -0.00010611863399390131
v 0.00027441323618404567 -0.004584385082125664 -1.1053657544835005e-06
v 0.00025352477678097785 -0.004584385082125664 0.0001039078997564502
v 0.00025352477678097785 -0.004584385082125664 0.0001039078997564502
v 0.0001940395450219512 -0.004584385082125664 0.00019293386139906943
v 0.000469237711513415 -0.004840322770178318 0.0004681320278905332
v 0.00010501357610337436 -0.004584385082125664 0.0002524190931580961
v 0.0001940395450219512 -0.004584385082125664 0.00019293386139906943
v 0.0002539497218094766 -0.004840322770178318 0.000611982773989439
v 3.1085203855418797e-10 -0.004584385547786951 0.00027330752345733345
v 0.00010501357610337436 -0.004584385082125664 0.0002524190931580961
v 2.7956076342761094e-10 -0.004840322770178318 0.0006624963716603816
v 3.1085203855418797e-10 -0.004584385547786951 0.00027330752345733345
v -0.00010501293581910431 -0.004584385547786951 0.0002524190931580961
v 3.1085203855418797e-10 -0.004584385547786951 0.00027330752345733345
v -0.00025394916883669794 -0.004840322770178318 0.0006119827157817781
v -0.0001940388756338507 -0.004584385547786951 0.00019293386139906943
v -0.00010501293581910431 -0.004584385547786951 0.0002524190931580961
v -0.0004692370421253145 -0.004840322770178318 0.00046813185326755047
v -0.00025352410739287734 -0.004584385547786951 0.00010390789248049259
v -0.0001940388756338507 -0.004584385547786951 0.00019293386139906943
v -0.0006130877882242203 -0.004840322770178318 0.00025284389266744256
v -0.00025352410739287734 -0.004584385547786951 0.00010390789248049259
v -0.0002744125376921147 -0.004584385547786951 -1.1053657544835005e-06
v -0.00025352410739287734 -0.004584385547786951 -0.00010611863399390131
v -0.0001940388756338507 -0.004584385547786951 -0.00019514455925673246
v -0.00010501293581910431 -0.004584385547786951 -0.00025462976191192865
v 3.9558861741895157e-10 -0.004840322770178318 -0.0006647073896601796
v 3.1085198304303674e-10 -0.004584385547786951 -0.0002755182213149965
v 2.5496174616002065e-10 -0.005097237881273031 0.0008659321465529501
v 4.044810597569892e-10 -0.005144785158336163 -0.0008681430481374264
v 2.5496174616002065e-10 -0.005097237881273031 0.0008659321465529501
v 0.00035913893952965736 -0.005456377286463976 0.0009089289233088493
v 1.3560554068536845e-10 -0.005064975004643202 0.001992681296542287
v 1.3106743468327409e-10 -0.005207644775509834 0.0021372041665017605
v 2.5496174616002065e-10 -0.005097237881273031 0.0008659321465529501
v -0.00035913853207603097 -0.005456377286463976 0.0009089288651011884
v 4.076036452804743e-10 -0.005503924563527107 -0.0009395802626386285
v 0.00035913893952965736 -0.005456377286463976 0.0009089289233088493
v 1.3106743468327409e-10 -0.005207644775509834 0.0021372041665017605
v 0.00017398034106008708 -0.005238954909145832 0.0019926810637116432
v -0.00035913853207603097 -0.005456377286463976 0.0009089288651011884
v 2.560108236515646e-10 -0.005791515577584505 0.0008659320883452892
v -0.0001739801373332739 -0.005238954909145832 0.0019926810637116432
v 1.3560555456315626e-10 -0.005412934813648462 0.0019926810637116432
v 4.044810597569892e-10 -0.00586306257173419 -0.0008681430481374264
v 3.9558861741895157e-10 -0.006167525425553322 -0.0006647073314525187
v 0.00025394983822479844 -0.006167525425553322 -0.0006141936755739152
v 3.9558861741895157e-10 -0.006167525425553322 -0.0006647073314525187
v 0.0004692377697210759 -0.006167525425553322 -0.0004703428130596876
v 0.0006130884867161512 -0.006167525425553322 -0.0002550549106672406
v 0.0006636021425947547 -0.006167525425553322 -1.105442720472638e-06
v 0.0006130884285084903 -0.006167525425553322 0.0002528439508751035
v 0.000469237711513415 -0.006167525425553322 0.0004681318823713809
v 0.00025394975091330707 -0.006167525425553322 0.0006119826575741172
v 2.7956076342761094e-10 -0.006167525425553322 0.0006624963134527206
v -0.000253949110629037 -0.006167525425553322 0.0006119826575741172
v -0.00046923698391765356 -0.006167525425553322 0.00046813173685222864
v -0.0006130879046395421 -0.006167525425553322 0.00025284383445978165
v -0.0006636015023104846 -0.006167526822537184 -1.1056149560317863e-06
v -0.0006130877300165594 -0.006167526822537184 -0.0002550550561863929
v -0.0004692368383985013 -0.006167526822537184 -0.0004703429585788399
v -0.0002539489069022238 -0.006167526822537184 -0.0006141936755739152
v -0.0004395883879624307 -0.006167526822537184 -0.0010623675771057606
v -0.0002539489069022238 -0.006167526822537184 -0.0006141936755739152
v 0.00043958952301181853 -0.006167525425553322 -0.0010623674606904387
v 4.298385536394278e-10 -0.006167525425553322 -0.0011498071253299713
v 0.0008122550789266825 -0.006167525425553322 -0.0008133602677844465
v 0.001061262097209692 -0.006167525425553322 -0.0004406945954542607
v 0.0011487016454339027 -0.006167525425553322 -1.105503201870306e-06
v 0.0010612619807943702 -0.006167525425553322 0.0004384834901429713
v 0.0008122549043036997 -0.006167525425553322 0.0008111490169540048
v 0.00043958937749266624 -0.006167525425553322 0.0010601561516523361
v 2.2899314389146497e-10 -0.006167525425553322 0.0011475958162918687
v -0.00043958876631222665 -0.006167525425553322 0.0010601561516523361
v -0.0008122543222270906 -0.006167525425553322 0.0008111487841233611
v -0.0010612616315484047 -0.006167525425553322 0.0004384832864161581
v -0.001148701412603259 -0.006167526822537184 -1.105801288758812e-06
v -0.0010612615151330829 -0.006167526822537184 -0.0004406948573887348
v -0.000812254031188786 -0.006167526822537184 -0.0008133605006150901
v -0.0004395883879624307 -0.006167526822537184 -0.0010623675771057606
v -0.00043958844617009163 -0.006297522224485874 -0.0010623675771057606
v -0.0004395883879624307 -0.006167526822537184 -0.0010623675771057606
v 0.0004395894648041576 -0.006297520827502012 -0.0010623674606904387
v 4.3552084161291305e-10 -0.006297520827502012 -0.0011498071253299713
v 0.0008122550789266825 -0.006297520827502012 -0.0008133602677844465
v 0.001061262097209692 -0.006297520827502012 -0.0004406945954542607
v 0.0011487016454339027 -0.006297520827502012 -1.1055079767174902e-06
v 0.0010612619807943702 -0.006297520827502012 0.0004384834901429713
v 0.0008122549043036997 -0.006297520827502012 0.0008111490169540048
v 0.00043958931928500533 -0.006297520827502012 0.0010601561516523361
v 2.34675445742738e-10 -0.006297520827502012 0.0011475958162918687
v -0.00043958882451988757 -0.006297520827502012 0.0010601561516523361
v -0.0008122543222270906 -0.006297520827502012 0.0008111487841233611
v -0.0010612616315484047 -0.006297520827502012 0.0004384832864161581
v -0.001148701412603259 -0.006297522224485874 -1.1058059499191586e-06
v -0.0010612615151330829 -0.006297522224485874 -0.0004406948573887348
v -0.000812254031188786 -0.006297522224485874 -0.0008133605006150901
v -0.00043958844617009163 -0.006297522224485874 -0.0010623675771057606
v -0.00023646702175028622 -0.006299223285168409 -0.000571988639421761
v -0.00043958844617009163 -0.006297522224485874 -0.0010623675771057606
v 0.00023646799672860652 -0.006299221888184547 -0.000571988639421761
v 3.9487485503642006e-10 -0.006299223285168409 -0.0006190248532220721
v 0.00043693542829714715 -0.006299221888184547 -0.0004380405298434198
v 0.000570883450563997 -0.006299221888184547 -0.00023757298185955733
v 0.000617919722571969 -0.006299221888184547 -1.1054424930989626e-06
v 0.0005708833923563361 -0.006299221888184547 0.00023536210937891155
v 0.0004369353409856558 -0.006299221888184547 0.00043582957005128264
v 0.00023646789486519992 -0.006299221888184547 0.0005697776796296239
v 2.8683436181786703e-10 -0.006299221888184547 0.0006168140098452568
v -0.00023646722547709942 -0.006299221888184547 0.0005697776796296239
v -0.0004369347880128771 -0.006299221888184547 0.0004358294536359608
v -0.0005708829849027097 -0.006299221888184547 0.0002353619784116745
v -0.0006179192569106817 -0.006299223285168409 -1.1056055200242554e-06
v -0.0005708828684873879 -0.006299223285168409 -0.00023757314193062484
v -0.0004369345842860639 -0.006299223285168409 -0.0004380406462587416
v -0.00023646702175028622 -0.006299223285168409 -0.000571988639421761
v -0.000236467007198371 -0.0074972715228796005 -0.0005719887558370829
v -0.00023646702175028622 -0.006299223285168409 -0.000571988639421761
v 0.00017398034106008708 -0.005238954909145832 0.0019926810637116432
v 2.5496174616002065e-10 -0.005097237881273031 0.0008659321465529501
v 1.3560554068536845e-10 -0.005064975004643202 0.001992681296542287
v 2.5496174616002065e-10 -0.005097237881273031 0.0008659321465529501
v 0.00035913893952965736 -0.005456377286463976 0.0009089289233088493
v 2.5496174616002065e-10 -0.005097237881273031 0.0008659321465529501
v -0.00035913853207603097 -0.005456377286463976 0.0009089288651011884
v -0.0001739801373332739 -0.005238954909145832 0.0019926810637116432
v 1.3560554068536845e-10 -0.005064975004643202 0.001992681296542287
v 2.5496174616002065e-10 -0.005097237881273031 0.0008659321465529501
v 2.560108236515646e-10 -0.005791515577584505 0.0008659320883452892
v 0.00035913893952965736 -0.005456377286463976 0.0009089289233088493
v 1.3560555456315626e-10 -0.005412934813648462 0.0019926810637116432
v 2.560108236515646e-10 -0.005791515577584505 0.0008659320883452892
v 1.3560555456315626e-10 -0.005412934813648462 0.0019926810637116432
v -0.00035913853207603097 -0.005456377286463976 0.0009089288651011884
v 0.00023646801128052175 -0.007497270591557026 -0.0005719887558370829
v 4.472432146851446e-10 -0.007497270591557026 -0.000619024969637394
v 0.0004369355156086385 -0.007497270591557026 -0.0004380405880510807
v 3.9889636038736853e-10 -0.007541468366980553 -1.1054769402107922e-06
v 0.0005708835669793189 -0.007497270591557026 -0.0002375730691710487
v 3.9889636038736853e-10 -0.007541468366980553 -1.1054769402107922e-06
v 0.0006179197807796299 -0.007497270591557026 -1.1054956985390163e-06
v 3.9889636038736853e-10 -0.007541468366980553 -1.1054769402107922e-06
v 0.000570883450563997 -0.007497270591557026 0.00023536202206742018
v 3.9889636038736853e-10 -0.007541468366980553 -1.1054769402107922e-06
v 0.0004369354574009776 -0.007497270591557026 0.0004358294827397913
v 3.9889636038736853e-10 -0.007541468366980553 -1.1054769402107922e-06
v 0.0002364679385209456 -0.007497270591557026 0.0005697775632143021
v 3.9889636038736853e-10 -0.007541468366980553 -1.1054769402107922e-06
v 3.392027492221672e-10 -0.007497270591557026 0.000616813893429935
v 3.9889636038736853e-10 -0.007541468366980553 -1.1054769402107922e-06
v -0.00023646719637326896 -0.007497270591557026 0.0005697775632143021
v 3.9889636038736853e-10 -0.007541468366980553 -1.1054769402107922e-06
v -0.0004369346715975553 -0.007497270591557026 0.00043582936632446945
v 3.9889636038736853e-10 -0.007541468366980553 -1.1054769402107922e-06
v -0.0005708828684873879 -0.007497270591557026 0.00023536190565209836
v 3.9889636038736853e-10 -0.007541468366980553 -1.1054769402107922e-06
v -0.0006179191987030208 -0.0074972715228796005 -1.1056586117774714e-06
v 3.9889636038736853e-10 -0.007541468366980553 -1.1054769402107922e-06
v -0.0005708827520720661 -0.0074972715228796005 -0.00023757321469020098
v 3.9889636038736853e-10 -0.007541468366980553 -1.1054769402107922e-06
v -0.00043693449697457254 -0.0074972715228796005 -0.00043804070446640253
v 3.9889636038736853e-10 -0.007541468366980553 -1.1054769402107922e-06
v -0.000236467007198371 -0.0074972715228796005 -0.0005719887558370829
v 3.9889636038736853e-10 -0.007541468366980553 -1.1054769402107922e-06
v 3.9889636038736853e-10 -0.007541468366980553 -1.1054769402107922e-06
v -0.000236467007198371 -0.0074972715228796005 -0.0005719887558370829
v 0.00010501350334379822 -0.002845583250746131 0.000252419151365757
v 2.336641713451826e-10 -0.002845583250746131 0.00027330763987265527
v 0.00019403947226237506 -0.002845583250746131 0.00019293393415864557
v 0.0002535246894694865 -0.002845583250746131 0.0001039080016198568
v 0.0002744131488725543 -0.002845583250746131 -1.1052775334974285e-06
v 0.0002535246894694865 -0.002845583250746131 -0.00010611853940645233
v 0.00019403945771045983 -0.002845583250746131 -0.00019514448649715632
v 0.00010501348879188299 -0.002845583250746131 -0.00025462970370426774
v 2.222719230893233e-10 -0.002845583250746131 -0.0002755181340035051
v -0.00010501302313059568 -0.002845583250746131 -0.0002546296746004373
v 2.222719230893233e-10 -0.002845583250746131 -0.0002755181340035051
v -0.00019403896294534206 -0.002845583250746131 -0.00019514444284141064
v -0.0002535241947043687 -0.002845583250746131 -0.00010611853213049471
v -0.0002744126250036061 -0.002845583250746131 -1.1052635500163888e-06
v -0.0002535241947043687 -0.002845583250746131 0.00010390800889581442
v -0.00019403894839342684 -0.002845583250746131 0.00019293397781439126
v -0.00010501300857868046 -0.002845583250746131 0.00025241918046958745
g submesh_0
f 326 136 325
f 328 137 326
f 331 138 328
f 335 139 334
f 338 140 335
f 341 141 338
f 275 274 170
f 354 153 353
f 356 355 276
f 171 357 155
f 362 361 277
f 366 361 365
f 443 441 442
f 445 444 275
f 276 446 447
f 450 448 449
f 458 457 278
f 457 459 460
f 459 461 462
f 461 463 464
f 463 465 466
f 465 467 468
f 467 469 470
f 469 471 472
f 471 473 474
f 473 475 476
f 475 477 478
f 477 479 480
f 479 481 482
f 481 483 484
f 483 485 486
f 488 458 487
f 113 97 98
f 98 97 81
f 98 81 82
f 82 81 65
f 82 65 66
f 66 65 49
f 66 49 50
f 50 49 33
f 50 33 34
f 34 33 17
f 34 17 18
f 18 17 1
f 18 1 2
f 2 1 489
f 2 489 491
f 302 98 99
f 99 98 82
f 99 82 83
f 83 82 66
f 83 66 67
f 67 66 50
f 67 50 51
f 51 50 34
f 51 34 35
f 35 34 18
f 35 18 19
f 19 18 2
f 19 2 3
f 3 2 491
f 3 491 492
f 303 99 100
f 100 99 83
f 100 83 84
f 84 83 67
f 84 67 68
f 68 67 51
f 68 51 52
f 52 51 35
f 52 35 36
f 36 35 19
f 36 19 20
f 20 19 3
f 20 3 4
f 4 3 492
f 4 492 493
f 304 100 101
f 101 100 84
f 101 84 85
f 85 84 68
f 85 68 69
f 69 68 52
f 69 52 53
f 53 52 36
f 53 36 37
f 37 36 20
f 37 20 21
f 21 20 4
f 21 4 5
f 5 4 493
f 5 493 494
f 305 101 102
f 102 101 85
f 102 85 86
f 86 85 69
f 86 69 70
f 70 69 53
f 70 53 54
f 54 53 37
f 54 37 38
f 38 37 21
f 38 21 22
f 22 21 5
f 22 5 6
f 6 5 494
f 6 494 495
f 306 102 103
f 103 102 86
f 103 86 87
f 87 86 70
f 87 70 71
f 71 70 54
f 71 54 55
f 55 54 38
f 55 38 39
f 39 38 22
f 39 22 23
f 23 22 6
f 23 6 7
f 7 6 495
f 7 495 496
f 307 103 104
f 104 103 87
f 104 87 88
f 88 87 71
f 88 71 72
f 72 71 55
f 72 55 56
f 56 55 39
f 56 39 40
f 40 39 23
f 40 23 24
f 24 23 7
f 24 7 8
f 8 7 496
f 8 496 497
f 497 9 8
f 8 9 25
f 8 25 24
f 24 25 41
f 24 41 40
f 40 41 57
f 40 57 56
f 56 57 73
f 56 73 72
f 72 73 89
f 72 89 88
f 88 89 105
f 88 105 104
f 104 105 308
f 309 301 106
f 106 301 300
f 106 300 90
f 90 300 299
f 90 299 74
f 74 299 298
f 74 298 58
f 58 298 297
f 58 297 42
f 42 297 296
f 42 296 26
f 26 296 295
f 26 295 10
f 10 295 498
f 10 498 500
f 310 106 107
f 107 106 90
f 107 90 91
f 91 90 74
f 91 74 75
f 75 74 58
f 75 58 59
f 59 58 42
f 59 42 43
f 43 42 26
f 43 26 27
f 27 26 10
f 27 10 11
f 11 10 500
f 11 500 501
f 311 107 108
f 108 107 91
f 108 91 92
f 92 91 75
f 92 75 76
f 76 75 59
f 76 59 60
f 60 59 43
f 60 43 44
f 44 43 27
f 44 27 28
f 28 27 11
f 28 11 12
f 12 11 501
f 12 501 502
f 312 108 109
f 109 108 92
f 109 92 93
f 93 92 76
f 93 76 77
f 77 76 60
f 77 60 61
f 61 60 44
f 61 44 45
f 45 44 28
f 45 28 29
f 29 28 12
f 29 12 13
f 13 12 502
f 13 502 503
f 313 109 110
f 110 109 93
f 110 93 94
f 94 93 77
f 94 77 78
f 78 77 61
f 78 61 62
f 62 61 45
f 62 45 46
f 46 45 29
f 46 29 30
f 30 29 13
f 30 13 14
f 14 13 503
f 14 503 504
f 314 110 111
f 111 110 94
f 111 94 95
f 95 94 78
f 95 78 79
f 79 78 62
f 79 62 63
f 63 62 46
f 63 46 47
f 47 46 30
f 47 30 31
f 31 30 14
f 31 14 15
f 15 14 504
f 15 504 505
f 315 111 112
f 112 111 95
f 112 95 96
f 96 95 79
f 96 79 80
f 80 79 63
f 80 63 64
f 64 63 47
f 64 47 48
f 48 47 31
f 48 31 32
f 32 31 15
f 32 15 16
f 16 15 505
f 16 505 490
f 316 112 97
f 97 112 96
f 97 96 81
f 81 96 80
f 81 80 65
f 65 80 64
f 65 64 49
f 49 64 48
f 49 48 33
f 33 48 32
f 33 32 17
f 17 32 16
f 17 16 1
f 1 16 490
f 1 490 489
f 318 317 288
f 288 317 123
f 288 123 289
f 289 123 124
f 289 124 290
f 290 124 125
f 290 125 291
f 291 125 126
f 291 126 292
f 292 126 127
f 292 127 293
f 293 127 128
f 293 128 294
f 294 128 129
f 294 129 279
f 279 129 115
f 279 115 280
f 280 115 114
f 280 114 281
f 281 114 116
f 281 116 282
f 282 116 117
f 282 117 283
f 283 117 118
f 283 118 284
f 284 118 119
f 284 119 285
f 285 119 120
f 285 120 286
f 286 120 121
f 286 121 287
f 287 121 122
f 329 330 327
f 327 330 153
f 327 153 152
f 152 153 169
f 152 169 168
f 332 333 330
f 330 333 154
f 330 154 153
f 207 206 190
f 190 206 189
f 190 189 173
f 173 189 172
f 173 172 156
f 156 172 155
f 156 155 337
f 337 155 333
f 337 333 336
f 208 207 191
f 191 207 190
f 191 190 174
f 174 190 173
f 174 173 157
f 157 173 156
f 157 156 340
f 340 156 337
f 340 337 339
f 209 208 192
f 192 208 191
f 192 191 175
f 175 191 174
f 175 174 158
f 158 174 157
f 158 157 343
f 343 157 340
f 343 340 342
f 368 209 193
f 368 193 367
f 367 193 177
f 367 177 359
f 359 177 161
f 359 161 352
f 352 161 145
f 352 145 349
f 349 145 348
f 349 348 350
f 351 333 155
f 358 155 172
f 186 202 185
f 185 202 201
f 185 201 184
f 184 201 200
f 184 200 183
f 183 200 199
f 183 199 182
f 182 199 198
f 182 198 181
f 181 198 197
f 181 197 180
f 180 197 196
f 180 196 179
f 179 196 195
f 179 195 178
f 178 195 194
f 202 364 203
f 203 364 187
f 203 187 204
f 204 187 188
f 204 188 205
f 205 188 189
f 205 189 206
f 385 386 370
f 385 370 210
f 210 370 369
f 210 369 211
f 211 369 371
f 211 371 212
f 212 371 372
f 212 372 213
f 213 372 373
f 213 373 214
f 214 373 374
f 214 374 215
f 215 374 375
f 215 375 216
f 216 375 376
f 216 376 217
f 217 376 377
f 217 377 218
f 218 377 378
f 218 378 219
f 219 378 379
f 219 379 220
f 220 379 380
f 220 380 221
f 221 380 381
f 221 381 222
f 222 381 382
f 222 382 223
f 223 382 383
f 223 383 224
f 224 383 384
f 224 384 225
f 403 404 388
f 403 388 226
f 226 388 387
f 226 387 227
f 227 387 389
f 227 389 228
f 228 389 390
f 228 390 229
f 229 390 391
f 229 391 230
f 230 391 392
f 230 392 231
f 231 392 393
f 231 393 232
f 232 393 394
f 232 394 233
f 233 394 395
f 233 395 234
f 234 395 396
f 234 396 235
f 235 396 397
f 235 397 236
f 236 397 398
f 236 398 237
f 237 398 399
f 237 399 238
f 238 399 400
f 238 400 239
f 239 400 401
f 239 401 240
f 240 401 402
f 240 402 241
f 421 422 406
f 421 406 242
f 242 406 405
f 242 405 243
f 243 405 407
f 243 407 244
f 244 407 408
f 244 408 245
f 245 408 409
f 245 409 246
f 246 409 410
f 246 410 247
f 247 410 411
f 247 411 248
f 248 411 412
f 248 412 249
f 249 412 413
f 249 413 250
f 250 413 414
f 250 414 251
f 251 414 415
f 251 415 252
f 252 415 416
f 252 416 253
f 253 416 417
f 253 417 254
f 254 417 418
f 254 418 255
f 255 418 419
f 255 419 256
f 256 419 420
f 256 420 257
f 439 440 424
f 439 424 258
f 258 424 423
f 258 423 259
f 259 423 425
f 259 425 260
f 260 425 426
f 260 426 261
f 261 426 427
f 261 427 262
f 262 427 428
f 262 428 263
f 263 428 429
f 263 429 264
f 264 429 430
f 264 430 265
f 265 430 431
f 265 431 266
f 266 431 432
f 266 432 267
f 267 432 433
f 267 433 268
f 268 433 434
f 268 434 269
f 269 434 435
f 269 435 270
f 270 435 436
f 270 436 271
f 271 436 437
f 271 437 272
f 272 437 438
f 272 438 273
f 452 362 451
f 451 362 453
f 455 365 454
f 454 365 456
f 499 498 295
f 130 319 131
f 131 319 320
f 131 320 132
f 132 320 321
f 132 321 133
f 133 321 322
f 133 322 134
f 134 322 323
f 134 323 135
f 135 323 324
f 135 324 327
f 343 344 142
f 142 344 345
f 142 345 143
f 143 345 346
f 143 346 144
f 144 346 347
f 144 347 145
f 145 347 348
f 327 152 135
f 135 152 151
f 135 151 134
f 134 151 150
f 134 150 133
f 133 150 149
f 133 149 132
f 132 149 148
f 132 148 131
f 131 148 147
f 131 147 130
f 130 147 146
f 152 168 151
f 151 168 167
f 151 167 150
f 150 167 166
f 150 166 149
f 149 166 165
f 149 165 148
f 148 165 164
f 148 164 147
f 147 164 163
f 147 163 146
f 146 163 162
f 178 162 179
f 179 162 163
f 179 163 180
f 180 163 164
f 180 164 181
f 181 164 165
f 181 165 182
f 182 165 166
f 182 166 183
f 183 166 167
f 183 167 184
f 184 167 168
f 184 168 185
f 185 168 360
f 185 360 186
f 172 189 188
f 172 188 363
f 363 188 187
f 363 187 364
f 145 161 144
f 144 161 160
f 144 160 143
f 143 160 159
f 143 159 142
f 142 159 158
f 142 158 343
f 161 177 160
f 160 177 176
f 160 176 159
f 159 176 175
f 159 175 158
f 177 193 176
f 176 193 192
f 176 192 175
f 193 209 192
