# rich_14
v -0.216999813914299 0.008609447628259659 -4.999999418942025e-07
v -0.13781219720840454 0.08700007945299149 -4.999999418942025e-07
v 0.03899993747472763 0.08700007945299149 -4.999999418942025e-07
v 0.03899993747472763 0.14600005745887756 -4.999999418942025e-07
v -0.04300018399953842 0.14600005745887756 -4.999999418942025e-07
v -0.04300018399953842 0.10900004953145981 -4.999999418942025e-07
v -0.2099996954202652 0.10900004953145981 -4.999999418942025e-07
v -0.2099996954202652 0.20696879923343658 -4.999999418942025e-07
v -0.11317168921232224 0.30400004982948303 -4.999999418942025e-07
v 0.11462493985891342 0.30400004982948303 -4.999999418942025e-07
v 0.216999813914299 0.20059382915496826 -4.999999418942025e-07
v 0.216999813914299 0.02701568603515625 -4.999999418942025e-07
v 0.13323456048965454 -0.05699992924928665 -4.999999418942025e-07
v -0.03800018131732941 -0.05699992924928665 -4.999999418942025e-07
v -0.03800018131732941 -0.145999938249588 -4.999999418942025e-07
v 0.03899993747472763 -0.145999938249588 -4.999999418942025e-07
v 0.03899993747472763 -0.0939999371767044 -4.999999418942025e-07
v 0.21100005507469177 -0.0939999371767044 -4.999999418942025e-07
v 0.21100005507469177 -0.20360930263996124 -4.999999418942025e-07
v 0.11067169159650803 -0.3039999306201935 -4.999999418942025e-07
v -0.10746856778860092 -0.3039999306201935 -4.999999418942025e-07
v -0.216999813914299 -0.19426555931568146 -4.999999418942025e-07
g submesh_0
f 21 20 16
f 16 20 19
f 16 19 17
f 17 19 18
f 9 8 5
f 5 8 7
f 5 7 6
f 1 22 15
f 15 22 21
f 15 21 16
f 3 2 14
f 14 2 1
f 14 1 15
f 14 13 3
f 3 13 12
f 3 12 11
f 3 11 4
f 4 11 10
f 4 10 9
f 4 9 5
