# complete00
v -0.2160000503063202 -0.055328119546175 -4.999999987376214e-07
v -0.04900055006146431 -0.055328119546175 -4.999999987376214e-07
v -0.04900055006146431 -0.14299999177455902 -4.999999987376214e-07
v 0.03299957141280174 -0.14299999177455902 -4.999999987376214e-07
v 0.03299957141280174 0.1459999978542328 -4.999999987376214e-07
v -0.04900055006146431 0.1459999978542328 -4.999999987376214e-07
v -0.04900055006146431 0.06796877086162567 -4.999999987376214e-07
v -0.2160000503063202 0.06796877086162567 -4.999999987376214e-07
v -0.2160000503063202 0.19704686105251312 -4.999999987376214e-07
v -0.10892242193222046 0.30399999022483826 -4.999999987376214e-07
v 0.10892181098461151 0.30399999022483826 -4.999999987376214e-07
v 0.21599943935871124 0.19698438048362732 -4.999999987376214e-07
v 0.21599943935871124 -0.19512499868869781 -4.999999987376214e-07
v 0.1070779412984848 -0.30399999022483826 -4.999999987376214e-07
v -0.10339080542325974 -0.30399999022483826 -4.999999987376214e-07
v -0.2160000503063202 -0.19110937416553497 -4.999999987376214e-07
g submesh_0
f 11 10 6
f 6 10 9
f 6 9 7
f 7 9 8
f 2 1 3
f 3 1 16
f 3 16 15
f 13 12 5
f 5 12 11
f 5 11 6
f 15 14 4
f 4 14 13
f 4 13 5
f 4 3 15
