# out01
v 0.3590002655982971 0.1969843953847885 -4.720413357972575e-07
v 0.4660467803478241 0.30400002002716064 -4.720413357972575e-07
v 0.6976562142372131 0.30400002002716064 -4.720413357972575e-07
v 0.8009997606277466 0.20067191123962402 -4.720413357972575e-07
v 0.8009997606277466 -0.19974997639656067 -4.720413357972575e-07
v 0.696734607219696 -0.30399996042251587 -4.720413357972575e-07
v 0.4641876518726349 -0.30399996042251587 -4.720413357972575e-07
v 0.3590002655982971 -0.1988280862569809 -4.720413357972575e-07
v 0.622999906539917 -0.1459999680519104 -4.720413357972575e-07
v 0.622999906539917 0.14600001275539398 -4.720413357972575e-07
v 0.5379999279975891 0.14600001275539398 -4.720413357972575e-07
v 0.5379999279975891 -0.1459999680519104 -4.720413357972575e-07
v -0.22765620052814484 0.30400002002716064 -4.720413357972575e-07
v 0.02400028146803379 0.30400002002716064 -4.720413357972575e-07
v 0.02400028146803379 0.15400001406669617 -4.720413357972575e-07
v 3.814697180359872e-08 0.15400001406669617 -4.720413357972575e-07
v 3.814697180359872e-08 -0.1459999680519104 -4.720413357972575e-07
v 0.0760003998875618 -0.1459999680519104 -4.720413357972575e-07
v 0.0760003998875618 0.15400001406669617 -4.720413357972575e-07
v 0.05300052464008331 0.15400001406669617 -4.720413357972575e-07
v 0.05300052464008331 0.30400002002716064 -4.720413357972575e-07
v 0.30400028824806213 0.30400002002716064 -4.720413357972575e-07
v 0.30400028824806213 0.14600001275539398 -4.720413357972575e-07
v 0.2570001482963562 0.14600001275539398 -4.720413357972575e-07
v 0.2570001482963562 -0.19887496531009674 -4.720413357972575e-07
v 0.15165652334690094 -0.30399996042251587 -4.720413357972575e-07
v -0.07196834683418274 -0.30399996042251587 -4.720413357972575e-07
v -0.18099971115589142 -0.19518746435642242 -4.720413357972575e-07
v -0.18099971115589142 0.14600001275539398 -4.720413357972575e-07
v -0.22765620052814484 0.14600001275539398 -4.720413357972575e-07
v -0.8009997606277466 0.30400002002716064 -4.720413357972575e-07
v -0.2799999415874481 0.30400002002716064 -4.720413357972575e-07
v -0.2799999415874481 0.08365627378225327 -4.720413357972575e-07
v -0.4209997057914734 0.08365627378225327 -4.720413357972575e-07
v -0.4209997057914734 0.14600001275539398 -4.720413357972575e-07
v -0.4509997069835663 0.14600001275539398 -4.720413357972575e-07
v -0.4509997069835663 -0.1459999680519104 -4.720413357972575e-07
v -0.40799984335899353 -0.1459999680519104 -4.720413357972575e-07
v -0.40799984335899353 -0.30399996042251587 -4.720413357972575e-07
v -0.6709997653961182 -0.30399996042251587 -4.720413357972575e-07
v -0.6709997653961182 -0.1459999680519104 -4.720413357972575e-07
v -0.629000186920166 -0.1459999680519104 -4.720413357972575e-07
v -0.629000186920166 0.14600001275539398 -4.720413357972575e-07
v -0.6599999666213989 0.14600001275539398 -4.720413357972575e-07
v -0.6599999666213989 0.08365627378225327 -4.720413357972575e-07
v -0.8009997606277466 0.08365627378225327 -4.720413357972575e-07
g submesh_0
f 16 15 14
f 16 14 29
f 29 14 13
f 29 13 30
f 20 19 21
f 21 19 24
f 21 24 22
f 22 24 23
f 46 45 31
f 31 45 44
f 31 44 32
f 32 44 43
f 32 43 36
f 36 43 42
f 36 42 37
f 37 42 39
f 37 39 38
f 41 40 42
f 42 40 39
f 34 33 35
f 35 33 32
f 35 32 36
f 8 7 12
f 8 12 1
f 1 12 11
f 1 11 10
f 4 3 10
f 10 3 2
f 10 2 1
f 7 6 9
f 9 6 5
f 9 5 10
f 10 5 4
f 9 12 7
f 26 25 18
f 18 25 24
f 18 24 19
f 29 28 17
f 17 28 27
f 17 27 18
f 18 27 26
f 17 16 29
