# root
v 0.0005000000237487257 -0.0005000000237487257 -0.0005000000237487257
v -0.0005000000237487257 -0.0005000000237487257 -0.0005000000237487257
v 0.0005000000237487257 0.0005000000237487257 -0.0005000000237487257
v -0.0005000000237487257 0.0005000000237487257 -0.0005000000237487257
v 0.0005000000237487257 -0.0005000000237487257 0.0005000000237487257
v -0.0005000000237487257 -0.0005000000237487257 0.0005000000237487257
v 0.0005000000237487257 0.0005000000237487257 0.0005000000237487257
v -0.0005000000237487257 0.0005000000237487257 0.0005000000237487257
v 0.0005000000237487257 -0.0005000000237487257 -0.0005000000237487257
v -0.0005000000237487257 -0.0005000000237487257 0.0005000000237487257
v -0.0005000000237487257 -0.0005000000237487257 -0.0005000000237487257
v 0.0005000000237487257 -0.0005000000237487257 0.0005000000237487257
v -0.0005000000237487257 -0.0005000000237487257 -0.0005000000237487257
v -0.0005000000237487257 0.0005000000237487257 0.0005000000237487257
v -0.0005000000237487257 0.0005000000237487257 -0.0005000000237487257
v -0.0005000000237487257 -0.0005000000237487257 0.0005000000237487257
v -0.0005000000237487257 0.0005000000237487257 -0.0005000000237487257
v 0.0005000000237487257 0.0005000000237487257 0.0005000000237487257
v 0.0005000000237487257 0.0005000000237487257 -0.0005000000237487257
v -0.0005000000237487257 0.0005000000237487257 0.0005000000237487257
v 0.0005000000237487257 0.0005000000237487257 -0.0005000000237487257
v 0.0005000000237487257 -0.0005000000237487257 0.0005000000237487257
v 0.0005000000237487257 -0.0005000000237487257 -0.0005000000237487257
v 0.0005000000237487257 0.0005000000237487257 0.0005000000237487257
g submesh_0
f 3 1 4
f 4 1 2
f 6 5 8
f 8 5 7
f 11 9 10
f 10 9 12
f 15 13 14
f 14 13 16
f 19 17 18
f 18 17 20
f 23 21 22
f 22 21 24
