# 10
v 0.12758292257785797 -0.1719740331172943 -0.10098613798618317
v 0.1737392246723175 -0.1719740331172943 -0.10098613798618317
v 0.1737392246723175 0.27802595496177673 -0.10098613798618317
v 0.3069051504135132 0.27802595496177673 -0.10098614543676376
v 0.3608379662036896 0.22459226846694946 -0.10098614543676376
v 0.3608379662036896 0.161317840218544 -0.10098614543676376
v 0.30730676651000977 0.161317840218544 -0.10098614543676376
v 0.30730676651000977 -0.1719740331172943 -0.10098614543676376
v 0.35346296429634094 -0.1719740331172943 -0.10098612308502197
v 0.35346296429634094 -0.27802592515945435 -0.10098612308502197
v 0.12758292257785797 -0.27802592515945435 -0.10098613798618317
v -0.3608378767967224 0.1907597929239273 -0.10096195340156555
v -0.2727063000202179 0.27802595496177673 -0.10096195340156555
v -0.06889604777097702 0.27802595496177673 -0.10096195340156555
v 0.02121402695775032 0.18720701336860657 -0.10096195340156555
v 0.02121402695775032 -0.18621890246868134 -0.10096195340156555
v -0.07067344337701797 -0.27802595496177673 -0.10096195340156555
v -0.26815930008888245 -0.27802595496177673 -0.10096195340156555
v -0.3608378767967224 -0.18700949847698212 -0.10096195340156555
v -0.10583789646625519 -0.1719740331172943 -0.10096195340156555
v -0.10583789646625519 0.1719740480184555 -0.10096195340156555
v -0.2337859719991684 0.1719740480184555 -0.10096195340156555
v -0.2337859719991684 -0.1719740331172943 -0.10096195340156555
v 0.10160890221595764 -0.1459999978542328 -0.07501209527254105
v 0.1477651596069336 -0.1459999978542328 -0.07501208782196045
v 0.1477651596069336 0.30399999022483826 -0.07501208782196045
v 0.3175932765007019 0.30399999022483826 -0.07501209527254105
v 0.3868120014667511 0.23542192578315735 -0.07501208782196045
v 0.3868120014667511 0.1353437900543213 -0.07501208782196045
v 0.3332807719707489 0.1353437900543213 -0.07501209527254105
v 0.3332807719707489 -0.1459999978542328 -0.07501209527254105
v 0.37943705916404724 -0.1459999978542328 -0.07501209527254105
v 0.37943705916404724 -0.30399999022483826 -0.07501209527254105
v 0.10160890221595764 -0.30399999022483826 -0.07501209527254105
v -0.3868119418621063 0.20159375667572021 -0.07498790323734283
v -0.283390074968338 0.30399999022483826 -0.07498790323734283
v -0.058077581226825714 0.30399999022483826 -0.07498790323734283
v 0.04718806967139244 0.1979062408208847 -0.07498790323734283
v 0.04718806967139244 -0.19698436558246613 -0.07498790323734283
v -0.059921301901340485 -0.30399999022483826 -0.07498790323734283
v -0.2787806987762451 -0.30399999022483826 -0.07498790323734283
v -0.3868119418621063 -0.1979062408208847 -0.07498790323734283
v -0.1318119466304779 -0.1459999978542328 -0.07498790323734283
v -0.1318119466304779 0.1459999978542328 -0.07498790323734283
v -0.20781192183494568 0.1459999978542328 -0.07498790323734283
v -0.20781192183494568 -0.1459999978542328 -0.07498790323734283
v 0.10160888731479645 -0.1459999978542328 0.07498790323734283
v 0.1477651596069336 -0.1459999978542328 0.07498790323734283
v 0.1477651596069336 0.30399999022483826 0.07498790323734283
v 0.31759321689605713 0.30399999022483826 0.07498789578676224
v 0.3868119716644287 0.23542192578315735 0.07498790323734283
v 0.3868119716644287 0.1353437900543213 0.07498790323734283
v 0.3332807719707489 0.1353437900543213 0.07498790323734283
v 0.3332807719707489 -0.1459999978542328 0.07498790323734283
v 0.37943702936172485 -0.1459999978542328 0.07498790323734283
v 0.37943702936172485 -0.30399999022483826 0.07498790323734283
v 0.10160888731479645 -0.30399999022483826 0.07498790323734283
v -0.3868119418621063 0.20159375667572021 0.07501208782196045
v -0.283390074968338 0.30399999022483826 0.07501208782196045
v -0.058077581226825714 0.30399999022483826 0.07501208782196045
v 0.04718806967139244 0.1979062408208847 0.07501208782196045
v 0.04718806967139244 -0.19698436558246613 0.07501208782196045
v -0.059921301901340485 -0.30399999022483826 0.07501208782196045
v -0.2787806987762451 -0.30399999022483826 0.07501208782196045
v -0.3868119418621063 -0.1979062408208847 0.07501208782196045
v -0.1318119466304779 -0.1459999978542328 0.07501208782196045
v -0.1318119466304779 0.1459999978542328 0.07501208782196045
v -0.20781192183494568 0.1459999978542328 0.07501208782196045
v -0.20781192183494568 -0.1459999978542328 0.07501208782196045
v 0.12758290767669678 -0.1719740331172943 0.10096195340156555
v 0.17373919486999512 -0.1719740331172943 0.10096195340156555
v 0.17373919486999512 0.27802595496177673 0.10096195340156555
v 0.3069051206111908 0.27802595496177673 0.10096195340156555
v 0.36083799600601196 0.22459226846694946 0.10096195340156555
v 0.36083799600601196 0.161317840218544 0.10096195340156555
v 0.30730676651000977 0.161317840218544 0.10096195340156555
v 0.30730676651000977 -0.1719740331172943 0.10096195340156555
v 0.35346296429634094 -0.1719740331172943 0.10096195340156555
v 0.35346296429634094 -0.27802592515945435 0.10096195340156555
v 0.12758290767669678 -0.27802592515945435 0.10096195340156555
v -0.3608378767967224 0.1907597929239273 0.10098613798618317
v -0.2727063000202179 0.27802595496177673 0.10098613798618317
v -0.06889604777097702 0.27802595496177673 0.10098613798618317
v 0.02121402695775032 0.18720701336860657 0.10098613798618317
v 0.02121402695775032 -0.18621890246868134 0.10098613798618317
v -0.07067344337701797 -0.27802595496177673 0.10098613798618317
v -0.26815930008888245 -0.27802595496177673 0.10098613798618317
v -0.3608378767967224 -0.18700949847698212 0.10098613798618317
v -0.10583789646625519 -0.1719740331172943 0.10098613798618317
v -0.10583789646625519 0.1719740480184555 0.10098613798618317
v -0.2337859719991684 0.1719740480184555 0.10098613798618317
v -0.2337859719991684 -0.1719740331172943 0.10098613798618317
v 0.1477651596069336 -0.1459999978542328 -0.07501208782196045
v 0.1477651596069336 -0.1459999978542328 0.07498790323734283
v 0.1477651596069336 0.30399999022483826 -0.07501208782196045
v 0.1477651596069336 0.30399999022483826 0.07498790323734283
v 0.3175932765007019 0.30399999022483826 -0.07501209527254105
v 0.31759321689605713 0.30399999022483826 0.07498789578676224
v 0.3868120014667511 0.23542192578315735 -0.07501208782196045
v 0.3868119716644287 0.23542192578315735 0.07498790323734283
v 0.3868120014667511 0.1353437900543213 -0.07501208782196045
v 0.3868119716644287 0.1353437900543213 0.07498790323734283
v 0.3332807719707489 0.1353437900543213 -0.07501209527254105
v 0.3332807719707489 0.1353437900543213 0.07498790323734283
v 0.3332807719707489 -0.1459999978542328 -0.07501209527254105
v 0.3332807719707489 -0.1459999978542328 0.07498790323734283
v 0.37943705916404724 -0.1459999978542328 -0.07501209527254105
v 0.37943702936172485 -0.1459999978542328 0.07498790323734283
v 0.37943705916404724 -0.30399999022483826 -0.07501209527254105
v 0.37943702936172485 -0.30399999022483826 0.07498790323734283
v 0.10160890221595764 -0.30399999022483826 -0.07501209527254105
v 0.10160888731479645 -0.30399999022483826 0.07498790323734283
v 0.10160890221595764 -0.1459999978542328 -0.07501209527254105
v 0.10160888731479645 -0.1459999978542328 0.07498790323734283
v -0.283390074968338 0.30399999022483826 -0.07498790323734283
v -0.283390074968338 0.30399999022483826 0.07501208782196045
v -0.058077581226825714 0.30399999022483826 -0.07498790323734283
v -0.058077581226825714 0.30399999022483826 0.07501208782196045
v 0.04718806967139244 -0.19698436558246613 -0.07498790323734283
v 0.04718806967139244 -0.19698436558246613 0.07501208782196045
v -0.059921301901340485 -0.30399999022483826 -0.07498790323734283
v -0.059921301901340485 -0.30399999022483826 0.07501208782196045
v -0.2787806987762451 -0.30399999022483826 -0.07498790323734283
v -0.2787806987762451 -0.30399999022483826 0.07501208782196045
v -0.3868119418621063 -0.1979062408208847 -0.07498790323734283
v -0.3868119418621063 -0.1979062408208847 0.07501208782196045
v -0.3868119418621063 0.20159375667572021 -0.07498790323734283
v -0.3868119418621063 0.20159375667572021 0.07501208782196045
v -0.1318119466304779 0.1459999978542328 -0.07498790323734283
v -0.1318119466304779 0.1459999978542328 0.07501208782196045
v -0.20781192183494568 0.1459999978542328 -0.07498790323734283
v -0.20781192183494568 0.1459999978542328 0.07501208782196045
v -0.20781192183494568 -0.1459999978542328 -0.07498790323734283
v -0.20781192183494568 -0.1459999978542328 0.07501208782196045
v -0.1318119466304779 -0.1459999978542328 -0.07498790323734283
v -0.1318119466304779 -0.1459999978542328 0.07501208782196045
v 0.1477651596069336 -0.1459999978542328 -0.07501208782196045
v 0.12758292257785797 -0.1719740331172943 -0.10098613798618317
v 0.10160890221595764 -0.1459999978542328 -0.07501209527254105
v 0.1477651596069336 -0.1459999978542328 -0.07501208782196045
v 0.1737392246723175 -0.1719740331172943 -0.10098613798618317
v 0.1477651596069336 0.30399999022483826 -0.07501208782196045
v 0.1477651596069336 -0.1459999978542328 -0.07501208782196045
v 0.1737392246723175 0.27802595496177673 -0.10098613798618317
v 0.3175932765007019 0.30399999022483826 -0.07501209527254105
v 0.1477651596069336 0.30399999022483826 -0.07501208782196045
v 0.3069051504135132 0.27802595496177673 -0.10098614543676376
v 0.3868120014667511 0.23542192578315735 -0.07501208782196045
v 0.3175932765007019 0.30399999022483826 -0.07501209527254105
v 0.3608379662036896 0.22459226846694946 -0.10098614543676376
v 0.3868120014667511 0.23542192578315735 -0.07501208782196045
v 0.3608379662036896 0.161317840218544 -0.10098614543676376
v 0.3332807719707489 0.1353437900543213 -0.07501209527254105
v 0.3608379662036896 0.161317840218544 -0.10098614543676376
v 0.3868120014667511 0.1353437900543213 -0.07501208782196045
v 0.30730676651000977 0.161317840218544 -0.10098614543676376
v 0.30730676651000977 0.161317840218544 -0.10098614543676376
v 0.30730676651000977 -0.1719740331172943 -0.10098614543676376
v 0.37943705916404724 -0.1459999978542328 -0.07501209527254105
v 0.30730676651000977 -0.1719740331172943 -0.10098614543676376
v 0.3332807719707489 -0.1459999978542328 -0.07501209527254105
v 0.35346296429634094 -0.1719740331172943 -0.10098612308502197
v 0.37943705916404724 -0.30399999022483826 -0.07501209527254105
v 0.37943705916404724 -0.1459999978542328 -0.07501209527254105
v 0.35346296429634094 -0.27802592515945435 -0.10098612308502197
v 0.10160890221595764 -0.30399999022483826 -0.07501209527254105
v 0.37943705916404724 -0.30399999022483826 -0.07501209527254105
v 0.10160890221595764 -0.30399999022483826 -0.07501209527254105
v 0.12758292257785797 -0.27802592515945435 -0.10098613798618317
v 0.10160890221595764 -0.1459999978542328 -0.07501209527254105
v 0.12758292257785797 -0.27802592515945435 -0.10098613798618317
v 0.10160890221595764 -0.30399999022483826 -0.07501209527254105
v 0.12758292257785797 -0.1719740331172943 -0.10098613798618317
v -0.283390074968338 0.30399999022483826 -0.07498790323734283
v -0.3608378767967224 0.1907597929239273 -0.10096195340156555
v -0.3868119418621063 0.20159375667572021 -0.07498790323734283
v -0.2727063000202179 0.27802595496177673 -0.10096195340156555
v -0.058077581226825714 0.30399999022483826 -0.07498790323734283
v -0.06889604777097702 0.27802595496177673 -0.10096195340156555
v -0.058077581226825714 0.30399999022483826 -0.07498790323734283
v 0.02121402695775032 0.18720701336860657 -0.10096195340156555
v 0.04718806967139244 -0.19698436558246613 -0.07498790323734283
v 0.02121402695775032 -0.18621890246868134 -0.10096195340156555
v 0.04718806967139244 -0.19698436558246613 -0.07498790323734283
v -0.07067344337701797 -0.27802595496177673 -0.10096195340156555
v -0.2787806987762451 -0.30399999022483826 -0.07498790323734283
v -0.059921301901340485 -0.30399999022483826 -0.07498790323734283
v -0.26815930008888245 -0.27802595496177673 -0.10096195340156555
v -0.3868119418621063 -0.1979062408208847 -0.07498790323734283
v -0.3608378767967224 -0.18700949847698212 -0.10096195340156555
v -0.3868119418621063 0.20159375667572021 -0.07498790323734283
v -0.3868119418621063 -0.1979062408208847 -0.07498790323734283
v -0.1318119466304779 0.1459999978542328 -0.07498790323734283
v -0.10583789646625519 -0.1719740331172943 -0.10096195340156555
v -0.1318119466304779 -0.1459999978542328 -0.07498790323734283
v -0.10583789646625519 0.1719740480184555 -0.10096195340156555
v -0.20781192183494568 0.1459999978542328 -0.07498790323734283
v -0.10583789646625519 0.1719740480184555 -0.10096195340156555
v -0.1318119466304779 0.1459999978542328 -0.07498790323734283
v -0.2337859719991684 0.1719740480184555 -0.10096195340156555
v -0.2337859719991684 0.1719740480184555 -0.10096195340156555
v -0.2337859719991684 -0.1719740331172943 -0.10096195340156555
v -0.1318119466304779 -0.1459999978542328 -0.07498790323734283
v -0.2337859719991684 -0.1719740331172943 -0.10096195340156555
v -0.20781192183494568 -0.1459999978542328 -0.07498790323734283
v -0.10583789646625519 -0.1719740331172943 -0.10096195340156555
v 0.10160888731479645 -0.1459999978542328 0.07498790323734283
v 0.17373919486999512 -0.1719740331172943 0.10096195340156555
v 0.1477651596069336 -0.1459999978542328 0.07498790323734283
v 0.12758290767669678 -0.1719740331172943 0.10096195340156555
v 0.17373919486999512 0.27802595496177673 0.10096195340156555
v 0.17373919486999512 -0.1719740331172943 0.10096195340156555
v 0.1477651596069336 0.30399999022483826 0.07498790323734283
v 0.3069051206111908 0.27802595496177673 0.10096195340156555
v 0.31759321689605713 0.30399999022483826 0.07498789578676224
v 0.17373919486999512 0.27802595496177673 0.10096195340156555
v 0.36083799600601196 0.22459226846694946 0.10096195340156555
v 0.3868119716644287 0.23542192578315735 0.07498790323734283
v 0.3868119716644287 0.23542192578315735 0.07498790323734283
v 0.36083799600601196 0.161317840218544 0.10096195340156555
v 0.3868119716644287 0.1353437900543213 0.07498790323734283
v 0.3868119716644287 0.1353437900543213 0.07498790323734283
v 0.30730676651000977 0.161317840218544 0.10096195340156555
v 0.3332807719707489 0.1353437900543213 0.07498790323734283
v 0.36083799600601196 0.161317840218544 0.10096195340156555
v 0.3332807719707489 0.1353437900543213 0.07498790323734283
v 0.30730676651000977 -0.1719740331172943 0.10096195340156555
v 0.3332807719707489 -0.1459999978542328 0.07498790323734283
v 0.30730676651000977 0.161317840218544 0.10096195340156555
v 0.3332807719707489 -0.1459999978542328 0.07498790323734283
v 0.35346296429634094 -0.1719740331172943 0.10096195340156555
v 0.37943702936172485 -0.1459999978542328 0.07498790323734283
v 0.30730676651000977 -0.1719740331172943 0.10096195340156555
v 0.37943702936172485 -0.1459999978542328 0.07498790323734283
v 0.35346296429634094 -0.27802592515945435 0.10096195340156555
v 0.37943702936172485 -0.30399999022483826 0.07498790323734283
v 0.35346296429634094 -0.1719740331172943 0.10096195340156555
v 0.37943702936172485 -0.30399999022483826 0.07498790323734283
v 0.12758290767669678 -0.27802592515945435 0.10096195340156555
v 0.10160888731479645 -0.30399999022483826 0.07498790323734283
v 0.12758290767669678 -0.1719740331172943 0.10096195340156555
v 0.12758290767669678 -0.27802592515945435 0.10096195340156555
v -0.3868119418621063 0.20159375667572021 0.07501208782196045
v -0.2727063000202179 0.27802595496177673 0.10098613798618317
v -0.283390074968338 0.30399999022483826 0.07501208782196045
v -0.3608378767967224 0.1907597929239273 0.10098613798618317
v -0.283390074968338 0.30399999022483826 0.07501208782196045
v -0.06889604777097702 0.27802595496177673 0.10098613798618317
v -0.058077581226825714 0.30399999022483826 0.07501208782196045
v -0.058077581226825714 0.30399999022483826 0.07501208782196045
v 0.02121402695775032 0.18720701336860657 0.10098613798618317
v 0.04718806967139244 0.1979062408208847 0.07501208782196045
v 0.04718806967139244 0.1979062408208847 0.07501208782196045
v 0.02121402695775032 -0.18621890246868134 0.10098613798618317
v 0.04718806967139244 -0.19698436558246613 0.07501208782196045
v 0.04718806967139244 -0.19698436558246613 0.07501208782196045
v -0.07067344337701797 -0.27802595496177673 0.10098613798618317
v -0.059921301901340485 -0.30399999022483826 0.07501208782196045
v -0.26815930008888245 -0.27802595496177673 0.10098613798618317
v -0.2787806987762451 -0.30399999022483826 0.07501208782196045
v -0.3608378767967224 -0.18700949847698212 0.10098613798618317
v -0.3868119418621063 -0.1979062408208847 0.07501208782196045
v -0.3868119418621063 -0.1979062408208847 0.07501208782196045
v -0.3868119418621063 0.20159375667572021 0.07501208782196045
v -0.10583789646625519 0.1719740480184555 0.10098613798618317
v -0.10583789646625519 -0.1719740331172943 0.10098613798618317
v -0.1318119466304779 0.1459999978542328 0.07501208782196045
v -0.2337859719991684 0.1719740480184555 0.10098613798618317
v -0.20781192183494568 0.1459999978542328 0.07501208782196045
v -0.10583789646625519 0.1719740480184555 0.10098613798618317
v -0.20781192183494568 0.1459999978542328 0.07501208782196045
v -0.2337859719991684 -0.1719740331172943 0.10098613798618317
v -0.20781192183494568 -0.1459999978542328 0.07501208782196045
v -0.2337859719991684 0.1719740480184555 0.10098613798618317
v -0.20781192183494568 -0.1459999978542328 0.07501208782196045
v -0.10583789646625519 -0.1719740331172943 0.10098613798618317
v -0.1318119466304779 -0.1459999978542328 0.07501208782196045
v -0.2337859719991684 -0.1719740331172943 0.10098613798618317
g submesh_0
f 139 137 138
f 141 138 140
f 167 166 165
f 169 165 168
f 48 25 47
f 47 25 24
f 211 49 94
f 94 49 26
f 94 26 93
f 50 27 96
f 96 27 95
f 51 28 98
f 98 28 97
f 52 29 100
f 100 29 99
f 53 30 102
f 102 30 101
f 157 103 31
f 31 103 104
f 31 104 54
f 55 32 106
f 106 32 105
f 56 33 108
f 108 33 107
f 57 34 110
f 110 34 109
f 241 114 112
f 112 114 113
f 112 113 111
f 59 36 58
f 58 36 35
f 60 37 116
f 116 37 115
f 62 39 61
f 61 39 38
f 61 38 118
f 118 38 117
f 63 40 120
f 120 40 119
f 64 41 122
f 122 41 121
f 65 42 124
f 124 42 123
f 128 127 126
f 126 127 125
f 265 67 66
f 66 67 44
f 66 44 43
f 68 45 130
f 130 45 129
f 201 131 46
f 46 131 132
f 46 132 69
f 136 135 134
f 134 135 133
f 77 76 71
f 77 71 79
f 79 71 70
f 79 70 80
f 78 77 79
f 75 74 76
f 76 74 73
f 76 73 72
f 7 8 2
f 2 8 10
f 2 10 1
f 1 10 11
f 10 8 9
f 3 4 7
f 7 4 5
f 7 5 6
f 143 142 141
f 141 142 144
f 146 145 144
f 144 145 147
f 149 148 147
f 147 148 150
f 151 29 150
f 150 29 152
f 155 153 154
f 154 153 156
f 158 157 31
f 161 159 160
f 160 159 162
f 164 163 162
f 162 163 165
f 172 170 171
f 171 170 173
f 178 179 177
f 178 177 174
f 174 177 175
f 174 175 176
f 182 183 181
f 182 181 38
f 38 181 179
f 38 179 180
f 184 40 183
f 183 40 185
f 189 190 188
f 189 188 186
f 186 188 185
f 186 185 187
f 192 191 190
f 190 191 175
f 195 193 194
f 194 193 196
f 199 197 198
f 198 197 200
f 202 201 46
f 205 203 204
f 204 203 206
f 209 207 208
f 208 207 210
f 212 211 94
f 217 218 215
f 217 215 214
f 214 215 213
f 214 213 216
f 221 219 220
f 220 219 217
f 224 222 223
f 223 222 225
f 228 226 227
f 227 226 229
f 232 230 231
f 231 230 233
f 236 234 235
f 235 234 237
f 240 238 239
f 239 238 235
f 242 241 112
f 245 243 244
f 244 243 246
f 249 247 248
f 248 247 244
f 252 250 251
f 251 250 248
f 255 253 254
f 254 253 251
f 259 260 258
f 259 258 257
f 257 258 256
f 257 256 254
f 262 124 261
f 261 124 259
f 264 263 246
f 246 263 261
f 266 265 66
f 269 267 268
f 268 267 270
f 273 271 272
f 272 271 274
f 277 275 276
f 276 275 278
f 71 76 72
f 83 82 90
f 90 82 81
f 90 81 91
f 91 81 88
f 91 88 92
f 92 88 87
f 92 87 86
f 92 86 89
f 89 86 85
f 89 85 90
f 90 85 84
f 90 84 83
f 3 7 2
f 17 18 23
f 23 18 19
f 23 19 22
f 22 19 12
f 22 12 21
f 21 12 13
f 21 13 14
f 14 15 21
f 21 15 16
f 21 16 20
f 20 16 17
f 20 17 23
