# rich_16
v -0.13249999284744263 -0.145999938249588 -4.999999418942025e-07
v -0.0904998779296875 -0.145999938249588 -4.999999418942025e-07
v -0.0904998779296875 0.14600005745887756 -4.999999418942025e-07
v -0.13249999284744263 0.14600005745887756 -4.999999418942025e-07
v -0.13249999284744263 0.30400004982948303 -4.999999418942025e-07
v 0.1325003057718277 0.30400004982948303 -4.999999418942025e-07
v 0.1325003057718277 0.14600005745887756 -4.999999418942025e-07
v 0.09050018340349197 0.14600005745887756 -4.999999418942025e-07
v 0.09050018340349197 -0.145999938249588 -4.999999418942025e-07
v 0.1325003057718277 -0.145999938249588 -4.999999418942025e-07
v 0.1325003057718277 -0.3039999306201935 -4.999999418942025e-07
v -0.13249999284744263 -0.3039999306201935 -4.999999418942025e-07
g submesh_0
f 9 8 2
f 9 2 11
f 11 2 1
f 11 1 12
f 10 9 11
f 4 3 5
f 5 3 8
f 5 8 6
f 6 8 7
f 2 8 3
