# biplane
v -2.660041536728386e-05 -0.005244583822786808 4.636753481168654e-10
v -4.016515852550695e-12 -0.005244583822786808 -2.6599956981954165e-05
v 2.660041536728386e-05 -0.005244583822786808 4.5564224615546323e-10
v 4.8621206887033974e-12 -0.005244583822786808 2.6600875571602955e-05
v -2.660099562490359e-05 -6.430476787500083e-05 5.835294700773375e-07
v -5.8392490842607e-10 -6.430476787500083e-05 -2.6017129130195826e-05
v 2.659983692865353e-05 -6.430476787500083e-05 5.835294700773375e-07
v -5.750463438758402e-10 -6.430476787500083e-05 2.7183888960280456e-05
v -2.660155951161869e-05 -3.434427464643619e-10 6.829619087511674e-05
v -1.1399444721504892e-09 2.6600073397275992e-05 6.829619087511674e-05
v 2.659927304193843e-05 -3.45768275122893e-10 6.829619087511674e-05
v -1.1414243994423146e-09 -2.660075915628113e-05 6.829619087511674e-05
v -2.660041536728386e-05 0.0 0.011255010962486267
v 1.1627412357592681e-12 2.660041536728386e-05 0.011255010962486267
v 2.660041536728386e-05 -2.3254824715185363e-12 0.011255010962486267
v -3.1720676432756e-13 -2.660041536728386e-05 0.011255010962486267
v -0.0021335380151867867 -0.00018907188496086746 0.011267104186117649
v -0.0021335380151867867 -4.3819122765853535e-06 0.011096632108092308
v -0.0021335380151867867 -0.00012003441224806011 0.011130189523100853
v -0.0021335380151867867 -0.00012003440497210249 0.01140401791781187
v -0.0021335380151867867 -4.381889084470458e-06 0.011437575332820415
v -0.0021335375495254993 0.00012382179556880146 0.01140401791781187
v -0.0021335375495254993 0.00019285923917777836 0.011267104186117649
v -0.002133537782356143 0.0001238218101207167 0.011130189523100853
v -0.001833536778576672 -4.284979513613507e-05 0.01085167657583952
v -0.0018335371278226376 -0.00038654441596008837 0.010973352007567883
v -0.0018335371278226376 -0.0005485660512931645 0.011267104186117649
v -0.001833536894991994 -0.00038654444506391883 0.011560855433344841
v -0.0018335364293307066 -4.2849755118368194e-05 0.011682531796395779
v -0.0018335360800847411 0.0002958572586067021 0.011560855433344841
v -0.0018335359636694193 0.00043264575651846826 0.011267104186117649
v -0.0018335363129153848 0.00029585728771053255 0.010973352007567883
v -0.0015408681938424706 -4.285009345039725e-05 0.010835858061909676
v -0.0015408685430884361 -0.00043850261135958135 0.010962167754769325
v -0.001540868659503758 -0.0005815770127810538 0.011267104186117649
v -0.0015408685430884361 -0.00043850261135958135 0.011572039686143398
v -0.001540867961011827 -4.2850053432630375e-05 0.011698349379003048
v -0.0015408676117658615 0.00032371230190619826 0.011572039686143398
v -0.0015408674953505397 0.00046887545613572 0.011267104186117649
v -0.0015408676117658615 0.0003237123310100287 0.010962167754769325
v 0.00042784467223100364 1.4950363038224168e-05 0.010934153571724892
v 0.0004278443520888686 -0.00030471704667434096 0.011031672358512878
v 0.00042784406105056405 -0.0005727313691750169 0.0112671023234725
v 0.0004278443520888686 -0.00030471704667434096 0.01150253415107727
v 0.00042784467223100364 1.4950385775591712e-05 0.011600052937865257
v 0.0004278449632693082 0.0003076571156270802 0.01150253415107727
v 0.0004278452543076128 0.0004495731263887137 0.0112671023234725
v 0.0004278449632693082 0.00030765714473091066 0.011031671427190304
v 0.0008607144700363278 4.7302859456976876e-05 0.010981084778904915
v 0.0008607141207903624 -0.00021240826754365116 0.011064858175814152
v 0.0008607141207903624 -0.0003199841012246907 0.0112671023234725
v 0.0008607141207903624 -0.00021240820933599025 0.011469348333775997
v 0.0008607144700363278 4.730287764687091e-05 0.01155312079936266
v 0.0008607147610746324 0.00029452668968588114 0.011469348333775997
v 0.000860715052112937 0.0004145897109992802 0.0112671023234725
v 0.0008607147610746324 0.00029452668968588114 0.011064858175814152
v 0.002684295177459717 0.00013651992776431143 0.01122203841805458
v 0.002684295177459717 0.00010465488594491035 0.011235238052904606
v 0.002684295177459717 9.145594231085852e-05 0.0112671023234725
v 0.002684295177459717 0.00010465488594491035 0.011298967525362968
v 0.002684295177459717 0.00013651992776431143 0.011312166228890419
v 0.002684295177459717 0.00016838498413562775 0.011298967525362968
v 0.002684295177459717 0.00018158394959755242 0.0112671023234725
v 0.002684295177459717 0.00016838498413562775 0.011235238052904606
v -0.000447074300609529 0.0008517038077116013 0.008083069697022438
v -0.0004470735730137676 0.0008517043315805495 0.010671159252524376
v -0.0007719749119132757 0.000851704622618854 0.010948863811790943
v -0.000771974737290293 0.000851704622618854 0.011602816171944141
v -0.000447072961833328 0.0008517043897882104 0.011880521662533283
v -0.000447071943199262 0.0008517048554494977 0.014468610286712646
v -0.0009632707224227488 0.0008517043897882104 0.008248599246144295
v -0.0009632685105316341 0.0008517053793184459 0.014303081668913364
v -0.0014794672606512904 0.0007821470499038696 0.00853064563125372
v -0.001479466212913394 0.000782147457357496 0.011275840923190117
v -0.0014794650487601757 0.0007821478648111224 0.014021036215126514
v -0.000447074300609529 0.0007821457111276686 0.008083068765699863
v -0.0004470735730137676 0.0007821462349966168 0.010671159252524376
v -0.0007719749119132757 0.0007821465260349214 0.010948863811790943
v -0.000771974737290293 0.0007821465842425823 0.011602816171944141
v -0.0004470728163141757 0.0007821462932042778 0.011880521662533283
v -0.0004470717685762793 0.0007821467588655651 0.014468610286712646
v -0.0009632707806304097 0.0007821462932042778 0.008248599246144295
v -0.0009632686269469559 0.0007821472827345133 0.014303081668913364
v -0.0005063390708528459 -0.0005098891560919583 0.008286561816930771
v -0.0005063378484919667 -0.0005098886322230101 0.011267121881246567
v -0.0005063368007540703 -0.00050988799193874 0.014265117235481739
v -0.001022535259835422 -0.0005098885158076882 0.008441014215350151
v -0.0010225331643596292 -0.0005098874680697918 0.014110665768384933
v -0.0015387317398563027 -0.0005098878173157573 0.008763700723648071
v -0.0015387306921184063 -0.000509887293446809 0.011267121881246567
v -0.0015387296443805099 -0.0005098868859931827 0.013787980191409588
v -0.0005063391872681677 -0.000570831703953445 0.008286561816930771
v -0.0005063380231149495 -0.0005708311218768358 0.011267121881246567
v -0.000506336975377053 -0.0005708305398002267 0.014265117235481739
v -0.0010225354926660657 -0.0005708310636691749 0.008441014215350151
v -0.001022533280774951 -0.0005708300159312785 0.014110665768384933
v 0.0028915528673678637 0.0010383307235315442 0.01124279573559761
v 0.0028915528673678637 0.0010383307235315442 0.011303337290883064
v 0.0026490420568734407 0.0012404319131746888 0.01124279573559761
v 0.0026490420568734407 0.0012404320295900106 0.011303337290883064
v 0.002394996117800474 0.0012614915613085032 0.01124279573559761
v 0.002394996117800474 0.0012614915613085032 0.011303337290883064
v 0.0021950730588287115 0.0011330638080835342 0.01124279573559761
v 0.0021950730588287115 0.0011330638080835342 0.011303337290883064
v 0.002902449807152152 0.00023657476413063705 0.01124279573559761
v 0.002902449807152152 0.00023657476413063705 0.011303337290883064
v 0.0026631790678948164 0.00023651690571568906 0.01124279573559761
v 0.0026631790678948164 0.00023651689116377383 0.011303337290883064
v 0.0026049900334328413 0.0001779244194040075 0.01124279573559761
v 0.0026049900334328413 0.0001779244776116684 0.011303337290883064
v 0.001969745848327875 0.00022525183157995343 0.01124279573559761
v 0.001969745848327875 0.00022525183157995343 0.011303337290883064
v 0.0030029783956706524 0.0007351837120950222 0.01124279573559761
v 0.0030029783956706524 0.0007351838867180049 0.011303337290883064
v 0.0020950071047991514 0.0008887248113751411 0.011303337290883064
v 0.0020950071047991514 0.0008887248113751411 0.01124279573559761
v 0.0029931729659438133 0.0004140120290685445 0.01124279573559761
v 0.0029931729659438133 0.00041401194175705314 0.011303337290883064
v 0.00196961616165936 0.000413742964155972 0.011303337290883064
v 0.00196961616165936 0.000413742964155972 0.01124279573559761
v 0.0027461766730993986 0.00038487909478135407 0.010114692151546478
v 0.0025433963164687157 0.00038487944402731955 0.011275838129222393
v 0.002746177837252617 0.0003848794149234891 0.012436985969543457
v 0.0024378958623856306 0.0003848795604426414 0.010098523460328579
v 0.0019809091463685036 0.00036349857691675425 0.011275839991867542
v 0.002437897026538849 0.00038487985148094594 0.012453153729438782
v 0.0021746770944446325 0.0003634982858784497 0.010232537984848022
v 0.002174678258597851 0.0003634985478129238 0.012319140136241913
v 0.0027461766730993986 0.00034211581805720925 0.010114692151546478
v 0.0025433963164687157 0.0003421161381993443 0.011275838129222393
v 0.002746177837252617 0.00034211607999168336 0.012436985969543457
v 0.0024378958623856306 0.00034211628371849656 0.010098523460328579
v 0.002437897026538849 0.00034211654565297067 0.012453153729438782
v -0.000664580031298101 -0.0005174566176719964 0.013730804435908794
v -0.000664580031298101 -0.0005174566176719964 0.013793891295790672
v -0.0007556281634606421 -0.0005174565012566745 0.013730804435908794
v -0.0007556281634606421 -0.0005174565012566745 0.013793891295790672
v -0.0008853857289068401 0.00078660185681656 0.013963467441499233
v -0.0008853857289068401 0.0007866020314395428 0.01402655616402626
v -0.0009764338028617203 0.0007866017986088991 0.013963467441499233
v -0.0009764336864463985 0.0007866020896472037 0.01402655616402626
v -0.0010133390314877033 -0.00051745621021837 0.013606522232294083
v -0.0010133389150723815 -0.0005174562684260309 0.013669610023498535
v -0.001220625708810985 0.0007866020314395428 0.013902273029088974
v -0.001220625708810985 0.0007866022060625255 0.013839186169207096
v -0.0011043872218579054 -0.00051745621021837 0.013669610023498535
v -0.0013116738991811872 0.0007866023224778473 0.013902273029088974
v -0.0011043873382732272 -0.000517456152010709 0.013606522232294083
v -0.0013116738991811872 0.0007866022642701864 0.013839186169207096
v -0.0010133389150723815 -0.0005174559191800654 0.008847720921039581
v -0.0010133389150723815 -0.0005174559773877263 0.008910808712244034
v -0.001220625708810985 0.0007866023806855083 0.008676361292600632
v -0.001220625708810985 0.0007866023806855083 0.008613272570073605
v -0.0011043872218579054 -0.0005174558609724045 0.008910808712244034
v -0.0013116737827658653 0.0007866026135161519 0.008676361292600632
v -0.0011043872218579054 -0.0005174558609724045 0.008847720921039581
v -0.0013116738991811872 0.0007866026135161519 0.008613272570073605
v -0.0006645798566751182 -0.0005174563266336918 0.008723437786102295
v -0.0006645798566751182 -0.0005174563848413527 0.008786526508629322
v -0.0008853855542838573 0.0007866023224778473 0.008552078157663345
v -0.0008853857289068401 0.0007866020896472037 0.008488989435136318
v -0.0007556281634606421 -0.00051745621021837 0.008786526508629322
v -0.0009764337446540594 0.0007866023224778473 0.008552078157663345
v -0.0007556281634606421 -0.0005174562684260309 0.008723437786102295
v -0.0009764337446540594 0.0007866022060625255 0.008488989435136318
v -0.001072640880011022 -0.0010690201306715608 0.011784350499510765
v -0.001072640880011022 -0.0010690201306715608 0.011847438290715218
v -0.0007051004213280976 -0.0005619995063170791 0.011506547220051289
v -0.0007051004213280976 -0.00056199956452474 0.011443459428846836
v -0.001138988183811307 -0.0010690197814255953 0.011847438290715218
v -0.0007714475505053997 -0.0005619993899017572 0.011506547220051289
v -0.001138988183811307 -0.0010690198978409171 0.011784350499510765
v -0.0007714475505053997 -0.0005619996809400618 0.011443461291491985
v -0.0010133393807336688 -0.0010690194321796298 0.011782750487327576
v -0.001013339264318347 -0.0010690195485949516 0.011845666915178299
v -0.001250912668183446 -0.0005619993899017572 0.01160360872745514
v -0.001250912551768124 -0.0005619992734864354 0.011443373747169971
v -0.0011640331940725446 -0.0010690196650102735 0.011845667846500874
v -0.0014016067143529654 -0.0005619991570711136 0.01160360872745514
v -0.0011640333104878664 -0.0010690196650102735 0.011782750487327576
v -0.0014016067143529654 -0.0005619993899017572 0.011443374678492546
v -0.0010726407635957003 -0.0010690194321796298 0.010786132887005806
v -0.001072640880011022 -0.0010690194321796298 0.010723045095801353
v -0.0007051003049127758 -0.0005619989242404699 0.011063935235142708
v -0.0007051003049127758 -0.0005619989824481308 0.011127022095024586
v -0.0011389880673959851 -0.0010690190829336643 0.010723045095801353
v -0.000771447375882417 -0.0005619988078251481 0.011063935235142708
v -0.0011389880673959851 -0.0010690191993489861 0.010786132887005806
v -0.000771447375882417 -0.0005619991570711136 0.011127022095024586
v -0.001013339264318347 -0.0010690188501030207 0.01078773196786642
v -0.0010133391479030252 -0.0010690188501030207 0.010724816471338272
v -0.001250912551768124 -0.0005619989242404699 0.010966873727738857
v -0.0012509122025221586 -0.0005619987496174872 0.0111271096393466
v -0.0011640331940725446 -0.0010690190829336643 0.010724814608693123
v -0.0014016065979376435 -0.0005619986914098263 0.010966873727738857
v -0.0011640331940725446 -0.0010690190829336643 0.01078773196786642
v -0.0014016064815223217 -0.0005619989824481308 0.01112710777670145
v -0.001229304587468505 -0.001066221622750163 0.01077754981815815
v -0.000943206250667572 -0.0010662219719961286 0.01077754981815815
v -0.0009851042414084077 -0.0009650708525441587 0.01077754981815815
v -0.0010862551862373948 -0.0009231725707650185 0.01077754981815815
v -0.0011874062474817038 -0.000965070619713515 0.01077754981815815
v -0.0011874064803123474 -0.0011673728004097939 0.01077754981815815
v -0.0010862555354833603 -0.0012092710239812732 0.01077754981815815
v -0.0009851044742390513 -0.0011673730332404375 0.01077754981815815
v -0.0008001571986824274 -0.0010662220884114504 0.010777547955513
v -0.0008839531219564378 -0.0008639199077151716 0.010777547955513
v -0.001086255069822073 -0.000780123402364552 0.01077754981815815
v -0.0012885573087260127 -0.0008639195584692061 0.01077754981815815
v -0.0013723537558689713 -0.001066221622750163 0.01077754981815815
v -0.0012885576579719782 -0.0012685238616541028 0.01077754981815815
v -0.0010862556518986821 -0.0013523201923817396 0.01077754981815815
v -0.0008839535294100642 -0.0012685242109000683 0.01077754981815815
v -0.000800157489720732 -0.0010662222048267722 0.010602345690131187
v -0.0008839533547870815 -0.0008639199659228325 0.010602345690131187
v -0.0010862554190680385 -0.0007801234605722129 0.010602345690131187
v -0.0012885576579719782 -0.000863919616676867 0.010602346621453762
v -0.001372353988699615 -0.001066221622750163 0.010602346621453762
v -0.0012885581236332655 -0.0012685238616541028 0.010602346621453762
v -0.0010862560011446476 -0.0013523201923817396 0.010602345690131187
v -0.0008839538786560297 -0.0012685242109000683 0.010602345690131187
v -0.0010862556518986821 -0.0010662218555808067 0.010602345690131187
v -0.001229304587468505 -0.001066221622750163 0.010855906642973423
v -0.000943206250667572 -0.0010662219719961286 0.010855906642973423
v -0.0009851042414084077 -0.0009650708525441587 0.010855906642973423
v -0.0010862551862373948 -0.0009231725707650185 0.010855906642973423
v -0.0011874062474817038 -0.000965070619713515 0.010855906642973423
v -0.0011874064803123474 -0.0011673728004097939 0.010855906642973423
v -0.0010862555354833603 -0.0012092710239812732 0.010855906642973423
v -0.0009851044742390513 -0.0011673730332404375 0.010855906642973423
v -0.0009432060760445893 -0.0010662218555808067 0.011814543046057224
v -0.001229304471053183 -0.001066221739165485 0.011814541183412075
v -0.0011874062474817038 -0.0009650707943364978 0.011814543046057224
v -0.0010862551862373948 -0.0009231726871803403 0.011814543046057224
v -0.0009851042414084077 -0.0009650708525441587 0.011814543046057224
v -0.0009851042414084077 -0.0011673729168251157 0.011814543046057224
v -0.0010862551862373948 -0.0012092710239812732 0.011814543046057224
v -0.0011874062474817038 -0.0011673729168251157 0.011814543046057224
v -0.0013723537558689713 -0.0010662218555808067 0.011814541183412075
v -0.0012885573087260127 -0.0008639197330921888 0.011814541183412075
v -0.0010862551862373948 -0.0007801234605722129 0.011814543046057224
v -0.000883953005541116 -0.0008639197330921888 0.011814543046057224
v -0.0008001568494364619 -0.0010662219719961286 0.011814543046057224
v -0.0008839533547870815 -0.0012685238616541028 0.011814543046057224
v -0.0010862554190680385 -0.0013523203087970614 0.011814541183412075
v -0.0012885573087260127 -0.0012685238616541028 0.011814541183412075
v -0.0013723537558689713 -0.001066221739165485 0.011989746242761612
v -0.0012885573087260127 -0.0008639196748845279 0.011989746242761612
v -0.0010862551862373948 -0.000780123402364552 0.011989746242761612
v -0.0008839531219564378 -0.0008639197330921888 0.011989746242761612
v -0.0008001568494364619 -0.0010662218555808067 0.011989746242761612
v -0.0008839532383717597 -0.0012685240944847465 0.011989746242761612
v -0.0010862553026527166 -0.0013523203087970614 0.011989746242761612
v -0.0012885573087260127 -0.0012685238616541028 0.011989746242761612
v -0.0010862551862373948 -0.0010662218555808067 0.011989746242761612
v -0.0009432059596292675 -0.0010662218555808067 0.011736184358596802
v -0.0012293042382225394 -0.001066221739165485 0.011736184358596802
v -0.001187406131066382 -0.0009650707943364978 0.011736184358596802
v -0.001086255069822073 -0.0009231726871803403 0.011736184358596802
v -0.000985104008577764 -0.0009650708525441587 0.011736184358596802
v -0.0009851042414084077 -0.0011673729168251157 0.011736184358596802
v -0.0010862551862373948 -0.0012092710239812732 0.011736184358596802
v -0.0011874062474817038 -0.0011673729168251157 0.011736184358596802
v 0.002312460681423545 -0.0003118534805253148 0.011247294954955578
v 0.002247996162623167 -0.000247389281867072 0.011247294954955578
v 0.0021835321094840765 -0.0003118534223176539 0.011247294954955578
v 0.0022024132777005434 -0.000266270391875878 0.011247294954955578
v 0.0022935792803764343 -0.0002662703627720475 0.011247294954955578
v 0.0022479963954538107 -0.0003763175627682358 0.011247294954955578
v 0.0022935792803764343 -0.0003574364527594298 0.011247294954955578
v 0.0022024132777005434 -0.0003574365400709212 0.011247294954955578
v 0.002183531876653433 -0.0003118534805253148 0.011282606981694698
v 0.002156830159947276 -0.00022068734688218683 0.011282606981694698
v 0.002119068056344986 -0.00031185339321382344 0.011282606981694698
v 0.0022024132777005434 -0.00026627042097970843 0.011282606981694698
v 0.002247996162623167 -0.00018292512686457485 0.011282606981694698
v 0.002247996162623167 -0.000247389281867072 0.011282606981694698
v 0.0023391623981297016 -0.00022068734688218683 0.011282606981694698
v 0.0022935792803764343 -0.000266270391875878 0.011282606981694698
v 0.0023769245017319918 -0.0003118535387329757 0.011282606981694698
v 0.002312460681423545 -0.0003118534805253148 0.011282606981694698
v 0.0023391623981297016 -0.000403019628720358 0.011282606981694698
v 0.0022935792803764343 -0.0003574364527594298 0.011282606981694698
v 0.0022479959297925234 -0.00044078184873797 0.011282606981694698
v 0.0022479963954538107 -0.00037631759187206626 0.011282606981694698
v 0.0021568306256085634 -0.000403019628720358 0.011282606981694698
v 0.0022024132777005434 -0.0003574365400709212 0.011282606981694698
v 0.002156830159947276 -0.00022068736143410206 0.0113615607842803
v 0.002119068056344986 -0.000311853364109993 0.0113615607842803
v 0.0022479963954538107 -0.00018292512686457485 0.0113615607842803
v 0.0023391623981297016 -0.00022068741964176297 0.0113615607842803
v 0.0023769245017319918 -0.0003118535387329757 0.011361561715602875
v 0.0023391623981297016 -0.00040301954140886664 0.011361561715602875
v 0.002247996162623167 -0.0004407817032188177 0.011361561715602875
v 0.0021568306256085634 -0.0004030195123050362 0.011361561715602875
v 0.0022479963954538107 -0.0003118534805253148 0.011361561715602875
v 0.0022759377025067806 -0.0003017903654836118 0.011251307092607021
v 0.0022759377025067806 -0.0003017903654836118 0.011277871206402779
v 0.0019739617127925158 1.8047499906970188e-05 0.0112509960308671
v 0.001973961479961872 1.8046906916424632e-05 0.011277560144662857
v 0.002229022793471813 -0.0003487045469228178 0.011251307092607021
v 0.0019270471530035138 -2.886697075155098e-05 0.0112509960308671
v 0.002229022793471813 -0.00034870460513047874 0.011277871206402779
v 0.0019270469201728702 -2.886783295252826e-05 0.011277560144662857
v 0.00017733081767801195 0.0002832008758559823 0.01147150993347168
v 0.00017733096319716424 0.0005370129365473986 0.011411640793085098
v 0.000504261115565896 0.00046772396308369935 0.011389972642064095
v 0.0008407972636632621 0.0003004456521011889 0.011359995231032372
v -0.00035748063237406313 0.00032957716030068696 0.01142221037298441
v -0.00017655194096732885 0.0005012612091377378 0.01139909215271473
v 0.00017733126878738403 0.0006350022158585489 0.0112671023234725
v 0.0006146074738353491 0.0005370128201320767 0.011267104186117649
v 0.00106232357211411 0.00030044562299735844 0.011267104186117649
v -0.0005790066788904369 0.0003883520548697561 0.0112671023234725
v -0.0002983050071634352 0.0005705500952899456 0.0112671023234725
v 0.00017733141430653632 0.0005370129365473986 0.011122566647827625
v 0.0005042614066042006 0.00046772396308369935 0.011144233867526054
v 0.0008407978457398713 0.0003004456521011889 0.011174211278557777
v -0.000357480050297454 0.00032957716030068696 0.01111199613660574
v -0.00017655163537710905 0.0005012613255530596 0.01113511435687542
v 0.00017733141430653632 0.0002832009340636432 0.01106269657611847
v -4.016515852550695e-12 -0.005244583822786808 -2.6599956981954165e-05
v -5.8392490842607e-10 -6.430476787500083e-05 -2.6017129130195826e-05
v 2.660041536728386e-05 -0.005244583822786808 4.5564224615546323e-10
v 2.659983692865353e-05 -6.430476787500083e-05 5.835294700773375e-07
v 4.8621206887033974e-12 -0.005244583822786808 2.6600875571602955e-05
v -5.750463438758402e-10 -6.430476787500083e-05 2.7183888960280456e-05
v -2.660099562490359e-05 -6.430476787500083e-05 5.835294700773375e-07
v -2.660041536728386e-05 -0.005244583822786808 4.636753481168654e-10
v -1.1399444721504892e-09 2.6600073397275992e-05 6.829619087511674e-05
v -5.8392490842607e-10 -6.430476787500083e-05 -2.6017129130195826e-05
v -1.1399444721504892e-09 2.6600073397275992e-05 6.829619087511674e-05
v 2.659927304193843e-05 -3.45768275122893e-10 6.829619087511674e-05
v -1.1414243994423146e-09 -2.660075915628113e-05 6.829619087511674e-05
v -5.750463438758402e-10 -6.430476787500083e-05 2.7183888960280456e-05
v -1.1414243994423146e-09 -2.660075915628113e-05 6.829619087511674e-05
v -2.660155951161869e-05 -3.434427464643619e-10 6.829619087511674e-05
v 1.1627412357592681e-12 2.660041536728386e-05 0.011255010962486267
v 2.660041536728386e-05 -2.3254824715185363e-12 0.011255010962486267
v -3.1720676432756e-13 -2.660041536728386e-05 0.011255010962486267
v -2.660041536728386e-05 0.0 0.011255010962486267
v -0.0021335380151867867 -4.3819122765853535e-06 0.011096632108092308
v -0.0021335380151867867 -0.00012003441224806011 0.011130189523100853
v -0.0018335371278226376 -0.0005485660512931645 0.011267104186117649
v -0.0021335380151867867 -0.00018907188496086746 0.011267104186117649
v -0.0021335380151867867 -0.00018907188496086746 0.011267104186117649
v -0.0018335371278226376 -0.0005485660512931645 0.011267104186117649
v -0.0021335380151867867 -0.00012003440497210249 0.01140401791781187
v -0.0018335364293307066 -4.2849755118368194e-05 0.011682531796395779
v -0.0021335380151867867 -4.381889084470458e-06 0.011437575332820415
v -0.0021335380151867867 -4.381889084470458e-06 0.011437575332820415
v -0.0018335364293307066 -4.2849755118368194e-05 0.011682531796395779
v -0.0021335375495254993 0.00012382179556880146 0.01140401791781187
v -0.0021335375495254993 0.00019285923917777836 0.011267104186117649
v -0.0021335375495254993 0.00019285923917777836 0.011267104186117649
v -0.0018335359636694193 0.00043264575651846826 0.011267104186117649
v -0.002133537782356143 0.0001238218101207167 0.011130189523100853
v -0.001833536778576672 -4.284979513613507e-05 0.01085167657583952
v -0.0021335380151867867 -4.3819122765853535e-06 0.011096632108092308
v -0.001833536778576672 -4.284979513613507e-05 0.01085167657583952
v -0.0018335371278226376 -0.00038654441596008837 0.010973352007567883
v -0.0018335371278226376 -0.0005485660512931645 0.011267104186117649
v -0.0018335371278226376 -0.0005485660512931645 0.011267104186117649
v -0.001540868659503758 -0.0005815770127810538 0.011267104186117649
v -0.0018335371278226376 -0.0005485660512931645 0.011267104186117649
v -0.001833536894991994 -0.00038654444506391883 0.011560855433344841
v -0.0018335364293307066 -4.2849755118368194e-05 0.011682531796395779
v -0.0018335364293307066 -4.2849755118368194e-05 0.011682531796395779
v -0.0018335360800847411 0.0002958572586067021 0.011560855433344841
v -0.0018335359636694193 0.00043264575651846826 0.011267104186117649
v -0.0018335359636694193 0.00043264575651846826 0.011267104186117649
v -0.0015408674953505397 0.00046887545613572 0.011267104186117649
v -0.0018335363129153848 0.00029585728771053255 0.010973352007567883
v 0.00042784406105056405 -0.0005727313691750169 0.0112671023234725
v -0.001540868659503758 -0.0005815770127810538 0.011267104186117649
v 0.00042784406105056405 -0.0005727313691750169 0.0112671023234725
v 0.0004278452543076128 0.0004495731263887137 0.0112671023234725
v 0.0004278452543076128 0.0004495731263887137 0.0112671023234725
v 0.0008607141207903624 -0.0003199841012246907 0.0112671023234725
v 0.00042784406105056405 -0.0005727313691750169 0.0112671023234725
v 0.0008607141207903624 -0.0003199841012246907 0.0112671023234725
v 0.000860715052112937 0.0004145897109992802 0.0112671023234725
v 0.002684295177459717 9.145594231085852e-05 0.0112671023234725
v 0.000860715052112937 0.0004145897109992802 0.0112671023234725
v 0.002684295177459717 0.00018158394959755242 0.0112671023234725
v 0.002684295177459717 9.145594231085852e-05 0.0112671023234725
v 0.002684295177459717 0.00010465488594491035 0.011235238052904606
v 0.002684295177459717 0.00013651992776431143 0.01122203841805458
v 0.002684295177459717 0.00013651992776431143 0.011312166228890419
v 0.002684295177459717 0.00010465488594491035 0.011298967525362968
v 0.002684295177459717 0.00016838498413562775 0.011298967525362968
v 0.002684295177459717 0.00018158394959755242 0.0112671023234725
v 0.002684295177459717 0.00016838498413562775 0.011235238052904606
v -0.001479466212913394 0.000782147457357496 0.011275840923190117
v -0.0014794672606512904 0.0007821470499038696 0.00853064563125372
v -0.0014794650487601757 0.0007821478648111224 0.014021036215126514
v -0.0004470735730137676 0.0008517043315805495 0.010671159252524376
v -0.0004470735730137676 0.0007821462349966168 0.010671159252524376
v -0.000447074300609529 0.0008517038077116013 0.008083069697022438
v -0.000447074300609529 0.0007821457111276686 0.008083068765699863
v -0.0007719749119132757 0.000851704622618854 0.010948863811790943
v -0.0007719749119132757 0.0007821465260349214 0.010948863811790943
v -0.0004470735730137676 0.0007821462349966168 0.010671159252524376
v -0.000771974737290293 0.000851704622618854 0.011602816171944141
v -0.000771974737290293 0.0007821465842425823 0.011602816171944141
v -0.000447072961833328 0.0008517043897882104 0.011880521662533283
v -0.0004470728163141757 0.0007821462932042778 0.011880521662533283
v -0.000447071943199262 0.0008517048554494977 0.014468610286712646
v -0.0004470717685762793 0.0007821467588655651 0.014468610286712646
v -0.0009632685105316341 0.0008517053793184459 0.014303081668913364
v -0.0009632686269469559 0.0007821472827345133 0.014303081668913364
v -0.000447071943199262 0.0008517048554494977 0.014468610286712646
v -0.0004470717685762793 0.0007821467588655651 0.014468610286712646
v -0.0014794650487601757 0.0007821478648111224 0.014021036215126514
v -0.0009632707224227488 0.0008517043897882104 0.008248599246144295
v -0.0009632707806304097 0.0007821462932042778 0.008248599246144295
v -0.0014794672606512904 0.0007821470499038696 0.00853064563125372
v -0.000447074300609529 0.0008517038077116013 0.008083069697022438
v -0.000447074300609529 0.0007821457111276686 0.008083068765699863
v -0.0015387306921184063 -0.000509887293446809 0.011267121881246567
v -0.0015387317398563027 -0.0005098878173157573 0.008763700723648071
v -0.0015387296443805099 -0.0005098868859931827 0.013787980191409588
v -0.0005063378484919667 -0.0005098886322230101 0.011267121881246567
v -0.0005063380231149495 -0.0005708311218768358 0.011267121881246567
v -0.0005063390708528459 -0.0005098891560919583 0.008286561816930771
v -0.0005063391872681677 -0.000570831703953445 0.008286561816930771
v -0.0005063368007540703 -0.00050988799193874 0.014265117235481739
v -0.000506336975377053 -0.0005708305398002267 0.014265117235481739
v -0.0010225331643596292 -0.0005098874680697918 0.014110665768384933
v -0.001022533280774951 -0.0005708300159312785 0.014110665768384933
v -0.0005063368007540703 -0.00050988799193874 0.014265117235481739
v -0.000506336975377053 -0.0005708305398002267 0.014265117235481739
v -0.0015387296443805099 -0.0005098868859931827 0.013787980191409588
v -0.001022535259835422 -0.0005098885158076882 0.008441014215350151
v -0.0010225354926660657 -0.0005708310636691749 0.008441014215350151
v -0.0015387317398563027 -0.0005098878173157573 0.008763700723648071
v -0.0005063390708528459 -0.0005098891560919583 0.008286561816930771
v -0.0005063391872681677 -0.000570831703953445 0.008286561816930771
v 0.002902449807152152 0.00023657476413063705 0.011303337290883064
v 0.002902449807152152 0.00023657476413063705 0.01124279573559761
v 0.0026490420568734407 0.0012404320295900106 0.011303337290883064
v 0.0028915528673678637 0.0010383307235315442 0.011303337290883064
v 0.0030029783956706524 0.0007351838867180049 0.011303337290883064
v 0.002394996117800474 0.0012614915613085032 0.011303337290883064
v 0.0021950730588287115 0.0011330638080835342 0.011303337290883064
v 0.0029931729659438133 0.00041401194175705314 0.011303337290883064
v 0.0026631790678948164 0.00023651689116377383 0.011303337290883064
v 0.002902449807152152 0.00023657476413063705 0.011303337290883064
v 0.0026049900334328413 0.0001779244776116684 0.011303337290883064
v 0.0020950071047991514 0.0008887248113751411 0.011303337290883064
v 0.00196961616165936 0.000413742964155972 0.011303337290883064
v 0.001969745848327875 0.00022525183157995343 0.011303337290883064
v 0.002394996117800474 0.0012614915613085032 0.01124279573559761
v 0.0020950071047991514 0.0008887248113751411 0.01124279573559761
v 0.0021950730588287115 0.0011330638080835342 0.01124279573559761
v 0.0026490420568734407 0.0012404319131746888 0.01124279573559761
v 0.0028915528673678637 0.0010383307235315442 0.01124279573559761
v 0.0030029783956706524 0.0007351837120950222 0.01124279573559761
v 0.0029931729659438133 0.0004140120290685445 0.01124279573559761
v 0.00196961616165936 0.000413742964155972 0.01124279573559761
v 0.001969745848327875 0.00022525183157995343 0.01124279573559761
v 0.0026049900334328413 0.0001779244194040075 0.01124279573559761
v 0.0026631790678948164 0.00023651690571568906 0.01124279573559761
v 0.002902449807152152 0.00023657476413063705 0.01124279573559761
v 0.0019809091463685036 0.00036349857691675425 0.011275839991867542
v 0.0025433963164687157 0.00038487944402731955 0.011275838129222393
v 0.0019809091463685036 0.00036349857691675425 0.011275839991867542
v 0.0025433963164687157 0.0003421161381993443 0.011275838129222393
v 0.0019809091463685036 0.00036349857691675425 0.011275839991867542
v 0.0021746770944446325 0.0003634982858784497 0.010232537984848022
v 0.002174678258597851 0.0003634985478129238 0.012319140136241913
v 0.0025433963164687157 0.00038487944402731955 0.011275838129222393
v 0.0025433963164687157 0.0003421161381993443 0.011275838129222393
v 0.0027461766730993986 0.00038487909478135407 0.010114692151546478
v 0.0027461766730993986 0.00034211581805720925 0.010114692151546478
v 0.002746177837252617 0.0003848794149234891 0.012436985969543457
v 0.002746177837252617 0.00034211607999168336 0.012436985969543457
v 0.0025433963164687157 0.0003421161381993443 0.011275838129222393
v 0.002437897026538849 0.00038487985148094594 0.012453153729438782
v 0.002437897026538849 0.00034211654565297067 0.012453153729438782
v 0.002746177837252617 0.0003848794149234891 0.012436985969543457
v 0.002746177837252617 0.00034211607999168336 0.012436985969543457
v 0.002174678258597851 0.0003634985478129238 0.012319140136241913
v 0.0024378958623856306 0.0003848795604426414 0.010098523460328579
v 0.0024378958623856306 0.00034211628371849656 0.010098523460328579
v 0.0021746770944446325 0.0003634982858784497 0.010232537984848022
v 0.0027461766730993986 0.00038487909478135407 0.010114692151546478
v 0.0027461766730993986 0.00034211581805720925 0.010114692151546478
v -0.000664580031298101 -0.0005174566176719964 0.013793891295790672
v -0.0008853857289068401 0.0007866020314395428 0.01402655616402626
v -0.0007556281634606421 -0.0005174565012566745 0.013793891295790672
v -0.0009764336864463985 0.0007866020896472037 0.01402655616402626
v -0.0007556281634606421 -0.0005174565012566745 0.013730804435908794
v -0.0008853857289068401 0.00078660185681656 0.013963467441499233
v -0.000664580031298101 -0.0005174566176719964 0.013730804435908794
v -0.0009764338028617203 0.0007866017986088991 0.013963467441499233
v -0.0010133389150723815 -0.0005174562684260309 0.013669610023498535
v -0.001220625708810985 0.0007866020314395428 0.013902273029088974
v -0.0011043872218579054 -0.00051745621021837 0.013669610023498535
v -0.0013116738991811872 0.0007866023224778473 0.013902273029088974
v -0.0011043873382732272 -0.000517456152010709 0.013606522232294083
v -0.001220625708810985 0.0007866022060625255 0.013839186169207096
v -0.0010133390314877033 -0.00051745621021837 0.013606522232294083
v -0.0013116738991811872 0.0007866022642701864 0.013839186169207096
v -0.0010133389150723815 -0.0005174559773877263 0.008910808712244034
v -0.001220625708810985 0.0007866023806855083 0.008676361292600632
v -0.0011043872218579054 -0.0005174558609724045 0.008910808712244034
v -0.0013116737827658653 0.0007866026135161519 0.008676361292600632
v -0.0011043872218579054 -0.0005174558609724045 0.008847720921039581
v -0.001220625708810985 0.0007866023806855083 0.008613272570073605
v -0.0010133389150723815 -0.0005174559191800654 0.008847720921039581
v -0.0013116738991811872 0.0007866026135161519 0.008613272570073605
v -0.0006645798566751182 -0.0005174563848413527 0.008786526508629322
v -0.0008853855542838573 0.0007866023224778473 0.008552078157663345
v -0.0007556281634606421 -0.00051745621021837 0.008786526508629322
v -0.0009764337446540594 0.0007866023224778473 0.008552078157663345
v -0.0007556281634606421 -0.0005174562684260309 0.008723437786102295
v -0.0008853857289068401 0.0007866020896472037 0.008488989435136318
v -0.0006645798566751182 -0.0005174563266336918 0.008723437786102295
v -0.0009764337446540594 0.0007866022060625255 0.008488989435136318
v -0.001072640880011022 -0.0010690201306715608 0.011847438290715218
v -0.0007051004213280976 -0.0005619995063170791 0.011506547220051289
v -0.001138988183811307 -0.0010690197814255953 0.011847438290715218
v -0.0007714475505053997 -0.0005619993899017572 0.011506547220051289
v -0.001138988183811307 -0.0010690198978409171 0.011784350499510765
v -0.0007051004213280976 -0.00056199956452474 0.011443459428846836
v -0.001072640880011022 -0.0010690201306715608 0.011784350499510765
v -0.0007714475505053997 -0.0005619996809400618 0.011443461291491985
v -0.001250912668183446 -0.0005619993899017572 0.01160360872745514
v -0.0010133393807336688 -0.0010690194321796298 0.011782750487327576
v -0.001013339264318347 -0.0010690195485949516 0.011845666915178299
v -0.001250912668183446 -0.0005619993899017572 0.01160360872745514
v -0.0011640331940725446 -0.0010690196650102735 0.011845667846500874
v -0.0014016067143529654 -0.0005619993899017572 0.011443374678492546
v -0.0011640331940725446 -0.0010690196650102735 0.011845667846500874
v -0.0014016067143529654 -0.0005619991570711136 0.01160360872745514
v -0.0011640333104878664 -0.0010690196650102735 0.011782750487327576
v -0.001250912551768124 -0.0005619992734864354 0.011443373747169971
v -0.0010133393807336688 -0.0010690194321796298 0.011782750487327576
v -0.0014016067143529654 -0.0005619993899017572 0.011443374678492546
v -0.001072640880011022 -0.0010690194321796298 0.010723045095801353
v -0.0007051003049127758 -0.0005619989242404699 0.011063935235142708
v -0.0011389880673959851 -0.0010690190829336643 0.010723045095801353
v -0.000771447375882417 -0.0005619988078251481 0.011063935235142708
v -0.0010726407635957003 -0.0010690194321796298 0.010786132887005806
v -0.0007051003049127758 -0.0005619989824481308 0.011127022095024586
v -0.0011389880673959851 -0.0010690191993489861 0.010786132887005806
v -0.000771447375882417 -0.0005619991570711136 0.011127022095024586
v -0.001013339264318347 -0.0010690188501030207 0.01078773196786642
v -0.001250912551768124 -0.0005619989242404699 0.010966873727738857
v -0.0010133391479030252 -0.0010690188501030207 0.010724816471338272
v -0.001250912551768124 -0.0005619989242404699 0.010966873727738857
v -0.0011640331940725446 -0.0010690190829336643 0.010724814608693123
v -0.0014016065979376435 -0.0005619986914098263 0.010966873727738857
v -0.0011640331940725446 -0.0010690190829336643 0.010724814608693123
v -0.0014016064815223217 -0.0005619989824481308 0.01112710777670145
v -0.001013339264318347 -0.0010690188501030207 0.01078773196786642
v -0.0012509122025221586 -0.0005619987496174872 0.0111271096393466
v -0.0011640331940725446 -0.0010690190829336643 0.01078773196786642
v -0.0014016064815223217 -0.0005619989824481308 0.01112710777670145
v -0.0008001571986824274 -0.0010662220884114504 0.010777547955513
v -0.0008839531219564378 -0.0008639199077151716 0.010777547955513
v -0.001086255069822073 -0.000780123402364552 0.01077754981815815
v -0.0012885573087260127 -0.0008639195584692061 0.01077754981815815
v -0.0013723537558689713 -0.001066221622750163 0.01077754981815815
v -0.0012885576579719782 -0.0012685238616541028 0.01077754981815815
v -0.0010862556518986821 -0.0013523201923817396 0.01077754981815815
v -0.0008839535294100642 -0.0012685242109000683 0.01077754981815815
v -0.000800157489720732 -0.0010662222048267722 0.010602345690131187
v -0.0008839533547870815 -0.0008639199659228325 0.010602345690131187
v -0.0010862554190680385 -0.0007801234605722129 0.010602345690131187
v -0.0012885576579719782 -0.000863919616676867 0.010602346621453762
v -0.001372353988699615 -0.001066221622750163 0.010602346621453762
v -0.0012885581236332655 -0.0012685238616541028 0.010602346621453762
v -0.0010862560011446476 -0.0013523201923817396 0.010602345690131187
v -0.0008839538786560297 -0.0012685242109000683 0.010602345690131187
v -0.0010862551862373948 -0.0009231725707650185 0.01077754981815815
v -0.0009851042414084077 -0.0009650708525441587 0.010855906642973423
v -0.0009851042414084077 -0.0009650708525441587 0.01077754981815815
v -0.0010862551862373948 -0.0009231725707650185 0.010855906642973423
v -0.000943206250667572 -0.0010662219719961286 0.010855906642973423
v -0.000943206250667572 -0.0010662219719961286 0.01077754981815815
v -0.001229304587468505 -0.001066221622750163 0.01077754981815815
v -0.0011874062474817038 -0.000965070619713515 0.010855906642973423
v -0.0011874062474817038 -0.000965070619713515 0.01077754981815815
v -0.001229304587468505 -0.001066221622750163 0.010855906642973423
v -0.0010862555354833603 -0.0012092710239812732 0.01077754981815815
v -0.0011874064803123474 -0.0011673728004097939 0.010855906642973423
v -0.0011874064803123474 -0.0011673728004097939 0.01077754981815815
v -0.0010862555354833603 -0.0012092710239812732 0.010855906642973423
v -0.0009851044742390513 -0.0011673730332404375 0.010855906642973423
v -0.0009851044742390513 -0.0011673730332404375 0.01077754981815815
v -0.0013723537558689713 -0.0010662218555808067 0.011814541183412075
v -0.0012885573087260127 -0.0008639197330921888 0.011814541183412075
v -0.0010862551862373948 -0.0007801234605722129 0.011814543046057224
v -0.000883953005541116 -0.0008639197330921888 0.011814543046057224
v -0.0008001568494364619 -0.0010662219719961286 0.011814543046057224
v -0.0008839533547870815 -0.0012685238616541028 0.011814543046057224
v -0.0010862554190680385 -0.0013523203087970614 0.011814541183412075
v -0.0012885573087260127 -0.0012685238616541028 0.011814541183412075
v -0.0013723537558689713 -0.001066221739165485 0.011989746242761612
v -0.0012885573087260127 -0.0008639196748845279 0.011989746242761612
v -0.0010862551862373948 -0.000780123402364552 0.011989746242761612
v -0.0008839531219564378 -0.0008639197330921888 0.011989746242761612
v -0.0008001568494364619 -0.0010662218555808067 0.011989746242761612
v -0.0008839532383717597 -0.0012685240944847465 0.011989746242761612
v -0.0010862553026527166 -0.0013523203087970614 0.011989746242761612
v -0.0012885573087260127 -0.0012685238616541028 0.011989746242761612
v -0.0010862551862373948 -0.0009231726871803403 0.011814543046057224
v -0.001187406131066382 -0.0009650707943364978 0.011736184358596802
v -0.0011874062474817038 -0.0009650707943364978 0.011814543046057224
v -0.001086255069822073 -0.0009231726871803403 0.011736184358596802
v -0.0012293042382225394 -0.001066221739165485 0.011736184358596802
v -0.001229304471053183 -0.001066221739165485 0.011814541183412075
v -0.0009432060760445893 -0.0010662218555808067 0.011814543046057224
v -0.000985104008577764 -0.0009650708525441587 0.011736184358596802
v -0.0009851042414084077 -0.0009650708525441587 0.011814543046057224
v -0.0009432059596292675 -0.0010662218555808067 0.011736184358596802
v -0.0010862551862373948 -0.0012092710239812732 0.011814543046057224
v -0.0009851042414084077 -0.0011673729168251157 0.011736184358596802
v -0.0009851042414084077 -0.0011673729168251157 0.011814543046057224
v -0.0010862551862373948 -0.0012092710239812732 0.011736184358596802
v -0.0011874062474817038 -0.0011673729168251157 0.011736184358596802
v -0.0011874062474817038 -0.0011673729168251157 0.011814543046057224
v 0.002119068056344986 -0.00031185339321382344 0.011282606981694698
v 0.002156830159947276 -0.00022068734688218683 0.011282606981694698
v 0.002247996162623167 -0.00018292512686457485 0.011282606981694698
v 0.0023391623981297016 -0.00022068734688218683 0.011282606981694698
v 0.0023769245017319918 -0.0003118535387329757 0.011282606981694698
v 0.0023391623981297016 -0.000403019628720358 0.011282606981694698
v 0.0022479959297925234 -0.00044078184873797 0.011282606981694698
v 0.0021568306256085634 -0.000403019628720358 0.011282606981694698
v 0.002119068056344986 -0.000311853364109993 0.0113615607842803
v 0.002156830159947276 -0.00022068736143410206 0.0113615607842803
v 0.0022479963954538107 -0.00018292512686457485 0.0113615607842803
v 0.0023391623981297016 -0.00022068741964176297 0.0113615607842803
v 0.0023769245017319918 -0.0003118535387329757 0.011361561715602875
v 0.0023391623981297016 -0.00040301954140886664 0.011361561715602875
v 0.002247996162623167 -0.0004407817032188177 0.011361561715602875
v 0.0021568306256085634 -0.0004030195123050362 0.011361561715602875
v 0.002247996162623167 -0.000247389281867072 0.011282606981694698
v 0.0022024132777005434 -0.000266270391875878 0.011247294954955578
v 0.0022024132777005434 -0.00026627042097970843 0.011282606981694698
v 0.002247996162623167 -0.000247389281867072 0.011247294954955578
v 0.0021835321094840765 -0.0003118534223176539 0.011247294954955578
v 0.002183531876653433 -0.0003118534805253148 0.011282606981694698
v 0.002312460681423545 -0.0003118534805253148 0.011282606981694698
v 0.0022935792803764343 -0.0002662703627720475 0.011247294954955578
v 0.0022935792803764343 -0.000266270391875878 0.011282606981694698
v 0.002312460681423545 -0.0003118534805253148 0.011247294954955578
v 0.0022479963954538107 -0.00037631759187206626 0.011282606981694698
v 0.0022935792803764343 -0.0003574364527594298 0.011247294954955578
v 0.0022935792803764343 -0.0003574364527594298 0.011282606981694698
v 0.0022479963954538107 -0.0003763175627682358 0.011247294954955578
v 0.0022024132777005434 -0.0003574365400709212 0.011247294954955578
v 0.0022024132777005434 -0.0003574365400709212 0.011282606981694698
v 0.0022759377025067806 -0.0003017903654836118 0.011251307092607021
v 0.0019739617127925158 1.8047499906970188e-05 0.0112509960308671
v 0.002229022793471813 -0.0003487045469228178 0.011251307092607021
v 0.0019270471530035138 -2.886697075155098e-05 0.0112509960308671
v 0.0022759377025067806 -0.0003017903654836118 0.011277871206402779
v 0.001973961479961872 1.8046906916424632e-05 0.011277560144662857
v 0.002229022793471813 -0.00034870460513047874 0.011277871206402779
v 0.0019270469201728702 -2.886783295252826e-05 0.011277560144662857
v 0.0006146074738353491 0.0005370128201320767 0.011267104186117649
v 0.00017733126878738403 0.0006350022158585489 0.0112671023234725
v 0.00106232357211411 0.00030044562299735844 0.011267104186117649
v -0.0005790066788904369 0.0003883520548697561 0.0112671023234725
v -0.0002983050071634352 0.0005705500952899456 0.0112671023234725
g submesh_0
f 345 343 344
f 350 348 349
f 64 384 385
f 175 174 176
f 177 529 530
f 180 533 181
f 536 534 535
f 190 191 192
f 550 193 549
f 553 196 197
f 556 554 555
f 2 1 6
f 6 1 5
f 6 5 330
f 3 322 7
f 7 322 323
f 7 323 11
f 4 324 8
f 8 324 325
f 8 325 334
f 329 326 328
f 328 326 327
f 328 327 337
f 13 14 9
f 9 14 10
f 9 10 5
f 338 15 332
f 332 15 11
f 332 11 331
f 339 16 333
f 333 16 12
f 333 12 325
f 340 341 336
f 336 341 337
f 336 337 335
f 22 23 21
f 21 23 18
f 21 18 17
f 17 18 19
f 21 17 20
f 18 23 24
f 27 343 26
f 26 343 342
f 26 342 25
f 29 348 28
f 28 348 346
f 28 346 347
f 31 354 353
f 31 353 30
f 30 353 351
f 30 351 352
f 358 359 357
f 358 357 32
f 32 357 355
f 32 355 356
f 371 372 40
f 371 40 373
f 373 40 33
f 373 33 360
f 360 33 34
f 360 34 361
f 361 34 35
f 361 35 362
f 363 364 36
f 36 364 44
f 36 44 45
f 45 44 53
f 45 53 54
f 54 53 62
f 54 62 63
f 63 55 54
f 54 55 46
f 54 46 45
f 45 46 37
f 45 37 36
f 36 37 366
f 36 366 365
f 368 38 369
f 369 38 39
f 369 39 370
f 35 34 374
f 375 376 44
f 44 376 52
f 44 52 53
f 53 52 61
f 53 61 62
f 39 38 377
f 379 43 42
f 42 43 34
f 42 34 33
f 380 381 52
f 52 381 60
f 52 60 61
f 60 381 383
f 387 388 386
f 386 388 393
f 386 393 392
f 392 391 386
f 386 391 389
f 386 389 390
f 73 74 71
f 71 74 67
f 71 67 65
f 65 67 66
f 74 75 68
f 68 75 72
f 68 72 69
f 69 72 70
f 394 395 82
f 394 82 78
f 78 82 76
f 78 76 77
f 396 394 79
f 396 79 83
f 83 79 80
f 83 80 81
f 400 399 398
f 398 399 397
f 408 409 406
f 406 409 407
f 406 407 404
f 404 407 405
f 404 405 401
f 401 405 402
f 401 402 397
f 397 402 403
f 413 412 411
f 411 412 410
f 411 410 414
f 418 419 415
f 415 419 416
f 415 416 417
f 89 90 87
f 87 90 85
f 87 85 84
f 90 91 85
f 85 91 88
f 85 88 86
f 422 420 93
f 93 420 95
f 93 95 92
f 422 93 96
f 96 93 94
f 420 421 95
f 427 428 423
f 423 428 424
f 423 424 425
f 425 424 426
f 432 431 430
f 430 431 429
f 430 429 433
f 437 438 434
f 434 438 435
f 434 435 436
f 110 109 107
f 110 107 108
f 108 107 105
f 108 105 106
f 100 98 97
f 97 98 114
f 97 114 113
f 113 114 118
f 113 118 117
f 117 118 439
f 117 439 440
f 442 441 115
f 115 441 444
f 115 444 445
f 442 115 443
f 443 115 119
f 443 119 446
f 446 119 447
f 446 447 448
f 112 449 119
f 119 449 447
f 101 103 104
f 104 103 116
f 104 116 450
f 450 116 120
f 450 120 451
f 451 120 111
f 451 111 452
f 457 458 456
f 456 458 454
f 456 454 453
f 453 454 455
f 464 463 460
f 460 463 462
f 460 462 461
f 127 125 124
f 124 125 122
f 124 122 121
f 123 466 126
f 126 466 465
f 126 465 128
f 129 130 132
f 132 130 467
f 132 467 470
f 471 469 133
f 133 469 468
f 133 468 131
f 475 474 473
f 473 474 472
f 478 472 477
f 477 472 476
f 482 481 480
f 480 481 479
f 480 479 483
f 487 488 484
f 484 488 485
f 484 485 486
f 135 134 139
f 139 134 138
f 137 489 141
f 141 489 490
f 136 491 140
f 140 491 492
f 495 493 494
f 494 493 496
f 143 142 144
f 144 142 145
f 146 497 147
f 147 497 498
f 148 499 149
f 149 499 500
f 503 501 502
f 502 501 504
f 151 150 152
f 152 150 153
f 154 505 155
f 155 505 506
f 156 507 157
f 157 507 508
f 511 509 510
f 510 509 512
f 159 158 160
f 160 158 161
f 162 513 163
f 163 513 514
f 164 515 165
f 165 515 516
f 519 517 518
f 518 517 520
f 167 166 168
f 168 166 169
f 170 521 171
f 171 521 522
f 172 523 173
f 173 523 524
f 527 525 526
f 526 525 528
f 178 531 179
f 179 531 532
f 539 537 538
f 538 537 540
f 185 182 184
f 184 182 183
f 542 541 187
f 187 541 186
f 544 543 189
f 189 543 188
f 548 547 546
f 546 547 545
f 552 551 195
f 195 551 194
f 560 559 558
f 558 559 557
f 228 229 223
f 223 229 224
f 223 224 226
f 226 224 225
f 227 223 226
f 224 229 230
f 261 262 256
f 256 262 257
f 256 257 259
f 259 257 258
f 260 256 259
f 257 262 263
f 270 269 264
f 264 269 266
f 264 266 265
f 265 266 267
f 268 264 265
f 266 269 271
f 300 298 299
f 299 298 297
f 658 657 302
f 302 657 301
f 660 659 304
f 304 659 303
f 664 663 662
f 662 663 661
f 55 47 46
f 46 47 38
f 46 38 37
f 37 38 367
f 37 367 366
f 372 378 48
f 48 378 56
f 48 56 49
f 49 56 57
f 49 57 58
f 59 51 50
f 50 51 42
f 50 42 41
f 41 42 33
f 41 33 40
f 378 382 56
f 56 382 64
f 56 64 57
f 40 372 48
f 40 48 41
f 41 48 49
f 41 49 50
f 50 49 58
f 50 58 59
f 74 68 67
f 78 79 394
f 101 104 102
f 101 102 99
f 99 102 100
f 99 100 97
f 464 460 459
f 459 460 454
f 459 454 458
f 199 207 200
f 200 207 208
f 200 208 201
f 201 208 209
f 201 209 202
f 202 209 210
f 202 210 198
f 198 210 211
f 198 211 203
f 203 211 212
f 203 212 204
f 204 212 213
f 204 213 205
f 205 213 206
f 205 206 199
f 199 206 207
f 561 215 562
f 562 215 216
f 562 216 563
f 563 216 217
f 563 217 564
f 564 217 218
f 564 218 565
f 565 218 219
f 565 219 566
f 566 219 220
f 566 220 567
f 567 220 221
f 567 221 568
f 568 221 214
f 568 214 561
f 561 214 215
f 571 570 222
f 222 570 569
f 222 569 576
f 574 573 222
f 222 573 572
f 222 572 571
f 576 575 222
f 222 575 574
f 578 577 580
f 580 577 585
f 580 585 584
f 584 585 583
f 584 583 586
f 586 583 589
f 586 589 588
f 588 589 587
f 588 587 590
f 590 587 592
f 590 592 591
f 591 592 582
f 591 582 581
f 581 582 579
f 581 579 578
f 578 579 577
f 232 240 233
f 233 240 241
f 233 241 234
f 234 241 242
f 234 242 235
f 235 242 243
f 235 243 231
f 231 243 244
f 231 244 236
f 236 244 245
f 236 245 237
f 237 245 246
f 237 246 238
f 238 246 239
f 238 239 232
f 232 239 240
f 593 248 594
f 594 248 249
f 594 249 595
f 595 249 250
f 595 250 596
f 596 250 251
f 596 251 597
f 597 251 252
f 597 252 598
f 598 252 253
f 598 253 599
f 599 253 254
f 599 254 600
f 600 254 247
f 600 247 593
f 593 247 248
f 603 602 255
f 255 602 601
f 255 601 608
f 606 605 255
f 255 605 604
f 255 604 603
f 608 607 255
f 255 607 606
f 610 609 612
f 612 609 617
f 612 617 616
f 616 617 615
f 616 615 618
f 618 615 621
f 618 621 620
f 620 621 619
f 620 619 622
f 622 619 624
f 622 624 623
f 623 624 614
f 623 614 613
f 613 614 611
f 613 611 610
f 610 611 609
f 272 273 275
f 275 273 276
f 275 276 277
f 277 276 278
f 277 278 279
f 279 278 280
f 279 280 281
f 281 280 282
f 281 282 283
f 283 282 284
f 283 284 285
f 285 284 286
f 285 286 287
f 287 286 274
f 287 274 272
f 272 274 273
f 625 288 626
f 626 288 290
f 626 290 627
f 627 290 291
f 627 291 628
f 628 291 292
f 628 292 629
f 629 292 293
f 629 293 630
f 630 293 294
f 630 294 631
f 631 294 295
f 631 295 632
f 632 295 289
f 632 289 625
f 625 289 288
f 635 634 296
f 296 634 633
f 296 633 640
f 638 637 296
f 296 637 636
f 296 636 635
f 640 639 296
f 296 639 638
f 642 641 644
f 644 641 649
f 644 649 648
f 648 649 647
f 648 647 650
f 650 647 653
f 650 653 652
f 652 653 651
f 652 651 654
f 654 651 656
f 654 656 655
f 655 656 646
f 655 646 645
f 645 646 643
f 645 643 642
f 642 643 641
f 308 313 307
f 308 307 305
f 305 307 306
f 305 306 310
f 310 306 315
f 310 315 314
f 314 309 310
f 310 309 305
f 311 315 306
f 311 306 312
f 312 306 307
f 312 307 313
f 319 668 320
f 320 668 669
f 320 669 316
f 316 669 666
f 316 666 665
f 320 316 321
f 321 316 317
f 321 317 318
f 318 317 667
f 667 317 665
f 665 317 316
f 320 321 319
