# 13
v 0.17696622014045715 -0.1719740331172943 -0.10097404569387436
v 0.2231224924325943 -0.1719740331172943 -0.10097404569387436
v 0.2231224924325943 0.27802595496177673 -0.10097404569387436
v 0.35628843307495117 0.27802595496177673 -0.10097404569387436
v 0.41022124886512756 0.22459226846694946 -0.10097404569387436
v 0.41022124886512756 0.16131779551506042 -0.10097404569387436
v 0.35669004917144775 0.16131779551506042 -0.10097404569387436
v 0.35669004917144775 -0.1719740331172943 -0.10097404569387436
v 0.4028462767601013 -0.1719740331172943 -0.10097404569387436
v 0.4028462767601013 -0.27802595496177673 -0.10097404569387436
v 0.17696622014045715 -0.27802595496177673 -0.10097404569387436
v -0.41022124886512756 -0.008032798767089844 -0.10097404569387436
v -0.37520238757133484 0.028345203027129173 -0.10097404569387436
v -0.41022124886512756 0.06846090406179428 -0.10097404569387436
v -0.41022124886512756 0.18625691533088684 -0.10097404569387436
v -0.31826454401016235 0.27802595496177673 -0.10097404569387436
v -0.11964951455593109 0.27802595496177673 -0.10097404569387436
v -0.03616933897137642 0.19649823009967804 -0.10097404569387436
v -0.03616933897137642 0.12397405505180359 -0.10097404569387436
v -0.1542212814092636 0.12397405505180359 -0.10097404569387436
v -0.1542212814092636 0.17697404325008392 -0.10097404569387436
v -0.2811693847179413 0.17697404325008392 -0.10097404569387436
v -0.2811693847179413 0.06702596694231033 -0.10097404569387436
v -0.2263881117105484 0.06702596694231033 -0.10097404569387436
v -0.2263881117105484 -0.018025951460003853 -0.10097404569387436
v -0.2811693847179413 -0.018025951460003853 -0.10097404569387436
v -0.2811693847179413 -0.1719740331172943 -0.10097404569387436
v -0.1542212814092636 -0.1719740331172943 -0.10097404569387436
v -0.1542212814092636 -0.0809740424156189 -0.10097404569387436
v -0.02516935206949711 -0.0809740424156189 -0.10097404569387436
v -0.02516935206949711 -0.18680259585380554 -0.10097404569387436
v -0.11621860414743423 -0.27802595496177673 -0.10097404569387436
v -0.31912851333618164 -0.27802595496177673 -0.10097404569387436
v -0.41022124886512756 -0.18623660504817963 -0.10097404569387436
v 0.15099218487739563 -0.1459999978542328 -0.07499999552965164
v 0.19714845716953278 -0.1459999978542328 -0.07499999552965164
v 0.19714845716953278 0.30399999022483826 -0.07499999552965164
v 0.3669765293598175 0.30399999022483826 -0.07499999552965164
v 0.4361952841281891 0.23542188107967377 -0.07499999552965164
v 0.4361952841281891 0.1353437602519989 -0.07499999552965164
v 0.38266411423683167 0.1353437602519989 -0.07499999552965164
v 0.38266411423683167 -0.1459999978542328 -0.07499999552965164
v 0.42882034182548523 -0.1459999978542328 -0.07499999552965164
v 0.42882034182548523 -0.30399999022483826 -0.07499999552965164
v 0.15099218487739563 -0.30399999022483826 -0.07499999552965164
v -0.4361952841281891 0.0024375151842832565 -0.07499999552965164
v -0.4104296863079071 0.029203128069639206 -0.07499999552965164
v -0.4361952841281891 0.05871877446770668 -0.07499999552965164
v -0.4361952841281891 0.19703125953674316 -0.07499999552965164
v -0.3290078043937683 0.30399999022483826 -0.07499999552965164
v -0.1090703010559082 0.30399999022483826 -0.07499999552965164
v -0.010195293463766575 0.20743748545646667 -0.07499999552965164
v -0.010195293463766575 0.09800001233816147 -0.07499999552965164
v -0.18019533157348633 0.09800001233816147 -0.07499999552965164
v -0.18019533157348633 0.1509999930858612 -0.07499999552965164
v -0.2551953196525574 0.1509999930858612 -0.07499999552965164
v -0.2551953196525574 0.09300000965595245 -0.07499999552965164
v -0.20041406154632568 0.09300000965595245 -0.07499999552965164
v -0.20041406154632568 -0.04399999603629112 -0.07499999552965164
v -0.2551953196525574 -0.04399999603629112 -0.07499999552965164
v -0.2551953196525574 -0.1459999978542328 -0.07499999552965164
v -0.18019533157348633 -0.1459999978542328 -0.07499999552965164
v -0.18019533157348633 -0.054999999701976776 -0.07499999552965164
v 0.000804691284429282 -0.054999999701976776 -0.07499999552965164
v 0.000804691284429282 -0.19754688441753387 -0.07499999552965164
v -0.1054452657699585 -0.30399999022483826 -0.07499999552965164
v -0.32994529604911804 -0.30399999022483826 -0.07499999552965164
v -0.4361952841281891 -0.19693748652935028 -0.07499999552965164
v 0.15099218487739563 -0.1459999978542328 0.07499999552965164
v 0.19714845716953278 -0.1459999978542328 0.07499999552965164
v 0.19714845716953278 0.30399999022483826 0.07499999552965164
v 0.3669765293598175 0.30399999022483826 0.07499999552965164
v 0.4361952841281891 0.23542188107967377 0.07499999552965164
v 0.4361952841281891 0.1353437602519989 0.07499999552965164
v 0.38266411423683167 0.1353437602519989 0.07499999552965164
v 0.38266411423683167 -0.1459999978542328 0.07499999552965164
v 0.42882034182548523 -0.1459999978542328 0.07499999552965164
v 0.42882034182548523 -0.30399999022483826 0.07499999552965164
v 0.15099218487739563 -0.30399999022483826 0.07499999552965164
v -0.4361952841281891 0.0024375151842832565 0.07499999552965164
v -0.4104296863079071 0.029203128069639206 0.07499999552965164
v -0.4361952841281891 0.05871877446770668 0.07499999552965164
v -0.4361952841281891 0.19703125953674316 0.07499999552965164
v -0.3290078043937683 0.30399999022483826 0.07499999552965164
v -0.1090703010559082 0.30399999022483826 0.07499999552965164
v -0.010195293463766575 0.20743748545646667 0.07499999552965164
v -0.010195293463766575 0.09800001233816147 0.07499999552965164
v -0.18019533157348633 0.09800001233816147 0.07499999552965164
v -0.18019533157348633 0.1509999930858612 0.07499999552965164
v -0.2551953196525574 0.1509999930858612 0.07499999552965164
v -0.2551953196525574 0.09300000965595245 0.07499999552965164
v -0.20041406154632568 0.09300000965595245 0.07499999552965164
v -0.20041406154632568 -0.04399999603629112 0.07499999552965164
v -0.2551953196525574 -0.04399999603629112 0.07499999552965164
v -0.2551953196525574 -0.1459999978542328 0.07499999552965164
v -0.18019533157348633 -0.1459999978542328 0.07499999552965164
v -0.18019533157348633 -0.054999999701976776 0.07499999552965164
v 0.000804691284429282 -0.054999999701976776 0.07499999552965164
v 0.000804691284429282 -0.19754688441753387 0.07499999552965164
v -0.1054452657699585 -0.30399999022483826 0.07499999552965164
v -0.32994529604911804 -0.30399999022483826 0.07499999552965164
v -0.4361952841281891 -0.19693748652935028 0.07499999552965164
v 0.17696622014045715 -0.1719740331172943 0.10097404569387436
v 0.2231224924325943 -0.1719740331172943 0.10097404569387436
v 0.2231224924325943 0.27802595496177673 0.10097404569387436
v 0.35628843307495117 0.27802595496177673 0.10097404569387436
v 0.41022124886512756 0.22459226846694946 0.10097404569387436
v 0.41022124886512756 0.16131779551506042 0.10097404569387436
v 0.35669004917144775 0.16131779551506042 0.10097404569387436
v 0.35669004917144775 -0.1719740331172943 0.10097404569387436
v 0.4028462767601013 -0.1719740331172943 0.10097404569387436
v 0.4028462767601013 -0.27802595496177673 0.10097404569387436
v 0.17696622014045715 -0.27802595496177673 0.10097404569387436
v -0.41022124886512756 -0.008032798767089844 0.10097404569387436
v -0.37520238757133484 0.028345203027129173 0.10097404569387436
v -0.41022124886512756 0.06846090406179428 0.10097404569387436
v -0.41022124886512756 0.18625691533088684 0.10097404569387436
v -0.31826454401016235 0.27802595496177673 0.10097404569387436
v -0.11964951455593109 0.27802595496177673 0.10097404569387436
v -0.03616933897137642 0.19649823009967804 0.10097404569387436
v -0.03616933897137642 0.12397405505180359 0.10097404569387436
v -0.1542212814092636 0.12397405505180359 0.10097404569387436
v -0.1542212814092636 0.17697404325008392 0.10097404569387436
v -0.2811693847179413 0.17697404325008392 0.10097404569387436
v -0.2811693847179413 0.06702596694231033 0.10097404569387436
v -0.2263881117105484 0.06702596694231033 0.10097404569387436
v -0.2263881117105484 -0.018025951460003853 0.10097404569387436
v -0.2811693847179413 -0.018025951460003853 0.10097404569387436
v -0.2811693847179413 -0.1719740331172943 0.10097404569387436
v -0.1542212814092636 -0.1719740331172943 0.10097404569387436
v -0.1542212814092636 -0.0809740424156189 0.10097404569387436
v -0.02516935206949711 -0.0809740424156189 0.10097404569387436
v -0.02516935206949711 -0.18680259585380554 0.10097404569387436
v -0.11621860414743423 -0.27802595496177673 0.10097404569387436
v -0.31912851333618164 -0.27802595496177673 0.10097404569387436
v -0.41022124886512756 -0.18623660504817963 0.10097404569387436
v 0.19714845716953278 -0.1459999978542328 -0.07499999552965164
v 0.19714845716953278 -0.1459999978542328 0.07499999552965164
v 0.19714845716953278 0.30399999022483826 -0.07499999552965164
v 0.19714845716953278 0.30399999022483826 0.07499999552965164
v 0.3669765293598175 0.30399999022483826 -0.07499999552965164
v 0.3669765293598175 0.30399999022483826 0.07499999552965164
v 0.4361952841281891 0.23542188107967377 -0.07499999552965164
v 0.4361952841281891 0.23542188107967377 0.07499999552965164
v 0.4361952841281891 0.1353437602519989 -0.07499999552965164
v 0.4361952841281891 0.1353437602519989 0.07499999552965164
v 0.38266411423683167 0.1353437602519989 -0.07499999552965164
v 0.38266411423683167 0.1353437602519989 0.07499999552965164
v 0.38266411423683167 -0.1459999978542328 -0.07499999552965164
v 0.38266411423683167 -0.1459999978542328 0.07499999552965164
v 0.42882034182548523 -0.1459999978542328 -0.07499999552965164
v 0.42882034182548523 -0.1459999978542328 0.07499999552965164
v 0.42882034182548523 -0.30399999022483826 -0.07499999552965164
v 0.42882034182548523 -0.30399999022483826 0.07499999552965164
v 0.15099218487739563 -0.30399999022483826 -0.07499999552965164
v 0.15099218487739563 -0.30399999022483826 0.07499999552965164
v 0.15099218487739563 -0.1459999978542328 -0.07499999552965164
v 0.15099218487739563 -0.1459999978542328 0.07499999552965164
v -0.4104296863079071 0.029203128069639206 -0.07499999552965164
v -0.4104296863079071 0.029203128069639206 0.07499999552965164
v -0.4361952841281891 0.19703125953674316 -0.07499999552965164
v -0.4361952841281891 0.19703125953674316 0.07499999552965164
v -0.3290078043937683 0.30399999022483826 -0.07499999552965164
v -0.3290078043937683 0.30399999022483826 0.07499999552965164
v -0.1090703010559082 0.30399999022483826 -0.07499999552965164
v -0.1090703010559082 0.30399999022483826 0.07499999552965164
v -0.010195293463766575 0.20743748545646667 -0.07499999552965164
v -0.010195293463766575 0.20743748545646667 0.07499999552965164
v -0.010195293463766575 0.09800001233816147 -0.07499999552965164
v -0.010195293463766575 0.09800001233816147 0.07499999552965164
v -0.18019533157348633 0.09800001233816147 -0.07499999552965164
v -0.18019533157348633 0.09800001233816147 0.07499999552965164
v -0.18019533157348633 0.1509999930858612 -0.07499999552965164
v -0.18019533157348633 0.1509999930858612 0.07499999552965164
v -0.2551953196525574 0.1509999930858612 -0.07499999552965164
v -0.2551953196525574 0.1509999930858612 0.07499999552965164
v -0.2551953196525574 0.09300000965595245 -0.07499999552965164
v -0.2551953196525574 0.09300000965595245 0.07499999552965164
v -0.20041406154632568 0.09300000965595245 -0.07499999552965164
v -0.20041406154632568 0.09300000965595245 0.07499999552965164
v -0.20041406154632568 -0.04399999603629112 -0.07499999552965164
v -0.20041406154632568 -0.04399999603629112 0.07499999552965164
v -0.2551953196525574 -0.04399999603629112 -0.07499999552965164
v -0.2551953196525574 -0.04399999603629112 0.07499999552965164
v -0.2551953196525574 -0.1459999978542328 -0.07499999552965164
v -0.2551953196525574 -0.1459999978542328 0.07499999552965164
v -0.18019533157348633 -0.1459999978542328 -0.07499999552965164
v -0.18019533157348633 -0.1459999978542328 0.07499999552965164
v -0.18019533157348633 -0.054999999701976776 -0.07499999552965164
v -0.18019533157348633 -0.054999999701976776 0.07499999552965164
v 0.000804691284429282 -0.054999999701976776 -0.07499999552965164
v 0.000804691284429282 -0.054999999701976776 0.07499999552965164
v -0.1054452657699585 -0.30399999022483826 -0.07499999552965164
v -0.1054452657699585 -0.30399999022483826 0.07499999552965164
v -0.32994529604911804 -0.30399999022483826 -0.07499999552965164
v -0.32994529604911804 -0.30399999022483826 0.07499999552965164
v 0.19714845716953278 -0.1459999978542328 -0.07499999552965164
v 0.17696622014045715 -0.1719740331172943 -0.10097404569387436
v 0.15099218487739563 -0.1459999978542328 -0.07499999552965164
v 0.2231224924325943 -0.1719740331172943 -0.10097404569387436
v 0.19714845716953278 0.30399999022483826 -0.07499999552965164
v 0.2231224924325943 -0.1719740331172943 -0.10097404569387436
v 0.19714845716953278 -0.1459999978542328 -0.07499999552965164
v 0.2231224924325943 0.27802595496177673 -0.10097404569387436
v 0.3669765293598175 0.30399999022483826 -0.07499999552965164
v 0.2231224924325943 0.27802595496177673 -0.10097404569387436
v 0.19714845716953278 0.30399999022483826 -0.07499999552965164
v 0.35628843307495117 0.27802595496177673 -0.10097404569387436
v 0.4361952841281891 0.23542188107967377 -0.07499999552965164
v 0.3669765293598175 0.30399999022483826 -0.07499999552965164
v 0.41022124886512756 0.22459226846694946 -0.10097404569387436
v 0.4361952841281891 0.23542188107967377 -0.07499999552965164
v 0.41022124886512756 0.16131779551506042 -0.10097404569387436
v 0.38266411423683167 0.1353437602519989 -0.07499999552965164
v 0.41022124886512756 0.16131779551506042 -0.10097404569387436
v 0.4361952841281891 0.1353437602519989 -0.07499999552965164
v 0.35669004917144775 0.16131779551506042 -0.10097404569387436
v 0.35669004917144775 0.16131779551506042 -0.10097404569387436
v 0.35669004917144775 -0.1719740331172943 -0.10097404569387436
v 0.42882034182548523 -0.1459999978542328 -0.07499999552965164
v 0.35669004917144775 -0.1719740331172943 -0.10097404569387436
v 0.38266411423683167 -0.1459999978542328 -0.07499999552965164
v 0.4028462767601013 -0.1719740331172943 -0.10097404569387436
v 0.4028462767601013 -0.1719740331172943 -0.10097404569387436
v 0.4028462767601013 -0.27802595496177673 -0.10097404569387436
v 0.15099218487739563 -0.30399999022483826 -0.07499999552965164
v 0.4028462767601013 -0.27802595496177673 -0.10097404569387436
v 0.42882034182548523 -0.30399999022483826 -0.07499999552965164
v 0.17696622014045715 -0.27802595496177673 -0.10097404569387436
v 0.15099218487739563 -0.1459999978542328 -0.07499999552965164
v 0.17696622014045715 -0.27802595496177673 -0.10097404569387436
v 0.15099218487739563 -0.30399999022483826 -0.07499999552965164
v 0.17696622014045715 -0.1719740331172943 -0.10097404569387436
v -0.4104296863079071 0.029203128069639206 -0.07499999552965164
v -0.41022124886512756 -0.008032798767089844 -0.10097404569387436
v -0.4361952841281891 0.0024375151842832565 -0.07499999552965164
v -0.37520238757133484 0.028345203027129173 -0.10097404569387436
v -0.4361952841281891 0.05871877446770668 -0.07499999552965164
v -0.4104296863079071 0.029203128069639206 -0.07499999552965164
v -0.41022124886512756 0.06846090406179428 -0.10097404569387436
v -0.4361952841281891 0.19703125953674316 -0.07499999552965164
v -0.4361952841281891 0.05871877446770668 -0.07499999552965164
v -0.41022124886512756 0.18625691533088684 -0.10097404569387436
v -0.3290078043937683 0.30399999022483826 -0.07499999552965164
v -0.4361952841281891 0.19703125953674316 -0.07499999552965164
v -0.31826454401016235 0.27802595496177673 -0.10097404569387436
v -0.1090703010559082 0.30399999022483826 -0.07499999552965164
v -0.11964951455593109 0.27802595496177673 -0.10097404569387436
v -0.010195293463766575 0.20743748545646667 -0.07499999552965164
v -0.1090703010559082 0.30399999022483826 -0.07499999552965164
v -0.03616933897137642 0.19649823009967804 -0.10097404569387436
v -0.010195293463766575 0.20743748545646667 -0.07499999552965164
v -0.03616933897137642 0.12397405505180359 -0.10097404569387436
v -0.18019533157348633 0.09800001233816147 -0.07499999552965164
v -0.03616933897137642 0.12397405505180359 -0.10097404569387436
v -0.010195293463766575 0.09800001233816147 -0.07499999552965164
v -0.1542212814092636 0.12397405505180359 -0.10097404569387436
v -0.18019533157348633 0.1509999930858612 -0.07499999552965164
v -0.1542212814092636 0.12397405505180359 -0.10097404569387436
v -0.18019533157348633 0.09800001233816147 -0.07499999552965164
v -0.1542212814092636 0.17697404325008392 -0.10097404569387436
v -0.2551953196525574 0.1509999930858612 -0.07499999552965164
v -0.1542212814092636 0.17697404325008392 -0.10097404569387436
v -0.18019533157348633 0.1509999930858612 -0.07499999552965164
v -0.2811693847179413 0.17697404325008392 -0.10097404569387436
v -0.2551953196525574 0.09300000965595245 -0.07499999552965164
v -0.2551953196525574 0.1509999930858612 -0.07499999552965164
v -0.2811693847179413 0.06702596694231033 -0.10097404569387436
v -0.20041406154632568 0.09300000965595245 -0.07499999552965164
v -0.2551953196525574 0.09300000965595245 -0.07499999552965164
v -0.2263881117105484 0.06702596694231033 -0.10097404569387436
v -0.2263881117105484 0.06702596694231033 -0.10097404569387436
v -0.2263881117105484 -0.018025951460003853 -0.10097404569387436
v -0.2551953196525574 -0.04399999603629112 -0.07499999552965164
v -0.2263881117105484 -0.018025951460003853 -0.10097404569387436
v -0.20041406154632568 -0.04399999603629112 -0.07499999552965164
v -0.2811693847179413 -0.018025951460003853 -0.10097404569387436
v -0.2551953196525574 -0.04399999603629112 -0.07499999552965164
v -0.2811693847179413 -0.1719740331172943 -0.10097404569387436
v -0.18019533157348633 -0.1459999978542328 -0.07499999552965164
v -0.2811693847179413 -0.1719740331172943 -0.10097404569387436
v -0.2551953196525574 -0.1459999978542328 -0.07499999552965164
v -0.1542212814092636 -0.1719740331172943 -0.10097404569387436
v -0.18019533157348633 -0.054999999701976776 -0.07499999552965164
v -0.1542212814092636 -0.1719740331172943 -0.10097404569387436
v -0.18019533157348633 -0.1459999978542328 -0.07499999552965164
v -0.1542212814092636 -0.0809740424156189 -0.10097404569387436
v 0.000804691284429282 -0.054999999701976776 -0.07499999552965164
v -0.1542212814092636 -0.0809740424156189 -0.10097404569387436
v -0.18019533157348633 -0.054999999701976776 -0.07499999552965164
v -0.02516935206949711 -0.0809740424156189 -0.10097404569387436
v -0.02516935206949711 -0.0809740424156189 -0.10097404569387436
v -0.02516935206949711 -0.18680259585380554 -0.10097404569387436
v -0.1054452657699585 -0.30399999022483826 -0.07499999552965164
v -0.11621860414743423 -0.27802595496177673 -0.10097404569387436
v -0.32994529604911804 -0.30399999022483826 -0.07499999552965164
v -0.1054452657699585 -0.30399999022483826 -0.07499999552965164
v -0.31912851333618164 -0.27802595496177673 -0.10097404569387436
v -0.4361952841281891 -0.19693748652935028 -0.07499999552965164
v -0.32994529604911804 -0.30399999022483826 -0.07499999552965164
v -0.41022124886512756 -0.18623660504817963 -0.10097404569387436
v -0.4361952841281891 0.0024375151842832565 -0.07499999552965164
v -0.4361952841281891 -0.19693748652935028 -0.07499999552965164
v 0.15099218487739563 -0.1459999978542328 0.07499999552965164
v 0.2231224924325943 -0.1719740331172943 0.10097404569387436
v 0.19714845716953278 -0.1459999978542328 0.07499999552965164
v 0.17696622014045715 -0.1719740331172943 0.10097404569387436
v 0.2231224924325943 0.27802595496177673 0.10097404569387436
v 0.2231224924325943 -0.1719740331172943 0.10097404569387436
v 0.19714845716953278 0.30399999022483826 0.07499999552965164
v 0.35628843307495117 0.27802595496177673 0.10097404569387436
v 0.3669765293598175 0.30399999022483826 0.07499999552965164
v 0.2231224924325943 0.27802595496177673 0.10097404569387436
v 0.41022124886512756 0.22459226846694946 0.10097404569387436
v 0.4361952841281891 0.23542188107967377 0.07499999552965164
v 0.4361952841281891 0.23542188107967377 0.07499999552965164
v 0.41022124886512756 0.16131779551506042 0.10097404569387436
v 0.4361952841281891 0.1353437602519989 0.07499999552965164
v 0.4361952841281891 0.1353437602519989 0.07499999552965164
v 0.35669004917144775 0.16131779551506042 0.10097404569387436
v 0.38266411423683167 0.1353437602519989 0.07499999552965164
v 0.41022124886512756 0.16131779551506042 0.10097404569387436
v 0.38266411423683167 0.1353437602519989 0.07499999552965164
v 0.35669004917144775 -0.1719740331172943 0.10097404569387436
v 0.38266411423683167 -0.1459999978542328 0.07499999552965164
v 0.35669004917144775 0.16131779551506042 0.10097404569387436
v 0.38266411423683167 -0.1459999978542328 0.07499999552965164
v 0.4028462767601013 -0.1719740331172943 0.10097404569387436
v 0.42882034182548523 -0.1459999978542328 0.07499999552965164
v 0.35669004917144775 -0.1719740331172943 0.10097404569387436
v 0.42882034182548523 -0.1459999978542328 0.07499999552965164
v 0.4028462767601013 -0.27802595496177673 0.10097404569387436
v 0.42882034182548523 -0.30399999022483826 0.07499999552965164
v 0.4028462767601013 -0.1719740331172943 0.10097404569387436
v 0.42882034182548523 -0.30399999022483826 0.07499999552965164
v 0.17696622014045715 -0.27802595496177673 0.10097404569387436
v 0.15099218487739563 -0.30399999022483826 0.07499999552965164
v 0.4028462767601013 -0.27802595496177673 0.10097404569387436
v 0.17696622014045715 -0.1719740331172943 0.10097404569387436
v 0.17696622014045715 -0.27802595496177673 0.10097404569387436
v -0.37520238757133484 0.028345203027129173 0.10097404569387436
v -0.4104296863079071 0.029203128069639206 0.07499999552965164
v -0.41022124886512756 -0.008032798767089844 0.10097404569387436
v -0.4104296863079071 0.029203128069639206 0.07499999552965164
v -0.41022124886512756 0.06846090406179428 0.10097404569387436
v -0.41022124886512756 0.18625691533088684 0.10097404569387436
v -0.4361952841281891 0.19703125953674316 0.07499999552965164
v -0.4361952841281891 0.19703125953674316 0.07499999552965164
v -0.31826454401016235 0.27802595496177673 0.10097404569387436
v -0.3290078043937683 0.30399999022483826 0.07499999552965164
v -0.3290078043937683 0.30399999022483826 0.07499999552965164
v -0.11964951455593109 0.27802595496177673 0.10097404569387436
v -0.1090703010559082 0.30399999022483826 0.07499999552965164
v -0.03616933897137642 0.19649823009967804 0.10097404569387436
v -0.010195293463766575 0.20743748545646667 0.07499999552965164
v -0.010195293463766575 0.20743748545646667 0.07499999552965164
v -0.03616933897137642 0.12397405505180359 0.10097404569387436
v -0.010195293463766575 0.09800001233816147 0.07499999552965164
v -0.010195293463766575 0.09800001233816147 0.07499999552965164
v -0.1542212814092636 0.12397405505180359 0.10097404569387436
v -0.18019533157348633 0.09800001233816147 0.07499999552965164
v -0.03616933897137642 0.12397405505180359 0.10097404569387436
v -0.1542212814092636 0.17697404325008392 0.10097404569387436
v -0.1542212814092636 0.12397405505180359 0.10097404569387436
v -0.18019533157348633 0.1509999930858612 0.07499999552965164
v -0.2811693847179413 0.17697404325008392 0.10097404569387436
v -0.2551953196525574 0.1509999930858612 0.07499999552965164
v -0.1542212814092636 0.17697404325008392 0.10097404569387436
v -0.2551953196525574 0.1509999930858612 0.07499999552965164
v -0.2811693847179413 0.06702596694231033 0.10097404569387436
v -0.2551953196525574 0.09300000965595245 0.07499999552965164
v -0.2551953196525574 0.09300000965595245 0.07499999552965164
v -0.2263881117105484 0.06702596694231033 0.10097404569387436
v -0.20041406154632568 0.09300000965595245 0.07499999552965164
v -0.20041406154632568 0.09300000965595245 0.07499999552965164
v -0.2263881117105484 -0.018025951460003853 0.10097404569387436
v -0.20041406154632568 -0.04399999603629112 0.07499999552965164
v -0.2263881117105484 0.06702596694231033 0.10097404569387436
v -0.20041406154632568 -0.04399999603629112 0.07499999552965164
v -0.2811693847179413 -0.018025951460003853 0.10097404569387436
v -0.2551953196525574 -0.04399999603629112 0.07499999552965164
v -0.2263881117105484 -0.018025951460003853 0.10097404569387436
v -0.2551953196525574 -0.04399999603629112 0.07499999552965164
v -0.2811693847179413 -0.1719740331172943 0.10097404569387436
v -0.2551953196525574 -0.1459999978542328 0.07499999552965164
v -0.2551953196525574 -0.1459999978542328 0.07499999552965164
v -0.1542212814092636 -0.1719740331172943 0.10097404569387436
v -0.18019533157348633 -0.1459999978542328 0.07499999552965164
v -0.2811693847179413 -0.1719740331172943 0.10097404569387436
v -0.1542212814092636 -0.0809740424156189 0.10097404569387436
v -0.1542212814092636 -0.1719740331172943 0.10097404569387436
v -0.18019533157348633 -0.054999999701976776 0.07499999552965164
v -0.02516935206949711 -0.0809740424156189 0.10097404569387436
v 0.000804691284429282 -0.054999999701976776 0.07499999552965164
v -0.1542212814092636 -0.0809740424156189 0.10097404569387436
v 0.000804691284429282 -0.054999999701976776 0.07499999552965164
v -0.02516935206949711 -0.18680259585380554 0.10097404569387436
v 0.000804691284429282 -0.19754688441753387 0.07499999552965164
v -0.02516935206949711 -0.0809740424156189 0.10097404569387436
v 0.000804691284429282 -0.19754688441753387 0.07499999552965164
v -0.11621860414743423 -0.27802595496177673 0.10097404569387436
v -0.1054452657699585 -0.30399999022483826 0.07499999552965164
v -0.1054452657699585 -0.30399999022483826 0.07499999552965164
v -0.31912851333618164 -0.27802595496177673 0.10097404569387436
v -0.32994529604911804 -0.30399999022483826 0.07499999552965164
v -0.32994529604911804 -0.30399999022483826 0.07499999552965164
v -0.41022124886512756 -0.18623660504817963 0.10097404569387436
g submesh_0
f 70 36 69
f 69 36 35
f 308 71 138
f 138 71 37
f 138 37 137
f 72 38 140
f 140 38 139
f 73 39 142
f 142 39 141
f 74 40 144
f 144 40 143
f 75 41 146
f 146 41 145
f 218 147 42
f 42 147 148
f 42 148 76
f 77 43 150
f 150 43 149
f 224 151 44
f 44 151 152
f 44 152 78
f 79 45 154
f 154 45 153
f 339 158 156
f 156 158 157
f 156 157 155
f 195 196 68
f 68 196 102
f 68 102 46
f 46 102 80
f 46 80 47
f 47 80 81
f 83 49 82
f 82 49 48
f 82 48 160
f 160 48 159
f 84 50 162
f 162 50 161
f 85 51 164
f 164 51 163
f 86 52 166
f 166 52 165
f 87 53 168
f 168 53 167
f 88 54 170
f 170 54 169
f 363 89 172
f 172 89 55
f 172 55 171
f 90 56 174
f 174 56 173
f 91 57 176
f 176 57 175
f 92 58 178
f 178 58 177
f 272 179 59
f 59 179 180
f 59 180 93
f 94 60 182
f 182 60 181
f 95 61 184
f 184 61 183
f 96 62 186
f 186 62 185
f 390 97 188
f 188 97 63
f 188 63 187
f 98 64 190
f 190 64 189
f 191 192 65
f 65 192 99
f 65 99 66
f 66 99 100
f 101 67 194
f 194 67 193
f 110 109 104
f 110 104 112
f 112 104 103
f 112 103 113
f 111 110 112
f 108 107 109
f 109 107 106
f 109 106 105
f 135 134 130
f 130 134 133
f 130 133 131
f 131 133 132
f 116 115 125
f 125 115 128
f 125 128 126
f 126 128 127
f 122 121 123
f 123 121 120
f 123 120 119
f 7 8 2
f 2 8 10
f 2 10 1
f 1 10 11
f 10 8 9
f 3 4 7
f 7 4 5
f 7 5 6
f 32 33 28
f 32 28 31
f 31 28 29
f 31 29 30
f 13 14 23
f 13 23 26
f 26 23 24
f 26 24 25
f 17 18 21
f 21 18 19
f 21 19 20
f 199 197 198
f 198 197 200
f 203 201 202
f 202 201 204
f 207 205 206
f 206 205 208
f 210 209 208
f 208 209 211
f 212 40 211
f 211 40 213
f 216 214 215
f 215 214 217
f 219 218 42
f 222 220 221
f 221 220 223
f 225 224 44
f 228 226 227
f 227 226 229
f 232 230 231
f 231 230 233
f 236 234 235
f 235 234 237
f 239 238 237
f 237 238 240
f 242 241 240
f 240 241 243
f 247 248 246
f 247 246 244
f 244 246 243
f 244 243 245
f 250 249 248
f 248 249 251
f 252 53 251
f 251 53 253
f 256 254 255
f 255 254 257
f 260 258 259
f 259 258 261
f 264 262 263
f 263 262 265
f 267 266 265
f 265 266 268
f 270 269 268
f 268 269 271
f 273 272 59
f 276 274 275
f 275 274 277
f 278 61 277
f 277 61 279
f 282 280 281
f 281 280 283
f 286 284 285
f 285 284 287
f 290 288 289
f 289 288 291
f 292 191 65
f 292 65 293
f 293 65 294
f 293 294 295
f 297 296 295
f 295 296 298
f 300 299 298
f 298 299 301
f 303 302 301
f 301 302 235
f 306 304 305
f 305 304 307
f 309 308 138
f 314 315 312
f 314 312 311
f 311 312 310
f 311 310 313
f 318 316 317
f 317 316 314
f 321 319 320
f 320 319 322
f 325 323 324
f 324 323 326
f 329 327 328
f 328 327 330
f 333 331 332
f 332 331 334
f 337 335 336
f 336 335 338
f 340 339 156
f 406 404 407
f 406 407 102
f 102 407 343
f 102 343 80
f 80 343 341
f 80 341 342
f 346 347 82
f 346 82 345
f 345 82 344
f 345 344 341
f 350 348 349
f 349 348 346
f 354 355 353
f 354 353 352
f 352 353 351
f 352 351 349
f 358 356 357
f 357 356 354
f 361 359 360
f 360 359 362
f 364 363 172
f 367 365 366
f 366 365 368
f 371 369 370
f 370 369 366
f 374 372 373
f 373 372 370
f 377 375 376
f 376 375 378
f 381 379 380
f 380 379 382
f 385 383 384
f 384 383 380
f 388 386 387
f 387 386 389
f 391 390 188
f 394 392 393
f 393 392 395
f 398 396 397
f 397 396 399
f 402 400 401
f 401 400 397
f 405 403 404
f 404 403 401
f 104 109 105
f 114 136 129
f 129 136 135
f 129 135 130
f 129 128 114
f 114 128 115
f 117 116 124
f 117 124 118
f 118 124 123
f 118 123 119
f 124 116 125
f 3 7 2
f 28 33 27
f 27 33 34
f 27 34 12
f 27 12 26
f 26 12 13
f 14 15 22
f 22 15 16
f 22 16 21
f 21 16 17
f 23 14 22
