# root
v 0.0 0.0 0.028322936967015266
v -0.2421087771654129 0.0 0.028322936967015266
v -0.2338591367006302 -0.06266236305236816 0.028322936967015266
v -0.20967234671115875 -0.12105438858270645 0.028322936967015266
v -0.17119675874710083 -0.17119675874710083 0.028322936967015266
v -0.12105438113212585 -0.20967234671115875 0.028322936967015266
v -0.06266235560178757 -0.2338591367006302 0.028322936967015266
v 1.0582912324252902e-08 -0.2421087771654129 0.028322936967015266
v 0.06266237795352936 -0.2338591068983078 0.028322936967015266
v 0.12105439603328705 -0.20967234671115875 0.028322936967015266
v 0.17119675874710083 -0.17119675874710083 0.028322936967015266
v 0.20967234671115875 -0.12105438113212585 0.028322936967015266
v 0.2338591367006302 -0.06266234070062637 0.028322936967015266
v 0.2421087771654129 2.1165824648505804e-08 0.028322936967015266
v 0.2338591068983078 0.06266237795352936 0.028322936967015266
v 0.20967233180999756 0.12105441093444824 0.028322936967015266
v 0.17119675874710083 0.17119678854942322 0.028322936967015266
v 0.12105435878038406 0.20967239141464233 0.028322936967015266
v 0.06266234070062637 0.2338591367006302 0.028322936967015266
v -3.1748736972758707e-08 0.2421087771654129 0.028322936967015266
v -0.06266239285469055 0.2338591068983078 0.028322936967015266
v -0.12105442583560944 0.20967233180999756 0.028322936967015266
v -0.17119678854942322 0.17119674384593964 0.028322936967015266
v -0.20967239141464233 0.12105435878038406 0.028322936967015266
v -0.2338591367006302 0.06266232579946518 0.028322936967015266
v -0.2421087771654129 0.0 -0.028322936967015266
v -0.2338591367006302 -0.06266236305236816 -0.028322936967015266
v -0.20967234671115875 -0.12105438858270645 -0.028322936967015266
v -0.17119675874710083 -0.17119675874710083 -0.028322936967015266
v -0.12105438113212585 -0.20967234671115875 -0.028322936967015266
v -0.06266235560178757 -0.2338591367006302 -0.028322936967015266
v 1.0582912324252902e-08 -0.2421087771654129 -0.028322936967015266
v 0.06266237795352936 -0.2338591068983078 -0.028322936967015266
v 0.12105439603328705 -0.20967234671115875 -0.028322936967015266
v 0.17119675874710083 -0.17119675874710083 -0.028322936967015266
v 0.20967234671115875 -0.12105438113212585 -0.028322936967015266
v 0.2338591367006302 -0.06266234070062637 -0.028322936967015266
v 0.2421087771654129 2.1165824648505804e-08 -0.028322936967015266
v 0.2338591068983078 0.06266237795352936 -0.028322936967015266
v 0.20967233180999756 0.12105441093444824 -0.028322936967015266
v 0.17119675874710083 0.17119678854942322 -0.028322936967015266
v 0.12105435878038406 0.20967239141464233 -0.028322936967015266
v 0.06266234070062637 0.2338591367006302 -0.028322936967015266
v -3.1748736972758707e-08 0.2421087771654129 -0.028322936967015266
v -0.06266239285469055 0.2338591068983078 -0.028322936967015266
v -0.12105442583560944 0.20967233180999756 -0.028322936967015266
v -0.17119678854942322 0.17119674384593964 -0.028322936967015266
v -0.20967239141464233 0.12105435878038406 -0.028322936967015266
v -0.2338591367006302 0.06266232579946518 -0.028322936967015266
v 0.0 0.0 -0.028322936967015266
v -0.2421087771654129 0.0 0.028322936967015266
v -0.2338591367006302 -0.06266236305236816 0.028322936967015266
v -0.20967234671115875 -0.12105438858270645 0.028322936967015266
v -0.17119675874710083 -0.17119675874710083 0.028322936967015266
v -0.12105438113212585 -0.20967234671115875 0.028322936967015266
v -0.06266235560178757 -0.2338591367006302 0.028322936967015266
v 1.0582912324252902e-08 -0.2421087771654129 0.028322936967015266
v 1.0582912324252902e-08 -0.2421087771654129 0.028322936967015266
v 1.0582912324252902e-08 -0.2421087771654129 -0.028322936967015266
v 0.06266237795352936 -0.2338591068983078 0.028322936967015266
v 0.12105439603328705 -0.20967234671115875 0.028322936967015266
v 0.17119675874710083 -0.17119675874710083 0.028322936967015266
v 0.20967234671115875 -0.12105438113212585 0.028322936967015266
v 0.2338591367006302 -0.06266234070062637 0.028322936967015266
v 0.2421087771654129 2.1165824648505804e-08 0.028322936967015266
v 0.2338591068983078 0.06266237795352936 0.028322936967015266
v 0.20967233180999756 0.12105441093444824 0.028322936967015266
v 0.17119675874710083 0.17119678854942322 0.028322936967015266
v 0.12105435878038406 0.20967239141464233 0.028322936967015266
v 0.06266234070062637 0.2338591367006302 0.028322936967015266
v -3.1748736972758707e-08 0.2421087771654129 0.028322936967015266
v -3.1748736972758707e-08 0.2421087771654129 0.028322936967015266
v -3.1748736972758707e-08 0.2421087771654129 -0.028322936967015266
v -0.06266239285469055 0.2338591068983078 0.028322936967015266
v -0.12105442583560944 0.20967233180999756 0.028322936967015266
v -0.17119678854942322 0.17119674384593964 0.028322936967015266
v -0.20967239141464233 0.12105435878038406 0.028322936967015266
v -0.2338591367006302 0.06266232579946518 0.028322936967015266
v -0.2338591367006302 -0.06266236305236816 -0.028322936967015266
v -0.2421087771654129 0.0 -0.028322936967015266
v -0.20967234671115875 -0.12105438858270645 -0.028322936967015266
v -0.17119675874710083 -0.17119675874710083 -0.028322936967015266
v -0.12105438113212585 -0.20967234671115875 -0.028322936967015266
v -0.06266235560178757 -0.2338591367006302 -0.028322936967015266
v 1.0582912324252902e-08 -0.2421087771654129 -0.028322936967015266
v 0.06266237795352936 -0.2338591068983078 -0.028322936967015266
v 0.12105439603328705 -0.20967234671115875 -0.028322936967015266
v 0.17119675874710083 -0.17119675874710083 -0.028322936967015266
v 0.20967234671115875 -0.12105438113212585 -0.028322936967015266
v 0.2338591367006302 -0.06266234070062637 -0.028322936967015266
v 0.2421087771654129 2.1165824648505804e-08 -0.028322936967015266
v 0.2338591068983078 0.06266237795352936 -0.028322936967015266
v 0.20967233180999756 0.12105441093444824 -0.028322936967015266
v 0.17119675874710083 0.17119678854942322 -0.028322936967015266
v 0.12105435878038406 0.20967239141464233 -0.028322936967015266
v 0.06266234070062637 0.2338591367006302 -0.028322936967015266
v -3.1748736972758707e-08 0.2421087771654129 -0.028322936967015266
v -0.06266239285469055 0.2338591068983078 -0.028322936967015266
v -0.12105442583560944 0.20967233180999756 -0.028322936967015266
v -0.17119678854942322 0.17119674384593964 -0.028322936967015266
v -0.20967239141464233 0.12105435878038406 -0.028322936967015266
v -0.2338591367006302 0.06266232579946518 -0.028322936967015266
g submesh_0
f 72 73 45
f 72 45 74
f 74 45 46
f 74 46 75
f 75 46 47
f 75 47 76
f 76 47 48
f 76 48 77
f 77 48 49
f 77 49 78
f 78 49 26
f 78 26 51
f 51 26 27
f 51 27 52
f 52 27 28
f 52 28 53
f 53 28 29
f 53 29 54
f 54 29 30
f 54 30 55
f 55 30 31
f 55 31 56
f 56 31 32
f 56 32 57
f 44 71 70
f 44 70 43
f 43 70 69
f 43 69 42
f 42 69 68
f 42 68 41
f 41 68 67
f 41 67 40
f 40 67 66
f 40 66 39
f 39 66 65
f 39 65 38
f 38 65 64
f 38 64 37
f 37 64 63
f 37 63 36
f 36 63 62
f 36 62 35
f 35 62 61
f 35 61 34
f 34 61 60
f 34 60 33
f 33 60 58
f 33 58 59
f 24 25 1
f 1 25 2
f 1 2 3
f 3 4 1
f 1 4 5
f 1 5 6
f 6 7 1
f 1 7 8
f 1 8 9
f 9 10 1
f 1 10 11
f 1 11 12
f 12 13 1
f 1 13 14
f 1 14 15
f 15 16 1
f 1 16 17
f 1 17 18
f 18 19 1
f 1 19 20
f 1 20 21
f 21 22 1
f 1 22 23
f 1 23 24
f 82 81 50
f 50 81 79
f 50 79 80
f 85 84 50
f 50 84 83
f 50 83 82
f 88 87 50
f 50 87 86
f 50 86 85
f 91 90 50
f 50 90 89
f 50 89 88
f 94 93 50
f 50 93 92
f 50 92 91
f 97 96 50
f 50 96 95
f 50 95 94
f 100 99 50
f 50 99 98
f 50 98 97
f 80 102 50
f 50 102 101
f 50 101 100
