# shots02
v -0.26803961396217346 0.23891253769397736 -5.023066478315741e-07
v -0.13820824027061462 0.36870643496513367 -5.023066478315741e-07
v 0.14269934594631195 0.36870643496513367 -5.023066478315741e-07
v 0.2680394649505615 0.2433849424123764 -5.023066478315741e-07
v 0.2680394649505615 -0.24226675927639008 -5.023066478315741e-07
v 0.1415814906358719 -0.3687063455581665 -5.023066478315741e-07
v -0.14046302437782288 -0.3687063455581665 -5.023066478315741e-07
v -0.26803961396217346 -0.24114860594272614 -5.023066478315741e-07
v 0.052152328193187714 -0.1770760715007782 -5.023066478315741e-07
v 0.052152328193187714 0.17707613110542297 -5.023066478315741e-07
v -0.05093986541032791 0.17707613110542297 -5.023066478315741e-07
v -0.05093986541032791 -0.1770760715007782 -5.023066478315741e-07
g submesh_0
f 8 7 12
f 8 12 1
f 1 12 11
f 1 11 10
f 4 3 10
f 10 3 2
f 10 2 1
f 7 6 9
f 9 6 5
f 9 5 10
f 10 5 4
f 9 12 7
