# rich_12
v -0.2810000479221344 0.30400004982948303 -4.999999418942025e-07
v -0.04399993643164635 0.30400004982948303 -4.999999418942025e-07
v -0.04399993643164635 0.15400004386901855 -4.999999418942025e-07
v -0.08699981123209 0.15400004386901855 -4.999999418942025e-07
v -0.08699981123209 0.024000052362680435 -4.999999418942025e-07
v 0.06278106570243835 0.30400004982948303 -4.999999418942025e-07
v 0.2810000479221344 0.30400004982948303 -4.999999418942025e-07
v 0.2810000479221344 0.14700007438659668 -4.999999418942025e-07
v 0.24000029265880585 0.14700007438659668 -4.999999418942025e-07
v 0.24000029265880585 -0.145999938249588 -4.999999418942025e-07
v 0.2810000479221344 -0.145999938249588 -4.999999418942025e-07
v 0.2810000479221344 -0.3039999306201935 -4.999999418942025e-07
v 0.03800018131732941 -0.3039999306201935 -4.999999418942025e-07
v 0.03800018131732941 -0.14899992942810059 -4.999999418942025e-07
v 0.08600006252527237 -0.14899992942810059 -4.999999418942025e-07
v 0.08600006252527237 0.004000072367489338 -4.999999418942025e-07
v -0.08296844363212585 -0.3039999306201935 -4.999999418942025e-07
v -0.23899993300437927 -0.3039999306201935 -4.999999418942025e-07
v -0.23899993300437927 0.14700007438659668 -4.999999418942025e-07
v -0.2810000479221344 0.14700007438659668 -4.999999418942025e-07
g submesh_0
f 4 3 2
f 4 2 19
f 19 2 1
f 19 1 20
f 10 9 16
f 16 9 5
f 16 5 17
f 17 5 19
f 17 19 18
f 14 13 15
f 15 13 12
f 15 12 11
f 8 7 9
f 9 7 6
f 9 6 5
f 11 10 15
f 15 10 16
f 5 4 19
