# COL
v 2.2340619721949576e-23 1.1940111122044073e-08 0.000215515261515975
v -0.0017563499277457595 1.1940112010222492e-08 1.2834537301387172e-05
v -0.001696504303254187 0.0004545858537312597 1.2834560038754717e-05
v -0.0015210473211482167 0.0008781807846389711 1.2834570952691138e-05
v -0.0012419302947819233 0.0012419361155480146 1.2834595509048086e-05
v -0.0008781749638728797 0.001521035097539425 1.2834606422984507e-05
v -0.00045457991654984653 0.0016965102404356003 1.2834606422984507e-05
v -5.8712456834304414e-18 0.0017563499277457595 1.2834606422984507e-05
v 0.00045457991654984653 0.0016965100076049566 1.2834606422984507e-05
v 0.0008781749638728797 0.001521035097539425 1.2834606422984507e-05
v 0.0012419302947819233 0.0012419361155480146 1.2834595509048086e-05
v 0.0015210473211482167 0.0008781807846389711 1.2834570952691138e-05
v 0.001696504303254187 0.0004545857955235988 1.2834560038754717e-05
v 0.0017563499277457595 1.1940111122044073e-08 1.2834537301387172e-05
v 0.001696504303254187 -0.0004545860574580729 1.2834512745030224e-05
v 0.0015210473211482167 -0.0008781810756772757 1.2834501831093803e-05
v 0.0012419302947819233 -0.0012419364647939801 6.983375351410359e-05
v 0.0008781749638728797 -0.0015210354467853904 1.2834466360800434e-05
v 0.00045457991654984653 -0.001696510473266244 1.2834466360800434e-05
v -5.710646913142046e-18 -0.0017563499277457595 1.2834466360800434e-05
v -0.00045457991654984653 -0.0016965102404356003 1.2834466360800434e-05
v -0.0008781749638728797 -0.0015210354467853904 1.2834466360800434e-05
v -0.0012419302947819233 -0.0012419364647939801 1.2834478184231557e-05
v -0.0015210473211482167 -0.0008781810756772757 1.2834501831093803e-05
v -0.001696504303254187 -0.000454585999250412 1.2834512745030224e-05
v -0.0018677004845812917 1.1940112010222492e-08 6.983379716984928e-05
v -0.0018040577415376902 0.0004833983548451215 6.983381899772212e-05
v -0.0016174742486327887 0.0009338562958873808 6.983384082559496e-05
v -0.0013206592993810773 0.0013206710573285818 6.983385537751019e-05
v -0.0009338502422906458 0.0016174622578546405 6.98338626534678e-05
v -0.0004833985003642738 0.0018040577415376902 6.98338626534678e-05
v -3.2712151861068125e-18 0.0018677004845812917 6.983387720538303e-05
v 0.0004833985003642738 0.0018040575087070465 6.98338626534678e-05
v 0.0009338502422906458 0.0016174620250239968 6.98338626534678e-05
v 0.0013206592993810773 0.0013206710573285818 6.983385537751019e-05
v 0.0016174742486327887 0.0009338562958873808 6.983384082559496e-05
v 0.0018040577415376902 0.00048339832574129105 6.983381899772212e-05
v 0.0018677004845812917 1.1940112010222492e-08 6.983379716984928e-05
v 0.0018040577415376902 -0.0004833986167795956 6.983377534197643e-05
v 0.0016174742486327887 -0.0009338563540950418 6.983375351410359e-05
v 0.0013206592993810773 -0.0013206715229898691 6.983373168623075e-05
v 0.0009338502422906458 -0.0016174864722415805 6.983372441027313e-05
v 0.0004833985003642738 -0.001804057857953012 6.983372441027313e-05
v -2.706296115871632e-18 -0.0018677004845812917 6.98337098583579e-05
v -0.0004833985003642738 -0.0018040577415376902 6.983372441027313e-05
v -0.0009338502422906458 -0.0016174622578546405 6.983372441027313e-05
v -0.0013206592993810773 -0.0013206715229898691 6.983373168623075e-05
v -0.0016174742486327887 -0.0009338563540950418 6.983375351410359e-05
v -0.0018040577415376902 -0.00048339858767576516 6.983377534197643e-05
v -0.0018462067237123847 8.855679745067846e-09 0.0030035434756428003
v -0.0018141531618312001 0.00048609203076921403 0.0029665513429790735
v -0.0016265237936750054 0.0009390718769282103 0.00296655111014843
v -0.0013280522543936968 0.0013280523708090186 0.00296655111014843
v -0.0009390763589181006 0.0016265325248241425 0.0029665513429790735
v -0.0004861009365413338 0.0018141531618312001 0.0029665513429790735
v -4.2300192592711156e-18 0.0018781527178362012 0.0029665513429790735
v 0.0004861009365413338 0.0018141531618312001 0.0029665513429790735
v 0.0009390763589181006 0.0016265325248241425 0.0029665513429790735
v 0.0013280522543936968 0.0013280522543936968 0.00296655111014843
v 0.0016265237936750054 0.0009390718769282103 0.00296655111014843
v 0.0018141531618312001 0.00048609203076921403 0.0029665513429790735
v 0.0018781482940539718 8.855679745067846e-09 0.00296655111014843
v 0.0018141531618312001 -0.0004861098132096231 0.0029665513429790735
v 0.0016265237936750054 -0.000939072051551193 0.00296655111014843
v 0.0013280522543936968 -0.0013280526036396623 0.00296655111014843
v 0.0009390763589181006 -0.0016265329904854298 0.0029665513429790735
v 0.0004861009365413338 -0.001814153278246522 0.0029665513429790735
v -4.037951643349059e-18 -0.0018781527178362012 0.0029665513429790735
v -0.0004861009365413338 -0.0018141531618312001 0.0029665513429790735
v -0.0009390763589181006 -0.0016265325248241425 0.0029665513429790735
v -0.0013280522543936968 -0.0013280523708090186 0.00296655111014843
v -0.0016265237936750054 -0.000939072051551193 0.00296655111014843
v -0.0018141531618312001 -0.0004861098132096231 0.0029665513429790735
v -0.0017716543516144156 8.855680633246266e-09 0.0030035434756428003
v -0.0017112856730818748 0.0004585344868246466 0.0030035434756428003
v -0.0015342998085543513 0.0008858181536197662 0.0030035434756428003
v -0.0012527512153610587 0.001252742251381278 0.0030035434756428003
v -0.0008858271758072078 0.001534295384772122 0.0030035434756428003
v -0.0004585389979183674 0.0017112856730818748 0.0030035434756428003
v -4.488150481995332e-18 0.0017716631991788745 0.0030035434756428003
v 0.0004585389979183674 0.001711285556666553 0.0030035434756428003
v 0.0008858271758072078 0.0015342951519414783 0.0030035434756428003
v 0.0012527512153610587 0.001252742251381278 0.0030035434756428003
v 0.0015342998085543513 0.0008858181536197662 0.0030035434756428003
v 0.0017112856730818748 0.0004585344868246466 0.0030035434756428003
v 0.0017716543516144156 8.855679745067846e-09 0.0030035434756428003
v 0.0017112856730818748 -0.00045853466144762933 0.0030035434756428003
v 0.0015342998085543513 -0.0008858360815793276 0.0030035434756428003
v 0.0012527512153610587 -0.0012527423677965999 0.0030035434756428003
v 0.0008858271758072078 -0.0015342955011874437 0.0030035434756428003
v 0.0004585389979183674 -0.0017112860223278403 0.0030035434756428003
v -3.825104423259058e-18 -0.0017716631991788745 0.0030035434756428003
v -0.0004585389979183674 -0.0017112856730818748 0.0030035434756428003
v -0.0008858271758072078 -0.001534295384772122 0.0030035434756428003
v -0.0012527512153610587 -0.001252742251381278 0.0030035434756428003
v -0.0015342998085543513 -0.0008858360815793276 0.0030035434756428003
v -0.0017112856730818748 -0.00045853466144762933 0.0030035434756428003
v -0.0018781482940539718 8.855678856889426e-09 0.00296655111014843
v -0.0017832997255027294 0.00047782674664631486 0.0030035434756428003
v -0.001598863280378282 0.0009230991709046066 0.0030035434756428003
v -0.001305467914789915 0.0013054651208221912 0.0030035434756428003
v -0.0009231066214852035 0.0015988701488822699 0.0030035434756428003
v -0.0004778342554345727 0.0017833001911640167 0.0030035434756428003
v -4.33095142402453e-18 0.0018462110310792923 0.0030035434756428003
v 0.0004778342554345727 0.0017832998419180512 0.0030035434756428003
v 0.0009231066214852035 0.0015988697996363044 0.0030035434756428003
v 0.001305467914789915 0.0013054648879915476 0.0030035434756428003
v 0.001598863280378282 0.0009230991126969457 0.0030035434756428003
v 0.0017832997255027294 0.00047782674664631486 0.0030035434756428003
v 0.0018462067237123847 8.855679745067846e-09 0.0030035434756428003
v 0.0017833014717325568 -0.00047783914487808943 0.0030035434756428003
v 0.0015988607192412019 -0.0009231038857251406 0.0030035434756428003
v 0.001305467914789915 -0.0013054651208221912 0.0030035434756428003
v 0.0009231066214852035 -0.0015988702652975917 0.0030035434756428003
v 0.0004778342554345727 -0.0017833001911640167 0.0030035434756428003
v -3.9823034812298604e-18 -0.0018462110310792923 0.0030035434756428003
v -0.0004778342554345727 -0.0017833001911640167 0.0030035434756428003
v -0.0009231066214852035 -0.0015988701488822699 0.0030035434756428003
v -0.001305467914789915 -0.0013054651208221912 0.0030035434756428003
v -0.0015988607192412019 -0.0009231038857251406 0.0030035434756428003
v -0.0017833014717325568 -0.00047783914487808943 0.0030035434756428003
v 1.3431327210301148e-23 1.1940112010222492e-08 0.0004401323094498366
v -0.0016138938954100013 1.1940112010222492e-08 0.0006666912231594324
v -0.0015588983660563827 0.0004177096707280725 0.0006666912231594324
v -0.0013976732734590769 0.0008069558534771204 0.0006666912231594324
v -0.0011411947198212147 0.0011412006570026278 0.0006666912231594324
v -0.0008069439209066331 0.0013976732734590769 0.0006666912231594324
v -0.00041770367533899844 0.0015588982496410608 0.0006666912231594324
v -4.177001117909529e-18 0.0016138998325914145 0.0006666912231594324
v 0.00041770367533899844 0.0015588982496410608 0.0006666912231594324
v 0.0008069499162957072 0.0013976732734590769 0.0006666912231594324
v 0.0011411947198212147 0.0011412006570026278 0.0006666912231594324
v 0.0013976732734590769 0.0008069558534771204 0.0006666912231594324
v 0.0015589043032377958 0.00041770964162424207 0.0006666912231594324
v 0.0016138938954100013 1.1940112010222492e-08 0.0006666912231594324
v 0.0015588983660563827 -0.00041770978714339435 0.0006666912231594324
v 0.0013976732734590769 -0.0008069560281001031 0.0006666912231594324
v 0.0011411947198212147 -0.0011412007734179497 0.0006666912231594324
v 0.0008069439209066331 -0.0013976735062897205 0.0006666912231594324
v 0.00041770367533899844 -0.0015588984824717045 0.0006666912231594324
v -1.800510184068915e-18 -0.0016138998325914145 0.0006666912231594324
v -0.00041770367533899844 -0.0015588984824717045 0.0006666912231594324
v -0.0008069499162957072 -0.0013976735062897205 0.0006666912231594324
v -0.0011411947198212147 -0.0011412006570026278 0.0006666912231594324
v -0.0013976732734590769 -0.0008069560281001031 0.0006666912231594324
v -0.0015589043032377958 -0.0004177097580395639 0.0006666912231594324
v 2.2340619721949576e-23 1.1940111122044073e-08 0.000215515261515975
v 2.2340619721949576e-23 1.1940111122044073e-08 0.000215515261515975
v 2.2340619721949576e-23 1.1940111122044073e-08 0.000215515261515975
v 2.2340619721949576e-23 1.1940111122044073e-08 0.000215515261515975
v 2.2340619721949576e-23 1.1940111122044073e-08 0.000215515261515975
v 2.2340619721949576e-23 1.1940111122044073e-08 0.000215515261515975
v -5.8712456834304414e-18 0.0017563499277457595 1.2834606422984507e-05
v 2.2340619721949576e-23 1.1940111122044073e-08 0.000215515261515975
v 2.2340619721949576e-23 1.1940111122044073e-08 0.000215515261515975
v 2.2340619721949576e-23 1.1940111122044073e-08 0.000215515261515975
v 2.2340619721949576e-23 1.1940111122044073e-08 0.000215515261515975
v 2.2340619721949576e-23 1.1940111122044073e-08 0.000215515261515975
v 2.2340619721949576e-23 1.1940111122044073e-08 0.000215515261515975
v 2.2340619721949576e-23 1.1940111122044073e-08 0.000215515261515975
v 2.2340619721949576e-23 1.1940111122044073e-08 0.000215515261515975
v 2.2340619721949576e-23 1.1940111122044073e-08 0.000215515261515975
v 2.2340619721949576e-23 1.1940111122044073e-08 0.000215515261515975
v 2.2340619721949576e-23 1.1940111122044073e-08 0.000215515261515975
v 2.2340619721949576e-23 1.1940111122044073e-08 0.000215515261515975
v 2.2340619721949576e-23 1.1940111122044073e-08 0.000215515261515975
v 2.2340619721949576e-23 1.1940111122044073e-08 0.000215515261515975
v 2.2340619721949576e-23 1.1940111122044073e-08 0.000215515261515975
v 2.2340619721949576e-23 1.1940111122044073e-08 0.000215515261515975
v 2.2340619721949576e-23 1.1940111122044073e-08 0.000215515261515975
v -3.2712151861068125e-18 0.0018677004845812917 6.983387720538303e-05
v -0.0018677004845812917 1.1940112010222492e-08 6.983379716984928e-05
v -0.0018040577415376902 0.0004833983548451215 6.983381899772212e-05
v -0.0016174742486327887 0.0009338562958873808 6.983384082559496e-05
v -0.0013206592993810773 0.0013206710573285818 6.983385537751019e-05
v -0.0009338502422906458 0.0016174622578546405 6.98338626534678e-05
v -0.0004833985003642738 0.0018040577415376902 6.98338626534678e-05
v -3.2712151861068125e-18 0.0018677004845812917 6.983387720538303e-05
v -3.2712151861068125e-18 0.0018677004845812917 6.983387720538303e-05
v -4.2300192592711156e-18 0.0018781527178362012 0.0029665513429790735
v 0.0004833985003642738 0.0018040575087070465 6.98338626534678e-05
v 0.0009338502422906458 0.0016174620250239968 6.98338626534678e-05
v 0.0013206592993810773 0.0013206710573285818 6.983385537751019e-05
v 0.0016174742486327887 0.0009338562958873808 6.983384082559496e-05
v 0.0018040577415376902 0.00048339832574129105 6.983381899772212e-05
v 0.0018677004845812917 1.1940112010222492e-08 6.983379716984928e-05
v 0.0018040577415376902 -0.0004833986167795956 6.983377534197643e-05
v 0.0016174742486327887 -0.0009338563540950418 6.983375351410359e-05
v 0.0013206592993810773 -0.0013206715229898691 6.983373168623075e-05
v 0.0009338502422906458 -0.0016174864722415805 6.983372441027313e-05
v 0.0004833985003642738 -0.001804057857953012 6.983372441027313e-05
v -2.706296115871632e-18 -0.0018677004845812917 6.98337098583579e-05
v -0.0004833985003642738 -0.0018040577415376902 6.983372441027313e-05
v -0.0009338502422906458 -0.0016174622578546405 6.983372441027313e-05
v -0.0013206592993810773 -0.0013206715229898691 6.983373168623075e-05
v -0.0016174742486327887 -0.0009338563540950418 6.983375351410359e-05
v -0.0018040577415376902 -0.00048339858767576516 6.983377534197643e-05
v -4.33095142402453e-18 0.0018462110310792923 0.0030035434756428003
v -4.488150481995332e-18 0.0017716631991788745 0.0030035434756428003
v -0.0018462067237123847 8.855679745067846e-09 0.0030035434756428003
v -0.0017832997255027294 0.00047782674664631486 0.0030035434756428003
v -0.0018781482940539718 8.855678856889426e-09 0.00296655111014843
v -0.0018141531618312001 0.00048609203076921403 0.0029665513429790735
v -0.0018781482940539718 8.855678856889426e-09 0.00296655111014843
v -0.0017832997255027294 0.00047782674664631486 0.0030035434756428003
v -0.001598863280378282 0.0009230991709046066 0.0030035434756428003
v -0.0016265237936750054 0.0009390718769282103 0.00296655111014843
v -0.001305467914789915 0.0013054651208221912 0.0030035434756428003
v -0.0013280522543936968 0.0013280523708090186 0.00296655111014843
v -0.0009231066214852035 0.0015988701488822699 0.0030035434756428003
v -0.0009390763589181006 0.0016265325248241425 0.0029665513429790735
v -0.0004778342554345727 0.0017833001911640167 0.0030035434756428003
v -0.0004861009365413338 0.0018141531618312001 0.0029665513429790735
v -4.33095142402453e-18 0.0018462110310792923 0.0030035434756428003
v 0.0004778342554345727 0.0017832998419180512 0.0030035434756428003
v 0.0004861009365413338 0.0018141531618312001 0.0029665513429790735
v -4.2300192592711156e-18 0.0018781527178362012 0.0029665513429790735
v 0.0004778342554345727 0.0017832998419180512 0.0030035434756428003
v 0.0009231066214852035 0.0015988697996363044 0.0030035434756428003
v 0.0009390763589181006 0.0016265325248241425 0.0029665513429790735
v 0.0009231066214852035 0.0015988697996363044 0.0030035434756428003
v 0.001305467914789915 0.0013054648879915476 0.0030035434756428003
v 0.0013280522543936968 0.0013280522543936968 0.00296655111014843
v 0.001305467914789915 0.0013054648879915476 0.0030035434756428003
v 0.001598863280378282 0.0009230991126969457 0.0030035434756428003
v 0.0016265237936750054 0.0009390718769282103 0.00296655111014843
v 0.001598863280378282 0.0009230991126969457 0.0030035434756428003
v 0.0017832997255027294 0.00047782674664631486 0.0030035434756428003
v 0.0018141531618312001 0.00048609203076921403 0.0029665513429790735
v 0.0017832997255027294 0.00047782674664631486 0.0030035434756428003
v 0.0018462067237123847 8.855679745067846e-09 0.0030035434756428003
v 0.0018781482940539718 8.855679745067846e-09 0.00296655111014843
v 0.0018462067237123847 8.855679745067846e-09 0.0030035434756428003
v 0.0017833014717325568 -0.00047783914487808943 0.0030035434756428003
v 0.0018141531618312001 -0.0004861098132096231 0.0029665513429790735
v 0.0017833014717325568 -0.00047783914487808943 0.0030035434756428003
v 0.0015988607192412019 -0.0009231038857251406 0.0030035434756428003
v 0.0016265237936750054 -0.000939072051551193 0.00296655111014843
v 0.0015988607192412019 -0.0009231038857251406 0.0030035434756428003
v 0.001305467914789915 -0.0013054651208221912 0.0030035434756428003
v 0.0013280522543936968 -0.0013280526036396623 0.00296655111014843
v 0.001305467914789915 -0.0013054651208221912 0.0030035434756428003
v 0.0009231066214852035 -0.0015988702652975917 0.0030035434756428003
v 0.0009390763589181006 -0.0016265329904854298 0.0029665513429790735
v 0.0009231066214852035 -0.0015988702652975917 0.0030035434756428003
v 0.0004778342554345727 -0.0017833001911640167 0.0030035434756428003
v 0.0004861009365413338 -0.001814153278246522 0.0029665513429790735
v 0.0004778342554345727 -0.0017833001911640167 0.0030035434756428003
v -3.9823034812298604e-18 -0.0018462110310792923 0.0030035434756428003
v -4.037951643349059e-18 -0.0018781527178362012 0.0029665513429790735
v -0.0004778342554345727 -0.0017833001911640167 0.0030035434756428003
v -0.0004861009365413338 -0.0018141531618312001 0.0029665513429790735
v -0.0009231066214852035 -0.0015988701488822699 0.0030035434756428003
v -0.0009390763589181006 -0.0016265325248241425 0.0029665513429790735
v -0.001305467914789915 -0.0013054651208221912 0.0030035434756428003
v -0.0013280522543936968 -0.0013280523708090186 0.00296655111014843
v -0.0015988607192412019 -0.0009231038857251406 0.0030035434756428003
v -0.0016265237936750054 -0.000939072051551193 0.00296655111014843
v -0.0017833014717325568 -0.00047783914487808943 0.0030035434756428003
v -0.0018141531618312001 -0.0004861098132096231 0.0029665513429790735
v 1.3431327210301148e-23 1.1940112010222492e-08 0.0004401323094498366
v 1.3431327210301148e-23 1.1940112010222492e-08 0.0004401323094498366
v 1.3431327210301148e-23 1.1940112010222492e-08 0.0004401323094498366
v 1.3431327210301148e-23 1.1940112010222492e-08 0.0004401323094498366
v 1.3431327210301148e-23 1.1940112010222492e-08 0.0004401323094498366
v 1.3431327210301148e-23 1.1940112010222492e-08 0.0004401323094498366
v -4.177001117909529e-18 0.0016138998325914145 0.0006666912231594324
v 1.3431327210301148e-23 1.1940112010222492e-08 0.0004401323094498366
v 1.3431327210301148e-23 1.1940112010222492e-08 0.0004401323094498366
v 1.3431327210301148e-23 1.1940112010222492e-08 0.0004401323094498366
v 1.3431327210301148e-23 1.1940112010222492e-08 0.0004401323094498366
v 1.3431327210301148e-23 1.1940112010222492e-08 0.0004401323094498366
v 1.3431327210301148e-23 1.1940112010222492e-08 0.0004401323094498366
v 1.3431327210301148e-23 1.1940112010222492e-08 0.0004401323094498366
v 1.3431327210301148e-23 1.1940112010222492e-08 0.0004401323094498366
v 1.3431327210301148e-23 1.1940112010222492e-08 0.0004401323094498366
v 1.3431327210301148e-23 1.1940112010222492e-08 0.0004401323094498366
v 1.3431327210301148e-23 1.1940112010222492e-08 0.0004401323094498366
v 1.3431327210301148e-23 1.1940112010222492e-08 0.0004401323094498366
v 1.3431327210301148e-23 1.1940112010222492e-08 0.0004401323094498366
v 1.3431327210301148e-23 1.1940112010222492e-08 0.0004401323094498366
v 1.3431327210301148e-23 1.1940112010222492e-08 0.0004401323094498366
v 1.3431327210301148e-23 1.1940112010222492e-08 0.0004401323094498366
v 1.3431327210301148e-23 1.1940112010222492e-08 0.0004401323094498366
v -0.0017716543516144156 8.855680633246266e-09 0.0030035434756428003
v -0.0015588983660563827 0.0004177096707280725 0.0006666912231594324
v -0.0017112856730818748 0.0004585344868246466 0.0030035434756428003
v -0.0016138938954100013 1.1940112010222492e-08 0.0006666912231594324
v -0.0013976732734590769 0.0008069558534771204 0.0006666912231594324
v -0.0015342998085543513 0.0008858181536197662 0.0030035434756428003
v -0.0011411947198212147 0.0011412006570026278 0.0006666912231594324
v -0.0012527512153610587 0.001252742251381278 0.0030035434756428003
v -0.0008069439209066331 0.0013976732734590769 0.0006666912231594324
v -0.0008858271758072078 0.001534295384772122 0.0030035434756428003
v -0.00041770367533899844 0.0015588982496410608 0.0006666912231594324
v -0.0004585389979183674 0.0017112856730818748 0.0030035434756428003
v -4.177001117909529e-18 0.0016138998325914145 0.0006666912231594324
v -4.488150481995332e-18 0.0017716631991788745 0.0030035434756428003
v -4.488150481995332e-18 0.0017716631991788745 0.0030035434756428003
v 0.00041770367533899844 0.0015588982496410608 0.0006666912231594324
v 0.0004585389979183674 0.001711285556666553 0.0030035434756428003
v -4.177001117909529e-18 0.0016138998325914145 0.0006666912231594324
v 0.0008069499162957072 0.0013976732734590769 0.0006666912231594324
v 0.0008858271758072078 0.0015342951519414783 0.0030035434756428003
v 0.0011411947198212147 0.0011412006570026278 0.0006666912231594324
v 0.0012527512153610587 0.001252742251381278 0.0030035434756428003
v 0.0013976732734590769 0.0008069558534771204 0.0006666912231594324
v 0.0015342998085543513 0.0008858181536197662 0.0030035434756428003
v 0.0015589043032377958 0.00041770964162424207 0.0006666912231594324
v 0.0017112856730818748 0.0004585344868246466 0.0030035434756428003
v 0.0016138938954100013 1.1940112010222492e-08 0.0006666912231594324
v 0.0017716543516144156 8.855679745067846e-09 0.0030035434756428003
v 0.0015588983660563827 -0.00041770978714339435 0.0006666912231594324
v 0.0017112856730818748 -0.00045853466144762933 0.0030035434756428003
v 0.0013976732734590769 -0.0008069560281001031 0.0006666912231594324
v 0.0015342998085543513 -0.0008858360815793276 0.0030035434756428003
v 0.0011411947198212147 -0.0011412007734179497 0.0006666912231594324
v 0.0012527512153610587 -0.0012527423677965999 0.0030035434756428003
v 0.0008069439209066331 -0.0013976735062897205 0.0006666912231594324
v 0.0008858271758072078 -0.0015342955011874437 0.0030035434756428003
v 0.00041770367533899844 -0.0015588984824717045 0.0006666912231594324
v 0.0004585389979183674 -0.0017112860223278403 0.0030035434756428003
v -1.800510184068915e-18 -0.0016138998325914145 0.0006666912231594324
v -3.825104423259058e-18 -0.0017716631991788745 0.0030035434756428003
v -0.00041770367533899844 -0.0015588984824717045 0.0006666912231594324
v -0.0004585389979183674 -0.0017112856730818748 0.0030035434756428003
v -0.0008069499162957072 -0.0013976735062897205 0.0006666912231594324
v -0.0008858271758072078 -0.001534295384772122 0.0030035434756428003
v -0.0011411947198212147 -0.0011412006570026278 0.0006666912231594324
v -0.0012527512153610587 -0.001252742251381278 0.0030035434756428003
v -0.0013976732734590769 -0.0008069560281001031 0.0006666912231594324
v -0.0015342998085543513 -0.0008858360815793276 0.0030035434756428003
v -0.0015589043032377958 -0.0004177097580395639 0.0006666912231594324
v -0.0017112856730818748 -0.00045853466144762933 0.0030035434756428003
g submesh_0
f 202 200 201
f 218 216 217
f 67 248 249
f 249 250 247
f 68 249 251
f 123 122 124
f 124 261 125
f 125 262 126
f 126 263 127
f 127 264 128
f 128 265 129
f 267 266 130
f 130 268 131
f 131 269 132
f 132 270 133
f 133 271 134
f 134 272 135
f 135 273 136
f 136 274 137
f 137 275 138
f 138 276 139
f 139 277 140
f 140 278 141
f 141 279 142
f 142 280 143
f 143 281 144
f 144 282 145
f 145 283 146
f 146 284 123
f 1 2 3
f 3 2 27
f 3 27 28
f 147 3 4
f 4 3 28
f 4 28 29
f 148 4 5
f 5 4 29
f 5 29 30
f 149 5 6
f 6 5 30
f 6 30 31
f 150 6 7
f 7 6 31
f 7 31 32
f 32 8 7
f 7 8 151
f 152 153 9
f 9 153 33
f 9 33 34
f 154 9 10
f 10 9 34
f 10 34 35
f 155 10 11
f 11 10 35
f 11 35 36
f 156 11 12
f 12 11 36
f 12 36 37
f 157 12 13
f 13 12 37
f 13 37 38
f 158 13 14
f 14 13 38
f 14 38 39
f 159 14 15
f 15 14 39
f 15 39 40
f 160 15 16
f 16 15 40
f 16 40 41
f 161 16 17
f 17 16 41
f 17 41 42
f 162 17 18
f 18 17 42
f 18 42 43
f 163 18 19
f 19 18 43
f 19 43 44
f 164 19 20
f 20 19 44
f 20 44 45
f 165 20 21
f 21 20 45
f 21 45 46
f 166 21 22
f 22 21 46
f 22 46 47
f 167 22 23
f 23 22 47
f 23 47 48
f 168 23 24
f 24 23 48
f 24 48 49
f 169 24 25
f 25 24 49
f 25 49 26
f 170 25 2
f 2 25 26
f 2 26 27
f 171 33 153
f 179 180 57
f 179 57 181
f 181 57 58
f 181 58 182
f 182 58 59
f 182 59 183
f 183 59 60
f 183 60 184
f 184 60 61
f 184 61 185
f 185 61 62
f 185 62 186
f 186 62 63
f 186 63 187
f 187 63 64
f 187 64 188
f 188 64 65
f 188 65 189
f 189 65 66
f 189 66 190
f 190 66 67
f 190 67 191
f 191 67 68
f 191 68 192
f 192 68 69
f 192 69 193
f 193 69 70
f 193 70 194
f 194 70 71
f 194 71 195
f 195 71 72
f 195 72 196
f 196 72 73
f 196 73 197
f 197 73 98
f 197 98 172
f 172 98 51
f 172 51 173
f 173 51 52
f 173 52 174
f 174 52 53
f 174 53 175
f 175 53 54
f 175 54 176
f 176 54 55
f 176 55 177
f 177 55 56
f 177 56 178
f 198 199 81
f 198 81 105
f 105 81 82
f 105 82 106
f 106 82 83
f 106 83 107
f 107 83 84
f 107 84 108
f 108 84 85
f 108 85 109
f 109 85 86
f 109 86 110
f 110 86 87
f 110 87 111
f 111 87 88
f 111 88 112
f 112 88 89
f 112 89 113
f 113 89 90
f 113 90 114
f 114 90 91
f 114 91 115
f 115 91 92
f 115 92 116
f 116 92 93
f 116 93 117
f 117 93 94
f 117 94 118
f 118 94 95
f 118 95 119
f 119 95 96
f 119 96 120
f 120 96 97
f 120 97 121
f 121 97 74
f 121 74 50
f 50 74 75
f 50 75 99
f 99 75 76
f 99 76 100
f 100 76 77
f 100 77 101
f 101 77 78
f 101 78 102
f 102 78 79
f 102 79 103
f 103 79 80
f 103 80 104
f 215 56 214
f 214 56 213
f 214 213 212
f 212 213 211
f 212 211 210
f 210 211 209
f 210 209 208
f 208 209 207
f 208 207 206
f 206 207 203
f 206 203 205
f 205 203 204
f 220 57 219
f 219 57 215
f 223 220 222
f 222 220 221
f 226 223 225
f 225 223 224
f 229 226 228
f 228 226 227
f 232 229 231
f 231 229 230
f 235 232 234
f 234 232 233
f 238 235 237
f 237 235 236
f 241 238 240
f 240 238 239
f 244 241 243
f 243 241 242
f 247 244 246
f 246 244 245
f 250 251 252
f 252 251 253
f 252 253 254
f 254 253 255
f 254 255 256
f 256 255 257
f 256 257 258
f 258 257 259
f 258 259 260
f 260 259 50
f 260 50 204
f 299 302 300
f 299 300 301
f 301 300 303
f 301 303 304
f 304 303 305
f 304 305 306
f 306 305 307
f 306 307 308
f 308 307 309
f 308 309 310
f 310 309 311
f 310 311 312
f 312 311 313
f 312 313 314
f 314 313 315
f 314 315 316
f 316 315 317
f 316 317 318
f 318 317 319
f 318 319 320
f 320 319 321
f 320 321 322
f 322 321 323
f 322 323 324
f 324 323 325
f 324 325 326
f 326 325 327
f 326 327 328
f 328 327 329
f 328 329 330
f 330 329 331
f 330 331 332
f 332 331 333
f 332 333 334
f 334 333 288
f 334 288 285
f 285 288 286
f 285 286 287
f 287 286 289
f 287 289 290
f 290 289 291
f 290 291 292
f 292 291 293
f 292 293 294
f 294 293 295
f 294 295 296
f 296 295 297
f 296 297 298
