# 12
v 0.1270831972360611 -0.1719740331172943 -0.10098613798618317
v 0.17323946952819824 -0.1719740331172943 -0.10098613798618317
v 0.17323946952819824 0.27802595496177673 -0.10098613798618317
v 0.3064054548740387 0.27802595496177673 -0.10098613798618317
v 0.3603382408618927 0.22459226846694946 -0.10098613798618317
v 0.3603382408618927 0.161317840218544 -0.10098613798618317
v 0.3068069815635681 0.161317840218544 -0.10098613798618317
v 0.3068069815635681 -0.1719740331172943 -0.10098613798618317
v 0.35296323895454407 -0.1719740331172943 -0.10098613798618317
v 0.35296323895454407 -0.27802592515945435 -0.10098613798618317
v 0.1270831972360611 -0.27802592515945435 -0.10098613798618317
v -0.36033815145492554 -0.1719740331172943 -0.10096195340156555
v -0.12687106430530548 -0.1719740331172943 -0.10096195340156555
v -0.36033815145492554 0.03267847001552582 -0.10096195340156555
v -0.36033815145492554 0.1873161494731903 -0.10096195340156555
v -0.27107173204421997 0.27802595496177673 -0.10096195340156555
v -0.0691324919462204 0.27802595496177673 -0.10096195340156555
v 0.022713784128427505 0.18713067471981049 -0.10096195340156555
v 0.022713784128427505 0.09947405010461807 -0.10096195340156555
v -0.10633814334869385 0.09947405010461807 -0.10096195340156555
v -0.10633814334869385 0.1719740480184555 -0.10096195340156555
v -0.2312861979007721 0.1719740480184555 -0.10096195340156555
v -0.2312861979007721 0.07360684871673584 -0.10096195340156555
v 0.022713784128427505 -0.15600252151489258 -0.10096195340156555
v 0.022713784128427505 -0.27802595496177673 -0.10096195340156555
v -0.36033815145492554 -0.27802595496177673 -0.10096195340156555
v 0.10110916942358017 -0.1459999978542328 -0.07501209527254105
v 0.1472654640674591 -0.1459999978542328 -0.07501208782196045
v 0.1472654640674591 0.30399999022483826 -0.07501208782196045
v 0.31709355115890503 0.30399999022483826 -0.07501210272312164
v 0.3863122761249542 0.23542192578315735 -0.07501209527254105
v 0.3863122761249542 0.1353437900543213 -0.07501209527254105
v 0.332781046628952 0.1353437900543213 -0.07501210272312164
v 0.332781046628952 -0.1459999978542328 -0.07501210272312164
v 0.378937304019928 -0.1459999978542328 -0.07501209527254105
v 0.378937304019928 -0.30399999022483826 -0.07501209527254105
v 0.10110916942358017 -0.30399999022483826 -0.07501209527254105
v -0.38631221652030945 -0.1459999978542328 -0.07498790323734283
v -0.19590595364570618 -0.1459999978542328 -0.07498790323734283
v -0.38631221652030945 0.020906277000904083 -0.07498790323734283
v -0.38631221652030945 0.19795311987400055 -0.07498790323734283
v -0.28195276856422424 0.30399999022483826 -0.07498790323734283
v -0.0584527850151062 0.30399999022483826 -0.07498790323734283
v 0.048687830567359924 0.1979687660932541 -0.07498790323734283
v 0.048687830567359924 0.07349999994039536 -0.07498790323734283
v -0.13231219351291656 0.07349999994039536 -0.07498790323734283
v -0.13231219351291656 0.1459999978542328 -0.07498790323734283
v -0.20531214773654938 0.1459999978542328 -0.07498790323734283
v -0.20531214773654938 0.08514063060283661 -0.07498790323734283
v 0.048687830567359924 -0.1444687396287918 -0.07498790323734283
v 0.048687830567359924 -0.30399999022483826 -0.07498790323734283
v -0.38631221652030945 -0.30399999022483826 -0.07498790323734283
v 0.10110916942358017 -0.1459999978542328 0.07498790323734283
v 0.1472654640674591 -0.1459999978542328 0.07498789578676224
v 0.1472654640674591 0.30399999022483826 0.07498789578676224
v 0.31709355115890503 0.30399999022483826 0.07498790323734283
v 0.3863122761249542 0.23542192578315735 0.07498790323734283
v 0.3863122761249542 0.1353437900543213 0.07498790323734283
v 0.33278101682662964 0.1353437900543213 0.07498790323734283
v 0.33278101682662964 -0.1459999978542328 0.07498790323734283
v 0.3789372444152832 -0.1459999978542328 0.07498790323734283
v 0.3789372444152832 -0.30399999022483826 0.07498790323734283
v 0.10110916942358017 -0.30399999022483826 0.07498790323734283
v -0.38631221652030945 -0.1459999978542328 0.07501208782196045
v -0.19590595364570618 -0.1459999978542328 0.07501208782196045
v -0.38631221652030945 0.020906277000904083 0.07501208782196045
v -0.38631221652030945 0.19795311987400055 0.07501208782196045
v -0.28195276856422424 0.30399999022483826 0.07501208782196045
v -0.0584527850151062 0.30399999022483826 0.07501208782196045
v 0.048687830567359924 0.1979687660932541 0.07501208782196045
v 0.048687830567359924 0.07349999994039536 0.07501208782196045
v -0.13231219351291656 0.07349999994039536 0.07501208782196045
v -0.13231219351291656 0.1459999978542328 0.07501208782196045
v -0.20531214773654938 0.1459999978542328 0.07501208782196045
v -0.20531214773654938 0.08514063060283661 0.07501208782196045
v 0.048687830567359924 -0.1444687396287918 0.07501208782196045
v 0.048687830567359924 -0.30399999022483826 0.07501208782196045
v -0.38631221652030945 -0.30399999022483826 0.07501208782196045
v 0.1270832121372223 -0.1719740331172943 0.10096195340156555
v 0.17323946952819824 -0.1719740331172943 0.10096195340156555
v 0.17323946952819824 0.27802595496177673 0.10096195340156555
v 0.3064053952693939 0.27802595496177673 0.10096193104982376
v 0.3603382408618927 0.22459226846694946 0.10096195340156555
v 0.3603382408618927 0.161317840218544 0.10096195340156555
v 0.3068069815635681 0.161317840218544 0.10096195340156555
v 0.3068069815635681 -0.1719740331172943 0.10096195340156555
v 0.35296329855918884 -0.1719740331172943 0.10096195340156555
v 0.35296329855918884 -0.27802592515945435 0.10096195340156555
v 0.1270832121372223 -0.27802592515945435 0.10096195340156555
v -0.36033815145492554 -0.1719740331172943 0.10098613798618317
v -0.12687106430530548 -0.1719740331172943 0.10098613798618317
v -0.36033815145492554 0.03267847001552582 0.10098613798618317
v -0.36033815145492554 0.1873161494731903 0.10098613798618317
v -0.27107173204421997 0.27802595496177673 0.10098613798618317
v -0.0691324919462204 0.27802595496177673 0.10098613798618317
v 0.022713784128427505 0.18713067471981049 0.10098613798618317
v 0.022713784128427505 0.09947405010461807 0.10098613798618317
v -0.10633814334869385 0.09947405010461807 0.10098613798618317
v -0.10633814334869385 0.1719740480184555 0.10098613798618317
v -0.2312861979007721 0.1719740480184555 0.10098613798618317
v -0.2312861979007721 0.07360684871673584 0.10098613798618317
v 0.022713784128427505 -0.15600252151489258 0.10098613798618317
v 0.022713784128427505 -0.27802595496177673 0.10098613798618317
v -0.36033815145492554 -0.27802595496177673 0.10098613798618317
v 0.1472654640674591 -0.1459999978542328 -0.07501208782196045
v 0.1472654640674591 -0.1459999978542328 0.07498789578676224
v 0.1472654640674591 0.30399999022483826 -0.07501208782196045
v 0.1472654640674591 0.30399999022483826 0.07498789578676224
v 0.31709355115890503 0.30399999022483826 -0.07501210272312164
v 0.31709355115890503 0.30399999022483826 0.07498790323734283
v 0.3863122761249542 0.23542192578315735 -0.07501209527254105
v 0.3863122761249542 0.23542192578315735 0.07498790323734283
v 0.3863122761249542 0.1353437900543213 -0.07501209527254105
v 0.3863122761249542 0.1353437900543213 0.07498790323734283
v 0.332781046628952 0.1353437900543213 -0.07501210272312164
v 0.33278101682662964 0.1353437900543213 0.07498790323734283
v 0.332781046628952 -0.1459999978542328 -0.07501210272312164
v 0.33278101682662964 -0.1459999978542328 0.07498790323734283
v 0.378937304019928 -0.1459999978542328 -0.07501209527254105
v 0.3789372444152832 -0.1459999978542328 0.07498790323734283
v 0.378937304019928 -0.30399999022483826 -0.07501209527254105
v 0.3789372444152832 -0.30399999022483826 0.07498790323734283
v 0.10110916942358017 -0.30399999022483826 -0.07501209527254105
v 0.10110916942358017 -0.30399999022483826 0.07498790323734283
v 0.10110916942358017 -0.1459999978542328 -0.07501209527254105
v 0.10110916942358017 -0.1459999978542328 0.07498790323734283
v -0.19590595364570618 -0.1459999978542328 -0.07498790323734283
v -0.19590595364570618 -0.1459999978542328 0.07501208782196045
v -0.38631221652030945 0.020906277000904083 -0.07498790323734283
v -0.38631221652030945 0.020906277000904083 0.07501208782196045
v -0.28195276856422424 0.30399999022483826 -0.07498790323734283
v -0.28195276856422424 0.30399999022483826 0.07501208782196045
v -0.0584527850151062 0.30399999022483826 -0.07498790323734283
v -0.0584527850151062 0.30399999022483826 0.07501208782196045
v 0.048687830567359924 0.1979687660932541 -0.07498790323734283
v 0.048687830567359924 0.1979687660932541 0.07501208782196045
v 0.048687830567359924 0.07349999994039536 -0.07498790323734283
v 0.048687830567359924 0.07349999994039536 0.07501208782196045
v -0.13231219351291656 0.07349999994039536 -0.07498790323734283
v -0.13231219351291656 0.07349999994039536 0.07501208782196045
v -0.13231219351291656 0.1459999978542328 -0.07498790323734283
v -0.13231219351291656 0.1459999978542328 0.07501208782196045
v -0.20531214773654938 0.1459999978542328 -0.07498790323734283
v -0.20531214773654938 0.1459999978542328 0.07501208782196045
v -0.20531214773654938 0.08514063060283661 -0.07498790323734283
v -0.20531214773654938 0.08514063060283661 0.07501208782196045
v 0.048687830567359924 -0.1444687396287918 -0.07498790323734283
v 0.048687830567359924 -0.1444687396287918 0.07501208782196045
v 0.048687830567359924 -0.30399999022483826 -0.07498790323734283
v 0.048687830567359924 -0.30399999022483826 0.07501208782196045
v -0.38631221652030945 -0.30399999022483826 -0.07498790323734283
v -0.38631221652030945 -0.30399999022483826 0.07501208782196045
v -0.38631221652030945 -0.1459999978542328 -0.07498790323734283
v -0.38631221652030945 -0.1459999978542328 0.07501208782196045
v 0.1472654640674591 -0.1459999978542328 -0.07501208782196045
v 0.1270831972360611 -0.1719740331172943 -0.10098613798618317
v 0.10110916942358017 -0.1459999978542328 -0.07501209527254105
v 0.17323946952819824 -0.1719740331172943 -0.10098613798618317
v 0.1472654640674591 0.30399999022483826 -0.07501208782196045
v 0.17323946952819824 -0.1719740331172943 -0.10098613798618317
v 0.1472654640674591 -0.1459999978542328 -0.07501208782196045
v 0.17323946952819824 0.27802595496177673 -0.10098613798618317
v 0.31709355115890503 0.30399999022483826 -0.07501210272312164
v 0.17323946952819824 0.27802595496177673 -0.10098613798618317
v 0.1472654640674591 0.30399999022483826 -0.07501208782196045
v 0.3064054548740387 0.27802595496177673 -0.10098613798618317
v 0.3863122761249542 0.23542192578315735 -0.07501209527254105
v 0.31709355115890503 0.30399999022483826 -0.07501210272312164
v 0.3603382408618927 0.22459226846694946 -0.10098613798618317
v 0.3863122761249542 0.1353437900543213 -0.07501209527254105
v 0.3863122761249542 0.23542192578315735 -0.07501209527254105
v 0.3603382408618927 0.161317840218544 -0.10098613798618317
v 0.332781046628952 0.1353437900543213 -0.07501210272312164
v 0.3863122761249542 0.1353437900543213 -0.07501209527254105
v 0.3068069815635681 0.161317840218544 -0.10098613798618317
v 0.332781046628952 -0.1459999978542328 -0.07501210272312164
v 0.332781046628952 0.1353437900543213 -0.07501210272312164
v 0.3068069815635681 -0.1719740331172943 -0.10098613798618317
v 0.378937304019928 -0.1459999978542328 -0.07501209527254105
v 0.332781046628952 -0.1459999978542328 -0.07501210272312164
v 0.35296323895454407 -0.1719740331172943 -0.10098613798618317
v 0.378937304019928 -0.30399999022483826 -0.07501209527254105
v 0.378937304019928 -0.1459999978542328 -0.07501209527254105
v 0.35296323895454407 -0.27802592515945435 -0.10098613798618317
v 0.10110916942358017 -0.30399999022483826 -0.07501209527254105
v 0.378937304019928 -0.30399999022483826 -0.07501209527254105
v 0.1270831972360611 -0.27802592515945435 -0.10098613798618317
v 0.10110916942358017 -0.1459999978542328 -0.07501209527254105
v 0.10110916942358017 -0.30399999022483826 -0.07501209527254105
v 0.1270831972360611 -0.1719740331172943 -0.10098613798618317
v -0.19590595364570618 -0.1459999978542328 -0.07498790323734283
v -0.36033815145492554 -0.1719740331172943 -0.10096195340156555
v -0.38631221652030945 -0.1459999978542328 -0.07498790323734283
v -0.12687106430530548 -0.1719740331172943 -0.10096195340156555
v -0.38631221652030945 0.020906277000904083 -0.07498790323734283
v -0.12687106430530548 -0.1719740331172943 -0.10096195340156555
v -0.19590595364570618 -0.1459999978542328 -0.07498790323734283
v -0.36033815145492554 0.03267847001552582 -0.10096195340156555
v -0.38631221652030945 0.19795311987400055 -0.07498790323734283
v -0.38631221652030945 0.020906277000904083 -0.07498790323734283
v -0.36033815145492554 0.1873161494731903 -0.10096195340156555
v -0.28195276856422424 0.30399999022483826 -0.07498790323734283
v -0.38631221652030945 0.19795311987400055 -0.07498790323734283
v -0.27107173204421997 0.27802595496177673 -0.10096195340156555
v -0.0584527850151062 0.30399999022483826 -0.07498790323734283
v -0.28195276856422424 0.30399999022483826 -0.07498790323734283
v -0.0691324919462204 0.27802595496177673 -0.10096195340156555
v 0.048687830567359924 0.1979687660932541 -0.07498790323734283
v -0.0584527850151062 0.30399999022483826 -0.07498790323734283
v 0.022713784128427505 0.18713067471981049 -0.10096195340156555
v 0.048687830567359924 0.1979687660932541 -0.07498790323734283
v 0.022713784128427505 0.09947405010461807 -0.10096195340156555
v -0.13231219351291656 0.07349999994039536 -0.07498790323734283
v 0.022713784128427505 0.09947405010461807 -0.10096195340156555
v 0.048687830567359924 0.07349999994039536 -0.07498790323734283
v -0.10633814334869385 0.09947405010461807 -0.10096195340156555
v -0.13231219351291656 0.1459999978542328 -0.07498790323734283
v -0.10633814334869385 0.09947405010461807 -0.10096195340156555
v -0.13231219351291656 0.07349999994039536 -0.07498790323734283
v -0.10633814334869385 0.1719740480184555 -0.10096195340156555
v -0.20531214773654938 0.1459999978542328 -0.07498790323734283
v -0.10633814334869385 0.1719740480184555 -0.10096195340156555
v -0.13231219351291656 0.1459999978542328 -0.07498790323734283
v -0.2312861979007721 0.1719740480184555 -0.10096195340156555
v -0.20531214773654938 0.08514063060283661 -0.07498790323734283
v -0.2312861979007721 0.1719740480184555 -0.10096195340156555
v -0.2312861979007721 0.07360684871673584 -0.10096195340156555
v 0.048687830567359924 -0.1444687396287918 -0.07498790323734283
v -0.20531214773654938 0.08514063060283661 -0.07498790323734283
v 0.022713784128427505 -0.15600252151489258 -0.10096195340156555
v 0.048687830567359924 -0.1444687396287918 -0.07498790323734283
v 0.022713784128427505 -0.27802595496177673 -0.10096195340156555
v -0.38631221652030945 -0.30399999022483826 -0.07498790323734283
v 0.022713784128427505 -0.27802595496177673 -0.10096195340156555
v 0.048687830567359924 -0.30399999022483826 -0.07498790323734283
v -0.36033815145492554 -0.27802595496177673 -0.10096195340156555
v -0.38631221652030945 -0.1459999978542328 -0.07498790323734283
v -0.36033815145492554 -0.27802595496177673 -0.10096195340156555
v -0.38631221652030945 -0.30399999022483826 -0.07498790323734283
v -0.36033815145492554 -0.1719740331172943 -0.10096195340156555
v 0.10110916942358017 -0.1459999978542328 0.07498790323734283
v 0.17323946952819824 -0.1719740331172943 0.10096195340156555
v 0.1472654640674591 -0.1459999978542328 0.07498789578676224
v 0.1270832121372223 -0.1719740331172943 0.10096195340156555
v 0.17323946952819824 0.27802595496177673 0.10096195340156555
v 0.17323946952819824 -0.1719740331172943 0.10096195340156555
v 0.1472654640674591 0.30399999022483826 0.07498789578676224
v 0.3064053952693939 0.27802595496177673 0.10096193104982376
v 0.31709355115890503 0.30399999022483826 0.07498790323734283
v 0.17323946952819824 0.27802595496177673 0.10096195340156555
v 0.3603382408618927 0.22459226846694946 0.10096195340156555
v 0.3863122761249542 0.23542192578315735 0.07498790323734283
v 0.3863122761249542 0.23542192578315735 0.07498790323734283
v 0.3603382408618927 0.161317840218544 0.10096195340156555
v 0.3863122761249542 0.1353437900543213 0.07498790323734283
v 0.3863122761249542 0.1353437900543213 0.07498790323734283
v 0.3068069815635681 0.161317840218544 0.10096195340156555
v 0.33278101682662964 0.1353437900543213 0.07498790323734283
v 0.3603382408618927 0.161317840218544 0.10096195340156555
v 0.33278101682662964 0.1353437900543213 0.07498790323734283
v 0.3068069815635681 -0.1719740331172943 0.10096195340156555
v 0.33278101682662964 -0.1459999978542328 0.07498790323734283
v 0.3068069815635681 0.161317840218544 0.10096195340156555
v 0.33278101682662964 -0.1459999978542328 0.07498790323734283
v 0.35296329855918884 -0.1719740331172943 0.10096195340156555
v 0.3789372444152832 -0.1459999978542328 0.07498790323734283
v 0.3068069815635681 -0.1719740331172943 0.10096195340156555
v 0.3789372444152832 -0.1459999978542328 0.07498790323734283
v 0.35296329855918884 -0.27802592515945435 0.10096195340156555
v 0.3789372444152832 -0.30399999022483826 0.07498790323734283
v 0.35296329855918884 -0.1719740331172943 0.10096195340156555
v 0.3789372444152832 -0.30399999022483826 0.07498790323734283
v 0.1270832121372223 -0.27802592515945435 0.10096195340156555
v 0.10110916942358017 -0.30399999022483826 0.07498790323734283
v 0.35296329855918884 -0.27802592515945435 0.10096195340156555
v 0.10110916942358017 -0.30399999022483826 0.07498790323734283
v 0.1270832121372223 -0.1719740331172943 0.10096195340156555
v -0.38631221652030945 -0.1459999978542328 0.07501208782196045
v -0.12687106430530548 -0.1719740331172943 0.10098613798618317
v -0.19590595364570618 -0.1459999978542328 0.07501208782196045
v -0.36033815145492554 -0.1719740331172943 0.10098613798618317
v -0.36033815145492554 0.03267847001552582 0.10098613798618317
v -0.38631221652030945 0.020906277000904083 0.07501208782196045
v -0.12687106430530548 -0.1719740331172943 0.10098613798618317
v -0.38631221652030945 0.020906277000904083 0.07501208782196045
v -0.36033815145492554 0.1873161494731903 0.10098613798618317
v -0.27107173204421997 0.27802595496177673 0.10098613798618317
v -0.28195276856422424 0.30399999022483826 0.07501208782196045
v -0.28195276856422424 0.30399999022483826 0.07501208782196045
v -0.0691324919462204 0.27802595496177673 0.10098613798618317
v -0.0584527850151062 0.30399999022483826 0.07501208782196045
v 0.022713784128427505 0.18713067471981049 0.10098613798618317
v 0.048687830567359924 0.1979687660932541 0.07501208782196045
v 0.048687830567359924 0.1979687660932541 0.07501208782196045
v 0.022713784128427505 0.09947405010461807 0.10098613798618317
v 0.048687830567359924 0.07349999994039536 0.07501208782196045
v 0.048687830567359924 0.07349999994039536 0.07501208782196045
v -0.10633814334869385 0.09947405010461807 0.10098613798618317
v -0.13231219351291656 0.07349999994039536 0.07501208782196045
v 0.022713784128427505 0.09947405010461807 0.10098613798618317
v -0.10633814334869385 0.1719740480184555 0.10098613798618317
v -0.10633814334869385 0.09947405010461807 0.10098613798618317
v -0.13231219351291656 0.1459999978542328 0.07501208782196045
v -0.2312861979007721 0.1719740480184555 0.10098613798618317
v -0.20531214773654938 0.1459999978542328 0.07501208782196045
v -0.10633814334869385 0.1719740480184555 0.10098613798618317
v -0.20531214773654938 0.1459999978542328 0.07501208782196045
v -0.2312861979007721 0.07360684871673584 0.10098613798618317
v -0.20531214773654938 0.08514063060283661 0.07501208782196045
v -0.2312861979007721 0.1719740480184555 0.10098613798618317
v -0.20531214773654938 0.08514063060283661 0.07501208782196045
v 0.022713784128427505 -0.15600252151489258 0.10098613798618317
v 0.048687830567359924 -0.1444687396287918 0.07501208782196045
v 0.048687830567359924 -0.1444687396287918 0.07501208782196045
v 0.022713784128427505 -0.27802595496177673 0.10098613798618317
v 0.048687830567359924 -0.30399999022483826 0.07501208782196045
v 0.048687830567359924 -0.30399999022483826 0.07501208782196045
v -0.36033815145492554 -0.27802595496177673 0.10098613798618317
v -0.38631221652030945 -0.30399999022483826 0.07501208782196045
v 0.022713784128427505 -0.27802595496177673 0.10098613798618317
v -0.36033815145492554 -0.1719740331172943 0.10098613798618317
v -0.36033815145492554 -0.27802595496177673 0.10098613798618317
g submesh_0
f 54 28 53
f 53 28 27
f 245 55 106
f 106 55 29
f 106 29 105
f 56 30 108
f 108 30 107
f 57 31 110
f 110 31 109
f 58 32 112
f 112 32 111
f 59 33 114
f 114 33 113
f 60 34 116
f 116 34 115
f 61 35 118
f 118 35 117
f 62 36 120
f 120 36 119
f 63 37 122
f 122 37 121
f 126 125 124
f 124 125 123
f 65 39 64
f 64 39 38
f 66 40 128
f 128 40 127
f 68 42 67
f 67 42 41
f 67 41 130
f 130 41 129
f 69 43 132
f 132 43 131
f 70 44 134
f 134 44 133
f 71 45 136
f 136 45 135
f 72 46 138
f 138 46 137
f 301 73 140
f 140 73 47
f 140 47 139
f 74 48 142
f 142 48 141
f 75 49 144
f 144 49 143
f 76 50 146
f 146 50 145
f 77 51 148
f 148 51 147
f 78 52 150
f 150 52 149
f 321 154 152
f 152 154 153
f 152 153 151
f 86 85 80
f 86 80 88
f 88 80 79
f 88 79 89
f 87 86 88
f 84 83 85
f 85 83 82
f 85 82 81
f 102 101 91
f 102 91 103
f 103 91 90
f 103 90 104
f 98 97 99
f 99 97 96
f 99 96 95
f 7 8 2
f 2 8 10
f 2 10 1
f 1 10 11
f 10 8 9
f 3 4 7
f 7 4 5
f 7 5 6
f 23 24 13
f 13 24 25
f 13 25 12
f 12 25 26
f 17 18 21
f 21 18 19
f 21 19 20
f 157 155 156
f 156 155 158
f 161 159 160
f 160 159 162
f 165 163 164
f 164 163 166
f 168 167 166
f 166 167 169
f 171 170 169
f 169 170 172
f 174 173 172
f 172 173 175
f 177 176 175
f 175 176 178
f 180 179 178
f 178 179 181
f 183 182 181
f 181 182 184
f 186 185 184
f 184 185 187
f 189 188 187
f 187 188 190
f 193 191 192
f 192 191 194
f 197 195 196
f 196 195 198
f 200 199 198
f 198 199 201
f 203 202 201
f 201 202 204
f 206 205 204
f 204 205 207
f 209 208 207
f 207 208 210
f 211 45 210
f 210 45 212
f 215 213 214
f 214 213 216
f 219 217 218
f 218 217 220
f 223 221 222
f 222 221 224
f 143 225 226
f 226 225 227
f 229 228 227
f 227 228 230
f 231 51 230
f 230 51 232
f 235 233 234
f 234 233 236
f 239 237 238
f 238 237 240
f 243 241 242
f 242 241 244
f 246 245 106
f 251 252 249
f 251 249 248
f 248 249 247
f 248 247 250
f 255 253 254
f 254 253 251
f 258 256 257
f 257 256 259
f 262 260 261
f 261 260 263
f 266 264 265
f 265 264 267
f 270 268 269
f 269 268 271
f 274 272 273
f 273 272 275
f 126 276 277
f 277 276 273
f 280 278 279
f 279 278 281
f 283 128 282
f 282 128 284
f 287 288 67
f 287 67 286
f 286 67 285
f 286 285 282
f 292 293 291
f 292 291 290
f 290 291 289
f 290 289 287
f 296 294 295
f 295 294 292
f 299 297 298
f 298 297 300
f 302 301 140
f 305 303 304
f 304 303 306
f 309 307 308
f 308 307 310
f 313 311 312
f 312 311 308
f 316 314 315
f 315 314 312
f 319 317 318
f 318 317 320
f 322 321 152
f 80 85 81
f 95 94 100
f 100 94 93
f 100 93 101
f 101 93 92
f 101 92 91
f 100 99 95
f 3 7 2
f 13 14 23
f 23 14 15
f 23 15 22
f 22 15 16
f 22 16 17
f 17 21 22
