# 11
v 0.1383724808692932 -0.1719740331172943 -0.10097404569387436
v 0.18452875316143036 -0.1719740331172943 -0.10097404569387436
v 0.18452875316143036 0.27802595496177673 -0.10097404569387436
v 0.31769466400146484 0.27802595496177673 -0.10097404569387436
v 0.37162747979164124 0.22459226846694946 -0.10097404569387436
v 0.37162747979164124 0.16131779551506042 -0.10097404569387436
v 0.3180962800979614 0.16131779551506042 -0.10097404569387436
v 0.3180962800979614 -0.1719740331172943 -0.10097404569387436
v 0.3642525374889374 -0.1719740331172943 -0.10097404569387436
v 0.3642525374889374 -0.27802595496177673 -0.10097404569387436
v 0.1383724808692932 -0.27802595496177673 -0.10097404569387436
v -0.37162747979164124 -0.1719740331172943 -0.10097404569387436
v -0.32547125220298767 -0.1719740331172943 -0.10097404569387436
v -0.32547125220298767 0.27802595496177673 -0.10097404569387436
v -0.1923052817583084 0.27802595496177673 -0.10097404569387436
v -0.1383724808692932 0.22459226846694946 -0.10097404569387436
v -0.1383724808692932 0.16131779551506042 -0.10097404569387436
v -0.19190369546413422 0.16131779551506042 -0.10097404569387436
v -0.19190369546413422 -0.1719740331172943 -0.10097404569387436
v -0.14574746787548065 -0.1719740331172943 -0.10097404569387436
v -0.14574746787548065 -0.27802595496177673 -0.10097404569387436
v -0.37162747979164124 -0.27802595496177673 -0.10097404569387436
v 0.1123984307050705 -0.1459999978542328 -0.07499999552965164
v 0.15855470299720764 -0.1459999978542328 -0.07499999552965164
v 0.15855470299720764 0.30399999022483826 -0.07499999552965164
v 0.32838279008865356 0.30399999022483826 -0.07499999552965164
v 0.39760154485702515 0.23542188107967377 -0.07499999552965164
v 0.39760154485702515 0.1353437602519989 -0.07499999552965164
v 0.34407034516334534 0.1353437602519989 -0.07499999552965164
v 0.34407034516334534 -0.1459999978542328 -0.07499999552965164
v 0.3902265727519989 -0.1459999978542328 -0.07499999552965164
v 0.3902265727519989 -0.30399999022483826 -0.07499999552965164
v 0.1123984307050705 -0.30399999022483826 -0.07499999552965164
v -0.39760154485702515 -0.1459999978542328 -0.07499999552965164
v -0.3514453172683716 -0.1459999978542328 -0.07499999552965164
v -0.3514453172683716 0.30399999022483826 -0.07499999552965164
v -0.1816171407699585 0.30399999022483826 -0.07499999552965164
v -0.1123984307050705 0.23542188107967377 -0.07499999552965164
v -0.1123984307050705 0.1353437602519989 -0.07499999552965164
v -0.1659296602010727 0.1353437602519989 -0.07499999552965164
v -0.1659296602010727 -0.1459999978542328 -0.07499999552965164
v -0.11977342516183853 -0.1459999978542328 -0.07499999552965164
v -0.11977342516183853 -0.30399999022483826 -0.07499999552965164
v -0.39760154485702515 -0.30399999022483826 -0.07499999552965164
v 0.1123984307050705 -0.1459999978542328 0.07499999552965164
v 0.15855470299720764 -0.1459999978542328 0.07499999552965164
v 0.15855470299720764 0.30399999022483826 0.07499999552965164
v 0.32838279008865356 0.30399999022483826 0.07499999552965164
v 0.39760154485702515 0.23542188107967377 0.07499999552965164
v 0.39760154485702515 0.1353437602519989 0.07499999552965164
v 0.34407034516334534 0.1353437602519989 0.07499999552965164
v 0.34407034516334534 -0.1459999978542328 0.07499999552965164
v 0.3902265727519989 -0.1459999978542328 0.07499999552965164
v 0.3902265727519989 -0.30399999022483826 0.07499999552965164
v 0.1123984307050705 -0.30399999022483826 0.07499999552965164
v -0.39760154485702515 -0.1459999978542328 0.07499999552965164
v -0.3514453172683716 -0.1459999978542328 0.07499999552965164
v -0.3514453172683716 0.30399999022483826 0.07499999552965164
v -0.1816171407699585 0.30399999022483826 0.07499999552965164
v -0.1123984307050705 0.23542188107967377 0.07499999552965164
v -0.1123984307050705 0.1353437602519989 0.07499999552965164
v -0.1659296602010727 0.1353437602519989 0.07499999552965164
v -0.1659296602010727 -0.1459999978542328 0.07499999552965164
v -0.11977342516183853 -0.1459999978542328 0.07499999552965164
v -0.11977342516183853 -0.30399999022483826 0.07499999552965164
v -0.39760154485702515 -0.30399999022483826 0.07499999552965164
v 0.1383724808692932 -0.1719740331172943 0.10097404569387436
v 0.18452875316143036 -0.1719740331172943 0.10097404569387436
v 0.18452875316143036 0.27802595496177673 0.10097404569387436
v 0.31769466400146484 0.27802595496177673 0.10097404569387436
v 0.37162747979164124 0.22459226846694946 0.10097404569387436
v 0.37162747979164124 0.16131779551506042 0.10097404569387436
v 0.3180962800979614 0.16131779551506042 0.10097404569387436
v 0.3180962800979614 -0.1719740331172943 0.10097404569387436
v 0.3642525374889374 -0.1719740331172943 0.10097404569387436
v 0.3642525374889374 -0.27802595496177673 0.10097404569387436
v 0.1383724808692932 -0.27802595496177673 0.10097404569387436
v -0.37162747979164124 -0.1719740331172943 0.10097404569387436
v -0.32547125220298767 -0.1719740331172943 0.10097404569387436
v -0.32547125220298767 0.27802595496177673 0.10097404569387436
v -0.1923052817583084 0.27802595496177673 0.10097404569387436
v -0.1383724808692932 0.22459226846694946 0.10097404569387436
v -0.1383724808692932 0.16131779551506042 0.10097404569387436
v -0.19190369546413422 0.16131779551506042 0.10097404569387436
v -0.19190369546413422 -0.1719740331172943 0.10097404569387436
v -0.14574746787548065 -0.1719740331172943 0.10097404569387436
v -0.14574746787548065 -0.27802595496177673 0.10097404569387436
v -0.37162747979164124 -0.27802595496177673 0.10097404569387436
v 0.15855470299720764 -0.1459999978542328 -0.07499999552965164
v 0.15855470299720764 -0.1459999978542328 0.07499999552965164
v 0.15855470299720764 0.30399999022483826 -0.07499999552965164
v 0.15855470299720764 0.30399999022483826 0.07499999552965164
v 0.32838279008865356 0.30399999022483826 -0.07499999552965164
v 0.32838279008865356 0.30399999022483826 0.07499999552965164
v 0.39760154485702515 0.23542188107967377 -0.07499999552965164
v 0.39760154485702515 0.23542188107967377 0.07499999552965164
v 0.39760154485702515 0.1353437602519989 -0.07499999552965164
v 0.39760154485702515 0.1353437602519989 0.07499999552965164
v 0.34407034516334534 0.1353437602519989 -0.07499999552965164
v 0.34407034516334534 0.1353437602519989 0.07499999552965164
v 0.34407034516334534 -0.1459999978542328 -0.07499999552965164
v 0.34407034516334534 -0.1459999978542328 0.07499999552965164
v 0.3902265727519989 -0.1459999978542328 -0.07499999552965164
v 0.3902265727519989 -0.1459999978542328 0.07499999552965164
v 0.3902265727519989 -0.30399999022483826 -0.07499999552965164
v 0.3902265727519989 -0.30399999022483826 0.07499999552965164
v 0.1123984307050705 -0.30399999022483826 -0.07499999552965164
v 0.1123984307050705 -0.30399999022483826 0.07499999552965164
v 0.1123984307050705 -0.1459999978542328 -0.07499999552965164
v 0.1123984307050705 -0.1459999978542328 0.07499999552965164
v -0.3514453172683716 -0.1459999978542328 -0.07499999552965164
v -0.3514453172683716 -0.1459999978542328 0.07499999552965164
v -0.3514453172683716 0.30399999022483826 -0.07499999552965164
v -0.3514453172683716 0.30399999022483826 0.07499999552965164
v -0.1816171407699585 0.30399999022483826 -0.07499999552965164
v -0.1816171407699585 0.30399999022483826 0.07499999552965164
v -0.1123984307050705 0.23542188107967377 -0.07499999552965164
v -0.1123984307050705 0.23542188107967377 0.07499999552965164
v -0.1123984307050705 0.1353437602519989 -0.07499999552965164
v -0.1123984307050705 0.1353437602519989 0.07499999552965164
v -0.1659296602010727 0.1353437602519989 -0.07499999552965164
v -0.1659296602010727 0.1353437602519989 0.07499999552965164
v -0.1659296602010727 -0.1459999978542328 -0.07499999552965164
v -0.1659296602010727 -0.1459999978542328 0.07499999552965164
v -0.11977342516183853 -0.1459999978542328 -0.07499999552965164
v -0.11977342516183853 -0.1459999978542328 0.07499999552965164
v -0.11977342516183853 -0.30399999022483826 -0.07499999552965164
v -0.11977342516183853 -0.30399999022483826 0.07499999552965164
v -0.39760154485702515 -0.30399999022483826 -0.07499999552965164
v -0.39760154485702515 -0.30399999022483826 0.07499999552965164
v -0.39760154485702515 -0.1459999978542328 -0.07499999552965164
v -0.39760154485702515 -0.1459999978542328 0.07499999552965164
v 0.15855470299720764 -0.1459999978542328 -0.07499999552965164
v 0.1383724808692932 -0.1719740331172943 -0.10097404569387436
v 0.1123984307050705 -0.1459999978542328 -0.07499999552965164
v 0.18452875316143036 -0.1719740331172943 -0.10097404569387436
v 0.15855470299720764 0.30399999022483826 -0.07499999552965164
v 0.18452875316143036 -0.1719740331172943 -0.10097404569387436
v 0.15855470299720764 -0.1459999978542328 -0.07499999552965164
v 0.18452875316143036 0.27802595496177673 -0.10097404569387436
v 0.32838279008865356 0.30399999022483826 -0.07499999552965164
v 0.18452875316143036 0.27802595496177673 -0.10097404569387436
v 0.15855470299720764 0.30399999022483826 -0.07499999552965164
v 0.31769466400146484 0.27802595496177673 -0.10097404569387436
v 0.39760154485702515 0.23542188107967377 -0.07499999552965164
v 0.32838279008865356 0.30399999022483826 -0.07499999552965164
v 0.37162747979164124 0.22459226846694946 -0.10097404569387436
v 0.39760154485702515 0.23542188107967377 -0.07499999552965164
v 0.37162747979164124 0.16131779551506042 -0.10097404569387436
v 0.34407034516334534 0.1353437602519989 -0.07499999552965164
v 0.37162747979164124 0.16131779551506042 -0.10097404569387436
v 0.39760154485702515 0.1353437602519989 -0.07499999552965164
v 0.3180962800979614 0.16131779551506042 -0.10097404569387436
v 0.3180962800979614 0.16131779551506042 -0.10097404569387436
v 0.3180962800979614 -0.1719740331172943 -0.10097404569387436
v 0.3902265727519989 -0.1459999978542328 -0.07499999552965164
v 0.3180962800979614 -0.1719740331172943 -0.10097404569387436
v 0.34407034516334534 -0.1459999978542328 -0.07499999552965164
v 0.3642525374889374 -0.1719740331172943 -0.10097404569387436
v 0.3642525374889374 -0.1719740331172943 -0.10097404569387436
v 0.3642525374889374 -0.27802595496177673 -0.10097404569387436
v 0.1123984307050705 -0.30399999022483826 -0.07499999552965164
v 0.3642525374889374 -0.27802595496177673 -0.10097404569387436
v 0.3902265727519989 -0.30399999022483826 -0.07499999552965164
v 0.1383724808692932 -0.27802595496177673 -0.10097404569387436
v 0.1123984307050705 -0.1459999978542328 -0.07499999552965164
v 0.1383724808692932 -0.27802595496177673 -0.10097404569387436
v 0.1123984307050705 -0.30399999022483826 -0.07499999552965164
v 0.1383724808692932 -0.1719740331172943 -0.10097404569387436
v -0.3514453172683716 -0.1459999978542328 -0.07499999552965164
v -0.37162747979164124 -0.1719740331172943 -0.10097404569387436
v -0.39760154485702515 -0.1459999978542328 -0.07499999552965164
v -0.32547125220298767 -0.1719740331172943 -0.10097404569387436
v -0.3514453172683716 0.30399999022483826 -0.07499999552965164
v -0.32547125220298767 -0.1719740331172943 -0.10097404569387436
v -0.3514453172683716 -0.1459999978542328 -0.07499999552965164
v -0.32547125220298767 0.27802595496177673 -0.10097404569387436
v -0.1816171407699585 0.30399999022483826 -0.07499999552965164
v -0.32547125220298767 0.27802595496177673 -0.10097404569387436
v -0.3514453172683716 0.30399999022483826 -0.07499999552965164
v -0.32547125220298767 0.27802595496177673 -0.10097404569387436
v -0.1923052817583084 0.27802595496177673 -0.10097404569387436
v -0.1123984307050705 0.23542188107967377 -0.07499999552965164
v -0.1816171407699585 0.30399999022483826 -0.07499999552965164
v -0.1383724808692932 0.22459226846694946 -0.10097404569387436
v -0.1123984307050705 0.23542188107967377 -0.07499999552965164
v -0.1383724808692932 0.16131779551506042 -0.10097404569387436
v -0.1659296602010727 0.1353437602519989 -0.07499999552965164
v -0.1383724808692932 0.16131779551506042 -0.10097404569387436
v -0.1123984307050705 0.1353437602519989 -0.07499999552965164
v -0.19190369546413422 0.16131779551506042 -0.10097404569387436
v -0.19190369546413422 0.16131779551506042 -0.10097404569387436
v -0.19190369546413422 -0.1719740331172943 -0.10097404569387436
v -0.11977342516183853 -0.1459999978542328 -0.07499999552965164
v -0.19190369546413422 -0.1719740331172943 -0.10097404569387436
v -0.1659296602010727 -0.1459999978542328 -0.07499999552965164
v -0.14574746787548065 -0.1719740331172943 -0.10097404569387436
v -0.14574746787548065 -0.1719740331172943 -0.10097404569387436
v -0.14574746787548065 -0.27802595496177673 -0.10097404569387436
v -0.39760154485702515 -0.30399999022483826 -0.07499999552965164
v -0.14574746787548065 -0.27802595496177673 -0.10097404569387436
v -0.11977342516183853 -0.30399999022483826 -0.07499999552965164
v -0.37162747979164124 -0.27802595496177673 -0.10097404569387436
v -0.39760154485702515 -0.1459999978542328 -0.07499999552965164
v -0.37162747979164124 -0.27802595496177673 -0.10097404569387436
v -0.39760154485702515 -0.30399999022483826 -0.07499999552965164
v -0.37162747979164124 -0.1719740331172943 -0.10097404569387436
v 0.1123984307050705 -0.1459999978542328 0.07499999552965164
v 0.18452875316143036 -0.1719740331172943 0.10097404569387436
v 0.15855470299720764 -0.1459999978542328 0.07499999552965164
v 0.1383724808692932 -0.1719740331172943 0.10097404569387436
v 0.18452875316143036 0.27802595496177673 0.10097404569387436
v 0.18452875316143036 -0.1719740331172943 0.10097404569387436
v 0.15855470299720764 0.30399999022483826 0.07499999552965164
v 0.31769466400146484 0.27802595496177673 0.10097404569387436
v 0.32838279008865356 0.30399999022483826 0.07499999552965164
v 0.18452875316143036 0.27802595496177673 0.10097404569387436
v 0.37162747979164124 0.22459226846694946 0.10097404569387436
v 0.39760154485702515 0.23542188107967377 0.07499999552965164
v 0.39760154485702515 0.23542188107967377 0.07499999552965164
v 0.37162747979164124 0.16131779551506042 0.10097404569387436
v 0.39760154485702515 0.1353437602519989 0.07499999552965164
v 0.39760154485702515 0.1353437602519989 0.07499999552965164
v 0.3180962800979614 0.16131779551506042 0.10097404569387436
v 0.34407034516334534 0.1353437602519989 0.07499999552965164
v 0.37162747979164124 0.16131779551506042 0.10097404569387436
v 0.34407034516334534 0.1353437602519989 0.07499999552965164
v 0.3180962800979614 -0.1719740331172943 0.10097404569387436
v 0.34407034516334534 -0.1459999978542328 0.07499999552965164
v 0.3180962800979614 0.16131779551506042 0.10097404569387436
v 0.34407034516334534 -0.1459999978542328 0.07499999552965164
v 0.3642525374889374 -0.1719740331172943 0.10097404569387436
v 0.3902265727519989 -0.1459999978542328 0.07499999552965164
v 0.3180962800979614 -0.1719740331172943 0.10097404569387436
v 0.3902265727519989 -0.1459999978542328 0.07499999552965164
v 0.3642525374889374 -0.27802595496177673 0.10097404569387436
v 0.3902265727519989 -0.30399999022483826 0.07499999552965164
v 0.3642525374889374 -0.1719740331172943 0.10097404569387436
v 0.3902265727519989 -0.30399999022483826 0.07499999552965164
v 0.1383724808692932 -0.27802595496177673 0.10097404569387436
v 0.1123984307050705 -0.30399999022483826 0.07499999552965164
v 0.3642525374889374 -0.27802595496177673 0.10097404569387436
v 0.1383724808692932 -0.1719740331172943 0.10097404569387436
v 0.1383724808692932 -0.27802595496177673 0.10097404569387436
v -0.39760154485702515 -0.1459999978542328 0.07499999552965164
v -0.32547125220298767 -0.1719740331172943 0.10097404569387436
v -0.3514453172683716 -0.1459999978542328 0.07499999552965164
v -0.37162747979164124 -0.1719740331172943 0.10097404569387436
v -0.32547125220298767 0.27802595496177673 0.10097404569387436
v -0.3514453172683716 0.30399999022483826 0.07499999552965164
v -0.32547125220298767 -0.1719740331172943 0.10097404569387436
v -0.3514453172683716 0.30399999022483826 0.07499999552965164
v -0.1923052817583084 0.27802595496177673 0.10097404569387436
v -0.1816171407699585 0.30399999022483826 0.07499999552965164
v -0.3514453172683716 0.30399999022483826 0.07499999552965164
v -0.32547125220298767 0.27802595496177673 0.10097404569387436
v -0.1383724808692932 0.22459226846694946 0.10097404569387436
v -0.1123984307050705 0.23542188107967377 0.07499999552965164
v -0.1123984307050705 0.23542188107967377 0.07499999552965164
v -0.1383724808692932 0.16131779551506042 0.10097404569387436
v -0.1123984307050705 0.1353437602519989 0.07499999552965164
v -0.1123984307050705 0.1353437602519989 0.07499999552965164
v -0.19190369546413422 0.16131779551506042 0.10097404569387436
v -0.1659296602010727 0.1353437602519989 0.07499999552965164
v -0.1383724808692932 0.16131779551506042 0.10097404569387436
v -0.1659296602010727 0.1353437602519989 0.07499999552965164
v -0.19190369546413422 -0.1719740331172943 0.10097404569387436
v -0.1659296602010727 -0.1459999978542328 0.07499999552965164
v -0.19190369546413422 0.16131779551506042 0.10097404569387436
v -0.1659296602010727 -0.1459999978542328 0.07499999552965164
v -0.14574746787548065 -0.1719740331172943 0.10097404569387436
v -0.11977342516183853 -0.1459999978542328 0.07499999552965164
v -0.19190369546413422 -0.1719740331172943 0.10097404569387436
v -0.11977342516183853 -0.1459999978542328 0.07499999552965164
v -0.14574746787548065 -0.27802595496177673 0.10097404569387436
v -0.11977342516183853 -0.30399999022483826 0.07499999552965164
v -0.14574746787548065 -0.1719740331172943 0.10097404569387436
v -0.11977342516183853 -0.30399999022483826 0.07499999552965164
v -0.37162747979164124 -0.27802595496177673 0.10097404569387436
v -0.39760154485702515 -0.30399999022483826 0.07499999552965164
v -0.14574746787548065 -0.27802595496177673 0.10097404569387436
v -0.37162747979164124 -0.1719740331172943 0.10097404569387436
v -0.37162747979164124 -0.27802595496177673 0.10097404569387436
g submesh_0
f 180 178 179
f 182 181 178
f 256 253 255
f 46 24 45
f 45 24 23
f 212 47 90
f 90 47 25
f 90 25 89
f 48 26 92
f 92 26 91
f 49 27 94
f 94 27 93
f 50 28 96
f 96 28 95
f 51 29 98
f 98 29 97
f 154 99 30
f 30 99 100
f 30 100 52
f 53 31 102
f 102 31 101
f 160 103 32
f 32 103 104
f 32 104 54
f 55 33 106
f 106 33 105
f 243 110 108
f 108 110 109
f 108 109 107
f 57 35 56
f 56 35 34
f 58 36 112
f 112 36 111
f 59 37 114
f 114 37 113
f 60 38 116
f 116 38 115
f 61 39 118
f 118 39 117
f 62 40 120
f 120 40 119
f 192 121 41
f 41 121 122
f 41 122 63
f 64 42 124
f 124 42 123
f 198 125 43
f 43 125 126
f 43 126 65
f 66 44 128
f 128 44 127
f 282 132 130
f 130 132 131
f 130 131 129
f 74 73 68
f 74 68 76
f 76 68 67
f 76 67 77
f 75 74 76
f 72 71 73
f 73 71 70
f 73 70 69
f 85 84 79
f 85 79 87
f 87 79 78
f 87 78 88
f 86 85 87
f 83 82 84
f 84 82 81
f 84 81 80
f 7 8 2
f 2 8 10
f 2 10 1
f 1 10 11
f 10 8 9
f 3 4 7
f 7 4 5
f 7 5 6
f 18 19 13
f 13 19 21
f 13 21 12
f 12 21 22
f 21 19 20
f 14 15 18
f 18 15 16
f 18 16 17
f 135 133 134
f 134 133 136
f 139 137 138
f 138 137 140
f 143 141 142
f 142 141 144
f 146 145 144
f 144 145 147
f 148 28 147
f 147 28 149
f 152 150 151
f 151 150 153
f 155 154 30
f 158 156 157
f 157 156 159
f 161 160 32
f 164 162 163
f 163 162 165
f 168 166 167
f 167 166 169
f 172 170 171
f 171 170 173
f 176 174 175
f 175 174 177
f 184 183 182
f 182 183 185
f 186 39 185
f 185 39 187
f 190 188 189
f 189 188 191
f 193 192 41
f 196 194 195
f 195 194 197
f 199 198 43
f 202 200 201
f 201 200 203
f 206 204 205
f 205 204 207
f 210 208 209
f 209 208 211
f 213 212 90
f 218 219 216
f 218 216 215
f 215 216 214
f 215 214 217
f 222 220 221
f 221 220 218
f 225 223 224
f 224 223 226
f 229 227 228
f 228 227 230
f 233 231 232
f 232 231 234
f 237 235 236
f 236 235 238
f 241 239 240
f 240 239 242
f 244 243 108
f 247 245 246
f 246 245 248
f 250 112 249
f 249 112 251
f 252 253 254
f 254 253 257
f 254 257 258
f 261 259 260
f 260 259 257
f 264 262 263
f 263 262 265
f 268 266 267
f 267 266 269
f 272 270 271
f 271 270 273
f 276 274 275
f 275 274 277
f 280 278 279
f 279 278 281
f 283 282 130
f 68 73 69
f 79 84 80
f 3 7 2
f 14 18 13
