# biplane_base
v -0.0006370428600348532 -1.9861046401253857e-12 0.0
v -0.0004504573589656502 0.00045045738806948066 0.0
v 2.7846029301836772e-11 0.000637042976450175 0.0
v 0.0004504573589656502 0.00045045738806948066 0.0
v 0.0006370428600348532 -5.7678171266895006e-11 0.0
v 0.0004504573589656502 -0.00045045747538097203 0.0
v -7.596660279995948e-12 -0.000637042976450175 0.0
v -0.0004504573589656502 -0.00045045747538097203 0.0
v -0.0006370428600348532 -1.9861022548806062e-12 0.0015197336906567216
v -0.0004504573589656502 0.00045045738806948066 0.0015197336906567216
v 2.7846029301836772e-11 0.000637042976450175 0.0015197336906567216
v 0.0004504573589656502 0.00045045738806948066 0.0015197336906567216
v 0.0006370428600348532 -5.7678171266895006e-11 0.0015197336906567216
v 0.0004504573589656502 -0.00045045747538097203 0.0015197336906567216
v -7.596660279995948e-12 -0.000637042976450175 0.0015197336906567216
v -0.0004504573589656502 -0.00045045747538097203 0.0015197336906567216
v 0.0006370428600348532 -5.7678171266895006e-11 0.0
v -0.0006370428600348532 -1.9861046401253857e-12 0.0
v -0.0006370428600348532 -1.9861022548806062e-12 0.0015197336906567216
v 2.7846029301836772e-11 0.000637042976450175 0.0015197336906567216
v -0.0004504573589656502 0.00045045738806948066 0.0015197336906567216
v 0.0006370428600348532 -5.7678171266895006e-11 0.0015197336906567216
v 0.0004504573589656502 0.00045045738806948066 0.0015197336906567216
v -7.596660279995948e-12 -0.000637042976450175 0.0015197336906567216
v 0.0004504573589656502 -0.00045045747538097203 0.0015197336906567216
v -0.0004504573589656502 -0.00045045747538097203 0.0015197336906567216
g submesh_0
f 13 5 4
f 13 4 12
f 12 4 3
f 12 3 11
f 11 3 2
f 11 2 10
f 10 2 1
f 10 1 9
f 9 18 8
f 9 8 16
f 16 8 7
f 16 7 15
f 15 7 6
f 15 6 14
f 14 6 17
f 14 17 13
f 24 25 22
f 24 22 19
f 19 22 20
f 19 20 21
f 20 22 23
f 24 19 26
