# quarter_card_02
v -0.31238046288490295 0.0 0.0
v -0.29644015431404114 0.09867659211158752 0.0
v -0.2520643174648285 0.18442058563232422 0.0
v -0.18442054092884064 0.2520642876625061 0.0
v -0.09867655485868454 0.29644015431404114 0.0
v 1.3654583241873297e-08 0.31238046288490295 0.0
v 0.09867659956216812 0.29644015431404114 0.0
v 0.1844206005334854 0.2520643174648285 0.0
v 0.2520643174648285 0.18442054092884064 0.0
v 0.29644015431404114 0.09867655485868454 0.0
v 0.31238046288490295 -2.7309166483746594e-08 0.0
v 0.29644015431404114 -0.09867661446332932 0.0
v 0.2520642876625061 -0.1844206005334854 0.0
v 0.18442052602767944 -0.2520643174648285 0.0
v 0.09867654740810394 -0.29644015431404114 0.0
v -4.096375505469041e-08 -0.31238046288490295 0.0
v -0.09867662191390991 -0.29644015431404114 0.0
v -0.1844206005334854 -0.2520643174648285 0.0
v -0.2520643174648285 -0.18442054092884064 0.0
v -0.29644015431404114 -0.09867658466100693 0.0
g submesh_0
f 9 8 4
f 4 8 7
f 4 7 5
f 5 7 6
f 3 2 4
f 4 2 1
f 4 1 20
f 12 11 4
f 4 11 10
f 4 10 9
f 15 14 4
f 4 14 13
f 4 13 12
f 18 17 4
f 4 17 16
f 4 16 15
f 18 4 19
f 19 4 20
