# 10
v 0.17696622014045715 -0.1719740331172943 -0.10097404569387436
v 0.2231224924325943 -0.1719740331172943 -0.10097404569387436
v 0.2231224924325943 0.27802595496177673 -0.10097404569387436
v 0.35628843307495117 0.27802595496177673 -0.10097404569387436
v 0.41022124886512756 0.22459226846694946 -0.10097404569387436
v 0.41022124886512756 0.16131779551506042 -0.10097404569387436
v 0.35669004917144775 0.16131779551506042 -0.10097404569387436
v 0.35669004917144775 -0.1719740331172943 -0.10097404569387436
v 0.4028462767601013 -0.1719740331172943 -0.10097404569387436
v 0.4028462767601013 -0.27802595496177673 -0.10097404569387436
v 0.17696622014045715 -0.27802595496177673 -0.10097404569387436
v -0.41022124886512756 0.1907597929239273 -0.10097404569387436
v -0.32208967208862305 0.27802595496177673 -0.10097404569387436
v -0.11827941983938217 0.27802595496177673 -0.10097404569387436
v -0.02816934511065483 0.18720701336860657 -0.10097404569387436
v -0.02816934511065483 -0.18621890246868134 -0.10097404569387436
v -0.12005681544542313 -0.27802595496177673 -0.10097404569387436
v -0.3175426721572876 -0.27802595496177673 -0.10097404569387436
v -0.41022124886512756 -0.18700949847698212 -0.10097404569387436
v -0.15522126853466034 -0.1719740331172943 -0.10097404569387436
v -0.15522126853466034 0.1719740480184555 -0.10097404569387436
v -0.28316932916641235 0.1719740480184555 -0.10097404569387436
v -0.28316932916641235 -0.1719740331172943 -0.10097404569387436
v 0.15099218487739563 -0.1459999978542328 -0.07499999552965164
v 0.19714845716953278 -0.1459999978542328 -0.07499999552965164
v 0.19714845716953278 0.30399999022483826 -0.07499999552965164
v 0.3669765293598175 0.30399999022483826 -0.07499999552965164
v 0.4361952841281891 0.23542188107967377 -0.07499999552965164
v 0.4361952841281891 0.1353437602519989 -0.07499999552965164
v 0.38266411423683167 0.1353437602519989 -0.07499999552965164
v 0.38266411423683167 -0.1459999978542328 -0.07499999552965164
v 0.42882034182548523 -0.1459999978542328 -0.07499999552965164
v 0.42882034182548523 -0.30399999022483826 -0.07499999552965164
v 0.15099218487739563 -0.30399999022483826 -0.07499999552965164
v -0.4361952841281891 0.20159375667572021 -0.07499999552965164
v -0.3327734172344208 0.30399999022483826 -0.07499999552965164
v -0.10746095329523087 0.30399999022483826 -0.07499999552965164
v -0.0021953010000288486 0.1979062408208847 -0.07499999552965164
v -0.0021953010000288486 -0.19698436558246613 -0.07499999552965164
v -0.10930467396974564 -0.30399999022483826 -0.07499999552965164
v -0.3281640410423279 -0.30399999022483826 -0.07499999552965164
v -0.4361952841281891 -0.1979062408208847 -0.07499999552965164
v -0.18119531869888306 -0.1459999978542328 -0.07499999552965164
v -0.18119531869888306 0.1459999978542328 -0.07499999552965164
v -0.25719529390335083 0.1459999978542328 -0.07499999552965164
v -0.25719529390335083 -0.1459999978542328 -0.07499999552965164
v 0.15099218487739563 -0.1459999978542328 0.07499999552965164
v 0.19714845716953278 -0.1459999978542328 0.07499999552965164
v 0.19714845716953278 0.30399999022483826 0.07499999552965164
v 0.3669765293598175 0.30399999022483826 0.07499999552965164
v 0.4361952841281891 0.23542188107967377 0.07499999552965164
v 0.4361952841281891 0.1353437602519989 0.07499999552965164
v 0.38266411423683167 0.1353437602519989 0.07499999552965164
v 0.38266411423683167 -0.1459999978542328 0.07499999552965164
v 0.42882034182548523 -0.1459999978542328 0.07499999552965164
v 0.42882034182548523 -0.30399999022483826 0.07499999552965164
v 0.15099218487739563 -0.30399999022483826 0.07499999552965164
v -0.4361952841281891 0.20159375667572021 0.07499999552965164
v -0.3327734172344208 0.30399999022483826 0.07499999552965164
v -0.10746095329523087 0.30399999022483826 0.07499999552965164
v -0.0021953010000288486 0.1979062408208847 0.07499999552965164
v -0.0021953010000288486 -0.19698436558246613 0.07499999552965164
v -0.10930467396974564 -0.30399999022483826 0.07499999552965164
v -0.3281640410423279 -0.30399999022483826 0.07499999552965164
v -0.4361952841281891 -0.1979062408208847 0.07499999552965164
v -0.18119531869888306 -0.1459999978542328 0.07499999552965164
v -0.18119531869888306 0.1459999978542328 0.07499999552965164
v -0.25719529390335083 0.1459999978542328 0.07499999552965164
v -0.25719529390335083 -0.1459999978542328 0.07499999552965164
v 0.17696622014045715 -0.1719740331172943 0.10097404569387436
v 0.2231224924325943 -0.1719740331172943 0.10097404569387436
v 0.2231224924325943 0.27802595496177673 0.10097404569387436
v 0.35628843307495117 0.27802595496177673 0.10097404569387436
v 0.41022124886512756 0.22459226846694946 0.10097404569387436
v 0.41022124886512756 0.16131779551506042 0.10097404569387436
v 0.35669004917144775 0.16131779551506042 0.10097404569387436
v 0.35669004917144775 -0.1719740331172943 0.10097404569387436
v 0.4028462767601013 -0.1719740331172943 0.10097404569387436
v 0.4028462767601013 -0.27802595496177673 0.10097404569387436
v 0.17696622014045715 -0.27802595496177673 0.10097404569387436
v -0.41022124886512756 0.1907597929239273 0.10097404569387436
v -0.32208967208862305 0.27802595496177673 0.10097404569387436
v -0.11827941983938217 0.27802595496177673 0.10097404569387436
v -0.02816934511065483 0.18720701336860657 0.10097404569387436
v -0.02816934511065483 -0.18621890246868134 0.10097404569387436
v -0.12005681544542313 -0.27802595496177673 0.10097404569387436
v -0.3175426721572876 -0.27802595496177673 0.10097404569387436
v -0.41022124886512756 -0.18700949847698212 0.10097404569387436
v -0.15522126853466034 -0.1719740331172943 0.10097404569387436
v -0.15522126853466034 0.1719740480184555 0.10097404569387436
v -0.28316932916641235 0.1719740480184555 0.10097404569387436
v -0.28316932916641235 -0.1719740331172943 0.10097404569387436
v 0.19714845716953278 -0.1459999978542328 -0.07499999552965164
v 0.19714845716953278 -0.1459999978542328 0.07499999552965164
v 0.19714845716953278 0.30399999022483826 -0.07499999552965164
v 0.19714845716953278 0.30399999022483826 0.07499999552965164
v 0.3669765293598175 0.30399999022483826 -0.07499999552965164
v 0.3669765293598175 0.30399999022483826 0.07499999552965164
v 0.4361952841281891 0.23542188107967377 -0.07499999552965164
v 0.4361952841281891 0.23542188107967377 0.07499999552965164
v 0.4361952841281891 0.1353437602519989 -0.07499999552965164
v 0.4361952841281891 0.1353437602519989 0.07499999552965164
v 0.38266411423683167 0.1353437602519989 -0.07499999552965164
v 0.38266411423683167 0.1353437602519989 0.07499999552965164
v 0.38266411423683167 -0.1459999978542328 -0.07499999552965164
v 0.38266411423683167 -0.1459999978542328 0.07499999552965164
v 0.42882034182548523 -0.1459999978542328 -0.07499999552965164
v 0.42882034182548523 -0.1459999978542328 0.07499999552965164
v 0.42882034182548523 -0.30399999022483826 -0.07499999552965164
v 0.42882034182548523 -0.30399999022483826 0.07499999552965164
v 0.15099218487739563 -0.30399999022483826 -0.07499999552965164
v 0.15099218487739563 -0.30399999022483826 0.07499999552965164
v 0.15099218487739563 -0.1459999978542328 -0.07499999552965164
v 0.15099218487739563 -0.1459999978542328 0.07499999552965164
v -0.3327734172344208 0.30399999022483826 -0.07499999552965164
v -0.3327734172344208 0.30399999022483826 0.07499999552965164
v -0.10746095329523087 0.30399999022483826 -0.07499999552965164
v -0.10746095329523087 0.30399999022483826 0.07499999552965164
v -0.0021953010000288486 -0.19698436558246613 -0.07499999552965164
v -0.0021953010000288486 -0.19698436558246613 0.07499999552965164
v -0.10930467396974564 -0.30399999022483826 -0.07499999552965164
v -0.10930467396974564 -0.30399999022483826 0.07499999552965164
v -0.3281640410423279 -0.30399999022483826 -0.07499999552965164
v -0.3281640410423279 -0.30399999022483826 0.07499999552965164
v -0.4361952841281891 -0.1979062408208847 -0.07499999552965164
v -0.4361952841281891 -0.1979062408208847 0.07499999552965164
v -0.4361952841281891 0.20159375667572021 -0.07499999552965164
v -0.4361952841281891 0.20159375667572021 0.07499999552965164
v -0.18119531869888306 0.1459999978542328 -0.07499999552965164
v -0.18119531869888306 0.1459999978542328 0.07499999552965164
v -0.25719529390335083 0.1459999978542328 -0.07499999552965164
v -0.25719529390335083 0.1459999978542328 0.07499999552965164
v -0.25719529390335083 -0.1459999978542328 -0.07499999552965164
v -0.25719529390335083 -0.1459999978542328 0.07499999552965164
v -0.18119531869888306 -0.1459999978542328 -0.07499999552965164
v -0.18119531869888306 -0.1459999978542328 0.07499999552965164
v 0.19714845716953278 -0.1459999978542328 -0.07499999552965164
v 0.17696622014045715 -0.1719740331172943 -0.10097404569387436
v 0.15099218487739563 -0.1459999978542328 -0.07499999552965164
v 0.2231224924325943 -0.1719740331172943 -0.10097404569387436
v 0.19714845716953278 0.30399999022483826 -0.07499999552965164
v 0.2231224924325943 -0.1719740331172943 -0.10097404569387436
v 0.19714845716953278 -0.1459999978542328 -0.07499999552965164
v 0.2231224924325943 0.27802595496177673 -0.10097404569387436
v 0.3669765293598175 0.30399999022483826 -0.07499999552965164
v 0.2231224924325943 0.27802595496177673 -0.10097404569387436
v 0.19714845716953278 0.30399999022483826 -0.07499999552965164
v 0.35628843307495117 0.27802595496177673 -0.10097404569387436
v 0.4361952841281891 0.23542188107967377 -0.07499999552965164
v 0.3669765293598175 0.30399999022483826 -0.07499999552965164
v 0.41022124886512756 0.22459226846694946 -0.10097404569387436
v 0.4361952841281891 0.23542188107967377 -0.07499999552965164
v 0.41022124886512756 0.16131779551506042 -0.10097404569387436
v 0.38266411423683167 0.1353437602519989 -0.07499999552965164
v 0.41022124886512756 0.16131779551506042 -0.10097404569387436
v 0.4361952841281891 0.1353437602519989 -0.07499999552965164
v 0.35669004917144775 0.16131779551506042 -0.10097404569387436
v 0.35669004917144775 0.16131779551506042 -0.10097404569387436
v 0.35669004917144775 -0.1719740331172943 -0.10097404569387436
v 0.42882034182548523 -0.1459999978542328 -0.07499999552965164
v 0.35669004917144775 -0.1719740331172943 -0.10097404569387436
v 0.38266411423683167 -0.1459999978542328 -0.07499999552965164
v 0.4028462767601013 -0.1719740331172943 -0.10097404569387436
v 0.4028462767601013 -0.1719740331172943 -0.10097404569387436
v 0.4028462767601013 -0.27802595496177673 -0.10097404569387436
v 0.15099218487739563 -0.30399999022483826 -0.07499999552965164
v 0.4028462767601013 -0.27802595496177673 -0.10097404569387436
v 0.42882034182548523 -0.30399999022483826 -0.07499999552965164
v 0.17696622014045715 -0.27802595496177673 -0.10097404569387436
v 0.15099218487739563 -0.1459999978542328 -0.07499999552965164
v 0.17696622014045715 -0.27802595496177673 -0.10097404569387436
v 0.15099218487739563 -0.30399999022483826 -0.07499999552965164
v 0.17696622014045715 -0.1719740331172943 -0.10097404569387436
v -0.3327734172344208 0.30399999022483826 -0.07499999552965164
v -0.41022124886512756 0.1907597929239273 -0.10097404569387436
v -0.4361952841281891 0.20159375667572021 -0.07499999552965164
v -0.32208967208862305 0.27802595496177673 -0.10097404569387436
v -0.10746095329523087 0.30399999022483826 -0.07499999552965164
v -0.11827941983938217 0.27802595496177673 -0.10097404569387436
v -0.10746095329523087 0.30399999022483826 -0.07499999552965164
v -0.02816934511065483 0.18720701336860657 -0.10097404569387436
v -0.0021953010000288486 -0.19698436558246613 -0.07499999552965164
v -0.02816934511065483 -0.18621890246868134 -0.10097404569387436
v -0.0021953010000288486 -0.19698436558246613 -0.07499999552965164
v -0.12005681544542313 -0.27802595496177673 -0.10097404569387436
v -0.3281640410423279 -0.30399999022483826 -0.07499999552965164
v -0.10930467396974564 -0.30399999022483826 -0.07499999552965164
v -0.3175426721572876 -0.27802595496177673 -0.10097404569387436
v -0.4361952841281891 -0.1979062408208847 -0.07499999552965164
v -0.41022124886512756 -0.18700949847698212 -0.10097404569387436
v -0.4361952841281891 0.20159375667572021 -0.07499999552965164
v -0.4361952841281891 -0.1979062408208847 -0.07499999552965164
v -0.18119531869888306 0.1459999978542328 -0.07499999552965164
v -0.15522126853466034 -0.1719740331172943 -0.10097404569387436
v -0.18119531869888306 -0.1459999978542328 -0.07499999552965164
v -0.15522126853466034 0.1719740480184555 -0.10097404569387436
v -0.25719529390335083 0.1459999978542328 -0.07499999552965164
v -0.15522126853466034 0.1719740480184555 -0.10097404569387436
v -0.18119531869888306 0.1459999978542328 -0.07499999552965164
v -0.28316932916641235 0.1719740480184555 -0.10097404569387436
v -0.28316932916641235 0.1719740480184555 -0.10097404569387436
v -0.28316932916641235 -0.1719740331172943 -0.10097404569387436
v -0.18119531869888306 -0.1459999978542328 -0.07499999552965164
v -0.28316932916641235 -0.1719740331172943 -0.10097404569387436
v -0.25719529390335083 -0.1459999978542328 -0.07499999552965164
v -0.15522126853466034 -0.1719740331172943 -0.10097404569387436
v 0.15099218487739563 -0.1459999978542328 0.07499999552965164
v 0.2231224924325943 -0.1719740331172943 0.10097404569387436
v 0.19714845716953278 -0.1459999978542328 0.07499999552965164
v 0.17696622014045715 -0.1719740331172943 0.10097404569387436
v 0.2231224924325943 0.27802595496177673 0.10097404569387436
v 0.2231224924325943 -0.1719740331172943 0.10097404569387436
v 0.19714845716953278 0.30399999022483826 0.07499999552965164
v 0.35628843307495117 0.27802595496177673 0.10097404569387436
v 0.3669765293598175 0.30399999022483826 0.07499999552965164
v 0.2231224924325943 0.27802595496177673 0.10097404569387436
v 0.41022124886512756 0.22459226846694946 0.10097404569387436
v 0.4361952841281891 0.23542188107967377 0.07499999552965164
v 0.4361952841281891 0.23542188107967377 0.07499999552965164
v 0.41022124886512756 0.16131779551506042 0.10097404569387436
v 0.4361952841281891 0.1353437602519989 0.07499999552965164
v 0.4361952841281891 0.1353437602519989 0.07499999552965164
v 0.35669004917144775 0.16131779551506042 0.10097404569387436
v 0.38266411423683167 0.1353437602519989 0.07499999552965164
v 0.41022124886512756 0.16131779551506042 0.10097404569387436
v 0.38266411423683167 0.1353437602519989 0.07499999552965164
v 0.35669004917144775 -0.1719740331172943 0.10097404569387436
v 0.38266411423683167 -0.1459999978542328 0.07499999552965164
v 0.35669004917144775 0.16131779551506042 0.10097404569387436
v 0.38266411423683167 -0.1459999978542328 0.07499999552965164
v 0.4028462767601013 -0.1719740331172943 0.10097404569387436
v 0.42882034182548523 -0.1459999978542328 0.07499999552965164
v 0.35669004917144775 -0.1719740331172943 0.10097404569387436
v 0.42882034182548523 -0.1459999978542328 0.07499999552965164
v 0.4028462767601013 -0.27802595496177673 0.10097404569387436
v 0.42882034182548523 -0.30399999022483826 0.07499999552965164
v 0.4028462767601013 -0.1719740331172943 0.10097404569387436
v 0.42882034182548523 -0.30399999022483826 0.07499999552965164
v 0.17696622014045715 -0.27802595496177673 0.10097404569387436
v 0.15099218487739563 -0.30399999022483826 0.07499999552965164
v 0.4028462767601013 -0.27802595496177673 0.10097404569387436
v 0.17696622014045715 -0.1719740331172943 0.10097404569387436
v 0.17696622014045715 -0.27802595496177673 0.10097404569387436
v -0.4361952841281891 0.20159375667572021 0.07499999552965164
v -0.32208967208862305 0.27802595496177673 0.10097404569387436
v -0.3327734172344208 0.30399999022483826 0.07499999552965164
v -0.41022124886512756 0.1907597929239273 0.10097404569387436
v -0.3327734172344208 0.30399999022483826 0.07499999552965164
v -0.11827941983938217 0.27802595496177673 0.10097404569387436
v -0.10746095329523087 0.30399999022483826 0.07499999552965164
v -0.10746095329523087 0.30399999022483826 0.07499999552965164
v -0.02816934511065483 0.18720701336860657 0.10097404569387436
v -0.0021953010000288486 0.1979062408208847 0.07499999552965164
v -0.0021953010000288486 0.1979062408208847 0.07499999552965164
v -0.02816934511065483 -0.18621890246868134 0.10097404569387436
v -0.0021953010000288486 -0.19698436558246613 0.07499999552965164
v -0.0021953010000288486 -0.19698436558246613 0.07499999552965164
v -0.12005681544542313 -0.27802595496177673 0.10097404569387436
v -0.10930467396974564 -0.30399999022483826 0.07499999552965164
v -0.3175426721572876 -0.27802595496177673 0.10097404569387436
v -0.3281640410423279 -0.30399999022483826 0.07499999552965164
v -0.41022124886512756 -0.18700949847698212 0.10097404569387436
v -0.4361952841281891 -0.1979062408208847 0.07499999552965164
v -0.4361952841281891 -0.1979062408208847 0.07499999552965164
v -0.4361952841281891 0.20159375667572021 0.07499999552965164
v -0.15522126853466034 0.1719740480184555 0.10097404569387436
v -0.15522126853466034 -0.1719740331172943 0.10097404569387436
v -0.18119531869888306 0.1459999978542328 0.07499999552965164
v -0.28316932916641235 0.1719740480184555 0.10097404569387436
v -0.25719529390335083 0.1459999978542328 0.07499999552965164
v -0.15522126853466034 0.1719740480184555 0.10097404569387436
v -0.25719529390335083 0.1459999978542328 0.07499999552965164
v -0.28316932916641235 -0.1719740331172943 0.10097404569387436
v -0.25719529390335083 -0.1459999978542328 0.07499999552965164
v -0.28316932916641235 0.1719740480184555 0.10097404569387436
v -0.25719529390335083 -0.1459999978542328 0.07499999552965164
v -0.15522126853466034 -0.1719740331172943 0.10097404569387436
v -0.18119531869888306 -0.1459999978542328 0.07499999552965164
v -0.28316932916641235 -0.1719740331172943 0.10097404569387436
g submesh_0
f 48 25 47
f 47 25 24
f 211 49 94
f 94 49 26
f 94 26 93
f 50 27 96
f 96 27 95
f 51 28 98
f 98 28 97
f 52 29 100
f 100 29 99
f 53 30 102
f 102 30 101
f 158 103 31
f 31 103 104
f 31 104 54
f 55 32 106
f 106 32 105
f 164 107 33
f 33 107 108
f 33 108 56
f 57 34 110
f 110 34 109
f 242 114 112
f 112 114 113
f 112 113 111
f 59 36 58
f 58 36 35
f 60 37 116
f 116 37 115
f 62 39 61
f 61 39 38
f 61 38 118
f 118 38 117
f 63 40 120
f 120 40 119
f 64 41 122
f 122 41 121
f 65 42 124
f 124 42 123
f 128 127 126
f 126 127 125
f 266 67 66
f 66 67 44
f 66 44 43
f 68 45 130
f 130 45 129
f 201 131 46
f 46 131 132
f 46 132 69
f 136 135 134
f 134 135 133
f 77 76 71
f 77 71 79
f 79 71 70
f 79 70 80
f 78 77 79
f 75 74 76
f 76 74 73
f 76 73 72
f 7 8 2
f 2 8 10
f 2 10 1
f 1 10 11
f 10 8 9
f 3 4 7
f 7 4 5
f 7 5 6
f 139 137 138
f 138 137 140
f 143 141 142
f 142 141 144
f 147 145 146
f 146 145 148
f 150 149 148
f 148 149 151
f 152 29 151
f 151 29 153
f 156 154 155
f 155 154 157
f 159 158 31
f 162 160 161
f 161 160 163
f 165 164 33
f 168 166 167
f 167 166 169
f 172 170 171
f 171 170 173
f 178 179 177
f 178 177 174
f 174 177 175
f 174 175 176
f 182 183 181
f 182 181 38
f 38 181 179
f 38 179 180
f 184 40 183
f 183 40 185
f 189 190 188
f 189 188 186
f 186 188 185
f 186 185 187
f 192 191 190
f 190 191 175
f 195 193 194
f 194 193 196
f 199 197 198
f 198 197 200
f 202 201 46
f 205 203 204
f 204 203 206
f 209 207 208
f 208 207 210
f 212 211 94
f 217 218 215
f 217 215 214
f 214 215 213
f 214 213 216
f 221 219 220
f 220 219 217
f 224 222 223
f 223 222 225
f 228 226 227
f 227 226 229
f 232 230 231
f 231 230 233
f 236 234 235
f 235 234 237
f 240 238 239
f 239 238 241
f 243 242 112
f 246 244 245
f 245 244 247
f 250 248 249
f 249 248 245
f 253 251 252
f 252 251 249
f 256 254 255
f 255 254 252
f 260 261 259
f 260 259 258
f 258 259 257
f 258 257 255
f 263 124 262
f 262 124 260
f 265 264 247
f 247 264 262
f 267 266 66
f 270 268 269
f 269 268 271
f 274 272 273
f 273 272 275
f 278 276 277
f 277 276 279
f 71 76 72
f 83 82 90
f 90 82 81
f 90 81 91
f 91 81 88
f 91 88 92
f 92 88 87
f 92 87 86
f 92 86 89
f 89 86 85
f 89 85 90
f 90 85 84
f 90 84 83
f 3 7 2
f 17 18 23
f 23 18 19
f 23 19 22
f 22 19 12
f 22 12 21
f 21 12 13
f 21 13 14
f 14 15 21
f 21 15 16
f 21 16 20
f 20 16 17
f 20 17 23
