# complete
v 2.3472893238067627 0.9813860654830933 -6.482056136292158e-08
v 2.0285139083862305 0.5002254247665405 -3.675128823488194e-08
v 1.6128031015396118 0.09982835501432419 -1.644948000034674e-08
v 1.1200220584869385 -0.2006714642047882 -3.8831693416341295e-09
v 0.5737190246582031 -0.3869141936302185 1.3492967854134008e-09
v 2.3708271457145713e-10 -0.44999998807907104 1.0363214017543012e-17
v -0.5737190246582031 -0.3869141936302185 -6.864425916575101e-09
v -1.1200220584869385 -0.2006714642047882 -1.7913823313620014e-08
v -1.6128031015396118 0.09982835501432419 -3.1618039741942994e-08
v -2.0285139083862305 0.5002254247665405 -4.632004646509813e-08
v -2.3472893238067627 0.9813860654830933 -6.031518040572337e-08
v 1.5471738576889038 1.3934725522994995 -7.846734462191307e-08
v 1.3370587825775146 1.0763241052627563 -5.2817579643260615e-08
v 1.063050389289856 0.8124095797538757 -3.228759837270445e-08
v 0.7382425665855408 0.6143404841423035 -1.6856329665415615e-08
v 0.3781566619873047 0.49158185720443726 -6.259044837975125e-09
v 1.5626883120845037e-10 0.44999998807907104 6.8307272175164254e-18
v -0.3781566619873047 0.49158185720443726 2.6238375916420864e-09
v -0.7382425665855408 0.6143404841423035 2.4892301553336438e-09
v -1.063050389289856 0.8124095797538757 6.04750305388535e-10
v -1.3370587825775146 1.0763241052627563 -1.937419114028671e-09
v -1.5471738576889038 1.3934725522994995 -4.013645416023337e-09
g submesh_0
f 22 11 10
f 22 10 21
f 21 10 9
f 21 9 20
f 20 9 8
f 20 8 19
f 19 8 7
f 19 7 18
f 18 7 6
f 18 6 17
f 17 6 5
f 17 5 16
f 16 5 4
f 16 4 15
f 15 4 3
f 15 3 14
f 14 3 2
f 14 2 13
f 13 2 1
f 13 1 12
