# helo_ball_pivot
v 1.2035813318211908e-11 0.0002753472945187241 0.0006647472037002444
v 0.00010537085472606122 0.00025438770535402 0.0006713367765769362
v 0.00019469994003884494 0.00019469994003884494 0.0006845700554549694
v 0.0002312386204721406 0.00010537087655393407 0.0006955590797588229
v 0.00023116610827855766 -2.7354053599992767e-07 0.0006963422638364136
v 0.00023123863502405584 -0.00010537078196648508 0.0006875031976960599
v 0.0002297837781952694 -0.00019681098638102412 0.0006647472037002444
v 0.0002297837781952694 -0.00019681098638102412 0.0010134733747690916
v -0.00022978385095484555 -0.00019681098638102412 0.0010134733747690916
v -0.00022978385095484555 -0.00019681098638102412 0.0006647472037002444
v -0.00023027416318655014 -0.00010537073103478178 0.0006875031976960599
v -0.00023025437258183956 -2.7354053599992767e-07 0.0006963422638364136
v -0.00023027403221931309 0.00010537105117691681 0.0006955590797588229
v -0.0001946997654158622 0.0001947001292137429 0.0006845700554549694
v -0.00010537056368775666 0.0002543878508731723 0.0006713367765769362
v 2.223928333155989e-11 0.0005087754689157009 0.00050877541070804
v 0.00019469998369459063 0.00047004720545373857 0.00050877541070804
v 0.0003597585891839117 0.0003597585891839117 0.00050877541070804
v 0.000470047234557569 0.00019469998369459063 0.00050877541070804
v 0.0005087754689157009 -2.735323221259023e-07 0.00050877541070804
v 0.00047004729276522994 -0.00019469983817543834 0.00050877541070804
v 0.00035975867649540305 -0.00035975847276858985 0.00050877541070804
v 0.00022978379274718463 -0.000471415783977136 0.00050877541070804
v -0.0002297838218510151 -0.0006843723240308464 0.0010134733747690916
v -0.00022978383640293032 -0.000471415783977136 0.00050877541070804
v -0.00035975867649540305 -0.00035975847276858985 0.00050877541070804
v -0.0004700473218690604 -0.0001946997072082013 0.00050877541070804
v -0.0005087754689157009 -2.735323221259023e-07 0.00050877541070804
v -0.00047004708903841674 0.00019470031838864088 0.00050877541070804
v -0.0003597582399379462 0.00035975893842987716 0.00050877541070804
v -0.0001946994016179815 0.0004700474673882127 0.00050877541070804
v 2.905702241318142e-11 0.0006647472037002444 0.0002753472945187241
v 0.0002543877635616809 0.0006141462945379317 0.0002753472945187241
v 0.000470047234557569 0.000470047234557569 0.0002753472945187241
v 0.0006141462945379317 0.0002543877635616809 0.0002753472945187241
v 0.0006647472037002444 -2.7352211873221677e-07 0.0002753472945187241
v 0.0006141463527455926 -0.00025438758893869817 0.0002753472945187241
v 0.00047004740918055177 -0.00047004708903841674 0.0002753472945187241
v 0.00022978379274718463 -0.0006259087240323424 0.0002753472945187241
v -0.00022978383640293032 -0.0006259087240323424 0.0002753472945187241
v -0.00047004740918055177 -0.0004700470599345863 0.0002753472945187241
v -0.0006141464109532535 -0.00025438741431571543 0.0002753472945187241
v -0.0006647472037002444 -2.7352209031050734e-07 0.0002753472945187241
v -0.0006141461199149489 0.0002543882292229682 0.0002753472945187241
v -0.0004700467688962817 0.00047004770021885633 0.0002753472945187241
v -0.0002543870359659195 0.0006141465855762362 0.0002753472945187241
v 3.145109520041878e-11 0.0007195171783678234 -3.145109520041878e-11
v 0.000275347352726385 0.0006647471454925835 -3.145109520041878e-11
v 0.0005087754689157009 0.00050877541070804 -3.145109520041878e-11
v 0.0006647471454925835 0.000275347352726385 -3.145109520041878e-11
v 0.0007195171783678234 -2.735100679274183e-07 -3.146305438406216e-11
v 0.0006647472619079053 -0.00027534711989574134 -3.145109520041878e-11
v 0.0005087756435386837 -0.0005087752942927182 -3.145109520041878e-11
v 0.0002297838218510151 -0.0006843722658231854 -3.230893677597102e-11
v -0.0002297838218510151 -0.0006843722658231854 -3.230893330652407e-11
v -0.0005087756435386837 -0.0005087752942927182 -3.145109520041878e-11
v -0.0006647473201155663 -0.00027534697437658906 -3.145109520041878e-11
v -0.0007195171783678234 -2.735100679274183e-07 -3.146307173129692e-11
v -0.0006647469708696008 0.00027534784749150276 -3.145109520041878e-11
v -0.0005087749450467527 0.0005087759345769882 -3.145109520041878e-11
v -0.0002753465378191322 0.000664747494738549 -3.145109520041878e-11
v 0.0002297838218510151 -0.0006843723240308464 0.0010134733747690916
v 0.00010537081834627315 0.00025438770535402 0.0007818194571882486
v 0.00019469991093501449 0.0001946999691426754 0.0008589830249547958
v 0.00023123857681639493 0.00010537085472606122 0.0009194626472890377
v 0.00023116606462281197 -2.7355574161447294e-07 0.0009683751268312335
v 0.00023123859136831015 -0.00010537080379435793 0.0009976691799238324
v -0.0002302741922903806 -0.0001053707383107394 0.0009976691799238324
v -0.00023025441623758525 -2.735575890255859e-07 0.0009683751268312335
v -0.00023027406132314354 0.0001053710439009592 0.0009194626472890377
v -0.00019469979451969266 0.0001947001292137429 0.0008589830249547958
v -0.00010537060734350234 0.0002543878217693418 0.0007818194571882486
v 0.00019469991093501449 0.0001946999691426754 0.0008589830249547958
v -0.00019469979451969266 0.0001947001292137429 0.0008589830249547958
v 1.2035813318211908e-11 0.0002753472945187241 0.0006647472037002444
v 0.00019469994003884494 0.00019469994003884494 0.0006845700554549694
v 0.0002297837781952694 -0.00019681098638102412 0.0006647472037002444
v -0.00022978385095484555 -0.00019681098638102412 0.0006647472037002444
v -0.0001946997654158622 0.0001947001292137429 0.0006845700554549694
v 1.2035813318211908e-11 0.0002753472945187241 0.0006647472037002444
v 2.223928333155989e-11 0.0005087754689157009 0.00050877541070804
v 0.00022978379274718463 -0.000471415783977136 0.00050877541070804
v 0.00022978379274718463 -0.0006259087240323424 0.0002753472945187241
v -0.00022978383640293032 -0.000471415783977136 0.00050877541070804
v -0.00022978383640293032 -0.0006259087240323424 0.0002753472945187241
v 2.905702241318142e-11 0.0006647472037002444 0.0002753472945187241
v 3.145109520041878e-11 0.0007195171783678234 -3.145109520041878e-11
v 0.0002297837781952694 -0.00019681098638102412 0.0006647472037002444
v 0.0002297838218510151 -0.0006843723240308464 0.0010134733747690916
v 0.00022978379274718463 -0.000471415783977136 0.00050877541070804
v 0.0002297837781952694 -0.00019681098638102412 0.0010134733747690916
v -0.00022978383640293032 -0.000471415783977136 0.00050877541070804
v -0.00022978385095484555 -0.00019681098638102412 0.0010134733747690916
v -0.00022978385095484555 -0.00019681098638102412 0.0006647472037002444
v -0.0002297838218510151 -0.0006843723240308464 0.0010134733747690916
v 0.00022978379274718463 -0.0006259087240323424 0.0002753472945187241
v -0.00022978383640293032 -0.0006259087240323424 0.0002753472945187241
v 0.0002297838218510151 -0.0006843722658231854 -3.230893677597102e-11
v 0.0002297838218510151 -0.0006843722658231854 -3.230893677597102e-11
v -0.0002297838218510151 -0.0006843723240308464 0.0010134733747690916
v -0.0002297838218510151 -0.0006843722658231854 -3.230893330652407e-11
v 0.0002297838218510151 -0.0006843723240308464 0.0010134733747690916
v -0.0002297838218510151 -0.0006843722658231854 -3.230893330652407e-11
v 0.00010537081834627315 0.00025438770535402 0.0007818194571882486
v 0.00019469991093501449 0.0001946999691426754 0.0008589830249547958
v 0.00019469994003884494 0.00019469994003884494 0.0006845700554549694
v 0.00023123857681639493 0.00010537085472606122 0.0009194626472890377
v 0.00019469991093501449 0.0001946999691426754 0.0008589830249547958
v 0.00023116606462281197 -2.7355574161447294e-07 0.0009683751268312335
v 0.00023123859136831015 -0.00010537080379435793 0.0009976691799238324
v -0.0002302741922903806 -0.0001053707383107394 0.0009976691799238324
v -0.00023025441623758525 -2.735575890255859e-07 0.0009683751268312335
v -0.00023027406132314354 0.0001053710439009592 0.0009194626472890377
v -0.00019469979451969266 0.0001947001292137429 0.0008589830249547958
v -0.0001946997654158622 0.0001947001292137429 0.0006845700554549694
v -0.00010537060734350234 0.0002543878217693418 0.0007818194571882486
v -0.00019469979451969266 0.0001947001292137429 0.0008589830249547958
g submesh_0
f 22 77 23
f 25 10 26
f 22 82 39
f 84 26 40
f 1 72 63
f 63 72 71
f 63 71 64
f 24 62 8
f 24 8 9
f 9 8 67
f 9 67 68
f 68 67 66
f 68 66 69
f 69 66 65
f 69 65 70
f 70 65 73
f 70 73 74
f 16 75 17
f 17 75 2
f 17 2 76
f 79 15 31
f 31 15 80
f 31 80 81
f 3 4 19
f 19 4 5
f 19 5 20
f 20 5 21
f 20 21 37
f 37 21 22
f 37 22 38
f 38 22 83
f 13 14 29
f 13 29 12
f 12 29 28
f 12 28 27
f 27 28 42
f 27 42 26
f 26 42 41
f 26 41 85
f 47 32 48
f 48 32 33
f 48 33 34
f 34 33 18
f 34 18 35
f 35 18 19
f 35 19 20
f 39 54 38
f 38 54 53
f 38 53 52
f 57 56 41
f 41 56 55
f 41 55 40
f 28 29 44
f 44 29 30
f 44 30 45
f 45 30 46
f 45 46 61
f 61 46 86
f 61 86 87
f 98 96 89
f 89 96 90
f 89 90 88
f 101 99 100
f 100 99 102
f 114 115 13
f 114 13 113
f 113 13 12
f 113 12 112
f 112 12 11
f 112 11 111
f 111 11 94
f 111 94 93
f 93 94 92
f 93 92 95
f 95 92 97
f 95 97 103
f 75 104 2
f 2 104 105
f 2 105 3
f 89 88 91
f 91 88 6
f 91 6 110
f 110 6 5
f 110 5 109
f 109 5 4
f 109 4 107
f 107 4 106
f 107 106 108
f 80 15 116
f 116 15 14
f 116 14 117
f 32 16 33
f 33 16 17
f 33 17 18
f 18 17 3
f 18 3 19
f 5 6 21
f 21 6 7
f 21 7 22
f 26 78 27
f 27 78 11
f 27 11 12
f 29 14 30
f 30 14 31
f 30 31 46
f 46 31 81
f 46 81 86
f 20 37 36
f 20 36 35
f 35 36 50
f 35 50 34
f 34 50 49
f 34 49 48
f 37 38 52
f 37 52 36
f 36 52 51
f 36 51 50
f 44 45 59
f 44 59 43
f 43 59 58
f 43 58 57
f 59 45 60
f 60 45 61
f 28 44 43
f 28 43 42
f 42 43 57
f 42 57 41
