# pend_pit_00
v 0.024880096316337585 -0.024880096316337585 0.008196317590773106
v 0.019081367179751396 -0.027878565713763237 0.00692435959354043
v 0.009540683589875698 -0.02862205170094967 0.004431612323969603
v 1.512492041333413e-11 -0.02862205170094967 0.0037749307230114937
v -0.009540683589875698 -0.02862205170094967 0.004431612323969603
v -0.019081367179751396 -0.027878565713763237 0.00692435959354043
v -0.024880096316337585 -0.024880096316337585 0.008196317590773106
v 0.027880722656846046 -0.019081367179751396 0.006924611050635576
v 0.019081367179751396 -0.019081367179751396 0.004493141546845436
v 1.5124851024395092e-11 -0.019081367179751396 0.001460416242480278
v -0.019081367179751396 -0.019081367179751396 0.004493141546845436
v -0.027880722656846046 -0.019081367179751396 0.006924611050635576
v 0.02862205170094967 -0.009540682658553123 0.004431623499840498
v -0.02862205170094967 -0.009540682658553123 0.004431623499840498
v 0.02862205170094967 8.303654291941243e-11 0.0037749342154711485
v 0.019081367179751396 8.303661230835147e-11 0.0014603403396904469
v -0.019081367179751396 8.303654291941243e-11 0.0014603403396904469
v -0.02862205170094967 8.303668863618441e-11 0.0037749342154711485
v 0.02862205170094967 0.009540684521198273 0.004431623034179211
v 0.019081367179751396 0.019081367179751396 0.004493144806474447
v -0.019081367179751396 0.019081367179751396 0.004493144806474447
v -0.02862205170094967 0.009540684521198273 0.004431623034179211
v 0.027880722656846046 0.019081367179751396 0.006924611050635576
v 1.5124851024395092e-11 0.019081367179751396 0.001460416242480278
v -0.027880722656846046 0.019081367179751396 0.006924611050635576
v 0.024880096316337585 0.024880096316337585 0.008196314796805382
v 0.019081367179751396 0.027878565713763237 0.006924357730895281
v 0.009540683589875698 0.02862205170094967 0.004431614186614752
v 1.512492041333413e-11 0.02862205170094967 0.0037749288603663445
v -0.009540683589875698 0.02862205170094967 0.004431614186614752
v -0.019081367179751396 0.027878565713763237 0.006924357730895281
v -0.024880096316337585 0.024880096316337585 0.008196314796805382
v 0.024880096316337585 -0.024880096316337585 0.011051923967897892
v 0.019081367179751396 -0.027878565713763237 0.009779966436326504
v 0.009540683589875698 -0.02862205170094967 0.007301805540919304
v 1.512492041333413e-11 -0.02862205170094967 0.006648698356002569
v -0.009540683589875698 -0.02862205170094967 0.007301805540919304
v -0.019081367179751396 -0.027878565713763237 0.009779966436326504
v -0.024880096316337585 -0.024880096316337585 0.011051923967897892
v 0.027880722656846046 -0.019081367179751396 0.009780218824744225
v 0.019081367179751396 -0.019081367179751396 0.007363724522292614
v 0.009540683589875698 -0.019081367179751396 0.005860780365765095
v 1.5124851024395092e-11 -0.019081367179751396 0.004320692270994186
v -0.009540683589875698 -0.019081367179751396 0.005860780365765095
v -0.019081367179751396 -0.019081367179751396 0.007363724522292614
v -0.027880722656846046 -0.019081367179751396 0.009780218824744225
v 0.02862205170094967 -0.009540683589875698 0.0073018246330320835
v 0.019081367179751396 -0.009540682658553123 0.005860621575266123
v 0.009540683589875698 -0.009540682658553123 0.004289999138563871
v 1.5124851024395092e-11 -0.009540683589875698 0.0030005681328475475
v -0.009540683589875698 -0.009540682658553123 0.004289999138563871
v -0.019081367179751396 -0.009540682658553123 0.005860621575266123
v -0.02862205170094967 -0.009540683589875698 0.0073018246330320835
v 0.02862205170094967 8.303661230835147e-11 0.006648706737905741
v 0.019081367179751396 8.303661230835147e-11 0.0043206168338656425
v 0.009540683589875698 8.303661230835147e-11 0.0030005231965333223
v 1.512486837162985e-11 8.303661230835147e-11 0.002431175671517849
v -0.009540683589875698 8.303661230835147e-11 0.0030005231965333223
v -0.019081367179751396 8.303668863618441e-11 0.0043206168338656425
v -0.02862205170094967 8.303668863618441e-11 0.006648706737905741
v 0.02862205170094967 0.009540683589875698 0.007301825564354658
v 0.019081367179751396 0.009540684521198273 0.005860623437911272
v 0.009540683589875698 0.009540684521198273 0.004289999138563871
v 1.5124816329925572e-11 0.009540683589875698 0.003000567900016904
v -0.009540683589875698 0.009540684521198273 0.004289999138563871
v -0.019081367179751396 0.009540684521198273 0.005860623437911272
v -0.02862205170094967 0.009540683589875698 0.007301825564354658
v 0.027880722656846046 0.019081367179751396 0.009780218824744225
v 0.019081367179751396 0.019081367179751396 0.007363724056631327
v 0.009540683589875698 0.019081367179751396 0.005860780831426382
v 1.5124851024395092e-11 0.019081367179751396 0.004320692736655474
v -0.009540683589875698 0.019081367179751396 0.005860780831426382
v -0.019081367179751396 0.019081367179751396 0.007363724056631327
v -0.027880722656846046 0.019081367179751396 0.009780218824744225
v 0.024880096316337585 0.024880096316337585 0.011051921173930168
v 0.019081367179751396 0.027878565713763237 0.00977996550500393
v 0.009540683589875698 0.02862205170094967 0.007301807403564453
v 1.512492041333413e-11 0.02862205170094967 0.006648700218647718
v -0.009540683589875698 0.02862205170094967 0.007301807403564453
v -0.019081367179751396 0.027878565713763237 0.00977996550500393
v -0.024880096316337585 0.024880096316337585 0.011051921173930168
v 0.019081367179751396 -0.019081367179751396 7.556936179753393e-05
v 5.9223368396865705e-12 -0.019081367179751396 7.556936179753393e-05
v -0.019081367179751396 -0.019081367179751396 7.556936179753393e-05
v 0.019081367179751396 -9.633251141227817e-11 7.556936179753393e-05
v -0.019081367179751396 -9.633251141227817e-11 7.556936179753393e-05
v 0.019081367179751396 0.019081367179751396 7.556936179753393e-05
v -0.019081367179751396 0.019081367179751396 7.556936179753393e-05
v 5.9223368396865705e-12 0.019081367179751396 7.556936179753393e-05
v 0.007832460105419159 0.01842840015888214 3.4586153940807662e-09
v -0.007832463830709457 0.01842840015888214 3.4586153940807662e-09
v 0.007832461036741734 0.04321923106908798 6.91723067713923e-10
v -0.007832462899386883 0.04321923106908798 6.91723067713923e-10
v 0.007832460105419159 0.01842840015888214 0.0041692182421684265
v -0.007832463830709457 0.01842840015888214 0.0041692182421684265
v 0.007832461036741734 0.04321923106908798 0.0041692182421684265
v 0.00541404914110899 0.037252213805913925 0.004169219173491001
v -0.005414053797721863 0.037252213805913925 0.004169219173491001
v -0.007832462899386883 0.04321923106908798 0.0041692182421684265
v 0.005414049606770277 0.04010450094938278 0.0041692182421684265
v -0.005414052400738001 0.04010450094938278 0.0041692182421684265
v 0.00541404914110899 0.037252213805913925 0.020695822313427925
v -0.005414053797721863 0.037252213805913925 0.020695822313427925
v 0.005414050072431564 0.04010450839996338 0.020695822313427925
v -0.0054140519350767136 0.04010450094938278 0.020695822313427925
v 0.005414050538092852 0.017818402498960495 0.12259968370199203
v -0.0054140519350767136 0.017818402498960495 0.12259968370199203
v 0.005414050538092852 0.020498674362897873 0.12357522547245026
v -0.005414051469415426 0.020498674362897873 0.12357522547245026
v 0.005414050072431564 0.014092579483985901 0.12655483186244965
v -0.005414052400738001 0.014092574827373028 0.12655483186244965
v 0.0054140519350767136 0.015728585422039032 0.12889128923416138
v -0.005414050072431564 0.015728579834103584 0.12889128923416138
v 0.005414049606770277 0.008756742812693119 0.12785330414772034
v -0.005414052866399288 0.008756742812693119 0.12785330414772034
v 0.005414051469415426 0.0087567288428545 0.1307055801153183
v -0.005414050538092852 0.0087567288428545 0.1307055801153183
v 0.005414049606770277 -0.005100454669445753 0.12785327434539795
v -0.005414052866399288 -0.005100454669445753 0.12785327434539795
v 0.005414051469415426 -0.005100463982671499 0.1307055652141571
v -0.005414050538092852 -0.005100463982671499 0.1307055652141571
v -0.005552070215344429 -1.177532293894501e-08 0.14457207918167114
v -0.005552070215344429 -0.0006476915441453457 0.14392440021038055
v -0.005552070215344429 -1.1662079302254824e-08 0.14327672123908997
v -0.005552070215344429 0.0006476680282503366 0.14392440021038055
v -0.008457652293145657 -1.17412923827942e-08 0.14379353821277618
v -0.008133812807500362 -0.0006476915441453457 0.14323262870311737
v -0.007809972390532494 -1.1635633789808253e-08 0.14267171919345856
v -0.008133812807500362 0.0006476680282503366 0.14323262870311737
v -0.010584685951471329 -1.164831697764157e-08 0.1416665017604828
v -0.010023778304457664 -0.0006476914277300239 0.1413426548242569
v -0.00946287252008915 -1.1563384028079327e-08 0.1410188227891922
v -0.010023778304457664 0.0006476681446656585 0.1413426548242569
v -0.0005235637072473764 -1.116314329863144e-08 0.13056699931621552
v -0.0010774079710245132 -0.0006476909620687366 0.13056699931621552
v -0.001631050487048924 -1.1106521924375556e-08 0.13056699931621552
v -0.0010774079710245132 0.0006476686103269458 0.13056699931621552
v -0.0005194524419493973 -1.164831697764157e-08 0.1416664868593216
v -0.0010803602635860443 -0.0006476914277300239 0.1413426548242569
v -0.0016412670956924558 -1.1563384028079327e-08 0.1410188227891922
v -0.0010803602635860443 0.0006476681446656585 0.1413426548242569
v -0.0026464855764061213 -1.17412923827942e-08 0.14379353821277618
v -0.00297032599337399 -0.0006476915441453457 0.14323262870311737
v -0.0032941659446805716 -1.1635633789808253e-08 0.14267171919345856
v -0.00297032599337399 0.0006476680282503366 0.14323262870311737
v 0.005565224215388298 -1.177532293894501e-08 0.14457207918167114
v 0.005565224215388298 -0.0006476915441453457 0.14392440021038055
v 0.005565224215388298 -1.1662079302254824e-08 0.14327672123908997
v 0.005565224215388298 0.0006476680282503366 0.14392440021038055
v 0.002659642370417714 -1.17412923827942e-08 0.14379353821277618
v 0.0029834823217242956 -0.0006476915441453457 0.14323262870311737
v 0.0033073213417083025 -1.1635633789808253e-08 0.14267171919345856
v 0.0029834823217242956 0.0006476680282503366 0.14323262870311737
v 0.0005326078389771283 -1.164831697764157e-08 0.1416665017604828
v 0.001093514496460557 -0.0006476914277300239 0.1413426548242569
v 0.0016544213285669684 -1.1563384028079327e-08 0.1410188227891922
v 0.001093514496460557 0.0006476681446656585 0.1413426548242569
v 0.000537149200681597 -1.116314329863144e-08 0.13056699931621552
v 0.0010940540814772248 -0.0006476909620687366 0.13056699931621552
v 0.001651161233894527 -1.1106521924375556e-08 0.13056699931621552
v 0.0010940540814772248 0.0006476686103269458 0.13056699931621552
v 0.010597842745482922 -1.164831697764157e-08 0.1416664868593216
v 0.010036934167146683 -0.000647692009806633 0.1413426548242569
v 0.009476027451455593 -1.162000540233521e-08 0.1410188227891922
v 0.010036934167146683 0.0006476687267422676 0.1413426548242569
v 0.00847080908715725 -1.17412923827942e-08 0.14379353821277618
v 0.00814696867018938 -0.0006476915441453457 0.14323262870311737
v 0.007823128253221512 -1.1635633789808253e-08 0.14267171919345856
v 0.00814696867018938 0.0006476680282503366 0.14323262870311737
v -0.010015645995736122 -0.0006476909620687366 0.13031627237796783
v -0.010586095042526722 -1.1139551503447365e-08 0.13002729415893555
v -0.00942099466919899 -1.1107788466802049e-08 0.13059601187705994
v -0.010015645995736122 0.0006476686103269458 0.13031627237796783
v 0.010604629293084145 -1.1139644762181433e-08 0.13002943992614746
v 0.010037439875304699 -0.0006476909620687366 0.13031627237796783
v 0.009472799487411976 -1.1107693431711141e-08 0.13059385120868683
v 0.010037439875304699 0.0006476686103269458 0.13031627237796783
v -0.0019952550064772367 -0.0005926376325078309 0.11915963888168335
v -0.002478288719430566 -1.0652319915038788e-08 0.1188807487487793
v -0.0015202144859358668 -1.0624688684401917e-08 0.11943389475345612
v -0.0019952550064772367 0.0005926163867115974 0.11915963888168335
v 0.0024817970115691423 -1.0652366988495032e-08 0.11888182163238525
v 0.0020006312988698483 -0.0005926376325078309 0.11915963888168335
v 0.0015274581965059042 -1.0624641610945673e-08 0.11943280696868896
v 0.0020006312988698483 0.0005926163867115974 0.11915963888168335
v -0.001407335395924747 -1.060652277118379e-08 0.11783303320407867
v -0.0011385483667254448 -0.0005375848850235343 0.11829858273267746
v -0.0008697613957338035 -1.0600226474366536e-08 0.11876413971185684
v -0.0011385483667254448 0.0005375636392273009 0.11829858273267746
v 0.0 -1.0590039067892576e-08 0.11745594441890717
v 0.0 -0.0005375848850235343 0.11799351125955582
v 0.0 -1.0590039067892576e-08 0.11853110045194626
v 0.0 0.0005375636392273009 0.11799351125955582
v 0.0014073359780013561 -1.060652277118379e-08 0.11783303320407867
v 0.001138548948802054 -0.0005375848850235343 0.11829858273267746
v 0.0008697613957338035 -1.0600226474366536e-08 0.11876413971185684
v 0.001138548948802054 0.0005375636392273009 0.11829858273267746
v -1.8854956485014895e-10 -1.6454411166932914e-08 0.12070254981517792
v -0.001003903802484274 -1.6366648480925505e-08 0.11969864368438721
v -1.2569971105658162e-11 -1.6366646704568666e-08 0.1186947301030159
v 0.0010039034532383084 -1.6454412943289753e-08 0.11969864368438721
v -6.91348367443112e-11 0.002154250629246235 0.12012530863285065
v -0.001003903686068952 0.0016522988444194198 0.1192559003829956
v 5.085124682446818e-11 0.0011503471760079265 0.11838649213314056
v 0.0010039035696536303 0.0016522988444194198 0.1192559003829956
v 6.91348367443112e-11 0.0037312840577214956 0.11854827404022217
v -0.0010039035696536303 0.002861877903342247 0.11804632842540741
v 1.2455698972235751e-10 0.0019924715161323547 0.11754438281059265
v 0.001003903686068952 0.002861877903342247 0.11804632842540741
v 1.8854956485014895e-10 0.004308518022298813 0.11639401316642761
v -0.0010039034532383084 0.0033046146854758263 0.11639401316642761
v 1.8854956485014895e-10 0.0023007106501609087 0.11639401316642761
v 0.001003903802484274 0.0033046146854758263 0.11639401316642761
v 2.5711305307041243e-10 0.003731283824890852 0.11423973739147186
v -0.0010039034532383084 0.0028618776705116034 0.11474170535802841
v 2.251167585676228e-10 0.0019924715161323547 0.11524365097284317
v 0.0010039039188995957 0.0028618776705116034 0.11474170535802841
v 2.5711305307041243e-10 0.002154250629246235 0.11266271024942398
v -0.0010039034532383084 0.0016522988444194198 0.11353211104869843
v 2.251167585676228e-10 0.0011503471760079265 0.11440152674913406
v 0.0010039039188995957 0.0016522988444194198 0.11353211104869843
v 1.8854956485014895e-10 -1.6454411166932914e-08 0.11208547651767731
v -0.0010039034532383084 -1.6366648480925505e-08 0.11308939009904861
v 1.8854956485014895e-10 -1.6366648480925505e-08 0.11409328877925873
v 0.001003903802484274 -1.6454411166932914e-08 0.11308939009904861
v 6.91348367443112e-11 -0.0021542836911976337 0.11266271024942398
v -0.0010039035696536303 -0.0016523319063708186 0.11353211104869843
v 1.2455698972235751e-10 -0.0011503798887133598 0.11440152674913406
v 0.001003903686068952 -0.0016523319063708186 0.11353211104869843
v -6.91348367443112e-11 -0.003731316654011607 0.11423973739147186
v -0.001003903686068952 -0.0028619104996323586 0.11474170535802841
v 5.085124682446818e-11 -0.00199250434525311 0.11524365097284317
v 0.0010039035696536303 -0.0028619104996323586 0.11474170535802841
v -1.8854956485014895e-10 -0.004308550152927637 0.11639401316642761
v -0.001003903802484274 -0.0033046468161046505 0.11639401316642761
v -1.2569971105658162e-11 -0.002300743479281664 0.11639401316642761
v 0.0010039034532383084 -0.0033046468161046505 0.11639401316642761
v -2.5711305307041243e-10 -0.003731316886842251 0.11854827404022217
v -0.0010039039188995957 -0.0028619104996323586 0.11804632842540741
v -4.970852202079712e-11 -0.0019925048109143972 0.11754438281059265
v 0.0010039034532383084 -0.0028619104996323586 0.11804632842540741
v -2.5711305307041243e-10 -0.002154284855350852 0.12012530863285065
v -0.0010039039188995957 -0.0016523326048627496 0.1192559003829956
v -4.970852202079712e-11 -0.001150380470789969 0.11838649213314056
v 0.0010039034532383084 -0.0016523326048627496 0.1192559003829956
v 0.027880722656846046 -0.019081367179751396 0.006924611050635576
v 0.019081367179751396 -0.027878565713763237 0.00692435959354043
v -0.027880722656846046 -0.019081367179751396 0.006924611050635576
v -0.019081367179751396 -0.027878565713763237 0.00692435959354043
v 0.02862205170094967 8.303654291941243e-11 0.0037749342154711485
v 0.019081367179751396 8.303661230835147e-11 0.0014603403396904469
v -0.02862205170094967 8.303668863618441e-11 0.0037749342154711485
v -0.019081367179751396 8.303654291941243e-11 0.0014603403396904469
v 0.027880722656846046 0.019081367179751396 0.006924611050635576
v 0.019081367179751396 0.027878565713763237 0.006924357730895281
v -0.027880722656846046 0.019081367179751396 0.006924611050635576
v -0.019081367179751396 0.027878565713763237 0.006924357730895281
v 0.02862205170094967 8.303661230835147e-11 0.006648706737905741
v -0.02862205170094967 8.303668863618441e-11 0.006648706737905741
v 0.024880096316337585 -0.024880096316337585 0.008196317590773106
v 0.019081367179751396 -0.027878565713763237 0.009779966436326504
v 0.019081367179751396 -0.027878565713763237 0.00692435959354043
v 0.024880096316337585 -0.024880096316337585 0.011051923967897892
v 0.019081367179751396 -0.027878565713763237 0.00692435959354043
v 0.009540683589875698 -0.02862205170094967 0.007301805540919304
v 0.009540683589875698 -0.02862205170094967 0.004431612323969603
v 1.512492041333413e-11 -0.02862205170094967 0.006648698356002569
v 1.512492041333413e-11 -0.02862205170094967 0.0037749307230114937
v 1.512492041333413e-11 -0.02862205170094967 0.0037749307230114937
v -0.009540683589875698 -0.02862205170094967 0.007301805540919304
v -0.009540683589875698 -0.02862205170094967 0.004431612323969603
v 1.512492041333413e-11 -0.02862205170094967 0.006648698356002569
v -0.019081367179751396 -0.027878565713763237 0.009779966436326504
v -0.019081367179751396 -0.027878565713763237 0.00692435959354043
v -0.019081367179751396 -0.027878565713763237 0.00692435959354043
v -0.024880096316337585 -0.024880096316337585 0.011051923967897892
v -0.024880096316337585 -0.024880096316337585 0.008196317590773106
v -0.027880722656846046 -0.019081367179751396 0.009780218824744225
v -0.027880722656846046 -0.019081367179751396 0.006924611050635576
v -0.027880722656846046 -0.019081367179751396 0.006924611050635576
v -0.02862205170094967 -0.009540683589875698 0.0073018246330320835
v -0.02862205170094967 -0.009540682658553123 0.004431623499840498
v -0.02862205170094967 8.303668863618441e-11 0.006648706737905741
v -0.02862205170094967 8.303668863618441e-11 0.0037749342154711485
v -0.02862205170094967 0.009540683589875698 0.007301825564354658
v -0.02862205170094967 0.009540684521198273 0.004431623034179211
v -0.027880722656846046 0.019081367179751396 0.009780218824744225
v -0.027880722656846046 0.019081367179751396 0.006924611050635576
v -0.027880722656846046 0.019081367179751396 0.006924611050635576
v -0.024880096316337585 0.024880096316337585 0.011051921173930168
v -0.024880096316337585 0.024880096316337585 0.008196314796805382
v -0.019081367179751396 0.027878565713763237 0.00977996550500393
v -0.019081367179751396 0.027878565713763237 0.006924357730895281
v -0.019081367179751396 0.027878565713763237 0.006924357730895281
v -0.009540683589875698 0.02862205170094967 0.007301807403564453
v -0.009540683589875698 0.02862205170094967 0.004431614186614752
v 1.512492041333413e-11 0.02862205170094967 0.006648700218647718
v 1.512492041333413e-11 0.02862205170094967 0.0037749288603663445
v 1.512492041333413e-11 0.02862205170094967 0.0037749288603663445
v 0.009540683589875698 0.02862205170094967 0.007301807403564453
v 0.009540683589875698 0.02862205170094967 0.004431614186614752
v 1.512492041333413e-11 0.02862205170094967 0.006648700218647718
v 0.019081367179751396 0.027878565713763237 0.00977996550500393
v 0.019081367179751396 0.027878565713763237 0.006924357730895281
v 0.019081367179751396 0.027878565713763237 0.006924357730895281
v 0.024880096316337585 0.024880096316337585 0.011051921173930168
v 0.024880096316337585 0.024880096316337585 0.008196314796805382
v 0.027880722656846046 0.019081367179751396 0.009780218824744225
v 0.027880722656846046 0.019081367179751396 0.006924611050635576
v 0.027880722656846046 0.019081367179751396 0.006924611050635576
v 0.02862205170094967 0.009540683589875698 0.007301825564354658
v 0.02862205170094967 0.009540684521198273 0.004431623034179211
v 0.02862205170094967 8.303661230835147e-11 0.006648706737905741
v 0.02862205170094967 8.303654291941243e-11 0.0037749342154711485
v 0.02862205170094967 -0.009540683589875698 0.0073018246330320835
v 0.02862205170094967 -0.009540682658553123 0.004431623499840498
v 0.027880722656846046 -0.019081367179751396 0.009780218824744225
v 0.027880722656846046 -0.019081367179751396 0.006924611050635576
v 0.027880722656846046 -0.019081367179751396 0.006924611050635576
v 1.5124851024395092e-11 -0.019081367179751396 0.001460416242480278
v 0.019081367179751396 -0.019081367179751396 0.004493141546845436
v -0.019081367179751396 -0.019081367179751396 0.004493141546845436
v 0.019081367179751396 -0.019081367179751396 0.004493141546845436
v 0.019081367179751396 8.303661230835147e-11 0.0014603403396904469
v 0.019081367179751396 -0.019081367179751396 0.004493141546845436
v 0.019081367179751396 -0.019081367179751396 7.556936179753393e-05
v -0.019081367179751396 8.303654291941243e-11 0.0014603403396904469
v -0.019081367179751396 -0.019081367179751396 7.556936179753393e-05
v -0.019081367179751396 -0.019081367179751396 0.004493141546845436
v 0.019081367179751396 0.019081367179751396 0.004493144806474447
v -0.019081367179751396 0.019081367179751396 0.004493144806474447
v 0.019081367179751396 0.019081367179751396 0.004493144806474447
v 1.5124851024395092e-11 0.019081367179751396 0.001460416242480278
v 0.019081367179751396 0.019081367179751396 7.556936179753393e-05
v -0.019081367179751396 0.019081367179751396 7.556936179753393e-05
v -0.019081367179751396 0.019081367179751396 0.004493144806474447
v -0.007832462899386883 0.04321923106908798 0.0041692182421684265
v -0.007832463830709457 0.01842840015888214 0.0041692182421684265
v -0.007832462899386883 0.04321923106908798 6.91723067713923e-10
v 0.007832461036741734 0.04321923106908798 0.0041692182421684265
v -0.007832462899386883 0.04321923106908798 0.0041692182421684265
v 0.007832461036741734 0.04321923106908798 6.91723067713923e-10
v 0.007832460105419159 0.01842840015888214 0.0041692182421684265
v 0.007832461036741734 0.04321923106908798 0.0041692182421684265
v 0.00541404914110899 0.037252213805913925 0.004169219173491001
v -0.005414053797721863 0.037252213805913925 0.004169219173491001
v 0.005414049606770277 0.04010450094938278 0.0041692182421684265
v 0.00541404914110899 0.037252213805913925 0.020695822313427925
v 0.00541404914110899 0.037252213805913925 0.004169219173491001
v -0.005414053797721863 0.037252213805913925 0.004169219173491001
v -0.005414052400738001 0.04010450094938278 0.0041692182421684265
v -0.005414053797721863 0.037252213805913925 0.020695822313427925
v -0.005414052400738001 0.04010450094938278 0.0041692182421684265
v 0.005414050072431564 0.04010450839996338 0.020695822313427925
v 0.005414049606770277 0.04010450094938278 0.0041692182421684265
v -0.0054140519350767136 0.04010450094938278 0.020695822313427925
v -0.0054140519350767136 0.017818402498960495 0.12259968370199203
v -0.005414051469415426 0.020498674362897873 0.12357522547245026
v 0.005414050538092852 0.017818402498960495 0.12259968370199203
v 0.005414050538092852 0.020498674362897873 0.12357522547245026
v -0.005414052400738001 0.014092574827373028 0.12655483186244965
v -0.005414050072431564 0.015728579834103584 0.12889128923416138
v 0.005414050072431564 0.014092579483985901 0.12655483186244965
v 0.0054140519350767136 0.015728585422039032 0.12889128923416138
v -0.005414052866399288 0.008756742812693119 0.12785330414772034
v -0.005414050538092852 0.0087567288428545 0.1307055801153183
v 0.005414049606770277 0.008756742812693119 0.12785330414772034
v 0.005414051469415426 0.0087567288428545 0.1307055801153183
v -0.005414052866399288 -0.005100454669445753 0.12785327434539795
v 0.005414049606770277 -0.005100454669445753 0.12785327434539795
v -0.005414050538092852 -0.005100463982671499 0.1307055652141571
v -0.005414052866399288 -0.005100454669445753 0.12785327434539795
v 0.005414051469415426 -0.005100463982671499 0.1307055652141571
v -0.005414050538092852 -0.005100463982671499 0.1307055652141571
v 0.005414049606770277 -0.005100454669445753 0.12785327434539795
v 0.005414051469415426 -0.005100463982671499 0.1307055652141571
v -0.005552070215344429 -1.177532293894501e-08 0.14457207918167114
v -0.005552070215344429 -0.0006476915441453457 0.14392440021038055
v -0.008133812807500362 -0.0006476915441453457 0.14323262870311737
v -0.007809972390532494 -1.1635633789808253e-08 0.14267171919345856
v -0.005552070215344429 -1.1662079302254824e-08 0.14327672123908997
v -0.007809972390532494 -1.1635633789808253e-08 0.14267171919345856
v -0.005552070215344429 -1.1662079302254824e-08 0.14327672123908997
v -0.005552070215344429 0.0006476680282503366 0.14392440021038055
v -0.008133812807500362 0.0006476680282503366 0.14323262870311737
v -0.008457652293145657 -1.17412923827942e-08 0.14379353821277618
v -0.008457652293145657 -1.17412923827942e-08 0.14379353821277618
v -0.005552070215344429 -1.177532293894501e-08 0.14457207918167114
v -0.008457652293145657 -1.17412923827942e-08 0.14379353821277618
v -0.010023778304457664 -0.0006476914277300239 0.1413426548242569
v -0.007809972390532494 -1.1635633789808253e-08 0.14267171919345856
v -0.00946287252008915 -1.1563384028079327e-08 0.1410188227891922
v -0.010023778304457664 0.0006476681446656585 0.1413426548242569
v -0.010584685951471329 -1.164831697764157e-08 0.1416665017604828
v -0.0010774079710245132 -0.0006476909620687366 0.13056699931621552
v -0.0010803602635860443 -0.0006476914277300239 0.1413426548242569
v -0.0016412670956924558 -1.1563384028079327e-08 0.1410188227891922
v -0.001631050487048924 -1.1106521924375556e-08 0.13056699931621552
v -0.0016412670956924558 -1.1563384028079327e-08 0.1410188227891922
v -0.0010774079710245132 0.0006476686103269458 0.13056699931621552
v -0.0010803602635860443 0.0006476681446656585 0.1413426548242569
v -0.0005194524419493973 -1.164831697764157e-08 0.1416664868593216
v -0.0005194524419493973 -1.164831697764157e-08 0.1416664868593216
v -0.0005235637072473764 -1.116314329863144e-08 0.13056699931621552
v -0.00297032599337399 -0.0006476915441453457 0.14323262870311737
v -0.0032941659446805716 -1.1635633789808253e-08 0.14267171919345856
v -0.0032941659446805716 -1.1635633789808253e-08 0.14267171919345856
v -0.00297032599337399 0.0006476680282503366 0.14323262870311737
v -0.0026464855764061213 -1.17412923827942e-08 0.14379353821277618
v -0.0026464855764061213 -1.17412923827942e-08 0.14379353821277618
v -0.0026464855764061213 -1.17412923827942e-08 0.14379353821277618
v -0.005552070215344429 -1.177532293894501e-08 0.14457207918167114
v -0.005552070215344429 -0.0006476915441453457 0.14392440021038055
v -0.005552070215344429 -0.0006476915441453457 0.14392440021038055
v -0.005552070215344429 -1.1662079302254824e-08 0.14327672123908997
v -0.005552070215344429 -1.1662079302254824e-08 0.14327672123908997
v -0.0032941659446805716 -1.1635633789808253e-08 0.14267171919345856
v -0.005552070215344429 -1.1662079302254824e-08 0.14327672123908997
v -0.005552070215344429 0.0006476680282503366 0.14392440021038055
v -0.005552070215344429 0.0006476680282503366 0.14392440021038055
v -0.005552070215344429 -1.177532293894501e-08 0.14457207918167114
v -0.005552070215344429 -1.177532293894501e-08 0.14457207918167114
v 0.005565224215388298 -1.177532293894501e-08 0.14457207918167114
v 0.005565224215388298 -0.0006476915441453457 0.14392440021038055
v 0.0029834823217242956 -0.0006476915441453457 0.14323262870311737
v 0.0033073213417083025 -1.1635633789808253e-08 0.14267171919345856
v 0.005565224215388298 -1.1662079302254824e-08 0.14327672123908997
v 0.0033073213417083025 -1.1635633789808253e-08 0.14267171919345856
v 0.005565224215388298 -1.1662079302254824e-08 0.14327672123908997
v 0.005565224215388298 0.0006476680282503366 0.14392440021038055
v 0.0029834823217242956 0.0006476680282503366 0.14323262870311737
v 0.002659642370417714 -1.17412923827942e-08 0.14379353821277618
v 0.002659642370417714 -1.17412923827942e-08 0.14379353821277618
v 0.005565224215388298 -1.177532293894501e-08 0.14457207918167114
v 0.002659642370417714 -1.17412923827942e-08 0.14379353821277618
v 0.001093514496460557 -0.0006476914277300239 0.1413426548242569
v 0.0033073213417083025 -1.1635633789808253e-08 0.14267171919345856
v 0.0016544213285669684 -1.1563384028079327e-08 0.1410188227891922
v 0.001093514496460557 0.0006476681446656585 0.1413426548242569
v 0.0005326078389771283 -1.164831697764157e-08 0.1416665017604828
v 0.0005326078389771283 -1.164831697764157e-08 0.1416665017604828
v 0.0010940540814772248 -0.0006476909620687366 0.13056699931621552
v 0.0016544213285669684 -1.1563384028079327e-08 0.1410188227891922
v 0.001651161233894527 -1.1106521924375556e-08 0.13056699931621552
v 0.0010940540814772248 0.0006476686103269458 0.13056699931621552
v 0.000537149200681597 -1.116314329863144e-08 0.13056699931621552
v 0.010036934167146683 -0.000647692009806633 0.1413426548242569
v 0.00814696867018938 -0.0006476915441453457 0.14323262870311737
v 0.007823128253221512 -1.1635633789808253e-08 0.14267171919345856
v 0.009476027451455593 -1.162000540233521e-08 0.1410188227891922
v 0.007823128253221512 -1.1635633789808253e-08 0.14267171919345856
v 0.010036934167146683 0.0006476687267422676 0.1413426548242569
v 0.00814696867018938 0.0006476680282503366 0.14323262870311737
v 0.00847080908715725 -1.17412923827942e-08 0.14379353821277618
v 0.00847080908715725 -1.17412923827942e-08 0.14379353821277618
v 0.010597842745482922 -1.164831697764157e-08 0.1416664868593216
v 0.00847080908715725 -1.17412923827942e-08 0.14379353821277618
v 0.005565224215388298 -1.177532293894501e-08 0.14457207918167114
v 0.005565224215388298 -0.0006476915441453457 0.14392440021038055
v 0.005565224215388298 -0.0006476915441453457 0.14392440021038055
v 0.005565224215388298 -1.1662079302254824e-08 0.14327672123908997
v 0.005565224215388298 -1.1662079302254824e-08 0.14327672123908997
v 0.007823128253221512 -1.1635633789808253e-08 0.14267171919345856
v 0.005565224215388298 -1.1662079302254824e-08 0.14327672123908997
v 0.005565224215388298 0.0006476680282503366 0.14392440021038055
v 0.005565224215388298 0.0006476680282503366 0.14392440021038055
v 0.005565224215388298 -1.177532293894501e-08 0.14457207918167114
v 0.005565224215388298 -1.177532293894501e-08 0.14457207918167114
v -0.010584685951471329 -1.164831697764157e-08 0.1416665017604828
v -0.010023778304457664 -0.0006476914277300239 0.1413426548242569
v -0.010023778304457664 -0.0006476914277300239 0.1413426548242569
v -0.010015645995736122 -0.0006476909620687366 0.13031627237796783
v -0.00946287252008915 -1.1563384028079327e-08 0.1410188227891922
v -0.00946287252008915 -1.1563384028079327e-08 0.1410188227891922
v -0.00942099466919899 -1.1107788466802049e-08 0.13059601187705994
v -0.010023778304457664 0.0006476681446656585 0.1413426548242569
v -0.010586095042526722 -1.1139551503447365e-08 0.13002729415893555
v -0.010023778304457664 0.0006476681446656585 0.1413426548242569
v -0.010015645995736122 0.0006476686103269458 0.13031627237796783
v -0.010584685951471329 -1.164831697764157e-08 0.1416665017604828
v 0.010036934167146683 -0.000647692009806633 0.1413426548242569
v 0.010597842745482922 -1.164831697764157e-08 0.1416664868593216
v 0.010037439875304699 -0.0006476909620687366 0.13031627237796783
v 0.009476027451455593 -1.162000540233521e-08 0.1410188227891922
v 0.010036934167146683 -0.000647692009806633 0.1413426548242569
v 0.009472799487411976 -1.1107693431711141e-08 0.13059385120868683
v 0.010036934167146683 0.0006476687267422676 0.1413426548242569
v 0.009476027451455593 -1.162000540233521e-08 0.1410188227891922
v 0.010037439875304699 0.0006476686103269458 0.13031627237796783
v 0.010597842745482922 -1.164831697764157e-08 0.1416664868593216
v 0.010604629293084145 -1.1139644762181433e-08 0.13002943992614746
v 0.010036934167146683 0.0006476687267422676 0.1413426548242569
v -0.0019952550064772367 -0.0005926376325078309 0.11915963888168335
v -0.0015202144859358668 -1.0624688684401917e-08 0.11943389475345612
v -0.002478288719430566 -1.0652319915038788e-08 0.1188807487487793
v -0.0019952550064772367 0.0005926163867115974 0.11915963888168335
v 0.0020006312988698483 -0.0005926376325078309 0.11915963888168335
v 0.0015274581965059042 -1.0624641610945673e-08 0.11943280696868896
v 0.0020006312988698483 0.0005926163867115974 0.11915963888168335
v 0.0024817970115691423 -1.0652366988495032e-08 0.11888182163238525
v -0.002478288719430566 -1.0652319915038788e-08 0.1188807487487793
v -0.0019952550064772367 -0.0005926376325078309 0.11915963888168335
v -0.0019952550064772367 -0.0005926376325078309 0.11915963888168335
v -0.0011385483667254448 -0.0005375848850235343 0.11829858273267746
v -0.0008697613957338035 -1.0600226474366536e-08 0.11876413971185684
v -0.0015202144859358668 -1.0624688684401917e-08 0.11943389475345612
v -0.0015202144859358668 -1.0624688684401917e-08 0.11943389475345612
v -0.0008697613957338035 -1.0600226474366536e-08 0.11876413971185684
v -0.0019952550064772367 0.0005926163867115974 0.11915963888168335
v -0.0019952550064772367 0.0005926163867115974 0.11915963888168335
v -0.0011385483667254448 0.0005375636392273009 0.11829858273267746
v -0.001407335395924747 -1.060652277118379e-08 0.11783303320407867
v -0.001407335395924747 -1.060652277118379e-08 0.11783303320407867
v -0.002478288719430566 -1.0652319915038788e-08 0.1188807487487793
v -0.001407335395924747 -1.060652277118379e-08 0.11783303320407867
v 0.0 -0.0005375848850235343 0.11799351125955582
v 0.0 -1.0590039067892576e-08 0.11853110045194626
v -0.0008697613957338035 -1.0600226474366536e-08 0.11876413971185684
v 0.0 -1.0590039067892576e-08 0.11853110045194626
v 0.0 0.0005375636392273009 0.11799351125955582
v 0.0 -1.0590039067892576e-08 0.11745594441890717
v 0.0 -1.0590039067892576e-08 0.11745594441890717
v 0.0 -1.0590039067892576e-08 0.11745594441890717
v 0.001138548948802054 -0.0005375848850235343 0.11829858273267746
v 0.0008697613957338035 -1.0600226474366536e-08 0.11876413971185684
v 0.0 -1.0590039067892576e-08 0.11853110045194626
v 0.0008697613957338035 -1.0600226474366536e-08 0.11876413971185684
v 0.001138548948802054 0.0005375636392273009 0.11829858273267746
v 0.0014073359780013561 -1.060652277118379e-08 0.11783303320407867
v 0.0014073359780013561 -1.060652277118379e-08 0.11783303320407867
v 0.0014073359780013561 -1.060652277118379e-08 0.11783303320407867
v 0.0024817970115691423 -1.0652366988495032e-08 0.11888182163238525
v 0.0020006312988698483 -0.0005926376325078309 0.11915963888168335
v 0.0020006312988698483 -0.0005926376325078309 0.11915963888168335
v 0.0015274581965059042 -1.0624641610945673e-08 0.11943280696868896
v 0.0008697613957338035 -1.0600226474366536e-08 0.11876413971185684
v 0.0015274581965059042 -1.0624641610945673e-08 0.11943280696868896
v 0.0020006312988698483 0.0005926163867115974 0.11915963888168335
v 0.0020006312988698483 0.0005926163867115974 0.11915963888168335
v 0.0024817970115691423 -1.0652366988495032e-08 0.11888182163238525
v -1.8854956485014895e-10 -1.6454411166932914e-08 0.12070254981517792
v -0.001003903802484274 -1.6366648480925505e-08 0.11969864368438721
v -0.001003903686068952 0.0016522988444194198 0.1192559003829956
v 5.085124682446818e-11 0.0011503471760079265 0.11838649213314056
v -1.2569971105658162e-11 -1.6366646704568666e-08 0.1186947301030159
v 5.085124682446818e-11 0.0011503471760079265 0.11838649213314056
v -1.2569971105658162e-11 -1.6366646704568666e-08 0.1186947301030159
v 0.0010039034532383084 -1.6454412943289753e-08 0.11969864368438721
v 0.0010039035696536303 0.0016522988444194198 0.1192559003829956
v -6.91348367443112e-11 0.002154250629246235 0.12012530863285065
v -6.91348367443112e-11 0.002154250629246235 0.12012530863285065
v -1.8854956485014895e-10 -1.6454411166932914e-08 0.12070254981517792
v -6.91348367443112e-11 0.002154250629246235 0.12012530863285065
v -0.0010039035696536303 0.002861877903342247 0.11804632842540741
v 1.2455698972235751e-10 0.0019924715161323547 0.11754438281059265
v 5.085124682446818e-11 0.0011503471760079265 0.11838649213314056
v 1.2455698972235751e-10 0.0019924715161323547 0.11754438281059265
v 0.001003903686068952 0.002861877903342247 0.11804632842540741
v 6.91348367443112e-11 0.0037312840577214956 0.11854827404022217
v 6.91348367443112e-11 0.0037312840577214956 0.11854827404022217
v 6.91348367443112e-11 0.0037312840577214956 0.11854827404022217
v -0.0010039034532383084 0.0033046146854758263 0.11639401316642761
v 1.8854956485014895e-10 0.0023007106501609087 0.11639401316642761
v 1.2455698972235751e-10 0.0019924715161323547 0.11754438281059265
v 1.8854956485014895e-10 0.0023007106501609087 0.11639401316642761
v 0.001003903802484274 0.0033046146854758263 0.11639401316642761
v 1.8854956485014895e-10 0.004308518022298813 0.11639401316642761
v 1.8854956485014895e-10 0.004308518022298813 0.11639401316642761
v 1.8854956485014895e-10 0.004308518022298813 0.11639401316642761
v -0.0010039034532383084 0.0028618776705116034 0.11474170535802841
v 2.251167585676228e-10 0.0019924715161323547 0.11524365097284317
v 1.8854956485014895e-10 0.0023007106501609087 0.11639401316642761
v 2.251167585676228e-10 0.0019924715161323547 0.11524365097284317
v 0.0010039039188995957 0.0028618776705116034 0.11474170535802841
v 2.5711305307041243e-10 0.003731283824890852 0.11423973739147186
v 2.5711305307041243e-10 0.003731283824890852 0.11423973739147186
v 2.5711305307041243e-10 0.003731283824890852 0.11423973739147186
v -0.0010039034532383084 0.0016522988444194198 0.11353211104869843
v 2.251167585676228e-10 0.0011503471760079265 0.11440152674913406
v 2.251167585676228e-10 0.0019924715161323547 0.11524365097284317
v 2.251167585676228e-10 0.0011503471760079265 0.11440152674913406
v 0.0010039039188995957 0.0016522988444194198 0.11353211104869843
v 2.5711305307041243e-10 0.002154250629246235 0.11266271024942398
v 2.5711305307041243e-10 0.002154250629246235 0.11266271024942398
v 2.5711305307041243e-10 0.002154250629246235 0.11266271024942398
v -0.0010039034532383084 -1.6366648480925505e-08 0.11308939009904861
v 1.8854956485014895e-10 -1.6366648480925505e-08 0.11409328877925873
v 2.251167585676228e-10 0.0011503471760079265 0.11440152674913406
v 1.8854956485014895e-10 -1.6366648480925505e-08 0.11409328877925873
v 0.001003903802484274 -1.6454411166932914e-08 0.11308939009904861
v 1.8854956485014895e-10 -1.6454411166932914e-08 0.11208547651767731
v 1.8854956485014895e-10 -1.6454411166932914e-08 0.11208547651767731
v 1.8854956485014895e-10 -1.6454411166932914e-08 0.11208547651767731
v -0.0010039035696536303 -0.0016523319063708186 0.11353211104869843
v 1.2455698972235751e-10 -0.0011503798887133598 0.11440152674913406
v 1.8854956485014895e-10 -1.6366648480925505e-08 0.11409328877925873
v 1.2455698972235751e-10 -0.0011503798887133598 0.11440152674913406
v 0.001003903686068952 -0.0016523319063708186 0.11353211104869843
v 6.91348367443112e-11 -0.0021542836911976337 0.11266271024942398
v 6.91348367443112e-11 -0.0021542836911976337 0.11266271024942398
v 6.91348367443112e-11 -0.0021542836911976337 0.11266271024942398
v -0.001003903686068952 -0.0028619104996323586 0.11474170535802841
v 5.085124682446818e-11 -0.00199250434525311 0.11524365097284317
v 1.2455698972235751e-10 -0.0011503798887133598 0.11440152674913406
v 5.085124682446818e-11 -0.00199250434525311 0.11524365097284317
v 0.0010039035696536303 -0.0028619104996323586 0.11474170535802841
v -6.91348367443112e-11 -0.003731316654011607 0.11423973739147186
v -6.91348367443112e-11 -0.003731316654011607 0.11423973739147186
v -6.91348367443112e-11 -0.003731316654011607 0.11423973739147186
v -0.001003903802484274 -0.0033046468161046505 0.11639401316642761
v -1.2569971105658162e-11 -0.002300743479281664 0.11639401316642761
v 5.085124682446818e-11 -0.00199250434525311 0.11524365097284317
v -1.2569971105658162e-11 -0.002300743479281664 0.11639401316642761
v 0.0010039034532383084 -0.0033046468161046505 0.11639401316642761
v -1.8854956485014895e-10 -0.004308550152927637 0.11639401316642761
v -1.8854956485014895e-10 -0.004308550152927637 0.11639401316642761
v -1.8854956485014895e-10 -0.004308550152927637 0.11639401316642761
v -0.0010039039188995957 -0.0028619104996323586 0.11804632842540741
v -4.970852202079712e-11 -0.0019925048109143972 0.11754438281059265
v -1.2569971105658162e-11 -0.002300743479281664 0.11639401316642761
v -4.970852202079712e-11 -0.0019925048109143972 0.11754438281059265
v 0.0010039034532383084 -0.0028619104996323586 0.11804632842540741
v -2.5711305307041243e-10 -0.003731316886842251 0.11854827404022217
v -2.5711305307041243e-10 -0.003731316886842251 0.11854827404022217
v -2.5711305307041243e-10 -0.003731316886842251 0.11854827404022217
v -0.0010039039188995957 -0.0016523326048627496 0.1192559003829956
v -4.970852202079712e-11 -0.001150380470789969 0.11838649213314056
v -4.970852202079712e-11 -0.0019925048109143972 0.11754438281059265
v -4.970852202079712e-11 -0.001150380470789969 0.11838649213314056
v 0.0010039034532383084 -0.0016523326048627496 0.1192559003829956
v -2.5711305307041243e-10 -0.002154284855350852 0.12012530863285065
v -2.5711305307041243e-10 -0.002154284855350852 0.12012530863285065
v -2.5711305307041243e-10 -0.002154284855350852 0.12012530863285065
v -1.8854956485014895e-10 -1.6454411166932914e-08 0.12070254981517792
v -0.001003903802484274 -1.6366648480925505e-08 0.11969864368438721
v -0.001003903802484274 -1.6366648480925505e-08 0.11969864368438721
v -1.2569971105658162e-11 -1.6366646704568666e-08 0.1186947301030159
v -1.2569971105658162e-11 -1.6366646704568666e-08 0.1186947301030159
v -4.970852202079712e-11 -0.001150380470789969 0.11838649213314056
v -1.2569971105658162e-11 -1.6366646704568666e-08 0.1186947301030159
v 0.0010039034532383084 -1.6454412943289753e-08 0.11969864368438721
v 0.0010039034532383084 -1.6454412943289753e-08 0.11969864368438721
v -1.8854956485014895e-10 -1.6454411166932914e-08 0.12070254981517792
v -1.8854956485014895e-10 -1.6454411166932914e-08 0.12070254981517792
g submesh_0
f 247 246 1
f 7 248 249
f 26 254 27
f 257 256 32
f 326 85 325
f 123 377 127
f 124 378 380
f 125 383 129
f 388 384 387
f 131 389 130
f 133 391 392
f 136 395 397
f 404 400 403
f 413 411 412
f 415 405 414
f 419 417 418
f 421 408 420
f 147 423 151
f 148 424 426
f 149 429 153
f 434 430 433
f 159 441 158
f 161 443 444
f 164 447 449
f 456 452 455
f 459 457 458
f 461 448 460
f 465 463 464
f 467 453 466
f 506 503 505
f 514 510 513
f 533 531 532
f 538 536 537
f 199 541 203
f 200 542 544
f 201 547 205
f 552 548 551
f 635 633 634
f 637 626 636
f 641 639 640
f 643 630 642
f 16 15 9
f 9 15 13
f 9 13 8
f 12 14 11
f 11 14 18
f 11 18 17
f 23 19 20
f 20 19 250
f 20 250 251
f 253 252 21
f 21 252 22
f 21 22 25
f 33 40 34
f 34 40 41
f 34 41 35
f 35 41 42
f 35 42 36
f 36 42 43
f 36 43 44
f 44 43 51
f 44 51 52
f 52 51 59
f 52 59 60
f 36 44 37
f 37 44 45
f 37 45 38
f 38 45 46
f 38 46 39
f 259 59 66
f 66 59 65
f 66 65 72
f 72 65 71
f 72 71 78
f 78 71 70
f 78 70 77
f 77 70 69
f 77 69 76
f 76 69 68
f 76 68 75
f 259 66 67
f 67 66 73
f 67 73 74
f 74 73 80
f 74 80 81
f 319 317 263
f 319 263 260
f 260 263 261
f 260 261 262
f 267 268 266
f 267 266 265
f 265 266 264
f 265 264 261
f 273 274 271
f 273 271 270
f 270 271 269
f 270 269 272
f 278 279 277
f 278 277 276
f 276 277 275
f 276 275 273
f 287 288 286
f 287 286 285
f 285 286 284
f 285 284 283
f 283 284 282
f 283 282 281
f 281 282 280
f 281 280 278
f 292 293 291
f 292 291 290
f 290 291 289
f 290 289 287
f 297 298 296
f 297 296 295
f 295 296 294
f 295 294 292
f 303 304 301
f 303 301 300
f 300 301 299
f 300 299 302
f 308 309 307
f 308 307 306
f 306 307 305
f 306 305 303
f 317 318 316
f 317 316 315
f 315 316 314
f 315 314 313
f 313 314 312
f 313 312 311
f 311 312 310
f 311 310 308
f 322 84 83
f 322 83 320
f 320 83 82
f 320 82 321
f 323 85 324
f 324 85 87
f 324 87 330
f 331 88 86
f 331 86 327
f 327 86 328
f 327 328 329
f 335 336 333
f 335 333 89
f 89 333 332
f 89 332 334
f 119 118 121
f 121 118 120
f 93 91 337
f 337 91 338
f 92 339 340
f 340 339 341
f 90 342 343
f 343 342 344
f 370 369 114
f 114 369 115
f 114 115 110
f 110 115 111
f 110 111 106
f 106 111 107
f 106 107 102
f 102 107 103
f 102 103 345
f 345 103 346
f 376 375 368
f 368 375 367
f 368 367 364
f 364 367 363
f 364 363 360
f 360 363 359
f 360 359 104
f 104 359 348
f 104 348 347
f 347 348 349
f 372 371 365
f 365 371 117
f 365 117 361
f 361 117 113
f 361 113 357
f 357 113 109
f 357 109 352
f 352 109 105
f 352 105 350
f 350 105 351
f 374 373 366
f 366 373 116
f 366 116 362
f 362 116 112
f 362 112 358
f 358 112 108
f 358 108 356
f 356 108 354
f 356 354 353
f 353 354 355
f 131 127 126
f 126 127 122
f 390 132 379
f 379 132 128
f 379 128 378
f 133 129 382
f 382 129 381
f 393 394 385
f 385 394 386
f 385 386 384
f 135 134 139
f 139 134 138
f 139 138 143
f 143 138 142
f 143 142 413
f 406 140 396
f 396 140 395
f 137 398 141
f 141 398 399
f 141 399 145
f 145 399 407
f 145 407 419
f 410 402 401
f 401 402 400
f 416 144 405
f 405 144 396
f 422 409 408
f 408 409 401
f 155 151 150
f 150 151 146
f 442 160 436
f 436 160 156
f 436 156 425
f 425 156 152
f 425 152 424
f 157 153 428
f 428 153 427
f 445 446 439
f 439 446 440
f 439 440 431
f 431 440 432
f 431 432 430
f 159 155 154
f 154 155 435
f 161 157 438
f 438 157 437
f 163 162 167
f 167 162 166
f 167 166 459
f 462 168 448
f 448 168 447
f 165 450 169
f 169 450 451
f 169 451 465
f 468 454 453
f 453 454 452
f 179 178 171
f 171 178 170
f 171 170 469
f 469 170 470
f 493 180 472
f 472 180 172
f 472 172 471
f 471 172 473
f 494 181 475
f 475 181 173
f 475 173 474
f 474 173 476
f 496 495 479
f 479 495 477
f 479 477 478
f 478 477 480
f 183 182 175
f 175 182 174
f 175 174 481
f 481 174 482
f 184 497 176
f 176 497 483
f 176 483 484
f 484 483 485
f 185 498 177
f 177 498 486
f 177 486 487
f 487 486 488
f 500 499 491
f 491 499 489
f 491 489 490
f 490 489 492
f 502 501 187
f 187 501 186
f 187 186 191
f 517 188 504
f 504 188 503
f 509 507 189
f 189 507 508
f 189 508 193
f 522 512 511
f 511 512 510
f 195 191 190
f 190 191 515
f 525 192 516
f 516 192 504
f 197 193 519
f 519 193 518
f 530 521 520
f 520 521 511
f 533 195 194
f 194 195 523
f 534 535 524
f 524 535 196
f 524 196 516
f 538 197 527
f 527 197 526
f 539 540 528
f 528 540 529
f 528 529 520
f 207 203 202
f 202 203 198
f 555 204 543
f 543 204 542
f 209 205 546
f 546 205 545
f 560 550 549
f 549 550 548
f 211 207 206
f 206 207 553
f 563 208 554
f 554 208 543
f 213 209 557
f 557 209 556
f 568 559 558
f 558 559 549
f 215 211 210
f 210 211 561
f 571 212 562
f 562 212 554
f 217 213 565
f 565 213 564
f 576 567 566
f 566 567 558
f 219 215 214
f 214 215 569
f 579 216 570
f 570 216 562
f 221 217 573
f 573 217 572
f 584 575 574
f 574 575 566
f 223 219 218
f 218 219 577
f 587 220 578
f 578 220 570
f 225 221 581
f 581 221 580
f 592 583 582
f 582 583 574
f 227 223 222
f 222 223 585
f 595 224 586
f 586 224 578
f 229 225 589
f 589 225 588
f 600 591 590
f 590 591 582
f 231 227 226
f 226 227 593
f 603 228 594
f 594 228 586
f 233 229 597
f 597 229 596
f 608 599 598
f 598 599 590
f 235 231 230
f 230 231 601
f 611 232 602
f 602 232 594
f 237 233 605
f 605 233 604
f 616 607 606
f 606 607 598
f 239 235 234
f 234 235 609
f 619 236 610
f 610 236 602
f 241 237 613
f 613 237 612
f 624 615 614
f 614 615 606
f 243 239 238
f 238 239 617
f 627 240 618
f 618 240 610
f 245 241 621
f 621 241 620
f 632 623 622
f 622 623 614
f 635 243 242
f 242 243 625
f 638 244 626
f 626 244 618
f 641 245 629
f 629 245 628
f 644 631 630
f 630 631 622
f 8 2 9
f 9 2 3
f 9 3 4
f 5 6 11
f 5 11 4
f 4 11 10
f 4 10 9
f 11 6 12
f 29 28 20
f 20 28 255
f 20 255 23
f 31 30 21
f 21 30 29
f 21 29 24
f 24 29 20
f 25 31 21
f 65 59 58
f 58 59 51
f 58 51 50
f 50 51 43
f 50 43 49
f 49 43 42
f 49 42 48
f 48 42 41
f 48 41 47
f 47 41 40
f 44 52 45
f 45 52 53
f 45 53 46
f 47 54 48
f 48 54 55
f 48 55 49
f 49 55 56
f 49 56 50
f 50 56 57
f 50 57 58
f 58 57 64
f 58 64 65
f 65 64 71
f 53 52 60
f 258 61 62
f 258 62 55
f 55 62 63
f 55 63 56
f 56 63 64
f 56 64 57
f 71 64 63
f 71 63 70
f 70 63 62
f 70 62 69
f 69 62 61
f 69 61 68
f 78 79 72
f 72 79 73
f 72 73 66
f 73 79 80
f 99 95 98
f 98 95 94
f 98 94 97
f 97 94 96
f 97 96 100
f 100 96 99
f 100 99 101
f 101 99 98
