# complete03
v -0.2355000227689743 0.1979687660932541 -4.999999987376214e-07
v -0.12929701805114746 0.30399999022483826 -4.999999987376214e-07
v 0.23549972474575043 0.30399999022483826 -4.999999987376214e-07
v 0.23549972474575043 0.1470000296831131 -4.999999987376214e-07
v 0.19449996948242188 0.1470000296831131 -4.999999987376214e-07
v 0.19449996948242188 -0.1459999978542328 -4.999999987376214e-07
v 0.23549972474575043 -0.1459999978542328 -4.999999987376214e-07
v 0.23549972474575043 -0.30399999022483826 -4.999999987376214e-07
v -0.027500152587890625 -0.30399999022483826 -4.999999987376214e-07
v -0.027500152587890625 -0.1459999978542328 -4.999999987376214e-07
v 0.013499602675437927 -0.1459999978542328 -4.999999987376214e-07
v 0.013499602675437927 -0.10999999940395355 -4.999999987376214e-07
v -0.12851577997207642 -0.10999999940395355 -4.999999987376214e-07
v -0.2355000227689743 -0.003046874888241291 -4.999999987376214e-07
v 0.013499602675437927 0.05100000277161598 -4.999999987376214e-07
v 0.013499602675437927 0.1470000296831131 -4.999999987376214e-07
v -0.06150039657950401 0.1470000296831131 -4.999999987376214e-07
v -0.06150039657950401 0.05100000277161598 -4.999999987376214e-07
g submesh_0
f 7 6 8
f 8 6 11
f 8 11 9
f 9 11 10
f 2 1 16
f 2 16 3
f 3 16 5
f 3 5 4
f 16 1 17
f 17 1 14
f 17 14 18
f 18 14 13
f 18 13 12
f 11 6 5
f 11 5 12
f 12 5 15
f 12 15 18
f 15 5 16
