# complete06
v -0.26049986481666565 0.30399999022483826 -4.999999987376214e-07
v 0.26049986481666565 0.30399999022483826 -4.999999987376214e-07
v 0.26049986481666565 0.08365625143051147 -4.999999987376214e-07
v 0.11950012296438217 0.08365625143051147 -4.999999987376214e-07
v 0.11950012296438217 0.1459999978542328 -4.999999987376214e-07
v 0.08950012177228928 0.1459999978542328 -4.999999987376214e-07
v 0.08950012177228928 -0.1459999978542328 -4.999999987376214e-07
v 0.13249999284744263 -0.1459999978542328 -4.999999987376214e-07
v 0.13249999284744263 -0.30399999022483826 -4.999999987376214e-07
v -0.13049986958503723 -0.30399999022483826 -4.999999987376214e-07
v -0.13049986958503723 -0.1459999978542328 -4.999999987376214e-07
v -0.08850036561489105 -0.1459999978542328 -4.999999987376214e-07
v -0.08850036561489105 0.1459999978542328 -4.999999987376214e-07
v -0.11950012296438217 0.1459999978542328 -4.999999987376214e-07
v -0.11950012296438217 0.08365625143051147 -4.999999987376214e-07
v -0.26049986481666565 0.08365625143051147 -4.999999987376214e-07
g submesh_0
f 16 15 1
f 1 15 14
f 1 14 2
f 2 14 13
f 2 13 6
f 6 13 12
f 6 12 7
f 7 12 9
f 7 9 8
f 11 10 12
f 12 10 9
f 4 3 5
f 5 3 2
f 5 2 6
