# COL
v 7.513700306998407e-28 -5.7801863989626057e-11 0.00037036530557088554
v -0.0015877019613981247 -4.138926180952129e-12 9.994312858907506e-05
v -0.0014919518725946546 0.0005430261371657252 9.994312858907506e-05
v -0.0012162502389401197 0.0010205551516264677 9.994312858907506e-05
v -0.0007938509224914014 0.0013749903300777078 9.994312858907506e-05
v -0.0002757014299277216 0.0015635811723768711 9.994312858907506e-05
v 0.0002757017209660262 0.0015635811723768711 9.994312858907506e-05
v 0.0007938511553220451 0.001374990213662386 9.994312858907506e-05
v 0.0012162503553554416 0.0010205550352111459 9.994312858907506e-05
v 0.0014919518725946546 0.0005430258461274207 9.994312858907506e-05
v 0.0015877019613981247 -2.8489188785840724e-10 9.994312858907506e-05
v 0.0014919518725946546 -0.0005430263699963689 9.994312858907506e-05
v 0.001216250006109476 -0.0010205553844571114 9.994312858907506e-05
v 0.0007938506314530969 -0.0013749904464930296 9.994312858907506e-05
v 0.00027570113888941705 -0.001563581288792193 9.994312858907506e-05
v -0.00027570195379666984 -0.0015635811723768711 9.994312858907506e-05
v -0.0007938513881526887 -0.0013749899808317423 9.994312858907506e-05
v -0.0012162505881860852 -0.0010205546859651804 9.994312858907506e-05
v -0.0014919521054252982 -0.0005430255550891161 9.994312858907506e-05
v -0.0018148678354918957 -3.2937413907419e-10 0.008141848258674145
v -0.0017054177587851882 0.0006207211408764124 0.008141848258674145
v -0.0013902693754062057 0.001166574307717383 0.008141848258674145
v -0.0009074338595382869 0.0015717213973402977 0.008141848258674145
v -0.00031514832517132163 0.0017872954485937953 0.008141848258674145
v 0.0003151486744172871 0.0017872955650091171 0.008141848258674145
v 0.0009074341505765915 0.0015717212809249759 0.008141848258674145
v 0.0013902696082368493 0.0011665740748867393 0.008141848258674145
v 0.0017054179916158319 0.0006207207916304469 0.008141848258674145
v 0.0018148677190765738 -6.50296705373421e-10 0.008141848258674145
v 0.0017054177587851882 -0.0006207219557836652 0.008141848258674145
v 0.0013902690261602402 -0.0011665750062093139 0.00814184732735157
v 0.0009074335102923214 -0.0015717219794169068 0.008141848258674145
v 0.0003151480050291866 -0.0017872961470857263 0.008141848258674145
v -0.0003151489363517612 -0.0017872961470857263 0.00814184732735157
v -0.0009074342669919133 -0.0015717215137556195 0.00814184732735157
v -0.0013902696082368493 -0.0011665744241327047 0.008141848258674145
v -0.0017054179916158319 -0.0006207210244610906 0.008141848258674145
v -0.0013219424290582538 -3.1066235695043076e-10 0.008587921038269997
v -0.0012422195868566632 0.0004521306836977601 0.008587921038269997
v -0.001012666616588831 0.0008497281232848763 0.008587921038269997
v -0.0006609712145291269 0.0011448357254266739 0.008587921038269997
v -0.00022955279564484954 0.001301859156228602 0.008587921038269997
v 0.00022955307213123888 0.0013018588069826365 0.008587921038269997
v 0.0006609714473597705 0.0011448353761807084 0.008587921038269997
v 0.0010126668494194746 0.0008497278904542327 0.008587921038269997
v 0.0012422198196873069 0.00045213050907477736 0.008587921038269997
v 0.0013219427783042192 -5.444210637861602e-10 0.008587920106947422
v 0.0012422195868566632 -0.00045213146950118244 0.008587920106947422
v 0.001012666616588831 -0.0008497287635691464 0.008587920106947422
v 0.0006609710981138051 -0.001144836307503283 0.008587920106947422
v 0.00022955260646995157 -0.001301859854720533 0.008587920106947422
v -0.00022955326130613685 -0.0013018592726439238 0.008587920106947422
v -0.0006609715637750924 -0.0011448359582573175 0.008587920106947422
v -0.0010126668494194746 -0.0008497282397001982 0.008587920106947422
v -0.0012422198196873069 -0.0004521308874245733 0.008587920106947422
v -0.0006984291248954833 -3.7436875821583726e-10 0.00901981070637703
v -0.0006563084316439927 0.000238876324146986 0.00901981070637703
v -0.0005350276478566229 0.0004489411658141762 0.00901981070637703
v -0.00034921447513625026 0.0006048568757250905 0.00901981070637703
v -0.00012128085654694587 0.0006878179265186191 0.00901981070637703
v 0.00012128098751418293 0.0006878178683109581 0.00901981070637703
v 0.00034921456244774163 0.0006048567593097687 0.00901981070637703
v 0.000535027589648962 0.0004489410493988544 0.00901981070637703
v 0.0006563086062669754 0.0002388762659393251 0.00901981070637703
v 0.0006984290084801614 -4.978717438319791e-10 0.00901981070637703
v 0.0006563084898516536 -0.00023887727002147585 0.00901981070637703
v 0.0005350274732336402 -0.00044894195161759853 0.00901981070637703
v 0.00034921435872092843 -0.0006048575742170215 0.00901981070637703
v 0.00012128072557970881 -0.0006878186832182109 0.00901981070637703
v -0.00012128109665354714 -0.0006878185085952282 0.00901981070637703
v -0.00034921462065540254 -0.0006048575160093606 0.00901981070637703
v -0.0005350277642719448 -0.0004489415732678026 0.00901981070637703
v -0.0006563086062669754 -0.00023887702263891697 0.00901981070637703
v -0.0007483074441552162 -4.299385569783709e-10 0.01068188901990652
v -0.0007031789282336831 0.0002559357963036746 0.010681889951229095
v -0.0005732366698794067 0.00048100232379511 0.010681889951229095
v -0.0003741536638699472 0.0006480528973042965 0.010681889951229095
v -0.0001299421419389546 0.0007369384984485805 0.010681889951229095
v 0.00012994228745810688 0.0007369385566562414 0.010681889951229095
v 0.0003741537220776081 0.0006480526644736528 0.010681889951229095
v 0.0005732367280870676 0.00048100220737978816 0.010681889951229095
v 0.0007031789282336831 0.00025593567988835275 0.010681889951229095
v 0.0007483073859475553 -5.622615706357692e-10 0.01068188901990652
v 0.0007031789282336831 -0.00025593669852241874 0.01068188901990652
v 0.0005732366116717458 -0.00048100322601385415 0.01068188901990652
v 0.0003741535183507949 -0.0006480537122115493 0.01068188901990652
v 0.00012994201097171754 -0.0007369393133558333 0.01068188901990652
v -0.0001299424038734287 -0.0007369393133558333 0.01068188901990652
v -0.0003741538093890995 -0.0006480535957962275 0.01068188901990652
v -0.0005732367280870676 -0.00048100287676788867 0.01068188901990652
v -0.000703178986441344 -0.0002559363201726228 0.01068188901990652
v -0.0005263630300760269 -3.1653010768017964e-10 0.012269647791981697
v -0.0004946194239892066 0.00018002641445491463 0.012269647791981697
v -0.00040321736014448106 0.0003383393050171435 0.012269647791981697
v -0.00026318151503801346 0.0004558434593491256 0.012269647791981697
v -9.140196198131889e-05 0.0005183661123737693 0.012269647791981697
v 9.140201291302219e-05 0.0005183661123737693 0.012269647791981697
v 0.00026318151503801346 0.00045584343024529517 0.012269647791981697
v 0.00040321756387129426 0.00033833918860182166 0.012269647791981697
v 0.0004946194821968675 0.00018002638535108417 0.012269647791981697
v 0.0005263630300760269 -4.0960673741707865e-10 0.012269647791981697
v 0.0004946193075738847 -0.00018002720025833696 0.012269646860659122
v 0.00040321736014448106 -0.0003383400326129049 0.012269646860659122
v 0.0002631813404150307 -0.00045584409963339567 0.012269646860659122
v 9.140183829003945e-05 -0.0005183666944503784 0.012269646860659122
v -9.140213660430163e-05 -0.0005183666944503784 0.012269646860659122
v -0.00026318160234950483 -0.0004558439541142434 0.012269646860659122
v -0.00040321756387129426 -0.0003383398288860917 0.012269646860659122
v -0.0004946196568198502 -0.00018002692377194762 0.012269646860659122
v -0.0016509908018633723 -3.087132216528232e-10 0.008404500782489777
v -0.0015514236874878407 0.0005646718782372773 0.008404500782489777
v -0.0012647320982068777 0.0010612363694235682 0.008404500782489777
v -0.0008254953427240252 0.0014297997113317251 0.008404500782489777
v -0.0002866914146579802 0.0016259087715297937 0.008404500782489777
v 0.00028669173480011523 0.0016259080730378628 0.008404500782489777
v 0.0008254956919699907 0.0014297995949164033 0.008404500782489777
v 0.001264732563868165 0.0010612360201776028 0.008404500782489777
v 0.0015514240367338061 0.0005646715871989727 0.008404500782489777
v 0.0016509911511093378 -6.006575237194056e-10 0.008404498919844627
v 0.0015514240367338061 -0.0005646726931445301 0.008404499851167202
v 0.0012647320982068777 -0.0010612370679154992 0.008404498919844627
v 0.0008254952263087034 -0.001429800526238978 0.008404499851167202
v 0.00028669118182733655 -0.0016259093536064029 0.008404498919844627
v -0.00028669199673458934 -0.00162590853869915 0.008404499851167202
v -0.0008254958665929735 -0.001429800409823656 0.008404498919844627
v -0.0012647327966988087 -0.0010612363694235682 0.008404499851167202
v -0.0015514242695644498 -0.0005646719946525991 0.008404499851167202
v -0.0018567161168903112 -3.293318673325274e-10 0.007952415384352207
v -0.0017447423888370395 0.0006350340554490685 0.007952415384352207
v -0.0014223270118236542 0.0011934738140553236 0.007952415384352207
v -0.0009283579420298338 0.001607963116839528 0.007952415384352207
v -0.000322415231494233 0.0018285078695043921 0.007952415384352207
v 0.00032241555163636804 0.001828507985919714 0.007952415384352207
v 0.0009283582912757993 0.0016079630004242063 0.007952415384352207
v 0.0014223272446542978 0.0011934736976400018 0.007952415384352207
v 0.0017447425052523613 0.000635033764410764 0.007952415384352207
v 0.0018567161168903112 -6.576545419356705e-10 0.007952415384352207
v 0.0017447423888370395 -0.0006350349285639822 0.007952415384352207
v 0.0014223267789930105 -0.0011934746289625764 0.007952415384352207
v 0.0009283576509915292 -0.001607963815331459 0.007952415384352207
v 0.00032241488224826753 -0.0018285088008269668 0.007952415384352207
v -0.00032241587177850306 -0.0018285088008269668 0.007952415384352207
v -0.000928358465898782 -0.0016079633496701717 0.007952415384352207
v -0.0014223274774849415 -0.0011934739304706454 0.007952415384352207
v -0.0017447426216676831 -0.0006350339972414076 0.007952415384352207
v -0.0008585780742578208 -3.6044328632911515e-10 0.008798781782388687
v -0.0008067992166616023 0.00029365046066232026 0.008798781782388687
v -0.0006577087915502489 0.0005518828984349966 0.008798781782388687
v -0.00042928889160975814 0.000743549840990454 0.008798781782388687
v -0.00014909039600752294 0.0008455337374471128 0.008798781782388687
v 0.00014909057063050568 0.0008455335628241301 0.008798781782388687
v 0.0004292890371289104 0.0007435497245751321 0.008798781782388687
v 0.0006577087915502489 0.0005518827238120139 0.008798781782388687
v 0.0008067992748692632 0.00029365040245465934 0.008798781782388687
v 0.0008585778414271772 -5.122653967681856e-10 0.008798781782388687
v 0.0008067992166616023 -0.00029365139198489487 0.008798781782388687
v 0.0006577085587196052 -0.0005518836551345885 0.008798781782388687
v 0.00042928874609060585 -0.0007435505394823849 0.008798781782388687
v 0.00014909023593645543 -0.0008455346105620265 0.008798781782388687
v -0.0001490906870458275 -0.0008455343195237219 0.008798781782388687
v -0.0004292890662327409 -0.0007435504230670631 0.008798781782388687
v -0.0006577088497579098 -0.0005518831894733012 0.008798781782388687
v -0.0008067992166616023 -0.00029365107184275985 0.008798781782388687
v -0.0007564107072539628 -4.155138455530505e-10 0.01012025959789753
v -0.0007107934798114002 0.0002587072958704084 0.010120260529220104
v -0.0005794441094622016 0.00048621100722812116 0.01012025959789753
v -0.0003782053245231509 0.000655070529319346 0.01012025959789753
v -0.00013134926848579198 0.0007449185941368341 0.01012025959789753
v 0.00013134939945302904 0.000744918710552156 0.01012025959789753
v 0.00037820538273081183 0.000655070471111685 0.01012025959789753
v 0.0005794441676698625 0.00048621094902046025 0.01012025959789753
v 0.0007107934798114002 0.00025870720855891705 0.010120260529220104
v 0.0007564106490463018 -5.492697408016056e-10 0.01012025959789753
v 0.0007107934798114002 -0.00025870813988149166 0.01012025959789753
v 0.0005794441094622016 -0.0004862118512392044 0.010120260529220104
v 0.00037820517900399864 -0.0006550712860189378 0.010120260529220104
v 0.0001313491229666397 -0.0007449194090440869 0.010120260529220104
v -0.0001313495304202661 -0.0007449194672517478 0.010120260529220104
v -0.0003782054700423032 -0.0006550712278112769 0.010120260529220104
v -0.0005794441676698625 -0.0004862115310970694 0.010120260529220104
v -0.000710793596226722 -0.0002587077906355262 0.01012025959789753
v -0.0014827355043962598 0.0 0.0
v -0.001393315615132451 0.0005071254563517869 0.0
v -0.0011358411284163594 0.0009530839743092656 0.0
v -0.000741367693990469 0.0012840867275372148 0.0
v -0.0002574741665739566 0.0014602092560380697 0.0
v 0.0002574744576122612 0.0014602092560380697 0.0
v 0.0007413679268211126 0.001284086494706571 0.0
v 0.001135841361247003 0.0009530838578939438 0.0
v 0.001393315615132451 0.0005071252235211432 0.0
v 0.0014827355043962598 -2.8014751629612533e-10 0.0
v 0.001393315615132451 -0.0005071256309747696 0.0
v 0.0011358410120010376 -0.0009530842071399093 0.0
v 0.0007413674029521644 -0.0012840868439525366 0.0
v 0.0002574739046394825 -0.0014602094888687134 0.0
v -0.00025747469044290483 -0.0014602092560380697 0.0
v -0.0007413680432364345 -0.0012840863782912493 0.0
v -0.001135841477662325 -0.0009530835668556392 0.0
v -0.0013933157315477729 -0.0005071248742751777 0.0
v -0.0005852551548741758 -1.981112607296609e-09 0.012317103333771229
v -0.0005499599501490593 0.00020016705093439668 0.012317103333771229
v -0.0004483313823584467 0.0003761927946470678 0.012317103333771229
v -0.00029262754833325744 0.0005068439058959484 0.012317103333771229
v -0.00010162846592720598 0.0005763618391938508 0.012317103333771229
v 0.00010162855323869735 0.0005763618974015117 0.012317103333771229
v 0.00029262760654091835 0.0005068438476882875 0.012317103333771229
v 0.0004483315860852599 0.0003761926491279155 0.012317103333771229
v 0.0005499600083567202 0.00020016699272673577 0.012317103333771229
v 0.0005852552130818367 -2.0846029347154627e-09 0.012317103333771229
v 0.0005499598337337375 -0.00020017119823023677 0.01231710147112608
v 0.0004483313823584467 -0.00037619686918333173 0.01231710147112608
v 0.00029262740281410515 -0.0005068478640168905 0.01231710147112608
v 0.00010162834951188415 -0.0005763658555224538 0.01231710147112608
v -0.00010162866237806156 -0.0005763658555224538 0.01231710147112608
v -0.00029262766474857926 -0.0005068477476015687 0.01231710147112608
v -0.00044833155698142946 -0.0003761966072488576 0.01231710147112608
v -0.000549960182979703 -0.00020017089264001697 0.01231710147112608
v -0.0005503470310941339 -3.177686558331061e-09 0.013196609914302826
v -0.0005171571392565966 0.00018822656420525163 0.013196609914302826
v -0.0004215902299620211 0.00035375310108065605 0.013196609914302826
v -0.0002751735155470669 0.0004766113997902721 0.013196609914302826
v -9.556673467159271e-05 0.0005419828812591732 0.013196609914302826
v 9.556681470712647e-05 0.0005419829394668341 0.013196609914302826
v 0.0002751735446508974 0.0004766113997902721 0.013196609914302826
v 0.0004215904336888343 0.00035375295556150377 0.013196609914302826
v 0.0005171570810489357 0.00018822653510142118 0.013196609914302826
v 0.0005503470893017948 -3.2750044898222086e-09 0.013196609914302826
v 0.0005171569064259529 -0.00018823309801518917 0.013196608982980251
v 0.0004215902299620211 -0.00035375956213101745 0.013196608982980251
v 0.00027517337002791464 -0.00047661768621765077 0.013196608982980251
v 9.556663280818611e-05 -0.0005419892258942127 0.013196608982980251
v -9.556691657053307e-05 -0.0005419892841018736 0.013196608982980251
v -0.00027517363196238875 -0.00047661762800998986 0.013196608982980251
v -0.0004215903754811734 -0.0003537593293003738 0.013196608982980251
v -0.0005171572556719184 -0.00018823283608071506 0.013196608982980251
v -0.00046112024574540555 -4.499900452259453e-09 0.01322877872735262
v -0.0004333113902248442 0.0001577078946866095 0.01322877872735262
v -0.00035323857446201146 0.00029639792046509683 0.01322877872735262
v -0.00023056012287270278 0.00039933741209097207 0.01322877872735262
v -8.007267024368048e-05 0.0004541103553492576 0.01322877872735262
v 8.0072735727299e-05 0.0004541103553492576 0.01322877872735262
v 0.00023056015197653323 0.00039933741209097207 0.01322877872735262
v 0.00035323871998116374 0.00029639777494594455 0.01322877872735262
v 0.0004333113320171833 0.00015770785103086382 0.01322877872735262
v 0.00046112030395306647 -4.581440116169233e-09 0.01322877872735262
v 0.000433311186498031 -0.00015771704784128815 0.013228777796030045
v 0.00035323857446201146 -0.0002964070299640298 0.013228777796030045
v 0.00023056000645738095 -0.0003993463469669223 0.013228777796030045
v 8.007258293218911e-05 -0.0004541193484328687 0.013228777796030045
v -8.007283031474799e-05 -0.0004541193484328687 0.013228777796030045
v -0.00023056022473610938 -0.0003993463178630918 0.013228777796030045
v -0.0003532386908773333 -0.0002964068262372166 0.013228777796030045
v -0.0004333114775363356 -0.00015771682956255972 0.013228777796030045
v -0.0005458857049234211 -2.914473995474509e-09 0.013258248567581177
v -0.0005129648488946259 0.0001867009705165401 0.013258248567581177
v -0.00041817265446297824 0.00035088564618490636 0.013258248567581177
v -0.00027294285246171057 0.00047274804092012346 0.013258248567581177
v -9.479201980866492e-05 0.0005375895416364074 0.013258248567581177
v 9.479212167207152e-05 0.0005375895416364074 0.013258248567581177
v 0.00027294288156554103 0.00047274804092012346 0.013258248567581177
v 0.000418172829085961 0.0003508855006657541 0.013258248567581177
v 0.0005129648488946259 0.0001867009123088792 0.013258248567581177
v 0.0005458857631310821 -3.011003224528963e-09 0.013258248567581177
v 0.0005129646160639822 -0.00018670698045752943 0.013258246704936028
v 0.0004181726835668087 -0.00035089164157398045 0.013258246704936028
v 0.0002729427069425583 -0.000472753745270893 0.013258246704936028
v 9.479192522121593e-05 -0.0005375954788178205 0.013258246704936028
v -9.479220898356289e-05 -0.0005375954788178205 0.013258246704936028
v -0.00027294293977320194 -0.0004727537161670625 0.013258246704936028
v -0.00041817277087830007 -0.0003508914087433368 0.013258246704936028
v -0.0005129650235176086 -0.0001867067039711401 0.013258246704936028
v -0.00048004358541220427 -4.284783639008083e-09 0.013608946464955807
v -0.0005129648488946259 0.0001866999955382198 0.01357788871973753
v -0.00041817265446297824 0.0003508846857585013 0.01357788871973753
v -0.00027294285246171057 0.0004727470804937184 0.01357788871973753
v -9.479201980866492e-05 0.0005375886103138328 0.01357788871973753
v 9.479212167207152e-05 0.0005375886103138328 0.01357788871973753
v 0.00027294288156554103 0.0004727470804937184 0.01357788871973753
v 0.000418172829085961 0.000350884540239349 0.01357788871973753
v 0.0005129648488946259 0.00018669996643438935 0.01357788871973753
v 0.0005458857631310821 -3.977433937762953e-09 0.01357788871973753
v 0.0005129646160639822 -0.00018670792633201927 0.013577887788414955
v 0.0004181726835668087 -0.0003508926020003855 0.013577887788414955
v 0.0002729427069425583 -0.00047275470569729805 0.013577887788414955
v 9.479192522121593e-05 -0.0005375964683480561 0.013577887788414955
v -9.479220898356289e-05 -0.0005375964683480561 0.013577887788414955
v -0.00027294293977320194 -0.0004727546765934676 0.013577887788414955
v -0.00041817277087830007 -0.0003508923982735723 0.013577887788414955
v -0.00045109359780326486 -0.00016418872110079974 0.013608947396278381
v -0.0005458857049234211 -3.880904930753104e-09 0.01357788871973753
v -0.0004510935686994344 0.0001641802809899673 0.013608947396278381
v -0.0003677347267512232 0.0003085618664044887 0.013608947396278381
v -0.0002400218218099326 0.00041572580812498927 0.013608947396278381
v -8.335875463671982e-05 0.0004727467894554138 0.013608947396278381
v 8.335884194821119e-05 0.0004727467312477529 0.013608947396278381
v 0.00024002199643291533 0.0004157260700594634 0.013608947396278381
v 0.0003677351342048496 0.0003085619246121496 0.013608947396278381
v 0.0004510937142185867 0.00016418032464571297 0.013608947396278381
v 0.0004800437018275261 -4.324812064027128e-09 0.013608946464955807
v 0.00045109333586879075 -0.00016418899758718908 0.013608947396278381
v 0.00036773463943973184 -0.0003085703938268125 0.013608946464955807
v 0.0002400216762907803 -0.0004157341900281608 0.013608946464955807
v 8.335854363394901e-05 -0.00047275505494326353 0.013608946464955807
v -8.335888560395688e-05 -0.00047275543329305947 0.013608946464955807
v -0.0002400220837444067 -0.0004157345392741263 0.013608946464955807
v -0.0003677351342048496 -0.00030857051024213433 0.013608946464955807
v -0.0005129650235176086 -0.00018670766439754516 0.013577887788414955
v 7.513700306998407e-28 -5.7801863989626057e-11 0.00037036530557088554
v 7.513700306998407e-28 -5.7801863989626057e-11 0.00037036530557088554
v 7.513700306998407e-28 -5.7801863989626057e-11 0.00037036530557088554
v 7.513700306998407e-28 -5.7801863989626057e-11 0.00037036530557088554
v -0.0002574741665739566 0.0014602092560380697 0.0
v 7.513700306998407e-28 -5.7801863989626057e-11 0.00037036530557088554
v 0.0002574744576122612 0.0014602092560380697 0.0
v 7.513700306998407e-28 -5.7801863989626057e-11 0.00037036530557088554
v 7.513700306998407e-28 -5.7801863989626057e-11 0.00037036530557088554
v 7.513700306998407e-28 -5.7801863989626057e-11 0.00037036530557088554
v 7.513700306998407e-28 -5.7801863989626057e-11 0.00037036530557088554
v 7.513700306998407e-28 -5.7801863989626057e-11 0.00037036530557088554
v 7.513700306998407e-28 -5.7801863989626057e-11 0.00037036530557088554
v 7.513700306998407e-28 -5.7801863989626057e-11 0.00037036530557088554
v 7.513700306998407e-28 -5.7801863989626057e-11 0.00037036530557088554
v 7.513700306998407e-28 -5.7801863989626057e-11 0.00037036530557088554
v 7.513700306998407e-28 -5.7801863989626057e-11 0.00037036530557088554
v 7.513700306998407e-28 -5.7801863989626057e-11 0.00037036530557088554
v 7.513700306998407e-28 -5.7801863989626057e-11 0.00037036530557088554
v 0.0002757017209660262 0.0015635811723768711 9.994312858907506e-05
v 0.00032241555163636804 0.001828507985919714 0.007952415384352207
v 0.0003151486744172871 0.0017872955650091171 0.008141848258674145
v 0.00028669173480011523 0.0016259080730378628 0.008404500782489777
v 0.00022955307213123888 0.0013018588069826365 0.008587921038269997
v 0.00014909057063050568 0.0008455335628241301 0.008798781782388687
v 0.00012128098751418293 0.0006878178683109581 0.00901981070637703
v 0.00013134939945302904 0.000744918710552156 0.01012025959789753
v -0.0004946194239892066 0.00018002641445491463 0.012269647791981697
v -0.00040321736014448106 0.0003383393050171435 0.012269647791981697
v -0.00026318151503801346 0.0004558434593491256 0.012269647791981697
v -9.140196198131889e-05 0.0005183661123737693 0.012269647791981697
v 0.00012994228745810688 0.0007369385566562414 0.010681889951229095
v 9.140201291302219e-05 0.0005183661123737693 0.012269647791981697
v 0.00026318151503801346 0.00045584343024529517 0.012269647791981697
v 0.00040321756387129426 0.00033833918860182166 0.012269647791981697
v 0.0004946194821968675 0.00018002638535108417 0.012269647791981697
v 0.0005263630300760269 -4.0960673741707865e-10 0.012269647791981697
v 0.0004946193075738847 -0.00018002720025833696 0.012269646860659122
v 0.00040321736014448106 -0.0003383400326129049 0.012269646860659122
v 0.0002631813404150307 -0.00045584409963339567 0.012269646860659122
v 9.140183829003945e-05 -0.0005183666944503784 0.012269646860659122
v -9.140213660430163e-05 -0.0005183666944503784 0.012269646860659122
v -0.00026318160234950483 -0.0004558439541142434 0.012269646860659122
v -0.00040321756387129426 -0.0003383398288860917 0.012269646860659122
v -0.0005263630300760269 -3.1653010768017964e-10 0.012269647791981697
v -0.0004946196568198502 -0.00018002692377194762 0.012269646860659122
v 0.0002400216762907803 -0.0004157341900281608 0.013608946464955807
v -0.0014827355043962598 0.0 0.0
v -0.001393315615132451 0.0005071254563517869 0.0
v -0.0011358411284163594 0.0009530839743092656 0.0
v -0.000741367693990469 0.0012840867275372148 0.0
v -0.0002574741665739566 0.0014602092560380697 0.0
v 0.0002574744576122612 0.0014602092560380697 0.0
v 0.0002574744576122612 0.0014602092560380697 0.0
v 0.0007413679268211126 0.001284086494706571 0.0
v 0.001135841361247003 0.0009530838578939438 0.0
v 0.001393315615132451 0.0005071252235211432 0.0
v 0.0014827355043962598 -2.8014751629612533e-10 0.0
v 0.001393315615132451 -0.0005071256309747696 0.0
v 0.0011358410120010376 -0.0009530842071399093 0.0
v 0.0007413674029521644 -0.0012840868439525366 0.0
v 0.0002574739046394825 -0.0014602094888687134 0.0
v -0.00025747469044290483 -0.0014602092560380697 0.0
v -0.0007413680432364345 -0.0012840863782912493 0.0
v -0.001135841477662325 -0.0009530835668556392 0.0
v -0.0013933157315477729 -0.0005071248742751777 0.0
v -0.0005263630300760269 -3.1653010768017964e-10 0.012269647791981697
v -0.0004946194239892066 0.00018002641445491463 0.012269647791981697
v -0.0004946194239892066 0.00018002641445491463 0.012269647791981697
v -0.00040321736014448106 0.0003383393050171435 0.012269647791981697
v -0.00040321736014448106 0.0003383393050171435 0.012269647791981697
v -0.00026318151503801346 0.0004558434593491256 0.012269647791981697
v -0.00026318151503801346 0.0004558434593491256 0.012269647791981697
v -9.140196198131889e-05 0.0005183661123737693 0.012269647791981697
v -9.140196198131889e-05 0.0005183661123737693 0.012269647791981697
v 9.140201291302219e-05 0.0005183661123737693 0.012269647791981697
v 9.140201291302219e-05 0.0005183661123737693 0.012269647791981697
v 0.00010162855323869735 0.0005763618974015117 0.012317103333771229
v 0.00026318151503801346 0.00045584343024529517 0.012269647791981697
v 0.00026318151503801346 0.00045584343024529517 0.012269647791981697
v 0.00040321756387129426 0.00033833918860182166 0.012269647791981697
v 0.00040321756387129426 0.00033833918860182166 0.012269647791981697
v 0.0004946194821968675 0.00018002638535108417 0.012269647791981697
v 0.0004946194821968675 0.00018002638535108417 0.012269647791981697
v 0.0005263630300760269 -4.0960673741707865e-10 0.012269647791981697
v 0.0005263630300760269 -4.0960673741707865e-10 0.012269647791981697
v 0.0004946193075738847 -0.00018002720025833696 0.012269646860659122
v 0.0004946193075738847 -0.00018002720025833696 0.012269646860659122
v 0.00040321736014448106 -0.0003383400326129049 0.012269646860659122
v 0.00040321736014448106 -0.0003383400326129049 0.012269646860659122
v 0.0002631813404150307 -0.00045584409963339567 0.012269646860659122
v 0.0002631813404150307 -0.00045584409963339567 0.012269646860659122
v 9.140183829003945e-05 -0.0005183666944503784 0.012269646860659122
v 9.140183829003945e-05 -0.0005183666944503784 0.012269646860659122
v -9.140213660430163e-05 -0.0005183666944503784 0.012269646860659122
v -9.140213660430163e-05 -0.0005183666944503784 0.012269646860659122
v -0.00026318160234950483 -0.0004558439541142434 0.012269646860659122
v -0.00026318160234950483 -0.0004558439541142434 0.012269646860659122
v -0.00040321756387129426 -0.0003383398288860917 0.012269646860659122
v -0.00040321756387129426 -0.0003383398288860917 0.012269646860659122
v -0.0004946196568198502 -0.00018002692377194762 0.012269646860659122
v -0.0004946196568198502 -0.00018002692377194762 0.012269646860659122
v -0.0005263630300760269 -3.1653010768017964e-10 0.012269647791981697
v 9.556681470712647e-05 0.0005419829394668341 0.013196609914302826
v -0.0005503470310941339 -3.177686558331061e-09 0.013196609914302826
v -0.0005171571392565966 0.00018822656420525163 0.013196609914302826
v -0.0004215902299620211 0.00035375310108065605 0.013196609914302826
v -0.0002751735155470669 0.0004766113997902721 0.013196609914302826
v -9.556673467159271e-05 0.0005419828812591732 0.013196609914302826
v 9.556681470712647e-05 0.0005419829394668341 0.013196609914302826
v 9.556681470712647e-05 0.0005419829394668341 0.013196609914302826
v 8.0072735727299e-05 0.0004541103553492576 0.01322877872735262
v 0.0002751735446508974 0.0004766113997902721 0.013196609914302826
v 0.0004215904336888343 0.00035375295556150377 0.013196609914302826
v 0.0005171570810489357 0.00018822653510142118 0.013196609914302826
v 0.0005503470893017948 -3.2750044898222086e-09 0.013196609914302826
v 0.0005171569064259529 -0.00018823309801518917 0.013196608982980251
v 0.0004215902299620211 -0.00035375956213101745 0.013196608982980251
v 0.00027517337002791464 -0.00047661768621765077 0.013196608982980251
v 9.556663280818611e-05 -0.0005419892258942127 0.013196608982980251
v -9.556691657053307e-05 -0.0005419892841018736 0.013196608982980251
v -0.00027517363196238875 -0.00047661762800998986 0.013196608982980251
v -0.0004215903754811734 -0.0003537593293003738 0.013196608982980251
v -0.0005171572556719184 -0.00018823283608071506 0.013196608982980251
v -0.00046112024574540555 -4.499900452259453e-09 0.01322877872735262
v -0.0004333113902248442 0.0001577078946866095 0.01322877872735262
v -0.00035323857446201146 0.00029639792046509683 0.01322877872735262
v -0.00023056012287270278 0.00039933741209097207 0.01322877872735262
v -8.007267024368048e-05 0.0004541103553492576 0.01322877872735262
v 8.0072735727299e-05 0.0004541103553492576 0.01322877872735262
v 8.0072735727299e-05 0.0004541103553492576 0.01322877872735262
v 9.479212167207152e-05 0.0005375895416364074 0.013258248567581177
v 0.00023056015197653323 0.00039933741209097207 0.01322877872735262
v 0.00035323871998116374 0.00029639777494594455 0.01322877872735262
v 0.0004333113320171833 0.00015770785103086382 0.01322877872735262
v 0.00046112030395306647 -4.581440116169233e-09 0.01322877872735262
v 0.000433311186498031 -0.00015771704784128815 0.013228777796030045
v 0.00035323857446201146 -0.0002964070299640298 0.013228777796030045
v 0.00023056000645738095 -0.0003993463469669223 0.013228777796030045
v 8.007258293218911e-05 -0.0004541193484328687 0.013228777796030045
v -8.007283031474799e-05 -0.0004541193484328687 0.013228777796030045
v -0.00023056022473610938 -0.0003993463178630918 0.013228777796030045
v -0.0003532386908773333 -0.0002964068262372166 0.013228777796030045
v -0.0004333114775363356 -0.00015771682956255972 0.013228777796030045
v -0.0005458857049234211 -2.914473995474509e-09 0.013258248567581177
v -0.0005129648488946259 0.0001867009705165401 0.013258248567581177
v -0.00041817265446297824 0.00035088564618490636 0.013258248567581177
v -0.00027294285246171057 0.00047274804092012346 0.013258248567581177
v -9.479201980866492e-05 0.0005375895416364074 0.013258248567581177
v 9.479212167207152e-05 0.0005375895416364074 0.013258248567581177
v 9.479212167207152e-05 0.0005375895416364074 0.013258248567581177
v 9.479212167207152e-05 0.0005375886103138328 0.01357788871973753
v 0.00027294288156554103 0.00047274804092012346 0.013258248567581177
v 0.000418172829085961 0.0003508855006657541 0.013258248567581177
v 0.0005129648488946259 0.0001867009123088792 0.013258248567581177
v 0.0005458857631310821 -3.011003224528963e-09 0.013258248567581177
v 0.0005129646160639822 -0.00018670698045752943 0.013258246704936028
v 0.0004181726835668087 -0.00035089164157398045 0.013258246704936028
v 0.0002729427069425583 -0.000472753745270893 0.013258246704936028
v 9.479192522121593e-05 -0.0005375954788178205 0.013258246704936028
v -9.479220898356289e-05 -0.0005375954788178205 0.013258246704936028
v -0.00027294293977320194 -0.0004727537161670625 0.013258246704936028
v -0.00041817277087830007 -0.0003508914087433368 0.013258246704936028
v -0.0005129650235176086 -0.0001867067039711401 0.013258246704936028
v -0.0005129648488946259 0.0001866999955382198 0.01357788871973753
v -0.0005458857049234211 -3.880904930753104e-09 0.01357788871973753
v -0.00041817265446297824 0.0003508846857585013 0.01357788871973753
v -0.00027294285246171057 0.0004727470804937184 0.01357788871973753
v -9.479201980866492e-05 0.0005375886103138328 0.01357788871973753
v 9.479212167207152e-05 0.0005375886103138328 0.01357788871973753
v 8.335884194821119e-05 0.0004727467312477529 0.013608947396278381
v 0.00027294288156554103 0.0004727470804937184 0.01357788871973753
v 9.479212167207152e-05 0.0005375886103138328 0.01357788871973753
v 0.000418172829085961 0.000350884540239349 0.01357788871973753
v 0.0003677351342048496 0.0003085619246121496 0.013608947396278381
v 0.0005129648488946259 0.00018669996643438935 0.01357788871973753
v 0.0005458857631310821 -3.977433937762953e-09 0.01357788871973753
v 0.0004800437018275261 -4.324812064027128e-09 0.013608946464955807
v 0.0005129646160639822 -0.00018670792633201927 0.013577887788414955
v 0.00045109333586879075 -0.00016418899758718908 0.013608947396278381
v 0.0004181726835668087 -0.0003508926020003855 0.013577887788414955
v 0.0002729427069425583 -0.00047275470569729805 0.013577887788414955
v 9.479192522121593e-05 -0.0005375964683480561 0.013577887788414955
v -9.479220898356289e-05 -0.0005375964683480561 0.013577887788414955
v -8.335888560395688e-05 -0.00047275543329305947 0.013608946464955807
v -0.00027294293977320194 -0.0004727546765934676 0.013577887788414955
v -0.0002400220837444067 -0.0004157345392741263 0.013608946464955807
v -0.00041817277087830007 -0.0003508923982735723 0.013577887788414955
v -0.0003677351342048496 -0.00030857051024213433 0.013608946464955807
v -0.0005129650235176086 -0.00018670766439754516 0.013577887788414955
g submesh_0
f 183 1 182
f 184 308 183
f 185 309 184
f 186 310 185
f 187 311 312
f 188 313 314
f 189 315 188
f 190 316 189
f 191 317 190
f 192 318 191
f 193 319 192
f 194 320 193
f 195 321 194
f 196 322 195
f 197 323 196
f 198 324 197
f 199 325 198
f 182 326 199
f 356 355 3
f 3 355 2
f 3 2 129
f 129 2 128
f 129 128 21
f 21 128 20
f 21 20 111
f 111 20 110
f 111 110 39
f 39 110 38
f 39 38 147
f 147 38 146
f 147 146 57
f 57 146 56
f 57 56 165
f 165 56 164
f 165 164 75
f 75 164 74
f 75 74 93
f 93 74 92
f 357 356 4
f 4 356 3
f 4 3 130
f 130 3 129
f 130 129 22
f 22 129 21
f 22 21 112
f 112 21 111
f 112 111 40
f 40 111 39
f 40 39 148
f 148 39 147
f 148 147 58
f 58 147 57
f 58 57 166
f 166 57 165
f 166 165 76
f 76 165 75
f 76 75 94
f 94 75 335
f 358 357 5
f 5 357 4
f 5 4 131
f 131 4 130
f 131 130 23
f 23 130 22
f 23 22 113
f 113 22 112
f 113 112 41
f 41 112 40
f 41 40 149
f 149 40 148
f 149 148 59
f 59 148 58
f 59 58 167
f 167 58 166
f 167 166 77
f 77 166 76
f 77 76 95
f 95 76 336
f 359 358 6
f 6 358 5
f 6 5 132
f 132 5 131
f 132 131 24
f 24 131 23
f 24 23 114
f 114 23 113
f 114 113 42
f 42 113 41
f 42 41 150
f 150 41 149
f 150 149 60
f 60 149 59
f 60 59 168
f 168 59 167
f 168 167 78
f 78 167 77
f 78 77 96
f 96 77 337
f 360 359 7
f 7 359 6
f 7 6 133
f 133 6 132
f 133 132 25
f 25 132 24
f 25 24 115
f 115 24 114
f 115 114 43
f 43 114 42
f 43 42 151
f 151 42 150
f 151 150 61
f 61 150 60
f 61 60 169
f 169 60 168
f 169 168 79
f 79 168 78
f 79 78 97
f 97 78 338
f 362 361 8
f 8 361 327
f 8 327 134
f 134 327 328
f 134 328 26
f 26 328 329
f 26 329 116
f 116 329 330
f 116 330 44
f 44 330 331
f 44 331 152
f 152 331 332
f 152 332 62
f 62 332 333
f 62 333 170
f 170 333 334
f 170 334 80
f 80 334 339
f 80 339 98
f 98 339 340
f 363 362 9
f 9 362 8
f 9 8 135
f 135 8 134
f 135 134 27
f 27 134 26
f 27 26 117
f 117 26 116
f 117 116 45
f 45 116 44
f 45 44 153
f 153 44 152
f 153 152 63
f 63 152 62
f 63 62 171
f 171 62 170
f 171 170 81
f 81 170 80
f 81 80 99
f 99 80 341
f 364 363 10
f 10 363 9
f 10 9 136
f 136 9 135
f 136 135 28
f 28 135 27
f 28 27 118
f 118 27 117
f 118 117 46
f 46 117 45
f 46 45 154
f 154 45 153
f 154 153 64
f 64 153 63
f 64 63 172
f 172 63 171
f 172 171 82
f 82 171 81
f 82 81 100
f 100 81 342
f 365 364 11
f 11 364 10
f 11 10 137
f 137 10 136
f 137 136 29
f 29 136 28
f 29 28 119
f 119 28 118
f 119 118 47
f 47 118 46
f 47 46 155
f 155 46 154
f 155 154 65
f 65 154 64
f 65 64 173
f 173 64 172
f 173 172 83
f 83 172 82
f 83 82 101
f 101 82 343
f 366 365 12
f 12 365 11
f 12 11 138
f 138 11 137
f 138 137 30
f 30 137 29
f 30 29 120
f 120 29 119
f 120 119 48
f 48 119 47
f 48 47 156
f 156 47 155
f 156 155 66
f 66 155 65
f 66 65 174
f 174 65 173
f 174 173 84
f 84 173 83
f 84 83 102
f 102 83 344
f 367 366 13
f 13 366 12
f 13 12 139
f 139 12 138
f 139 138 31
f 31 138 30
f 31 30 121
f 121 30 120
f 121 120 49
f 49 120 48
f 49 48 157
f 157 48 156
f 157 156 67
f 67 156 66
f 67 66 175
f 175 66 174
f 175 174 85
f 85 174 84
f 85 84 103
f 103 84 345
f 368 367 14
f 14 367 13
f 14 13 140
f 140 13 139
f 140 139 32
f 32 139 31
f 32 31 122
f 122 31 121
f 122 121 50
f 50 121 49
f 50 49 158
f 158 49 157
f 158 157 68
f 68 157 67
f 68 67 176
f 176 67 175
f 176 175 86
f 86 175 85
f 86 85 104
f 104 85 346
f 369 368 15
f 15 368 14
f 15 14 141
f 141 14 140
f 141 140 33
f 33 140 32
f 33 32 123
f 123 32 122
f 123 122 51
f 51 122 50
f 51 50 159
f 159 50 158
f 159 158 69
f 69 158 68
f 69 68 177
f 177 68 176
f 177 176 87
f 87 176 86
f 87 86 105
f 105 86 347
f 370 369 16
f 16 369 15
f 16 15 142
f 142 15 141
f 142 141 34
f 34 141 33
f 34 33 124
f 124 33 123
f 124 123 52
f 52 123 51
f 52 51 160
f 160 51 159
f 160 159 70
f 70 159 69
f 70 69 178
f 178 69 177
f 178 177 88
f 88 177 87
f 88 87 106
f 106 87 348
f 371 370 17
f 17 370 16
f 17 16 143
f 143 16 142
f 143 142 35
f 35 142 34
f 35 34 125
f 125 34 124
f 125 124 53
f 53 124 52
f 53 52 161
f 161 52 160
f 161 160 71
f 71 160 70
f 71 70 179
f 179 70 178
f 179 178 89
f 89 178 88
f 89 88 107
f 107 88 349
f 372 371 18
f 18 371 17
f 18 17 144
f 144 17 143
f 144 143 36
f 36 143 35
f 36 35 126
f 126 35 125
f 126 125 54
f 54 125 53
f 54 53 162
f 162 53 161
f 162 161 72
f 72 161 71
f 72 71 180
f 180 71 179
f 180 179 90
f 90 179 89
f 90 89 108
f 108 89 350
f 373 372 19
f 19 372 18
f 19 18 145
f 145 18 144
f 145 144 37
f 37 144 36
f 37 36 127
f 127 36 126
f 127 126 55
f 55 126 54
f 55 54 163
f 163 54 162
f 163 162 73
f 73 162 72
f 73 72 181
f 181 72 180
f 181 180 91
f 91 180 90
f 91 90 109
f 109 90 351
f 355 373 2
f 2 373 19
f 2 19 128
f 128 19 145
f 128 145 20
f 20 145 37
f 20 37 110
f 110 37 127
f 110 127 38
f 38 127 55
f 38 55 146
f 146 55 163
f 146 163 56
f 56 163 73
f 56 73 164
f 164 73 181
f 164 181 74
f 74 181 91
f 74 91 352
f 352 91 353
f 299 298 300
f 300 298 297
f 300 297 301
f 301 297 296
f 301 296 354
f 354 296 295
f 218 219 200
f 200 219 201
f 200 201 374
f 374 201 375
f 219 220 201
f 201 220 202
f 201 202 376
f 376 202 377
f 220 221 202
f 202 221 203
f 202 203 378
f 378 203 379
f 221 222 203
f 203 222 204
f 203 204 380
f 380 204 381
f 222 223 204
f 204 223 205
f 204 205 382
f 382 205 383
f 411 224 385
f 385 224 206
f 385 206 384
f 384 206 386
f 224 225 206
f 206 225 207
f 206 207 387
f 387 207 388
f 225 226 207
f 207 226 208
f 207 208 389
f 389 208 390
f 226 227 208
f 208 227 209
f 208 209 391
f 391 209 392
f 227 228 209
f 209 228 210
f 209 210 393
f 393 210 394
f 228 229 210
f 210 229 211
f 210 211 395
f 395 211 396
f 229 230 211
f 211 230 212
f 211 212 397
f 397 212 398
f 230 231 212
f 212 231 213
f 212 213 399
f 399 213 400
f 231 232 213
f 213 232 214
f 213 214 401
f 401 214 402
f 232 233 214
f 214 233 215
f 214 215 403
f 403 215 404
f 233 234 215
f 215 234 216
f 215 216 405
f 405 216 406
f 234 235 216
f 216 235 217
f 216 217 407
f 407 217 408
f 235 218 217
f 217 218 200
f 217 200 409
f 409 200 410
f 418 419 242
f 418 242 420
f 420 242 243
f 420 243 421
f 421 243 244
f 421 244 422
f 422 244 245
f 422 245 423
f 423 245 246
f 423 246 424
f 424 246 247
f 424 247 425
f 425 247 248
f 425 248 426
f 426 248 249
f 426 249 427
f 427 249 250
f 427 250 428
f 428 250 251
f 428 251 429
f 429 251 252
f 429 252 430
f 430 252 253
f 430 253 431
f 431 253 236
f 431 236 412
f 412 236 237
f 412 237 413
f 413 237 238
f 413 238 414
f 414 238 239
f 414 239 415
f 415 239 240
f 415 240 416
f 416 240 241
f 416 241 417
f 438 439 260
f 438 260 440
f 440 260 261
f 440 261 441
f 441 261 262
f 441 262 442
f 442 262 263
f 442 263 443
f 443 263 264
f 443 264 444
f 444 264 265
f 444 265 445
f 445 265 266
f 445 266 446
f 446 266 267
f 446 267 447
f 447 267 268
f 447 268 448
f 448 268 269
f 448 269 449
f 449 269 270
f 449 270 450
f 450 270 271
f 450 271 451
f 451 271 254
f 451 254 432
f 432 254 255
f 432 255 433
f 433 255 256
f 433 256 434
f 434 256 257
f 434 257 435
f 435 257 258
f 435 258 436
f 436 258 259
f 436 259 437
f 458 459 278
f 458 278 460
f 460 278 279
f 460 279 461
f 461 279 280
f 461 280 462
f 462 280 281
f 462 281 463
f 463 281 282
f 463 282 464
f 464 282 283
f 464 283 465
f 465 283 284
f 465 284 466
f 466 284 285
f 466 285 467
f 467 285 286
f 467 286 468
f 468 286 287
f 468 287 469
f 469 287 288
f 469 288 470
f 470 288 307
f 470 307 471
f 471 307 290
f 471 290 452
f 452 290 273
f 452 273 453
f 453 273 274
f 453 274 454
f 454 274 275
f 454 275 455
f 455 275 276
f 455 276 456
f 456 276 277
f 456 277 457
f 295 477 294
f 294 477 476
f 294 476 293
f 293 476 475
f 293 475 292
f 292 475 474
f 292 474 291
f 291 474 472
f 291 472 272
f 272 472 473
f 272 473 289
f 289 473 497
f 289 497 496
f 496 497 495
f 496 495 494
f 494 495 493
f 494 493 492
f 492 493 491
f 492 491 303
f 303 491 490
f 303 490 302
f 302 490 489
f 302 489 301
f 301 489 488
f 301 488 487
f 487 488 486
f 487 486 485
f 485 486 484
f 485 484 298
f 298 484 483
f 298 483 482
f 482 483 481
f 482 481 296
f 296 481 479
f 296 479 478
f 478 479 480
f 272 289 291
f 291 289 306
f 291 306 292
f 292 306 305
f 292 305 293
f 293 305 304
f 293 304 294
f 294 304 303
f 294 303 295
f 295 303 302
