# 05
v -0.19102595746517181 0.0048507689498364925 -0.10097404569387436
v -0.11369413137435913 0.08202596753835678 -0.10097404569387436
v 0.057974040508270264 0.08202596753835678 -0.10097404569387436
v 0.057974040508270264 0.17797406017780304 -0.10097404569387436
v -0.1659165918827057 0.17797406017780304 -0.10097404569387436
v -0.1659165918827057 0.27802595496177673 -0.10097404569387436
v 0.18102595210075378 0.27802595496177673 -0.10097404569387436
v 0.18102595210075378 -0.0030259513296186924 -0.10097404569387436
v -0.06197405606508255 -0.0030259513296186924 -0.10097404569387436
v -0.06197405606508255 -0.1719740331172943 -0.10097404569387436
v 0.06597403436899185 -0.1719740331172943 -0.10097404569387436
v 0.06597403436899185 -0.08897403627634048 -0.10097404569387436
v 0.19102595746517181 -0.08897403627634048 -0.10097404569387436
v 0.19102595746517181 -0.18889743089675903 -0.10097404569387436
v 0.10189744085073471 -0.27802595496177673 -0.10097404569387436
v -0.0999845564365387 -0.27802595496177673 -0.10097404569387436
v -0.19102595746517181 -0.18615397810935974 -0.10097404569387436
v -0.21700000762939453 0.015625 -0.07499999552965164
v -0.12443751096725464 0.1080000102519989 -0.07499999552965164
v 0.03199999779462814 0.1080000102519989 -0.07499999552965164
v 0.03199999779462814 0.15200002491474152 -0.07499999552965164
v -0.1918906420469284 0.15200002491474152 -0.07499999552965164
v -0.1918906420469284 0.30399999022483826 -0.07499999552965164
v 0.2070000022649765 0.30399999022483826 -0.07499999552965164
v 0.2070000022649765 -0.028999995440244675 -0.07499999552965164
v -0.03600001335144043 -0.028999995440244675 -0.07499999552965164
v -0.03600001335144043 -0.1459999978542328 -0.07499999552965164
v 0.03999998793005943 -0.1459999978542328 -0.07499999552965164
v 0.03999998793005943 -0.06299999356269836 -0.07499999552965164
v 0.21700000762939453 -0.06299999356269836 -0.07499999552965164
v 0.21700000762939453 -0.19965624809265137 -0.07499999552965164
v 0.11265623569488525 -0.30399999022483826 -0.07499999552965164
v -0.11081251502037048 -0.30399999022483826 -0.07499999552965164
v -0.21700000762939453 -0.19684375822544098 -0.07499999552965164
v -0.21700000762939453 0.015625 0.07499999552965164
v -0.12443751096725464 0.1080000102519989 0.07499999552965164
v 0.03199999779462814 0.1080000102519989 0.07499999552965164
v 0.03199999779462814 0.15200002491474152 0.07499999552965164
v -0.1918906420469284 0.15200002491474152 0.07499999552965164
v -0.1918906420469284 0.30399999022483826 0.07499999552965164
v 0.2070000022649765 0.30399999022483826 0.07499999552965164
v 0.2070000022649765 -0.028999995440244675 0.07499999552965164
v -0.03600001335144043 -0.028999995440244675 0.07499999552965164
v -0.03600001335144043 -0.1459999978542328 0.07499999552965164
v 0.03999998793005943 -0.1459999978542328 0.07499999552965164
v 0.03999998793005943 -0.06299999356269836 0.07499999552965164
v 0.21700000762939453 -0.06299999356269836 0.07499999552965164
v 0.21700000762939453 -0.19965624809265137 0.07499999552965164
v 0.11265623569488525 -0.30399999022483826 0.07499999552965164
v -0.11081251502037048 -0.30399999022483826 0.07499999552965164
v -0.21700000762939453 -0.19684375822544098 0.07499999552965164
v -0.19102595746517181 0.0048507689498364925 0.10097404569387436
v -0.11369413137435913 0.08202596753835678 0.10097404569387436
v 0.057974040508270264 0.08202596753835678 0.10097404569387436
v 0.057974040508270264 0.17797406017780304 0.10097404569387436
v -0.1659165918827057 0.17797406017780304 0.10097404569387436
v -0.1659165918827057 0.27802595496177673 0.10097404569387436
v 0.18102595210075378 0.27802595496177673 0.10097404569387436
v 0.18102595210075378 -0.0030259513296186924 0.10097404569387436
v -0.06197405606508255 -0.0030259513296186924 0.10097404569387436
v -0.06197405606508255 -0.1719740331172943 0.10097404569387436
v 0.06597403436899185 -0.1719740331172943 0.10097404569387436
v 0.06597403436899185 -0.08897403627634048 0.10097404569387436
v 0.19102595746517181 -0.08897403627634048 0.10097404569387436
v 0.19102595746517181 -0.18889743089675903 0.10097404569387436
v 0.10189744085073471 -0.27802595496177673 0.10097404569387436
v -0.0999845564365387 -0.27802595496177673 0.10097404569387436
v -0.19102595746517181 -0.18615397810935974 0.10097404569387436
v -0.12443751096725464 0.1080000102519989 -0.07499999552965164
v -0.12443751096725464 0.1080000102519989 0.07499999552965164
v 0.03199999779462814 0.1080000102519989 -0.07499999552965164
v 0.03199999779462814 0.1080000102519989 0.07499999552965164
v 0.03199999779462814 0.15200002491474152 -0.07499999552965164
v 0.03199999779462814 0.15200002491474152 0.07499999552965164
v -0.1918906420469284 0.15200002491474152 -0.07499999552965164
v -0.1918906420469284 0.15200002491474152 0.07499999552965164
v -0.1918906420469284 0.30399999022483826 -0.07499999552965164
v -0.1918906420469284 0.30399999022483826 0.07499999552965164
v 0.2070000022649765 0.30399999022483826 -0.07499999552965164
v 0.2070000022649765 0.30399999022483826 0.07499999552965164
v 0.2070000022649765 -0.028999995440244675 -0.07499999552965164
v 0.2070000022649765 -0.028999995440244675 0.07499999552965164
v -0.03600001335144043 -0.028999995440244675 -0.07499999552965164
v -0.03600001335144043 -0.028999995440244675 0.07499999552965164
v -0.03600001335144043 -0.1459999978542328 -0.07499999552965164
v -0.03600001335144043 -0.1459999978542328 0.07499999552965164
v 0.03999998793005943 -0.1459999978542328 -0.07499999552965164
v 0.03999998793005943 -0.1459999978542328 0.07499999552965164
v 0.03999998793005943 -0.06299999356269836 -0.07499999552965164
v 0.03999998793005943 -0.06299999356269836 0.07499999552965164
v 0.21700000762939453 -0.06299999356269836 -0.07499999552965164
v 0.21700000762939453 -0.06299999356269836 0.07499999552965164
v 0.21700000762939453 -0.19965624809265137 -0.07499999552965164
v 0.21700000762939453 -0.19965624809265137 0.07499999552965164
v 0.11265623569488525 -0.30399999022483826 -0.07499999552965164
v 0.11265623569488525 -0.30399999022483826 0.07499999552965164
v -0.11081251502037048 -0.30399999022483826 -0.07499999552965164
v -0.11081251502037048 -0.30399999022483826 0.07499999552965164
v -0.21700000762939453 0.015625 -0.07499999552965164
v -0.21700000762939453 0.015625 0.07499999552965164
v -0.12443751096725464 0.1080000102519989 -0.07499999552965164
v -0.19102595746517181 0.0048507689498364925 -0.10097404569387436
v -0.21700000762939453 0.015625 -0.07499999552965164
v -0.11369413137435913 0.08202596753835678 -0.10097404569387436
v 0.03199999779462814 0.1080000102519989 -0.07499999552965164
v 0.057974040508270264 0.08202596753835678 -0.10097404569387436
v 0.03199999779462814 0.15200002491474152 -0.07499999552965164
v 0.057974040508270264 0.08202596753835678 -0.10097404569387436
v 0.03199999779462814 0.1080000102519989 -0.07499999552965164
v 0.057974040508270264 0.17797406017780304 -0.10097404569387436
v -0.1918906420469284 0.15200002491474152 -0.07499999552965164
v 0.057974040508270264 0.17797406017780304 -0.10097404569387436
v 0.03199999779462814 0.15200002491474152 -0.07499999552965164
v -0.1659165918827057 0.17797406017780304 -0.10097404569387436
v -0.1918906420469284 0.30399999022483826 -0.07499999552965164
v -0.1659165918827057 0.17797406017780304 -0.10097404569387436
v -0.1918906420469284 0.15200002491474152 -0.07499999552965164
v -0.1659165918827057 0.27802595496177673 -0.10097404569387436
v 0.2070000022649765 0.30399999022483826 -0.07499999552965164
v -0.1659165918827057 0.27802595496177673 -0.10097404569387436
v -0.1918906420469284 0.30399999022483826 -0.07499999552965164
v 0.18102595210075378 0.27802595496177673 -0.10097404569387436
v 0.18102595210075378 0.27802595496177673 -0.10097404569387436
v 0.18102595210075378 -0.0030259513296186924 -0.10097404569387436
v -0.03600001335144043 -0.028999995440244675 -0.07499999552965164
v 0.18102595210075378 -0.0030259513296186924 -0.10097404569387436
v 0.2070000022649765 -0.028999995440244675 -0.07499999552965164
v -0.06197405606508255 -0.0030259513296186924 -0.10097404569387436
v -0.06197405606508255 -0.0030259513296186924 -0.10097404569387436
v -0.06197405606508255 -0.1719740331172943 -0.10097404569387436
v 0.03999998793005943 -0.1459999978542328 -0.07499999552965164
v -0.06197405606508255 -0.1719740331172943 -0.10097404569387436
v -0.03600001335144043 -0.1459999978542328 -0.07499999552965164
v 0.06597403436899185 -0.1719740331172943 -0.10097404569387436
v 0.03999998793005943 -0.06299999356269836 -0.07499999552965164
v 0.06597403436899185 -0.1719740331172943 -0.10097404569387436
v 0.03999998793005943 -0.1459999978542328 -0.07499999552965164
v 0.06597403436899185 -0.08897403627634048 -0.10097404569387436
v 0.21700000762939453 -0.06299999356269836 -0.07499999552965164
v 0.06597403436899185 -0.08897403627634048 -0.10097404569387436
v 0.03999998793005943 -0.06299999356269836 -0.07499999552965164
v 0.19102595746517181 -0.08897403627634048 -0.10097404569387436
v 0.21700000762939453 -0.19965624809265137 -0.07499999552965164
v 0.19102595746517181 -0.08897403627634048 -0.10097404569387436
v 0.19102595746517181 -0.18889743089675903 -0.10097404569387436
v 0.11265623569488525 -0.30399999022483826 -0.07499999552965164
v 0.21700000762939453 -0.19965624809265137 -0.07499999552965164
v 0.10189744085073471 -0.27802595496177673 -0.10097404569387436
v -0.11081251502037048 -0.30399999022483826 -0.07499999552965164
v 0.11265623569488525 -0.30399999022483826 -0.07499999552965164
v -0.0999845564365387 -0.27802595496177673 -0.10097404569387436
v -0.21700000762939453 -0.19684375822544098 -0.07499999552965164
v -0.11081251502037048 -0.30399999022483826 -0.07499999552965164
v -0.19102595746517181 -0.18615397810935974 -0.10097404569387436
v -0.21700000762939453 0.015625 -0.07499999552965164
v -0.21700000762939453 -0.19684375822544098 -0.07499999552965164
v -0.21700000762939453 0.015625 0.07499999552965164
v -0.11369413137435913 0.08202596753835678 0.10097404569387436
v -0.12443751096725464 0.1080000102519989 0.07499999552965164
v -0.19102595746517181 0.0048507689498364925 0.10097404569387436
v -0.12443751096725464 0.1080000102519989 0.07499999552965164
v 0.057974040508270264 0.08202596753835678 0.10097404569387436
v 0.03199999779462814 0.1080000102519989 0.07499999552965164
v 0.057974040508270264 0.17797406017780304 0.10097404569387436
v 0.057974040508270264 0.08202596753835678 0.10097404569387436
v 0.03199999779462814 0.15200002491474152 0.07499999552965164
v -0.1659165918827057 0.17797406017780304 0.10097404569387436
v -0.1918906420469284 0.15200002491474152 0.07499999552965164
v 0.057974040508270264 0.17797406017780304 0.10097404569387436
v -0.1659165918827057 0.27802595496177673 0.10097404569387436
v -0.1659165918827057 0.17797406017780304 0.10097404569387436
v -0.1918906420469284 0.30399999022483826 0.07499999552965164
v 0.18102595210075378 0.27802595496177673 0.10097404569387436
v 0.2070000022649765 0.30399999022483826 0.07499999552965164
v -0.1659165918827057 0.27802595496177673 0.10097404569387436
v 0.2070000022649765 0.30399999022483826 0.07499999552965164
v 0.18102595210075378 -0.0030259513296186924 0.10097404569387436
v 0.2070000022649765 -0.028999995440244675 0.07499999552965164
v 0.18102595210075378 0.27802595496177673 0.10097404569387436
v 0.2070000022649765 -0.028999995440244675 0.07499999552965164
v -0.06197405606508255 -0.0030259513296186924 0.10097404569387436
v -0.03600001335144043 -0.028999995440244675 0.07499999552965164
v 0.18102595210075378 -0.0030259513296186924 0.10097404569387436
v -0.03600001335144043 -0.028999995440244675 0.07499999552965164
v -0.06197405606508255 -0.1719740331172943 0.10097404569387436
v -0.03600001335144043 -0.1459999978542328 0.07499999552965164
v -0.06197405606508255 -0.0030259513296186924 0.10097404569387436
v -0.03600001335144043 -0.1459999978542328 0.07499999552965164
v 0.06597403436899185 -0.1719740331172943 0.10097404569387436
v 0.03999998793005943 -0.1459999978542328 0.07499999552965164
v -0.06197405606508255 -0.1719740331172943 0.10097404569387436
v 0.06597403436899185 -0.08897403627634048 0.10097404569387436
v 0.06597403436899185 -0.1719740331172943 0.10097404569387436
v 0.03999998793005943 -0.06299999356269836 0.07499999552965164
v 0.19102595746517181 -0.08897403627634048 0.10097404569387436
v 0.21700000762939453 -0.06299999356269836 0.07499999552965164
v 0.06597403436899185 -0.08897403627634048 0.10097404569387436
v 0.21700000762939453 -0.06299999356269836 0.07499999552965164
v 0.19102595746517181 -0.18889743089675903 0.10097404569387436
v 0.21700000762939453 -0.19965624809265137 0.07499999552965164
v 0.19102595746517181 -0.08897403627634048 0.10097404569387436
v 0.21700000762939453 -0.19965624809265137 0.07499999552965164
v 0.10189744085073471 -0.27802595496177673 0.10097404569387436
v 0.11265623569488525 -0.30399999022483826 0.07499999552965164
v 0.21700000762939453 -0.19965624809265137 0.07499999552965164
v -0.0999845564365387 -0.27802595496177673 0.10097404569387436
v -0.11081251502037048 -0.30399999022483826 0.07499999552965164
v -0.11081251502037048 -0.30399999022483826 0.07499999552965164
v -0.19102595746517181 -0.18615397810935974 0.10097404569387436
v -0.21700000762939453 0.015625 0.07499999552965164
g submesh_0
f 147 146 145
f 148 145 32
f 199 203 205
f 36 19 35
f 35 19 18
f 37 20 70
f 70 20 69
f 164 38 72
f 72 38 21
f 72 21 71
f 39 22 74
f 74 22 73
f 170 40 76
f 76 40 23
f 76 23 75
f 41 24 78
f 78 24 77
f 123 79 25
f 25 79 80
f 25 80 42
f 43 26 82
f 82 26 81
f 129 83 27
f 27 83 84
f 27 84 44
f 45 28 86
f 86 28 85
f 192 46 88
f 88 46 29
f 88 29 87
f 47 30 90
f 90 30 89
f 48 31 92
f 92 31 91
f 49 32 94
f 94 32 93
f 50 33 96
f 96 33 95
f 100 99 51
f 51 99 34
f 51 34 98
f 98 34 97
f 67 66 62
f 62 66 65
f 62 65 63
f 63 65 64
f 60 59 54
f 54 59 58
f 54 58 55
f 55 58 57
f 55 57 56
f 15 16 11
f 15 11 14
f 14 11 12
f 14 12 13
f 5 6 4
f 4 6 7
f 4 7 3
f 3 7 8
f 3 8 9
f 105 106 104
f 105 104 101
f 101 104 102
f 101 102 103
f 109 107 108
f 108 107 110
f 113 111 112
f 112 111 114
f 117 115 116
f 116 115 118
f 121 119 120
f 120 119 122
f 124 123 25
f 127 125 126
f 126 125 128
f 130 129 27
f 133 131 132
f 132 131 134
f 137 135 136
f 136 135 138
f 141 139 140
f 140 139 142
f 91 143 144
f 144 143 145
f 150 149 148
f 148 149 151
f 153 152 151
f 151 152 154
f 156 155 154
f 154 155 102
f 159 157 158
f 158 157 160
f 163 161 162
f 162 161 158
f 165 164 72
f 168 166 167
f 167 166 169
f 171 170 76
f 174 172 173
f 173 172 175
f 178 176 177
f 177 176 179
f 182 180 181
f 181 180 183
f 186 184 185
f 185 184 187
f 190 188 189
f 189 188 191
f 193 192 88
f 196 194 195
f 195 194 197
f 200 198 199
f 199 198 201
f 202 203 204
f 204 203 206
f 204 206 207
f 160 210 51
f 160 51 209
f 209 51 208
f 209 208 206
f 52 68 61
f 61 68 67
f 61 67 62
f 54 53 60
f 60 53 52
f 60 52 61
f 11 16 10
f 10 16 17
f 10 17 1
f 10 1 9
f 9 1 2
f 9 2 3
