# round_center
v 1.625 -0.44999998807907104 0.0
v 1.2999999523162842 -0.44999998807907104 0.0
v 0.9749999642372131 -0.44999998807907104 0.0
v 0.6499999761581421 -0.44999998807907104 0.0
v 0.32499998807907104 -0.44999998807907104 0.0
v 0.0 -0.44999998807907104 0.0
v -0.32499998807907104 -0.44999998807907104 0.0
v -0.6499999761581421 -0.44999998807907104 0.0
v -0.9749999642372131 -0.44999998807907104 0.0
v -1.2999999523162842 -0.44999998807907104 0.0
v -1.625 -0.44999998807907104 0.0
v 1.625 0.44999998807907104 0.0
v 1.2999999523162842 0.44999998807907104 0.0
v 0.9749999642372131 0.44999998807907104 0.0
v 0.6499999761581421 0.44999998807907104 0.0
v 0.32499998807907104 0.44999998807907104 0.0
v 0.0 0.44999998807907104 0.0
v -0.32499998807907104 0.44999998807907104 0.0
v -0.6499999761581421 0.44999998807907104 0.0
v -0.9749999642372131 0.44999998807907104 0.0
v -1.2999999523162842 0.44999998807907104 0.0
v -1.625 0.44999998807907104 0.0
g submesh_0
f 22 11 10
f 22 10 21
f 21 10 9
f 21 9 20
f 20 9 8
f 20 8 19
f 19 8 7
f 19 7 18
f 18 7 6
f 18 6 17
f 17 6 5
f 17 5 16
f 16 5 4
f 16 4 15
f 15 4 3
f 15 3 14
f 14 3 2
f 14 2 13
f 13 2 1
f 13 1 12
