# bobble_head_00
v 2.8545894110720837e-06 0.0005047837039455771 0.021173786371946335
v 2.8547472084028414e-06 -0.005178038962185383 0.019780520349740982
v 2.8546630801429274e-06 -0.008181232027709484 0.01625094749033451
v 0.006480207666754723 -0.006294054910540581 0.01173018291592598
v 0.0035649235360324383 -0.008923559449613094 0.012431774288415909
v 2.854704462151858e-06 -0.010047569870948792 0.012254382483661175
v 0.006719805300235748 -0.005910325329750776 0.007426349446177483
v 0.0028117478359490633 -0.00824739784002304 0.007589493412524462
v 2.8547297006298322e-06 -0.009531457908451557 0.0077917305752635
v 0.008417684584856033 -0.0032237707637250423 0.004266547504812479
v 0.006631198339164257 -0.007610195316374302 0.004437313415110111
v 0.0030742406379431486 -0.00896489154547453 0.00412600114941597
v 2.8547431156766834e-06 -0.009901288896799088 0.004415022674947977
v 0.00691296998411417 -0.0028030681423842907 0.0009080563322640955
v 0.0056317648850381374 -0.0064905136823654175 0.0011748532997444272
v 0.0029724277555942535 -0.008510518819093704 0.0007909348350949585
v 2.8547576675919117e-06 -0.009284945204854012 -0.0003297495422884822
v 0.005235897842794657 -0.0015780056128278375 -0.0012693253811448812
v 0.004044089931994677 -0.004604288376867771 -0.0012013810919597745
v 0.0022097579203546047 -0.006685532629489899 -0.0012275702320039272
v 2.8548238333314657e-06 -0.00729589257389307 -0.0014180965954437852
v 0.005234565120190382 -0.0069997129030525684 0.00992742832750082
v 0.001830637687817216 -0.009746362455189228 0.005279126577079296
v 0.003742016851902008 -0.007638129405677319 0.009673506952822208
v 0.002274733269587159 -0.009213116019964218 0.010129798203706741
v 0.0013821265893056989 -0.009624918922781944 0.0066476124338805676
v 2.8546712655952433e-06 -0.01090312097221613 0.0064881411381065845
v 2.8546896828629542e-06 -0.010687173344194889 0.0050628287717700005
v 0.0012830843916162848 -0.010433074086904526 0.005381244700402021
v 0.001006129547022283 -0.010608801618218422 0.006333047989755869
v 0.0022656943183392286 -0.00955258496105671 0.003015577094629407
v 2.8547390229505254e-06 -0.010102711617946625 0.0033497910480946302
v 0.0022596041671931744 -0.009385907091200352 0.0013539313804358244
v 2.8547422061819816e-06 -0.009803545661270618 0.0004704077437054366
v 0.008193445391952991 -0.005047731101512909 0.004382518585771322
v 0.004444530699402094 -0.00876741111278534 0.0044993325136601925
v 0.006104716099798679 -0.007093259133398533 0.002446613507345319
v -0.00647462485358119 -0.006294058635830879 0.011730183847248554
v -0.0035592149943113327 -0.008923559449613094 0.012431774288415909
v -0.008224424906075 -0.003170532174408436 0.007485258858650923
v -0.006696772295981646 -0.00591235188767314 0.007426349446177483
v -0.002806037897244096 -0.00824739784002304 0.007589494343847036
v -0.008555239997804165 -0.0032245221082121134 0.004266552627086639
v -0.006624225992709398 -0.007611447479575872 0.004437314812093973
v -0.003068531397730112 -0.00896489154547453 0.0041260020807385445
v -0.0069884792901575565 -0.002803470240905881 0.0009080563322640955
v -0.005630898755043745 -0.006490764673799276 0.00117485411465168
v -0.0029667182825505733 -0.008510518819093704 0.0007909355917945504
v -0.005267390515655279 -0.001578465336933732 -0.0012693237513303757
v -0.004042989108711481 -0.004604312125593424 -0.0012013810919597745
v -0.002204048214480281 -0.006685532629489899 -0.0012275702320039272
v -0.005228856578469276 -0.0069997613318264484 0.00992742832750082
v -0.0018249283311888576 -0.009746362455189228 0.005279127042740583
v -0.0037363076116889715 -0.007638164795935154 0.009673507884144783
v -0.0022690235637128353 -0.009213116019964218 0.01012980006635189
v -0.0013764166506007314 -0.00962491799145937 0.006647612899541855
v -0.0012773750349879265 -0.010433074086904526 0.005381245631724596
v -0.0010004200739786029 -0.010608801618218422 0.0063330489210784435
v -0.0022599848452955484 -0.00955258496105671 0.003015577793121338
v -0.002253894694149494 -0.009385907091200352 0.001353932311758399
v -0.00823151133954525 -0.005048172548413277 0.0043825190514326096
v -0.004438821226358414 -0.00876741111278534 0.004499333910644054
v -0.006097727920860052 -0.007094809785485268 0.0024466142058372498
v -0.005113169550895691 0.002519432920962572 0.019772503525018692
v -0.004494209308177233 0.004658907186239958 0.019771959632635117
v -0.002724315505474806 0.006628435105085373 0.019770868122577667
v 2.85371288555325e-06 0.007560890633612871 0.019770538434386253
v -0.008061250671744347 0.003685665549710393 0.015919599682092667
v -0.006802629679441452 0.006708735600113869 0.01589224673807621
v -0.003930385690182447 0.00949416309595108 0.015869194641709328
v 2.853260866686469e-06 0.010479084216058254 0.01587664894759655
v -0.009011856280267239 0.004445323720574379 0.009920358657836914
v -0.007421670015901327 0.007609092630445957 0.00977996177971363
v -0.004253318998962641 0.010620578192174435 0.009694123640656471
v 2.8529113933473127e-06 0.011688513681292534 0.009779213927686214
v -0.008092195726931095 0.004150157794356346 0.004249711520969868
v -0.003255498595535755 0.009932802990078926 0.004238920286297798
v -0.00740209873765707 0.003606586717069149 0.0017812392907217145
v -0.005596836097538471 0.006307794246822596 0.0017714162822812796
v -0.0028484335634857416 0.008628975600004196 0.0017797835171222687
v 2.8532704163808376e-06 0.009507054463028908 0.0017453832551836967
v -0.005400147754698992 0.00222454103641212 -0.0012693229364231229
v -0.00397138949483633 0.004732570145279169 -0.0012013786472380161
v -0.0021468596532940865 0.00610561715438962 -0.001173222903162241
v 2.8534971079352545e-06 0.0068137263879179955 -0.001199903548695147
v 0.0053610848262906075 0.000656374089885503 0.019772399216890335
v 0.0028996604960411787 -0.0007984255207702518 0.020784182474017143
v 0.004935173783451319 -0.0014347481774166226 0.019772790372371674
v 0.002219974063336849 -0.0019149755826219916 0.020785121247172356
v 0.003777888370677829 -0.003340864321216941 0.019774209707975388
v 0.0012027513002976775 -0.0026677169371396303 0.02078901417553425
v 0.002045888453722 -0.004595884121954441 0.019781317561864853
v 2.854761305570719e-06 -0.0030071919318288565 0.020788557827472687
v 0.008331081829965115 0.000544680398888886 0.015964066609740257
v 0.006449035368859768 -0.0021317258942872286 0.01816464029252529
v 0.007645085453987122 -0.0027981598395854235 0.016035420820116997
v 0.004936547949910164 -0.004506595898419619 0.018168790265917778
v 0.005843414459377527 -0.0055276090279221535 0.01613331399857998
v 0.002672950504347682 -0.006185673177242279 0.018173102289438248
v 0.0031633409671485424 -0.007550470065325499 0.016209561377763748
v 2.85468240690534e-06 -0.00680362805724144 0.018180452287197113
v 0.009421249851584435 0.0004411552508827299 0.010341686196625233
v 0.008259685710072517 -0.0032907899003475904 0.013560609892010689
v 0.008480807766318321 -0.003441795241087675 0.011022125370800495
v 0.00630070548504591 -0.006174369249492884 0.013978446833789349
v 0.005120611283928156 -0.0077271005138754845 0.01243223249912262
v 0.003410422708839178 -0.008407160639762878 0.01429407112300396
v 0.001815985655412078 -0.009765197522938251 0.012792360037565231
v 2.8546487556013744e-06 -0.00922617968171835 0.014406154863536358
v 0.008741912432014942 0.00017499906243756413 0.00654542027041316
v 0.00845116376876831 -0.0032234610989689827 0.009136701934039593
v 0.007690648082643747 -0.00439194543287158 0.0076663438230752945
v 0.006790481507778168 -0.005803781561553478 0.009607862681150436
v 0.004742152523249388 -0.007402095478028059 0.007497058715671301
v 0.003468699986115098 -0.007728166878223419 0.00887182168662548
v 0.0022064794320613146 -0.00877461675554514 0.009108215570449829
v 0.0031148591078817844 -0.008346706628799438 0.00990351103246212
v 0.0012975468998774886 -0.009005584754049778 0.008061333559453487
v 0.00284775672480464 -0.009297268465161324 0.011174934916198254
v 0.001309413113631308 -0.009955891408026218 0.010970830917358398
v 0.008591930381953716 0.0001927921111928299 0.00426868163049221
v 0.008345414884388447 -0.003001452423632145 0.006730243563652039
v 0.00782857183367014 -0.005311283282935619 0.005723817273974419
v 0.0076416730880737305 -0.006283015012741089 0.00441072229295969
v 0.006526340264827013 -0.007101406808942556 0.005814229138195515
v 0.008076795376837254 -0.004422706086188555 0.005939784925431013
v 0.005457310006022453 -0.008390496484935284 0.00457705557346344
v 0.0038206411991268396 -0.008510246872901917 0.005940619390457869
v 0.0005896033253520727 -0.010789520107209682 0.006445519160479307
v 2.85467990579491e-06 -0.010926954448223114 0.005749690346419811
v 0.001906907418742776 -0.008934675715863705 0.006956890691071749
v 0.0008164108148775995 -0.009610441513359547 0.00716752465814352
v 0.00796443410217762 -0.0028450866229832172 0.0024420537520200014
v 0.006469151005148888 -0.004523713607341051 0.0008386491099372506
v 0.007636992726475 -0.00482936529442668 0.0025050609838217497
v 0.0075001283548772335 -0.005837553646415472 0.003127583535388112
v 0.006461843848228455 -0.0074370186775922775 0.0032446528784930706
v 0.004417624790221453 -0.007997540757060051 0.0025085352826863527
v 0.004206337966024876 -0.007596117909997702 0.0008457889780402184
v 0.003342508105561137 -0.008753418922424316 0.002392182592302561
v 0.00510755181312561 -0.008161759003996849 0.003151743905618787
v 0.0023720087483525276 -0.009455997496843338 0.002196138957515359
v 0.0013496222672984004 -0.00964139774441719 0.000808544980827719
v 2.854712192856823e-06 -0.010081213898956776 0.0018759574741125107
v 0.001353320898488164 -0.0098683787509799 0.0032293989788740873
v 0.0057272412814199924 0.0003928387304767966 -0.0012914565159007907
v 0.006137986667454243 -0.002282608300447464 -0.0003276056086178869
v 0.004711602348834276 -0.0030928351916372776 -0.001235881820321083
v 0.004889598581939936 -0.005649515427649021 -0.0002869526215363294
v 0.003199793864041567 -0.005799140315502882 -0.0011806783732026815
v 0.0027087279595434666 -0.007886121980845928 -0.00036523808375932276
v 0.001130540738813579 -0.0071735805831849575 -0.0013515864266082644
v 2.8548022328322986e-06 -0.008816303685307503 -0.0008567351615056396
v 0.0015141326002776623 -0.009144546464085579 -1.1431039865783532e-06
v 0.0032116833608597517 -0.0009319232194684446 -0.001780507038347423
v 0.0024695140309631824 -0.0027787687722593546 -0.001779820304363966
v 0.0013399660820141435 -0.00408471655100584 -0.0017797662876546383
v 2.854807462426834e-06 -0.004405333660542965 -0.0017810279969125986
v 0.005919207818806171 -0.006710995454341173 0.010654011741280556
v 0.004527644719928503 -0.008019284345209599 0.011022176593542099
v 0.005744552705436945 -0.006560106296092272 0.008940672501921654
v 0.0028831532690674067 -0.008709545247256756 0.005893562454730272
v 0.002329843584448099 -0.009349611587822437 0.005044414196163416
v 0.001607186859473586 -0.009539160877466202 0.0043127997778356075
v 0.0011749978875741363 -0.009876711294054985 0.004767257254570723
v 0.0044037033803761005 -0.007349636405706406 0.009724180214107037
v 2.854758804460289e-06 -0.009816578589379787 0.009831213392317295
v 0.001796234049834311 -0.00963540282100439 0.0059665655717253685
v 0.001199391670525074 -0.010554171167314053 0.005850803107023239
v 0.0007769971271045506 -0.010594109073281288 0.005174003541469574
v 0.0011311030248180032 -0.010211413726210594 0.006505546625703573
v 2.8546744488266995e-06 -0.01032763347029686 0.007017621770501137
v 2.854691047105007e-06 -0.010315462946891785 0.004729609005153179
v 0.0014979754341766238 -0.0101474579423666 0.005309333559125662
v 0.0025510541163384914 -0.009135961532592773 0.0011700086761265993
v 0.002555954735726118 -0.009315750561654568 0.0034825471229851246
v 2.8547335659823148e-06 -0.00956013798713684 -1.6045974916778505e-05
v 2.8547533474920783e-06 -0.009963670745491982 0.0039856624789536
v 0.008328532800078392 -0.004333556164056063 0.004276311956346035
v 0.003869948908686638 -0.008790796622633934 0.004313088953495026
v 0.0059564122930169106 -0.006873072125017643 0.0020620757713913918
v -0.005355375818908215 0.0006563746137544513 0.019772399216890335
v -0.004929463844746351 -0.0014347468968480825 0.019772790372371674
v -0.003772179363295436 -0.0033408638555556536 0.019774209707975388
v -0.0020401794463396072 -0.004595882724970579 0.019781317561864853
v -0.008325371891260147 0.0005446801078505814 0.015964066609740257
v -0.007639375980943441 -0.00279815960675478 0.016035420820116997
v -0.005837705451995134 -0.0055276076309382915 0.01613331399857998
v -0.0031576319597661495 -0.007550468202680349 0.016209561377763748
v -0.009417060762643814 0.0004407504457049072 0.010341637767851353
v -0.008449255488812923 -0.0034421347081661224 0.011022132821381092
v -0.005114902276545763 -0.007727114949375391 0.012432234361767769
v -0.0018102764151990414 -0.009765197522938251 0.012792360037565231
v -0.008809594437479973 0.0001670249184826389 0.006545417942106724
v -0.008265131153166294 -0.003371728351339698 0.009136714041233063
v -0.0076266746036708355 -0.0043922788463532925 0.007666341494768858
v -0.006778100971132517 -0.005804444197565317 0.009607863612473011
v -0.003462990978732705 -0.007728190626949072 0.008871822617948055
v -0.004736443981528282 -0.007402929477393627 0.007497060112655163
v -0.0031091496348381042 -0.008346708491444588 0.00990351103246212
v -0.002200769493356347 -0.008774617686867714 0.009108216501772404
v -0.0012918373104184866 -0.009005582891404629 0.008061333559453487
v -0.0028420474845916033 -0.009297268465161324 0.011174935847520828
v -0.0013037034077569842 -0.009955892339348793 0.010970830917358398
v -0.008731712587177753 0.0001856000890256837 0.00426863320171833
v -0.008521235547959805 -0.003003736026585102 0.0059752510860562325
v -0.007848703302443027 -0.005311916582286358 0.005723818205296993
v -0.006519336719065905 -0.0071032983250916 0.005814230535179377
v -0.007634525187313557 -0.0062842583283782005 0.004410723224282265
v -0.008132603019475937 -0.0044226921163499355 0.005939784925431013
v -0.0038149324245750904 -0.008510246872901917 0.005940620321780443
v -0.00545160099864006 -0.008391054347157478 0.0045770565047860146
v -0.0005838939687237144 -0.010789519175887108 0.0064455196261405945
v -0.001901197829283774 -0.008934675715863705 0.006956892088055611
v -0.0008107012836262584 -0.009610441513359547 0.007167525123804808
v -0.008039203472435474 -0.0028448670636862516 0.0024420537520200014
v -0.007657417096197605 -0.004828846547752619 0.0025050616823136806
v -0.006500997580587864 -0.004523336421698332 0.0008386491099372506
v -0.0074945720843970776 -0.005839225370436907 0.0031275844667106867
v -0.006453788839280605 -0.0074387239292263985 0.0032446542754769325
v -0.004411874804645777 -0.007997541688382626 0.002508536446839571
v -0.0033367983996868134 -0.008753420785069466 0.0023921839892864227
v -0.00420062942430377 -0.007596118375658989 0.0008457897929474711
v -0.00510144978761673 -0.008161759003996849 0.003151745069772005
v -0.002366299508139491 -0.009455998428165913 0.002196138957515359
v -0.001343912910670042 -0.009641398675739765 0.000808544980827719
v -0.0013476114254444838 -0.0098683787509799 0.0032293989788740873
v -0.005793972406536341 0.00039145536720752716 -0.0012914565159007907
v -0.0061919004656374454 -0.0022834741976112127 -0.0003276056086178869
v -0.004722758196294308 -0.003092903643846512 -0.001235881820321083
v -0.004889894276857376 -0.005649554543197155 -0.0002869526215363294
v -0.0031940843909978867 -0.005799140315502882 -0.0011806783732026815
v -0.00270301871933043 -0.007886121980845928 -0.0003652372397482395
v -0.0011248309165239334 -0.0071735805831849575 -0.0013515864266082644
v -0.001508423243649304 -0.009144547395408154 -1.1431039865783532e-06
v -0.0059134988114237785 -0.006711025722324848 0.010654011741280556
v -0.0045219361782073975 -0.008019316010177135 0.011022176593542099
v -0.005738705862313509 -0.006561143323779106 0.008940673433244228
v -0.002877443330362439 -0.008709545247256756 0.005893563386052847
v -0.002324134111404419 -0.009349611587822437 0.005044414661824703
v -0.001169288530945778 -0.00987671036273241 0.004767258185893297
v -0.001601477270014584 -0.009539160877466202 0.004312800243496895
v -0.004397994372993708 -0.007349684834480286 0.009724180214107037
v -0.0017905242275446653 -0.00963540282100439 0.005966566037386656
v -0.0011936823138967156 -0.010554171167314053 0.0058508035726845264
v -0.0007712877122685313 -0.010594109073281288 0.005174004472792149
v -0.0011253936681896448 -0.010211413726210594 0.0065055470913648605
v -0.0014922660775482655 -0.0101474579423666 0.005309333559125662
v -0.0025453444104641676 -0.009135961532592773 0.0011700103059411049
v -0.002550245262682438 -0.009315750561654568 0.0034825473558157682
v -0.00840417854487896 -0.004333556164056063 0.00427631288766861
v -0.0038642394356429577 -0.008790796622633934 0.0043130903504788876
v -0.005951034836471081 -0.006874332670122385 0.002062076237052679
v 2.8531535463116597e-06 0.010988309048116207 0.004244775511324406
v -0.006310895550996065 0.007002523168921471 0.00419593695551157
v 0.005118878558278084 0.002519432920962572 0.019772503525018692
v 0.0044999150559306145 0.00465890858322382 0.019771959632635117
v 0.0027300226502120495 0.00662843557074666 0.019770868122577667
v 0.008066958747804165 0.0036856671795248985 0.015919599682092667
v 0.006808337289839983 0.006708736997097731 0.01589224673807621
v 0.003936092369258404 0.00949416495859623 0.015869194641709328
v 0.009025020524859428 0.00444552768021822 0.009920494630932808
v 0.007434549741446972 0.007609093561768532 0.009780061431229115
v 0.004259868059307337 0.010620619170367718 0.009694141335785389
v 0.008413698524236679 0.004387251101434231 0.006420448422431946
v 0.0070425462909042835 0.0073502156883478165 0.00637139892205596
v 0.008261811919510365 0.0041512493044137955 0.004249847028404474
v 0.006389179266989231 0.007001996971666813 0.004196030553430319
v 0.0028579398058354855 0.008628951385617256 0.0017797838663682342
v 0.003267074702307582 0.009932804852724075 0.004238938447088003
v 0.005362627562135458 0.0022249119356274605 -0.0012693229364231229
v 0.00397146912291646 0.004732572007924318 -0.0012013786472380161
v 0.002152590546756983 0.006105618551373482 -0.001173222903162241
v 0.007628547493368387 -0.004671713802963495 0.00938308984041214
v 0.004625210538506508 -0.007113531231880188 0.008724287152290344
v 0.0028436246793717146 -0.008273270912468433 0.00919702835381031
v 0.0011976005043834448 -0.009490858763456345 0.009508670307695866
v 0.001912289997562766 -0.009906111285090446 0.011704258620738983
v 0.007474392652511597 -0.006178615614771843 0.005427295342087746
v 0.008109829388558865 -0.004092922434210777 0.006407393142580986
v 0.005087437108159065 -0.00799817219376564 0.006011244375258684
v 0.0006602706853300333 -0.010826155543327332 0.005783966742455959
v 0.0013299473794177175 -0.009058401919901371 0.007372379302978516
v 0.007470273412764072 -0.004249857738614082 0.002002384513616562
v 0.007320591248571873 -0.006492379121482372 0.003484355052933097
v 0.004035598132759333 -0.008148654364049435 0.002001023618504405
v 0.005659086164087057 -0.008158732205629349 0.003504701191559434
v 0.0013151724124327302 -0.009876241907477379 0.0019848309457302094
v 0.005629869643598795 -0.00399174727499485 -0.0003076593275181949
v 0.0038936384953558445 -0.006893938407301903 -0.0002736540336627513
v 0.001389396726153791 -0.008714018389582634 -0.0006591769051738083
v 0.005258049350231886 -0.007523094303905964 0.011337801814079285
v 0.006253738887608051 -0.006329863332211971 0.009707223623991013
v 0.0023106953594833612 -0.009076522663235664 0.006000279448926449
v 0.0017528836615383625 -0.009549406357109547 0.004631164949387312
v 0.003744723740965128 -0.00829025823622942 0.010527986101806164
v 0.0006056397105567157 -0.010284642688930035 0.006882638204842806
v 0.0008991375216282904 -0.010249223560094833 0.004891652148216963
v 0.0015019227284938097 -0.010142996907234192 0.005914204753935337
v 0.002917882986366749 -0.009127333760261536 0.0023945714347064495
v 0.0014584085438400507 -0.009407334960997105 0.000317325844662264
v 0.0014623291790485382 -0.009716959670186043 0.003925465978682041
v 0.008198661729693413 -0.0045524961315095425 0.0054538133554160595
v 0.0033514522947371006 -0.008760678581893444 0.005524629261344671
v 0.0076170144602656364 -0.005326322745531797 0.002840639790520072
v 0.004735324066132307 -0.008052933029830456 0.002855898579582572
v -0.0031406923662871122 0.00053029676200822 0.02078416384756565
v -0.002893950790166855 -0.0007984247640706599 0.020784182474017143
v -0.002214264590293169 -0.0019149750005453825 0.020785121247172356
v -0.0011970418272539973 -0.002667716471478343 0.02078901417553425
v -0.007005426101386547 0.0006231783772818744 0.01816340908408165
v -0.006443325895816088 -0.0021317247301340103 0.01816464029252529
v -0.004930838942527771 -0.004506594967097044 0.018168790265917778
v -0.0026672412641346455 -0.006185672711580992 0.018173102289438248
v -0.009094771929085255 0.0004823333292733878 0.013310695998370647
v -0.008253976702690125 -0.003290789667516947 0.013560610823333263
v -0.006294996477663517 -0.006174368318170309 0.013978446833789349
v -0.0034047134686261415 -0.00840715877711773 0.014294072054326534
v -0.009354564361274242 0.00016539203352294862 0.009584039449691772
v -0.007541321218013763 -0.004673128481954336 0.009383088909089565
v -0.004619501531124115 -0.007113579194992781 0.008724288083612919
v -0.002837914740666747 -0.008273270912468433 0.00919702835381031
v -0.0011918906820937991 -0.00949085969477892 0.009508670307695866
v -0.0019065806409344077 -0.009906111285090446 0.011704259552061558
v -0.007474803365767002 -0.006179746240377426 0.005427295807749033
v -0.008148113265633583 -0.004093063063919544 0.0064073908142745495
v -0.005081728100776672 -0.007999121211469173 0.006011245772242546
v -0.000654561270494014 -0.010826155543327332 0.005783967208117247
v -0.0013242376735433936 -0.009058401919901371 0.007372379768639803
v -0.0081785311922431 0.0002464413992129266 0.0017830379074439406
v -0.00750871654599905 -0.004248341079801321 0.002002385212108493
v -0.00731205428019166 -0.006494162604212761 0.003484356217086315
v -0.00402988912537694 -0.008148654364049435 0.0020010240841656923
v -0.0056527587585151196 -0.008159549906849861 0.003504701890051365
v -0.0013094630558043718 -0.009876242838799953 0.0019848309457302094
v -0.007011673878878355 0.00035371817648410797 -0.0003418968408368528
v -0.005650872830301523 -0.003991901874542236 -0.0003076601424254477
v -0.003887929255142808 -0.006893939804285765 -0.0002736540336627513
v -0.001383687020279467 -0.008714018389582634 -0.0006591760902665555
v -0.003538298886269331 0.00026041659293696284 -0.0017807574477046728
v -0.0032248501665890217 -0.0009320644894614816 -0.001780507038347423
v -0.0024663545191287994 -0.0027787762228399515 -0.001779820304363966
v -0.0013342564925551414 -0.00408471655100584 -0.0017797662876546383
v -0.005252340342849493 -0.007523125968873501 0.011337801814079285
v -0.006248030345886946 -0.006330281961709261 0.009707224555313587
v -0.0023049856536090374 -0.009076522663235664 0.0060002803802490234
v -0.0017471739556640387 -0.009549406357109547 0.0046311658807098866
v -0.003739014733582735 -0.008290277794003487 0.010527986101806164
v -0.0005999303539283574 -0.01028464175760746 0.006882638670504093
v -0.000893428164999932 -0.010249223560094833 0.00489165261387825
v -0.0014962131390348077 -0.010142996907234192 0.005914205685257912
v -0.0029121735133230686 -0.009127333760261536 0.0023945728316903114
v -0.0014526990707963705 -0.009407334960997105 0.000317325844662264
v -0.0014566194731742144 -0.009716958738863468 0.003925466910004616
v -0.008264838717877865 -0.0045525007881224155 0.005453814752399921
v -0.003345742356032133 -0.008760678581893444 0.0055246297270059586
v -0.0076219867914915085 -0.0053270598873496056 0.0028406402561813593
v -0.004729334264993668 -0.00805293396115303 0.002855899976566434
v -0.003004759084433317 0.001621960778720677 0.02078416757285595
v -0.002643606625497341 0.0028935708105564117 0.020784199237823486
v -0.001612114137969911 0.004079008009284735 0.02078416757285595
v 2.854117155948188e-06 0.004635678604245186 0.02078416384756565
v -0.006751266773790121 0.0031622962560504675 0.018163952976465225
v -0.005799408536404371 0.005815029144287109 0.01816336065530777
v -0.003421949688345194 0.008265738375484943 0.018154967576265335
v 2.8535098408610793e-06 0.009253818541765213 0.018158018589019775
v -0.008764251135289669 0.004124555271118879 0.013112916611135006
v -0.007281795609742403 0.007287793792784214 0.01301950216293335
v -0.004190051928162575 0.010225505568087101 0.012959776446223259
v 2.8530714644148247e-06 0.011267803609371185 0.013004387728869915
v -0.008954372256994247 0.004364183638244867 0.009555869735777378
v -0.007404262199997902 0.007466393057256937 0.009443133138120174
v -0.004120421130210161 0.010468004271388054 0.009375697933137417
v 2.852884790627286e-06 0.011494176462292671 0.009472615085542202
v -0.008273947052657604 0.004386387765407562 0.00641941512003541
v -0.0069779884070158005 0.007350214757025242 0.006370987743139267
v -0.0037281778641045094 0.010455542244017124 0.006355241406708956
v 2.8530478175525786e-06 0.011457324028015137 0.006438667420297861
v -0.006391327362507582 0.002874869154766202 -0.00032760476460680366
v -0.004773186519742012 0.005514257587492466 -0.00028694936190731823
v -0.0024928248021751642 0.00728584174066782 -0.00027479714481160045
v 2.8533524982776726e-06 0.008054894395172596 -0.00031410338124260306
v -0.0032938136719167233 0.0013707655016332865 -0.001780507038347423
v -0.0024352651089429855 0.0028830524533987045 -0.001779820304363966
v -0.0013169532176107168 0.0037535917945206165 -0.0017794957384467125
v 2.853927753676544e-06 0.004163453821092844 -0.001779675600118935
v 0.003146402072161436 0.0005302958306856453 0.02078416384756565
v 0.003010468790307641 0.001621960778720677 0.02078416757285595
v 0.002649314235895872 0.0028935715090483427 0.020784199237823486
v 0.0016178222140297294 0.004079008009284735 0.02078416757285595
v 0.007011136971414089 0.0006231780862435699 0.01816340908408165
v 0.006756974849849939 0.0031622974202036858 0.018163952976465225
v 0.00580511474981904 0.005815030075609684 0.01816336065530777
v 0.003427657298743725 0.008265738375484943 0.018154967576265335
v 0.009100481867790222 0.00048233388224616647 0.013310695998370647
v 0.008769958280026913 0.004124556668102741 0.013112916611135006
v 0.007287503220140934 0.0072877961210906506 0.01301950216293335
v 0.004195758141577244 0.010225505568087101 0.012959779240190983
v 0.009329480119049549 0.0001678185653872788 0.009584072977304459
v 0.009019526652991772 0.004364590160548687 0.009556650184094906
v 0.007431071251630783 0.007466394919902086 0.009443474002182484
v 0.0041278149001300335 0.010468040592968464 0.009375734254717827
v 0.003739323001354933 0.010455542244017124 0.006355277728289366
v 0.008013230748474598 0.0002530911879148334 0.001783036976121366
v 0.007401303853839636 0.003607620717957616 0.0017812390578910708
v 0.005627726204693317 0.006307796109467745 0.001771414652466774
v 0.006887080613523722 0.0003575579321477562 -0.0003418968408368528
v 0.00632893480360508 0.0028755050152540207 -0.00032760476460680366
v 0.004771031439304352 0.005514258984476328 -0.00028694936190731823
v 0.0024985799100250006 0.007285842206329107 -0.0002747954858932644
v 0.003507607849314809 0.0002609432558529079 -0.0017807574477046728
v 0.0032773830462247133 0.0013708706246688962 -0.001780507038347423
v 0.0024377719964832067 0.0028830538503825665 -0.001779820304363966
v 0.0013226610608398914 0.0037535924930125475 -0.0017794957384467125
v 5.384664746088674e-06 -0.0017063617706298828 0.014254930429160595
v -0.008948351256549358 -1.7309126633335836e-05 0.011541590094566345
v -0.007169406395405531 -0.011672990396618843 0.012581303715705872
v -0.001563356607221067 -0.014715295284986496 0.013515320606529713
v 0.004735843278467655 -0.013587485998868942 0.01316907349973917
v 0.008686292916536331 -0.008484889753162861 0.012379460968077183
v 0.008959120139479637 -1.7308844689978287e-05 0.011541590094566345
v -0.008948132395744324 -1.7309126633335836e-05 0.0106933219358325
v -0.007169406395405531 -0.011672990396618843 0.011733035556972027
v -0.001563356607221067 -0.014715295284986496 0.012667052447795868
v 0.004735843278467655 -0.013587485998868942 0.012320805341005325
v 0.008686292916536331 -0.008444011211395264 0.011531192809343338
v 0.008958850987255573 -1.730827716528438e-05 0.0106933219358325
v 5.384664746088674e-06 -0.0017063614213839173 0.01340666227042675
v -0.008675524033606052 -0.008484788239002228 0.012379460968077183
v -0.00472507206723094 -0.013587488792836666 0.01316907349973917
v 0.0015741270035505295 -0.014715295284986496 0.013515320606529713
v 0.007180174812674522 -0.011672990396618843 0.01258130557835102
v -0.008675524033606052 -0.008443685248494148 0.011531192809343338
v -0.00472507206723094 -0.013587488792836666 0.012320805341005325
v 0.0015741270035505295 -0.014715295284986496 0.012667052447795868
v 0.007180174812674522 -0.011672990396618843 0.011733037419617176
v 2.854761305570719e-06 -0.0030071919318288565 0.020788557827472687
v 2.8545894110720837e-06 0.0005047837039455771 0.021173786371946335
v 2.8545894110720837e-06 0.0005047837039455771 0.021173786371946335
v 2.854117155948188e-06 0.004635678604245186 0.02078416384756565
v 2.8545894110720837e-06 0.0005047837039455771 0.021173786371946335
v 0.0016178222140297294 0.004079008009284735 0.02078416757285595
v 2.8547472084028414e-06 -0.005178038962185383 0.019780520349740982
v 2.85468240690534e-06 -0.00680362805724144 0.018180452287197113
v 0.009100481867790222 0.00048233388224616647 0.013310695998370647
v 0.007645085453987122 -0.0027981598395854235 0.016035420820116997
v 0.008331081829965115 0.000544680398888886 0.015964066609740257
v 0.008259685710072517 -0.0032907899003475904 0.013560609892010689
v 0.0031633409671485424 -0.007550470065325499 0.016209561377763748
v 0.0031633409671485424 -0.007550470065325499 0.016209561377763748
v 2.8546630801429274e-06 -0.008181232027709484 0.01625094749033451
v 2.8546630801429274e-06 -0.008181232027709484 0.01625094749033451
v 2.8546487556013744e-06 -0.00922617968171835 0.014406154863536358
v 2.8546630801429274e-06 -0.008181232027709484 0.01625094749033451
v 0.008480807766318321 -0.003441795241087675 0.011022125370800495
v 0.009100481867790222 0.00048233388224616647 0.013310695998370647
v 0.008259685710072517 -0.0032907899003475904 0.013560609892010689
v 0.009100481867790222 0.00048233388224616647 0.013310695998370647
v 0.008480807766318321 -0.003441795241087675 0.011022125370800495
v 0.009421249851584435 0.0004411552508827299 0.010341686196625233
v 0.005120611283928156 -0.0077271005138754845 0.01243223249912262
v 0.006480207666754723 -0.006294054910540581 0.01173018291592598
v 0.006480207666754723 -0.006294054910540581 0.01173018291592598
v 0.001815985655412078 -0.009765197522938251 0.012792360037565231
v 0.0035649235360324383 -0.008923559449613094 0.012431774288415909
v 2.854704462151858e-06 -0.010047569870948792 0.012254382483661175
v 2.854704462151858e-06 -0.010047569870948792 0.012254382483661175
v 2.854704462151858e-06 -0.010047569870948792 0.012254382483661175
v 2.854704462151858e-06 -0.010047569870948792 0.012254382483661175
v -0.0018102764151990414 -0.009765197522938251 0.012792360037565231
v 2.854704462151858e-06 -0.010047569870948792 0.012254382483661175
v 2.854704462151858e-06 -0.010047569870948792 0.012254382483661175
v 2.854704462151858e-06 -0.010047569870948792 0.012254382483661175
v 2.8547297006298322e-06 -0.009531457908451557 0.0077917305752635
v 2.8547297006298322e-06 -0.009531457908451557 0.0077917305752635
v 2.8547297006298322e-06 -0.009531457908451557 0.0077917305752635
v 2.8547297006298322e-06 -0.009531457908451557 0.0077917305752635
v 2.8547297006298322e-06 -0.009531457908451557 0.0077917305752635
v 2.8547297006298322e-06 -0.009531457908451557 0.0077917305752635
v 2.8547297006298322e-06 -0.009531457908451557 0.0077917305752635
v 2.8547297006298322e-06 -0.009531457908451557 0.0077917305752635
v 2.8547297006298322e-06 -0.009531457908451557 0.0077917305752635
v 2.8547297006298322e-06 -0.009531457908451557 0.0077917305752635
v 2.8547431156766834e-06 -0.009901288896799088 0.004415022674947977
v 2.8547431156766834e-06 -0.009901288896799088 0.004415022674947977
v 2.8547431156766834e-06 -0.009901288896799088 0.004415022674947977
v 2.8547431156766834e-06 -0.009901288896799088 0.004415022674947977
v 2.8547431156766834e-06 -0.009901288896799088 0.004415022674947977
v 2.8547431156766834e-06 -0.009901288896799088 0.004415022674947977
v 2.8547431156766834e-06 -0.009901288896799088 0.004415022674947977
v 0.0056317648850381374 -0.0064905136823654175 0.0011748532997444272
v 0.0056317648850381374 -0.0064905136823654175 0.0011748532997444272
v -0.009417060762643814 0.0004407504457049072 0.010341637767851353
v -0.009011856280267239 0.004445323720574379 0.009920358657836914
v -0.008449255488812923 -0.0034421347081661224 0.011022132821381092
v -0.00647462485358119 -0.006294058635830879 0.011730183847248554
v -0.005114902276545763 -0.007727114949375391 0.012432234361767769
v -0.0035592149943113327 -0.008923559449613094 0.012431774288415909
v -0.005630898755043745 -0.006490764673799276 0.00117485411465168
v -0.005630898755043745 -0.006490764673799276 0.00117485411465168
v -0.0032938136719167233 0.0013707655016332865 -0.001780507038347423
v -0.005793972406536341 0.00039145536720752716 -0.0012914565159007907
v -0.005793972406536341 0.00039145536720752716 -0.0012914565159007907
v -0.005793972406536341 0.00039145536720752716 -0.0012914565159007907
v -0.005793972406536341 0.00039145536720752716 -0.0012914565159007907
v -0.003538298886269331 0.00026041659293696284 -0.0017807574477046728
v 2.854117155948188e-06 0.004635678604245186 0.02078416384756565
v 2.85371288555325e-06 0.007560890633612871 0.019770538434386253
v 2.85371288555325e-06 0.007560890633612871 0.019770538434386253
v 2.8535098408610793e-06 0.009253818541765213 0.018158018589019775
v 0.003427657298743725 0.008265738375484943 0.018154967576265335
v 2.85371288555325e-06 0.007560890633612871 0.019770538434386253
v 0.0016178222140297294 0.004079008009284735 0.02078416757285595
v 2.85371288555325e-06 0.007560890633612871 0.019770538434386253
v 2.853260866686469e-06 0.010479084216058254 0.01587664894759655
v 2.8530714644148247e-06 0.011267803609371185 0.013004387728869915
v 0.004195758141577244 0.010225505568087101 0.012959779240190983
v 2.853260866686469e-06 0.010479084216058254 0.01587664894759655
v 0.003427657298743725 0.008265738375484943 0.018154967576265335
v 2.853260866686469e-06 0.010479084216058254 0.01587664894759655
v 2.8535098408610793e-06 0.009253818541765213 0.018158018589019775
v -0.007421670015901327 0.007609092630445957 0.00977996177971363
v -0.007421670015901327 0.007609092630445957 0.00977996177971363
v -0.004253318998962641 0.010620578192174435 0.009694123640656471
v 2.8529113933473127e-06 0.011688513681292534 0.009779213927686214
v 2.8529113933473127e-06 0.011688513681292534 0.009779213927686214
v 2.852884790627286e-06 0.011494176462292671 0.009472615085542202
v 2.8529113933473127e-06 0.011688513681292534 0.009779213927686214
v 0.004259868059307337 0.010620619170367718 0.009694141335785389
v 0.004195758141577244 0.010225505568087101 0.012959779240190983
v 2.8529113933473127e-06 0.011688513681292534 0.009779213927686214
v 2.8530714644148247e-06 0.011267803609371185 0.013004387728869915
v 2.8530478175525786e-06 0.011457324028015137 0.006438667420297861
v 2.8531535463116597e-06 0.010988309048116207 0.004244775511324406
v 2.8532704163808376e-06 0.009507054463028908 0.0017453832551836967
v 2.8533524982776726e-06 0.008054894395172596 -0.00031410338124260306
v -0.0032938136719167233 0.0013707655016332865 -0.001780507038347423
v 2.8534971079352545e-06 0.0068137263879179955 -0.001199903548695147
v 2.853927753676544e-06 0.004163453821092844 -0.001779675600118935
v 0.0016178222140297294 0.004079008009284735 0.02078416757285595
v 0.009100481867790222 0.00048233388224616647 0.013310695998370647
v 0.008331081829965115 0.000544680398888886 0.015964066609740257
v 0.009025020524859428 0.00444552768021822 0.009920494630932808
v 0.007434549741446972 0.007609093561768532 0.009780061431229115
v 0.004259868059307337 0.010620619170367718 0.009694141335785389
v 0.004259868059307337 0.010620619170367718 0.009694141335785389
v 0.0057272412814199924 0.0003928387304767966 -0.0012914565159007907
v 0.005362627562135458 0.0022249119356274605 -0.0012693229364231229
v 0.003507607849314809 0.0002609432558529079 -0.0017807574477046728
v 0.003507607849314809 0.0002609432558529079 -0.0017807574477046728
v 0.005362627562135458 0.0022249119356274605 -0.0012693229364231229
v 0.0057272412814199924 0.0003928387304767966 -0.0012914565159007907
v -0.008948351256549358 -1.7309126633335836e-05 0.011541590094566345
v -0.008675524033606052 -0.008484788239002228 0.012379460968077183
v -0.007169406395405531 -0.011672990396618843 0.012581303715705872
v -0.00472507206723094 -0.013587488792836666 0.01316907349973917
v -0.001563356607221067 -0.014715295284986496 0.013515320606529713
v 0.0015741270035505295 -0.014715295284986496 0.013515320606529713
v 0.004735843278467655 -0.013587485998868942 0.01316907349973917
v 0.007180174812674522 -0.011672990396618843 0.01258130557835102
v 0.008686292916536331 -0.008484889753162861 0.012379460968077183
v 0.008959120139479637 -1.7308844689978287e-05 0.011541590094566345
v -0.008675524033606052 -0.008443685248494148 0.011531192809343338
v -0.008948132395744324 -1.7309126633335836e-05 0.0106933219358325
v -0.00472507206723094 -0.013587488792836666 0.012320805341005325
v -0.007169406395405531 -0.011672990396618843 0.011733035556972027
v 0.0015741270035505295 -0.014715295284986496 0.012667052447795868
v -0.001563356607221067 -0.014715295284986496 0.012667052447795868
v 0.007180174812674522 -0.011672990396618843 0.011733037419617176
v 0.004735843278467655 -0.013587485998868942 0.012320805341005325
v 0.008958850987255573 -1.730827716528438e-05 0.0106933219358325
v 0.008686292916536331 -0.008444011211395264 0.011531192809343338
v -0.007169406395405531 -0.011672990396618843 0.012581303715705872
v -0.007169406395405531 -0.011672990396618843 0.011733035556972027
v -0.00472507206723094 -0.013587488792836666 0.01316907349973917
v -0.00472507206723094 -0.013587488792836666 0.012320805341005325
v 0.007180174812674522 -0.011672990396618843 0.01258130557835102
v 0.007180174812674522 -0.011672990396618843 0.011733037419617176
g submesh_0
f 441 390 440
f 94 96 395
f 103 445 446
f 450 3 107
f 457 455 456
f 460 458 459
f 455 448 463
f 340 228 383
f 82 501 502
f 510 509 394
f 507 513 514
f 516 515 398
f 521 519 520
f 532 530 531
f 542 445 259
f 460 262 445
f 412 548 549
f 552 550 551
f 493 191 315
f 493 315 367
f 367 315 186
f 367 186 68
f 68 186 363
f 68 363 364
f 364 363 64
f 364 64 65
f 65 64 360
f 65 360 361
f 361 360 439
f 361 439 362
f 2 101 99
f 2 99 92
f 92 99 97
f 92 97 90
f 90 97 95
f 90 95 88
f 88 95 391
f 88 391 86
f 86 391 256
f 86 256 387
f 387 256 388
f 387 388 1
f 1 388 389
f 1 389 442
f 451 109 107
f 107 109 472
f 101 451 99
f 454 449 99
f 99 449 97
f 475 297 132
f 132 297 26
f 132 26 283
f 283 26 131
f 283 131 8
f 8 131 294
f 8 294 162
f 162 294 12
f 162 12 304
f 304 12 180
f 304 180 36
f 36 180 306
f 36 306 141
f 141 306 37
f 141 37 287
f 287 37 137
f 287 137 11
f 11 137 285
f 11 285 124
f 124 285 35
f 124 35 279
f 279 35 123
f 279 123 7
f 7 123 303
f 7 303 126
f 126 303 10
f 126 10 280
f 280 10 122
f 280 122 112
f 112 122 274
f 112 274 7
f 7 274 113
f 7 113 293
f 293 113 4
f 293 4 159
f 159 4 292
f 159 292 22
f 22 292 160
f 22 160 296
f 296 160 5
f 296 5 119
f 119 5 278
f 119 278 25
f 25 278 120
f 25 120 277
f 277 120 466
f 6 167 277
f 277 167 482
f 481 167 323
f 323 167 467
f 378 254 77
f 378 77 377
f 377 77 255
f 377 255 376
f 376 255 76
f 376 76 375
f 375 76 205
f 375 205 194
f 194 205 43
f 194 43 206
f 206 43 326
f 206 326 40
f 40 326 196
f 40 196 320
f 320 196 41
f 320 41 197
f 197 41 345
f 197 345 496
f 496 345 236
f 496 236 344
f 344 236 52
f 344 52 237
f 237 52 348
f 237 348 498
f 498 348 203
f 498 203 324
f 324 203 55
f 324 55 204
f 204 55 323
f 204 323 466
f 38 192 317
f 317 192 39
f 317 39 318
f 318 39 470
f 318 470 469
f 471 453 318
f 318 453 452
f 318 452 189
f 189 452 314
f 189 314 313
f 313 314 185
f 313 185 184
f 184 185 309
f 184 309 308
f 308 309 438
f 308 438 307
f 307 438 359
f 307 359 182
f 182 359 64
f 182 64 363
f 473 464 107
f 107 464 465
f 107 465 105
f 105 465 461
f 105 461 462
f 9 283 118
f 118 283 8
f 118 8 277
f 277 8 116
f 277 116 25
f 25 116 276
f 25 276 117
f 117 276 24
f 117 24 296
f 296 24 166
f 296 166 22
f 22 166 275
f 22 275 161
f 161 275 7
f 161 7 293
f 132 283 474
f 326 43 210
f 210 43 355
f 210 355 41
f 41 355 207
f 41 207 325
f 325 207 61
f 325 61 209
f 209 61 332
f 209 332 44
f 44 332 220
f 44 220 334
f 334 220 63
f 334 63 224
f 224 63 358
f 224 358 62
f 62 358 252
f 62 252 356
f 356 252 45
f 356 45 239
f 239 45 346
f 239 346 42
f 42 346 214
f 42 214 329
f 329 214 56
f 329 56 215
f 215 56 349
f 215 349 477
f 215 478 329
f 345 41 238
f 238 41 321
f 238 321 52
f 52 321 243
f 52 243 348
f 348 243 54
f 348 54 200
f 200 54 322
f 200 322 55
f 55 322 201
f 55 201 323
f 323 201 42
f 323 42 202
f 202 42 329
f 202 329 479
f 202 480 323
f 118 277 483
f 81 382 80
f 80 382 381
f 80 381 79
f 79 381 380
f 79 380 78
f 78 380 379
f 78 379 330
f 330 379 336
f 330 336 46
f 46 336 229
f 46 229 337
f 337 229 49
f 337 49 230
f 230 49 341
f 230 341 50
f 50 341 342
f 50 342 232
f 232 342 51
f 232 51 338
f 338 51 233
f 338 233 48
f 48 233 339
f 48 339 235
f 235 339 17
f 235 17 353
f 353 17 177
f 353 177 34
f 34 177 301
f 34 301 143
f 143 301 33
f 143 33 288
f 288 33 142
f 288 142 31
f 31 142 300
f 31 300 176
f 176 300 12
f 176 12 302
f 302 12 164
f 302 164 13
f 235 353 48
f 48 353 249
f 48 249 352
f 352 249 60
f 352 60 225
f 225 60 335
f 225 335 59
f 59 335 227
f 59 227 354
f 354 227 32
f 354 32 178
f 178 32 302
f 178 302 484
f 178 485 354
f 294 131 26
f 294 26 168
f 168 26 299
f 168 299 23
f 23 299 174
f 23 174 298
f 298 174 29
f 298 29 170
f 170 29 282
f 170 282 28
f 28 282 130
f 28 130 328
f 328 130 27
f 328 27 213
f 213 27 349
f 213 349 58
f 58 349 247
f 58 247 351
f 351 247 56
f 351 56 244
f 244 56 346
f 244 346 53
f 53 346 240
f 53 240 347
f 347 240 45
f 347 45 242
f 242 45 354
f 242 354 13
f 242 486 347
f 328 213 58
f 328 58 245
f 245 58 351
f 245 351 57
f 57 351 248
f 57 248 350
f 350 248 53
f 350 53 241
f 241 53 347
f 241 347 487
f 241 488 350
f 245 57 328
f 328 57 246
f 328 246 28
f 28 246 350
f 28 350 173
f 173 350 489
f 170 28 298
f 298 28 173
f 298 173 490
f 12 294 163
f 12 163 295
f 295 163 23
f 295 23 165
f 165 23 298
f 165 298 488
f 165 487 295
f 486 164 295
f 295 164 12
f 33 301 175
f 175 301 16
f 175 16 300
f 300 16 140
f 300 140 12
f 12 140 286
f 12 286 138
f 138 286 491
f 536 535 410
f 410 535 269
f 410 269 409
f 409 269 406
f 409 406 408
f 408 406 405
f 408 405 407
f 407 405 404
f 407 404 14
f 14 404 133
f 14 133 284
f 284 133 10
f 284 10 135
f 135 10 305
f 135 305 492
f 330 46 216
f 216 46 331
f 216 331 43
f 43 331 217
f 43 217 357
f 357 217 47
f 48 352 222
f 222 352 45
f 222 45 333
f 333 45 221
f 333 221 500
f 503 379 82
f 82 379 380
f 82 380 83
f 83 380 381
f 83 381 84
f 84 381 382
f 84 382 85
f 336 379 504
f 522 494 368
f 522 368 369
f 369 368 69
f 369 69 70
f 70 69 365
f 70 365 366
f 366 365 66
f 366 66 67
f 65 361 66
f 66 361 507
f 66 507 508
f 262 263 396
f 396 263 397
f 396 397 260
f 260 397 261
f 260 261 393
f 393 261 511
f 393 511 258
f 258 511 512
f 258 512 442
f 366 71 70
f 70 71 370
f 70 370 369
f 369 370 524
f 369 524 523
f 40 320 195
f 195 320 495
f 195 495 319
f 319 495 190
f 319 190 371
f 371 190 72
f 371 72 372
f 372 72 73
f 372 73 373
f 373 73 74
f 373 74 374
f 374 74 75
f 525 524 370
f 533 527 402
f 402 527 526
f 402 526 264
f 261 397 517
f 517 397 529
f 517 529 528
f 85 386 84
f 84 386 385
f 84 385 83
f 83 385 384
f 83 384 82
f 82 384 537
f 271 412 272
f 272 412 413
f 272 413 273
f 273 413 414
f 273 414 538
f 538 414 539
f 540 389 258
f 258 389 257
f 258 257 393
f 393 257 392
f 393 392 260
f 260 392 259
f 260 259 396
f 396 259 541
f 396 541 262
f 263 545 397
f 538 536 410
f 538 410 273
f 273 410 409
f 273 409 272
f 272 409 408
f 272 408 271
f 271 408 407
f 271 407 547
f 416 429 415
f 415 429 417
f 415 417 430
f 419 432 415
f 415 432 420
f 415 420 421
f 573 554 433
f 433 554 553
f 433 553 422
f 423 434 555
f 555 434 556
f 435 425 559
f 559 425 436
f 559 436 560
f 578 426 561
f 561 426 427
f 561 427 562
f 565 566 428
f 428 566 563
f 428 563 564
f 571 572 428
f 428 572 569
f 428 569 570
f 433 574 573
f 575 576 557
f 557 576 424
f 557 424 435
f 561 577 578
f 93 2 91
f 93 91 1
f 1 91 89
f 1 89 87
f 87 89 90
f 87 90 88
f 185 314 443
f 185 443 310
f 310 443 437
f 310 437 438
f 438 360 359
f 359 360 64
f 452 444 314
f 314 444 443
f 447 259 391
f 447 391 446
f 446 391 95
f 446 95 98
f 98 95 97
f 98 97 100
f 100 107 105
f 100 105 98
f 98 105 448
f 98 448 446
f 402 546 401
f 401 546 544
f 401 544 400
f 400 544 543
f 400 543 399
f 399 543 102
f 399 102 104
f 535 534 269
f 269 534 270
f 269 270 406
f 406 270 268
f 406 268 405
f 405 268 267
f 405 267 404
f 404 267 121
f 404 121 10
f 10 121 110
f 10 110 122
f 122 110 399
f 122 399 111
f 111 399 104
f 111 104 274
f 274 104 4
f 274 4 113
f 4 106 292
f 292 106 5
f 292 5 160
f 105 462 448
f 5 108 278
f 278 108 6
f 278 6 120
f 204 468 324
f 324 468 193
f 324 193 498
f 476 349 172
f 476 172 297
f 297 172 27
f 297 27 129
f 129 27 282
f 129 282 30
f 30 282 169
f 30 169 299
f 299 169 29
f 299 29 174
f 343 158 21
f 21 158 157
f 21 157 152
f 152 157 20
f 152 20 291
f 291 20 151
f 291 151 16
f 16 151 290
f 16 290 139
f 139 290 15
f 139 15 286
f 12 138 306
f 306 138 15
f 306 15 181
f 181 15 305
f 181 305 37
f 37 305 136
f 37 136 285
f 285 136 35
f 411 146 18
f 18 146 407
f 18 407 147
f 147 407 14
f 147 14 289
f 289 14 134
f 289 134 15
f 15 134 284
f 15 284 135
f 411 18 155
f 155 18 148
f 155 148 19
f 19 148 289
f 19 289 149
f 149 289 15
f 149 15 290
f 155 19 156
f 156 19 150
f 156 150 20
f 20 150 290
f 20 290 151
f 157 156 20
f 65 66 365
f 65 365 364
f 364 365 69
f 364 69 68
f 68 69 368
f 68 368 367
f 367 368 494
f 367 494 493
f 182 363 311
f 311 363 186
f 311 186 187
f 187 186 315
f 187 315 316
f 316 315 191
f 316 191 38
f 237 498 344
f 344 498 497
f 344 497 496
f 495 320 496
f 496 320 197
f 221 45 358
f 221 358 499
f 499 358 253
f 499 253 357
f 357 253 63
f 357 63 219
f 219 63 332
f 219 332 61
f 337 230 50
f 337 50 231
f 231 50 338
f 231 338 499
f 499 338 223
f 499 223 333
f 333 223 48
f 333 48 222
f 46 337 218
f 46 218 331
f 331 218 499
f 331 499 217
f 229 336 49
f 49 336 505
f 49 505 506
f 341 49 506
f 16 301 154
f 16 154 291
f 291 154 17
f 291 17 153
f 153 17 339
f 153 339 21
f 21 339 234
f 21 234 343
f 343 234 51
f 343 51 342
f 511 261 518
f 518 261 517
f 40 195 319
f 40 319 194
f 194 319 371
f 194 371 375
f 375 371 372
f 375 372 376
f 376 372 373
f 376 373 377
f 377 373 374
f 377 374 378
f 216 43 330
f 330 43 205
f 330 205 78
f 78 205 76
f 78 76 79
f 79 76 255
f 79 255 80
f 80 255 77
f 80 77 81
f 81 77 254
f 110 121 267
f 110 267 265
f 265 267 268
f 265 268 266
f 266 268 270
f 266 270 403
f 403 270 534
f 403 534 533
f 430 418 415
f 415 418 431
f 415 431 419
f 559 558 435
f 435 558 557
f 570 567 428
f 428 567 568
f 428 568 565
f 1 87 387
f 387 87 88
f 387 88 86
f 438 309 310
f 310 309 185
f 90 89 92
f 92 89 91
f 92 91 2
f 111 274 122
f 112 7 280
f 280 7 126
f 24 276 115
f 24 115 275
f 275 115 8
f 275 8 114
f 114 8 281
f 114 281 7
f 7 281 125
f 7 125 279
f 279 125 11
f 279 11 124
f 114 7 275
f 162 304 8
f 8 304 128
f 8 128 281
f 281 128 36
f 281 36 127
f 127 36 287
f 127 287 11
f 116 8 276
f 276 8 115
f 133 404 10
f 123 35 303
f 303 35 179
f 303 179 10
f 10 179 305
f 127 11 281
f 281 11 125
f 180 12 306
f 134 14 284
f 140 16 286
f 286 16 139
f 177 17 301
f 301 17 154
f 148 18 289
f 289 18 147
f 150 19 290
f 290 19 149
f 153 21 291
f 291 21 152
f 159 22 293
f 293 22 161
f 168 23 294
f 294 23 163
f 166 24 275
f 119 25 296
f 296 25 117
f 129 30 297
f 297 30 171
f 297 171 26
f 26 171 299
f 130 282 27
f 172 349 27
f 169 282 29
f 171 30 299
f 176 302 31
f 31 302 145
f 31 145 288
f 288 145 32
f 288 32 144
f 144 32 335
f 144 335 34
f 34 335 226
f 34 226 353
f 353 226 60
f 353 60 249
f 227 335 32
f 145 302 32
f 142 33 300
f 300 33 175
f 144 34 288
f 288 34 143
f 179 35 305
f 305 35 136
f 141 287 36
f 128 304 36
f 181 37 306
f 137 37 285
f 38 317 316
f 316 317 188
f 316 188 187
f 187 188 312
f 187 312 311
f 311 312 183
f 311 183 182
f 182 183 307
f 317 318 189
f 317 189 188
f 188 189 313
f 188 313 312
f 312 313 184
f 312 184 183
f 183 184 308
f 183 308 307
f 40 194 206
f 325 209 44
f 325 44 208
f 208 44 327
f 208 327 41
f 41 327 199
f 41 199 321
f 321 199 42
f 321 42 198
f 198 42 322
f 198 322 54
f 208 41 325
f 210 41 326
f 326 41 196
f 201 322 42
f 44 334 212
f 212 334 62
f 212 62 327
f 327 62 211
f 327 211 42
f 42 211 356
f 42 356 239
f 199 327 42
f 219 61 357
f 357 61 251
f 357 251 43
f 43 251 355
f 212 327 44
f 252 358 45
f 240 346 45
f 225 59 352
f 352 59 250
f 352 250 45
f 45 250 354
f 231 499 337
f 337 499 218
f 223 338 48
f 232 338 50
f 233 51 339
f 339 51 234
f 238 52 345
f 345 52 236
f 244 53 351
f 351 53 248
f 198 54 321
f 321 54 243
f 200 55 348
f 348 55 203
f 247 349 56
f 214 346 56
f 246 57 350
f 250 59 354
f 226 335 60
f 251 61 355
f 355 61 207
f 211 62 356
f 224 62 334
f 220 332 63
f 253 358 63
f 533 402 403
f 403 402 401
f 403 401 266
f 266 401 400
f 266 400 265
f 265 400 399
f 265 399 110
f 389 388 257
f 257 388 256
f 257 256 392
f 392 256 391
f 392 391 259
