# rich_10
v -0.23850005865097046 -0.017859306186437607 -4.999999418942025e-07
v -0.21020293235778809 0.00982818566262722 -4.999999418942025e-07
v -0.23850005865097046 0.03750007599592209 -4.999999418942025e-07
v -0.23850005865097046 0.19795317947864532 -4.999999418942025e-07
v -0.13239043951034546 0.30400004982948303 -4.999999418942025e-07
v 0.23850005865097046 0.30400004982948303 -4.999999418942025e-07
v 0.23850005865097046 0.14700007438659668 -4.999999418942025e-07
v 0.19749999046325684 0.14700007438659668 -4.999999418942025e-07
v 0.19749999046325684 -0.145999938249588 -4.999999418942025e-07
v 0.23850005865097046 -0.145999938249588 -4.999999418942025e-07
v 0.23850005865097046 -0.3039999306201935 -4.999999418942025e-07
v -0.12962493300437927 -0.3039999306201935 -4.999999418942025e-07
v -0.23850005865097046 -0.195078045129776 -4.999999418942025e-07
v 0.014499816112220287 0.08500007539987564 -4.999999418942025e-07
v 0.014499816112220287 0.14700007438659668 -4.999999418942025e-07
v -0.05749969184398651 0.14700007438659668 -4.999999418942025e-07
v -0.05749969184398651 0.08500007539987564 -4.999999418942025e-07
v 0.014499816112220287 -0.145999938249588 -4.999999418942025e-07
v 0.014499816112220287 -0.07099992781877518 -4.999999418942025e-07
v -0.05749969184398651 -0.07099992781877518 -4.999999418942025e-07
v -0.05749969184398651 -0.145999938249588 -4.999999418942025e-07
g submesh_0
f 7 6 8
f 8 6 18
f 8 18 9
f 9 18 12
f 9 12 10
f 10 12 11
f 3 2 17
f 17 2 1
f 17 1 14
f 14 1 20
f 14 20 19
f 15 14 6
f 6 14 19
f 6 19 18
f 1 13 21
f 21 13 12
f 21 12 18
f 21 20 1
f 4 3 16
f 4 16 5
f 5 16 15
f 5 15 6
f 16 3 17
