# scene_bar_00
v 0.0024606299120932817 -0.0024606301449239254 -0.0003270089509896934
v -0.0024606299120932817 -0.0024606301449239254 -0.0003270089509896934
v 0.0024606299120932817 0.002460629679262638 -0.00032700871815904975
v -0.0024606299120932817 0.002460629679262638 -0.00032700871815904975
v 0.0024606299120932817 -0.0024606299120932817 0.0026802532374858856
v -0.0024606299120932817 -0.0024606299120932817 0.0026802532374858856
v 0.0024606299120932817 0.0024606299120932817 0.0026802532374858856
v -0.0024606299120932817 0.0024606299120932817 0.0026802532374858856
v -0.0024606299120932817 -0.0024606301449239254 -0.0003270089509896934
v -0.0024606299120932817 -0.0024606299120932817 0.0026802532374858856
v 0.0024606299120932817 -0.0024606301449239254 -0.0003270089509896934
v 0.0024606299120932817 -0.0024606299120932817 0.0026802532374858856
v -0.0024606299120932817 0.002460629679262638 -0.00032700871815904975
v -0.0024606299120932817 0.0024606299120932817 0.0026802532374858856
v -0.0024606299120932817 -0.0024606301449239254 -0.0003270089509896934
v -0.0024606299120932817 -0.0024606299120932817 0.0026802532374858856
v 0.0024606299120932817 0.002460629679262638 -0.00032700871815904975
v 0.0024606299120932817 0.0024606299120932817 0.0026802532374858856
v -0.0024606299120932817 0.002460629679262638 -0.00032700871815904975
v -0.0024606299120932817 0.0024606299120932817 0.0026802532374858856
v 0.0024606299120932817 -0.0024606301449239254 -0.0003270089509896934
v 0.0024606299120932817 -0.0024606299120932817 0.0026802532374858856
v 0.0024606299120932817 0.002460629679262638 -0.00032700871815904975
v 0.0024606299120932817 0.0024606299120932817 0.0026802532374858856
g submesh_0
f 2 1 4
f 4 1 3
f 7 5 8
f 8 5 6
g submesh_1
f 12 11 10
f 10 11 9
f 16 15 14
f 14 15 13
f 20 19 18
f 18 19 17
f 24 23 22
f 22 23 21
