# Plane02
v 1.1791187524795532 -0.9055752158164978 4.237472039925194e-10
v 0.9755666255950928 -0.7463997602462769 -1.2253849046572896e-09
v 0.7508338689804077 -0.6188634634017944 -2.4173527624071767e-09
v 0.5097997188568115 -0.5257353186607361 -2.817853284042826e-09
v 0.25769731402397156 -0.46903714537620544 -2.1097525948476914e-09
v -1.574688573979799e-10 -0.44999998807907104 -6.8831824624711694e-18
v -0.25769731402397156 -0.46903714537620544 3.774035750581106e-09
v -0.5097997188568115 -0.5257353186607361 9.438845260945072e-09
v -0.7508338689804077 -0.6188634634017944 1.7179869971073458e-08
v -0.9755666255950928 -0.7463997602462769 2.713747981886172e-08
v -1.1791187524795532 -0.9055752158164978 3.94039112450173e-08
v 1.784248948097229 -0.2393789440393448 3.709470419721583e-08
v 1.4762325286865234 0.0014862234238535166 2.730852877164125e-08
v 1.1361658573150635 0.19447483122348785 1.8214141306316378e-08
v 0.7714317440986633 0.3353969156742096 1.0317407372895104e-08
v 0.3899489641189575 0.42119285464286804 4.098209327452196e-09
v -2.3828272688319885e-10 0.44999998807907104 -1.041566884890745e-17
v -0.3899489641189575 0.42119285464286804 -1.5798081731688285e-09
v -0.7714317440986633 0.3353969156742096 -2.9848706839530337e-10
v -1.1361658573150635 0.19447483122348785 4.124576680197833e-09
v -1.4762325286865234 0.001486223191022873 1.1901783558698753e-08
v -1.784248948097229 -0.2393789440393448 2.317271530216658e-08
g submesh_0
f 22 11 10
f 22 10 21
f 21 10 9
f 21 9 20
f 20 9 8
f 20 8 19
f 19 8 7
f 19 7 18
f 18 7 6
f 18 6 17
f 17 6 5
f 17 5 16
f 16 5 4
f 16 4 15
f 15 4 3
f 15 3 14
f 14 3 2
f 14 2 13
f 13 2 1
f 13 1 12
