# 03
v -0.21849997341632843 0.0024375151842832565 -0.07499999552965164
v -0.19273445010185242 0.029203128069639206 -0.07499999552965164
v -0.21849997341632843 0.05871877446770668 -0.07499999552965164
v -0.21849997341632843 0.19703125953674316 -0.07499999552965164
v -0.11131247878074646 0.30399999022483826 -0.07499999552965164
v 0.10862495005130768 0.30399999022483826 -0.07499999552965164
v 0.2074999213218689 0.20743748545646667 -0.07499999552965164
v 0.2074999213218689 0.09800001233816147 -0.07499999552965164
v 0.03749992325901985 0.09800001233816147 -0.07499999552965164
v 0.03749992325901985 0.1509999930858612 -0.07499999552965164
v -0.03750007599592209 0.1509999930858612 -0.07499999552965164
v -0.03750007599592209 0.09300000965595245 -0.07499999552965164
v 0.01728118769824505 0.09300000965595245 -0.07499999552965164
v 0.01728118769824505 -0.04399999603629112 -0.07499999552965164
v -0.03750007599592209 -0.04399999603629112 -0.07499999552965164
v -0.03750007599592209 -0.1459999978542328 -0.07499999552965164
v 0.03749992325901985 -0.1459999978542328 -0.07499999552965164
v 0.03749992325901985 -0.054999999701976776 -0.07499999552965164
v 0.21849997341632843 -0.054999999701976776 -0.07499999552965164
v 0.21849997341632843 -0.19754688441753387 -0.07499999552965164
v 0.11224998533725739 -0.30399999022483826 -0.07499999552965164
v -0.11224998533725739 -0.30399999022483826 -0.07499999552965164
v -0.21849997341632843 -0.19693748652935028 -0.07499999552965164
v -0.21849997341632843 0.0024375151842832565 0.07499999552965164
v -0.19273445010185242 0.029203128069639206 0.07499999552965164
v -0.21849997341632843 0.05871877446770668 0.07499999552965164
v -0.21849997341632843 0.19703125953674316 0.07499999552965164
v -0.11131247878074646 0.30399999022483826 0.07499999552965164
v 0.10862495005130768 0.30399999022483826 0.07499999552965164
v 0.2074999213218689 0.20743748545646667 0.07499999552965164
v 0.2074999213218689 0.09800001233816147 0.07499999552965164
v 0.03749992325901985 0.09800001233816147 0.07499999552965164
v 0.03749992325901985 0.1509999930858612 0.07499999552965164
v -0.03750007599592209 0.1509999930858612 0.07499999552965164
v -0.03750007599592209 0.09300000965595245 0.07499999552965164
v 0.01728118769824505 0.09300000965595245 0.07499999552965164
v 0.01728118769824505 -0.04399999603629112 0.07499999552965164
v -0.03750007599592209 -0.04399999603629112 0.07499999552965164
v -0.03750007599592209 -0.1459999978542328 0.07499999552965164
v 0.03749992325901985 -0.1459999978542328 0.07499999552965164
v 0.03749992325901985 -0.054999999701976776 0.07499999552965164
v 0.21849997341632843 -0.054999999701976776 0.07499999552965164
v 0.21849997341632843 -0.19754688441753387 0.07499999552965164
v 0.11224998533725739 -0.30399999022483826 0.07499999552965164
v -0.11224998533725739 -0.30399999022483826 0.07499999552965164
v -0.21849997341632843 -0.19693748652935028 0.07499999552965164
v -0.20013359189033508 -0.00496610626578331 -0.10071296244859695
v -0.16782504320144653 0.028596477583050728 -0.10071296244859695
v -0.20013359189033508 0.0656074732542038 -0.10071296244859695
v -0.20013359189033508 0.1894126683473587 -0.10071296244859695
v -0.10371585935354233 0.2856335937976837 -0.10071296244859695
v 0.10114432126283646 0.2856335937976837 -0.10071296244859695
v 0.18913352489471436 0.19970227777957916 -0.10071296244859695
v 0.18913352489471436 0.11636640131473541 -0.10071296244859695
v 0.05586632713675499 0.11636640131473541 -0.10071296244859695
v 0.05586632713675499 0.16936638951301575 -0.10071296244859695
v -0.05586647987365723 0.16936638951301575 -0.10071296244859695
v -0.05586647987365723 0.07463361322879791 -0.10071296244859695
v -0.0010852145496755838 0.07463361322879791 -0.10071296244859695
v -0.0010852145496755838 -0.02563360147178173 -0.10071296244859695
v -0.05586647987365723 -0.02563360147178173 -0.10071296244859695
v -0.05586647987365723 -0.16436639428138733 -0.10071296244859695
v 0.05586632713675499 -0.16436639428138733 -0.10071296244859695
v 0.05586632713675499 -0.07336641103029251 -0.10071296244859695
v 0.20013359189033508 -0.07336641103029251 -0.10071296244859695
v 0.20013359189033508 -0.18994952738285065 -0.10071296244859695
v 0.10463208705186844 -0.28563356399536133 -0.10071296244859695
v -0.10460136085748672 -0.28563356399536133 -0.10071296244859695
v -0.20013359189033508 -0.18937084078788757 -0.10071296244859695
v -0.20013359189033508 -0.00496610626578331 0.10071296244859695
v -0.16782504320144653 0.028596477583050728 0.10071296244859695
v -0.20013359189033508 0.0656074732542038 0.10071296244859695
v -0.20013359189033508 0.1894126683473587 0.10071296244859695
v -0.10371585935354233 0.2856335937976837 0.10071296244859695
v 0.10114432126283646 0.2856335937976837 0.10071296244859695
v 0.18913352489471436 0.19970227777957916 0.10071296244859695
v 0.18913352489471436 0.11636640131473541 0.10071296244859695
v 0.05586632713675499 0.11636640131473541 0.10071296244859695
v 0.05586632713675499 0.16936638951301575 0.10071296244859695
v -0.05586647987365723 0.16936638951301575 0.10071296244859695
v -0.05586647987365723 0.07463361322879791 0.10071296244859695
v -0.0010852145496755838 0.07463361322879791 0.10071296244859695
v -0.0010852145496755838 -0.02563360147178173 0.10071296244859695
v -0.05586647987365723 -0.02563360147178173 0.10071296244859695
v -0.05586647987365723 -0.16436639428138733 0.10071296244859695
v 0.05586632713675499 -0.16436639428138733 0.10071296244859695
v 0.05586632713675499 -0.07336641103029251 0.10071296244859695
v 0.20013359189033508 -0.07336641103029251 0.10071296244859695
v 0.20013359189033508 -0.18994952738285065 0.10071296244859695
v 0.10463208705186844 -0.28563356399536133 0.10071296244859695
v -0.10460136085748672 -0.28563356399536133 0.10071296244859695
v -0.20013359189033508 -0.18937084078788757 0.10071296244859695
v -0.19273445010185242 0.029203128069639206 -0.07499999552965164
v -0.19273445010185242 0.029203128069639206 0.07499999552965164
v -0.11131247878074646 0.30399999022483826 -0.07499999552965164
v -0.11131247878074646 0.30399999022483826 0.07499999552965164
v 0.10862495005130768 0.30399999022483826 -0.07499999552965164
v 0.10862495005130768 0.30399999022483826 0.07499999552965164
v 0.2074999213218689 0.09800001233816147 -0.07499999552965164
v 0.2074999213218689 0.09800001233816147 0.07499999552965164
v 0.03749992325901985 0.09800001233816147 -0.07499999552965164
v 0.03749992325901985 0.09800001233816147 0.07499999552965164
v 0.03749992325901985 0.1509999930858612 -0.07499999552965164
v 0.03749992325901985 0.1509999930858612 0.07499999552965164
v -0.03750007599592209 0.1509999930858612 -0.07499999552965164
v -0.03750007599592209 0.1509999930858612 0.07499999552965164
v -0.03750007599592209 0.09300000965595245 -0.07499999552965164
v -0.03750007599592209 0.09300000965595245 0.07499999552965164
v 0.01728118769824505 0.09300000965595245 -0.07499999552965164
v 0.01728118769824505 0.09300000965595245 0.07499999552965164
v 0.01728118769824505 -0.04399999603629112 -0.07499999552965164
v 0.01728118769824505 -0.04399999603629112 0.07499999552965164
v -0.03750007599592209 -0.04399999603629112 -0.07499999552965164
v -0.03750007599592209 -0.04399999603629112 0.07499999552965164
v -0.03750007599592209 -0.1459999978542328 -0.07499999552965164
v -0.03750007599592209 -0.1459999978542328 0.07499999552965164
v 0.03749992325901985 -0.1459999978542328 -0.07499999552965164
v 0.03749992325901985 -0.1459999978542328 0.07499999552965164
v 0.03749992325901985 -0.054999999701976776 -0.07499999552965164
v 0.03749992325901985 -0.054999999701976776 0.07499999552965164
v 0.21849997341632843 -0.054999999701976776 -0.07499999552965164
v 0.21849997341632843 -0.054999999701976776 0.07499999552965164
v 0.11224998533725739 -0.30399999022483826 -0.07499999552965164
v 0.11224998533725739 -0.30399999022483826 0.07499999552965164
v -0.11224998533725739 -0.30399999022483826 -0.07499999552965164
v -0.11224998533725739 -0.30399999022483826 0.07499999552965164
v -0.19273445010185242 0.029203128069639206 -0.07499999552965164
v -0.21849997341632843 0.0024375151842832565 -0.07499999552965164
v -0.16782504320144653 0.028596477583050728 -0.10071296244859695
v -0.21849997341632843 0.05871877446770668 -0.07499999552965164
v -0.16782504320144653 0.028596477583050728 -0.10071296244859695
v -0.19273445010185242 0.029203128069639206 -0.07499999552965164
v -0.21849997341632843 0.19703125953674316 -0.07499999552965164
v -0.21849997341632843 0.05871877446770668 -0.07499999552965164
v -0.11131247878074646 0.30399999022483826 -0.07499999552965164
v -0.21849997341632843 0.19703125953674316 -0.07499999552965164
v 0.10862495005130768 0.30399999022483826 -0.07499999552965164
v 0.10862495005130768 0.30399999022483826 -0.07499999552965164
v 0.18913352489471436 0.11636640131473541 -0.10071296244859695
v 0.03749992325901985 0.09800001233816147 -0.07499999552965164
v 0.18913352489471436 0.11636640131473541 -0.10071296244859695
v 0.2074999213218689 0.09800001233816147 -0.07499999552965164
v 0.05586632713675499 0.11636640131473541 -0.10071296244859695
v 0.03749992325901985 0.1509999930858612 -0.07499999552965164
v 0.05586632713675499 0.11636640131473541 -0.10071296244859695
v 0.03749992325901985 0.09800001233816147 -0.07499999552965164
v 0.05586632713675499 0.16936638951301575 -0.10071296244859695
v -0.03750007599592209 0.1509999930858612 -0.07499999552965164
v 0.05586632713675499 0.16936638951301575 -0.10071296244859695
v 0.03749992325901985 0.1509999930858612 -0.07499999552965164
v -0.05586647987365723 0.16936638951301575 -0.10071296244859695
v -0.05586647987365723 0.16936638951301575 -0.10071296244859695
v -0.05586647987365723 0.07463361322879791 -0.10071296244859695
v 0.01728118769824505 0.09300000965595245 -0.07499999552965164
v -0.05586647987365723 0.07463361322879791 -0.10071296244859695
v -0.03750007599592209 0.09300000965595245 -0.07499999552965164
v -0.0010852145496755838 0.07463361322879791 -0.10071296244859695
v -0.0010852145496755838 0.07463361322879791 -0.10071296244859695
v -0.0010852145496755838 -0.02563360147178173 -0.10071296244859695
v -0.03750007599592209 -0.04399999603629112 -0.07499999552965164
v -0.0010852145496755838 -0.02563360147178173 -0.10071296244859695
v 0.01728118769824505 -0.04399999603629112 -0.07499999552965164
v -0.05586647987365723 -0.02563360147178173 -0.10071296244859695
v -0.05586647987365723 -0.02563360147178173 -0.10071296244859695
v -0.05586647987365723 -0.16436639428138733 -0.10071296244859695
v 0.03749992325901985 -0.1459999978542328 -0.07499999552965164
v -0.05586647987365723 -0.16436639428138733 -0.10071296244859695
v -0.03750007599592209 -0.1459999978542328 -0.07499999552965164
v 0.05586632713675499 -0.16436639428138733 -0.10071296244859695
v 0.03749992325901985 -0.054999999701976776 -0.07499999552965164
v 0.05586632713675499 -0.16436639428138733 -0.10071296244859695
v 0.03749992325901985 -0.1459999978542328 -0.07499999552965164
v 0.05586632713675499 -0.07336641103029251 -0.10071296244859695
v 0.21849997341632843 -0.054999999701976776 -0.07499999552965164
v 0.05586632713675499 -0.07336641103029251 -0.10071296244859695
v 0.03749992325901985 -0.054999999701976776 -0.07499999552965164
v 0.20013359189033508 -0.07336641103029251 -0.10071296244859695
v 0.20013359189033508 -0.07336641103029251 -0.10071296244859695
v -0.11224998533725739 -0.30399999022483826 -0.07499999552965164
v 0.11224998533725739 -0.30399999022483826 -0.07499999552965164
v -0.21849997341632843 -0.19693748652935028 -0.07499999552965164
v -0.21849997341632843 0.0024375151842832565 -0.07499999552965164
v -0.21849997341632843 -0.19693748652935028 -0.07499999552965164
v -0.16782504320144653 0.028596477583050728 0.10071296244859695
v -0.16782504320144653 0.028596477583050728 0.10071296244859695
v -0.11131247878074646 0.30399999022483826 0.07499999552965164
v -0.11131247878074646 0.30399999022483826 0.07499999552965164
v 0.10862495005130768 0.30399999022483826 0.07499999552965164
v 0.2074999213218689 0.20743748545646667 0.07499999552965164
v 0.2074999213218689 0.20743748545646667 0.07499999552965164
v 0.18913352489471436 0.11636640131473541 0.10071296244859695
v 0.2074999213218689 0.09800001233816147 0.07499999552965164
v 0.2074999213218689 0.09800001233816147 0.07499999552965164
v 0.05586632713675499 0.11636640131473541 0.10071296244859695
v 0.03749992325901985 0.09800001233816147 0.07499999552965164
v 0.18913352489471436 0.11636640131473541 0.10071296244859695
v 0.05586632713675499 0.16936638951301575 0.10071296244859695
v 0.05586632713675499 0.11636640131473541 0.10071296244859695
v 0.03749992325901985 0.1509999930858612 0.07499999552965164
v -0.05586647987365723 0.16936638951301575 0.10071296244859695
v -0.03750007599592209 0.1509999930858612 0.07499999552965164
v 0.05586632713675499 0.16936638951301575 0.10071296244859695
v -0.03750007599592209 0.1509999930858612 0.07499999552965164
v -0.05586647987365723 0.07463361322879791 0.10071296244859695
v -0.03750007599592209 0.09300000965595245 0.07499999552965164
v -0.05586647987365723 0.16936638951301575 0.10071296244859695
v -0.03750007599592209 0.09300000965595245 0.07499999552965164
v -0.0010852145496755838 0.07463361322879791 0.10071296244859695
v 0.01728118769824505 0.09300000965595245 0.07499999552965164
v -0.05586647987365723 0.07463361322879791 0.10071296244859695
v 0.01728118769824505 0.09300000965595245 0.07499999552965164
v -0.0010852145496755838 -0.02563360147178173 0.10071296244859695
v 0.01728118769824505 -0.04399999603629112 0.07499999552965164
v -0.0010852145496755838 0.07463361322879791 0.10071296244859695
v 0.01728118769824505 -0.04399999603629112 0.07499999552965164
v -0.05586647987365723 -0.02563360147178173 0.10071296244859695
v -0.03750007599592209 -0.04399999603629112 0.07499999552965164
v -0.0010852145496755838 -0.02563360147178173 0.10071296244859695
v -0.03750007599592209 -0.04399999603629112 0.07499999552965164
v -0.05586647987365723 -0.16436639428138733 0.10071296244859695
v -0.03750007599592209 -0.1459999978542328 0.07499999552965164
v -0.05586647987365723 -0.02563360147178173 0.10071296244859695
v -0.03750007599592209 -0.1459999978542328 0.07499999552965164
v 0.05586632713675499 -0.16436639428138733 0.10071296244859695
v 0.03749992325901985 -0.1459999978542328 0.07499999552965164
v -0.05586647987365723 -0.16436639428138733 0.10071296244859695
v 0.05586632713675499 -0.07336641103029251 0.10071296244859695
v 0.05586632713675499 -0.16436639428138733 0.10071296244859695
v 0.03749992325901985 -0.054999999701976776 0.07499999552965164
v 0.20013359189033508 -0.07336641103029251 0.10071296244859695
v 0.21849997341632843 -0.054999999701976776 0.07499999552965164
v 0.05586632713675499 -0.07336641103029251 0.10071296244859695
v 0.21849997341632843 -0.054999999701976776 0.07499999552965164
v 0.21849997341632843 -0.19754688441753387 0.07499999552965164
v 0.20013359189033508 -0.07336641103029251 0.10071296244859695
v 0.21849997341632843 -0.19754688441753387 0.07499999552965164
v 0.11224998533725739 -0.30399999022483826 0.07499999552965164
v -0.11224998533725739 -0.30399999022483826 0.07499999552965164
g submesh_0
f 189 188 76
f 76 188 75
f 76 75 79
f 79 75 74
f 79 74 80
f 80 74 73
f 80 73 72
f 72 73 26
f 72 26 94
f 94 26 3
f 94 3 93
f 3 26 4
f 4 26 27
f 4 27 5
f 5 27 28
f 29 6 96
f 96 6 95
f 31 8 30
f 30 8 7
f 30 7 98
f 98 7 97
f 32 9 100
f 100 9 99
f 197 33 102
f 102 33 10
f 102 10 101
f 34 11 104
f 104 11 103
f 152 105 12
f 12 105 106
f 12 106 35
f 36 13 108
f 108 13 107
f 158 109 14
f 14 109 110
f 14 110 37
f 38 15 112
f 112 15 111
f 164 113 16
f 16 113 114
f 16 114 39
f 40 17 116
f 116 17 115
f 227 41 118
f 118 41 18
f 118 18 117
f 42 19 120
f 120 19 119
f 66 178 20
f 66 20 21
f 21 20 43
f 21 43 44
f 45 22 124
f 124 22 123
f 25 2 24
f 24 2 1
f 24 1 46
f 46 1 23
f 46 23 126
f 126 23 125
f 238 237 91
f 91 237 90
f 91 90 86
f 86 90 89
f 86 89 87
f 87 89 88
f 72 71 81
f 81 71 84
f 81 84 82
f 82 84 83
f 78 77 79
f 79 77 76
f 179 181 68
f 179 68 67
f 67 68 63
f 67 63 66
f 66 63 64
f 66 64 65
f 48 49 58
f 48 58 61
f 61 58 59
f 61 59 60
f 138 7 52
f 52 7 53
f 52 53 56
f 56 53 54
f 56 54 55
f 128 127 47
f 47 127 129
f 132 130 131
f 131 130 49
f 52 56 51
f 51 56 57
f 51 57 50
f 50 57 49
f 50 49 133
f 133 49 134
f 137 52 51
f 137 51 135
f 135 51 50
f 135 50 136
f 139 53 8
f 8 53 7
f 142 140 141
f 141 140 143
f 146 144 145
f 145 144 147
f 150 148 149
f 149 148 151
f 153 152 12
f 156 154 155
f 155 154 157
f 159 158 14
f 162 160 161
f 161 160 163
f 165 164 16
f 168 166 167
f 167 166 169
f 172 170 171
f 171 170 173
f 176 174 175
f 175 174 177
f 180 179 67
f 61 62 47
f 47 62 69
f 47 69 182
f 182 69 183
f 185 72 94
f 26 73 27
f 27 73 74
f 27 74 186
f 192 190 191
f 191 190 76
f 195 193 194
f 194 193 196
f 198 197 102
f 201 199 200
f 200 199 202
f 205 203 204
f 204 203 206
f 209 207 208
f 208 207 210
f 213 211 212
f 212 211 214
f 217 215 216
f 216 215 218
f 221 219 220
f 220 219 222
f 225 223 224
f 224 223 226
f 228 227 118
f 231 229 230
f 230 229 232
f 234 233 89
f 89 233 235
f 178 121 20
f 20 121 122
f 20 122 43
f 24 46 70
f 70 46 92
f 70 92 85
f 85 92 91
f 85 91 86
f 85 84 70
f 70 84 71
f 80 72 81
f 181 69 68
f 68 69 62
f 68 62 63
f 48 61 47
f 58 49 57
f 67 66 21
f 25 24 184
f 184 24 70
f 188 187 75
f 75 187 74
f 237 236 90
f 90 236 89
f 91 92 126
f 126 92 46
