# beer_yard_stand_00
v 0.0034841534215956926 -0.0013727621408179402 0.008242497220635414
v -0.0013423369964584708 -0.001372762257233262 0.008242497220635414
v -0.0013423369964584708 -0.0007324796752072871 0.008242497220635414
v 0.0034841534215956926 0.001364310970529914 0.008242497220635414
v -0.0013423369964584708 0.0007324801408685744 0.008242497220635414
v -0.0013423369964584708 0.001364310854114592 0.008242497220635414
v 0.0034841534215956926 -0.001372762257233262 0.008587491698563099
v -0.0013423369964584708 -0.0013727624900639057 0.008587491698563099
v -0.0013423369964584708 -0.0007324798498302698 0.008587491698563099
v 0.0034841534215956926 0.001364310970529914 0.008587490767240524
v -0.0013423369964584708 0.0007324799662455916 0.008587491698563099
v -0.0013423369964584708 0.001364310854114592 0.008587490767240524
v -0.0004935681936331093 0.0007298238924704492 0.008242540061473846
v -7.220448605949059e-05 0.0008427280117757618 0.008242540061473846
v 0.0003491590905468911 0.0007298238924704492 0.008242540061473846
v 0.0006576188025064766 0.0004213641514070332 0.008242540061473846
v 0.0007705228636041284 5.370729416753761e-10 0.008242540061473846
v 0.0006576188607141376 -0.00042136324918828905 0.008242540061473846
v 0.00034915938158519566 -0.0007298227283172309 0.008242540061473846
v -7.220417319331318e-05 -0.0008427269640378654 0.008242540061473846
v -0.0004935679608024657 -0.0007298231939785182 0.008242540061473846
v -0.0004935681936331093 0.0007298238342627883 0.00858701765537262
v -7.220448605949059e-05 0.0008427278371527791 0.00858701765537262
v 0.0003491590905468911 0.0007298238342627883 0.00858701765537262
v 0.0006576188025064766 0.00042136426782235503 0.00858701765537262
v 0.0007705228636041284 5.606925479462177e-10 0.00858701765537262
v 0.0006576188607141376 -0.00042136304546147585 0.00858701765537262
v 0.00034915938158519566 -0.0007298229611478746 0.00858701765537262
v -7.220417319331318e-05 -0.0008427270804531872 0.00858701765537262
v -0.0004935679608024657 -0.0007298232521861792 0.00858701765537262
v 0.0034841534215956926 -0.0013727620244026184 0.0
v -0.0013423369964584708 -0.0013727620244026184 0.0
v 0.0034841534215956926 0.0013643114361912012 0.0
v -0.0013423369964584708 0.0013643114361912012 0.0
v 0.0034841534215956926 -0.0013727620244026184 0.0003312161425128579
v -0.0013423369964584708 -0.0013727620244026184 0.0003312160260975361
v 0.0034841534215956926 0.0013643112033605576 0.00033121585147455335
v -0.0013423369964584708 0.0013643112033605576 0.0003312160260975361
v 0.00321980775333941 -0.0002744144876487553 0.00028669447056017816
v 0.0026709772646427155 -0.0002744144876487553 0.00028669447056017816
v 0.00321980775333941 0.00027441527345217764 0.00028669447056017816
v 0.0026709772646427155 0.00027441527345217764 0.00028669447056017816
v 0.00321980775333941 -0.00027441492420621216 0.008281347341835499
v 0.0026709772646427155 -0.00027441492420621216 0.008281347341835499
v 0.00321980775333941 0.0002744148368947208 0.008281347341835499
v 0.0026709772646427155 0.0002744148368947208 0.008281347341835499
v -0.0013423369964584708 -0.001372762257233262 0.008242497220635414
v -0.0013423369964584708 -0.0013727624900639057 0.008587491698563099
v -0.0013423369964584708 0.001364310854114592 0.008242497220635414
v -0.0013423369964584708 0.001364310854114592 0.008587490767240524
v 0.0034841534215956926 0.001364310970529914 0.008242497220635414
v 0.0034841534215956926 -0.001372762257233262 0.008587491698563099
v 0.0034841534215956926 -0.0013727621408179402 0.008242497220635414
v 0.0034841534215956926 0.001364310970529914 0.008587490767240524
v 0.0007705228636041284 5.606925479462177e-10 0.00858701765537262
v 0.0007705228636041284 5.370729416753761e-10 0.008242540061473846
v 0.0007705228636041284 5.606925479462177e-10 0.00858701765537262
v 0.0034841534215956926 -0.001372762257233262 0.008587491698563099
v 0.0034841534215956926 0.001364310970529914 0.008587490767240524
v 0.0006576188607141376 -0.00042136304546147585 0.00858701765537262
v 0.0034841534215956926 -0.001372762257233262 0.008587491698563099
v 0.0006576188025064766 0.00042136426782235503 0.00858701765537262
v 0.0003491590905468911 0.0007298238342627883 0.00858701765537262
v 0.00034915938158519566 -0.0007298229611478746 0.00858701765537262
v -7.220417319331318e-05 -0.0008427270804531872 0.00858701765537262
v -7.220448605949059e-05 0.0008427278371527791 0.00858701765537262
v -0.0013423369964584708 0.0007324799662455916 0.008587491698563099
v -0.0004935681936331093 0.0007298238342627883 0.00858701765537262
v -0.0013423369964584708 0.001364310854114592 0.008587490767240524
v -0.0013423369964584708 -0.0007324798498302698 0.008587491698563099
v -0.0013423369964584708 -0.0013727624900639057 0.008587491698563099
v -0.0004935679608024657 -0.0007298232521861792 0.00858701765537262
v -0.0013423369964584708 0.001364310854114592 0.008587490767240524
v -0.0013423369964584708 0.0007324799662455916 0.008587491698563099
v -0.0013423369964584708 0.0007324801408685744 0.008242497220635414
v -0.0013423369964584708 -0.0007324798498302698 0.008587491698563099
v -0.0013423369964584708 -0.0007324796752072871 0.008242497220635414
v -0.0004935681936331093 0.0007298238924704492 0.008242540061473846
v -0.0013423369964584708 0.0007324801408685744 0.008242497220635414
v -0.0013423369964584708 0.001364310854114592 0.008242497220635414
v -0.0004935679608024657 -0.0007298231939785182 0.008242540061473846
v -0.0013423369964584708 -0.001372762257233262 0.008242497220635414
v -0.0013423369964584708 -0.0007324796752072871 0.008242497220635414
v 0.0034841534215956926 0.001364310970529914 0.008242497220635414
v -7.220448605949059e-05 0.0008427280117757618 0.008242540061473846
v -0.0013423369964584708 0.001364310854114592 0.008242497220635414
v -7.220417319331318e-05 -0.0008427269640378654 0.008242540061473846
v 0.0034841534215956926 -0.0013727621408179402 0.008242497220635414
v 0.0007705228636041284 5.370729416753761e-10 0.008242540061473846
v 0.0034841534215956926 -0.0013727621408179402 0.008242497220635414
v 0.0006576188607141376 -0.00042136324918828905 0.008242540061473846
v 0.0006576188025064766 0.0004213641514070332 0.008242540061473846
v 0.0003491590905468911 0.0007298238924704492 0.008242540061473846
v 0.00034915938158519566 -0.0007298227283172309 0.008242540061473846
v -0.0013423369964584708 -0.0013727620244026184 0.0003312160260975361
v 0.0034841534215956926 -0.0013727620244026184 0.0003312161425128579
v -0.0013423369964584708 -0.0013727620244026184 0.0
v -0.0013423369964584708 0.0013643112033605576 0.0003312160260975361
v -0.0013423369964584708 -0.0013727620244026184 0.0003312160260975361
v -0.0013423369964584708 0.0013643114361912012 0.0
v 0.0034841534215956926 0.0013643112033605576 0.00033121585147455335
v -0.0013423369964584708 0.0013643112033605576 0.0003312160260975361
v 0.0034841534215956926 0.0013643114361912012 0.0
v 0.0034841534215956926 -0.0013727620244026184 0.0003312161425128579
v 0.0034841534215956926 -0.0013727620244026184 0.0
v 0.0034841534215956926 0.0013643112033605576 0.00033121585147455335
v 0.0026709772646427155 -0.0002744144876487553 0.00028669447056017816
v 0.0026709772646427155 -0.00027441492420621216 0.008281347341835499
v 0.0026709772646427155 0.00027441527345217764 0.00028669447056017816
v 0.0026709772646427155 0.0002744148368947208 0.008281347341835499
v 0.00321980775333941 0.00027441527345217764 0.00028669447056017816
v 0.00321980775333941 -0.00027441492420621216 0.008281347341835499
v 0.00321980775333941 -0.0002744144876487553 0.00028669447056017816
v 0.00321980775333941 0.0002744148368947208 0.008281347341835499
g submesh_0
f 69 67 68
f 73 68 66
f 80 78 79
f 85 78 86
f 2 1 8
f 8 1 7
f 3 47 9
f 9 47 48
f 6 5 12
f 12 5 11
f 4 49 10
f 10 49 50
f 53 51 52
f 52 51 54
f 74 75 13
f 74 13 22
f 22 13 14
f 22 14 23
f 23 14 15
f 23 15 24
f 24 15 16
f 24 16 25
f 25 16 17
f 25 17 26
f 77 76 21
f 21 76 30
f 21 30 20
f 20 30 29
f 20 29 19
f 19 29 28
f 19 28 18
f 18 28 27
f 18 27 56
f 56 27 55
f 63 62 59
f 59 62 57
f 59 57 58
f 57 60 61
f 61 60 64
f 61 64 65
f 58 65 71
f 71 65 72
f 71 72 70
f 69 66 59
f 59 66 63
f 83 81 82
f 82 81 87
f 82 87 88
f 92 93 84
f 84 93 85
f 84 85 80
f 92 84 89
f 89 84 88
f 87 94 90
f 90 94 91
f 90 91 89
f 36 35 38
f 38 35 37
f 32 31 95
f 95 31 96
f 34 97 98
f 98 97 99
f 33 100 101
f 101 100 102
f 105 103 104
f 104 103 106
f 40 39 44
f 44 39 43
f 42 107 46
f 46 107 108
f 41 109 45
f 45 109 110
f 113 111 112
f 112 111 114
