# Inside
v -0.0013786227209493518 6.974005373194814e-09 0.006022871471941471
v -0.0013316465774551034 0.0003568112733773887 0.006022871471941471
v -0.0011939238756895065 0.0006893044337630272 0.006022871471941471
v -0.0009748354204930365 0.0009748286684043705 0.006022871471941471
v -0.0006893113604746759 0.0011939206160604954 0.006022871471941471
v -0.00035681473673321307 0.0013316465774551034 0.006022871471941471
v -3.6461805796861313e-13 0.0013786295894533396 0.006022871471941471
v 0.0003568147076293826 0.0013316464610397816 0.006022871471941471
v 0.0006893113604746759 0.0011939204996451735 0.006022871471941471
v 0.0009748353622853756 0.0009748284355737269 0.006022871471941471
v 0.0011939239921048284 0.0006893043755553663 0.006022871471941471
v 0.0013316465774551034 0.00035681124427355826 0.006022871471941471
v 0.0013786227209493518 6.974004040927184e-09 0.006022871471941471
v 0.0013316465774551034 -0.00035681124427355826 0.0060228705406188965
v 0.0011939238756895065 -0.0006893182871863246 0.006022871006280184
v 0.0009748354204930365 -0.0009748284355737269 0.006022871006280184
v 0.0006893113604746759 -0.0011939204996451735 0.0060228705406188965
v 0.00035681473673321307 -0.0013316466938704252 0.0060228705406188965
v -3.6462572869898346e-13 -0.0013786295894533396 0.0060228705406188965
v -0.0003568147076293826 -0.0013316465774551034 0.0060228705406188965
v -0.0006893113604746759 -0.0011939204996451735 0.0060228705406188965
v -0.0009748353622853756 -0.0009748282027430832 0.006022871006280184
v -0.0011939239921048284 -0.0006893182289786637 0.006022871006280184
v -0.0013316465774551034 -0.0003568112151697278 0.0060228705406188965
v 8.894662140790196e-20 7.480512209667722e-09 0.0008434861083514988
v -0.0010310503421351314 7.482154451565748e-09 0.001016085036098957
v -0.0009959160815924406 0.000266857270617038 0.0010160851525142789
v -0.0008929159957915545 0.0005155301187187433 0.0010160851525142789
v -0.0007290624198503792 0.0007290657376870513 0.0010160851525142789
v -0.0005155233666300774 0.0008929159375838935 0.0010160851525142789
v -0.0002668538654688746 0.0009959159651771188 0.0010160851525142789
v -4.798451985953268e-19 0.0010310543002560735 0.0010160851525142789
v 0.0002668538654688746 0.0009959160815924406 0.0010160851525142789
v 0.000515526975505054 0.0008929159375838935 0.0010160851525142789
v 0.0007290624198503792 0.0007290656794793904 0.0010160851525142789
v 0.0008929159957915545 0.0005155301187187433 0.0010160851525142789
v 0.000995919806882739 0.00026685724151320755 0.0010160851525142789
v 0.0010310503421351314 7.482154451565748e-09 0.0010160851525142789
v 0.0009959160815924406 -0.00026685738703235984 0.001016085036098957
v 0.0008929159957915545 -0.000515530991833657 0.001016085036098957
v 0.0007290624198503792 -0.0007290657376870513 0.001016085036098957
v 0.0005155233666300774 -0.0008929159375838935 0.001016085036098957
v 0.0002668538654688746 -0.0009959160815924406 0.001016085036098957
v -8.152348320380548e-19 -0.0010310540674254298 0.001016085036098957
v -0.0002668538654688746 -0.0009959161980077624 0.001016085036098957
v -0.000515526975505054 -0.0008929159375838935 0.001016085036098957
v -0.0007290624198503792 -0.0007290657376870513 0.001016085036098957
v -0.0008929159957915545 -0.000515530991833657 0.001016085036098957
v -0.000995919806882739 -0.0002668573579285294 0.001016085036098957
v -0.000515526975505054 -0.0008929159375838935 0.001016085036098957
v -0.0010310503421351314 7.482154451565748e-09 0.001016085036098957
v -0.0009959160815924406 0.000266857270617038 0.0010160851525142789
v -0.0008929159957915545 0.0005155301187187433 0.0010160851525142789
v -0.0007290624198503792 0.0007290657376870513 0.0010160851525142789
v -0.0005155233666300774 0.0008929159375838935 0.0010160851525142789
v -0.0002668538654688746 0.0009959159651771188 0.0010160851525142789
v -4.798451985953268e-19 0.0010310543002560735 0.0010160851525142789
v -4.798451985953268e-19 0.0010310543002560735 0.0010160851525142789
v 0.0002668538654688746 0.0009959160815924406 0.0010160851525142789
v -3.6461805796861313e-13 0.0013786295894533396 0.006022871471941471
v 0.000515526975505054 0.0008929159375838935 0.0010160851525142789
v 0.000515526975505054 0.0008929159375838935 0.0010160851525142789
v 0.0007290624198503792 0.0007290656794793904 0.0010160851525142789
v 0.0008929159957915545 0.0005155301187187433 0.0010160851525142789
v 0.000995919806882739 0.00026685724151320755 0.0010160851525142789
v 0.0010310503421351314 7.482154451565748e-09 0.0010160851525142789
v 0.0009959160815924406 -0.00026685738703235984 0.001016085036098957
v 0.0008929159957915545 -0.000515530991833657 0.001016085036098957
v 0.0007290624198503792 -0.0007290657376870513 0.001016085036098957
v 0.0005155233666300774 -0.0008929159375838935 0.001016085036098957
v 0.0002668538654688746 -0.0009959160815924406 0.001016085036098957
v -8.152348320380548e-19 -0.0010310540674254298 0.001016085036098957
v -0.0002668538654688746 -0.0009959161980077624 0.001016085036098957
v -0.000515526975505054 -0.0008929159375838935 0.001016085036098957
v -0.000515526975505054 -0.0008929159375838935 0.001016085036098957
v -0.0007290624198503792 -0.0007290657376870513 0.001016085036098957
v -0.0008929159957915545 -0.000515530991833657 0.001016085036098957
v -0.000995919806882739 -0.0002668573579285294 0.001016085036098957
g submesh_0
f 46 45 25
f 25 45 44
f 25 44 43
f 49 48 25
f 25 48 47
f 25 47 50
f 21 75 22
f 22 75 76
f 22 76 23
f 23 76 77
f 23 77 24
f 24 77 78
f 24 78 1
f 1 78 51
f 1 51 2
f 2 51 52
f 2 52 3
f 3 52 53
f 3 53 4
f 4 53 54
f 4 54 5
f 5 54 55
f 5 55 6
f 6 55 56
f 6 56 7
f 7 56 57
f 61 9 59
f 59 9 8
f 59 8 58
f 58 8 60
f 74 21 73
f 73 21 20
f 73 20 72
f 72 20 19
f 72 19 71
f 71 19 18
f 71 18 70
f 70 18 17
f 70 17 69
f 69 17 16
f 69 16 68
f 68 16 15
f 68 15 67
f 67 15 14
f 67 14 66
f 66 14 13
f 66 13 65
f 65 13 12
f 65 12 64
f 64 12 11
f 64 11 63
f 63 11 10
f 63 10 62
f 62 10 9
f 29 28 25
f 25 28 27
f 25 27 26
f 32 31 25
f 25 31 30
f 25 30 29
f 35 34 25
f 25 34 33
f 25 33 32
f 38 37 25
f 25 37 36
f 25 36 35
f 41 40 25
f 25 40 39
f 25 39 38
f 41 25 42
f 42 25 43
f 49 25 26
