# richochet_dock
v 2.03244686126709 1.0892922119865034e-08 -0.2492009848356247
v 1.6320936679840088 1.0892921231686614e-08 -0.2492009699344635
v -1.6320936679840088 1.0892921231686614e-08 -0.2492009699344635
v -2.03244686126709 1.0892922119865034e-08 -0.2492009848356247
v 2.03244686126709 -1.0892922119865034e-08 0.2492009848356247
v 1.6320936679840088 -1.0892921231686614e-08 0.2492009699344635
v -1.6320936679840088 -1.0892921231686614e-08 0.2492009699344635
v -2.03244686126709 -1.0892922119865034e-08 0.2492009848356247
v 2.03244686126709 1.0892922119865034e-08 -0.5937556624412537
v 1.6320936679840088 1.0892921231686614e-08 -0.5937556624412537
v -1.6320936679840088 1.0892921231686614e-08 -0.5937556624412537
v -2.03244686126709 1.0892922119865034e-08 -0.5937556624412537
v 1.6320936679840088 -1.0892921231686614e-08 0.2492009699344635
v 1.6320936679840088 1.0892921231686614e-08 -0.2492009699344635
v 1.6320936679840088 1.0892921231686614e-08 -0.2492009699344635
v 2.03244686126709 1.0892922119865034e-08 -0.2492009848356247
v 1.6320936679840088 1.0892921231686614e-08 -0.5937556624412537
g submesh_0
f 2 1 6
f 6 1 5
f 11 17 3
f 3 17 14
f 3 14 7
f 7 14 13
f 10 9 15
f 15 9 16
f 7 8 3
f 3 8 4
f 3 4 11
f 11 4 12
