# ZipTop
v -0.00010756313713500276 -0.00046109961112961173 0.000876291305758059
v -0.0020061559043824673 -0.00046109961112961173 0.000876291305758059
v -0.00010756313713500276 -0.0004610995820257813 -1.0151721596685093e-07
v -0.0020061559043824673 -0.0004610995820257813 -1.0151721596685093e-07
v -0.00010756313713500276 -0.00043473925325088203 0.0009399309055879712
v -6.256312190089375e-05 -0.00043473925325088203 0.0009212912991642952
v -4.392355549498461e-05 -0.00043473925325088203 0.000876291305758059
v -4.392355549498461e-05 -0.0004347391950432211 -1.01516064887619e-07
v -0.002069795271381736 -0.0004347391950432211 -1.01516064887619e-07
v -0.002069795271381736 -0.00043473925325088203 0.000876291305758059
v -0.0020511557813733816 -0.00043473925325088203 0.0009212912991642952
v -0.0020061559043824673 -0.00043473925325088203 0.0009399309055879712
v -0.00010756313713500276 -0.00037109959521330893 0.0009662914089858532
v -4.392355549498461e-05 -0.00037109959521330893 0.0009399309637956321
v -1.756310484779533e-05 -0.00037109959521330893 0.0008762913639657199
v -1.756310484779533e-05 -0.0003710995661094785 -1.0151328666552217e-07
v -0.0020961558911949396 -0.0003710995661094785 -1.0151328666552217e-07
v -0.0020961558911949396 -0.00037109959521330893 0.0008762913639657199
v -0.002069795271381736 -0.00037109959521330893 0.0009399309637956321
v -0.0020061559043824673 -0.00037109959521330893 0.0009662914089858532
v -0.00010756313713500276 0.0003710995661094785 0.0009662914089858532
v -4.392355549498461e-05 0.0003710995661094785 0.0009399309637956321
v -1.756310484779533e-05 0.0003710995661094785 0.0008762913639657199
v -1.756310484779533e-05 0.00037109959521330893 -1.0148084328420737e-07
v -0.0020961558911949396 0.00037109959521330893 -1.0148084328420737e-07
v -0.0020961558911949396 0.0003710995661094785 0.0008762913639657199
v -0.002069795271381736 0.0003710995661094785 0.0009399309637956321
v -0.0020061559043824673 0.0003710995661094785 0.0009662914089858532
v -0.00010756313713500276 0.00043473916593939066 0.0009399309637956321
v -6.256312190089375e-05 0.00043473916593939066 0.000921291415579617
v -4.392355549498461e-05 0.00043473916593939066 0.0008762913639657199
v -4.392355549498461e-05 0.0004347391950432211 -1.0147805795668319e-07
v -0.002069795271381736 0.0004347391950432211 -1.0147805795668319e-07
v -0.002069795271381736 0.00043473916593939066 0.0008762913639657199
v -0.0020511557813733816 0.00043473916593939066 0.000921291415579617
v -0.0020061559043824673 0.00043473916593939066 0.0009399309637956321
v -0.0020061559043824673 0.0004610995820257813 -1.0147690687745126e-07
v -0.00010756313713500276 0.0004610995820257813 -1.0147690687745126e-07
v -0.0020061559043824673 0.0004610995529219508 0.0008762913639657199
v -0.00010756313713500276 0.0004610995529219508 0.0008762913639657199
v -2.3036855982509938e-18 0.00034739309921860695 4.565582031955809e-19
v 6.331525946734473e-05 0.00034739309921860695 5.5351959994676125e-12
v 1.9565493857953697e-05 0.00034739309921860695 -6.021639273967594e-05
v -5.122311631566845e-05 0.00034739309921860695 -3.721577741089277e-05
v -5.122311631566845e-05 0.00034739309921860695 3.721577741089277e-05
v 1.9565493857953697e-05 0.00034739309921860695 6.021638182573952e-05
v 6.331528129521757e-05 -0.00035067705903202295 -2.747975111350165e-11
v 1.9565517504815944e-05 -0.00035067705903202295 -6.021641820552759e-05
v -5.1223094487795606e-05 -0.00035067705903202295 -3.7215810152702034e-05
v -5.1223094487795606e-05 -0.00035067705903202295 3.7215744669083506e-05
v 1.9565517504815944e-05 -0.00035067705903202295 6.021635635988787e-05
v 2.305839720551095e-11 -0.00035067705903202295 -3.301494494456492e-11
v -0.00014796516916248947 -0.00041100214002653956 -1.0151721596685093e-07
v -0.001965753734111786 -0.00041100214002653956 -1.0151721596685093e-07
v -8.703410276211798e-05 -0.00038750580279156566 -1.01516064887619e-07
v -0.0020266848150640726 -0.00038750580279156566 -1.01516064887619e-07
v -6.179548654472455e-05 -0.00033078042906709015 -1.0151328666552217e-07
v -0.0020519234240055084 -0.00033078042906709015 -1.0151328666552217e-07
v -6.179548654472455e-05 0.00033078048727475107 -1.0148084328420737e-07
v -0.0020519234240055084 0.00033078048727475107 -1.0148084328420737e-07
v -8.703410276211798e-05 0.00038750580279156566 -1.0147805795668319e-07
v -0.0020266848150640726 0.00038750580279156566 -1.0147805795668319e-07
v -0.00014796516916248947 0.00041100214002653956 -1.0147690687745126e-07
v -0.001965753734111786 0.00041100214002653956 -1.0147690687745126e-07
v -9.89315813058056e-05 -0.0003764294378925115 0.0007708290941081941
v -0.0020147874020040035 -0.0003764294378925115 0.0007708290941081941
v -9.893158858176321e-05 0.00037642952520400286 0.000770829152315855
v -0.00201478716917336 0.00037642952520400286 0.000770829152315855
v -0.00010756313713500276 -0.00046109961112961173 0.000876291305758059
v -4.392355549498461e-05 -0.00043473925325088203 0.000876291305758059
v -0.0020061559043824673 -0.00046109961112961173 0.000876291305758059
v -0.002069795271381736 -0.00043473925325088203 0.000876291305758059
v -0.0020061559043824673 -0.00046109961112961173 0.000876291305758059
v -1.756310484779533e-05 -0.00037109959521330893 0.0008762913639657199
v -0.0020961558911949396 -0.00037109959521330893 0.0008762913639657199
v -1.756310484779533e-05 -0.00037109959521330893 0.0008762913639657199
v -1.756310484779533e-05 0.0003710995661094785 0.0008762913639657199
v -1.756310484779533e-05 -0.0003710995661094785 -1.0151328666552217e-07
v -0.0020961558911949396 -0.0003710995661094785 -1.0151328666552217e-07
v -0.0020961558911949396 -0.00037109959521330893 0.0008762913639657199
v -0.0020961558911949396 0.0003710995661094785 0.0008762913639657199
v -4.392355549498461e-05 0.00043473916593939066 0.0008762913639657199
v -0.0020961558911949396 0.00037109959521330893 -1.0148084328420737e-07
v -0.0020961558911949396 0.0003710995661094785 0.0008762913639657199
v -0.002069795271381736 0.00043473916593939066 0.0008762913639657199
v -0.00010756313713500276 0.0004610995529219508 0.0008762913639657199
v -0.002069795271381736 0.0004347391950432211 -1.0147805795668319e-07
v -0.002069795271381736 0.00043473916593939066 0.0008762913639657199
v -0.0020061559043824673 0.0004610995529219508 0.0008762913639657199
v -0.0020061559043824673 0.0004610995529219508 0.0008762913639657199
v 6.331525946734473e-05 0.00034739309921860695 5.5351959994676125e-12
v 1.9565493857953697e-05 0.00034739309921860695 -6.021639273967594e-05
v 1.9565493857953697e-05 0.00034739309921860695 -6.021639273967594e-05
v 1.9565517504815944e-05 -0.00035067705903202295 -6.021641820552759e-05
v -5.122311631566845e-05 0.00034739309921860695 -3.721577741089277e-05
v -5.122311631566845e-05 0.00034739309921860695 -3.721577741089277e-05
v -5.1223094487795606e-05 -0.00035067705903202295 -3.7215810152702034e-05
v -5.122311631566845e-05 0.00034739309921860695 3.721577741089277e-05
v -5.122311631566845e-05 0.00034739309921860695 3.721577741089277e-05
v -5.1223094487795606e-05 -0.00035067705903202295 3.7215744669083506e-05
v 1.9565493857953697e-05 0.00034739309921860695 6.021638182573952e-05
v 1.9565493857953697e-05 0.00034739309921860695 6.021638182573952e-05
v 1.9565517504815944e-05 -0.00035067705903202295 6.021635635988787e-05
v 6.331528129521757e-05 -0.00035067705903202295 -2.747975111350165e-11
v 6.331525946734473e-05 0.00034739309921860695 5.5351959994676125e-12
v 1.9565517504815944e-05 -0.00035067705903202295 -6.021641820552759e-05
v 6.331528129521757e-05 -0.00035067705903202295 -2.747975111350165e-11
v -5.1223094487795606e-05 -0.00035067705903202295 -3.7215810152702034e-05
v -5.1223094487795606e-05 -0.00035067705903202295 3.7215744669083506e-05
v 1.9565517504815944e-05 -0.00035067705903202295 6.021635635988787e-05
v -0.0020061559043824673 -0.0004610995820257813 -1.0151721596685093e-07
v -0.00010756313713500276 -0.0004610995820257813 -1.0151721596685093e-07
v -4.392355549498461e-05 -0.0004347391950432211 -1.01516064887619e-07
v -0.001965753734111786 -0.00041100214002653956 -1.0151721596685093e-07
v -0.002069795271381736 -0.0004347391950432211 -1.01516064887619e-07
v -1.756310484779533e-05 -0.0003710995661094785 -1.0151328666552217e-07
v -0.0020266848150640726 -0.00038750580279156566 -1.01516064887619e-07
v -0.0020961558911949396 -0.0003710995661094785 -1.0151328666552217e-07
v -1.756310484779533e-05 -0.0003710995661094785 -1.0151328666552217e-07
v -6.179548654472455e-05 0.00033078048727475107 -1.0148084328420737e-07
v -1.756310484779533e-05 0.00037109959521330893 -1.0148084328420737e-07
v -0.0020519234240055084 -0.00033078042906709015 -1.0151328666552217e-07
v -0.0020961558911949396 0.00037109959521330893 -1.0148084328420737e-07
v -0.0020961558911949396 0.00037109959521330893 -1.0148084328420737e-07
v -4.392355549498461e-05 0.0004347391950432211 -1.0147805795668319e-07
v -0.002069795271381736 0.0004347391950432211 -1.0147805795668319e-07
v -0.00010756313713500276 0.0004610995820257813 -1.0147690687745126e-07
v -0.0020061559043824673 0.0004610995820257813 -1.0147690687745126e-07
v -0.001965753734111786 -0.00041100214002653956 -1.0151721596685093e-07
v -0.00014796516916248947 -0.00041100214002653956 -1.0151721596685093e-07
v -9.89315813058056e-05 -0.0003764294378925115 0.0007708290941081941
v -8.703410276211798e-05 -0.00038750580279156566 -1.01516064887619e-07
v -0.0020266848150640726 -0.00038750580279156566 -1.01516064887619e-07
v -0.0020147874020040035 -0.0003764294378925115 0.0007708290941081941
v -0.001965753734111786 -0.00041100214002653956 -1.0151721596685093e-07
v -9.89315813058056e-05 -0.0003764294378925115 0.0007708290941081941
v -6.179548654472455e-05 -0.00033078042906709015 -1.0151328666552217e-07
v -0.0020519234240055084 -0.00033078042906709015 -1.0151328666552217e-07
v -0.0020147874020040035 -0.0003764294378925115 0.0007708290941081941
v -0.0020266848150640726 -0.00038750580279156566 -1.01516064887619e-07
v -6.179548654472455e-05 -0.00033078042906709015 -1.0151328666552217e-07
v -9.89315813058056e-05 -0.0003764294378925115 0.0007708290941081941
v -6.179548654472455e-05 -0.00033078042906709015 -1.0151328666552217e-07
v -6.179548654472455e-05 0.00033078048727475107 -1.0148084328420737e-07
v -0.0020147874020040035 -0.0003764294378925115 0.0007708290941081941
v -0.0020519234240055084 0.00033078048727475107 -1.0148084328420737e-07
v -0.0020519234240055084 0.00033078048727475107 -1.0148084328420737e-07
v -0.0020519234240055084 -0.00033078042906709015 -1.0151328666552217e-07
v -9.893158858176321e-05 0.00037642952520400286 0.000770829152315855
v -8.703410276211798e-05 0.00038750580279156566 -1.0147805795668319e-07
v -0.0020266848150640726 0.00038750580279156566 -1.0147805795668319e-07
v -0.00201478716917336 0.00037642952520400286 0.000770829152315855
v -0.0020519234240055084 0.00033078048727475107 -1.0148084328420737e-07
v -9.893158858176321e-05 0.00037642952520400286 0.000770829152315855
v -0.00014796516916248947 0.00041100214002653956 -1.0147690687745126e-07
v -0.001965753734111786 0.00041100214002653956 -1.0147690687745126e-07
v -0.00201478716917336 0.00037642952520400286 0.000770829152315855
v -0.0020266848150640726 0.00038750580279156566 -1.0147805795668319e-07
v -0.00201478716917336 0.00037642952520400286 0.000770829152315855
v -9.893158858176321e-05 0.00037642952520400286 0.000770829152315855
v -9.89315813058056e-05 -0.0003764294378925115 0.0007708290941081941
v -0.0020147874020040035 -0.0003764294378925115 0.0007708290941081941
v -9.893158858176321e-05 0.00037642952520400286 0.000770829152315855
v -0.00201478716917336 0.00037642952520400286 0.000770829152315855
g submesh_0
f 132 130 131
f 135 133 134
f 137 132 136
f 140 138 139
f 142 67 141
f 144 143 67
f 68 145 146
f 148 147 145
f 150 144 149
f 153 151 152
f 155 150 154
f 158 156 157
f 4 3 1
f 1 3 8
f 1 8 70
f 70 8 16
f 70 16 74
f 1 2 4
f 4 2 10
f 4 10 9
f 9 10 18
f 9 18 17
f 39 86 38
f 38 86 82
f 38 82 32
f 32 82 77
f 32 77 24
f 24 77 76
f 24 76 78
f 25 79 26
f 26 79 80
f 33 83 34
f 34 83 84
f 38 37 39
f 39 37 87
f 39 87 88
f 90 36 40
f 40 36 29
f 40 29 30
f 30 29 21
f 30 21 22
f 22 21 13
f 22 13 14
f 14 13 5
f 14 5 6
f 6 5 69
f 6 69 7
f 47 48 91
f 91 48 92
f 94 49 93
f 93 49 95
f 97 50 96
f 96 50 98
f 100 51 99
f 99 51 101
f 103 104 102
f 102 104 105
f 59 116 57
f 57 116 113
f 57 113 55
f 55 113 112
f 55 112 53
f 53 112 111
f 53 111 54
f 56 114 115
f 115 114 111
f 124 58 118
f 118 58 117
f 118 117 115
f 122 123 60
f 60 123 126
f 60 126 62
f 62 126 128
f 62 128 64
f 64 128 127
f 64 127 63
f 63 127 125
f 63 125 61
f 61 125 121
f 61 121 120
f 120 121 119
f 66 65 129
f 129 65 130
f 160 159 155
f 155 159 156
f 164 163 162
f 162 163 161
f 89 85 35
f 35 85 81
f 35 81 27
f 27 81 75
f 27 75 19
f 19 75 72
f 19 72 11
f 11 72 71
f 11 71 12
f 73 69 5
f 73 5 12
f 12 5 13
f 12 13 20
f 20 13 21
f 20 21 28
f 28 21 29
f 28 29 36
f 40 30 31
f 31 30 22
f 31 22 23
f 23 22 14
f 23 14 15
f 15 14 6
f 15 6 7
f 89 35 36
f 36 35 27
f 36 27 28
f 28 27 19
f 28 19 20
f 20 19 11
f 20 11 12
f 45 46 41
f 41 46 42
f 41 42 43
f 43 44 41
f 41 44 45
f 109 108 52
f 52 108 106
f 52 106 107
f 109 52 110
f 110 52 107
