# rich_22
v -0.23250000178813934 -0.101999931037426 -4.999999418942025e-07
v -0.07249999791383743 -0.101999931037426 -4.999999418942025e-07
v -0.07249999791383743 -0.145999938249588 -4.999999418942025e-07
v 0.008500060997903347 -0.145999938249588 -4.999999418942025e-07
v 0.008500060997903347 -0.07099992781877518 -4.999999418942025e-07
v -0.13485930860042572 -0.07099992781877518 -4.999999418942025e-07
v -0.13485930860042572 0.08100005984306335 -4.999999418942025e-07
v 0.008500060997903347 0.08100005984306335 -4.999999418942025e-07
v 0.008500060997903347 0.14700007438659668 -4.999999418942025e-07
v -0.07249999791383743 0.14700007438659668 -4.999999418942025e-07
v -0.07249999791383743 0.11200007796287537 -4.999999418942025e-07
v -0.23250000178813934 0.11200007796287537 -4.999999418942025e-07
v -0.23250000178813934 0.30400004982948303 -4.999999418942025e-07
v 0.23250000178813934 0.30400004982948303 -4.999999418942025e-07
v 0.23250000178813934 0.14700007438659668 -4.999999418942025e-07
v 0.19149993360042572 0.14700007438659668 -4.999999418942025e-07
v 0.19149993360042572 -0.145999938249588 -4.999999418942025e-07
v 0.23250000178813934 -0.145999938249588 -4.999999418942025e-07
v 0.23250000178813934 -0.3039999306201935 -4.999999418942025e-07
v -0.23250000178813934 -0.3039999306201935 -4.999999418942025e-07
g submesh_0
f 4 3 19
f 19 3 1
f 19 1 20
f 7 6 8
f 8 6 5
f 8 5 16
f 16 5 4
f 16 4 17
f 17 4 19
f 17 19 18
f 10 9 13
f 13 9 16
f 13 16 14
f 14 16 15
f 12 11 13
f 13 11 10
f 2 1 3
f 8 16 9
