# lightrays_00
v -0.19580647349357605 -2.6653292906075876e-09 -3.3881317132865545e-23
v -0.1384560912847519 0.1384560912847519 3.038881840716328e-16
v 8.558973974004402e-09 0.19580647349357605 3.2707012478466305e-23
v 0.1384560912847519 0.1384560912847519 2.6454604477051233e-16
v 0.19580647349357605 -1.9783279014973232e-08 -3.3881317132865545e-23
v 0.1384560614824295 -0.13845610618591309 2.645459653611735e-16
v -2.3349691069540768e-09 -0.19580647349357605 -2.08148964669361e-23
v -0.1384560614824295 -0.13845610618591309 8.723223335044392e-16
v -0.5055894255638123 -2.045718616727754e-08 1.588320016860962
v -0.3575057089328766 0.3575056791305542 1.588320016860962
v 2.2100016039416914e-08 0.5055894255638123 1.588320016860962
v 0.3575057089328766 0.3575056791305542 1.588320016860962
v 0.5055894255638123 -6.465722179882505e-08 1.588320016860962
v 0.3575056791305542 -0.35750582814216614 1.588320016860962
v -6.029095001025553e-09 -0.505589485168457 1.5883197784423828
v -0.3575056791305542 -0.35750582814216614 1.588320016860962
v 8.558973974004402e-09 0.19580647349357605 3.2707012478466305e-23
v 2.2100016039416914e-08 0.5055894255638123 1.588320016860962
g submesh_0
f 17 18 12
f 17 12 4
f 4 12 13
f 4 13 5
f 5 13 14
f 5 14 6
f 6 14 15
f 6 15 7
f 7 15 16
f 7 16 8
f 8 16 9
f 8 9 1
f 1 9 10
f 1 10 2
f 2 10 11
f 2 11 3
