# shots01
v -0.3153410255908966 -0.1770760715007782 -5.023066478315741e-07
v -0.2668270766735077 -0.1770760715007782 -5.023066478315741e-07
v -0.2668270766735077 0.1782890111207962 -5.023066478315741e-07
v -0.3153410255908966 0.1782890111207962 -5.023066478315741e-07
v -0.3153410255908966 0.36870643496513367 -5.023066478315741e-07
v -0.020617904141545296 0.36870643496513367 -5.023066478315741e-07
v -0.020617904141545296 0.18677891790866852 -5.023066478315741e-07
v -0.05336501821875572 0.18677891790866852 -5.023066478315741e-07
v -0.05336501821875572 0.10673084110021591 -5.023066478315741e-07
v 0.050939787179231644 0.10673084110021591 -5.023066478315741e-07
v 0.050939787179231644 0.18677891790866852 -5.023066478315741e-07
v 0.018192673102021217 0.18677891790866852 -5.023066478315741e-07
v 0.018192673102021217 0.36870643496513367 -5.023066478315741e-07
v 0.31534093618392944 0.36870643496513367 -5.023066478315741e-07
v 0.31534093618392944 0.1782890111207962 -5.023066478315741e-07
v 0.26440176367759705 0.1782890111207962 -5.023066478315741e-07
v 0.26440176367759705 -0.1770760715007782 -5.023066478315741e-07
v 0.31534093618392944 -0.1770760715007782 -5.023066478315741e-07
v 0.31534093618392944 -0.3687063455581665 -5.023066478315741e-07
v 0.018192673102021217 -0.3687063455581665 -5.023066478315741e-07
v 0.018192673102021217 -0.1855660229921341 -5.023066478315741e-07
v 0.050939787179231644 -0.1855660229921341 -5.023066478315741e-07
v 0.050939787179231644 -0.09460227936506271 -5.023066478315741e-07
v -0.05336501821875572 -0.09460227936506271 -5.023066478315741e-07
v -0.05336501821875572 -0.1855660229921341 -5.023066478315741e-07
v -0.020617904141545296 -0.1855660229921341 -5.023066478315741e-07
v -0.020617904141545296 -0.3687063455581665 -5.023066478315741e-07
v -0.3153410255908966 -0.3687063455581665 -5.023066478315741e-07
g submesh_0
f 25 24 2
f 25 2 27
f 27 2 1
f 27 1 28
f 26 25 27
f 21 20 22
f 22 20 19
f 22 19 18
f 12 11 13
f 13 11 16
f 13 16 14
f 14 16 15
f 4 3 5
f 5 3 8
f 5 8 6
f 6 8 7
f 16 11 10
f 16 10 23
f 23 10 9
f 23 9 24
f 24 9 3
f 24 3 2
f 16 23 17
f 17 23 22
f 17 22 18
f 9 8 3
