# Root
v -0.0007257643155753613 4.933930153327992e-09 5.303526450006757e-06
v -0.0007010346744209528 0.00018784536223392934 5.3035359997011255e-06
v -0.0006285318522714078 0.00036288457340560853 5.303541001921985e-06
v -0.0005131942452862859 0.0005131967482157052 5.303550551616354e-06
v -0.0003628821577876806 0.0006285267882049084 5.3035560085845646e-06
v -0.00018784290296025574 0.0007010371773503721 5.3035560085845646e-06
v -2.426134178302984e-18 0.0007257643155753613 5.3035560085845646e-06
v 0.00018784290296025574 0.0007010371191427112 5.3035560085845646e-06
v 0.0003628821577876806 0.0006285267882049084 5.3035560085845646e-06
v 0.0005131942452862859 0.0005131966900080442 5.303550551616354e-06
v 0.0006285318522714078 0.00036288457340560853 5.303541001921985e-06
v 0.0007010346744209528 0.00018784533313009888 5.3035359997011255e-06
v 0.0007257643155753613 4.933929709238782e-09 5.303526450006757e-06
v 0.0007010346744209528 -0.0001878454495454207 5.303516900312388e-06
v 0.0006285318522714078 -0.0003628846607170999 5.3035118980915286e-06
v 0.0005131942452862859 -0.0005131968064233661 4.947516117681516e-06
v 0.0003628821577876806 -0.0006285269628278911 5.303497800923651e-06
v 0.00018784290296025574 -0.000701037235558033 5.303497800923651e-06
v -2.3597709253239267e-18 -0.0007257643155753613 5.303497800923651e-06
v -0.00018784290296025574 -0.0007010371773503721 5.303497800923651e-06
v -0.0003628821577876806 -0.0006285269628278911 5.303497800923651e-06
v -0.0005131942452862859 -0.0005131967482157052 5.30350234839716e-06
v -0.0006285318522714078 -0.0003628846607170999 5.3035118980915286e-06
v -0.0007010346744209528 -0.00018784543499350548 5.303516900312388e-06
v -0.0007717770058661699 4.933930153327992e-09 2.8856933568022214e-05
v -0.000745478319004178 0.00019975136092398316 2.885694630094804e-05
v -0.0006683777319267392 0.0003858909185510129 2.8856955395895056e-05
v -0.0005457269144244492 0.0005457318620756269 2.8856959033873864e-05
v -0.00038588850293308496 0.0006683727842755616 2.8856966309831478e-05
v -0.00019975140457972884 0.000745478319004178 2.8856966309831478e-05
v -1.3517416440993226e-18 0.0007717770058661699 2.885696812882088e-05
v 0.00019975140457972884 0.0007454782607965171 2.8856966309831478e-05
v 0.00038588850293308496 0.0006683726678602397 2.8856966309831478e-05
v 0.0005457269144244492 0.0005457318038679659 2.8856959033873864e-05
v 0.0006683777319267392 0.0003858909185510129 2.8856955395895056e-05
v 0.000745478319004178 0.00019975134637206793 2.885694630094804e-05
v 0.0007717770058661699 4.933930153327992e-09 2.8856933568022214e-05
v 0.000745478319004178 -0.00019975147733930498 2.88569262920646e-05
v 0.0006683777319267392 -0.00038589100586250424 2.885691537812818e-05
v 0.0005457269144244492 -0.0005457319784909487 2.8856909921159968e-05
v 0.00038588850293308496 -0.0006683827959932387 2.885690628318116e-05
v 0.00019975140457972884 -0.000745478377211839 2.885690628318116e-05
v -1.118304140804075e-18 -0.0007717770058661699 2.885690082621295e-05
v -0.00019975140457972884 -0.000745478319004178 2.885690628318116e-05
v -0.00038588850293308496 -0.0006683727842755616 2.885690628318116e-05
v -0.0005457269144244492 -0.0005457319202832878 2.8856909921159968e-05
v -0.0006683777319267392 -0.00038589100586250424 2.885691537812818e-05
v -0.000745478319004178 -0.0001997514336835593 2.88569262920646e-05
v -0.00143663608469069 7.088663878107582e-09 0.0033997499849647284
v -0.0014116935199126601 0.00037825541221536696 0.003370963968336582
v -0.0012656885664910078 0.000730744213797152 0.003370963968336582
v -0.0010334313847124577 0.0010334316175431013 0.003370963968336582
v -0.000730747589841485 0.0012656956678256392 0.003370963968336582
v -0.0003782621643040329 0.001411693636327982 0.003370963968336582
v -3.646253221231688e-13 0.0014614952960982919 0.003370963968336582
v 0.00037826213520020247 0.0014116935199126601 0.003370963968336582
v 0.0007307474734261632 0.0012656955514103174 0.003370963968336582
v 0.0010334313847124577 0.0010334316175431013 0.003370963968336582
v 0.0012656886829063296 0.000730744272004813 0.003370963968336582
v 0.0014116935199126601 0.0003782554704230279 0.003370963968336582
v 0.0014614915708079934 7.088663878107582e-09 0.003370963968336582
v 0.0014116935199126601 -0.0003782688290812075 0.003370963968336582
v 0.0012656885664910078 -0.0007307439809665084 0.003370963968336582
v 0.0010334313847124577 -0.0010334312682971358 0.003370963968336582
v 0.000730747589841485 -0.0012656955514103174 0.003370963968336582
v 0.00037826213520020247 -0.0014116935199126601 0.003370963968336582
v -3.646374380824463e-13 -0.0014614948304370046 0.003370963968336582
v -0.00037826213520020247 -0.0014116931706666946 0.003370963968336582
v -0.0007307474734261632 -0.0012656950857490301 0.003370963968336582
v -0.0010334313847124577 -0.001033431151881814 0.003370963968336582
v -0.0012656886829063296 -0.0007307439809665084 0.003370963968336582
v -0.0014116935199126601 -0.00037826888728886843 0.003370963968336582
v -0.0013786227209493518 7.088665210375211e-09 0.0033997499849647284
v -0.0013316465774551034 0.00035681138979271054 0.0033997499849647284
v -0.0011939238756895065 0.000689304550178349 0.003399749519303441
v -0.0009748354204930365 0.0009748287266120315 0.003399749519303441
v -0.0006893113604746759 0.0011939207324758172 0.0033997499849647284
v -0.00035681473673321307 0.0013316466938704252 0.0033997499849647284
v -3.646175971826898e-13 0.0013786298222839832 0.0033997499849647284
v 0.0003568147076293826 0.0013316465774551034 0.0033997499849647284
v 0.0006893113604746759 0.0011939206160604954 0.0033997499849647284
v 0.0009748353622853756 0.0009748285519890487 0.003399749519303441
v 0.0011939239921048284 0.000689304550178349 0.003399749519303441
v 0.0013316465774551034 0.00035681138979271054 0.0033997499849647284
v 0.0013786227209493518 7.088664766286001e-09 0.0033997499849647284
v 0.0013316465774551034 -0.000356811098754406 0.00339974882081151
v 0.0011939238756895065 -0.0006893181707710028 0.0033997492864727974
v 0.0009748354204930365 -0.0009748282609507442 0.0033997492864727974
v 0.0006893113604746759 -0.0011939203832298517 0.00339974882081151
v 0.00035681473673321307 -0.0013316465774551034 0.00339974882081151
v -3.64627598947731e-13 -0.0013786294730380177 0.00339974882081151
v -0.0003568147076293826 -0.0013316464610397816 0.00339974882081151
v -0.0006893113604746759 -0.0011939203832298517 0.00339974882081151
v -0.0009748353622853756 -0.0009748281445354223 0.0033997492864727974
v -0.0011939239921048284 -0.0006893181707710028 0.0033997492864727974
v -0.0013316465774551034 -0.000356811098754406 0.00339974882081151
v -0.0014614915708079934 7.088664766286001e-09 0.003370963968336582
v -0.001387684722431004 0.00037182369851507246 0.0033997499849647284
v -0.001244164421223104 0.0007183150155469775 0.003399749519303441
v -0.00101585709489882 0.0010158552322536707 0.003399749519303441
v -0.0007183206034824252 0.0012441698927432299 0.0033997499849647284
v -0.000371829402865842 0.0013876850716769695 0.0033997499849647284
v -3.6462393976539886e-13 0.0014366396935656667 0.0033997499849647284
v 0.000371829402865842 0.0013876850716769695 0.0033997499849647284
v 0.0007183206034824252 0.001244169776327908 0.0033997499849647284
v 0.00101585709489882 0.001015854999423027 0.003399749519303441
v 0.001244164421223104 0.0007183149573393166 0.003399749519303441
v 0.001387684722431004 0.0003718237567227334 0.0033997499849647284
v 0.00143663608469069 7.088663434018372e-09 0.0033997499849647284
v 0.001387686119414866 -0.00037183298263698816 0.00339974882081151
v 0.0012441623257473111 -0.0007183182751759887 0.0033997492864727974
v 0.00101585709489882 -0.0010158547665923834 0.0033997492864727974
v 0.0007183206034824252 -0.0012441695434972644 0.00339974882081151
v 0.000371829402865842 -0.0013876850716769695 0.00339974882081151
v -3.6463307416870205e-13 -0.0014366393443197012 0.00339974882081151
v -0.000371829402865842 -0.001387684722431004 0.00339974882081151
v -0.0007183206034824252 -0.0012441694270819426 0.00339974882081151
v -0.00101585709489882 -0.0010158546501770616 0.0033997492864727974
v -0.0012441623257473111 -0.0007183182751759887 0.0033997492864727974
v -0.001387686119414866 -0.0003718330117408186 0.00339974882081151
v -0.0007966268458403647 4.639258754934872e-09 0.0006704017869196832
v -0.0007694818777963519 0.00020618154667317867 0.0006704016705043614
v -0.00068989850115031 0.00039831476169638336 0.0006704017287120223
v -0.0005632990505546331 0.000563302484806627 0.0006704017287120223
v -0.00039831374306231737 0.0006898961146362126 0.0006704017287120223
v -0.0002061827981378883 0.000769481819588691 0.0006704017287120223
v -7.564757061864422e-14 0.0007966274861246347 0.0006704017287120223
v 0.0002061827981378883 0.000769481819588691 0.0006704017287120223
v 0.00039831374306231737 0.0006898961146362126 0.0006704017287120223
v 0.0005632990505546331 0.000563302484806627 0.0006704017287120223
v 0.00068989850115031 0.00039831476169638336 0.0006704017287120223
v 0.0007694818777963519 0.00020618151756934822 0.0006704016705043614
v 0.0007966267876327038 4.639257422667242e-09 0.0006704016705043614
v 0.0007694818777963519 -0.00020618410781025887 0.0006704016705043614
v 0.00068989850115031 -0.0003983148781117052 0.0006704017287120223
v 0.000563299108762294 -0.0005633026012219489 0.0006704017287120223
v 0.00039831374306231737 -0.0006899031577631831 0.0006704016705043614
v 0.0002061827981378883 -0.0007694819360040128 0.0006704016705043614
v -7.564506340112034e-14 -0.0007966273697093129 0.0006704016705043614
v -0.0002061827981378883 -0.0007694819360040128 0.0006704016705043614
v -0.00039831374306231737 -0.0006898962310515344 0.0006704016705043614
v -0.000563299108762294 -0.0005633026012219489 0.0006704017287120223
v -0.00068989850115031 -0.0003983148781117052 0.0006704017287120223
v -0.0007694818777963519 -0.0002061840787064284 0.0006704016705043614
v -0.0008132721995934844 4.681777188153546e-09 0.0007523383246734738
v -0.0007855600561015308 0.00021048948110546917 0.000752338208258152
v -0.000704313802998513 0.0004066373221576214 0.000752338208258152
v -0.0005750691634602845 0.0005750724812969565 0.000752338208258152
v -0.0004066364490427077 0.000704311765730381 0.000752338208258152
v -0.000210490936296992 0.0007855600561015308 0.000752338208258152
v -8.290963808511506e-14 0.0008132728980854154 0.000752338208258152
v 0.000210490936296992 0.0007855600561015308 0.000752338208258152
v 0.0004066364490427077 0.0007043117075227201 0.000752338208258152
v 0.0005750691634602845 0.0005750724812969565 0.000752338208258152
v 0.000704313802998513 0.0004066373221576214 0.000752338208258152
v 0.0007855601143091917 0.0002104894520016387 0.000752338208258152
v 0.0008132721413858235 4.681775855885917e-09 0.000752338208258152
v 0.0007855600561015308 -0.0002104924205923453 0.000752338208258152
v 0.0007043138612061739 -0.0004066374385729432 0.000752338208258152
v 0.0005750692216679454 -0.0005750725395046175 0.000752338208258152
v 0.0004066364490427077 -0.0007043186342343688 0.000752338208258152
v 0.000210490936296992 -0.0007855601143091917 0.000752338208258152
v -8.291436791709253e-14 -0.0008132727816700935 0.000752338208258152
v -0.000210490936296992 -0.0007855601143091917 0.000752338208258152
v -0.0004066364490427077 -0.0007043119403533638 0.0007523381500504911
v -0.0005750692216679454 -0.0005750725395046175 0.000752338208258152
v -0.0007043138612061739 -0.0004066374385729432 0.000752338208258152
v -0.0007855600561015308 -0.0002104923769365996 0.000752338208258152
v 9.156715579127378e-24 4.93316676397626e-09 0.00010651494085323066
v -3.646253221231688e-13 0.0014614952960982919 0.003370963968336582
v -8.290963808511506e-14 0.0008132728980854154 0.000752338208258152
v -3.6462393976539886e-13 0.0014366396935656667 0.0033997499849647284
v -3.646175971826898e-13 0.0013786298222839832 0.0033997499849647284
v -0.0014614915708079934 7.088664766286001e-09 0.003370963968336582
v -0.001387684722431004 0.00037182369851507246 0.0033997499849647284
v -0.00143663608469069 7.088663878107582e-09 0.0033997499849647284
v -0.001244164421223104 0.0007183150155469775 0.003399749519303441
v -0.00101585709489882 0.0010158552322536707 0.003399749519303441
v -0.0007183206034824252 0.0012441698927432299 0.0033997499849647284
v -0.000371829402865842 0.0013876850716769695 0.0033997499849647284
v -3.6462393976539886e-13 0.0014366396935656667 0.0033997499849647284
v 0.000371829402865842 0.0013876850716769695 0.0033997499849647284
v -3.6462393976539886e-13 0.0014366396935656667 0.0033997499849647284
v 0.0007183206034824252 0.001244169776327908 0.0033997499849647284
v 0.00101585709489882 0.001015854999423027 0.003399749519303441
v 0.001244164421223104 0.0007183149573393166 0.003399749519303441
v 0.001387684722431004 0.0003718237567227334 0.0033997499849647284
v 0.00143663608469069 7.088663434018372e-09 0.0033997499849647284
v 0.001387686119414866 -0.00037183298263698816 0.00339974882081151
v 0.0012441623257473111 -0.0007183182751759887 0.0033997492864727974
v 0.00101585709489882 -0.0010158547665923834 0.0033997492864727974
v 0.0007183206034824252 -0.0012441695434972644 0.00339974882081151
v 0.000371829402865842 -0.0013876850716769695 0.00339974882081151
v -3.6463307416870205e-13 -0.0014366393443197012 0.00339974882081151
v -0.000371829402865842 -0.001387684722431004 0.00339974882081151
v -0.0007183206034824252 -0.0012441694270819426 0.00339974882081151
v -0.00101585709489882 -0.0010158546501770616 0.0033997492864727974
v -0.0012441623257473111 -0.0007183182751759887 0.0033997492864727974
v -0.001387686119414866 -0.0003718330117408186 0.00339974882081151
v -0.0007717770058661699 4.933930153327992e-09 2.8856933568022214e-05
v -0.000745478319004178 0.00019975136092398316 2.885694630094804e-05
v -0.0006683777319267392 0.0003858909185510129 2.8856955395895056e-05
v -0.0005457269144244492 0.0005457318620756269 2.8856959033873864e-05
v -0.00038588850293308496 0.0006683727842755616 2.8856966309831478e-05
v -0.00019975140457972884 0.000745478319004178 2.8856966309831478e-05
v -1.3517416440993226e-18 0.0007717770058661699 2.885696812882088e-05
v -1.3517416440993226e-18 0.0007717770058661699 2.885696812882088e-05
v 0.00019975140457972884 0.0007454782607965171 2.8856966309831478e-05
v -7.564757061864422e-14 0.0007966274861246347 0.0006704017287120223
v 0.00038588850293308496 0.0006683726678602397 2.8856966309831478e-05
v 0.0005457269144244492 0.0005457318038679659 2.8856959033873864e-05
v 0.0006683777319267392 0.0003858909185510129 2.8856955395895056e-05
v 0.000745478319004178 0.00019975134637206793 2.885694630094804e-05
v 0.0007717770058661699 4.933930153327992e-09 2.8856933568022214e-05
v 0.0007717770058661699 4.933930153327992e-09 2.8856933568022214e-05
v 0.000745478319004178 -0.00019975147733930498 2.88569262920646e-05
v 0.0006683777319267392 -0.00038589100586250424 2.885691537812818e-05
v 0.0005457269144244492 -0.0005457319784909487 2.8856909921159968e-05
v 0.00038588850293308496 -0.0006683827959932387 2.885690628318116e-05
v 0.00019975140457972884 -0.000745478377211839 2.885690628318116e-05
v -1.118304140804075e-18 -0.0007717770058661699 2.885690082621295e-05
v -0.00019975140457972884 -0.000745478319004178 2.885690628318116e-05
v -0.00038588850293308496 -0.0006683727842755616 2.885690628318116e-05
v -0.0005457269144244492 -0.0005457319202832878 2.8856909921159968e-05
v -0.0006683777319267392 -0.00038589100586250424 2.885691537812818e-05
v -0.000745478319004178 -0.0001997514336835593 2.88569262920646e-05
v -0.0007717770058661699 4.933930153327992e-09 2.8856933568022214e-05
v -0.0008132721995934844 4.681777188153546e-09 0.0007523383246734738
v -0.0007855600561015308 0.00021048948110546917 0.000752338208258152
v -0.000704313802998513 0.0004066373221576214 0.000752338208258152
v -0.0005750691634602845 0.0005750724812969565 0.000752338208258152
v -0.0004066364490427077 0.000704311765730381 0.000752338208258152
v -0.000210490936296992 0.0007855600561015308 0.000752338208258152
v -8.290963808511506e-14 0.0008132728980854154 0.000752338208258152
v -8.290963808511506e-14 0.0008132728980854154 0.000752338208258152
v 0.000210490936296992 0.0007855600561015308 0.000752338208258152
v 0.0004066364490427077 0.0007043117075227201 0.000752338208258152
v 0.0005750691634602845 0.0005750724812969565 0.000752338208258152
v 0.000704313802998513 0.0004066373221576214 0.000752338208258152
v 0.0007855601143091917 0.0002104894520016387 0.000752338208258152
v 0.0008132721413858235 4.681775855885917e-09 0.000752338208258152
v 0.0007855600561015308 -0.0002104924205923453 0.000752338208258152
v 0.0007043138612061739 -0.0004066374385729432 0.000752338208258152
v 0.0005750692216679454 -0.0005750725395046175 0.000752338208258152
v 0.0004066364490427077 -0.0007043186342343688 0.000752338208258152
v 0.000210490936296992 -0.0007855601143091917 0.000752338208258152
v -8.291436791709253e-14 -0.0008132727816700935 0.000752338208258152
v -0.000210490936296992 -0.0007855601143091917 0.000752338208258152
v -0.0004066364490427077 -0.0007043119403533638 0.0007523381500504911
v -0.0005750692216679454 -0.0005750725395046175 0.000752338208258152
v -0.0007043138612061739 -0.0004066374385729432 0.000752338208258152
v -0.0007855600561015308 -0.0002104923769365996 0.000752338208258152
g submesh_0
f 55 151 54
f 54 151 150
f 54 150 53
f 53 150 149
f 53 149 52
f 52 149 148
f 52 148 51
f 51 148 147
f 51 147 50
f 50 147 146
f 50 146 97
f 97 146 145
f 97 145 72
f 72 145 168
f 72 168 71
f 71 168 167
f 71 167 70
f 70 167 166
f 70 166 69
f 69 166 165
f 69 165 68
f 68 165 164
f 68 164 67
f 67 164 163
f 67 163 66
f 66 163 162
f 66 162 65
f 65 162 161
f 65 161 64
f 64 161 160
f 64 160 63
f 63 160 159
f 63 159 62
f 62 159 158
f 62 158 61
f 61 158 157
f 61 157 60
f 60 157 156
f 60 156 59
f 59 156 155
f 59 155 58
f 58 155 154
f 58 154 57
f 57 154 153
f 57 153 56
f 56 153 152
f 56 152 170
f 170 152 171
f 172 173 80
f 172 80 104
f 104 80 81
f 104 81 105
f 105 81 82
f 105 82 106
f 106 82 83
f 106 83 107
f 107 83 84
f 107 84 108
f 108 84 85
f 108 85 109
f 109 85 86
f 109 86 110
f 110 86 87
f 110 87 111
f 111 87 88
f 111 88 112
f 112 88 89
f 112 89 113
f 113 89 90
f 113 90 114
f 114 90 91
f 114 91 115
f 115 91 92
f 115 92 116
f 116 92 93
f 116 93 117
f 117 93 94
f 117 94 118
f 118 94 95
f 118 95 119
f 119 95 96
f 119 96 120
f 120 96 73
f 120 73 49
f 49 73 74
f 49 74 98
f 98 74 75
f 98 75 99
f 99 75 76
f 99 76 100
f 100 76 77
f 100 77 101
f 101 77 78
f 101 78 102
f 102 78 79
f 102 79 103
f 181 55 54
f 181 54 180
f 180 54 53
f 180 53 179
f 179 53 52
f 179 52 178
f 178 52 51
f 178 51 177
f 177 51 50
f 177 50 175
f 175 50 174
f 175 174 176
f 176 174 72
f 176 72 199
f 199 72 71
f 199 71 198
f 198 71 70
f 198 70 197
f 197 70 69
f 197 69 196
f 196 69 68
f 196 68 195
f 195 68 67
f 195 67 194
f 194 67 66
f 194 66 193
f 193 66 65
f 193 65 192
f 192 65 64
f 192 64 191
f 191 64 63
f 191 63 190
f 190 63 62
f 190 62 189
f 189 62 61
f 189 61 188
f 188 61 60
f 188 60 187
f 187 60 59
f 187 59 186
f 186 59 58
f 186 58 185
f 185 58 57
f 185 57 184
f 184 57 56
f 184 56 182
f 182 56 170
f 182 170 183
f 200 121 122
f 200 122 201
f 201 122 123
f 201 123 202
f 202 123 124
f 202 124 203
f 203 124 125
f 203 125 204
f 204 125 126
f 204 126 205
f 205 126 127
f 205 127 206
f 207 209 128
f 207 128 208
f 208 128 129
f 208 129 210
f 210 129 130
f 210 130 211
f 211 130 131
f 211 131 212
f 212 131 132
f 212 132 213
f 213 132 133
f 213 133 214
f 215 133 134
f 215 134 216
f 216 134 135
f 216 135 217
f 217 135 136
f 217 136 218
f 218 136 137
f 218 137 219
f 219 137 138
f 219 138 220
f 220 138 139
f 220 139 221
f 221 139 140
f 221 140 222
f 222 140 141
f 222 141 223
f 223 141 142
f 223 142 224
f 224 142 143
f 224 143 225
f 225 143 144
f 225 144 226
f 226 144 121
f 226 121 227
f 234 127 126
f 234 126 233
f 233 126 125
f 233 125 232
f 232 125 124
f 232 124 231
f 231 124 123
f 231 123 230
f 230 123 122
f 230 122 229
f 229 122 121
f 229 121 228
f 228 121 144
f 228 144 252
f 252 144 143
f 252 143 251
f 251 143 142
f 251 142 250
f 250 142 141
f 250 141 249
f 249 141 140
f 249 140 248
f 248 140 139
f 248 139 247
f 247 139 138
f 247 138 246
f 246 138 137
f 246 137 245
f 245 137 136
f 245 136 244
f 244 136 135
f 244 135 243
f 243 135 134
f 243 134 242
f 242 134 133
f 242 133 241
f 241 133 132
f 241 132 240
f 240 132 131
f 240 131 239
f 239 131 130
f 239 130 238
f 238 130 129
f 238 129 237
f 237 129 128
f 237 128 236
f 236 128 209
f 236 209 235
f 1 26 2
f 2 26 27
f 2 27 3
f 3 27 28
f 3 28 4
f 4 28 29
f 4 29 5
f 5 29 30
f 5 30 6
f 6 30 31
f 6 31 7
f 7 31 32
f 7 32 8
f 8 32 33
f 8 33 9
f 9 33 34
f 9 34 10
f 10 34 35
f 10 35 11
f 11 35 36
f 11 36 12
f 12 36 37
f 12 37 13
f 13 37 38
f 13 38 14
f 14 38 39
f 14 39 15
f 15 39 40
f 15 40 16
f 16 40 41
f 16 41 17
f 17 41 42
f 17 42 18
f 18 42 43
f 18 43 19
f 19 43 44
f 19 44 20
f 20 44 45
f 20 45 21
f 21 45 46
f 21 46 22
f 22 46 47
f 22 47 23
f 23 47 48
f 23 48 24
f 24 48 25
f 24 25 1
f 1 25 26
f 23 24 169
f 169 24 1
f 169 1 2
f 2 3 169
f 169 3 4
f 169 4 5
f 5 6 169
f 169 6 7
f 169 7 8
f 8 9 169
f 169 9 10
f 169 10 11
f 11 12 169
f 169 12 13
f 169 13 14
f 14 15 169
f 169 15 16
f 169 16 17
f 17 18 169
f 169 18 19
f 169 19 20
f 20 21 169
f 169 21 22
f 169 22 23
