# check_holder_00
v 0.002041188068687916 3.503799234749749e-05 7.969539728946984e-05
v -3.725290076417309e-10 3.503769403323531e-05 7.969539728946984e-05
v -0.002041162922978401 3.503739935695194e-05 7.969539728946984e-05
v 0.002270857570692897 -0.00017460792150814086 7.969547004904598e-05
v 0.0019458237802609801 -0.0002474742941558361 2.5662668122095056e-05
v -3.4458935704861915e-10 -0.00024747461429797113 2.5662668122095056e-05
v -0.0019458247115835547 -0.00024747461429797113 2.5662668122095056e-05
v -0.0022708585020154715 -0.00017460822709836066 7.969569560373202e-05
v 0.002270858036354184 -0.004170254338532686 7.96959939179942e-05
v 0.0019458242459222674 -0.004170254338532686 2.5663262931630015e-05
v 0.0 -0.004170254338532686 -1.944813811860513e-05
v -0.0019458242459222674 -0.0041702548041939735 2.5663262931630015e-05
v -0.002270858036354184 -0.0041702548041939735 7.96959939179942e-05
v 0.0022708585020154715 -0.00816597230732441 7.96966633060947e-05
v 0.0019458247115835547 -0.008093034848570824 2.566385956015438e-05
v 3.4458935704861915e-10 -0.008093034848570824 2.566385956015438e-05
v -0.0019458237802609801 -0.008093034848570824 2.566385956015438e-05
v -0.002270857570692897 -0.00816597230732441 7.96964013716206e-05
v 0.0020411890000104904 -0.008375545963644981 7.96966633060947e-05
v 3.632157907773603e-10 -0.008375546894967556 7.96966633060947e-05
v -0.0020411619916558266 -0.008375546894967556 7.96966633060947e-05
v 0.0020409070421010256 -3.632962761912495e-05 1.194886863231659e-06
v -3.632157907773603e-10 -3.632992593338713e-05 1.194886863231659e-06
v -0.002040934283286333 -3.632992593338713e-05 1.194886863231659e-06
v 0.0022003238555043936 -0.00017482131079304963 1.194924038827594e-06
v -0.002200324786826968 -0.00017482131079304963 1.194924038827594e-06
v 0.002200324321165681 -0.004170254338532686 1.1955200989177683e-06
v -0.002200324321165681 -0.0041702548041939735 1.1955200989177683e-06
v 0.002200324786826968 -0.008165614679455757 1.1961534482907155e-06
v -0.0022003238555043936 -0.008165614679455757 1.1961534482907155e-06
v 0.0020409079734236 -0.008304178714752197 1.1961534482907155e-06
v 3.5390257391298974e-10 -0.008304178714752197 1.1961534482907155e-06
v -0.002040933584794402 -0.008304178714752197 1.1961534482907155e-06
v 0.001875656540505588 -0.00028272689087316394 -1.9448734747129492e-05
v -3.4458935704861915e-10 -0.0002827271819114685 -1.9448734747129492e-05
v -0.0018756573554128408 -0.0002827271819114685 -1.9448734747129492e-05
v 0.0018756570061668754 -0.004170254338532686 -1.944813811860513e-05
v -0.0018756570061668754 -0.0041702548041939735 -1.944813811860513e-05
v 0.0018756573554128408 -0.008057781495153904 -1.9447541490080766e-05
v 3.3527611242867295e-10 -0.008057781495153904 -1.9447541490080766e-05
v -0.001875656540505588 -0.008057781495153904 -1.9447541490080766e-05
v 0.001957722008228302 -0.00034576235339045525 0.00011426068522268906
v -3.3527611242867295e-10 -0.0003457620623521507 0.00011426068522268906
v -0.0019577229395508766 -0.00034576235339045525 0.00011212452955078334
v 0.0019577224738895893 -0.004170254338532686 0.00011426120909163728
v -0.0019577224738895893 -0.0041702548041939735 0.00011212505341973156
v 0.0019577229395508766 -0.00799474585801363 0.00011212568642804399
v -0.0019577222410589457 -0.00799474585801363 0.00011212568642804399
v 3.3527611242867295e-10 -0.007994744926691055 0.00011212568642804399
v 0.001957722008228302 -0.00034576235339045525 7.357508002314717e-05
v -3.3527611242867295e-10 -0.0003457620623521507 7.357508002314717e-05
v 0.0019577224738895893 -0.004170254338532686 7.35755602363497e-05
v 0.0019577229395508766 -0.00799474585801363 7.357619324466214e-05
v 3.3527611242867295e-10 -0.007994744926691055 7.357619324466214e-05
v 0.0 -0.004170254338532686 7.35755602363497e-05
v -0.002341665793210268 3.503799234749749e-05 0.0003589086118154228
v -0.002341665793210268 -0.0001746076304698363 0.00012921362940687686
v -0.00234166975133121 -0.00816597230732441 0.00012921095185447484
v -0.002341669984161854 -0.008375546894967556 0.00035890593426302075
v -0.0023092369083315134 -0.00034576235339045525 0.00044234871165826917
v -0.0023667030036449432 -0.00799474585801363 0.0004448546387720853
v -0.0023416660260409117 3.503769403323531e-05 0.004441259894520044
v -0.002341665793210268 3.503799234749749e-05 0.002400071593001485
v -0.0023416662588715553 -0.00017460882372688502 0.004670928698033094
v -0.002395699033513665 -0.00024747461429797113 0.004345895256847143
v -0.0023956988006830215 -0.0002474749053362757 0.0024000713601708412
v -0.0023956988006830215 -0.0002474742941558361 0.00045424685231409967
v -0.0023416681215167046 -0.0041702548041939735 0.00467092776671052
v -0.0023957006633281708 -0.0041702548041939735 0.004345893859863281
v -0.0024408120661973953 -0.004170254338532686 0.0024000699631869793
v -0.0023957006633281708 -0.004170253872871399 0.00045424565905705094
v -0.002341667888686061 -0.004170253872871399 0.00012921214511152357
v -0.002341669984161854 -0.008165974169969559 0.004670926369726658
v -0.0023957027588039637 -0.008093034848570824 0.004345892928540707
v -0.0023957027588039637 -0.008093034848570824 0.002400068799033761
v -0.00239570252597332 -0.008093033917248249 0.0004542446113191545
v -0.0023416702169924974 -0.008375546894967556 0.0044412571005523205
v -0.002341669984161854 -0.008375546894967556 0.002400068799033761
v -0.0024201665073633194 -3.632992593338713e-05 0.004440979100763798
v -0.0024201665073633194 -3.6330220609670505e-05 0.002400071593001485
v -0.0024201662745326757 -3.632962761912495e-05 0.00035913733881898224
v -0.002420166740193963 -0.0001748222130117938 0.004600394982844591
v -0.0024201665073633194 -0.00017482101975474507 0.00019974693714175373
v -0.0024201686028391123 -0.0041702548041939735 0.0046003940515220165
v -0.0024201683700084686 -0.004170253872871399 0.000199745743884705
v -0.0024201704654842615 -0.008165615610778332 0.004600392654538155
v -0.002420170232653618 -0.008165614679455757 0.00019974455062765628
v -0.002420170698314905 -0.008304178714752197 0.004440976772457361
v -0.0024201704654842615 -0.008304179646074772 0.002400068799033761
v -0.0024201704654842615 -0.008304178714752197 0.0003591349523048848
v -0.0024408106692135334 -0.00028272776398807764 0.004275728017091751
v -0.002440810203552246 -0.0002827274729497731 0.0024000713601708412
v -0.0024408099707216024 -0.0002827265707310289 0.0005244142957963049
v -0.002440812299028039 -0.0041702548041939735 0.0042757270857691765
v -0.0024408120661973953 -0.004170253872871399 0.0005244129570201039
v -0.002440814161673188 -0.008057782426476479 0.0042757256887853146
v -0.002440814161673188 -0.008057782426476479 0.002400068799033761
v -0.002440814161673188 -0.008057781495153904 0.0005244120839051902
v -0.002307100920006633 -0.0003457632556091994 0.004357793368399143
v -0.002307100920006633 -0.00034576235339045525 0.0024000713601708412
v -0.0023071030154824257 -0.0041702548041939735 0.004357792437076569
v -0.0023092387709766626 -0.004170253872871399 0.00044234751840122044
v -0.0023092408664524555 -0.007994746789336205 0.004357791040092707
v -0.002309240633621812 -0.00799474585801363 0.0004423463251441717
v -0.0023092408664524555 -0.00799474585801363 0.002400068799033761
v -0.0023477866780012846 -0.0003457632556091994 0.004357793368399143
v -0.002347786445170641 -0.00034576235339045525 0.0024000713601708412
v -0.002347788540646434 -0.0041702548041939735 0.004357792437076569
v -0.0023477901704609394 -0.007994746789336205 0.004357791040092707
v -0.0023477901704609394 -0.00799474585801363 0.002400068799033761
v -0.002347788540646434 -0.004170254338532686 0.0024000699631869793
v -0.002200324786826968 -0.00017482131079304963 1.194924038827594e-06
v 0.0020409070421010256 -3.632962761912495e-05 1.194886863231659e-06
v 0.0022003238555043936 -0.00017482131079304963 1.194924038827594e-06
v 0.0020409070421010256 -3.632962761912495e-05 1.194886863231659e-06
v -0.002040934283286333 -3.632992593338713e-05 1.194886863231659e-06
v -0.002200324786826968 -0.00017482131079304963 1.194924038827594e-06
v -0.002200324786826968 -0.00017482131079304963 1.194924038827594e-06
v -0.002040934283286333 -3.632992593338713e-05 1.194886863231659e-06
v 0.0022003238555043936 -0.00017482131079304963 1.194924038827594e-06
v -0.002200324786826968 -0.00017482131079304963 1.194924038827594e-06
v 0.002200324786826968 -0.008165614679455757 1.1961534482907155e-06
v -0.0022003238555043936 -0.008165614679455757 1.1961534482907155e-06
v 0.0020409079734236 -0.008304178714752197 1.1961534482907155e-06
v 0.002200324786826968 -0.008165614679455757 1.1961534482907155e-06
v 0.0020409079734236 -0.008304178714752197 1.1961534482907155e-06
v -0.002040933584794402 -0.008304178714752197 1.1961534482907155e-06
v -0.002040933584794402 -0.008304178714752197 1.1961534482907155e-06
v -0.0022003238555043936 -0.008165614679455757 1.1961534482907155e-06
v 0.002041188068687916 3.503799234749749e-05 7.969539728946984e-05
v 0.002270857570692897 -0.00017460792150814086 7.969547004904598e-05
v -3.725290076417309e-10 3.503769403323531e-05 7.969539728946984e-05
v -0.002041162922978401 3.503739935695194e-05 7.969539728946984e-05
v 0.002270858036354184 -0.004170254338532686 7.96959939179942e-05
v 0.0022708585020154715 -0.00816597230732441 7.96966633060947e-05
v 0.0020411890000104904 -0.008375545963644981 7.96966633060947e-05
v 3.632157907773603e-10 -0.008375546894967556 7.96966633060947e-05
v -0.0020411619916558266 -0.008375546894967556 7.96966633060947e-05
v -0.0019577229395508766 -0.00034576235339045525 0.00011212452955078334
v -3.3527611242867295e-10 -0.0003457620623521507 0.00011426068522268906
v 0.0019577224738895893 -0.004170254338532686 0.00011426120909163728
v 0.0019577229395508766 -0.00799474585801363 0.00011212568642804399
v 0.0019577229395508766 -0.00799474585801363 0.00011212568642804399
v 0.0019577229395508766 -0.00799474585801363 7.357619324466214e-05
v 3.3527611242867295e-10 -0.007994744926691055 0.00011212568642804399
v -0.0019577222410589457 -0.00799474585801363 0.00011212568642804399
v -3.3527611242867295e-10 -0.0003457620623521507 7.357508002314717e-05
v 0.0019577224738895893 -0.004170254338532686 7.35755602363497e-05
v 0.0019577229395508766 -0.00799474585801363 7.357619324466214e-05
v 3.3527611242867295e-10 -0.007994744926691055 7.357619324466214e-05
v -3.3527611242867295e-10 -0.0003457620623521507 7.357508002314717e-05
v 0.001957722008228302 -0.00034576235339045525 0.00011426068522268906
v -3.3527611242867295e-10 -0.0003457620623521507 0.00011426068522268906
v 0.001957722008228302 -0.00034576235339045525 7.357508002314717e-05
v 0.0019577224738895893 -0.004170254338532686 0.00011426120909163728
v 0.0019577224738895893 -0.004170254338532686 7.35755602363497e-05
v 0.001957722008228302 -0.00034576235339045525 0.00011426068522268906
v -3.3527611242867295e-10 -0.0003457620623521507 0.00011426068522268906
v -3.3527611242867295e-10 -0.0003457620623521507 7.357508002314717e-05
v -0.002341665793210268 3.503799234749749e-05 0.0003589086118154228
v -0.0022708585020154715 -0.00017460822709836066 7.969569560373202e-05
v -0.0020411619916558266 -0.008375546894967556 7.96966633060947e-05
v -0.002270857570692897 -0.00816597230732441 7.96964013716206e-05
v -0.00234166975133121 -0.00816597230732441 0.00012921095185447484
v -0.002041162922978401 3.503739935695194e-05 7.969539728946984e-05
v -0.0019577229395508766 -0.00034576235339045525 0.00011212452955078334
v -0.002341665793210268 3.503799234749749e-05 0.0003589086118154228
v -0.0019577222410589457 -0.00799474585801363 0.00011212568642804399
v -0.002341669984161854 -0.008375546894967556 0.00035890593426302075
v -0.0020411619916558266 -0.008375546894967556 7.96966633060947e-05
v -0.0024201665073633194 -0.00017482101975474507 0.00019974693714175373
v -0.0024201665073633194 -3.632992593338713e-05 0.004440979100763798
v -0.002420166740193963 -0.0001748222130117938 0.004600394982844591
v -0.0024201665073633194 -3.632992593338713e-05 0.004440979100763798
v -0.002341665793210268 3.503799234749749e-05 0.0003589086118154228
v -0.0024201662745326757 -3.632962761912495e-05 0.00035913733881898224
v -0.002341665793210268 -0.0001746076304698363 0.00012921362940687686
v -0.0024201665073633194 -0.00017482101975474507 0.00019974693714175373
v -0.0024201662745326757 -3.632962761912495e-05 0.00035913733881898224
v -0.0024201665073633194 -0.00017482101975474507 0.00019974693714175373
v -0.002420166740193963 -0.0001748222130117938 0.004600394982844591
v -0.0024201665073633194 -0.00017482101975474507 0.00019974693714175373
v -0.0024201704654842615 -0.008165615610778332 0.004600392654538155
v -0.00234166975133121 -0.00816597230732441 0.00012921095185447484
v -0.002420170232653618 -0.008165614679455757 0.00019974455062765628
v -0.0024201704654842615 -0.008165615610778332 0.004600392654538155
v -0.002420170698314905 -0.008304178714752197 0.004440976772457361
v -0.002420170698314905 -0.008304178714752197 0.004440976772457361
v -0.002341669984161854 -0.008375546894967556 0.00035890593426302075
v -0.0024201704654842615 -0.008304178714752197 0.0003591349523048848
v -0.0024201704654842615 -0.008304178714752197 0.0003591349523048848
v -0.002420170232653618 -0.008165614679455757 0.00019974455062765628
v -0.0023416662588715553 -0.00017460882372688502 0.004670928698033094
v -0.0023416660260409117 3.503769403323531e-05 0.004441259894520044
v -0.002341665793210268 3.503799234749749e-05 0.002400071593001485
v -0.0023092369083315134 -0.00034576235339045525 0.00044234871165826917
v -0.002341665793210268 3.503799234749749e-05 0.0003589086118154228
v -0.0023416681215167046 -0.0041702548041939735 0.00467092776671052
v -0.002341669984161854 -0.008165974169969559 0.004670926369726658
v -0.0023416702169924974 -0.008375546894967556 0.0044412571005523205
v -0.002341669984161854 -0.008375546894967556 0.002400068799033761
v -0.002341669984161854 -0.008375546894967556 0.00035890593426302075
v -0.002307100920006633 -0.00034576235339045525 0.0024000713601708412
v -0.0023092369083315134 -0.00034576235339045525 0.00044234871165826917
v -0.0023071030154824257 -0.0041702548041939735 0.004357792437076569
v -0.0023092408664524555 -0.007994746789336205 0.004357791040092707
v -0.0023477901704609394 -0.007994746789336205 0.004357791040092707
v -0.0023092408664524555 -0.007994746789336205 0.004357791040092707
v -0.0023092408664524555 -0.00799474585801363 0.002400068799033761
v -0.002309240633621812 -0.00799474585801363 0.0004423463251441717
v -0.002347786445170641 -0.00034576235339045525 0.0024000713601708412
v -0.002347788540646434 -0.0041702548041939735 0.004357792437076569
v -0.0023477901704609394 -0.007994746789336205 0.004357791040092707
v -0.0023477901704609394 -0.00799474585801363 0.002400068799033761
v -0.002307100920006633 -0.0003457632556091994 0.004357793368399143
v -0.002347786445170641 -0.00034576235339045525 0.0024000713601708412
v -0.002307100920006633 -0.00034576235339045525 0.0024000713601708412
v -0.002347788540646434 -0.0041702548041939735 0.004357792437076569
v -0.0023071030154824257 -0.0041702548041939735 0.004357792437076569
v -0.0023477866780012846 -0.0003457632556091994 0.004357793368399143
v -0.002307100920006633 -0.0003457632556091994 0.004357793368399143
v -0.002347786445170641 -0.00034576235339045525 0.0024000713601708412
v -0.002307100920006633 -0.00034576235339045525 0.0024000713601708412
v -0.002270858036354184 -0.0041702548041939735 7.96959939179942e-05
v -0.0022708585020154715 -0.00017460822709836066 7.969569560373202e-05
v -0.002270857570692897 -0.00816597230732441 7.96964013716206e-05
v -0.0023092387709766626 -0.004170253872871399 0.00044234751840122044
v -0.0019577224738895893 -0.0041702548041939735 0.00011212505341973156
v -0.002309240633621812 -0.00799474585801363 0.0004423463251441717
g submesh_0
f 119 118 3
f 140 139 51
f 57 160 161
f 163 162 58
f 59 164 21
f 175 177 178
f 180 179 175
f 204 203 107
f 26 24 7
f 7 24 6
f 7 6 36
f 36 6 35
f 36 35 38
f 38 35 11
f 38 11 40
f 40 11 37
f 40 37 39
f 39 37 15
f 39 15 16
f 16 15 31
f 16 31 32
f 1 4 113
f 113 4 114
f 116 3 2
f 116 2 23
f 23 2 1
f 23 1 115
f 117 8 3
f 3 8 56
f 14 122 27
f 14 27 9
f 9 27 120
f 9 120 4
f 123 18 13
f 123 13 28
f 28 13 8
f 28 8 121
f 125 14 124
f 124 14 19
f 21 127 32
f 21 32 20
f 20 32 126
f 20 126 19
f 21 18 128
f 128 18 129
f 136 135 47
f 47 135 134
f 47 134 45
f 45 134 42
f 45 42 43
f 43 42 132
f 43 132 44
f 44 132 133
f 47 49 137
f 137 49 48
f 137 48 138
f 158 159 52
f 158 52 141
f 141 52 53
f 141 53 142
f 146 145 54
f 54 145 143
f 54 143 144
f 50 151 152
f 152 151 153
f 156 154 155
f 155 154 157
f 229 168 228
f 229 228 227
f 227 228 166
f 227 166 60
f 60 166 165
f 60 165 167
f 170 168 169
f 169 168 61
f 89 88 75
f 75 88 74
f 75 74 96
f 96 74 94
f 96 94 97
f 97 94 70
f 97 70 95
f 95 70 92
f 95 92 93
f 93 92 66
f 93 66 67
f 67 66 81
f 67 81 83
f 173 64 172
f 172 64 62
f 175 176 63
f 63 176 80
f 63 80 62
f 62 80 174
f 183 73 84
f 84 73 68
f 84 68 181
f 181 68 64
f 184 185 72
f 72 185 85
f 72 85 177
f 177 85 182
f 186 187 73
f 73 187 77
f 190 189 89
f 89 189 78
f 89 78 188
f 188 78 77
f 192 184 191
f 191 184 189
f 199 200 103
f 199 103 198
f 198 103 101
f 198 101 99
f 99 101 100
f 99 100 195
f 195 100 196
f 195 196 197
f 202 104 201
f 201 104 105
f 201 105 103
f 222 223 108
f 108 223 205
f 108 205 109
f 109 205 206
f 207 208 110
f 110 208 209
f 110 209 210
f 217 216 215
f 215 216 106
f 221 220 219
f 219 220 218
f 226 184 72
f 226 72 224
f 224 72 177
f 224 177 225
f 24 23 6
f 6 23 22
f 6 22 5
f 5 22 25
f 5 25 10
f 10 25 27
f 10 27 15
f 15 27 29
f 15 29 31
f 32 33 16
f 16 33 17
f 16 17 40
f 40 17 41
f 40 41 38
f 38 41 12
f 38 12 7
f 7 12 112
f 17 33 30
f 17 30 12
f 12 30 28
f 12 28 112
f 134 131 42
f 42 131 130
f 42 130 132
f 47 137 136
f 148 147 55
f 55 147 44
f 55 44 46
f 48 150 55
f 55 150 149
f 55 149 148
f 46 48 55
f 88 86 74
f 74 86 84
f 74 84 69
f 69 84 82
f 69 82 65
f 65 82 79
f 65 79 66
f 66 79 80
f 66 80 81
f 90 89 75
f 90 75 76
f 76 75 97
f 76 97 98
f 98 97 95
f 98 95 71
f 71 95 67
f 71 67 171
f 90 76 87
f 87 76 71
f 87 71 85
f 85 71 171
f 195 194 99
f 99 194 193
f 99 193 198
f 201 103 200
f 102 196 111
f 111 196 211
f 111 211 212
f 212 213 111
f 111 213 214
f 111 214 104
f 104 102 111
f 6 5 35
f 35 5 34
f 35 34 37
f 37 34 10
f 37 10 15
f 11 35 37
f 5 10 34
f 36 38 7
f 40 39 16
f 17 12 41
f 74 69 94
f 94 69 91
f 94 91 92
f 92 91 65
f 92 65 66
f 92 70 94
f 69 65 91
f 95 93 67
f 96 97 75
f 71 76 98
