# rich_23
v -0.2605000138282776 0.30400004982948303 -4.999999418942025e-07
v 0.2605000138282776 0.30400004982948303 -4.999999418942025e-07
v 0.2605000138282776 0.08365631103515625 -4.999999418942025e-07
v 0.11949996650218964 0.08365631103515625 -4.999999418942025e-07
v 0.11949996650218964 0.14600005745887756 -4.999999418942025e-07
v 0.08949996531009674 0.14600005745887756 -4.999999418942025e-07
v 0.08949996531009674 -0.145999938249588 -4.999999418942025e-07
v 0.13250015676021576 -0.145999938249588 -4.999999418942025e-07
v 0.13250015676021576 -0.3039999306201935 -4.999999418942025e-07
v -0.13050003349781036 -0.3039999306201935 -4.999999418942025e-07
v -0.13050003349781036 -0.145999938249588 -4.999999418942025e-07
v -0.08849990367889404 -0.145999938249588 -4.999999418942025e-07
v -0.08849990367889404 0.14600005745887756 -4.999999418942025e-07
v -0.11949996650218964 0.14600005745887756 -4.999999418942025e-07
v -0.11949996650218964 0.08365631103515625 -4.999999418942025e-07
v -0.2605000138282776 0.08365631103515625 -4.999999418942025e-07
g submesh_0
f 16 15 1
f 1 15 14
f 1 14 2
f 2 14 13
f 2 13 6
f 6 13 12
f 6 12 7
f 7 12 9
f 7 9 8
f 11 10 12
f 12 10 9
f 4 3 5
f 5 3 2
f 5 2 6
