# Root
v 0.0 5.188342200312945e-09 0.00013265803863760084
v -0.0007631874759681523 5.188342200312945e-09 4.4587028241949156e-05
v -0.0007371827960014343 0.00019753139349631965 4.4587028241949156e-05
v -0.0006609414122067392 0.00038159629912115633 4.4587028241949156e-05
v -0.0005396565538831055 0.0005396591150201857 4.4587104639504105e-05
v -0.00038159373798407614 0.0006609360571019351 4.4587104639504105e-05
v -0.00019752881780732423 0.0007371854153461754 4.4587104639504105e-05
v -2.775557396126769e-18 0.0007631874759681523 4.4587104639504105e-05
v 0.00019752881780732423 0.0007371852989308536 4.4587104639504105e-05
v 0.00038159373798407614 0.000660936173517257 4.4587104639504105e-05
v 0.0005396565538831055 0.0005396590568125248 4.4587104639504105e-05
v 0.0006609414122067392 0.00038159629912115633 4.4587028241949156e-05
v 0.0007371827960014343 0.0001975313643924892 4.4587028241949156e-05
v 0.0007631874759681523 5.188342200312945e-09 4.4587028241949156e-05
v 0.0007371827960014343 -0.00019753149535972625 4.4587028241949156e-05
v 0.0006609414122067392 -0.00038159641553647816 4.4587028241949156e-05
v 0.0005396565538831055 -0.0005396592314355075 4.489913771976717e-05
v 0.00038159373798407614 -0.0006609362317249179 4.4587028241949156e-05
v 0.00019752881780732423 -0.0007371854735538363 4.4587028241949156e-05
v -2.2204459996194763e-18 -0.0007631874759681523 4.4587028241949156e-05
v -0.00019752881780732423 -0.0007371854153461754 4.4587028241949156e-05
v -0.00038159373798407614 -0.0006609362317249179 4.4587028241949156e-05
v -0.0005396565538831055 -0.0005396592314355075 4.4587028241949156e-05
v -0.0006609414122067392 -0.00038159641553647816 4.4587028241949156e-05
v -0.0007371827960014343 -0.00019753148080781102 4.4587028241949156e-05
v -0.0008115728269331157 5.188342200312945e-09 6.935492274351418e-05
v -0.0007839180179871619 0.00021005132293794304 6.935499550309032e-05
v -0.0007028418476693332 0.00040578897460363805 6.935499550309032e-05
v -0.0005738667096011341 0.0005738718900829554 6.935499550309032e-05
v -0.00040578641346655786 0.0007028366671875119 6.935499550309032e-05
v -0.00021005136659368873 0.0007839180179871619 6.935499550309032e-05
v -1.6653344997146072e-18 0.0008115728269331157 6.935499550309032e-05
v 0.00021005136659368873 0.000783917959779501 6.935499550309032e-05
v 0.00040578641346655786 0.0007028365507721901 6.935499550309032e-05
v 0.0005738667096011341 0.0005738718900829554 6.935499550309032e-05
v 0.0007028418476693332 0.00040578897460363805 6.935499550309032e-05
v 0.0007839180179871619 0.0002100513083860278 6.935499550309032e-05
v 0.0008115728269331157 5.188342200312945e-09 6.935492274351418e-05
v 0.0007839180179871619 -0.00021005142480134964 6.935492274351418e-05
v 0.0007028418476693332 -0.00040578903281129897 6.935492274351418e-05
v 0.0005738667096011341 -0.0005738720064982772 6.935492274351418e-05
v 0.00040578641346655786 -0.0007028471445664763 6.935492274351418e-05
v 0.00021005136659368873 -0.0007839181926101446 6.935492274351418e-05
v -1.1102229998097382e-18 -0.0008115728269331157 6.935492274351418e-05
v -0.00021005136659368873 -0.0007839180179871619 6.935492274351418e-05
v -0.00040578641346655786 -0.0007028366671875119 6.935492274351418e-05
v -0.0005738667096011341 -0.0005738720064982772 6.935492274351418e-05
v -0.0007028418476693332 -0.00040578903281129897 6.935492274351418e-05
v -0.0007839180179871619 -0.00021005139569751918 6.935492274351418e-05
v -0.0010816507274284959 5.188342200312945e-09 0.0019262608839198947
v -0.0010628713062033057 0.0002847903233487159 0.001904587959870696
v -0.0009529435192234814 0.0005501810228452086 0.0019045878434553742
v -0.000778075831476599 0.0007780758896842599 0.0019045878434553742
v -0.0005501836421899498 0.0009529486997053027 0.001904587959870696
v -0.0002847955620381981 0.0010628713062033057 0.001904587959870696
v -2.2204459996194763e-18 0.0011003672843798995 0.001904587959870696
v 0.0002847955620381981 0.0010628713062033057 0.001904587959870696
v 0.0005501836421899498 0.0009529485832899809 0.001904587959870696
v 0.000778075831476599 0.000778075831476599 0.0019045878434553742
v 0.0009529435192234814 0.0005501810228452086 0.0019045878434553742
v 0.0010628713062033057 0.0002847903233487159 0.001904587959870696
v 0.0011003647232428193 5.188342200312945e-09 0.0019045878434553742
v 0.0010628713062033057 -0.0002848007425200194 0.001904587959870696
v 0.0009529435192234814 -0.0005501810810528696 0.0019045878434553742
v 0.000778075831476599 -0.0007780759478919208 0.0019045878434553742
v 0.0005501836421899498 -0.0009529489325359464 0.001904587959870696
v 0.0002847955620381981 -0.0010628714226186275 0.001904587959870696
v -2.2204459996194763e-18 -0.0011003672843798995 0.001904587959870696
v -0.0002847955620381981 -0.0010628713062033057 0.001904587959870696
v -0.0005501836421899498 -0.0009529486997053027 0.001904587959870696
v -0.000778075831476599 -0.0007780758896842599 0.0019045878434553742
v -0.0009529435192234814 -0.0005501810810528696 0.0019045878434553742
v -0.0010628713062033057 -0.0002848007425200194 0.001904587959870696
v -0.001037972280755639 5.188343088491365e-09 0.0019262608839198947
v -0.0010026036761701107 0.00026864500250667334 0.0019262608839198947
v -0.0008989115594886243 0.0005189808434806764 0.0019262608839198947
v -0.0007339586154557765 0.0007339533767662942 0.0019262608839198947
v -0.0005189861403778195 0.0008989089401438832 0.0019262608839198947
v -0.0002686476509552449 0.0010026036761701107 0.0019262608839198947
v -2.775557396126769e-18 0.0010379775194451213 0.0019262608839198947
v 0.0002686476509552449 0.0010026035597547889 0.0019262608839198947
v 0.0005189861403778195 0.0008989088819362223 0.0019262608839198947
v 0.0007339586154557765 0.0007339533185586333 0.0019262608839198947
v 0.0008989115594886243 0.0005189808434806764 0.0019262608839198947
v 0.0010026036761701107 0.00026864500250667334 0.0019262608839198947
v 0.001037972280755639 5.188342200312945e-09 0.0019262608839198947
v 0.0010026036761701107 -0.0002686450898181647 0.0019262608839198947
v 0.0008989115594886243 -0.0005189913790673018 0.0019262608839198947
v 0.0007339586154557765 -0.0007339534931816161 0.0019262608839198947
v 0.0005189861403778195 -0.0008989089983515441 0.0019262608839198947
v 0.0002686476509552449 -0.0010026037925854325 0.0019262608839198947
v -2.2204459996194763e-18 -0.0010379775194451213 0.0019262608839198947
v -0.0002686476509552449 -0.0010026036761701107 0.0019262608839198947
v -0.0005189861403778195 -0.0008989089401438832 0.0019262608839198947
v -0.0007339586154557765 -0.0007339533767662942 0.0019262608839198947
v -0.0008989115594886243 -0.0005189913790673018 0.0019262608839198947
v -0.0010026036761701107 -0.0002686450898181647 0.0019262608839198947
v -0.0011003647232428193 5.188342200312945e-09 0.0019045878434553742
v -0.0010447950335219502 0.00027994788251817226 0.0019262608839198947
v -0.000936737866140902 0.0005408229772001505 0.0019262608839198947
v -0.0007648441824130714 0.000764842436183244 0.0019262608839198947
v -0.000540827342774719 0.0009367418242618442 0.0019262608839198947
v -0.0002799523063004017 0.001044795149937272 0.0019262608839198947
v -2.775557396126769e-18 0.001081653404980898 0.0019262608839198947
v 0.0002799523063004017 0.001044795149937272 0.0019262608839198947
v 0.000540827342774719 0.0009367417078465223 0.0019262608839198947
v 0.0007648441824130714 0.0007648423779755831 0.0019262608839198947
v 0.000936737866140902 0.0005408229189924896 0.0019262608839198947
v 0.0010447950335219502 0.00027994788251817226 0.0019262608839198947
v 0.0010816507274284959 5.188342200312945e-09 0.0019262608839198947
v 0.0010447959648445249 -0.00027995515847578645 0.0019262608839198947
v 0.0009367363527417183 -0.0005408257129602134 0.0019262608839198947
v 0.0007648441824130714 -0.0007648425525985658 0.0019262608839198947
v 0.000540827342774719 -0.000936741940677166 0.0019262608839198947
v 0.0002799523063004017 -0.001044795266352594 0.0019262608839198947
v -2.2204459996194763e-18 -0.001081653404980898 0.0019262608839198947
v -0.0002799523063004017 -0.001044795149937272 0.0019262608839198947
v -0.000540827342774719 -0.0009367418242618442 0.0019262608839198947
v -0.0007648441824130714 -0.000764842436183244 0.0019262608839198947
v -0.0009367363527417183 -0.0005408257129602134 0.0019262608839198947
v -0.0010447959648445249 -0.00027995515847578645 0.0019262608839198947
v -0.0008629693184047937 5.188342200312945e-09 0.0003959724272135645
v -0.000833563506603241 0.00022335266112349927 0.00039597239810973406
v -0.0007473526056855917 0.0004314865218475461 0.0003959724272135645
v -0.0006102098850533366 0.0006102141924202442 0.0003959724272135645
v -0.00043148486292921007 0.0007473492296412587 0.00039597239810973406
v -0.00022335363610181957 0.0008335635648109019 0.00039597239810973406
v -1.764128092391842e-18 0.0008629697258584201 0.00039597239810973406
v 0.00022335363610181957 0.000833563506603241 0.00039597239810973406
v 0.00043148486292921007 0.0007473491714335978 0.00039597239810973406
v 0.0006102098850533366 0.0006102141342125833 0.0003959724272135645
v 0.0007473526056855917 0.0004314865218475461 0.0003959724272135645
v 0.000833563506603241 0.00022335266112349927 0.00039597239810973406
v 0.0008629693184047937 5.188342200312945e-09 0.0003959724272135645
v 0.000833563506603241 -0.00022335459652822465 0.0003959724272135645
v 0.0007473526056855917 -0.000431486580055207 0.0003959724272135645
v 0.0006102098850533366 -0.000610214367043227 0.0003959724272135645
v 0.00043148486292921007 -0.0007473579025827348 0.0003959724272135645
v 0.00022335363610181957 -0.0008335637394338846 0.0003959724272135645
v -1.3078100817666313e-18 -0.0008629697258584201 0.0003959724272135645
v -0.00022335363610181957 -0.000833563506603241 0.0003959724272135645
v -0.00043148486292921007 -0.0007473492296412587 0.0003959724272135645
v -0.0006102098850533366 -0.0006102142506279051 0.0003959724272135645
v -0.0007473526056855917 -0.000431486580055207 0.0003959724272135645
v -0.000833563506603241 -0.00022335458197630942 0.0003959724272135645
v -2.2204459996194763e-18 0.0011003672843798995 0.001904587959870696
v -1.764128092391842e-18 0.0008629697258584201 0.00039597239810973406
v -2.775557396126769e-18 0.001081653404980898 0.0019262608839198947
v -2.775557396126769e-18 0.0010379775194451213 0.0019262608839198947
v -0.0011003647232428193 5.188342200312945e-09 0.0019045878434553742
v -0.0010447950335219502 0.00027994788251817226 0.0019262608839198947
v -0.0010816507274284959 5.188342200312945e-09 0.0019262608839198947
v -0.000936737866140902 0.0005408229772001505 0.0019262608839198947
v -0.0007648441824130714 0.000764842436183244 0.0019262608839198947
v -0.000540827342774719 0.0009367418242618442 0.0019262608839198947
v -0.0002799523063004017 0.001044795149937272 0.0019262608839198947
v -2.775557396126769e-18 0.001081653404980898 0.0019262608839198947
v 0.0002799523063004017 0.001044795149937272 0.0019262608839198947
v -2.775557396126769e-18 0.001081653404980898 0.0019262608839198947
v 0.000540827342774719 0.0009367417078465223 0.0019262608839198947
v 0.0007648441824130714 0.0007648423779755831 0.0019262608839198947
v 0.000936737866140902 0.0005408229189924896 0.0019262608839198947
v 0.0010447950335219502 0.00027994788251817226 0.0019262608839198947
v 0.0010816507274284959 5.188342200312945e-09 0.0019262608839198947
v 0.0010447959648445249 -0.00027995515847578645 0.0019262608839198947
v 0.0009367363527417183 -0.0005408257129602134 0.0019262608839198947
v 0.0007648441824130714 -0.0007648425525985658 0.0019262608839198947
v 0.000540827342774719 -0.000936741940677166 0.0019262608839198947
v 0.0002799523063004017 -0.001044795266352594 0.0019262608839198947
v -2.2204459996194763e-18 -0.001081653404980898 0.0019262608839198947
v -0.0002799523063004017 -0.001044795149937272 0.0019262608839198947
v -0.000540827342774719 -0.0009367418242618442 0.0019262608839198947
v -0.0007648441824130714 -0.000764842436183244 0.0019262608839198947
v -0.0009367363527417183 -0.0005408257129602134 0.0019262608839198947
v -0.0010447959648445249 -0.00027995515847578645 0.0019262608839198947
v -0.0008115728269331157 5.188342200312945e-09 6.935492274351418e-05
v -0.0007839180179871619 0.00021005132293794304 6.935499550309032e-05
v -0.0007028418476693332 0.00040578897460363805 6.935499550309032e-05
v -0.0005738667096011341 0.0005738718900829554 6.935499550309032e-05
v -0.00040578641346655786 0.0007028366671875119 6.935499550309032e-05
v -0.00021005136659368873 0.0007839180179871619 6.935499550309032e-05
v -1.6653344997146072e-18 0.0008115728269331157 6.935499550309032e-05
v -1.6653344997146072e-18 0.0008115728269331157 6.935499550309032e-05
v 0.00021005136659368873 0.000783917959779501 6.935499550309032e-05
v 0.00040578641346655786 0.0007028365507721901 6.935499550309032e-05
v 0.0005738667096011341 0.0005738718900829554 6.935499550309032e-05
v 0.0007028418476693332 0.00040578897460363805 6.935499550309032e-05
v 0.0007839180179871619 0.0002100513083860278 6.935499550309032e-05
v 0.0008115728269331157 5.188342200312945e-09 6.935492274351418e-05
v 0.0008115728269331157 5.188342200312945e-09 6.935492274351418e-05
v 0.0007839180179871619 -0.00021005142480134964 6.935492274351418e-05
v 0.0007028418476693332 -0.00040578903281129897 6.935492274351418e-05
v 0.0005738667096011341 -0.0005738720064982772 6.935492274351418e-05
v 0.00040578641346655786 -0.0007028471445664763 6.935492274351418e-05
v 0.00021005136659368873 -0.0007839181926101446 6.935492274351418e-05
v -1.1102229998097382e-18 -0.0008115728269331157 6.935492274351418e-05
v -0.00021005136659368873 -0.0007839180179871619 6.935492274351418e-05
v -0.00040578641346655786 -0.0007028366671875119 6.935492274351418e-05
v -0.0005738667096011341 -0.0005738720064982772 6.935492274351418e-05
v -0.0007028418476693332 -0.00040578903281129897 6.935492274351418e-05
v -0.0007839180179871619 -0.00021005139569751918 6.935492274351418e-05
v -0.0008115728269331157 5.188342200312945e-09 6.935492274351418e-05
g submesh_0
f 148 149 81
f 148 81 105
f 105 81 82
f 105 82 106
f 106 82 83
f 106 83 107
f 107 83 84
f 107 84 108
f 108 84 85
f 108 85 109
f 109 85 86
f 109 86 110
f 110 86 87
f 110 87 111
f 111 87 88
f 111 88 112
f 112 88 89
f 112 89 113
f 113 89 90
f 113 90 114
f 114 90 91
f 114 91 115
f 115 91 92
f 115 92 116
f 116 92 93
f 116 93 117
f 117 93 94
f 117 94 118
f 118 94 95
f 118 95 119
f 119 95 96
f 119 96 120
f 120 96 97
f 120 97 121
f 121 97 74
f 121 74 50
f 50 74 75
f 50 75 99
f 99 75 76
f 99 76 100
f 100 76 77
f 100 77 101
f 101 77 78
f 101 78 102
f 102 78 79
f 102 79 103
f 103 79 80
f 103 80 104
f 157 56 55
f 157 55 156
f 156 55 54
f 156 54 155
f 155 54 53
f 155 53 154
f 154 53 52
f 154 52 153
f 153 52 51
f 153 51 151
f 151 51 150
f 151 150 152
f 152 150 73
f 152 73 175
f 175 73 72
f 175 72 174
f 174 72 71
f 174 71 173
f 173 71 70
f 173 70 172
f 172 70 69
f 172 69 171
f 171 69 68
f 171 68 170
f 170 68 67
f 170 67 169
f 169 67 66
f 169 66 168
f 168 66 65
f 168 65 167
f 167 65 64
f 167 64 166
f 166 64 63
f 166 63 165
f 165 63 62
f 165 62 164
f 164 62 61
f 164 61 163
f 163 61 60
f 163 60 162
f 162 60 59
f 162 59 161
f 161 59 58
f 161 58 160
f 160 58 57
f 160 57 158
f 158 57 146
f 158 146 159
f 176 122 123
f 176 123 177
f 177 123 124
f 177 124 178
f 178 124 125
f 178 125 179
f 179 125 126
f 179 126 180
f 180 126 127
f 180 127 181
f 181 127 128
f 181 128 182
f 183 147 129
f 183 129 184
f 184 129 130
f 184 130 185
f 185 130 131
f 185 131 186
f 186 131 132
f 186 132 187
f 187 132 133
f 187 133 188
f 188 133 134
f 188 134 189
f 190 134 135
f 190 135 191
f 191 135 136
f 191 136 192
f 192 136 137
f 192 137 193
f 193 137 138
f 193 138 194
f 194 138 139
f 194 139 195
f 195 139 140
f 195 140 196
f 196 140 141
f 196 141 197
f 197 141 142
f 197 142 198
f 198 142 143
f 198 143 199
f 199 143 144
f 199 144 200
f 200 144 145
f 200 145 201
f 201 145 122
f 201 122 202
f 2 27 3
f 3 27 28
f 3 28 4
f 4 28 29
f 4 29 5
f 5 29 30
f 5 30 6
f 6 30 31
f 6 31 7
f 7 31 32
f 7 32 8
f 8 32 33
f 8 33 9
f 9 33 34
f 9 34 10
f 10 34 35
f 10 35 11
f 11 35 36
f 11 36 12
f 12 36 37
f 12 37 13
f 13 37 38
f 13 38 14
f 14 38 39
f 14 39 15
f 15 39 40
f 15 40 16
f 16 40 41
f 16 41 17
f 17 41 42
f 17 42 18
f 18 42 43
f 18 43 19
f 19 43 44
f 19 44 20
f 20 44 45
f 20 45 21
f 21 45 46
f 21 46 22
f 22 46 47
f 22 47 23
f 23 47 48
f 23 48 24
f 24 48 49
f 24 49 25
f 25 49 26
f 25 26 2
f 2 26 27
f 56 128 55
f 55 128 127
f 55 127 54
f 54 127 126
f 54 126 53
f 53 126 125
f 53 125 52
f 52 125 124
f 52 124 51
f 51 124 123
f 51 123 98
f 98 123 122
f 98 122 73
f 73 122 145
f 73 145 144
f 147 146 129
f 129 146 57
f 129 57 130
f 130 57 58
f 130 58 131
f 131 58 59
f 131 59 132
f 132 59 60
f 132 60 133
f 133 60 61
f 133 61 134
f 134 61 62
f 134 62 135
f 135 62 63
f 135 63 136
f 136 63 64
f 136 64 137
f 137 64 65
f 137 65 138
f 138 65 66
f 138 66 139
f 139 66 67
f 139 67 140
f 140 67 68
f 140 68 141
f 141 68 69
f 141 69 142
f 142 69 70
f 142 70 143
f 143 70 71
f 143 71 144
f 144 71 72
f 144 72 73
f 24 25 1
f 1 25 2
f 1 2 3
f 3 4 1
f 1 4 5
f 1 5 6
f 6 7 1
f 1 7 8
f 1 8 9
f 9 10 1
f 1 10 11
f 1 11 12
f 12 13 1
f 1 13 14
f 1 14 15
f 15 16 1
f 1 16 17
f 1 17 18
f 18 19 1
f 1 19 20
f 1 20 21
f 21 22 1
f 1 22 23
f 1 23 24
