# rich_11
v -0.22099974751472473 0.1969844400882721 -4.999999418942025e-07
v -0.11395324766635895 0.30400004982948303 -4.999999418942025e-07
v 0.11765624582767487 0.30400004982948303 -4.999999418942025e-07
v 0.22099974751472473 0.2006719559431076 -4.999999418942025e-07
v 0.22099974751472473 -0.19974994659423828 -4.999999418942025e-07
v 0.11673461645841599 -0.3039999306201935 -4.999999418942025e-07
v -0.11581237614154816 -0.3039999306201935 -4.999999418942025e-07
v -0.22099974751472473 -0.19882804155349731 -4.999999418942025e-07
v 0.04299987852573395 -0.145999938249588 -4.999999418942025e-07
v 0.04299987852573395 0.14600005745887756 -4.999999418942025e-07
v -0.042000122368335724 0.14600005745887756 -4.999999418942025e-07
v -0.042000122368335724 -0.145999938249588 -4.999999418942025e-07
g submesh_0
f 8 7 12
f 8 12 1
f 1 12 11
f 1 11 10
f 4 3 10
f 10 3 2
f 10 2 1
f 7 6 9
f 9 6 5
f 9 5 10
f 10 5 4
f 9 12 7
