# 14
v 0.1465185582637787 -0.1719740331172943 -0.10098438709974289
v 0.19267484545707703 -0.1719740331172943 -0.10098440200090408
v 0.19267484545707703 0.27802595496177673 -0.10098440200090408
v 0.3258407413959503 0.27802595496177673 -0.10098440945148468
v 0.3797735869884491 0.22459226846694946 -0.10098440200090408
v 0.3797735869884491 0.161317840218544 -0.10098440200090408
v 0.3262423872947693 0.161317840218544 -0.10098440945148468
v 0.3262423872947693 -0.1719740331172943 -0.10098440945148468
v 0.37239858508110046 -0.1719740331172943 -0.10098438709974289
v 0.37239858508110046 -0.27802592515945435 -0.10098438709974289
v 0.1465185582637787 -0.27802592515945435 -0.10098438709974289
v -0.37977373600006104 -0.0009740256937220693 -0.10096368193626404
v -0.30911749601364136 -0.0009740256937220693 -0.10096368193626404
v -0.30911749601364136 0.27802595496177673 -0.10096368193626404
v -0.1623006910085678 0.27802595496177673 -0.10096368193626404
v 0.0519343800842762 -0.005460681859403849 -0.10096368193626404
v 0.0519343800842762 -0.087025947868824 -0.10096368193626404
v -0.1890656054019928 -0.087025947868824 -0.10096368193626404
v -0.1890656054019928 -0.1719740331172943 -0.10096368193626404
v -0.13606557250022888 -0.1719740331172943 -0.10096368193626404
v -0.13606557250022888 -0.27802595496177673 -0.10096368193626404
v -0.3461174964904785 -0.27802595496177673 -0.10096368193626404
v -0.3461174964904785 -0.1719740331172943 -0.10096368193626404
v -0.303117573261261 -0.1719740331172943 -0.10096368193626404
v -0.303117573261261 -0.087025947868824 -0.10096368193626404
v -0.37977373600006104 -0.087025947868824 -0.10096368193626404
v -0.06551223248243332 -0.0009740256937220693 -0.10096368193626404
v -0.19206564128398895 0.17118988931179047 -0.10096368193626404
v -0.19206564128398895 -0.0009740256937220693 -0.10096368193626404
v 0.12054452300071716 -0.1459999978542328 -0.07501035183668137
v 0.16670078039169312 -0.1459999978542328 -0.07501035183668137
v 0.16670078039169312 0.30399999022483826 -0.07501035183668137
v 0.3365289270877838 0.30399999022483826 -0.07501035928726196
v 0.4057476818561554 0.23542192578315735 -0.07501035183668137
v 0.4057476818561554 0.1353437900543213 -0.07501035183668137
v 0.3522163927555084 0.1353437900543213 -0.07501035183668137
v 0.3522163927555084 -0.1459999978542328 -0.07501035183668137
v 0.39837267994880676 -0.1459999978542328 -0.07501035183668137
v 0.39837267994880676 -0.30399999022483826 -0.07501035183668137
v 0.12054452300071716 -0.30399999022483826 -0.07501035183668137
v -0.40574777126312256 0.025000018998980522 -0.07498964667320251
v -0.3350915014743805 0.025000018998980522 -0.07498964667320251
v -0.3350915014743805 0.30399999022483826 -0.07498964667320251
v -0.14937284588813782 0.30399999022483826 -0.07498964667320251
v 0.07790842652320862 0.0032500075176358223 -0.07498964667320251
v 0.07790842652320862 -0.11299999058246613 -0.07498964667320251
v -0.16309155523777008 -0.11299999058246613 -0.07498964667320251
v -0.16309155523777008 -0.1459999978542328 -0.07498964667320251
v -0.11009152978658676 -0.1459999978542328 -0.07498964667320251
v -0.11009152978658676 -0.30399999022483826 -0.07498964667320251
v -0.3720915615558624 -0.30399999022483826 -0.07498964667320251
v -0.3720915615558624 -0.1459999978542328 -0.07498964667320251
v -0.3290916085243225 -0.1459999978542328 -0.07498964667320251
v -0.3290916085243225 -0.11299999058246613 -0.07498964667320251
v -0.40574777126312256 -0.11299999058246613 -0.07498964667320251
v -0.11684156209230423 0.025000018998980522 -0.07498964667320251
v -0.16609159111976624 0.09200002253055573 -0.07498964667320251
v -0.16609159111976624 0.025000018998980522 -0.07498964667320251
v 0.12054450809955597 -0.1459999978542328 0.07498964667320251
v 0.1667007952928543 -0.1459999978542328 0.07498963922262192
v 0.1667007952928543 0.30399999022483826 0.07498963922262192
v 0.3365288972854614 0.30399999022483826 0.07498964667320251
v 0.4057476818561554 0.23542192578315735 0.07498963922262192
v 0.4057476818561554 0.1353437900543213 0.07498963922262192
v 0.3522163927555084 0.1353437900543213 0.07498963922262192
v 0.3522163927555084 -0.1459999978542328 0.07498963922262192
v 0.3983726501464844 -0.1459999978542328 0.07498964667320251
v 0.3983726501464844 -0.30399999022483826 0.07498964667320251
v 0.12054450809955597 -0.30399999022483826 0.07498964667320251
v -0.40574777126312256 0.025000018998980522 0.07501035183668137
v -0.3350915014743805 0.025000018998980522 0.07501035183668137
v -0.3350915014743805 0.30399999022483826 0.07501035183668137
v -0.14937284588813782 0.30399999022483826 0.07501035183668137
v 0.07790842652320862 0.0032500075176358223 0.07501035183668137
v 0.07790842652320862 -0.11299999058246613 0.07501035183668137
v -0.16309155523777008 -0.11299999058246613 0.07501035183668137
v -0.16309155523777008 -0.1459999978542328 0.07501035183668137
v -0.11009152978658676 -0.1459999978542328 0.07501035183668137
v -0.11009152978658676 -0.30399999022483826 0.07501035183668137
v -0.3720915615558624 -0.30399999022483826 0.07501035183668137
v -0.3720915615558624 -0.1459999978542328 0.07501035183668137
v -0.3290916085243225 -0.1459999978542328 0.07501035183668137
v -0.3290916085243225 -0.11299999058246613 0.07501035183668137
v -0.40574777126312256 -0.11299999058246613 0.07501035183668137
v -0.11684156209230423 0.025000018998980522 0.07501035183668137
v -0.16609159111976624 0.09200002253055573 0.07501035183668137
v -0.16609159111976624 0.025000018998980522 0.07501035183668137
v 0.1465185582637787 -0.1719740331172943 0.10096368193626404
v 0.19267484545707703 -0.1719740331172943 0.10096368193626404
v 0.19267484545707703 0.27802595496177673 0.10096368193626404
v 0.3258407413959503 0.27802595496177673 0.10096368193626404
v 0.3797736167907715 0.22459226846694946 0.10096368193626404
v 0.3797736167907715 0.161317840218544 0.10096368193626404
v 0.3262423872947693 0.161317840218544 0.10096370428800583
v 0.3262423872947693 -0.1719740331172943 0.10096370428800583
v 0.37239858508110046 -0.1719740331172943 0.10096368193626404
v 0.37239858508110046 -0.27802592515945435 0.10096368193626404
v 0.1465185582637787 -0.27802592515945435 0.10096368193626404
v -0.37977373600006104 -0.0009740256937220693 0.10098440200090408
v -0.30911749601364136 -0.0009740256937220693 0.10098440200090408
v -0.30911749601364136 0.27802595496177673 0.10098440200090408
v -0.1623006910085678 0.27802595496177673 0.10098440200090408
v 0.0519343800842762 -0.005460681859403849 0.10098440200090408
v 0.0519343800842762 -0.087025947868824 0.10098440200090408
v -0.1890656054019928 -0.087025947868824 0.10098440200090408
v -0.1890656054019928 -0.1719740331172943 0.10098440200090408
v -0.13606557250022888 -0.1719740331172943 0.10098440200090408
v -0.13606557250022888 -0.27802595496177673 0.10098440200090408
v -0.3461174964904785 -0.27802595496177673 0.10098440200090408
v -0.3461174964904785 -0.1719740331172943 0.10098440200090408
v -0.303117573261261 -0.1719740331172943 0.10098440200090408
v -0.303117573261261 -0.087025947868824 0.10098440200090408
v -0.37977373600006104 -0.087025947868824 0.10098440200090408
v -0.06551223248243332 -0.0009740256937220693 0.10098440200090408
v -0.19206564128398895 0.17118988931179047 0.10098440200090408
v -0.19206564128398895 -0.0009740256937220693 0.10098440200090408
v 0.16670078039169312 -0.1459999978542328 -0.07501035183668137
v 0.1667007952928543 -0.1459999978542328 0.07498963922262192
v 0.16670078039169312 0.30399999022483826 -0.07501035183668137
v 0.1667007952928543 0.30399999022483826 0.07498963922262192
v 0.3365289270877838 0.30399999022483826 -0.07501035928726196
v 0.3365288972854614 0.30399999022483826 0.07498964667320251
v 0.4057476818561554 0.23542192578315735 -0.07501035183668137
v 0.4057476818561554 0.23542192578315735 0.07498963922262192
v 0.4057476818561554 0.1353437900543213 -0.07501035183668137
v 0.4057476818561554 0.1353437900543213 0.07498963922262192
v 0.3522163927555084 0.1353437900543213 -0.07501035183668137
v 0.3522163927555084 0.1353437900543213 0.07498963922262192
v 0.3522163927555084 -0.1459999978542328 -0.07501035183668137
v 0.3522163927555084 -0.1459999978542328 0.07498963922262192
v 0.39837267994880676 -0.1459999978542328 -0.07501035183668137
v 0.3983726501464844 -0.1459999978542328 0.07498964667320251
v 0.39837267994880676 -0.30399999022483826 -0.07501035183668137
v 0.3983726501464844 -0.30399999022483826 0.07498964667320251
v 0.12054452300071716 -0.30399999022483826 -0.07501035183668137
v 0.12054450809955597 -0.30399999022483826 0.07498964667320251
v 0.12054452300071716 -0.1459999978542328 -0.07501035183668137
v 0.12054450809955597 -0.1459999978542328 0.07498964667320251
v -0.3350915014743805 0.025000018998980522 -0.07498964667320251
v -0.3350915014743805 0.025000018998980522 0.07501035183668137
v -0.3350915014743805 0.30399999022483826 -0.07498964667320251
v -0.3350915014743805 0.30399999022483826 0.07501035183668137
v -0.14937284588813782 0.30399999022483826 -0.07498964667320251
v -0.14937284588813782 0.30399999022483826 0.07501035183668137
v 0.07790842652320862 -0.11299999058246613 -0.07498964667320251
v 0.07790842652320862 -0.11299999058246613 0.07501035183668137
v -0.16309155523777008 -0.11299999058246613 -0.07498964667320251
v -0.16309155523777008 -0.11299999058246613 0.07501035183668137
v -0.16309155523777008 -0.1459999978542328 -0.07498964667320251
v -0.16309155523777008 -0.1459999978542328 0.07501035183668137
v -0.11009152978658676 -0.1459999978542328 -0.07498964667320251
v -0.11009152978658676 -0.1459999978542328 0.07501035183668137
v -0.11009152978658676 -0.30399999022483826 -0.07498964667320251
v -0.11009152978658676 -0.30399999022483826 0.07501035183668137
v -0.3720915615558624 -0.30399999022483826 -0.07498964667320251
v -0.3720915615558624 -0.30399999022483826 0.07501035183668137
v -0.3720915615558624 -0.1459999978542328 -0.07498964667320251
v -0.3720915615558624 -0.1459999978542328 0.07501035183668137
v -0.3290916085243225 -0.1459999978542328 -0.07498964667320251
v -0.3290916085243225 -0.1459999978542328 0.07501035183668137
v -0.3290916085243225 -0.11299999058246613 -0.07498964667320251
v -0.3290916085243225 -0.11299999058246613 0.07501035183668137
v -0.40574777126312256 -0.11299999058246613 -0.07498964667320251
v -0.40574777126312256 -0.11299999058246613 0.07501035183668137
v -0.40574777126312256 0.025000018998980522 -0.07498964667320251
v -0.40574777126312256 0.025000018998980522 0.07501035183668137
v -0.16609159111976624 0.09200002253055573 -0.07498964667320251
v -0.16609159111976624 0.09200002253055573 0.07501035183668137
v -0.16609159111976624 0.025000018998980522 -0.07498964667320251
v -0.16609159111976624 0.025000018998980522 0.07501035183668137
v -0.11684156209230423 0.025000018998980522 -0.07498964667320251
v -0.11684156209230423 0.025000018998980522 0.07501035183668137
v 0.16670078039169312 -0.1459999978542328 -0.07501035183668137
v 0.1465185582637787 -0.1719740331172943 -0.10098438709974289
v 0.12054452300071716 -0.1459999978542328 -0.07501035183668137
v 0.1465185582637787 -0.1719740331172943 -0.10098438709974289
v 0.19267484545707703 -0.1719740331172943 -0.10098440200090408
v 0.16670078039169312 0.30399999022483826 -0.07501035183668137
v 0.16670078039169312 -0.1459999978542328 -0.07501035183668137
v 0.19267484545707703 0.27802595496177673 -0.10098440200090408
v 0.3365289270877838 0.30399999022483826 -0.07501035928726196
v 0.16670078039169312 0.30399999022483826 -0.07501035183668137
v 0.3258407413959503 0.27802595496177673 -0.10098440945148468
v 0.4057476818561554 0.23542192578315735 -0.07501035183668137
v 0.3365289270877838 0.30399999022483826 -0.07501035928726196
v 0.3797735869884491 0.22459226846694946 -0.10098440200090408
v 0.4057476818561554 0.1353437900543213 -0.07501035183668137
v 0.4057476818561554 0.23542192578315735 -0.07501035183668137
v 0.3797735869884491 0.161317840218544 -0.10098440200090408
v 0.3522163927555084 0.1353437900543213 -0.07501035183668137
v 0.4057476818561554 0.1353437900543213 -0.07501035183668137
v 0.3262423872947693 0.161317840218544 -0.10098440945148468
v 0.3262423872947693 0.161317840218544 -0.10098440945148468
v 0.3262423872947693 -0.1719740331172943 -0.10098440945148468
v 0.39837267994880676 -0.1459999978542328 -0.07501035183668137
v 0.3262423872947693 -0.1719740331172943 -0.10098440945148468
v 0.3522163927555084 -0.1459999978542328 -0.07501035183668137
v 0.37239858508110046 -0.1719740331172943 -0.10098438709974289
v 0.39837267994880676 -0.30399999022483826 -0.07501035183668137
v 0.39837267994880676 -0.1459999978542328 -0.07501035183668137
v 0.37239858508110046 -0.27802592515945435 -0.10098438709974289
v 0.12054452300071716 -0.30399999022483826 -0.07501035183668137
v 0.39837267994880676 -0.30399999022483826 -0.07501035183668137
v 0.1465185582637787 -0.27802592515945435 -0.10098438709974289
v 0.12054452300071716 -0.1459999978542328 -0.07501035183668137
v 0.12054452300071716 -0.30399999022483826 -0.07501035183668137
v 0.1465185582637787 -0.1719740331172943 -0.10098438709974289
v -0.3350915014743805 0.025000018998980522 -0.07498964667320251
v -0.37977373600006104 -0.0009740256937220693 -0.10096368193626404
v -0.40574777126312256 0.025000018998980522 -0.07498964667320251
v -0.30911749601364136 -0.0009740256937220693 -0.10096368193626404
v -0.3350915014743805 0.30399999022483826 -0.07498964667320251
v -0.30911749601364136 -0.0009740256937220693 -0.10096368193626404
v -0.3350915014743805 0.025000018998980522 -0.07498964667320251
v -0.30911749601364136 0.27802595496177673 -0.10096368193626404
v -0.14937284588813782 0.30399999022483826 -0.07498964667320251
v -0.30911749601364136 0.27802595496177673 -0.10096368193626404
v -0.3350915014743805 0.30399999022483826 -0.07498964667320251
v -0.1623006910085678 0.27802595496177673 -0.10096368193626404
v -0.14937284588813782 0.30399999022483826 -0.07498964667320251
v 0.0519343800842762 -0.005460681859403849 -0.10096368193626404
v 0.07790842652320862 -0.11299999058246613 -0.07498964667320251
v 0.0519343800842762 -0.087025947868824 -0.10096368193626404
v -0.16309155523777008 -0.11299999058246613 -0.07498964667320251
v 0.07790842652320862 -0.11299999058246613 -0.07498964667320251
v -0.1890656054019928 -0.087025947868824 -0.10096368193626404
v -0.16309155523777008 -0.1459999978542328 -0.07498964667320251
v -0.16309155523777008 -0.11299999058246613 -0.07498964667320251
v -0.1890656054019928 -0.1719740331172943 -0.10096368193626404
v -0.11009152978658676 -0.1459999978542328 -0.07498964667320251
v -0.16309155523777008 -0.1459999978542328 -0.07498964667320251
v -0.13606557250022888 -0.1719740331172943 -0.10096368193626404
v -0.11009152978658676 -0.30399999022483826 -0.07498964667320251
v -0.11009152978658676 -0.1459999978542328 -0.07498964667320251
v -0.13606557250022888 -0.27802595496177673 -0.10096368193626404
v -0.3720915615558624 -0.30399999022483826 -0.07498964667320251
v -0.11009152978658676 -0.30399999022483826 -0.07498964667320251
v -0.3461174964904785 -0.27802595496177673 -0.10096368193626404
v -0.3720915615558624 -0.1459999978542328 -0.07498964667320251
v -0.3720915615558624 -0.30399999022483826 -0.07498964667320251
v -0.3461174964904785 -0.1719740331172943 -0.10096368193626404
v -0.3290916085243225 -0.1459999978542328 -0.07498964667320251
v -0.3720915615558624 -0.1459999978542328 -0.07498964667320251
v -0.303117573261261 -0.1719740331172943 -0.10096368193626404
v -0.3290916085243225 -0.11299999058246613 -0.07498964667320251
v -0.303117573261261 -0.1719740331172943 -0.10096368193626404
v -0.3290916085243225 -0.1459999978542328 -0.07498964667320251
v -0.303117573261261 -0.087025947868824 -0.10096368193626404
v -0.40574777126312256 -0.11299999058246613 -0.07498964667320251
v -0.3290916085243225 -0.11299999058246613 -0.07498964667320251
v -0.37977373600006104 -0.087025947868824 -0.10096368193626404
v -0.40574777126312256 0.025000018998980522 -0.07498964667320251
v -0.40574777126312256 -0.11299999058246613 -0.07498964667320251
v -0.16609159111976624 0.09200002253055573 -0.07498964667320251
v -0.06551223248243332 -0.0009740256937220693 -0.10096368193626404
v -0.11684156209230423 0.025000018998980522 -0.07498964667320251
v -0.19206564128398895 0.17118988931179047 -0.10096368193626404
v -0.16609159111976624 0.025000018998980522 -0.07498964667320251
v -0.19206564128398895 0.17118988931179047 -0.10096368193626404
v -0.19206564128398895 -0.0009740256937220693 -0.10096368193626404
v -0.11684156209230423 0.025000018998980522 -0.07498964667320251
v -0.16609159111976624 0.025000018998980522 -0.07498964667320251
v -0.06551223248243332 -0.0009740256937220693 -0.10096368193626404
v 0.12054450809955597 -0.1459999978542328 0.07498964667320251
v 0.19267484545707703 -0.1719740331172943 0.10096368193626404
v 0.1667007952928543 -0.1459999978542328 0.07498963922262192
v 0.19267484545707703 -0.1719740331172943 0.10096368193626404
v 0.12054450809955597 -0.1459999978542328 0.07498964667320251
v 0.1465185582637787 -0.1719740331172943 0.10096368193626404
v 0.19267484545707703 0.27802595496177673 0.10096368193626404
v 0.1667007952928543 0.30399999022483826 0.07498963922262192
v 0.19267484545707703 -0.1719740331172943 0.10096368193626404
v 0.1667007952928543 0.30399999022483826 0.07498963922262192
v 0.3258407413959503 0.27802595496177673 0.10096368193626404
v 0.3365288972854614 0.30399999022483826 0.07498964667320251
v 0.1667007952928543 0.30399999022483826 0.07498963922262192
v 0.19267484545707703 0.27802595496177673 0.10096368193626404
v 0.3797736167907715 0.22459226846694946 0.10096368193626404
v 0.4057476818561554 0.23542192578315735 0.07498963922262192
v 0.4057476818561554 0.23542192578315735 0.07498963922262192
v 0.3797736167907715 0.161317840218544 0.10096368193626404
v 0.4057476818561554 0.1353437900543213 0.07498963922262192
v 0.4057476818561554 0.1353437900543213 0.07498963922262192
v 0.3262423872947693 0.161317840218544 0.10096370428800583
v 0.3522163927555084 0.1353437900543213 0.07498963922262192
v 0.3522163927555084 0.1353437900543213 0.07498963922262192
v 0.3262423872947693 -0.1719740331172943 0.10096370428800583
v 0.3522163927555084 -0.1459999978542328 0.07498963922262192
v 0.3262423872947693 0.161317840218544 0.10096370428800583
v 0.3522163927555084 -0.1459999978542328 0.07498963922262192
v 0.37239858508110046 -0.1719740331172943 0.10096368193626404
v 0.3983726501464844 -0.1459999978542328 0.07498964667320251
v 0.3262423872947693 -0.1719740331172943 0.10096370428800583
v 0.3983726501464844 -0.1459999978542328 0.07498964667320251
v 0.37239858508110046 -0.27802592515945435 0.10096368193626404
v 0.3983726501464844 -0.30399999022483826 0.07498964667320251
v 0.3983726501464844 -0.30399999022483826 0.07498964667320251
v 0.1465185582637787 -0.27802592515945435 0.10096368193626404
v 0.12054450809955597 -0.30399999022483826 0.07498964667320251
v 0.12054450809955597 -0.30399999022483826 0.07498964667320251
v 0.12054450809955597 -0.1459999978542328 0.07498964667320251
v -0.40574777126312256 0.025000018998980522 0.07501035183668137
v -0.30911749601364136 -0.0009740256937220693 0.10098440200090408
v -0.3350915014743805 0.025000018998980522 0.07501035183668137
v -0.37977373600006104 -0.0009740256937220693 0.10098440200090408
v -0.30911749601364136 0.27802595496177673 0.10098440200090408
v -0.30911749601364136 -0.0009740256937220693 0.10098440200090408
v -0.3350915014743805 0.30399999022483826 0.07501035183668137
v -0.1623006910085678 0.27802595496177673 0.10098440200090408
v -0.14937284588813782 0.30399999022483826 0.07501035183668137
v -0.30911749601364136 0.27802595496177673 0.10098440200090408
v -0.14937284588813782 0.30399999022483826 0.07501035183668137
v 0.0519343800842762 -0.005460681859403849 0.10098440200090408
v 0.07790842652320862 0.0032500075176358223 0.07501035183668137
v 0.0519343800842762 -0.087025947868824 0.10098440200090408
v 0.07790842652320862 -0.11299999058246613 0.07501035183668137
v 0.07790842652320862 -0.11299999058246613 0.07501035183668137
v -0.1890656054019928 -0.087025947868824 0.10098440200090408
v -0.16309155523777008 -0.11299999058246613 0.07501035183668137
v 0.0519343800842762 -0.087025947868824 0.10098440200090408
v -0.16309155523777008 -0.11299999058246613 0.07501035183668137
v -0.1890656054019928 -0.1719740331172943 0.10098440200090408
v -0.16309155523777008 -0.1459999978542328 0.07501035183668137
v -0.1890656054019928 -0.087025947868824 0.10098440200090408
v -0.16309155523777008 -0.1459999978542328 0.07501035183668137
v -0.13606557250022888 -0.1719740331172943 0.10098440200090408
v -0.11009152978658676 -0.1459999978542328 0.07501035183668137
v -0.1890656054019928 -0.1719740331172943 0.10098440200090408
v -0.11009152978658676 -0.1459999978542328 0.07501035183668137
v -0.13606557250022888 -0.27802595496177673 0.10098440200090408
v -0.11009152978658676 -0.30399999022483826 0.07501035183668137
v -0.13606557250022888 -0.1719740331172943 0.10098440200090408
v -0.11009152978658676 -0.30399999022483826 0.07501035183668137
v -0.3461174964904785 -0.27802595496177673 0.10098440200090408
v -0.3720915615558624 -0.30399999022483826 0.07501035183668137
v -0.13606557250022888 -0.27802595496177673 0.10098440200090408
v -0.3461174964904785 -0.1719740331172943 0.10098440200090408
v -0.3461174964904785 -0.27802595496177673 0.10098440200090408
v -0.3720915615558624 -0.1459999978542328 0.07501035183668137
v -0.303117573261261 -0.1719740331172943 0.10098440200090408
v -0.3290916085243225 -0.1459999978542328 0.07501035183668137
v -0.3461174964904785 -0.1719740331172943 0.10098440200090408
v -0.303117573261261 -0.087025947868824 0.10098440200090408
v -0.303117573261261 -0.1719740331172943 0.10098440200090408
v -0.3290916085243225 -0.11299999058246613 0.07501035183668137
v -0.37977373600006104 -0.087025947868824 0.10098440200090408
v -0.40574777126312256 -0.11299999058246613 0.07501035183668137
v -0.303117573261261 -0.087025947868824 0.10098440200090408
v -0.37977373600006104 -0.0009740256937220693 0.10098440200090408
v -0.37977373600006104 -0.087025947868824 0.10098440200090408
v -0.19206564128398895 0.17118988931179047 0.10098440200090408
v -0.06551223248243332 -0.0009740256937220693 0.10098440200090408
v -0.16609159111976624 0.09200002253055573 0.07501035183668137
v -0.19206564128398895 -0.0009740256937220693 0.10098440200090408
v -0.16609159111976624 0.025000018998980522 0.07501035183668137
v -0.19206564128398895 0.17118988931179047 0.10098440200090408
v -0.16609159111976624 0.025000018998980522 0.07501035183668137
v -0.06551223248243332 -0.0009740256937220693 0.10098440200090408
v -0.11684156209230423 0.025000018998980522 0.07501035183668137
v -0.19206564128398895 -0.0009740256937220693 0.10098440200090408
g submesh_0
f 175 173 174
f 177 176 173
f 266 264 265
f 269 267 268
f 277 274 276
f 60 31 59
f 59 31 30
f 61 32 118
f 118 32 117
f 62 33 120
f 120 33 119
f 63 34 122
f 122 34 121
f 64 35 124
f 124 35 123
f 65 36 126
f 126 36 125
f 193 127 37
f 37 127 128
f 37 128 66
f 67 38 130
f 130 38 129
f 68 39 132
f 132 39 131
f 69 40 134
f 134 40 133
f 138 137 136
f 136 137 135
f 71 42 70
f 70 42 41
f 306 72 140
f 140 72 43
f 140 43 139
f 73 44 142
f 142 44 141
f 75 46 74
f 74 46 45
f 74 45 144
f 144 45 143
f 76 47 146
f 146 47 145
f 77 48 148
f 148 48 147
f 78 49 150
f 150 49 149
f 79 50 152
f 152 50 151
f 80 51 154
f 154 51 153
f 337 81 156
f 156 81 52
f 156 52 155
f 82 53 158
f 158 53 157
f 343 83 160
f 160 83 54
f 160 54 159
f 84 55 162
f 162 55 161
f 349 166 164
f 164 166 165
f 164 165 163
f 351 86 85
f 85 86 57
f 85 57 56
f 87 58 168
f 168 58 167
f 172 171 170
f 170 171 169
f 95 94 89
f 95 89 97
f 97 89 88
f 97 88 98
f 96 95 97
f 93 92 94
f 94 92 91
f 94 91 90
f 116 115 100
f 116 100 112
f 112 100 99
f 112 99 113
f 107 106 108
f 108 106 111
f 108 111 109
f 109 111 110
f 7 8 2
f 2 8 10
f 2 10 1
f 1 10 11
f 10 8 9
f 3 4 7
f 7 4 5
f 7 5 6
f 28 29 13
f 13 29 25
f 13 25 12
f 12 25 26
f 19 20 21
f 19 21 24
f 24 21 22
f 24 22 23
f 179 178 177
f 177 178 180
f 182 181 180
f 180 181 183
f 185 184 183
f 183 184 186
f 188 187 186
f 186 187 189
f 191 190 189
f 189 190 192
f 194 193 37
f 197 195 196
f 196 195 198
f 200 199 198
f 198 199 201
f 203 202 201
f 201 202 204
f 206 205 204
f 204 205 207
f 210 208 209
f 209 208 211
f 214 212 213
f 213 212 215
f 218 216 217
f 217 216 219
f 222 223 221
f 222 221 45
f 45 221 219
f 45 219 220
f 225 224 223
f 223 224 226
f 228 227 226
f 226 227 229
f 231 230 229
f 229 230 232
f 234 233 232
f 232 233 235
f 237 236 235
f 235 236 238
f 240 239 238
f 238 239 241
f 243 242 241
f 241 242 244
f 247 245 246
f 246 245 248
f 250 249 248
f 248 249 251
f 253 252 251
f 251 252 209
f 256 254 255
f 255 254 257
f 167 258 259
f 259 258 260
f 262 261 260
f 260 261 263
f 271 118 270
f 270 118 272
f 273 274 275
f 275 274 278
f 275 278 279
f 282 280 281
f 281 280 278
f 285 283 284
f 284 283 281
f 288 286 287
f 287 286 289
f 292 290 291
f 291 290 293
f 296 294 295
f 295 294 291
f 299 297 298
f 298 297 295
f 301 300 269
f 269 300 298
f 304 302 303
f 303 302 305
f 307 306 140
f 310 308 309
f 309 308 311
f 315 316 314
f 315 314 313
f 313 314 312
f 313 312 309
f 319 317 318
f 318 317 320
f 323 321 322
f 322 321 324
f 327 325 326
f 326 325 328
f 331 329 330
f 330 329 332
f 335 333 334
f 334 333 336
f 338 337 156
f 341 339 340
f 340 339 342
f 344 343 160
f 347 345 346
f 346 345 348
f 350 349 164
f 352 351 85
f 355 353 354
f 354 353 356
f 359 357 358
f 358 357 360
f 89 94 90
f 103 102 115
f 115 102 101
f 115 101 100
f 105 104 114
f 114 104 103
f 114 103 115
f 116 112 105
f 105 112 111
f 105 111 106
f 116 105 114
f 3 7 2
f 13 14 28
f 28 14 15
f 28 15 16
f 28 16 27
f 27 16 17
f 27 17 18
f 19 24 18
f 18 24 25
f 18 25 29
f 27 18 29
