# 07
v -0.17211970686912537 0.27802595496177673 -0.10097404569387436
v 0.17211970686912537 0.27802595496177673 -0.10097404569387436
v 0.17211970686912537 0.14336469769477844 -0.10097404569387436
v 0.06806779652833939 0.14336469769477844 -0.10097404569387436
v 0.06806779652833939 0.1719740480184555 -0.10097404569387436
v -0.049879349768161774 0.1719740480184555 -0.10097404569387436
v 0.15133939683437347 -0.27802595496177673 -0.10097404569387436
v 0.032802265137434006 -0.27802595496177673 -0.10097404569387436
v -0.17211970686912537 0.17581097781658173 -0.10097404569387436
v -0.19809375703334808 0.30399999022483826 -0.07499999552965164
v 0.19809375703334808 0.30399999022483826 -0.07499999552965164
v 0.19809375703334808 0.11739064753055573 -0.07499999552965164
v 0.042093753814697266 0.11739064753055573 -0.07499999552965164
v 0.042093753814697266 0.1459999978542328 -0.07499999552965164
v -0.009812488220632076 0.1459999978542328 -0.07499999552965164
v 0.1914062649011612 -0.30399999022483826 -0.07499999552965164
v 0.016031265258789062 -0.30399999022483826 -0.07499999552965164
v -0.19809375703334808 0.17021875083446503 -0.07499999552965164
v -0.19809375703334808 0.30399999022483826 0.07499999552965164
v 0.19809375703334808 0.30399999022483826 0.07499999552965164
v 0.19809375703334808 0.11739064753055573 0.07499999552965164
v 0.042093753814697266 0.11739064753055573 0.07499999552965164
v 0.042093753814697266 0.1459999978542328 0.07499999552965164
v -0.009812488220632076 0.1459999978542328 0.07499999552965164
v 0.1914062649011612 -0.30399999022483826 0.07499999552965164
v 0.016031265258789062 -0.30399999022483826 0.07499999552965164
v -0.19809375703334808 0.17021875083446503 0.07499999552965164
v -0.17211970686912537 0.27802595496177673 0.10097404569387436
v 0.17211970686912537 0.27802595496177673 0.10097404569387436
v 0.17211970686912537 0.14336469769477844 0.10097404569387436
v 0.06806779652833939 0.14336469769477844 0.10097404569387436
v 0.06806779652833939 0.1719740480184555 0.10097404569387436
v -0.049879349768161774 0.1719740480184555 0.10097404569387436
v 0.15133939683437347 -0.27802595496177673 0.10097404569387436
v 0.032802265137434006 -0.27802595496177673 0.10097404569387436
v -0.17211970686912537 0.17581097781658173 0.10097404569387436
v 0.19809375703334808 0.30399999022483826 -0.07499999552965164
v 0.19809375703334808 0.30399999022483826 0.07499999552965164
v 0.19809375703334808 0.11739064753055573 -0.07499999552965164
v 0.19809375703334808 0.11739064753055573 0.07499999552965164
v 0.042093753814697266 0.11739064753055573 -0.07499999552965164
v 0.042093753814697266 0.11739064753055573 0.07499999552965164
v 0.042093753814697266 0.1459999978542328 -0.07499999552965164
v 0.042093753814697266 0.1459999978542328 0.07499999552965164
v -0.009812488220632076 0.1459999978542328 -0.07499999552965164
v -0.009812488220632076 0.1459999978542328 0.07499999552965164
v 0.1914062649011612 -0.30399999022483826 -0.07499999552965164
v 0.1914062649011612 -0.30399999022483826 0.07499999552965164
v 0.016031265258789062 -0.30399999022483826 -0.07499999552965164
v 0.016031265258789062 -0.30399999022483826 0.07499999552965164
v -0.19809375703334808 0.30399999022483826 -0.07499999552965164
v -0.19809375703334808 0.30399999022483826 0.07499999552965164
v 0.19809375703334808 0.30399999022483826 -0.07499999552965164
v -0.17211970686912537 0.27802595496177673 -0.10097404569387436
v -0.19809375703334808 0.30399999022483826 -0.07499999552965164
v 0.17211970686912537 0.27802595496177673 -0.10097404569387436
v 0.17211970686912537 0.27802595496177673 -0.10097404569387436
v 0.17211970686912537 0.14336469769477844 -0.10097404569387436
v 0.042093753814697266 0.11739064753055573 -0.07499999552965164
v 0.17211970686912537 0.14336469769477844 -0.10097404569387436
v 0.19809375703334808 0.11739064753055573 -0.07499999552965164
v 0.06806779652833939 0.14336469769477844 -0.10097404569387436
v 0.042093753814697266 0.1459999978542328 -0.07499999552965164
v 0.06806779652833939 0.14336469769477844 -0.10097404569387436
v 0.042093753814697266 0.11739064753055573 -0.07499999552965164
v 0.06806779652833939 0.1719740480184555 -0.10097404569387436
v -0.009812488220632076 0.1459999978542328 -0.07499999552965164
v 0.06806779652833939 0.1719740480184555 -0.10097404569387436
v 0.042093753814697266 0.1459999978542328 -0.07499999552965164
v -0.049879349768161774 0.1719740480184555 -0.10097404569387436
v -0.049879349768161774 0.1719740480184555 -0.10097404569387436
v 0.15133939683437347 -0.27802595496177673 -0.10097404569387436
v 0.016031265258789062 -0.30399999022483826 -0.07499999552965164
v 0.15133939683437347 -0.27802595496177673 -0.10097404569387436
v 0.1914062649011612 -0.30399999022483826 -0.07499999552965164
v 0.032802265137434006 -0.27802595496177673 -0.10097404569387436
v -0.19809375703334808 0.17021875083446503 -0.07499999552965164
v 0.016031265258789062 -0.30399999022483826 -0.07499999552965164
v -0.17211970686912537 0.17581097781658173 -0.10097404569387436
v -0.19809375703334808 0.30399999022483826 -0.07499999552965164
v -0.19809375703334808 0.17021875083446503 -0.07499999552965164
v -0.17211970686912537 0.27802595496177673 -0.10097404569387436
v -0.19809375703334808 0.30399999022483826 0.07499999552965164
v 0.17211970686912537 0.27802595496177673 0.10097404569387436
v 0.19809375703334808 0.30399999022483826 0.07499999552965164
v -0.17211970686912537 0.27802595496177673 0.10097404569387436
v 0.19809375703334808 0.30399999022483826 0.07499999552965164
v 0.17211970686912537 0.14336469769477844 0.10097404569387436
v 0.19809375703334808 0.11739064753055573 0.07499999552965164
v 0.17211970686912537 0.27802595496177673 0.10097404569387436
v 0.19809375703334808 0.11739064753055573 0.07499999552965164
v 0.06806779652833939 0.14336469769477844 0.10097404569387436
v 0.042093753814697266 0.11739064753055573 0.07499999552965164
v 0.17211970686912537 0.14336469769477844 0.10097404569387436
v 0.06806779652833939 0.1719740480184555 0.10097404569387436
v 0.06806779652833939 0.14336469769477844 0.10097404569387436
v 0.042093753814697266 0.1459999978542328 0.07499999552965164
v -0.049879349768161774 0.1719740480184555 0.10097404569387436
v -0.009812488220632076 0.1459999978542328 0.07499999552965164
v 0.06806779652833939 0.1719740480184555 0.10097404569387436
v -0.009812488220632076 0.1459999978542328 0.07499999552965164
v 0.15133939683437347 -0.27802595496177673 0.10097404569387436
v 0.1914062649011612 -0.30399999022483826 0.07499999552965164
v -0.049879349768161774 0.1719740480184555 0.10097404569387436
v 0.1914062649011612 -0.30399999022483826 0.07499999552965164
v 0.032802265137434006 -0.27802595496177673 0.10097404569387436
v 0.016031265258789062 -0.30399999022483826 0.07499999552965164
v 0.15133939683437347 -0.27802595496177673 0.10097404569387436
v 0.016031265258789062 -0.30399999022483826 0.07499999552965164
v -0.17211970686912537 0.17581097781658173 0.10097404569387436
v -0.17211970686912537 0.27802595496177673 0.10097404569387436
g submesh_0
f 20 11 19
f 19 11 10
f 57 37 12
f 12 37 38
f 12 38 21
f 22 13 40
f 40 13 39
f 95 23 42
f 42 23 14
f 42 14 41
f 24 15 44
f 44 15 43
f 71 45 16
f 16 45 46
f 16 46 25
f 26 17 48
f 48 17 47
f 52 51 27
f 27 51 18
f 27 18 50
f 50 18 49
f 28 36 33
f 33 36 35
f 33 35 34
f 31 30 32
f 32 30 29
f 32 29 28
f 7 8 6
f 6 8 9
f 6 9 1
f 1 2 5
f 5 2 3
f 5 3 4
f 55 53 54
f 54 53 56
f 58 57 12
f 61 59 60
f 60 59 62
f 65 63 64
f 64 63 66
f 69 67 68
f 68 67 70
f 72 71 16
f 75 73 74
f 74 73 76
f 78 77 76
f 76 77 79
f 81 80 79
f 79 80 82
f 85 83 84
f 84 83 86
f 89 87 88
f 88 87 90
f 93 91 92
f 92 91 94
f 96 95 42
f 99 97 98
f 98 97 100
f 103 101 102
f 102 101 104
f 107 105 106
f 106 105 108
f 111 52 27
f 111 27 110
f 110 27 109
f 110 109 106
f 32 28 33
f 6 1 5
