# shots04
v -0.26318833231925964 0.010441971011459827 -5.023066478315741e-07
v -0.167144775390625 0.10551803559064865 -5.023066478315741e-07
v 0.047301940619945526 0.10551803559064865 -5.023066478315741e-07
v 0.047301940619945526 0.17707613110542297 -5.023066478315741e-07
v -0.05215240269899368 0.17707613110542297 -5.023066478315741e-07
v -0.05215240269899368 0.1322007030248642 -5.023066478315741e-07
v -0.25469771027565 0.1322007030248642 -5.023066478315741e-07
v -0.25469771027565 0.251022070646286 -5.023066478315741e-07
v -0.1372610479593277 0.36870643496513367 -5.023066478315741e-07
v 0.13902373611927032 0.36870643496513367 -5.023066478315741e-07
v 0.26318833231925964 0.24329018592834473 -5.023066478315741e-07
v 0.26318833231925964 0.032765958458185196 -5.023066478315741e-07
v 0.16159285604953766 -0.06913230568170547 -5.023066478315741e-07
v -0.0460885614156723 -0.06913230568170547 -5.023066478315741e-07
v -0.0460885614156723 -0.1770760715007782 -5.023066478315741e-07
v 0.047301940619945526 -0.1770760715007782 -5.023066478315741e-07
v 0.047301940619945526 -0.114007867872715 -5.023066478315741e-07
v 0.25591155886650085 -0.114007867872715 -5.023066478315741e-07
v 0.25591155886650085 -0.24694755673408508 -5.023066478315741e-07
v 0.13422836363315582 -0.3687063455581665 -5.023066478315741e-07
v -0.13034392893314362 -0.3687063455581665 -5.023066478315741e-07
v -0.26318833231925964 -0.23561500012874603 -5.023066478315741e-07
g submesh_0
f 21 20 16
f 16 20 19
f 16 19 17
f 17 19 18
f 9 8 5
f 5 8 7
f 5 7 6
f 1 22 15
f 15 22 21
f 15 21 16
f 3 2 14
f 14 2 1
f 14 1 15
f 14 13 3
f 3 13 12
f 3 12 11
f 3 11 4
f 4 11 10
f 4 10 9
f 4 9 5
