# complete05
v -0.23250000178813934 -0.10199998319149017 -4.999999987376214e-07
v -0.07249999791383743 -0.10199998319149017 -4.999999987376214e-07
v -0.07249999791383743 -0.1459999978542328 -4.999999987376214e-07
v 0.008499755524098873 -0.1459999978542328 -4.999999987376214e-07
v 0.008499755524098873 -0.07099997997283936 -4.999999987376214e-07
v -0.1348596215248108 -0.07099997997283936 -4.999999987376214e-07
v -0.1348596215248108 0.08100000023841858 -4.999999987376214e-07
v 0.008499755524098873 0.08100000023841858 -4.999999987376214e-07
v 0.008499755524098873 0.1470000296831131 -4.999999987376214e-07
v -0.07249999791383743 0.1470000296831131 -4.999999987376214e-07
v -0.07249999791383743 0.11200002580881119 -4.999999987376214e-07
v -0.23250000178813934 0.11200002580881119 -4.999999987376214e-07
v -0.23250000178813934 0.30399999022483826 -4.999999987376214e-07
v 0.23250000178813934 0.30399999022483826 -4.999999987376214e-07
v 0.23250000178813934 0.1470000296831131 -4.999999987376214e-07
v 0.1915002465248108 0.1470000296831131 -4.999999987376214e-07
v 0.1915002465248108 -0.1459999978542328 -4.999999987376214e-07
v 0.23250000178813934 -0.1459999978542328 -4.999999987376214e-07
v 0.23250000178813934 -0.30399999022483826 -4.999999987376214e-07
v -0.23250000178813934 -0.30399999022483826 -4.999999987376214e-07
g submesh_0
f 4 3 19
f 19 3 1
f 19 1 20
f 7 6 8
f 8 6 5
f 8 5 16
f 16 5 4
f 16 4 17
f 17 4 19
f 17 19 18
f 10 9 13
f 13 9 16
f 13 16 14
f 14 16 15
f 12 11 13
f 13 11 10
f 2 1 3
f 8 16 9
