# helo_body
v 0.0019259053515270352 1.3214103944392264e-07 -0.00021245525567792356
v 0.001856692717410624 1.3213640670528548e-07 -0.00010637346713338047
v 0.0018335257191210985 1.3214506111580704e-07 -0.00030421698465943336
v 0.00183430640026927 6.255086191231385e-05 -0.0002793781168293208
v 0.0018353334162384272 0.00010359972657170147 -0.00023763577337376773
v 0.0018392048077657819 0.00010520148498471826 -0.00018827940220944583
v 0.0018461024155840278 5.115587555337697e-05 -0.00012726749991998076
v 0.0017351125134155154 1.3213195870775962e-07 -4.604011792253004e-06
v 0.0014758254401385784 1.32151100729061e-07 -0.00044269158388487995
v 0.0014648049836978316 0.00019173664622940123 -0.00037870596861466765
v 0.0014612615341320634 0.00022048830578569323 -0.000333736912580207
v 0.0014555152738466859 0.00024162318732123822 -0.0002477485395502299
v 0.0014519074466079473 0.00023100314137991518 -0.0001284587779082358
v 0.00146928068716079 0.00019871805852744728 -6.502877658931538e-05
v 0.0016968053532764316 0.00010506503167562187 -3.8652156945317984e-05
v 0.0017338827019557357 3.8518934161402285e-05 -2.2320300558931194e-05
v 0.0008575767278671265 1.321097897744039e-07 0.0005026514991186559
v 0.0007475284510292113 1.3215472449701338e-07 -0.0005254854331724346
v 0.0007736132247373462 0.00021033607481513172 -0.00044152518967166543
v 0.0007935474859550595 0.0002526901662349701 -0.0003847907646559179
v 0.0008520590490661561 0.00034464310738258064 -0.00020227245113346726
v 0.0008978612604551017 0.0003442446468397975 4.040934072691016e-06
v 0.0008940285770222545 0.0002779964997898787 0.00011709176033036783
v 0.0008366600377485156 0.00021179619943723083 0.00037964447983540595
v 0.0008400182705372572 0.00011220574378967285 0.0004784504999406636
v 0.0006569814286194742 1.321059528436308e-07 0.0005902349948883057
v 0.000555449107196182 1.3215505134667183e-07 -0.0005329027771949768
v 0.000580339808948338 0.00022085678938310593 -0.00044142577098682523
v 0.0005966381286270916 0.0002693264978006482 -0.0003849305503536016
v 0.0006538928719237447 0.00036277141771279275 -0.00017974998627323657
v 0.0006939388695172966 0.0003764320572372526 5.707453965442255e-05
v 0.0006927448557689786 0.0003019059950020164 0.00017456553177908063
v 0.0006370379705913365 0.00022015137074049562 0.00043214333709329367
v 0.0006317762308754027 0.00013590266462415457 0.000567961425986141
v -0.00031790032517164946 1.3210592442192137e-07 0.0005908388993702829
v -0.000396396208088845 1.321540992194059e-07 -0.000511188234668225
v -0.0003703263937495649 0.00022473552962765098 -0.0004403339989949018
v -0.0003704815171658993 0.00027491818764247 -0.00038320539169944823
v -0.00037717141094617546 0.00036377168726176023 -4.2506118916207924e-05
v -0.0003246134438086301 0.0003148084506392479 0.0003623422817327082
v -0.00031170807778835297 0.0002287116221850738 0.00044821060146205127
v -0.00029263971373438835 0.000132536850287579 0.0005703989299945533
v -0.000558078580070287 1.3210832605636824e-07 0.0005361777148209512
v -0.0005708055105060339 1.3215262129051553e-07 -0.000477487948955968
v -0.0005505107692442834 0.00020668857905548066 -0.0004393643175717443
v -0.0005502757849171758 0.00025243693380616605 -0.00038411564310081303
v -0.0005568907363340259 0.0003216966288164258 5.240179689280922e-06
v -0.0005574191454797983 0.0003019646683242172 0.00036060423008166254
v -0.0005582380690611899 0.0001822672929847613 0.0004471773572731763
v -0.0005562803708016872 0.00010327183554181829 0.0005139975110068917
v -0.0009409156045876443 1.321148346278278e-07 0.00038374020368792117
v -0.000939131947234273 1.3212469696100015e-07 0.00016225613944698125
v -0.0009389762417413294 8.615948172518983e-05 0.00024104706244543195
v -0.0009393587242811918 9.079367009690031e-05 0.0003286863793618977
v -0.0009674632456153631 1.3211921157108009e-07 0.0002774557506199926
v 0.0005880515673197806 1.3210025429089e-07 0.0007208574679680169
v 0.0005628463113680482 7.580064266221598e-05 0.0006985838408581913
v -0.00027392618358135223 1.3210019744747115e-07 0.0007214612560346723
v -0.0002486655139364302 7.243485742947087e-05 0.0007010212866589427
v -0.004492133390158415 1.3211811733526702e-07 0.00032207719050347805
v -0.004491168539971113 1.32122508489374e-07 0.00020244665211066604
v -0.00446691969409585 5.348112608771771e-05 0.00024500369909219444
v -0.004467126447707415 5.598419738817029e-05 0.00029234049725346267
v 0.0007718750857748091 0.0005858021904714406 -0.0008372188895009458
v 0.0007799678132869303 0.0006324910209514201 -0.0008372188312932849
v 0.0006934116827324033 0.0005858021322637796 -0.0008372188895009458
v 0.0007000283803790808 0.0006324910209514201 -0.0008372188895009458
v -0.0003209353890269995 0.0005858019576407969 -0.0008372190641239285
v -0.0003210306749679148 0.0006324908463284373 -0.0008372190641239285
v -0.0004064255044795573 0.000585801899433136 -0.0008372191223315895
v -0.00040628103306517005 0.0006324908463284373 -0.0008372190641239285
v -0.0007464971859008074 0.0006529871025122702 -0.0008457090007141232
v -0.0007725640898570418 0.0005830487934872508 -0.0008053301717154682
v -0.0007725640898570418 0.0005830487934872508 -0.0008860878297127783
v 0.0009330695611424744 0.000652987277135253 -0.0008457086514681578
v 0.0009330695029348135 0.0005830490263178945 -0.0008053298806771636
v 0.0009330695611424744 0.0005830490263178945 -0.0008860875386744738
v 0.0012538428418338299 0.000652987218927592 -0.0007487080874852836
v 0.0012336535146459937 0.0005830489099025726 -0.0007137390202842653
v 0.0012740322854369879 0.0005830489099025726 -0.0007836772128939629
v 0.00183430640026927 -6.228615529835224e-05 -0.00027937840786762536
v 0.0018353334162384272 -0.00010333502723369747 -0.00023763603530824184
v 0.0018392048077657819 -0.00010493678564671427 -0.00018827970779966563
v 0.0018461024155840278 -5.089117257739417e-05 -0.00012726776185445487
v 0.0014648049836978316 -0.00019147201965097338 -0.0003787061432376504
v 0.0014612616505473852 -0.00022022367920726538 -0.0003337371163070202
v 0.0014555156230926514 -0.00024135856074281037 -0.00024774871417321265
v 0.0014519075630232692 -0.00023073851480148733 -0.00012845895253121853
v 0.00146928068716079 -0.0001984534610528499 -6.502896576421335e-05
v 0.0016968054696917534 -0.00010480036871740595 -3.865238250000402e-05
v 0.0017338827019557357 -3.8254256651271135e-05 -2.2320522475638427e-05
v 0.0007736132829450071 -0.00021007157920394093 -0.00044152524787932634
v 0.0007935475441627204 -0.0002524256706237793 -0.0003847908228635788
v 0.0008520591072738171 -0.0003443786408752203 -0.00020227249478921294
v 0.0008978614932857454 -0.0003439802094362676 4.040934072691016e-06
v 0.0008940288098528981 -0.0002777319750748575 0.00011709176033036783
v 0.0008366602705791593 -0.00021153171837795526 0.0003796443925239146
v 0.0008400185033679008 -0.00011194126273039728 0.0004784504126291722
v 0.000580339808948338 -0.00022059233742766082 -0.00044142577098682523
v 0.0005966381868347526 -0.00026906206039711833 -0.0003849305503536016
v 0.0006538930465467274 -0.00036250698030926287 -0.00017974998627323657
v 0.0006939389859326184 -0.0003761676198337227 5.707453965442255e-05
v 0.0006927450303919613 -0.00030164155759848654 0.00017456553177908063
v 0.0006370382034219801 -0.00021988694788888097 0.00043214333709329367
v 0.0006317764637060463 -0.00013563822722062469 0.000567961425986141
v -0.00037032633554190397 -0.0002244712522951886 -0.00044033382437191904
v -0.00037048145895823836 -0.00027465392486192286 -0.0003832052170764655
v -0.00037717126542702317 -0.000363507482688874 -4.250589699950069e-05
v -0.00032461321097798645 -0.00031454424606636167 0.0003623424272518605
v -0.0003117078449577093 -0.00022844737395644188 0.0004482108342926949
v -0.0002926394226960838 -0.00013227260205894709 0.0005703991046175361
v -0.0005505107692442834 -0.0002064243599306792 -0.00043936408474110067
v -0.0005502757267095149 -0.0002521727292332798 -0.0003841154102701694
v -0.0005568905617110431 -0.00032143242424353957 5.240365680947434e-06
v -0.0005574188544414937 -0.00030170046375133097 0.00036060443380847573
v -0.0005582379526458681 -0.00018200311751570553 0.00044717759010381997
v -0.0005562801379710436 -0.00010300763824488968 0.0005139977438375354
v -0.0009389760671183467 -8.58953790157102e-05 0.00024104744079522789
v -0.00093935860786587 -9.052955283550546e-05 0.00032868675771169364
v 0.0005628466024063528 -7.553622708655894e-05 0.0006985838408581913
v -0.0002486651937942952 -7.217060920083895e-05 0.0007010214030742645
v -0.00446691969409585 -5.321773642208427e-05 0.0002450047468300909
v -0.004467126447707415 -5.572080408455804e-05 0.0002923415449913591
v 0.00077187514398247 -0.0005855377530679107 -0.0008372188895009458
v 0.0007799678714945912 -0.0006322265253402293 -0.0008372188895009458
v 0.0006934117409400642 -0.0005855377530679107 -0.0008372188895009458
v 0.0007000283803790808 -0.0006322265253402293 -0.0008372188895009458
v -0.0003209353890269995 -0.0005855376948602498 -0.0008372188895009458
v -0.0003210306749679148 -0.0006322265253402293 -0.0008372188895009458
v -0.0004064255044795573 -0.0005855376948602498 -0.0008372188895009458
v -0.00040628103306517005 -0.0006322265253402293 -0.0008372188895009458
v -0.0007464970694854856 -0.0006527228397317231 -0.0008457087678834796
v -0.00077256397344172 -0.0005827846471220255 -0.0008053299388848245
v -0.00077256397344172 -0.0005827846471220255 -0.0008860875968821347
v 0.0009330695611424744 -0.0006527227233164012 -0.0008457088260911405
v 0.0009330695611424744 -0.0005827845307067037 -0.0008053299388848245
v 0.0009330695611424744 -0.0005827845307067037 -0.0008860877132974565
v 0.0012538429582491517 -0.0006527225486934185 -0.0007487082039006054
v 0.0012336535146459937 -0.00058278429787606 -0.0007137391366995871
v 0.0012740322854369879 -0.00058278429787606 -0.0007836773875169456
v -0.004376846831291914 -0.0002704513317439705 -0.0004323638277128339
v -0.004632099531590939 -0.00029656276456080377 -0.0005366159020923078
v -0.003952994477003813 -7.648704195162281e-05 0.0002744663506746292
v -0.004314703866839409 -7.648704195162281e-05 0.0002744663506746292
v -0.0041381302289664745 -0.0002688105159904808 0.0005376635235734284
v -0.0043599773198366165 -0.00029492194880731404 0.000591233663726598
v -0.004376846831291914 -0.00025297279353253543 -0.00045331771252676845
v -0.004632099531590939 -0.0002790841681417078 -0.0005575698451139033
v -0.003952994477003813 -5.5007909395499155e-05 0.0002744663506746292
v -0.004314703866839409 -5.5007909395499155e-05 0.0002744663506746292
v -0.0041381302289664745 -0.0002529728226363659 0.0005577451665885746
v -0.0043599773198366165 -0.0002790842263493687 0.0006113153649494052
v 0.0019259053515270352 1.3214103944392264e-07 -0.00021245525567792356
v 0.0019259053515270352 1.3214103944392264e-07 -0.00021245525567792356
v 0.0019259053515270352 1.3214103944392264e-07 -0.00021245525567792356
v 0.0019259053515270352 1.3214103944392264e-07 -0.00021245525567792356
v 0.0014758254401385784 1.32151100729061e-07 -0.00044269158388487995
v -0.0003703263937495649 0.00022473552962765098 -0.0004403339989949018
v -0.0003704815171658993 0.00027491818764247 -0.00038320539169944823
v 0.0005966381286270916 0.0002693264978006482 -0.0003849305503536016
v 0.0005966381286270916 0.0002693264978006482 -0.0003849305503536016
v 0.0006317762308754027 0.00013590266462415457 0.000567961425986141
v -0.0005505107692442834 0.00020668857905548066 -0.0004393643175717443
v -0.0003704815171658993 0.00027491818764247 -0.00038320539169944823
v -0.00029263971373438835 0.000132536850287579 0.0005703989299945533
v -0.0005505107692442834 0.00020668857905548066 -0.0004393643175717443
v -0.0005708055105060339 1.3215262129051553e-07 -0.000477487948955968
v -0.000939131947234273 1.3212469696100015e-07 0.00016225613944698125
v -0.0005502757849171758 0.00025243693380616605 -0.00038411564310081303
v -0.0009389762417413294 8.615948172518983e-05 0.00024104706244543195
v -0.0005502757849171758 0.00025243693380616605 -0.00038411564310081303
v -0.0009393587242811918 9.079367009690031e-05 0.0003286863793618977
v -0.0009393587242811918 9.079367009690031e-05 0.0003286863793618977
v -0.0009409156045876443 1.321148346278278e-07 0.00038374020368792117
v 0.0006317762308754027 0.00013590266462415457 0.000567961425986141
v 0.0005628463113680482 7.580064266221598e-05 0.0006985838408581913
v 0.0005880515673197806 1.3210025429089e-07 0.0007208574679680169
v 0.0005628463113680482 7.580064266221598e-05 0.0006985838408581913
v -0.00031790032517164946 1.3210592442192137e-07 0.0005908388993702829
v -0.00027392618358135223 1.3210019744747115e-07 0.0007214612560346723
v -0.00029263971373438835 0.000132536850287579 0.0005703989299945533
v -0.00027392618358135223 1.3210019744747115e-07 0.0007214612560346723
v 0.0006569814286194742 1.321059528436308e-07 0.0005902349948883057
v 0.0005880515673197806 1.3210025429089e-07 0.0007208574679680169
v -0.00031790032517164946 1.3210592442192137e-07 0.0005908388993702829
v -0.00027392618358135223 1.3210019744747115e-07 0.0007214612560346723
v -0.00031790032517164946 1.3210592442192137e-07 0.0005908388993702829
v 0.0005880515673197806 1.3210025429089e-07 0.0007208574679680169
v -0.000939131947234273 1.3212469696100015e-07 0.00016225613944698125
v -0.004491168539971113 1.32122508489374e-07 0.00020244665211066604
v -0.0009389762417413294 8.615948172518983e-05 0.00024104706244543195
v -0.00446691969409585 5.348112608771771e-05 0.00024500369909219444
v -0.0009389762417413294 8.615948172518983e-05 0.00024104706244543195
v -0.0009393587242811918 9.079367009690031e-05 0.0003286863793618977
v -0.004467126447707415 5.598419738817029e-05 0.00029234049725346267
v -0.0009393587242811918 9.079367009690031e-05 0.0003286863793618977
v -0.004467126447707415 5.598419738817029e-05 0.00029234049725346267
v -0.0009409156045876443 1.321148346278278e-07 0.00038374020368792117
v -0.004492133390158415 1.3211811733526702e-07 0.00032207719050347805
v -0.0009409156045876443 1.321148346278278e-07 0.00038374020368792117
v -0.004492133390158415 1.3211811733526702e-07 0.00032207719050347805
v -0.000939131947234273 1.3212469696100015e-07 0.00016225613944698125
v -0.004491168539971113 1.32122508489374e-07 0.00020244665211066604
v -0.0009409156045876443 1.321148346278278e-07 0.00038374020368792117
v 0.0007736132247373462 0.00021033607481513172 -0.00044152518967166543
v 0.0007935474859550595 0.0002526901662349701 -0.0003847907646559179
v 0.000580339808948338 0.00022085678938310593 -0.00044142577098682523
v 0.0007736132247373462 0.00021033607481513172 -0.00044152518967166543
v 0.0007718750857748091 0.0005858021904714406 -0.0008372188895009458
v 0.0005966381286270916 0.0002693264978006482 -0.0003849305503536016
v 0.000580339808948338 0.00022085678938310593 -0.00044142577098682523
v 0.0006934116827324033 0.0005858021322637796 -0.0008372188895009458
v 0.000580339808948338 0.00022085678938310593 -0.00044142577098682523
v 0.0007935474859550595 0.0002526901662349701 -0.0003847907646559179
v 0.0007799678132869303 0.0006324910209514201 -0.0008372188312932849
v 0.0005966381286270916 0.0002693264978006482 -0.0003849305503536016
v 0.0007000283803790808 0.0006324910209514201 -0.0008372188895009458
v -0.0003703263937495649 0.00022473552962765098 -0.0004403339989949018
v -0.0003704815171658993 0.00027491818764247 -0.00038320539169944823
v -0.0005505107692442834 0.00020668857905548066 -0.0004393643175717443
v -0.0003703263937495649 0.00022473552962765098 -0.0004403339989949018
v -0.0003209353890269995 0.0005858019576407969 -0.0008372190641239285
v -0.0005502757849171758 0.00025243693380616605 -0.00038411564310081303
v -0.0005505107692442834 0.00020668857905548066 -0.0004393643175717443
v -0.0004064255044795573 0.000585801899433136 -0.0008372191223315895
v -0.0005505107692442834 0.00020668857905548066 -0.0004393643175717443
v -0.00040628103306517005 0.0006324908463284373 -0.0008372190641239285
v -0.0003704815171658993 0.00027491818764247 -0.00038320539169944823
v -0.0003210306749679148 0.0006324908463284373 -0.0008372190641239285
v -0.0005502757849171758 0.00025243693380616605 -0.00038411564310081303
v -0.00040628103306517005 0.0006324908463284373 -0.0008372190641239285
v -0.0005502757849171758 0.00025243693380616605 -0.00038411564310081303
v -0.0007464971859008074 0.0006529871025122702 -0.0008457090007141232
v -0.0007725640898570418 0.0005830487934872508 -0.0008053301717154682
v 0.0009330695029348135 0.0005830490263178945 -0.0008053298806771636
v -0.0007725640898570418 0.0005830487934872508 -0.0008053301717154682
v -0.0007725640898570418 0.0005830487934872508 -0.0008860878297127783
v 0.0009330695611424744 0.000652987277135253 -0.0008457086514681578
v 0.0009330695611424744 0.0005830490263178945 -0.0008860875386744738
v -0.0007725640898570418 0.0005830487934872508 -0.0008860878297127783
v -0.0007464971859008074 0.0006529871025122702 -0.0008457090007141232
v 0.0009330695611424744 0.000652987277135253 -0.0008457086514681578
v 0.0009330695029348135 0.0005830490263178945 -0.0008053298806771636
v 0.0012336535146459937 0.0005830489099025726 -0.0007137390202842653
v 0.0009330695029348135 0.0005830490263178945 -0.0008053298806771636
v 0.0009330695611424744 0.0005830490263178945 -0.0008860875386744738
v 0.0012538428418338299 0.000652987218927592 -0.0007487080874852836
v 0.0012740322854369879 0.0005830489099025726 -0.0007836772128939629
v 0.0009330695611424744 0.0005830490263178945 -0.0008860875386744738
v 0.0009330695611424744 0.000652987277135253 -0.0008457086514681578
v 0.0012336535146459937 0.0005830489099025726 -0.0007137390202842653
v 0.0012740322854369879 0.0005830489099025726 -0.0007836772128939629
v 0.0012538428418338299 0.000652987218927592 -0.0007487080874852836
v 0.0019259053515270352 1.3214103944392264e-07 -0.00021245525567792356
v 0.0018335257191210985 1.3214506111580704e-07 -0.00030421698465943336
v 0.0019259053515270352 1.3214103944392264e-07 -0.00021245525567792356
v 0.0019259053515270352 1.3214103944392264e-07 -0.00021245525567792356
v 0.0019259053515270352 1.3214103944392264e-07 -0.00021245525567792356
v 0.0019259053515270352 1.3214103944392264e-07 -0.00021245525567792356
v 0.001856692717410624 1.3213640670528548e-07 -0.00010637346713338047
v 0.0014758254401385784 1.32151100729061e-07 -0.00044269158388487995
v 0.0017351125134155154 1.3213195870775962e-07 -4.604011792253004e-06
v 0.0014758254401385784 1.32151100729061e-07 -0.00044269158388487995
v 0.0007475284510292113 1.3215472449701338e-07 -0.0005254854331724346
v 0.0008575767278671265 1.321097897744039e-07 0.0005026514991186559
v 0.000555449107196182 1.3215505134667183e-07 -0.0005329027771949768
v 0.0006569814286194742 1.321059528436308e-07 0.0005902349948883057
v -0.000396396208088845 1.321540992194059e-07 -0.000511188234668225
v -0.00037032633554190397 -0.0002244712522951886 -0.00044033382437191904
v 0.0005966381868347526 -0.00026906206039711833 -0.0003849305503536016
v -0.00037048145895823836 -0.00027465392486192286 -0.0003832052170764655
v 0.0005966381868347526 -0.00026906206039711833 -0.0003849305503536016
v 0.0006317764637060463 -0.00013563822722062469 0.000567961425986141
v -0.00027392618358135223 1.3210019744747115e-07 0.0007214612560346723
v 0.0005880515673197806 1.3210025429089e-07 0.0007208574679680169
v -0.0005708055105060339 1.3215262129051553e-07 -0.000477487948955968
v -0.0005505107692442834 -0.0002064243599306792 -0.00043936408474110067
v -0.00037048145895823836 -0.00027465392486192286 -0.0003832052170764655
v -0.0002926394226960838 -0.00013227260205894709 0.0005703991046175361
v -0.000558078580070287 1.3210832605636824e-07 0.0005361777148209512
v -0.00031790032517164946 1.3210592442192137e-07 0.0005908388993702829
v -0.0005708055105060339 1.3215262129051553e-07 -0.000477487948955968
v -0.0005505107692442834 -0.0002064243599306792 -0.00043936408474110067
v -0.000939131947234273 1.3212469696100015e-07 0.00016225613944698125
v -0.0005502757267095149 -0.0002521727292332798 -0.0003841154102701694
v -0.000939131947234273 1.3212469696100015e-07 0.00016225613944698125
v -0.0005502757267095149 -0.0002521727292332798 -0.0003841154102701694
v -0.0009389760671183467 -8.58953790157102e-05 0.00024104744079522789
v -0.00093935860786587 -9.052955283550546e-05 0.00032868675771169364
v -0.0009409156045876443 1.321148346278278e-07 0.00038374020368792117
v -0.00093935860786587 -9.052955283550546e-05 0.00032868675771169364
v -0.0009409156045876443 1.321148346278278e-07 0.00038374020368792117
v -0.004492133390158415 1.3211811733526702e-07 0.00032207719050347805
v -0.004491168539971113 1.32122508489374e-07 0.00020244665211066604
v 0.0005628466024063528 -7.553622708655894e-05 0.0006985838408581913
v 0.0006317764637060463 -0.00013563822722062469 0.000567961425986141
v 0.0005880515673197806 1.3210025429089e-07 0.0007208574679680169
v 0.0005628466024063528 -7.553622708655894e-05 0.0006985838408581913
v -0.0002926394226960838 -0.00013227260205894709 0.0005703991046175361
v -0.00027392618358135223 1.3210019744747115e-07 0.0007214612560346723
v -0.00031790032517164946 1.3210592442192137e-07 0.0005908388993702829
v -0.00027392618358135223 1.3210019744747115e-07 0.0007214612560346723
v -0.00031790032517164946 1.3210592442192137e-07 0.0005908388993702829
v 0.0005880515673197806 1.3210025429089e-07 0.0007208574679680169
v 0.0006569814286194742 1.321059528436308e-07 0.0005902349948883057
v -0.00027392618358135223 1.3210019744747115e-07 0.0007214612560346723
v -0.0009389760671183467 -8.58953790157102e-05 0.00024104744079522789
v -0.000939131947234273 1.3212469696100015e-07 0.00016225613944698125
v -0.00446691969409585 -5.321773642208427e-05 0.0002450047468300909
v -0.00093935860786587 -9.052955283550546e-05 0.00032868675771169364
v -0.0009389760671183467 -8.58953790157102e-05 0.00024104744079522789
v -0.004467126447707415 -5.572080408455804e-05 0.0002923415449913591
v -0.0009409156045876443 1.321148346278278e-07 0.00038374020368792117
v -0.004467126447707415 -5.572080408455804e-05 0.0002923415449913591
v -0.00093935860786587 -9.052955283550546e-05 0.00032868675771169364
v -0.0009409156045876443 1.321148346278278e-07 0.00038374020368792117
v -0.000939131947234273 1.3212469696100015e-07 0.00016225613944698125
v -0.004492133390158415 1.3211811733526702e-07 0.00032207719050347805
v -0.0009674632456153631 1.3211921157108009e-07 0.0002774557506199926
v -0.0009409156045876443 1.321148346278278e-07 0.00038374020368792117
v 0.0007935475441627204 -0.0002524256706237793 -0.0003847908228635788
v 0.0007736132829450071 -0.00021007157920394093 -0.00044152524787932634
v 0.0007736132829450071 -0.00021007157920394093 -0.00044152524787932634
v 0.000580339808948338 -0.00022059233742766082 -0.00044142577098682523
v 0.00077187514398247 -0.0005855377530679107 -0.0008372188895009458
v 0.000580339808948338 -0.00022059233742766082 -0.00044142577098682523
v 0.0005966381868347526 -0.00026906206039711833 -0.0003849305503536016
v 0.000580339808948338 -0.00022059233742766082 -0.00044142577098682523
v 0.0006934117409400642 -0.0005855377530679107 -0.0008372188895009458
v 0.0005966381868347526 -0.00026906206039711833 -0.0003849305503536016
v 0.0007799678714945912 -0.0006322265253402293 -0.0008372188895009458
v 0.0007935475441627204 -0.0002524256706237793 -0.0003847908228635788
v 0.0007000283803790808 -0.0006322265253402293 -0.0008372188895009458
v -0.00037048145895823836 -0.00027465392486192286 -0.0003832052170764655
v -0.00037032633554190397 -0.0002244712522951886 -0.00044033382437191904
v -0.00037032633554190397 -0.0002244712522951886 -0.00044033382437191904
v -0.0005505107692442834 -0.0002064243599306792 -0.00043936408474110067
v -0.0003209353890269995 -0.0005855376948602498 -0.0008372188895009458
v -0.0005505107692442834 -0.0002064243599306792 -0.00043936408474110067
v -0.0005502757267095149 -0.0002521727292332798 -0.0003841154102701694
v -0.00040628103306517005 -0.0006322265253402293 -0.0008372188895009458
v -0.0005505107692442834 -0.0002064243599306792 -0.00043936408474110067
v -0.0004064255044795573 -0.0005855376948602498 -0.0008372188895009458
v -0.0005502757267095149 -0.0002521727292332798 -0.0003841154102701694
v -0.0003210306749679148 -0.0006322265253402293 -0.0008372188895009458
v -0.00037048145895823836 -0.00027465392486192286 -0.0003832052170764655
v -0.0005502757267095149 -0.0002521727292332798 -0.0003841154102701694
v -0.00040628103306517005 -0.0006322265253402293 -0.0008372188895009458
v -0.0007464970694854856 -0.0006527228397317231 -0.0008457087678834796
v -0.00077256397344172 -0.0005827846471220255 -0.0008053299388848245
v -0.00077256397344172 -0.0005827846471220255 -0.0008053299388848245
v 0.0009330695611424744 -0.0005827845307067037 -0.0008053299388848245
v -0.00077256397344172 -0.0005827846471220255 -0.0008860875968821347
v -0.00077256397344172 -0.0005827846471220255 -0.0008860875968821347
v 0.0009330695611424744 -0.0005827845307067037 -0.0008860877132974565
v 0.0009330695611424744 -0.0006527227233164012 -0.0008457088260911405
v -0.0007464970694854856 -0.0006527228397317231 -0.0008457087678834796
v 0.0009330695611424744 -0.0006527227233164012 -0.0008457088260911405
v 0.0009330695611424744 -0.0005827845307067037 -0.0008053299388848245
v 0.0009330695611424744 -0.0005827845307067037 -0.0008053299388848245
v 0.0012336535146459937 -0.00058278429787606 -0.0007137391366995871
v 0.0009330695611424744 -0.0005827845307067037 -0.0008860877132974565
v 0.0009330695611424744 -0.0005827845307067037 -0.0008860877132974565
v 0.0012740322854369879 -0.00058278429787606 -0.0007836773875169456
v 0.0012538429582491517 -0.0006527225486934185 -0.0007487082039006054
v 0.0009330695611424744 -0.0006527227233164012 -0.0008457088260911405
v 0.0012538429582491517 -0.0006527225486934185 -0.0007487082039006054
v 0.0012740322854369879 -0.00058278429787606 -0.0007836773875169456
v 0.0012336535146459937 -0.00058278429787606 -0.0007137391366995871
v -0.004314703866839409 -7.648704195162281e-05 0.0002744663506746292
v -0.003952994477003813 -7.648704195162281e-05 0.0002744663506746292
v -0.004314703866839409 -5.5007909395499155e-05 0.0002744663506746292
v -0.003952994477003813 -5.5007909395499155e-05 0.0002744663506746292
v -0.004632099531590939 -0.0002790841681417078 -0.0005575698451139033
v -0.004376846831291914 -0.0002704513317439705 -0.0004323638277128339
v -0.004376846831291914 -0.00025297279353253543 -0.00045331771252676845
v -0.004314703866839409 -7.648704195162281e-05 0.0002744663506746292
v -0.004314703866839409 -5.5007909395499155e-05 0.0002744663506746292
v -0.004632099531590939 -0.00029656276456080377 -0.0005366159020923078
v -0.004632099531590939 -0.0002790841681417078 -0.0005575698451139033
v -0.004632099531590939 -0.00029656276456080377 -0.0005366159020923078
v -0.004314703866839409 -5.5007909395499155e-05 0.0002744663506746292
v -0.0043599773198366165 -0.00029492194880731404 0.000591233663726598
v -0.0043599773198366165 -0.0002790842263493687 0.0006113153649494052
v -0.004314703866839409 -7.648704195162281e-05 0.0002744663506746292
v -0.0043599773198366165 -0.0002790842263493687 0.0006113153649494052
v -0.0041381302289664745 -0.0002688105159904808 0.0005376635235734284
v -0.0041381302289664745 -0.0002529728226363659 0.0005577451665885746
v -0.0043599773198366165 -0.00029492194880731404 0.000591233663726598
v -0.0043599773198366165 -0.0002790842263493687 0.0006113153649494052
v -0.003952994477003813 -7.648704195162281e-05 0.0002744663506746292
v -0.003952994477003813 -5.5007909395499155e-05 0.0002744663506746292
v -0.0041381302289664745 -0.0002688105159904808 0.0005376635235734284
v -0.003952994477003813 -5.5007909395499155e-05 0.0002744663506746292
v -0.004376846831291914 -0.0002704513317439705 -0.0004323638277128339
v -0.003952994477003813 -7.648704195162281e-05 0.0002744663506746292
v -0.003952994477003813 -5.5007909395499155e-05 0.0002744663506746292
v -0.003952994477003813 -7.648704195162281e-05 0.0002744663506746292
v -0.004376846831291914 -0.00025297279353253543 -0.00045331771252676845
g submesh_0
f 160 159 39
f 36 44 45
f 167 52 166
f 50 173 51
f 26 175 176
f 57 177 26
f 181 179 180
f 182 59 165
f 185 183 184
f 188 186 187
f 198 196 197
f 197 199 200
f 211 210 67
f 67 212 213
f 224 223 71
f 227 225 226
f 230 228 229
f 229 231 232
f 72 74 73
f 253 251 252
f 271 270 108
f 276 268 112
f 284 282 283
f 291 117 290
f 296 267 295
f 297 120 267
f 301 299 300
f 121 302 279
f 315 313 314
f 199 314 316
f 327 326 127
f 329 127 328
f 340 339 131
f 343 341 342
f 346 344 345
f 348 345 347
f 134 132 133
f 369 367 368
f 382 380 381
f 385 383 384
f 393 391 392
f 396 395 376
f 399 397 398
f 1 3 4
f 4 3 10
f 4 10 11
f 11 10 20
f 11 20 21
f 21 20 30
f 21 30 31
f 31 30 39
f 31 39 40
f 40 39 48
f 40 48 49
f 49 48 172
f 49 172 50
f 153 4 5
f 5 4 12
f 5 12 13
f 13 12 22
f 13 22 23
f 23 22 32
f 23 32 33
f 33 32 41
f 33 41 42
f 154 5 6
f 6 5 13
f 6 13 14
f 14 13 23
f 14 23 24
f 24 23 33
f 24 33 34
f 26 17 25
f 25 17 16
f 25 16 15
f 15 16 7
f 15 7 6
f 6 7 155
f 17 8 16
f 16 8 2
f 16 2 7
f 7 2 156
f 3 9 10
f 20 29 30
f 27 36 37
f 37 36 163
f 27 158 28
f 28 158 38
f 28 38 29
f 161 39 30
f 56 57 58
f 58 57 59
f 48 39 47
f 47 39 164
f 47 164 46
f 40 49 41
f 41 49 50
f 41 50 165
f 165 50 43
f 165 43 35
f 166 168 169
f 169 168 53
f 171 170 47
f 47 170 54
f 50 174 43
f 61 60 62
f 62 60 63
f 33 42 162
f 162 42 59
f 162 59 178
f 192 191 190
f 190 191 189
f 195 194 192
f 192 194 193
f 203 202 201
f 201 202 55
f 201 55 204
f 65 206 64
f 64 206 205
f 209 208 66
f 66 208 207
f 217 216 215
f 215 216 214
f 69 219 68
f 68 219 218
f 222 221 70
f 70 221 220
f 75 233 76
f 76 233 234
f 235 236 77
f 77 236 237
f 239 240 238
f 238 240 241
f 78 242 79
f 79 242 243
f 244 245 80
f 80 245 246
f 248 249 247
f 247 249 250
f 117 289 116
f 116 289 115
f 116 115 109
f 109 115 108
f 109 108 102
f 102 108 101
f 102 101 94
f 94 101 93
f 94 93 86
f 86 93 85
f 86 85 81
f 81 85 255
f 81 255 254
f 111 110 104
f 104 110 103
f 104 103 96
f 96 103 95
f 96 95 88
f 88 95 87
f 88 87 82
f 82 87 81
f 82 81 256
f 105 104 97
f 97 104 96
f 97 96 89
f 89 96 88
f 89 88 83
f 83 88 82
f 83 82 257
f 265 267 98
f 265 98 91
f 91 98 90
f 91 90 84
f 84 90 83
f 84 83 258
f 262 265 91
f 262 91 260
f 260 91 84
f 260 84 259
f 261 255 85
f 100 93 101
f 277 268 106
f 106 268 266
f 100 107 99
f 99 107 269
f 99 269 266
f 108 272 101
f 121 120 274
f 274 120 275
f 113 278 114
f 114 278 108
f 114 108 115
f 281 280 279
f 279 280 117
f 279 117 110
f 110 117 116
f 110 116 109
f 118 286 285
f 285 286 283
f 119 288 114
f 114 288 287
f 292 117 280
f 294 122 293
f 293 122 123
f 298 121 273
f 273 121 111
f 273 111 104
f 305 303 304
f 304 303 306
f 308 307 203
f 203 307 309
f 311 310 309
f 309 310 312
f 320 319 318
f 318 319 317
f 318 317 190
f 322 321 124
f 124 321 125
f 324 323 126
f 126 323 325
f 332 330 331
f 331 330 333
f 335 334 128
f 128 334 129
f 337 336 130
f 130 336 338
f 135 136 349
f 349 136 350
f 352 137 351
f 351 137 353
f 355 356 354
f 354 356 357
f 138 139 358
f 358 139 359
f 361 140 360
f 360 140 362
f 364 365 363
f 363 365 366
f 142 141 144
f 144 141 143
f 371 145 370
f 370 145 146
f 149 147 150
f 150 147 148
f 151 373 152
f 152 373 372
f 376 375 374
f 374 375 142
f 379 377 378
f 378 377 386
f 390 389 388
f 388 389 387
f 388 387 394
f 10 157 19
f 19 157 18
f 19 18 28
f 28 18 27
f 10 19 20
f 6 14 15
f 15 14 24
f 15 24 25
f 25 24 34
f 25 34 26
f 47 172 48
f 263 85 92
f 263 92 264
f 264 92 99
f 264 99 266
f 92 85 93
f 267 105 98
f 98 105 97
f 98 97 90
f 90 97 89
f 90 89 83
f 289 114 115
f 41 32 31
f 31 32 22
f 31 22 21
f 21 22 12
f 21 12 11
f 11 12 4
f 31 40 41
f 103 110 102
f 103 102 95
f 95 102 94
f 95 94 87
f 87 94 86
f 87 86 81
f 109 102 110
