# bobble_body_00
v 0.01227045152336359 -0.0008888524607755244 0.0073386989533901215
v 0.01030762493610382 -5.365557171899127e-06 0.008850537240505219
v 0.007839446887373924 0.00363880000077188 0.008463947102427483
v 4.029964657092933e-06 0.0024060490541160107 0.008580740541219711
v -0.004380799829959869 0.004309922456741333 0.00842278078198433
v -0.008865849114954472 -0.00020193691307213157 0.009492345154285431
v -0.011326268315315247 -0.002364603104069829 0.007182968780398369
v 0.008508415892720222 0.0010618127416819334 0.014620634727180004
v 2.028667267950368e-06 0.0026549529284238815 0.01459270715713501
v -0.003925011493265629 0.004061550833284855 0.014603748917579651
v -0.008977544493973255 4.184839781373739e-06 0.016121940687298775
v -0.012836841866374016 -0.00019903092470485717 0.0171708632260561
v 0.01128286961466074 0.0007717407424934208 0.022529402747750282
v 0.008508569560945034 0.001245327526703477 0.02185315079987049
v 6.886804476380348e-05 0.0056965951807796955 0.020759720355272293
v -0.00886131264269352 0.0021930320654064417 0.021132370457053185
v -0.013184982351958752 -2.2664204152533785e-05 0.020940586924552917
v 0.012597416527569294 -0.00011866368004120886 0.02378772757947445
v 0.007143145427107811 0.004304906819015741 0.02532433159649372
v 4.628286205843324e-06 0.005717842373996973 0.02462000958621502
v -0.0038084308616816998 0.0053564151749014854 0.02420579455792904
v -0.009011227637529373 0.002571128774434328 0.02381313033401966
v -0.01343222614377737 2.645983158799936e-06 0.024690568447113037
v 0.01283067837357521 0.0001207879904541187 0.026773402467370033
v 0.007217174395918846 0.004495406057685614 0.027202684432268143
v 0.006624942179769278 0.004974894225597382 0.02935710921883583
v 5.476172646012856e-06 0.0058505842462182045 0.030325451865792274
v -0.008143451996147633 0.004279456567019224 0.028853528201580048
v -0.009035784751176834 0.0030619448516517878 0.02631460875272751
v -0.012194369919598103 1.7906993889482692e-05 0.029137535020709038
v 0.011622924357652664 1.5521030945819803e-05 0.02979341521859169
v 0.007649370934814215 5.108808181830682e-05 0.033438798040151596
v 0.003331948770210147 6.30146314506419e-05 0.03478442505002022
v 1.7249336451641284e-05 0.003378050634637475 0.03493509814143181
v -0.0032977862283587456 6.39958307147026e-05 0.034786026924848557
v -0.007695273030549288 4.663340951083228e-05 0.03339719399809837
v -0.00812972616404295 0.00234790937975049 0.01912657544016838
v -0.008894487284123898 0.001811762573197484 0.016834858804941177
v 0.0120776342228055 0.0019014046993106604 0.02434684708714485
v 0.002440456999465823 0.002351426985114813 0.03498004004359245
v -0.0024117028806358576 0.00236130366101861 0.034977443516254425
v 0.004219925031065941 0.005034318659454584 0.008590291254222393
v 0.004220395814627409 0.004850416444242001 0.014623225666582584
v 0.007042822893708944 0.0034204870462417603 0.014643083326518536
v 0.006953549105674028 0.004086137283593416 0.02151334285736084
v 0.004044626839458942 0.006288409233093262 0.021260570734739304
v -0.01009407639503479 0.0026060782838612795 0.020840300247073174
v 0.009022487327456474 0.003758549690246582 0.026091359555721283
v -0.010033484548330307 0.0033211682457476854 0.024363163858652115
v 0.008555784821510315 0.0043580965138971806 0.02832949347794056
v 0.0030952661763876677 0.005621700081974268 0.03014633059501648
v -0.0033050912898033857 0.005511450115591288 0.0300555769354105
v -0.009636064060032368 0.004055689554661512 0.02703757770359516
v -0.008981652557849884 0.0027700355276465416 0.01901335082948208
v -0.009728576987981796 0.0028308634646236897 0.017747720703482628
v -0.011857922188937664 0.0025651082396507263 0.018292147666215897
v -0.012161177583038807 0.002256870735436678 0.021008918061852455
v -0.012150728143751621 0.0028961708303540945 0.024708934128284454
v 0.01168963871896267 0.00285705435089767 0.02686365507543087
v -0.011087448336184025 0.0036679310724139214 0.028552711009979248
v 0.010726196691393852 0.003263094462454319 0.02930741012096405
v 0.007622758392244577 0.0038336175493896008 0.03203090652823448
v 0.0028359650168567896 0.004468147177249193 0.03349865972995758
v -0.0028764470480382442 0.004510452039539814 0.03348077833652496
v -0.008042145520448685 0.0040861815214157104 0.03174912557005882
v -0.003850390436127782 0.005760951898992062 0.020750824362039566
v -0.007507920265197754 0.0038072983734309673 0.020692819729447365
v 0.004068152979016304 0.005621014628559351 0.025083467364311218
v -0.007565268315374851 0.004172105807811022 0.023895183578133583
v 1.4052901860850397e-05 0.004739067982882261 0.033803313970565796
v -0.0013390971580520272 0.003355564782395959 0.00858019944280386
v -0.0011728934478014708 0.0032756594009697437 0.014602795243263245
v -0.007558699231594801 0.0024992022663354874 0.00915566273033619
v -0.010575558990240097 0.0007456456078216434 0.0069482880644500256
v -0.007025910075753927 0.0025279957335442305 0.014708148315548897
v 0.0013324839528650045 0.0036700263153761625 0.008581132628023624
v 0.0012101894244551659 0.003474651835858822 0.014605812728404999
v 0.010231799446046352 0.0019962897058576345 0.007831206545233727
v 0.008580132387578487 -0.0037250914610922337 0.008391075767576694
v 0.0035746239591389894 -0.003242073580622673 0.008581818081438541
v 4.02950172428973e-06 -0.002398338634520769 0.008580738678574562
v -0.004376618191599846 -0.004245303571224213 0.00842278078198433
v 0.003954409155994654 -0.0035029875580221415 0.014704287983477116
v 2.0305835732870037e-06 -0.002908956026658416 0.01459270529448986
v -0.003945006523281336 -0.004585886374115944 0.014606435783207417
v 0.00817189458757639 -0.002255211817100644 0.014564983546733856
v 0.008356219157576561 -0.0021487167105078697 0.021603332832455635
v 0.004804238211363554 -0.0033400319516658783 0.02031412534415722
v 8.255111606558785e-05 -0.0044748662039637566 0.020799167454242706
v -0.008845727890729904 -0.002208197256550193 0.021112244576215744
v 0.007309556473046541 -0.0034252400510013103 0.026823293417692184
v 0.005943068768829107 -0.0037895271088927984 0.02663169801235199
v 0.0043468475341796875 -0.0048311976715922356 0.02470340207219124
v 7.252009527292103e-05 -0.0054800501093268394 0.024611730128526688
v -0.00380843342281878 -0.005153603386133909 0.02420579455792904
v -0.009011225774884224 -0.002468376886099577 0.02381313219666481
v 0.007197208236902952 -0.003467917675152421 0.0277329720556736
v 0.006720192730426788 -0.0046181026846170425 0.029456578195095062
v 1.607776175660547e-05 -0.005926109384745359 0.030230578035116196
v -0.008143453858792782 -0.004173567518591881 0.0288462545722723
v -0.009035782888531685 -0.002963209990411997 0.02631460875272751
v 1.7250564269488677e-05 -0.003254690207540989 0.03484416380524635
v -0.008070729672908783 -0.0023891364689916372 0.01894555054605007
v 0.004329095594584942 -0.004577601794153452 0.0223060455173254
v 0.01183478906750679 -0.0033358472865074873 0.007216521538794041
v 0.010002964176237583 -0.002419274067506194 0.00876183994114399
v -0.00874660350382328 -0.002011620905250311 0.009444426745176315
v -0.008801952004432678 -0.0022942146752029657 0.016477346420288086
v 0.011134442873299122 -0.0012591348495334387 0.022412046790122986
v 0.002440458396449685 -0.0022281238343566656 0.034929122775793076
v -0.0024117021821439266 -0.0022380489390343428 0.034926529973745346
v 0.007284275721758604 -0.0044814893044531345 0.00860095676034689
v 0.004989202134311199 -0.004463981371372938 0.008614727295935154
v 0.005262438673526049 -0.004768365994095802 0.014618171378970146
v 0.007064248900860548 -0.004596988670527935 0.014620998874306679
v 0.0069297561421990395 -0.004416101612150669 0.021009594202041626
v 0.0055556935258209705 -0.004531120415776968 0.021030675619840622
v -0.01009407639503479 -0.002635970013216138 0.020840298384428024
v 0.008639886043965816 -0.003879539668560028 0.026323124766349792
v -0.010033486410975456 -0.0032490678131580353 0.024363163858652115
v 0.008517809212207794 -0.003955188672989607 0.02838476561009884
v 0.003177488688379526 -0.005524199455976486 0.03001522272825241
v -0.0033050915226340294 -0.005669760052114725 0.029976006597280502
v -0.009636061266064644 -0.003961753100156784 0.02703757770359516
v -0.008981650695204735 -0.0028176777996122837 0.01901334896683693
v -0.009728574194014072 -0.002958384109660983 0.017776578664779663
v -0.011857922188937664 -0.0028152018785476685 0.018292145803570747
v 0.010910265147686005 -0.0029553850181400776 0.022753503173589706
v 0.008354662917554379 -0.004083008971065283 0.02252027951180935
v -0.012161179445683956 -0.0022792660165578127 0.021008918061852455
v 0.011687973514199257 -0.002828843891620636 0.024213828146457672
v -0.012150728143751621 -0.0028621298260986805 0.024708934128284454
v 0.01166336890310049 -0.002862142864614725 0.026839401572942734
v -0.011087448336184025 -0.0035991619806736708 0.028552711009979248
v 0.010726197622716427 -0.0031888317316770554 0.029307415708899498
v 0.007622758392244577 -0.00365006853826344 0.03196270763874054
v 0.002835965482518077 -0.004507133271545172 0.033021267503499985
v -0.002876449143514037 -0.004587734118103981 0.033003389835357666
v -0.008042152039706707 -0.003998180385679007 0.03168092668056488
v 0.006843737792223692 -0.005602701101452112 0.022651774808764458
v 0.005766077898442745 -0.005647103767842054 0.02233239822089672
v 0.0063721793703734875 -0.005597425624728203 0.025113791227340698
v 0.005285336170345545 -0.0057334499433636665 0.024113884195685387
v 0.0051804715767502785 -0.005719245411455631 0.02305644005537033
v 0.010490797460079193 -0.003774413373321295 0.023378368467092514
v 0.008427965454757214 -0.004900849889963865 0.023545050993561745
v -0.0038703856989741325 -0.004739328753203154 0.02076715975999832
v -0.007384433411061764 -0.003773965174332261 0.02106103114783764
v -0.007565266918390989 -0.003979936242103577 0.02389518730342388
v 1.4053733139007818e-05 -0.004831070080399513 0.033257726579904556
v -0.0013390963431447744 -0.0032575698569417 0.008580198511481285
v -0.0011728917015716434 -0.0036570413503795862 0.01460279431194067
v -0.007290360983461142 -0.003271687775850296 0.018592527136206627
v -0.007468135561794043 -0.003464193781837821 0.00914237555116415
v -0.009793343022465706 -0.004683300387114286 0.006880016997456551
v -0.006854407489299774 -0.0034142881631851196 0.014682208187878132
v 0.0012862490257248282 -0.003502269508317113 0.00857920479029417
v 0.0011754075530916452 -0.004004895221441984 0.01460871659219265
v -0.0076140230521559715 -0.005227969028055668 0.007124429102987051
v 0.010459053330123425 -0.004416397772729397 0.007189876399934292
v 0.011824673041701317 0.0005863060941919684 0.005111141595989466
v 0.00929438229650259 0.0031501150224357843 0.005111141595989466
v 0.006056577432900667 0.004747454077005386 0.005111141595989466
v 0.0026458667125552893 0.00468053761869669 0.005111141595989466
v -0.0027291744481772184 0.0038843622896820307 0.005111141595989466
v -0.006123320199549198 0.00367431016638875 0.005111141595989466
v -0.00968159083276987 0.001868011779151857 0.005111141595989466
v 0.005897080060094595 0.004428309854120016 0.011328714899718761
v 0.002618402475491166 0.004322072956711054 0.01130671612918377
v -0.002523820847272873 0.003790495218709111 0.011277703568339348
v -0.005586082115769386 0.003529981942847371 0.011489191092550755
v 0.005709697026759386 0.004861451219767332 0.018189331516623497
v 0.002395866671577096 0.00508066825568676 0.018097711727023125
v -0.002169092884287238 0.004649235401302576 0.01793859899044037
v -0.0056002698838710785 0.0042801606468856335 0.01780034974217415
v -0.010093904100358486 0.0029651096556335688 0.018774131312966347
v -0.011515525169670582 0.002694520400837064 0.01983974315226078
v 0.010188060812652111 0.0020750362891703844 0.02366163209080696
v 0.0020185455214232206 0.006175265181809664 0.023047296330332756
v -0.0019084922969341278 0.005905854981392622 0.02268042042851448
v -0.00583962257951498 0.005082225892692804 0.02236700803041458
v -0.011110982857644558 0.002905716421082616 0.022785544395446777
v 0.010994106531143188 0.003128047799691558 0.02577410452067852
v 0.010100203566253185 0.0038434802554547787 0.027769770473241806
v 0.004539384040981531 0.005546266678720713 0.02822621911764145
v 0.0016937253531068563 0.005882358644157648 0.02747178263962269
v -0.0017081339610740542 0.005767203401774168 0.02728203684091568
v -0.005802767816931009 0.004949822556227446 0.026767127215862274
v -0.010798842646181583 0.003848387161269784 0.026254789903759956
v 0.008657505735754967 0.004325476009398699 0.029948756098747253
v 0.005068920087069273 0.0049371495842933655 0.031636159867048264
v 0.0013574735494330525 0.005347713828086853 0.03234562277793884
v -0.0013369356747716665 0.005358096212148666 0.0323910266160965
v -0.005571442190557718 0.004875219892710447 0.031533997505903244
v -0.009462348185479641 0.004421302117407322 0.029308833181858063
v 0.0007720215944573283 0.002189305145293474 0.0411805585026741
v -0.000732382875867188 0.0021914783865213394 0.04118046164512634
v -0.010396872647106647 0.0005015855422243476 0.016677891835570335
v 0.012220349162817001 0.001012404216453433 0.02324983850121498
v 0.012793425470590591 0.0006799882394261658 0.02489328570663929
v 0.001852937275543809 0.0009326044237241149 0.04108738899230957
v -0.001813202165067196 0.0009350852342322469 0.04108728468418121
v 0.007775637321174145 0.002344328910112381 0.018287738785147667
v -0.008631645701825619 0.0026099001988768578 0.018014151602983475
v -0.00850471667945385 0.0025439755991101265 0.018993113189935684
v -0.011023310013115406 0.001989768585190177 0.01718926429748535
v -0.012920428067445755 0.0013036911841481924 0.01913095824420452
v -0.009468085132539272 0.0024894336238503456 0.022562865167856216
v -0.013012791983783245 0.0014011977473273873 0.022784024477005005
v 0.01249330211430788 0.0017443571705371141 0.025955280289053917
v 0.008044034242630005 0.004258340690284967 0.0269471425563097
v 0.007654733024537563 0.004577669780701399 0.02847854234278202
v -0.009386792778968811 0.0030870873015373945 0.025331515818834305
v -0.012700758874416351 0.0018621385097503662 0.026847219094634056
v 0.012151604518294334 0.0016917064785957336 0.02825363352894783
v 0.009959876537322998 0.0019652172923088074 0.031272318214178085
v 0.005224866326898336 0.0028537053149193525 0.0337243378162384
v -0.0053073810413479805 0.0029734056442976 0.0336448960006237
v -0.010278364643454552 0.0022500178311020136 0.030963053926825523
v -0.009040752425789833 0.0036499996203929186 0.027477124705910683
v -0.008435338735580444 0.0029631415382027626 0.022331582382321358
v 0.006271103397011757 0.004729839041829109 0.0258093923330307
v 0.006084458902478218 0.00501417787745595 0.02718222513794899
v -0.00861966609954834 0.0032614972442388535 0.02566877007484436
v 0.001140280975960195 0.003873775713145733 0.034530192613601685
v -0.0011089507024735212 0.0038788733072578907 0.03453017771244049
v -0.0005858559161424637 0.0027445091400295496 0.005111141595989466
v -0.00984362792223692 0.00017740514886099845 0.007984645664691925
v -0.011769243516027927 -0.0010220593539997935 0.005111141595989466
v -0.0005294223665259778 0.002634635427966714 0.011300244368612766
v -0.007954777218401432 0.0012669197749346495 0.012410802766680717
v -0.008136195130646229 0.0013994470937177539 0.01572081260383129
v -0.0003239766519982368 0.0033694978337734938 0.016847236081957817
v -0.0077866557985544205 0.0026396422181278467 0.01778833195567131
v 0.0005908652092330158 0.0028891381807625294 0.005111141595989466
v 0.0005195924313738942 0.0027338345535099506 0.011299487203359604
v 0.0003578317118808627 0.0034210141748189926 0.016847236081957817
v 0.007881524041295052 0.0033307746052742004 0.02405528724193573
v 0.005637734197080135 0.005268746986985207 0.023487558588385582
v 0.009565234184265137 -0.004433068446815014 0.005111141595989466
v 0.006057473365217447 -0.005252195056527853 0.005111143458634615
v 0.00247270823456347 -0.0034338124096393585 0.005111141595989466
v -0.002729174681007862 -0.0035551744513213634 0.005111141595989466
v -0.006094594020396471 -0.0048609510995447636 0.005111145321279764
v -0.009065914899110794 -0.005443444941192865 0.005111145321279764
v 0.006231651641428471 -0.005202676635235548 0.011344569735229015
v 0.0024344881530851126 -0.003811079077422619 0.011307531036436558
v -0.00252381875179708 -0.003959628753364086 0.011277702637016773
v -0.0055860839784145355 -0.003863593563437462 0.011489191092550755
v 0.006180022843182087 -0.004836500622332096 0.01792057231068611
v 0.002376168267801404 -0.004536775406450033 0.018350875005126
v -0.002169090323150158 -0.00445054704323411 0.01793859526515007
v -0.00592022342607379 -0.004045688547194004 0.0180616807192564
v -0.010093902237713337 -0.0030376494396477938 0.018774131312966347
v -0.011515526100993156 -0.002789478050544858 0.019839739426970482
v 0.009905467741191387 -0.003959738649427891 0.024317054077982903
v 0.007509004324674606 -0.005218220874667168 0.024425406008958817
v 0.005825829226523638 -0.005972153041511774 0.02341405488550663
v 0.0022566942498087883 -0.005517558194696903 0.023230237886309624
v -0.0019084918312728405 -0.005658580455929041 0.022680414840579033
v -0.005839623045176268 -0.00503444904461503 0.02236700989305973
v -0.011110982857644558 -0.0028623375110328197 0.022785544395446777
v 0.010884853079915047 -0.0032830648124217987 0.02580909989774227
v 0.010100203566253185 -0.0036509777419269085 0.027769770473241806
v 0.006596008315682411 -0.003867619438096881 0.027945000678300858
v 0.005006865598261356 -0.004770995583385229 0.027716955170035362
v 0.0018633436411619186 -0.005606828723102808 0.027408702298998833
v -0.0017081339610740542 -0.005776914302259684 0.02728203497827053
v -0.005802767816931009 -0.004848054610192776 0.026767127215862274
v -0.010798841714859009 -0.003779605496674776 0.026254789903759956
v 0.008657506667077541 -0.0041174800135195255 0.029948754236102104
v 0.00506892055273056 -0.00486963102594018 0.03145429864525795
v 0.001357473898679018 -0.005452290643006563 0.03198189288377762
v -0.0013369356747716665 -0.005526067689061165 0.03202730044722557
v -0.005571444518864155 -0.004919381812214851 0.03135213628411293
v -0.009462348185479641 -0.0043165781535208225 0.029308835044503212
v 0.0007720225257799029 -0.002037477446720004 0.0411805585026741
v -0.0007323827594518661 -0.002039135666564107 0.04118046164512634
v 0.012683712877333164 -0.0023620191495865583 0.005111141595989466
v 0.011371984146535397 -0.0017763590440154076 0.007974500767886639
v 0.009072031825780869 -0.0009077963186427951 0.011526716873049736
v 0.008245633915066719 -0.0005707245436497033 0.018349137157201767
v -0.010833697393536568 -0.00020942679839208722 0.016541613265872
v 0.01189915556460619 -0.00013308576308190823 0.022673683241009712
v 0.009838437661528587 -0.0003512681578285992 0.02218140847980976
v -0.005046819802373648 -0.0014894676860421896 0.034089505672454834
v 0.0018529384396970272 -0.000794753257650882 0.04108738899230957
v -0.001813202165067196 -0.0007961057126522064 0.04108728468418121
v 0.007991588674485683 -0.0038611209020018578 0.005111141595989466
v 0.004090359900146723 -0.0032966628205031157 0.0051111397333443165
v 0.007874169386923313 -0.0036619638558477163 0.011336387135088444
v 0.004323448520153761 -0.003722025081515312 0.011330987326800823
v 0.007699755951762199 -0.003662677016109228 0.022069474682211876
v 0.0075515578500926495 -0.0033462613355368376 0.01813826709985733
v 0.004903252702206373 -0.003728654934093356 0.01796852983534336
v -0.008631640113890171 -0.0027270291466265917 0.018035389482975006
v -0.008871715515851974 -0.002410917542874813 0.01997717283666134
v -0.011023309081792831 -0.0023134739603847265 0.017224492505192757
v -0.01292042899876833 -0.0014903917908668518 0.019130956381559372
v 0.01187936495989561 -0.001786936423741281 0.023123035207390785
v 0.009728667326271534 -0.0026931087486445904 0.022401394322514534
v 0.006937501486390829 -0.0038138283416628838 0.026435745880007744
v 0.005360850133001804 -0.004322979133576155 0.025619737803936005
v 0.005014067981392145 -0.0038281341549009085 0.021927988156676292
v -0.009468085132539272 -0.002469415310770273 0.022562865167856216
v -0.013012791983783245 -0.001392899313941598 0.022784024477005005
v 0.0125099653378129 -0.0015146194491535425 0.025427192449569702
v 0.007966111414134502 -0.0035486887209117413 0.027323953807353973
v 0.007522306405007839 -0.004024005960673094 0.028605446219444275
v -0.009386790916323662 -0.0030040789861232042 0.025331515818834305
v -0.012700758874416351 -0.0018351643811911345 0.026847220957279205
v 0.012151605449616909 -0.0016819426091387868 0.02825363352894783
v 0.009959876537322998 -0.0018659332999959588 0.031272318214178085
v 0.005224866792559624 -0.002753021428361535 0.03354247659444809
v -0.00530738290399313 -0.0029112861957401037 0.03346303477883339
v -0.010278366506099701 -0.0021733089815825224 0.030963057652115822
v -0.009040750563144684 -0.0035502079408615828 0.027477124705910683
v 0.006249088328331709 -0.005210291128605604 0.021805541589856148
v 0.01131988875567913 -0.003211963688954711 0.02327226847410202
v 0.009568206034600735 -0.004106410779058933 0.022973239421844482
v 0.0070005618035793304 -0.00453649228438735 0.026153385639190674
v 0.007517029065638781 -0.004992798902094364 0.022414252161979675
v 0.005219030659645796 -0.0053158472292125225 0.0223736260086298
v 0.004828832112252712 -0.005372567567974329 0.023548129945993423
v -0.008435340598225594 -0.0030337064526975155 0.022331587970256805
v 0.006811182480305433 -0.003312857588753104 0.026947684586048126
v -0.008619665168225765 -0.0030885704327374697 0.02566877007484436
v 0.0011402822565287352 -0.0038590682670474052 0.03416646644473076
v -0.001108950236812234 -0.0038632648065686226 0.034166451543569565
v -0.0005858563235960901 -0.002576495986431837 0.005111141595989466
v -0.009505456313490868 -0.0032283528707921505 0.00792235229164362
v -0.01118229515850544 -0.003872223198413849 0.005111141595989466
v -0.0005294214934110641 -0.002824887866154313 0.011300244368612766
v -0.007864818908274174 -0.0027338648214936256 0.01240825280547142
v -0.00032397499307990074 -0.003521553473547101 0.016847234219312668
v -0.0076477485708892345 -0.002877313643693924 0.017314869910478592
v -0.007948087528347969 -0.002715462353080511 0.020073171705007553
v 0.0005908666062168777 -0.002727400278672576 0.005111141595989466
v 0.0005195946432650089 -0.003059172071516514 0.01129948440939188
v 0.004454861860722303 -0.0033833899069577456 0.019604329019784927
v 0.00035783296334557235 -0.0037273841444402933 0.016847236081957817
v -0.008845994248986244 -0.005257478915154934 0.00696546072140336
v 0.010509376414120197 -0.004687812179327011 0.005111145321279764
v 0.008334570564329624 -0.00309437932446599 0.011136898770928383
v 0.012654135003685951 -0.001005674828775227 0.005111141595989466
v 0.011549568735063076 0.0005886200815439224 0.007396057713776827
v 0.010577398352324963 0.0020821590442210436 0.005111141595989466
v 0.009125243872404099 0.0029579787515103817 0.008151878602802753
v 0.007834487594664097 0.003927071578800678 0.005111141595989466
v 0.006011993624269962 0.004622164182364941 0.008594917133450508
v 0.004081746097654104 0.005142430774867535 0.005111141595989466
v 0.0026083739940077066 0.004546459764242172 0.008585099130868912
v 0.0013952204026281834 0.0038090532179921865 0.005111141595989466
v -0.0014194410759955645 0.0034101721830666065 0.005111141595989466
v -0.0026074880734086037 0.003992379643023014 0.008575680665671825
v -0.004351614508777857 0.004043261054903269 0.005111141595989466
v -0.006121390964835882 0.003738992614671588 0.007461137138307095
v -0.007936057634651661 0.0029324591159820557 0.005111141595989466
v -0.009407557547092438 0.0018878214759752154 0.007011618465185165
v -0.011059468612074852 0.000528500007931143 0.005111141595989466
v 0.008306487463414669 0.0024775275960564613 0.011306014843285084
v 0.009326568804681301 0.0015626518288627267 0.011376654729247093
v 0.007240574341267347 0.0035701622255146503 0.011334296315908432
v 0.005775194615125656 0.00440074922516942 0.014627842232584953
v 0.004228855483233929 0.0048379055224359035 0.011316015385091305
v 0.002579662948846817 0.004341193474829197 0.014620116911828518
v 0.0013029159745201468 0.0034455806016921997 0.01130110863596201
v -0.0012939083389937878 0.0031988932751119137 0.011294803582131863
v -0.0024028101470321417 0.0038234081584960222 0.01460789144039154
v -0.0040206992998719215 0.004039896186441183 0.011319110170006752
v -0.005499864462763071 0.0035813995636999607 0.014611195772886276
v -0.006978074088692665 0.0024996690917760134 0.011816692538559437
v -0.005891665816307068 0.0036285726819187403 0.009209639392793179
v 0.006954716984182596 0.0036264238879084587 0.018244417384266853
v 0.005673055071383715 0.00545731233432889 0.021381480619311333
v 0.004152704495936632 0.005500637926161289 0.01813594251871109
v 0.002173373941332102 0.006246576551347971 0.021175434812903404
v 0.000957977375946939 0.0042169359512627125 0.017769768834114075
v -0.0008650707895867527 0.004053443670272827 0.017729992046952248
v -0.001958907349035144 0.0058801681734621525 0.02091210149228573
v -0.003869629930704832 0.004855720326304436 0.01783980429172516
v -0.005756965838372707 0.005053437314927578 0.020659158006310463
v -0.007019711658358574 0.0033680004999041557 0.01779237389564514
v -0.009199356660246849 0.0029804932419210672 0.01831800676882267
v -0.010978295467793941 0.002825186587870121 0.019306566566228867
v -0.010710650123655796 0.0028088779654353857 0.01778867095708847
v -0.011202298104763031 0.0026457826606929302 0.021115655079483986
v -0.01226066704839468 0.002346821129322052 0.01938985474407673
v 0.011545437388122082 0.0015308157308027148 0.02323075756430626
v 0.01054428517818451 0.0028481825720518827 0.024958528578281403
v 0.008762121200561523 0.0026629145722836256 0.024087967351078987
v 0.009945940226316452 0.0009585654479451478 0.02252279408276081
v 4.5122866140445694e-05 0.00588202802464366 0.022888217121362686
v -0.0018731377786025405 0.005617139395326376 0.024413684383034706
v -0.003863130696117878 0.00566704198718071 0.022485988214612007
v -0.005853226874023676 0.004902018699795008 0.02403322234749794
v -0.007482260465621948 0.00411974685266614 0.022317523136734962
v -0.010091032832860947 0.002872093813493848 0.022711260244250298
v -0.011042765341699123 0.003392032813280821 0.02458629384636879
v -0.01219566073268652 0.0024804400745779276 0.0228037778288126
v 0.011954430490732193 0.0025257952511310577 0.025645064190030098
v 0.010433412156999111 0.0035798486787825823 0.026734808459877968
v 0.008826494216918945 0.004180969204753637 0.027402788400650024
v 0.005317515227943659 0.005341413896530867 0.02740703523159027
v 0.004856885876506567 0.0053359996527433395 0.030001798644661903
v 0.003250989131629467 0.005760107655078173 0.02767270803451538
v 0.0015077505959197879 0.00579607579857111 0.030268019065260887
v -2.5883823582262266e-06 0.005891797598451376 0.027412032708525658
v 0.001876842463389039 0.005826086737215519 0.024787886068224907
v -0.0015004200395196676 0.00577668659389019 0.030277229845523834
v -0.0035868727136403322 0.005467053037136793 0.027070747688412666
v -0.0057036904618144035 0.004991941619664431 0.029592715203762054
v -0.007699226960539818 0.004214856773614883 0.026317643001675606
v -0.009907154366374016 0.0037214853800833225 0.025767989456653595
v -0.010298831388354301 0.0042420742101967335 0.02781948447227478
v -0.011812997050583363 0.0032884019892662764 0.026658877730369568
v 0.009629796259105206 0.004048753064125776 0.028850557282567024
v 0.011372720822691917 0.0030717626214027405 0.028052059933543205
v 0.007917320355772972 0.004599708132445812 0.029133988544344902
v 0.007148743607103825 0.0046346187591552734 0.030924055725336075
v 0.009472590871155262 0.003524227300658822 0.030726853758096695
v 0.0029583813156932592 0.005189402494579554 0.03210378438234329
v 0.005187558010220528 0.004169716499745846 0.0329400859773159
v 0.001236961456015706 0.0046645281836390495 0.03375091403722763
v 1.0825254321389366e-05 0.005405979230999947 0.03242144733667374
v -0.0012092547258362174 0.0046719773672521114 0.033762361854314804
v -0.0030697211623191833 0.005186899099498987 0.032134994864463806
v -0.005431009456515312 0.0043016946874558926 0.03281128406524658
v -0.00798726361244917 0.004570780787616968 0.03059096448123455
v -0.00987906102091074 0.003904392709955573 0.030289527028799057
v -0.00914424005895853 0.004202565643936396 0.028283769264817238
v 0.0014183101011440158 0.0016802640166133642 0.04113930091261864
v 0.0010458591859787703 0.0031430248636752367 0.035017989575862885
v 1.986111055884976e-05 0.0023847143165767193 0.041198499500751495
v -0.0013787306379526854 0.0016836008289828897 0.0411391519010067
v -0.0010115288896486163 0.0031464763451367617 0.03501783683896065
v 0.003915005829185247 0.006042628549039364 0.02322472259402275
v -0.010947007685899734 0.0012880852445960045 0.016894791275262833
v -0.00900135189294815 0.0009044830803759396 0.016464514657855034
v 0.012109395116567612 0.0004700626595877111 0.022936522960662842
v 0.012561113573610783 0.0009325161227025092 0.023952001705765724
v 0.012835174798965454 -0.00020773585129063576 0.025268349796533585
v 0.012694824486970901 0.001115730032324791 0.02544761821627617
v 0.005048548337072134 0.0015609306283295155 0.03414955735206604
v 0.005134322680532932 5.567194239119999e-05 0.0342431403696537
v 0.0029998901300132275 0.0011316287564113736 0.03486112877726555
v -0.0051041231490671635 5.722878995584324e-05 0.03424985706806183
v -0.005046819802373648 0.001593814929947257 0.03413497656583786
v -0.0029657199047505856 0.001134907710365951 0.03486229479312897
v 0.0020173361990600824 6.727960135322064e-05 0.04105876386165619
v -0.0019774690736085176 6.786995800212026e-05 0.04105871170759201
v 0.007822043262422085 0.0023174055386334658 0.01462063379585743
v 0.008197573013603687 0.000956091214902699 0.018321804702281952
v 0.007781003136187792 0.0026913245674222708 0.021631350740790367
v -0.00821825210005045 0.002323196269571781 0.017849760130047798
v -0.009416507557034492 0.002453966299071908 0.017342396080493927
v -0.009327789768576622 0.002287697745487094 0.02111680433154106
v -0.012506474740803242 0.0015196750173345208 0.017731184139847755
v -0.013228964060544968 -9.673538443166763e-05 0.019049255177378654
v -0.012883190996944904 0.0012657636543735862 0.020954621955752373
v -0.008997675962746143 0.002332946052774787 0.022412320598959923
v -0.009438964538276196 0.002829530742019415 0.024054665118455887
v -0.013354470022022724 5.527455755327537e-07 0.022764651104807854
v -0.013041292317211628 0.0016361433081328869 0.024715960025787354
v 0.012445460073649883 0.0016582137905061245 0.02703695558011532
v 0.0073323845863342285 0.004349870607256889 0.026412716135382652
v 0.007953913882374763 0.004385506268590689 0.027793869376182556
v 0.00799620058387518 0.003989903721958399 0.025760304182767868
v 0.007048413623124361 0.004714041482657194 0.02816839888691902
v -0.009027661755681038 0.0026866167318075895 0.025210175663232803
v -0.009268432855606079 0.0033512914087623358 0.02645260840654373
v -0.013113041408360004 8.111295755952597e-06 0.026887454092502594
v -0.01183263398706913 0.0020907437428832054 0.028991641476750374
v 0.01241763774305582 6.181592198117869e-06 0.02833423763513565
v 0.011395242065191269 0.0018067387863993645 0.02965039201080799
v 0.010121569037437439 3.848450069199316e-05 0.031486887484788895
v 0.007888691499829292 0.0022774392273277044 0.03275257349014282
v 0.0027236472815275192 0.003462865948677063 0.034284558147192
v -0.0027209543623030186 0.003499162383377552 0.03426468372344971
v -0.008086945861577988 0.002493168693035841 0.03257597237825394
v -0.010473662056028843 3.26316112477798e-05 0.031223027035593987
v -0.008796223439276218 0.0033511158544570208 0.027164436876773834
v -0.008502299897372723 0.0031858906149864197 0.02379089593887329
v -0.00835498608648777 0.00278606079518795 0.02122247964143753
v 0.005940408445894718 0.004939889535307884 0.026213111355900764
v 0.005778747610747814 0.004965055733919144 0.024849537760019302
v 1.575314672663808e-05 0.004030941985547543 0.03457435965538025
v 6.080098955862923e-06 0.002394541399553418 0.005111141595989466
v -0.0005466961301863194 0.002699944656342268 0.008581316098570824
v -0.01004859060049057 -0.0010157027281820774 0.008216404356062412
v -0.008464626036584377 0.0010527260601520538 0.009234283119440079
v -0.009352651424705982 0.0014257507864385843 0.007801128085702658
v -0.011231821961700916 -0.0007254049996845424 0.006994171068072319
v -0.011810366064310074 -0.002562643028795719 0.005111141595989466
v -1.2822741837226204e-06 0.002389690838754177 0.011299858801066875
v -0.00047489552525803447 0.0027733813039958477 0.014567635953426361
v -0.008509081788361073 -1.0837410627573263e-05 0.01298425905406475
v -0.007962496019899845 0.0012418655678629875 0.01490173302590847
v -0.00787716917693615 0.0021136312279850245 0.016239861026406288
v 2.5848061341093853e-05 0.0035587656311690807 0.017457151785492897
v -0.007886223495006561 0.0028075650334358215 0.01959306374192238
v 0.0005473963683471084 0.0028385682962834835 0.008580179885029793
v 0.0004691665235441178 0.0028400172013789415 0.014567602425813675
v -0.007785910274833441 0.002831666497513652 0.007135969121009111
v 0.011415327899158001 -0.0005649501108564436 0.007993949577212334
v 0.009247513487935066 0.00033716170582920313 0.01145289558917284
v 0.007016612682491541 0.00420730235055089 0.023782260715961456
v 0.009743592701852322 -0.00421685166656971 0.007450858596712351
v 0.008736812509596348 -0.003986278548836708 0.005111141595989466
v 0.007179481443017721 -0.004722792189568281 0.005111143458634615
v 0.0061595202423632145 -0.005215636920183897 0.008611578494310379
v 0.0048850541934370995 -0.004645069595426321 0.005111143458634615
v 0.003445039503276348 -0.003086307318881154 0.005111141595989466
v 0.002423419849947095 -0.003578837728127837 0.008577398024499416
v 0.0013519329950213432 -0.0033566914498806 0.005111141595989466
v -0.0014194415416568518 -0.003137436229735613 0.005111141595989466
v -0.0026074873749166727 -0.003714152378961444 0.008575680665671825
v -0.004344433546066284 -0.004054687917232513 0.005111141595989466
v -0.006095245946198702 -0.004745456390082836 0.00746113620698452
v -0.007746230345219374 -0.005486393813043833 0.005111145321279764
v -0.010171864181756973 -0.0048620677553117275 0.005111145321279764
v 0.00726089533418417 -0.004545110743492842 0.011341795325279236
v 0.006176874507218599 -0.005133277736604214 0.014618377201259136
v 0.005068613216280937 -0.00463696476072073 0.011341903358697891
v 0.0037192152813076973 -0.0034286072477698326 0.0113176004961133
v 0.0024405312724411488 -0.004130546469241381 0.014631739817559719
v 0.0012569401878863573 -0.003733261488378048 0.01130131259560585
v -0.001293906825594604 -0.0034141605719923973 0.011294803582131863
v -0.002402807353064418 -0.004203592427074909 0.014607889577746391
v -0.00402069790288806 -0.0043481746688485146 0.011319109238684177
v -0.005579852964729071 -0.004021938424557447 0.014621945098042488
v -0.006955588236451149 -0.0032859023194760084 0.011821241118013859
v -0.005886929575353861 -0.0038560577668249607 0.00920963753014803
v 0.006931073032319546 -0.004407779313623905 0.01796642877161503
v 0.0062133437022566795 -0.004707693122327328 0.020619327202439308
v 0.005452663172036409 -0.004568368662148714 0.017941128462553024
v 0.00381437293253839 -0.003942086827009916 0.01880614459514618
v 0.002296516438946128 -0.004647368565201759 0.021530482918024063
v 0.0009530531242489815 -0.004252979531884193 0.017833057790994644
v -0.0008650693926028907 -0.00403605168685317 0.01772998832166195
v -0.0019589057192206383 -0.004769129678606987 0.02091210149228573
v -0.003949615638703108 -0.004738165996968746 0.017905134707689285
v -0.006926065310835838 -0.0034674431663006544 0.017217302694916725
v -0.009199351072311401 -0.003026057966053486 0.018321514129638672
v -0.009403963573276997 -0.002772560343146324 0.019660186022520065
v -0.010978295467793941 -0.00294137024320662 0.019306564703583717
v -0.010710647329688072 -0.002981544006615877 0.01779736764729023
v -0.01226066891103983 -0.0025036316365003586 0.01938985288143158
v -0.011202298104763031 -0.0026426257099956274 0.021115655079483986
v 0.01098746620118618 -0.003485450055450201 0.02372058294713497
v 0.010364387184381485 -0.0034782462753355503 0.025157377123832703
v 0.008577956818044186 -0.004561704583466053 0.02467941679060459
v 0.009607079438865185 -0.004308731760829687 0.0235137902200222
v 0.007316800765693188 -0.004950184840708971 0.02560904622077942
v 0.006618374027311802 -0.0057485997676849365 0.023891469463706017
v 0.00755299674347043 -0.005327391438186169 0.023141812533140182
v 0.005671094637364149 -0.005841825623065233 0.024502219632267952
v 0.0054542263969779015 -0.005822178442031145 0.022760460153222084
v 0.0061617521569132805 -0.005741122644394636 0.02242264151573181
v 0.00010466147068655118 -0.005649565253406763 0.022933946922421455
v -0.0018731380114331841 -0.0054291486740112305 0.024413682520389557
v -0.003863131394609809 -0.00547630712389946 0.022485988214612007
v -0.0058532278053462505 -0.004655728582292795 0.02403322421014309
v -0.007482261396944523 -0.004325515124946833 0.02231752499938011
v -0.005836954805999994 -0.0043427241034805775 0.020724492147564888
v -0.010091032832860947 -0.0028332772199064493 0.022711260244250298
v -0.011042765341699123 -0.0033363886177539825 0.02458629384636879
v -0.01219566073268652 -0.002456110203638673 0.02280377596616745
v 0.011849344708025455 -0.002714963397011161 0.025548037141561508
v 0.010406100191175938 -0.0034750180784612894 0.026743559166789055
v 0.008807014673948288 -0.003765211207792163 0.02749699354171753
v 0.006045254413038492 -0.00428024772554636 0.02794731967151165
v 0.007043873891234398 -0.0039723715744912624 0.028485992923378944
v 0.00658697634935379 -0.00347648817114532 0.02726045995950699
v 0.0049737561494112015 -0.005101468879729509 0.02982901595532894
v 0.00357988104224205 -0.005244860425591469 0.027466539293527603
v 0.005143983755260706 -0.004353177268058062 0.02601492777466774
v 0.0015501549933105707 -0.00579543923959136 0.030161317437887192
v 3.981740155722946e-05 -0.005802359897643328 0.02739626169204712
v 0.0021484026219695807 -0.005315062124282122 0.02475477196276188
v -0.0015004196902737021 -0.005927146412432194 0.030186299234628677
v -0.003586874110624194 -0.005476732272654772 0.027070747688412666
v -0.005703690927475691 -0.005025168415158987 0.029547253623604774
v -0.007699226960539818 -0.004011720884591341 0.026317643001675606
v -0.009907153435051441 -0.003638993948698044 0.025767989456653595
v -0.010298828594386578 -0.004156640265136957 0.02781948447227478
v -0.011812997050583363 -0.0032402256038039923 0.026658877730369568
v 0.009629796259105206 -0.00385158509016037 0.028850557282567024
v 0.011372721754014492 -0.0030189130920916796 0.028052059933543205
v 0.007884213700890541 -0.00427325488999486 0.029165711253881454
v 0.0071487450040876865 -0.004454787354916334 0.030878586694598198
v 0.009472591802477837 -0.0033754503820091486 0.030726859346032143
v 0.0029583813156932592 -0.0052421013824641705 0.0317855179309845
v 0.005187558010220528 -0.004083980340510607 0.032667290419340134
v 0.001236962154507637 -0.0047494713217020035 0.033205319195985794
v 1.0825701792782638e-05 -0.00553525798022747 0.03205772489309311
v -0.001209254958666861 -0.004772001411765814 0.033216774463653564
v -0.003069722093641758 -0.005346762016415596 0.03181673586368561
v -0.005431013181805611 -0.004293739330023527 0.03253849223256111
v -0.007987264543771744 -0.004492972511798143 0.03054550662636757
v -0.009879064746201038 -0.0038092362228780985 0.030289532616734505
v -0.009144238196313381 -0.004096510354429483 0.028283771127462387
v 0.001418311265297234 -0.0015356269432231784 0.04113930091261864
v 0.0010458604665473104 -0.003023856785148382 0.03492705896496773
v 1.9861472537741065e-05 -0.002229059347882867 0.0411984957754612
v -0.0013787304051220417 -0.001538040698505938 0.0411391519010067
v -0.0010115279583260417 -0.003026568330824375 0.03492690250277519
v -0.007206008303910494 -0.0034800549037754536 0.01960207335650921
v 0.004010464996099472 -0.004966363310813904 0.02346854656934738
v 0.005253413692116737 -0.00585902901366353 0.023514723405241966
v 0.012182551436126232 -0.0034667402505874634 0.005111141595989466
v 0.012292916886508465 -0.0022227747831493616 0.00727699464187026
v 0.01101720705628395 -0.0029068300500512123 0.007856432348489761
v 0.010236646980047226 -0.001259218086488545 0.00897008366882801
v -0.009917384013533592 -0.002343793399631977 0.008167689666152
v 0.008934620767831802 -0.0021127620711922646 0.011363818310201168
v 0.008471702225506306 -0.0006892491946928203 0.01465543732047081
v -0.008396629244089127 -0.002054573269560933 0.012978868559002876
v 0.008002677001059055 -0.002058396814391017 0.018308401107788086
v 0.008657017722725868 -0.00048160491860471666 0.021243266761302948
v -0.010947007685899734 -0.001616638619452715 0.01679774932563305
v 0.011136839166283607 -0.00022125031682662666 0.022284550592303276
v 0.01201140508055687 -0.0008297054446302354 0.022933287546038628
v 0.00979090016335249 -0.0016399862943217158 0.02226507104933262
v 0.005048549268394709 -0.0014492907794192433 0.03410409390926361
v 0.002999891061335802 -0.0010006673401221633 0.03486112877726555
v -0.002965718973428011 -0.001002121134661138 0.03486229106783867
v 0.007934910245239735 -0.003886220045387745 0.008593723177909851
v 0.004201880190521479 -0.0035172556526958942 0.008599533699452877
v 0.0076539283618330956 -0.0034603311214596033 0.014627729542553425
v 0.004591573495417833 -0.003903732867911458 0.01461869478225708
v 0.007524736225605011 -0.004382031038403511 0.022103287279605865
v 0.008432138711214066 -0.003215559758245945 0.022338543087244034
v 0.007566888816654682 -0.003398055676370859 0.020952966064214706
v 0.00456093717366457 -0.0031315081287175417 0.018392890691757202
v 0.005120143294334412 -0.0035762509796768427 0.020716549828648567
v -0.008183523081243038 -0.002540426794439554 0.017755459994077682
v -0.00941650290042162 -0.0026756252627819777 0.01739790104329586
v -0.008504713885486126 -0.0025855558924376965 0.018993111327290535
v -0.008414107374846935 -0.002263113623484969 0.02001739852130413
v -0.009327789768576622 -0.0023218977730721235 0.02111680433154106
v -0.012506476603448391 -0.001851764740422368 0.017731184139847755
v -0.012883191928267479 -0.0013051418354734778 0.020954621955752373
v 0.01105564460158348 -0.0021865060552954674 0.022561676800251007
v 0.011612405069172382 -0.00268696341663599 0.02323775552213192
v 0.012323063798248768 -0.0015458299312740564 0.024080023169517517
v 0.009653761982917786 -0.003514096373692155 0.02262568101286888
v 0.006743088364601135 -0.003486194182187319 0.026629699394106865
v 0.007762113120406866 -0.0035906583070755005 0.026731256395578384
v 0.005975879263132811 -0.004098001401871443 0.0261582899838686
v 0.005365352611988783 -0.00505575118586421 0.02513125352561474
v 0.005084293894469738 -0.004601663909852505 0.02213549055159092
v 0.004721500910818577 -0.003529594512656331 0.021472549065947533
v -0.008997675962746143 -0.002303635934367776 0.022412320598959923
v -0.009438964538276196 -0.002755169989541173 0.024054666981101036
v -0.013041292317211628 -0.0016216525109484792 0.024715960025787354
v 0.012449627742171288 -0.001593318535014987 0.026904933154582977
v 0.00737000023946166 -0.0032987806480377913 0.02716830186545849
v 0.007802008651196957 -0.0036918334662914276 0.02801497094333172
v -0.00902765803039074 -0.0025841672904789448 0.025210175663232803
v -0.009268430061638355 -0.003260628320276737 0.026452604681253433
v -0.011832636781036854 -0.0020431880839169025 0.028991641476750374
v 0.011395242065191269 -0.00177473365329206 0.02965039387345314
v 0.007888691499829292 -0.0021329077426344156 0.032707106322050095
v 0.002723648212850094 -0.0034278728999197483 0.0339662991464138
v -0.0027209550607949495 -0.0034726846497505903 0.03394642472267151
v -0.008086948655545712 -0.002403388498350978 0.03253050893545151
v -0.00879622157663107 -0.0032331363763660192 0.027164436876773834
v 0.005681183654814959 -0.005267254542559385 0.021963099017739296
v 0.006876463536173105 -0.005125346593558788 0.021942181512713432
v 0.010708135552704334 -0.0035177776589989662 0.023007595911622047
v 0.008353403769433498 -0.00469302898272872 0.02287389524281025
v 0.00607474148273468 -0.004899420775473118 0.025799795985221863
v 0.004991676192730665 -0.005373537540435791 0.0242304727435112
v 0.00491684302687645 -0.005352230742573738 0.022935757413506508
v -0.008502298034727573 -0.0030060315039008856 0.02379089780151844
v -0.008292650803923607 -0.002777867019176483 0.02114197053015232
v 1.575437272549607e-05 -0.004014801699668169 0.03421063348650932
v 6.0798947743023746e-06 -0.00229520071297884 0.005111141595989466
v -0.0005466964212246239 -0.0026795549783855677 0.008581316098570824
v -0.008310931734740734 -0.002759219380095601 0.009190116077661514
v -0.008874691091477871 -0.004055068828165531 0.007746684364974499
v -0.01070903055369854 -0.003734831465408206 0.00694215577095747
v -1.2815203263016883e-06 -0.0025637566577643156 0.011299858801066875
v -0.0004748936917167157 -0.003082290757447481 0.014567633159458637
v -0.007774597033858299 -0.002867995761334896 0.014898939989507198
v 2.5849607482086867e-05 -0.0035514426417648792 0.0174571480602026
v -0.007650252431631088 -0.002792714163661003 0.018868977203965187
v 0.0005473985220305622 -0.0028548522386699915 0.008580178022384644
v 0.0004691683279816061 -0.0033482301514595747 0.014567602425813675
v 0.0002772922453004867 3.6065830499865115e-05 0.00519905611872673
v -0.012922561727464199 3.6065830499865115e-05 0.00519905611872673
v -0.012126513756811619 -0.004478550981730223 0.00519905611872673
v -0.009834382683038712 -0.008448636159300804 0.00519905611872673
v -0.006322633940726519 -0.011395341716706753 0.00519905611872673
v -0.002014837460592389 -0.012963253073394299 0.00519905611872673
v 0.0025694244541227818 -0.012963253073394299 0.00519905611872673
v 0.006877219304442406 -0.011395341716706753 0.00519905611872673
v 0.010388967581093311 -0.008448636159300804 0.00519905611872673
v 0.01268109679222107 -0.004478550981730223 0.00519905611872673
v 0.01347714476287365 3.6064193409401923e-05 0.00519905611872673
v 0.012681098654866219 0.004550679121166468 0.00519905611872673
v 0.010388968512415886 0.008520765230059624 0.00519905611872673
v 0.006877222564071417 0.011467471718788147 0.00519905611872673
v 0.002569428412243724 0.013035383075475693 0.00519905611872673
v -0.0020148318726569414 0.013035384938120842 0.00519905611872673
v -0.006322627887129784 0.01146747823804617 0.00519905611872673
v -0.009834377095103264 0.00852077454328537 0.00519905611872673
v -0.01212651003152132 0.00455069076269865 0.00519905611872673
v -0.012922561727464199 3.6065830499865115e-05 -2.6880115910898894e-05
v -0.012126513756811619 -0.004478550981730223 -2.6880115910898894e-05
v -0.009834382683038712 -0.008448636159300804 -2.6880115910898894e-05
v -0.006322633940726519 -0.011395341716706753 -2.6880115910898894e-05
v -0.002014837460592389 -0.012963253073394299 -2.6880115910898894e-05
v 0.0025694244541227818 -0.012963253073394299 -2.6880115910898894e-05
v 0.006877219304442406 -0.011395341716706753 -2.6880115910898894e-05
v 0.010388967581093311 -0.008448636159300804 -2.6880115910898894e-05
v 0.01268109679222107 -0.004478550981730223 -2.6880115910898894e-05
v 0.01347714476287365 3.6064193409401923e-05 -2.6880115910898894e-05
v 0.012681098654866219 0.004550679121166468 -2.6880115910898894e-05
v 0.010388968512415886 0.008520765230059624 -2.6880115910898894e-05
v 0.006877222564071417 0.011467471718788147 -2.6880115910898894e-05
v 0.002569428412243724 0.013035383075475693 -2.6880115910898894e-05
v -0.0020148318726569414 0.013035384938120842 -2.6880115910898894e-05
v -0.006322627887129784 0.01146747823804617 -2.6880115910898894e-05
v -0.009834377095103264 0.00852077454328537 -2.6880115910898894e-05
v -0.01212651003152132 0.00455069076269865 -2.6880115910898894e-05
v 0.008508569560945034 0.001245327526703477 0.02185315079987049
v -0.008894487284123898 0.001811762573197484 0.016834858804941177
v -0.012836841866374016 -0.00019903092470485717 0.0171708632260561
v -0.008977544493973255 4.184839781373739e-06 0.016121940687298775
v 0.002440456999465823 0.002351426985114813 0.03498004004359245
v 0.003331948770210147 6.30146314506419e-05 0.03478442505002022
v -0.0032977862283587456 6.39958307147026e-05 0.034786026924848557
v -0.0024117028806358576 0.00236130366101861 0.034977443516254425
v 0.003331948770210147 6.30146314506419e-05 0.03478442505002022
v 0.003331948770210147 6.30146314506419e-05 0.03478442505002022
v 0.0029998901300132275 0.0011316287564113736 0.03486112877726555
v -0.0032977862283587456 6.39958307147026e-05 0.034786026924848557
v -0.0029657199047505856 0.001134907710365951 0.03486229479312897
v -0.0032977862283587456 6.39958307147026e-05 0.034786026924848557
v 0.008508569560945034 0.001245327526703477 0.02185315079987049
v -0.008894487284123898 0.001811762573197484 0.016834858804941177
v -0.008894487284123898 0.001811762573197484 0.016834858804941177
v -0.012836841866374016 -0.00019903092470485717 0.0171708632260561
v -0.00886131264269352 0.0021930320654064417 0.021132370457053185
v 0.002440456999465823 0.002351426985114813 0.03498004004359245
v -0.0024117028806358576 0.00236130366101861 0.034977443516254425
v -0.008143451996147633 0.004279456567019224 0.028853528201580048
v -0.008143451996147633 0.004279456567019224 0.028853528201580048
v -0.008796223439276218 0.0033511158544570208 0.027164436876773834
v -0.009011227637529373 0.002571128774434328 0.02381313033401966
v -0.008997675962746143 0.002332946052774787 0.022412320598959923
v -0.00886131264269352 0.0021930320654064417 0.021132370457053185
v -0.00886131264269352 0.0021930320654064417 0.021132370457053185
v -0.009035784751176834 0.0030619448516517878 0.02631460875272751
v -0.009027661755681038 0.0026866167318075895 0.025210175663232803
v -0.008796223439276218 0.0033511158544570208 0.027164436876773834
v -0.008143451996147633 0.004279456567019224 0.028853528201580048
v -0.008796223439276218 0.0033511158544570208 0.027164436876773834
v -0.008143451996147633 0.004279456567019224 0.028853528201580048
v 4.029964657092933e-06 0.0024060490541160107 0.008580740541219711
v -0.008977544493973255 4.184839781373739e-06 0.016121940687298775
v -0.008894487284123898 0.001811762573197484 0.016834858804941177
v -0.008977544493973255 4.184839781373739e-06 0.016121940687298775
v -0.008977544493973255 4.184839781373739e-06 0.016121940687298775
v -0.00812972616404295 0.00234790937975049 0.01912657544016838
v -0.00821825210005045 0.002323196269571781 0.017849760130047798
v -0.00812972616404295 0.00234790937975049 0.01912657544016838
v -0.008894487284123898 0.001811762573197484 0.016834858804941177
v -0.008894487284123898 0.001811762573197484 0.016834858804941177
v 4.029964657092933e-06 0.0024060490541160107 0.008580740541219711
v 6.080098955862923e-06 0.002394541399553418 0.005111141595989466
v 4.029964657092933e-06 0.0024060490541160107 0.008580740541219711
v 0.008580132387578487 -0.0037250914610922337 0.008391075767576694
v 0.006057473365217447 -0.005252195056527853 0.005111143458634615
v 0.006057473365217447 -0.005252195056527853 0.005111143458634615
v 0.0061595202423632145 -0.005215636920183897 0.008611578494310379
v -0.008845994248986244 -0.005257478915154934 0.00696546072140336
v 0.006231651641428471 -0.005202676635235548 0.011344569735229015
v 0.006231651641428471 -0.005202676635235548 0.011344569735229015
v 0.0055556935258209705 -0.004531120415776968 0.021030675619840622
v 0.004329095594584942 -0.004577601794153452 0.0223060455173254
v 0.0043468475341796875 -0.0048311976715922356 0.02470340207219124
v 0.004329095594584942 -0.004577601794153452 0.0223060455173254
v 0.004329095594584942 -0.004577601794153452 0.0223060455173254
v 0.008639886043965816 -0.003879539668560028 0.026323124766349792
v 0.005943068768829107 -0.0037895271088927984 0.02663169801235199
v 0.0043468475341796875 -0.0048311976715922356 0.02470340207219124
v 0.01227045152336359 -0.0008888524607755244 0.0073386989533901215
v 0.012654135003685951 -0.001005674828775227 0.005111141595989466
v 0.01030762493610382 -5.365557171899127e-06 0.008850537240505219
v 0.011415327899158001 -0.0005649501108564436 0.007993949577212334
v 0.008508415892720222 0.0010618127416819334 0.014620634727180004
v 0.009247513487935066 0.00033716170582920313 0.01145289558917284
v -0.008801952004432678 -0.0022942146752029657 0.016477346420288086
v -0.008977544493973255 4.184839781373739e-06 0.016121940687298775
v 0.008508569560945034 0.001245327526703477 0.02185315079987049
v 0.008197573013603687 0.000956091214902699 0.018321804702281952
v -0.012836841866374016 -0.00019903092470485717 0.0171708632260561
v -0.008801952004432678 -0.0022942146752029657 0.016477346420288086
v -0.008977544493973255 4.184839781373739e-06 0.016121940687298775
v 0.012597416527569294 -0.00011866368004120886 0.02378772757947445
v 0.012109395116567612 0.0004700626595877111 0.022936522960662842
v 0.01128286961466074 0.0007717407424934208 0.022529402747750282
v 0.011136839166283607 -0.00022125031682662666 0.022284550592303276
v 0.008657017722725868 -0.00048160491860471666 0.021243266761302948
v 0.008356219157576561 -0.0021487167105078697 0.021603332832455635
v 0.008356219157576561 -0.0021487167105078697 0.021603332832455635
v 0.011134442873299122 -0.0012591348495334387 0.022412046790122986
v 0.011134442873299122 -0.0012591348495334387 0.022412046790122986
v 0.007649370934814215 5.108808181830682e-05 0.033438798040151596
v 0.005134322680532932 5.567194239119999e-05 0.0342431403696537
v 0.002440458396449685 -0.0022281238343566656 0.034929122775793076
v 0.003331948770210147 6.30146314506419e-05 0.03478442505002022
v 0.003331948770210147 6.30146314506419e-05 0.03478442505002022
v 0.002999891061335802 -0.0010006673401221633 0.03486112877726555
v -0.0032977862283587456 6.39958307147026e-05 0.034786026924848557
v -0.0024117021821439266 -0.0022380489390343428 0.034926529973745346
v -0.002965718973428011 -0.001002121134661138 0.03486229106783867
v 0.003331948770210147 6.30146314506419e-05 0.03478442505002022
v 0.0020173361990600824 6.727960135322064e-05 0.04105876386165619
v 0.002440458396449685 -0.0022281238343566656 0.034929122775793076
v 0.002999891061335802 -0.0010006673401221633 0.03486112877726555
v -0.0032977862283587456 6.39958307147026e-05 0.034786026924848557
v -0.0024117021821439266 -0.0022380489390343428 0.034926529973745346
v -0.002965718973428011 -0.001002121134661138 0.03486229106783867
v 0.008580132387578487 -0.0037250914610922337 0.008391075767576694
v 0.008580132387578487 -0.0037250914610922337 0.008391075767576694
v 0.003954409155994654 -0.0035029875580221415 0.014704287983477116
v 0.008356219157576561 -0.0021487167105078697 0.021603332832455635
v 0.008356219157576561 -0.0021487167105078697 0.021603332832455635
v 0.003954409155994654 -0.0035029875580221415 0.014704287983477116
v 0.0055556935258209705 -0.004531120415776968 0.021030675619840622
v -0.008801952004432678 -0.0022942146752029657 0.016477346420288086
v -0.008801952004432678 -0.0022942146752029657 0.016477346420288086
v -0.008801952004432678 -0.0022942146752029657 0.016477346420288086
v -0.012836841866374016 -0.00019903092470485717 0.0171708632260561
v -0.012836841866374016 -0.00019903092470485717 0.0171708632260561
v -0.012836841866374016 -0.00019903092470485717 0.0171708632260561
v -0.012836841866374016 -0.00019903092470485717 0.0171708632260561
v 0.011134442873299122 -0.0012591348495334387 0.022412046790122986
v 0.00979090016335249 -0.0016399862943217158 0.02226507104933262
v 0.008356219157576561 -0.0021487167105078697 0.021603332832455635
v 0.008356219157576561 -0.0021487167105078697 0.021603332832455635
v 0.005943068768829107 -0.0037895271088927984 0.02663169801235199
v 0.005943068768829107 -0.0037895271088927984 0.02663169801235199
v 0.008639886043965816 -0.003879539668560028 0.026323124766349792
v 0.005360850133001804 -0.004322979133576155 0.025619737803936005
v 0.0043468475341796875 -0.0048311976715922356 0.02470340207219124
v 0.005943068768829107 -0.0037895271088927984 0.02663169801235199
v 0.005360850133001804 -0.004322979133576155 0.025619737803936005
v 0.005943068768829107 -0.0037895271088927984 0.02663169801235199
v 0.004329095594584942 -0.004577601794153452 0.0223060455173254
v 0.005014067981392145 -0.0038281341549009085 0.021927988156676292
v 0.0055556935258209705 -0.004531120415776968 0.021030675619840622
v 0.005014067981392145 -0.0038281341549009085 0.021927988156676292
v 0.005014067981392145 -0.0038281341549009085 0.021927988156676292
v 0.0055556935258209705 -0.004531120415776968 0.021030675619840622
v 0.004804238211363554 -0.0033400319516658783 0.02031412534415722
v 0.004721500910818577 -0.003529594512656331 0.021472549065947533
v 0.005014067981392145 -0.0038281341549009085 0.021927988156676292
v -0.008845727890729904 -0.002208197256550193 0.021112244576215744
v 0.01283067837357521 0.0001207879904541187 0.026773402467370033
v 0.012835174798965454 -0.00020773585129063576 0.025268349796533585
v -0.009011225774884224 -0.002468376886099577 0.02381313219666481
v 0.011622924357652664 1.5521030945819803e-05 0.02979341521859169
v 0.01241763774305582 6.181592198117869e-06 0.02833423763513565
v 0.010121569037437439 3.848450069199316e-05 0.031486887484788895
v -0.008143453858792782 -0.004173567518591881 0.0288462545722723
v -0.00879622157663107 -0.0032331363763660192 0.027164436876773834
v 0.0055556935258209705 -0.004531120415776968 0.021030675619840622
v 0.0043468475341796875 -0.0048311976715922356 0.02470340207219124
v 0.0055556935258209705 -0.004531120415776968 0.021030675619840622
v 0.004329095594584942 -0.004577601794153452 0.0223060455173254
v 0.004329095594584942 -0.004577601794153452 0.0223060455173254
v 0.004329095594584942 -0.004577601794153452 0.0223060455173254
v 0.004329095594584942 -0.004577601794153452 0.0223060455173254
v -0.008845727890729904 -0.002208197256550193 0.021112244576215744
v -0.008997675962746143 -0.002303635934367776 0.022412320598959923
v -0.008845727890729904 -0.002208197256550193 0.021112244576215744
v -0.009011225774884224 -0.002468376886099577 0.02381313219666481
v 0.005943068768829107 -0.0037895271088927984 0.02663169801235199
v -0.009011225774884224 -0.002468376886099577 0.02381313219666481
v -0.00902765803039074 -0.0025841672904789448 0.025210175663232803
v -0.009035782888531685 -0.002963209990411997 0.02631460875272751
v -0.00879622157663107 -0.0032331363763660192 0.027164436876773834
v -0.008143453858792782 -0.004173567518591881 0.0288462545722723
v -0.00879622157663107 -0.0032331363763660192 0.027164436876773834
v -0.008801952004432678 -0.0022942146752029657 0.016477346420288086
v -0.008801952004432678 -0.0022942146752029657 0.016477346420288086
v 8.255111606558785e-05 -0.0044748662039637566 0.020799167454242706
v 2.0305835732870037e-06 -0.002908956026658416 0.01459270529448986
v 2.5849607482086867e-05 -0.0035514426417648792 0.0174571480602026
v -0.008801952004432678 -0.0022942146752029657 0.016477346420288086
v -0.008070729672908783 -0.0023891364689916372 0.01894555054605007
v -0.008070729672908783 -0.0023891364689916372 0.01894555054605007
v -0.008414107374846935 -0.002263113623484969 0.02001739852130413
v 4.02950172428973e-06 -0.002398338634520769 0.008580738678574562
v 6.0798947743023746e-06 -0.00229520071297884 0.005111141595989466
v -1.2815203263016883e-06 -0.0025637566577643156 0.011299858801066875
v 2.0305835732870037e-06 -0.002908956026658416 0.01459270529448986
v 0.003954409155994654 -0.0035029875580221415 0.014704287983477116
v 0.00456093717366457 -0.0031315081287175417 0.018392890691757202
v 0.004329095594584942 -0.004577601794153452 0.0223060455173254
v 0.004721500910818577 -0.003529594512656331 0.021472549065947533
v 0.004804238211363554 -0.0033400319516658783 0.02031412534415722
v 0.00456093717366457 -0.0031315081287175417 0.018392890691757202
v 0.004721500910818577 -0.003529594512656331 0.021472549065947533
v 8.255111606558785e-05 -0.0044748662039637566 0.020799167454242706
v 2.5849607482086867e-05 -0.0035514426417648792 0.0174571480602026
v 2.0305835732870037e-06 -0.002908956026658416 0.01459270529448986
v 2.5849607482086867e-05 -0.0035514426417648792 0.0174571480602026
v -0.007468135561794043 -0.003464193781837821 0.00914237555116415
v -0.008845994248986244 -0.005257478915154934 0.00696546072140336
v -0.008845994248986244 -0.005257478915154934 0.00696546072140336
v -0.008845994248986244 -0.005257478915154934 0.00696546072140336
v -0.007468135561794043 -0.003464193781837821 0.00914237555116415
v 0.010459053330123425 -0.004416397772729397 0.007189876399934292
v 0.009743592701852322 -0.00421685166656971 0.007450858596712351
v 0.008580132387578487 -0.0037250914610922337 0.008391075767576694
v 0.009743592701852322 -0.00421685166656971 0.007450858596712351
v 0.010459053330123425 -0.004416397772729397 0.007189876399934292
v 0.0002772922453004867 3.6065830499865115e-05 0.00519905611872673
v 0.01347714476287365 3.6064193409401923e-05 0.00519905611872673
v -0.012922561727464199 3.6065830499865115e-05 0.00519905611872673
v -0.012922561727464199 3.6065830499865115e-05 0.00519905611872673
v -0.012126513756811619 -0.004478550981730223 0.00519905611872673
v -0.009834382683038712 -0.008448636159300804 0.00519905611872673
v -0.006322633940726519 -0.011395341716706753 0.00519905611872673
v -0.002014837460592389 -0.012963253073394299 0.00519905611872673
v 0.0025694244541227818 -0.012963253073394299 0.00519905611872673
v 0.006877219304442406 -0.011395341716706753 0.00519905611872673
v 0.010388967581093311 -0.008448636159300804 0.00519905611872673
v 0.01268109679222107 -0.004478550981730223 0.00519905611872673
v 0.01347714476287365 3.6064193409401923e-05 0.00519905611872673
v 0.01347714476287365 3.6064193409401923e-05 0.00519905611872673
v 0.01347714476287365 3.6064193409401923e-05 -2.6880115910898894e-05
v 0.012681098654866219 0.004550679121166468 0.00519905611872673
v 0.010388968512415886 0.008520765230059624 0.00519905611872673
v 0.006877222564071417 0.011467471718788147 0.00519905611872673
v 0.002569428412243724 0.013035383075475693 0.00519905611872673
v -0.0020148318726569414 0.013035384938120842 0.00519905611872673
v -0.006322627887129784 0.01146747823804617 0.00519905611872673
v -0.009834377095103264 0.00852077454328537 0.00519905611872673
v -0.01212651003152132 0.00455069076269865 0.00519905611872673
v -0.012922561727464199 3.6065830499865115e-05 -2.6880115910898894e-05
v -0.012922561727464199 3.6065830499865115e-05 0.00519905611872673
g submesh_0
f 450 736 201
f 451 202 741
f 751 220 750
f 760 759 224
f 767 755 501
f 509 240 775
f 797 497 796
f 626 814 625
f 817 625 816
f 627 818 286
f 286 819 820
f 509 79 289
f 650 851 852
f 652 854 304
f 653 855 785
f 636 856 857
f 652 858 859
f 861 860 858
f 636 862 860
f 668 870 317
f 894 335 893
f 911 341 910
f 682 917 918
f 923 105 922
f 506 2 78
f 78 2 505
f 78 505 346
f 346 505 1
f 346 1 161
f 161 1 345
f 748 436 226
f 226 436 34
f 226 34 487
f 487 34 225
f 487 225 70
f 70 225 424
f 70 424 192
f 192 424 63
f 192 63 422
f 422 63 191
f 422 191 51
f 51 191 405
f 51 405 185
f 185 405 26
f 185 26 404
f 404 26 223
f 404 223 68
f 68 223 485
f 68 485 222
f 222 485 25
f 222 25 466
f 466 25 211
f 466 211 19
f 19 211 468
f 19 468 238
f 238 468 48
f 238 48 391
f 391 48 178
f 391 178 728
f 730 438 198
f 198 438 38
f 729 439 198
f 198 439 11
f 731 283 198
f 198 283 12
f 33 444 446
f 446 444 732
f 468 211 48
f 48 211 403
f 48 403 184
f 184 403 50
f 184 50 417
f 417 50 190
f 417 190 61
f 61 190 421
f 61 421 216
f 216 421 62
f 216 62 477
f 477 62 217
f 477 217 32
f 32 217 444
f 32 444 445
f 445 444 733
f 734 449 448
f 448 449 735
f 196 432 40
f 40 432 201
f 40 201 738
f 738 201 737
f 435 197 41
f 435 41 202
f 202 41 740
f 202 740 739
f 742 453 203
f 203 453 8
f 203 8 452
f 452 8 361
f 452 361 44
f 44 361 363
f 44 363 168
f 168 363 3
f 168 3 350
f 350 3 163
f 350 163 42
f 42 163 351
f 42 351 164
f 251 783 538
f 251 538 89
f 89 538 259
f 89 259 560
f 560 259 94
f 560 94 260
f 260 94 561
f 260 561 95
f 95 561 268
f 95 268 582
f 582 268 123
f 582 123 269
f 269 123 583
f 269 583 100
f 100 583 275
f 100 275 600
f 600 275 139
f 600 139 276
f 276 139 601
f 276 601 134
f 134 601 316
f 134 316 662
f 662 316 30
f 662 30 311
f 311 30 472
f 311 472 23
f 23 472 214
f 23 214 464
f 464 214 58
f 464 58 209
f 209 58 400
f 209 400 57
f 57 400 182
f 57 182 387
f 387 182 47
f 387 47 177
f 177 47 385
f 177 385 56
f 56 385 176
f 56 176 386
f 386 176 55
f 386 55 206
f 206 55 456
f 206 456 744
f 729 438 206
f 206 438 12
f 206 12 458
f 286 35 447
f 447 35 448
f 447 448 36
f 36 448 218
f 36 218 480
f 480 218 65
f 480 65 219
f 219 65 430
f 219 430 60
f 60 430 195
f 60 195 415
f 415 195 53
f 415 53 189
f 189 53 414
f 189 414 49
f 49 414 213
f 49 213 462
f 462 213 22
f 462 22 208
f 208 22 461
f 208 461 16
f 746 457 208
f 208 457 47
f 208 47 398
f 398 47 182
f 398 182 49
f 49 182 399
f 49 399 189
f 189 399 58
f 189 58 416
f 416 58 214
f 416 214 60
f 60 214 473
f 60 473 219
f 219 473 30
f 219 30 481
f 481 30 316
f 481 316 36
f 36 316 667
f 36 667 315
f 315 667 139
f 315 139 599
f 599 139 275
f 599 275 138
f 138 275 598
f 138 598 274
f 274 598 123
f 274 123 581
f 581 123 268
f 581 268 99
f 99 268 579
f 99 579 267
f 267 579 94
f 267 94 580
f 580 94 259
f 580 259 784
f 414 53 213
f 213 53 471
f 213 471 29
f 29 471 220
f 29 220 482
f 749 220 431
f 431 220 53
f 431 53 195
f 487 70 226
f 226 70 426
f 226 426 64
f 64 426 193
f 64 193 427
f 427 193 52
f 427 52 194
f 194 52 412
f 194 412 28
f 28 412 188
f 28 188 413
f 413 188 69
f 413 69 224
f 224 69 483
f 224 483 752
f 752 483 221
f 752 221 753
f 753 221 755
f 752 757 224
f 224 757 756
f 224 756 758
f 413 224 761
f 221 483 69
f 221 69 397
f 397 69 181
f 397 181 67
f 67 181 382
f 67 382 175
f 175 382 66
f 175 66 381
f 381 66 174
f 381 174 10
f 10 174 369
f 10 369 170
f 170 369 72
f 170 72 368
f 368 72 230
f 368 230 71
f 71 230 489
f 71 489 227
f 227 489 4
f 227 4 488
f 762 230 495
f 495 230 9
f 495 9 236
f 236 9 503
f 236 503 77
f 77 503 237
f 77 237 378
f 378 237 15
f 378 15 173
f 173 15 377
f 173 377 46
f 46 377 179
f 46 179 437
f 437 179 68
f 437 68 239
f 239 68 486
f 239 486 19
f 19 486 222
f 19 222 466
f 766 439 232
f 232 439 764
f 67 175 383
f 67 383 234
f 234 383 75
f 234 75 499
f 499 75 232
f 499 232 744
f 765 232 498
f 498 232 75
f 498 75 231
f 231 75 372
f 231 372 73
f 73 372 171
f 73 171 373
f 373 171 5
f 373 5 357
f 357 5 166
f 357 166 504
f 504 166 358
f 504 358 167
f 771 768 234
f 234 768 767
f 754 221 484
f 484 221 67
f 484 67 501
f 501 67 234
f 501 234 769
f 499 770 234
f 19 238 507
f 507 238 45
f 507 45 239
f 239 45 375
f 239 375 46
f 46 375 172
f 46 172 376
f 376 172 43
f 376 43 173
f 173 43 366
f 173 366 77
f 77 366 169
f 77 169 367
f 367 169 76
f 367 76 236
f 236 76 502
f 236 502 772
f 772 502 235
f 772 235 773
f 495 236 774
f 343 160 240
f 240 160 508
f 240 508 79
f 241 510 112
f 112 510 289
f 112 289 628
f 628 289 828
f 628 828 291
f 798 620 282
f 282 620 87
f 282 87 619
f 619 87 294
f 619 294 86
f 86 294 630
f 86 630 291
f 291 630 115
f 291 115 522
f 522 115 246
f 522 246 112
f 112 246 511
f 112 511 776
f 342 245 159
f 159 245 520
f 159 520 244
f 332 521 155
f 155 521 245
f 155 245 779
f 512 777 113
f 113 777 778
f 113 778 781
f 117 250 535
f 535 250 116
f 535 116 318
f 318 116 670
f 318 670 140
f 140 670 322
f 140 322 556
f 556 322 146
f 556 146 257
f 257 146 552
f 257 552 119
f 119 552 256
f 119 256 551
f 551 256 131
f 551 131 263
f 263 131 569
f 263 569 133
f 133 569 307
f 133 307 657
f 657 307 864
f 657 864 312
f 312 864 868
f 312 868 867
f 515 242 157
f 157 242 514
f 157 514 247
f 247 514 80
f 247 80 525
f 525 80 292
f 525 292 830
f 830 292 631
f 830 631 295
f 295 631 114
f 295 114 536
f 536 114 250
f 536 250 782
f 899 900 338
f 899 338 689
f 689 338 157
f 689 157 339
f 339 157 527
f 339 527 158
f 158 527 247
f 158 247 526
f 526 247 83
f 526 83 251
f 251 83 537
f 251 537 104
f 786 609 259
f 259 609 93
f 538 785 259
f 788 574 265
f 265 574 97
f 265 97 573
f 573 97 309
f 573 309 98
f 98 309 590
f 98 590 271
f 271 590 121
f 271 121 588
f 588 121 264
f 588 264 135
f 135 264 589
f 135 589 312
f 312 589 133
f 312 133 657
f 573 98 265
f 265 98 572
f 265 572 92
f 92 572 266
f 92 266 577
f 577 266 789
f 138 274 597
f 138 597 329
f 329 597 150
f 329 150 678
f 678 150 328
f 678 328 102
f 102 328 604
f 102 604 277
f 277 604 110
f 277 110 603
f 606 111 278
f 278 111 607
f 278 607 102
f 102 607 329
f 102 329 678
f 344 921 106
f 106 921 920
f 106 920 613
f 613 920 105
f 613 105 280
f 280 105 612
f 280 612 790
f 790 612 279
f 790 279 791
f 167 360 74
f 74 360 229
f 74 229 493
f 493 229 7
f 493 7 228
f 228 7 490
f 228 490 6
f 6 490 107
f 6 107 497
f 497 107 618
f 497 618 108
f 802 801 283
f 283 801 621
f 283 621 800
f 811 624 285
f 285 624 808
f 442 18 200
f 200 18 441
f 200 441 39
f 39 441 199
f 39 199 389
f 389 199 13
f 389 13 178
f 178 13 392
f 178 392 14
f 14 392 285
f 14 285 807
f 807 285 809
f 392 13 285
f 285 13 806
f 285 806 810
f 271 588 135
f 271 135 592
f 592 135 313
f 592 313 136
f 136 313 664
f 136 664 314
f 314 664 812
f 314 812 625
f 625 812 813
f 625 813 815
f 626 821 287
f 287 821 822
f 603 823 287
f 287 823 824
f 451 825 288
f 288 825 820
f 827 826 288
f 288 826 606
f 793 792 280
f 280 792 614
f 280 614 106
f 106 614 281
f 106 281 616
f 616 281 86
f 616 86 344
f 344 86 291
f 344 291 829
f 644 109 300
f 644 300 128
f 128 300 645
f 128 645 319
f 319 645 131
f 319 131 550
f 550 131 256
f 550 256 145
f 145 256 553
f 145 553 320
f 320 553 146
f 320 146 672
f 672 146 322
f 672 322 129
f 129 322 632
f 129 632 293
f 293 632 116
f 293 116 634
f 634 116 294
f 634 294 832
f 636 88 295
f 295 88 635
f 295 635 833
f 839 621 298
f 298 621 836
f 837 638 298
f 298 638 126
f 298 126 547
f 547 126 254
f 547 254 127
f 127 254 546
f 127 546 255
f 255 546 118
f 255 118 549
f 549 118 262
f 549 262 130
f 130 262 568
f 130 568 306
f 306 568 132
f 306 132 656
f 656 132 311
f 656 311 23
f 838 298 642
f 642 298 127
f 642 127 299
f 299 127 548
f 299 548 130
f 130 548 255
f 130 255 549
f 209 57 460
f 460 57 207
f 460 207 17
f 17 207 459
f 17 459 299
f 299 459 840
f 642 299 841
f 550 145 319
f 319 145 671
f 319 671 128
f 128 671 320
f 128 320 647
f 647 320 129
f 647 129 301
f 301 129 633
f 301 633 844
f 845 843 301
f 301 843 842
f 301 842 644
f 590 309 121
f 121 309 659
f 121 659 308
f 308 659 97
f 308 97 658
f 658 97 326
f 658 326 91
f 91 326 648
f 91 648 302
f 302 648 846
f 847 650 302
f 302 650 673
f 302 673 321
f 321 673 142
f 321 142 554
f 554 142 257
f 554 257 119
f 321 848 302
f 308 658 91
f 308 91 649
f 649 91 302
f 649 302 119
f 853 577 303
f 303 577 93
f 142 673 651
f 651 673 849
f 651 849 850
f 134 662 311
f 134 311 587
f 587 311 132
f 587 132 270
f 270 132 567
f 270 567 120
f 120 567 262
f 120 262 566
f 566 262 118
f 566 118 305
f 305 118 641
f 305 641 863
f 90 654 305
f 305 654 96
f 305 96 655
f 655 96 310
f 655 310 120
f 120 310 585
f 120 585 270
f 270 585 124
f 270 124 586
f 586 124 276
f 586 276 134
f 866 660 310
f 310 660 101
f 310 101 661
f 661 101 317
f 661 317 124
f 124 317 602
f 124 602 276
f 276 602 100
f 276 100 600
f 871 317 101
f 651 873 674
f 674 873 324
f 674 324 143
f 143 324 610
f 143 610 258
f 258 610 144
f 258 144 558
f 558 144 323
f 558 323 141
f 141 323 669
f 141 669 318
f 318 669 872
f 535 318 856
f 876 652 323
f 323 652 874
f 669 323 856
f 610 324 144
f 144 324 675
f 144 675 323
f 323 675 875
f 873 609 324
f 324 609 877
f 675 324 878
f 269 100 584
f 269 584 149
f 149 584 327
f 149 327 676
f 676 327 882
f 676 882 325
f 325 882 880
f 325 880 879
f 97 574 326
f 326 574 883
f 648 326 853
f 887 886 327
f 327 886 885
f 327 885 884
f 889 327 888
f 888 327 584
f 149 676 325
f 149 325 564
f 564 325 148
f 564 148 261
f 261 148 565
f 261 565 147
f 147 565 253
f 147 253 542
f 542 253 85
f 542 85 252
f 252 85 529
f 252 529 152
f 152 529 248
f 152 248 528
f 528 248 151
f 528 151 333
f 333 151 680
f 333 680 81
f 81 680 330
f 81 330 679
f 682 154 331
f 331 154 681
f 331 681 107
f 107 681 334
f 107 334 618
f 618 334 891
f 252 152 540
f 540 152 335
f 540 335 892
f 892 335 687
f 897 637 336
f 336 637 895
f 905 537 340
f 340 537 903
f 340 903 904
f 906 905 340
f 908 907 340
f 340 907 909
f 339 158 690
f 690 158 341
f 690 341 912
f 912 341 913
f 494 332 7
f 7 332 683
f 7 683 331
f 331 683 155
f 331 155 682
f 682 155 915
f 518 243 82
f 518 82 244
f 244 82 519
f 244 519 159
f 159 519 914
f 159 914 916
f 919 343 105
f 105 343 611
f 105 611 279
f 692 693 691
f 691 693 694
f 691 694 695
f 698 699 691
f 691 699 700
f 691 700 701
f 925 702 924
f 924 702 703
f 924 703 704
f 707 708 924
f 924 708 709
f 924 709 926
f 719 936 935
f 719 935 718
f 718 935 934
f 718 934 717
f 717 934 933
f 717 933 716
f 716 933 932
f 716 932 715
f 715 932 931
f 715 931 714
f 714 931 930
f 714 930 713
f 713 930 929
f 713 929 712
f 712 929 928
f 712 928 711
f 711 928 927
f 711 927 710
f 947 948 946
f 947 946 727
f 727 946 945
f 727 945 726
f 726 945 944
f 726 944 725
f 725 944 943
f 725 943 724
f 724 943 942
f 724 942 723
f 723 942 941
f 723 941 722
f 722 941 940
f 722 940 721
f 721 940 939
f 721 939 720
f 720 939 937
f 720 937 938
f 363 361 3
f 3 361 348
f 3 348 162
f 162 348 78
f 162 78 347
f 347 78 161
f 162 349 3
f 3 349 163
f 353 235 76
f 353 76 164
f 164 76 352
f 164 352 42
f 42 352 169
f 42 169 365
f 365 169 43
f 365 43 168
f 168 43 364
f 168 364 44
f 44 364 172
f 44 172 374
f 374 172 45
f 374 45 203
f 203 45 454
f 203 454 14
f 14 454 238
f 14 238 391
f 227 354 71
f 71 354 165
f 71 165 355
f 355 165 5
f 355 5 170
f 170 5 370
f 170 370 10
f 10 370 171
f 10 171 371
f 371 171 75
f 371 75 175
f 175 75 383
f 165 356 5
f 5 356 166
f 748 226 479
f 748 479 218
f 218 479 64
f 218 64 428
f 428 64 194
f 428 194 65
f 65 194 429
f 65 429 195
f 195 429 28
f 195 28 431
f 197 434 34
f 34 434 196
f 34 196 433
f 433 196 40
f 34 436 197
f 197 436 41
f 441 18 199
f 199 18 440
f 199 440 13
f 48 184 402
f 48 402 183
f 183 402 59
f 183 59 401
f 401 59 210
f 401 210 39
f 39 210 443
f 39 443 200
f 200 443 24
f 200 24 442
f 457 16 205
f 205 16 37
f 205 37 204
f 204 37 455
f 204 455 743
f 457 205 47
f 47 205 54
f 47 54 176
f 176 54 384
f 176 384 55
f 55 384 204
f 55 204 456
f 456 204 743
f 57 387 177
f 57 177 388
f 388 177 56
f 388 56 207
f 207 56 458
f 207 458 745
f 459 207 745
f 29 470 213
f 213 470 22
f 31 474 215
f 215 474 24
f 215 24 465
f 465 24 210
f 465 210 59
f 32 476 216
f 216 476 31
f 216 31 475
f 475 31 215
f 475 215 61
f 61 215 418
f 61 418 184
f 184 418 59
f 184 59 402
f 424 225 63
f 63 225 478
f 63 478 217
f 217 478 747
f 217 747 444
f 448 748 218
f 34 433 225
f 225 433 747
f 225 747 478
f 494 7 229
f 489 230 4
f 167 74 359
f 359 74 492
f 359 492 73
f 73 492 228
f 73 228 491
f 491 228 6
f 491 6 231
f 231 6 497
f 231 497 763
f 498 231 763
f 484 501 754
f 348 361 78
f 78 361 362
f 78 362 506
f 506 362 8
f 242 513 80
f 80 513 290
f 80 290 629
f 629 290 113
f 629 113 292
f 292 113 524
f 292 524 114
f 114 524 780
f 114 780 523
f 881 898 337
f 337 898 896
f 337 896 688
f 688 896 336
f 688 336 153
f 153 336 543
f 153 543 253
f 253 543 156
f 253 156 531
f 531 156 249
f 531 249 85
f 85 249 530
f 85 530 248
f 248 530 82
f 248 82 517
f 517 82 243
f 517 243 151
f 151 243 516
f 151 516 330
f 294 116 534
f 534 116 250
f 534 250 115
f 115 250 523
f 115 523 246
f 524 113 780
f 525 83 247
f 269 149 563
f 269 563 95
f 95 563 261
f 95 261 562
f 562 261 147
f 562 147 260
f 260 147 541
f 260 541 89
f 89 541 252
f 89 252 540
f 589 264 133
f 133 264 570
f 133 570 263
f 263 570 787
f 263 787 551
f 592 136 271
f 271 136 591
f 271 591 98
f 98 591 272
f 98 272 575
f 575 272 122
f 575 122 266
f 266 122 576
f 266 576 93
f 93 576 267
f 93 267 580
f 277 605 102
f 102 605 278
f 793 280 790
f 792 795 281
f 281 795 794
f 281 794 617
f 617 794 282
f 617 282 86
f 86 282 619
f 794 799 282
f 282 799 798
f 805 804 284
f 284 804 803
f 284 803 623
f 623 803 300
f 623 300 109
f 623 109 284
f 284 109 622
f 284 622 805
f 512 113 290
f 634 831 293
f 293 831 633
f 293 633 129
f 536 834 295
f 295 834 636
f 835 637 296
f 296 637 103
f 296 103 639
f 639 103 297
f 639 297 125
f 125 297 545
f 125 545 254
f 254 545 118
f 254 118 546
f 125 254 544
f 544 254 126
f 544 126 296
f 296 126 638
f 296 638 835
f 103 640 297
f 297 640 90
f 297 90 641
f 650 849 673
f 131 645 300
f 131 300 646
f 646 300 803
f 646 803 307
f 307 803 865
f 307 865 864
f 264 121 571
f 264 571 787
f 787 571 308
f 787 308 649
f 135 312 663
f 663 312 867
f 663 867 313
f 313 867 869
f 313 869 812
f 581 99 274
f 274 99 596
f 274 596 150
f 150 596 273
f 150 273 595
f 595 273 137
f 595 137 328
f 328 137 665
f 328 665 823
f 823 665 314
f 823 314 625
f 138 329 666
f 666 329 826
f 666 826 315
f 315 826 286
f 315 286 36
f 36 286 447
f 602 317 100
f 554 119 321
f 153 253 608
f 608 253 148
f 608 148 337
f 337 148 677
f 337 677 881
f 881 677 325
f 604 328 823
f 607 826 329
f 81 684 333
f 333 684 84
f 333 84 685
f 685 84 335
f 685 335 152
f 336 890 686
f 686 890 334
f 686 334 156
f 156 334 532
f 156 532 249
f 249 532 154
f 249 154 533
f 533 154 519
f 533 519 82
f 515 157 338
f 902 901 339
f 339 901 899
f 339 899 689
f 690 902 339
f 526 251 158
f 158 251 539
f 158 539 341
f 341 539 89
f 695 696 691
f 691 696 697
f 691 697 698
f 704 705 924
f 924 705 706
f 924 706 707
f 346 161 78
f 373 357 73
f 73 357 504
f 73 504 359
f 359 504 167
f 8 362 361
f 350 42 168
f 168 42 365
f 366 43 169
f 352 76 169
f 368 71 170
f 170 71 355
f 370 5 171
f 372 75 171
f 375 45 172
f 364 43 172
f 376 173 46
f 378 173 77
f 69 188 396
f 396 188 21
f 396 21 181
f 181 21 395
f 181 395 66
f 66 395 180
f 66 180 380
f 380 180 15
f 380 15 174
f 174 15 379
f 174 379 72
f 72 379 233
f 72 233 496
f 496 233 9
f 496 9 230
f 369 174 72
f 380 174 66
f 381 10 175
f 175 10 371
f 385 47 176
f 39 389 178
f 39 178 390
f 390 178 48
f 390 48 183
f 377 15 179
f 179 15 393
f 179 393 20
f 20 393 180
f 20 180 394
f 394 180 21
f 394 21 187
f 187 21 411
f 187 411 52
f 52 411 188
f 52 188 412
f 68 179 409
f 409 179 20
f 409 20 186
f 186 20 408
f 186 408 27
f 27 408 187
f 27 187 410
f 410 187 52
f 410 52 193
f 393 15 180
f 395 21 180
f 382 181 66
f 396 181 69
f 400 58 182
f 182 58 399
f 401 39 183
f 183 39 390
f 417 61 184
f 426 70 193
f 193 70 425
f 193 425 27
f 27 425 192
f 27 192 407
f 407 192 51
f 407 51 186
f 186 51 406
f 186 406 68
f 68 406 185
f 68 185 404
f 406 51 185
f 409 186 68
f 407 186 27
f 408 20 187
f 187 20 394
f 411 21 188
f 416 60 189
f 189 60 415
f 63 217 423
f 423 217 62
f 423 62 191
f 191 62 420
f 191 420 26
f 26 420 190
f 26 190 419
f 419 190 50
f 419 50 212
f 212 50 467
f 212 467 25
f 25 467 211
f 420 62 190
f 190 62 421
f 405 191 26
f 423 191 63
f 422 51 192
f 425 70 192
f 410 193 27
f 427 194 64
f 429 194 28
f 430 65 195
f 452 44 203
f 203 44 374
f 384 54 204
f 204 54 205
f 458 56 206
f 206 56 386
f 388 207 57
f 398 49 208
f 208 49 462
f 299 130 643
f 643 130 306
f 643 306 17
f 17 306 463
f 17 463 209
f 209 463 23
f 209 23 464
f 460 17 209
f 443 210 24
f 467 50 211
f 211 50 403
f 485 223 25
f 25 223 469
f 25 469 212
f 212 469 26
f 212 26 419
f 472 30 214
f 214 30 473
f 465 59 215
f 215 59 418
f 477 32 216
f 475 61 216
f 428 65 218
f 481 36 219
f 219 36 480
f 471 53 220
f 397 67 221
f 486 68 222
f 469 223 26
f 479 226 64
f 492 74 228
f 228 74 493
f 496 230 72
f 491 231 73
f 379 15 233
f 233 15 500
f 233 500 9
f 9 500 237
f 9 237 503
f 502 76 235
f 367 236 77
f 500 15 237
f 454 45 238
f 437 239 46
f 507 239 19
f 514 242 80
f 527 157 247
f 517 151 248
f 529 85 248
f 533 82 249
f 249 82 530
f 523 250 114
f 539 251 89
f 541 147 252
f 252 147 542
f 531 85 253
f 565 148 253
f 548 127 255
f 552 146 256
f 256 146 553
f 140 556 257
f 140 257 555
f 555 257 142
f 555 142 258
f 258 142 557
f 258 557 143
f 143 557 651
f 143 651 674
f 318 140 559
f 318 559 141
f 141 559 258
f 141 258 558
f 559 140 258
f 258 140 555
f 560 260 89
f 562 260 95
f 563 149 261
f 261 149 564
f 567 132 262
f 262 132 568
f 570 264 787
f 572 98 266
f 266 98 575
f 596 99 273
f 273 99 578
f 273 578 122
f 122 578 267
f 122 267 576
f 578 99 267
f 561 94 268
f 268 94 579
f 582 269 95
f 586 134 270
f 270 134 587
f 665 137 314
f 314 137 594
f 314 594 136
f 136 594 272
f 136 272 591
f 273 122 593
f 593 122 272
f 593 272 137
f 137 272 594
f 593 137 273
f 597 274 150
f 583 123 275
f 275 123 598
f 612 105 279
f 613 280 106
f 331 107 615
f 615 107 490
f 615 490 7
f 614 792 281
f 617 86 281
f 522 112 291
f 291 112 628
f 629 292 80
f 631 292 114
f 534 115 294
f 294 115 630
f 639 125 296
f 296 125 544
f 641 118 297
f 297 118 545
f 547 127 298
f 643 17 299
f 644 128 301
f 301 128 647
f 655 120 305
f 305 120 566
f 656 23 306
f 306 23 463
f 569 131 307
f 307 131 646
f 571 121 308
f 659 309 97
f 661 124 310
f 310 124 585
f 664 313 812
f 663 313 135
f 599 138 315
f 315 138 666
f 601 139 316
f 316 139 667
f 672 129 320
f 671 145 320
f 670 116 322
f 322 116 632
f 557 142 651
f 677 148 325
f 595 328 150
f 680 151 330
f 615 7 331
f 683 332 155
f 685 152 333
f 333 152 528
f 681 154 334
f 334 154 532
f 686 156 336
f 336 156 543
f 688 153 337
f 337 153 608
f 616 344 106
