# Liquid
v 0.0 0.0 0.0010294037638232112
v 5.977705136439582e-11 -3.70454040421464e-06 -7.450580430390374e-11
v 0.0005147018819116056 -4.499667305424282e-11 0.0008914897916838527
v 0.0004457448667380959 -0.00025735097005963326 0.0008914897916838527
v 0.0002573508827481419 -0.00044574495404958725 0.0008914897916838527
v -6.749500264247033e-11 -0.0005147018819116056 0.0008914897916838527
v -0.0002573509991634637 -0.0004457448667380959 0.0008914897916838527
v -0.00044574495404958725 -0.0002573508827481419 0.0008914897916838527
v -0.0005147018819116056 8.999334610848564e-11 0.0008914897916838527
v 0.0008914897916838527 -7.793651835008575e-11 0.0005147018819116056
v 0.000772052735555917 -0.0004457449831534177 0.0005147018819116056
v 0.0004457448376342654 -0.0007720529101788998 0.0005147018819116056
v -1.1690477752512862e-10 -0.0008914897916838527 0.0005147018819116056
v -0.00044574501225724816 -0.000772052735555917 0.0005147018819116056
v -0.0007720529101788998 -0.00044574480853043497 0.0005147018819116056
v -0.0008914897916838527 1.558730367001715e-10 0.0005147018819116056
v 0.0010294037638232112 -8.999334610848564e-11 -4.499667305424282e-11
v 0.0008914897334761918 -0.0005147019401192665 -4.499667305424282e-11
v 0.0005147017654962838 -0.0008914899080991745 -4.499667305424282e-11
v -1.3499000528494065e-10 -0.0010294037638232112 -4.499667305424282e-11
v -0.0005147019983269274 -0.0008914897334761918 -4.499667305424282e-11
v -0.0008914899080991745 -0.0005147017654962838 -4.499667305424282e-11
v -0.0010294037638232112 1.7998669221697128e-10 -4.499667305424282e-11
v 0.0008914897916838527 -7.793651835008575e-11 -0.0005147019401192665
v 0.000772052735555917 -0.0004457449831534177 -0.0005147019401192665
v 0.0004457448376342654 -0.0007720529101788998 -0.0005147019401192665
v -1.1690477752512862e-10 -0.0008914897916838527 -0.0005147019401192665
v -0.00044574501225724816 -0.000772052735555917 -0.0005147019401192665
v -0.0007720529101788998 -0.00044574480853043497 -0.0005147019401192665
v -0.0008914897916838527 1.558730367001715e-10 -0.0005147019401192665
v 0.0005147018237039447 -4.4996662645901964e-11 -0.0008914899080991745
v 0.0004457448376342654 -0.0002573509409558028 -0.0008914899080991745
v 0.00025735085364431143 -0.0004457448667380959 -0.0008914899080991745
v -6.749499570357642e-11 -0.0005147018237039447 -0.0008914899080991745
v -0.00025735097005963326 -0.00044574480853043497 -0.0008914899080991745
v -0.00044574489584192634 -0.00025735082454048097 -0.0008914899080991745
v -0.0005147018237039447 8.999332529180393e-11 -0.0008914899080991745
v 0.0 0.0 -0.0010294037638232112
v 0.0 0.0 0.0010294037638232112
v 0.0005147018819116056 -4.499667305424282e-11 0.0008914897916838527
v -0.0005147018819116056 8.999334610848564e-11 0.0008914897916838527
v 0.0008914897916838527 -7.793651835008575e-11 0.0005147018819116056
v -0.0008914897916838527 1.558730367001715e-10 0.0005147018819116056
v 0.0010294037638232112 -8.999334610848564e-11 -4.499667305424282e-11
v 0.0008914897334761918 -0.0005147019401192665 -4.499667305424282e-11
v -0.0008914899080991745 -0.0005147017654962838 -4.499667305424282e-11
v -0.0010294037638232112 1.7998669221697128e-10 -4.499667305424282e-11
v 0.0010294037638232112 -8.999334610848564e-11 -4.499667305424282e-11
v 0.0008914897916838527 -7.793651835008575e-11 -0.0005147019401192665
v 0.0008914897334761918 -0.0005147019401192665 -4.499667305424282e-11
v -0.0008914899080991745 -0.0005147017654962838 -4.499667305424282e-11
v -0.0010294037638232112 1.7998669221697128e-10 -4.499667305424282e-11
v -0.0008914897916838527 1.558730367001715e-10 -0.0005147019401192665
v 0.0005147018237039447 -4.4996662645901964e-11 -0.0008914899080991745
v -0.0005147018237039447 8.999332529180393e-11 -0.0008914899080991745
v 0.0 0.0 -0.0010294037638232112
g submesh_0
f 22 29 21
f 22 21 14
f 14 21 13
f 14 13 6
f 6 13 5
f 6 5 39
f 39 5 4
f 39 4 40
f 40 4 11
f 40 11 42
f 42 11 18
f 42 18 44
f 39 9 8
f 8 9 16
f 8 16 15
f 15 16 23
f 15 23 46
f 56 54 32
f 32 54 49
f 32 49 25
f 25 49 48
f 25 48 50
f 45 11 19
f 45 19 26
f 26 19 27
f 26 27 34
f 34 27 35
f 34 35 56
f 56 35 36
f 56 36 37
f 37 36 29
f 37 29 30
f 30 29 51
f 30 51 52
f 1 3 2
f 2 3 10
f 2 10 17
f 47 43 2
f 2 43 41
f 2 41 1
f 6 39 7
f 6 7 14
f 14 7 15
f 14 15 22
f 17 24 2
f 2 24 31
f 2 31 38
f 56 32 33
f 33 32 25
f 33 25 26
f 26 25 45
f 38 55 2
f 2 55 53
f 2 53 47
f 15 7 8
f 8 7 39
f 36 35 28
f 28 35 27
f 28 27 20
f 20 27 19
f 20 19 12
f 12 19 11
f 12 11 4
f 4 5 12
f 12 5 13
f 12 13 20
f 20 13 21
f 20 21 28
f 28 21 29
f 28 29 36
f 56 33 34
f 34 33 26
