# ballista_arm_00
v 0.0048253838904201984 0.006555366795510054 0.0055505335330963135
v -0.0048253801651299 0.006555366795510054 0.0055505335330963135
v 0.0048253838904201984 0.007577010430395603 -0.0040460024029016495
v -0.0048253801651299 0.007577010430395603 -0.0040460024029016495
v 0.0018670369172468781 0.07806283235549927 0.010188133455812931
v -0.0018670338904485106 0.07806283235549927 0.010188133455812931
v 0.0018670369172468781 0.07845813035964966 0.006475044414401054
v -0.0018670338904485106 0.07845813035964966 0.006475044414401054
v 0.0048253838904201984 -0.00845381524413824 0.003952660597860813
v -0.0048253801651299 -0.00845381524413824 0.003952660597860813
v 0.0048253838904201984 -0.007432170212268829 -0.00564387533813715
v -0.0048253801651299 -0.007432170212268829 -0.00564387533813715
v -3.650513225039731e-09 0.07785512506961823 0.01251690462231636
v -0.004283466842025518 0.07780168205499649 0.013018929399549961
v -0.0037095912266522646 0.07567198574542999 0.01279220450669527
v -0.002141734817996621 0.07411294430494308 0.012626228854060173
v -3.4632769985165623e-09 0.0735422894358635 0.01256547775119543
v 0.0021417278330773115 0.07411294430494308 0.012626228854060173
v 0.003709583543241024 0.07567198574542999 0.01279220450669527
v 0.004283458925783634 0.07780168205499649 0.013018929399549961
v 0.0037095837760716677 0.07993137836456299 0.013245656155049801
v 0.00214172899723053 0.0814904198050499 0.013411632739007473
v -1.659078874283182e-09 0.08206106722354889 0.01347238291054964
v -0.002141732955351472 0.0814904198050499 0.013411632739007473
v -0.0037095898296684027 0.07993137836456299 0.013245656155049801
v -0.008566929958760738 0.07765363901853561 0.01440950483083725
v -0.007419178262352943 0.07339424639940262 0.01395605318248272
v -0.004283466376364231 0.0702761560678482 0.013624101877212524
v -3.2760409940379986e-09 0.06913485378026962 0.01350259967148304
v 0.004283458925783634 0.0702761560678482 0.013624101877212524
v 0.007419171277433634 0.07339424639940262 0.01395605318248272
v 0.008566922508180141 0.07765363901853561 0.01440950483083725
v 0.007419171743094921 0.08191303163766861 0.014862959273159504
v 0.004283461254090071 0.08503112941980362 0.015194909647107124
v 3.323553654510647e-10 0.0861724242568016 0.015316413715481758
v -0.004283462185412645 0.08503112941980362 0.015194909647107124
v -0.00741917546838522 0.0819130390882492 0.014862960204482079
v -0.009643456898629665 0.07765363901853561 0.01440950483083725
v -0.008351479656994343 0.0728590115904808 0.013899071142077446
v -0.004821730311959982 0.06934909522533417 0.013525407761335373
v -3.0227982339425807e-09 0.0680643767118454 0.013388637453317642
v 0.00482172379270196 0.06934909522533417 0.013525407761335373
v 0.008351472206413746 0.0728590115904808 0.013899071142077446
v 0.009643450379371643 0.07765363901853561 0.01440950483083725
v 0.008351474069058895 0.08244827389717102 0.014919939450919628
v 0.0048217265866696835 0.08595819026231766 0.015293603762984276
v 1.0390334148624447e-09 0.08724290877580643 0.015430374071002007
v -0.004821725655347109 0.08595819026231766 0.015293603762984276
v -0.008351475931704044 0.08244827389717102 0.014919939450919628
v -0.009643456898629665 0.07817472517490387 0.009514844045042992
v -0.008351479656994343 0.07338009029626846 0.009004409424960613
v -0.004821730311959982 0.06987018138170242 0.00863074604421854
v -3.0227982339425807e-09 0.06858545541763306 0.00849397573620081
v 0.00482172379270196 0.06987018138170242 0.00863074604421854
v 0.008351472206413746 0.07338009029626846 0.009004409424960613
v 0.009643450379371643 0.07817472517490387 0.009514844045042992
v 0.008351474069058895 0.08296936005353928 0.010025277733802795
v 0.0048217265866696835 0.08647928386926651 0.010398942977190018
v 1.0390334148624447e-09 0.08776399493217468 0.010535713285207748
v -0.004821725655347109 0.08647928386926651 0.010398942977190018
v -0.008351475931704044 0.08296936750411987 0.010025277733802795
v -0.00856692809611559 0.07822567969560623 0.009036283008754253
v -0.007419177331030369 0.07396628707647324 0.008582830429077148
v -0.004283465910702944 0.07084818929433823 0.008250879123806953
v -3.2760409940379986e-09 0.06970689445734024 0.008129376918077469
v 0.004283458925783634 0.07084818929433823 0.008250879123806953
v 0.007419169880449772 0.07396628707647324 0.008582830429077148
v 0.008566920645534992 0.07822567969560623 0.009036283008754253
v 0.007419171743094921 0.08248506486415863 0.009489735588431358
v 0.004283461254090071 0.08560316264629364 0.009821685031056404
v 3.323553654510647e-10 0.08674445748329163 0.009943188168108463
v -0.004283462185412645 0.08560316264629364 0.009821686893701553
v -0.007419174537062645 0.08248507231473923 0.009489736519753933
v -0.004283465910702944 0.07832276821136475 0.008124268613755703
v -0.0037095907609909773 0.07619307190179825 0.007897542789578438
v -0.002141734817996621 0.07463402301073074 0.007731567602604628
v -3.4632769985165623e-09 0.07406337559223175 0.007670816499739885
v 0.0021417278330773115 0.07463402301073074 0.007731567602604628
v 0.003709582844749093 0.07619307190179825 0.007897542789578438
v 0.00428345799446106 0.07832276821136475 0.008124268613755703
v 0.0037095837760716677 0.08045245707035065 0.008350995369255543
v 0.002141728764399886 0.08201150596141815 0.008516971953213215
v -1.659078874283182e-09 0.08258216083049774 0.008577723056077957
v -0.0021417327225208282 0.08201150596141815 0.008516971953213215
v -0.0037095893640071154 0.08045245707035065 0.008350995369255543
v -3.650513225039731e-09 0.07837621867656708 0.007622243370860815
v -0.0018670338904485106 0.07806283235549927 0.010188133455812931
v 0.0018670369172468781 0.07806283235549927 0.010188133455812931
v -0.0048253801651299 0.006555366795510054 0.0055505335330963135
v -0.0018670338904485106 0.07845813035964966 0.006475044414401054
v -0.0018670338904485106 0.07806283235549927 0.010188133455812931
v -0.0048253801651299 0.007577010430395603 -0.0040460024029016495
v 0.0018670369172468781 0.07845813035964966 0.006475044414401054
v -0.0018670338904485106 0.07845813035964966 0.006475044414401054
v 0.0048253838904201984 0.007577010430395603 -0.0040460024029016495
v 0.0018670369172468781 0.07806283235549927 0.010188133455812931
v 0.0048253838904201984 0.006555366795510054 0.0055505335330963135
v 0.0018670369172468781 0.07845813035964966 0.006475044414401054
v 0.0048253838904201984 0.006555366795510054 0.0055505335330963135
v 0.0048253838904201984 -0.007432170212268829 -0.00564387533813715
v 0.0048253838904201984 0.007577010430395603 -0.0040460024029016495
v 0.0048253838904201984 -0.00845381524413824 0.003952660597860813
v 0.0048253838904201984 0.007577010430395603 -0.0040460024029016495
v -0.0048253801651299 -0.007432170212268829 -0.00564387533813715
v -0.0048253801651299 0.007577010430395603 -0.0040460024029016495
v 0.0048253838904201984 -0.007432170212268829 -0.00564387533813715
v -0.0048253801651299 0.007577010430395603 -0.0040460024029016495
v -0.0048253801651299 -0.00845381524413824 0.003952660597860813
v -0.0048253801651299 0.006555366795510054 0.0055505335330963135
v -0.0048253801651299 -0.007432170212268829 -0.00564387533813715
v -0.0048253801651299 0.006555366795510054 0.0055505335330963135
v 0.0048253838904201984 -0.00845381524413824 0.003952660597860813
v 0.0048253838904201984 0.006555366795510054 0.0055505335330963135
v -0.0048253801651299 -0.00845381524413824 0.003952660597860813
v -0.008566929958760738 0.07765363901853561 0.01440950483083725
v -0.007419178262352943 0.07339424639940262 0.01395605318248272
v -0.004283466376364231 0.0702761560678482 0.013624101877212524
v -0.004283466376364231 0.0702761560678482 0.013624101877212524
v -3.2760409940379986e-09 0.06913485378026962 0.01350259967148304
v 0.004283458925783634 0.0702761560678482 0.013624101877212524
v 0.007419171277433634 0.07339424639940262 0.01395605318248272
v 0.008566922508180141 0.07765363901853561 0.01440950483083725
v 0.008566922508180141 0.07765363901853561 0.01440950483083725
v 0.009643450379371643 0.07765363901853561 0.01440950483083725
v 0.007419171743094921 0.08191303163766861 0.014862959273159504
v 0.004283461254090071 0.08503112941980362 0.015194909647107124
v 3.323553654510647e-10 0.0861724242568016 0.015316413715481758
v 3.323553654510647e-10 0.0861724242568016 0.015316413715481758
v -0.004283462185412645 0.08503112941980362 0.015194909647107124
v -0.00741917546838522 0.0819130390882492 0.014862960204482079
v -0.009643456898629665 0.07765363901853561 0.01440950483083725
v -0.008566929958760738 0.07765363901853561 0.01440950483083725
v -0.009643456898629665 0.07765363901853561 0.01440950483083725
v -0.008351479656994343 0.0728590115904808 0.013899071142077446
v -0.004821730311959982 0.06934909522533417 0.013525407761335373
v -3.0227982339425807e-09 0.0680643767118454 0.013388637453317642
v 0.00482172379270196 0.06934909522533417 0.013525407761335373
v 0.00482172379270196 0.06934909522533417 0.013525407761335373
v 0.00482172379270196 0.06987018138170242 0.00863074604421854
v 0.008351472206413746 0.0728590115904808 0.013899071142077446
v 0.009643450379371643 0.07765363901853561 0.01440950483083725
v 0.008351474069058895 0.08244827389717102 0.014919939450919628
v 0.0048217265866696835 0.08595819026231766 0.015293603762984276
v 1.0390334148624447e-09 0.08724290877580643 0.015430374071002007
v -0.004821725655347109 0.08595819026231766 0.015293603762984276
v -0.004821725655347109 0.08595819026231766 0.015293603762984276
v -0.004821725655347109 0.08647928386926651 0.010398942977190018
v -0.008351475931704044 0.08244827389717102 0.014919939450919628
v -0.009643456898629665 0.07817472517490387 0.009514844045042992
v -0.008351479656994343 0.07338009029626846 0.009004409424960613
v -0.004821730311959982 0.06987018138170242 0.00863074604421854
v -3.0227982339425807e-09 0.06858545541763306 0.00849397573620081
v -3.0227982339425807e-09 0.06858545541763306 0.00849397573620081
v 0.00482172379270196 0.06987018138170242 0.00863074604421854
v 0.008351472206413746 0.07338009029626846 0.009004409424960613
v 0.009643450379371643 0.07817472517490387 0.009514844045042992
v 0.008351474069058895 0.08296936005353928 0.010025277733802795
v 0.0048217265866696835 0.08647928386926651 0.010398942977190018
v 1.0390334148624447e-09 0.08776399493217468 0.010535713285207748
v 1.0390334148624447e-09 0.08776399493217468 0.010535713285207748
v -0.004821725655347109 0.08647928386926651 0.010398942977190018
v -0.008351475931704044 0.08296936750411987 0.010025277733802795
g submesh_0
f 11 9 12
f 12 9 10
f 6 5 8
f 8 5 7
f 2 1 87
f 87 1 88
f 4 89 90
f 90 89 91
f 3 92 93
f 93 92 94
f 97 95 96
f 96 95 98
f 101 99 100
f 100 99 102
f 105 103 104
f 104 103 106
f 109 107 108
f 108 107 110
f 113 111 112
f 112 111 114
f 41 117 40
f 40 117 116
f 40 116 39
f 39 116 115
f 39 115 38
f 118 41 119
f 119 41 42
f 119 42 120
f 120 42 43
f 120 43 121
f 121 43 44
f 121 44 122
f 48 127 47
f 47 127 126
f 47 126 46
f 46 126 125
f 46 125 45
f 45 125 123
f 45 123 124
f 128 48 129
f 129 48 49
f 129 49 130
f 130 49 131
f 130 131 132
f 146 147 61
f 146 61 148
f 148 61 50
f 148 50 133
f 133 50 51
f 133 51 134
f 134 51 52
f 134 52 135
f 135 52 53
f 135 53 136
f 136 53 54
f 136 54 137
f 60 145 144
f 60 144 59
f 59 144 143
f 59 143 58
f 58 143 142
f 58 142 57
f 57 142 141
f 57 141 56
f 56 141 140
f 56 140 55
f 55 140 138
f 55 138 139
f 160 71 72
f 160 72 161
f 161 72 73
f 161 73 162
f 162 73 62
f 162 62 149
f 149 62 63
f 149 63 150
f 150 63 64
f 150 64 151
f 151 64 65
f 151 65 152
f 153 65 66
f 153 66 154
f 154 66 67
f 154 67 155
f 155 67 68
f 155 68 156
f 156 68 69
f 156 69 157
f 157 69 70
f 157 70 158
f 158 70 71
f 158 71 159
f 14 27 15
f 15 27 28
f 15 28 16
f 16 28 29
f 16 29 17
f 17 29 30
f 17 30 18
f 18 30 31
f 18 31 19
f 19 31 32
f 19 32 20
f 20 32 33
f 20 33 21
f 21 33 34
f 21 34 22
f 22 34 35
f 22 35 23
f 23 35 36
f 23 36 24
f 24 36 37
f 24 37 25
f 25 37 26
f 25 26 14
f 14 26 27
f 24 25 13
f 13 25 14
f 13 14 15
f 15 16 13
f 13 16 17
f 13 17 18
f 18 19 13
f 13 19 20
f 13 20 21
f 21 22 13
f 13 22 23
f 13 23 24
f 62 75 63
f 63 75 76
f 63 76 64
f 64 76 77
f 64 77 65
f 65 77 78
f 65 78 66
f 66 78 79
f 66 79 67
f 67 79 80
f 67 80 68
f 68 80 81
f 68 81 69
f 69 81 82
f 69 82 70
f 70 82 83
f 70 83 71
f 71 83 84
f 71 84 72
f 72 84 85
f 72 85 73
f 73 85 74
f 73 74 62
f 62 74 75
f 77 76 86
f 86 76 75
f 86 75 74
f 80 79 86
f 86 79 78
f 86 78 77
f 83 82 86
f 86 82 81
f 86 81 80
f 74 85 86
f 86 85 84
f 86 84 83
