# new_high_08
v 0.1079922467470169 0.30400004982948303 -4.999999987376214e-07
v 0.0673828125 -0.11399993300437927 -4.999999987376214e-07
v -0.06553909182548523 -0.11399993300437927 -4.999999987376214e-07
v -0.1079922467470169 0.30400004982948303 -4.999999987376214e-07
v -0.08500777930021286 -0.14599990844726562 -4.999999987376214e-07
v 0.08499221503734589 -0.14599990844726562 -4.999999987376214e-07
v 0.08499221503734589 -0.3039999306201935 -4.999999987376214e-07
v -0.08500777930021286 -0.3039999306201935 -4.999999987376214e-07
g submesh_0
f 4 3 1
f 1 3 2
f 8 7 5
f 5 7 6
