# 06
v -0.19152595102787018 -0.0030877685640007257 -0.10097404569387436
v -0.127273291349411 0.06102598085999489 -0.10097404569387436
v 0.06447403132915497 0.06102598085999489 -0.10097404569387436
v 0.06447403132915497 0.1719740480184555 -0.10097404569387436
v -0.06447404623031616 0.1719740480184555 -0.10097404569387436
v -0.06447404623031616 0.14097405970096588 -0.10097404569387436
v -0.18552596867084503 0.14097405970096588 -0.10097404569387436
v -0.18552596867084503 0.19458013772964478 -0.10097404569387436
v -0.10202726721763611 0.27802595496177673 -0.10097404569387436
v 0.09985753148794174 0.27802595496177673 -0.10097404569387436
v 0.19152595102787018 0.18793687224388123 -0.10097404569387436
v 0.19152595102787018 -0.18448813259601593 -0.10097404569387436
v 0.09947819262742996 -0.27802595496177673 -0.10097404569387436
v -0.0979640781879425 -0.27802595496177673 -0.10097404569387436
v -0.19152595102787018 -0.18698589503765106 -0.10097404569387436
v 0.06447403132915497 -0.1719740331172943 -0.10097404569387436
v 0.06447403132915497 -0.031025942414999008 -0.10097404569387436
v -0.06447404623031616 -0.031025942414999008 -0.10097404569387436
v -0.06447404623031616 -0.1719740331172943 -0.10097404569387436
v -0.2175000011920929 0.007687511388212442 -0.07499999552965164
v -0.13801562786102295 0.08700002729892731 -0.07499999552965164
v 0.03849998489022255 0.08700002729892731 -0.07499999552965164
v 0.03849998489022255 0.1459999978542328 -0.07499999552965164
v -0.03850000351667404 0.1459999978542328 -0.07499999552965164
v -0.03850000351667404 0.11500001698732376 -0.07499999552965164
v -0.21150000393390656 0.11500001698732376 -0.07499999552965164
v -0.21150000393390656 0.20534375309944153 -0.07499999552965164
v -0.11278125643730164 0.30399999022483826 -0.07499999552965164
v 0.11048436164855957 0.30399999022483826 -0.07499999552965164
v 0.2175000011920929 0.19882814586162567 -0.07499999552965164
v 0.2175000011920929 -0.19512499868869781 -0.07499999552965164
v 0.11035936325788498 -0.30399999022483826 -0.07499999552965164
v -0.10851562023162842 -0.30399999022483826 -0.07499999552965164
v -0.2175000011920929 -0.19795310497283936 -0.07499999552965164
v 0.03849998489022255 -0.1459999978542328 -0.07499999552965164
v 0.03849998489022255 -0.05699998885393143 -0.07499999552965164
v -0.03850000351667404 -0.05699998885393143 -0.07499999552965164
v -0.03850000351667404 -0.1459999978542328 -0.07499999552965164
v -0.2175000011920929 0.007687511388212442 0.07499999552965164
v -0.13801562786102295 0.08700002729892731 0.07499999552965164
v 0.03849998489022255 0.08700002729892731 0.07499999552965164
v 0.03849998489022255 0.1459999978542328 0.07499999552965164
v -0.03850000351667404 0.1459999978542328 0.07499999552965164
v -0.03850000351667404 0.11500001698732376 0.07499999552965164
v -0.21150000393390656 0.11500001698732376 0.07499999552965164
v -0.21150000393390656 0.20534375309944153 0.07499999552965164
v -0.11278125643730164 0.30399999022483826 0.07499999552965164
v 0.11048436164855957 0.30399999022483826 0.07499999552965164
v 0.2175000011920929 0.19882814586162567 0.07499999552965164
v 0.2175000011920929 -0.19512499868869781 0.07499999552965164
v 0.11035936325788498 -0.30399999022483826 0.07499999552965164
v -0.10851562023162842 -0.30399999022483826 0.07499999552965164
v -0.2175000011920929 -0.19795310497283936 0.07499999552965164
v 0.03849998489022255 -0.1459999978542328 0.07499999552965164
v 0.03849998489022255 -0.05699998885393143 0.07499999552965164
v -0.03850000351667404 -0.05699998885393143 0.07499999552965164
v -0.03850000351667404 -0.1459999978542328 0.07499999552965164
v -0.19152595102787018 -0.0030877685640007257 0.10097404569387436
v -0.127273291349411 0.06102598085999489 0.10097404569387436
v 0.06447403132915497 0.06102598085999489 0.10097404569387436
v 0.06447403132915497 0.1719740480184555 0.10097404569387436
v -0.06447404623031616 0.1719740480184555 0.10097404569387436
v -0.06447404623031616 0.14097405970096588 0.10097404569387436
v -0.18552596867084503 0.14097405970096588 0.10097404569387436
v -0.18552596867084503 0.19458013772964478 0.10097404569387436
v -0.10202726721763611 0.27802595496177673 0.10097404569387436
v 0.09985753148794174 0.27802595496177673 0.10097404569387436
v 0.19152595102787018 0.18793687224388123 0.10097404569387436
v 0.19152595102787018 -0.18448813259601593 0.10097404569387436
v 0.09947819262742996 -0.27802595496177673 0.10097404569387436
v -0.0979640781879425 -0.27802595496177673 0.10097404569387436
v -0.19152595102787018 -0.18698589503765106 0.10097404569387436
v 0.06447403132915497 -0.1719740331172943 0.10097404569387436
v 0.06447403132915497 -0.031025942414999008 0.10097404569387436
v -0.06447404623031616 -0.031025942414999008 0.10097404569387436
v -0.06447404623031616 -0.1719740331172943 0.10097404569387436
v -0.13801562786102295 0.08700002729892731 -0.07499999552965164
v -0.13801562786102295 0.08700002729892731 0.07499999552965164
v 0.03849998489022255 0.08700002729892731 -0.07499999552965164
v 0.03849998489022255 0.08700002729892731 0.07499999552965164
v 0.03849998489022255 0.1459999978542328 -0.07499999552965164
v 0.03849998489022255 0.1459999978542328 0.07499999552965164
v -0.03850000351667404 0.1459999978542328 -0.07499999552965164
v -0.03850000351667404 0.1459999978542328 0.07499999552965164
v -0.03850000351667404 0.11500001698732376 -0.07499999552965164
v -0.03850000351667404 0.11500001698732376 0.07499999552965164
v -0.21150000393390656 0.11500001698732376 -0.07499999552965164
v -0.21150000393390656 0.11500001698732376 0.07499999552965164
v -0.21150000393390656 0.20534375309944153 -0.07499999552965164
v -0.21150000393390656 0.20534375309944153 0.07499999552965164
v -0.11278125643730164 0.30399999022483826 -0.07499999552965164
v -0.11278125643730164 0.30399999022483826 0.07499999552965164
v 0.11048436164855957 0.30399999022483826 -0.07499999552965164
v 0.11048436164855957 0.30399999022483826 0.07499999552965164
v 0.2175000011920929 0.19882814586162567 -0.07499999552965164
v 0.2175000011920929 0.19882814586162567 0.07499999552965164
v 0.11035936325788498 -0.30399999022483826 -0.07499999552965164
v 0.11035936325788498 -0.30399999022483826 0.07499999552965164
v -0.10851562023162842 -0.30399999022483826 -0.07499999552965164
v -0.10851562023162842 -0.30399999022483826 0.07499999552965164
v -0.2175000011920929 -0.19795310497283936 -0.07499999552965164
v -0.2175000011920929 -0.19795310497283936 0.07499999552965164
v -0.2175000011920929 0.007687511388212442 -0.07499999552965164
v -0.2175000011920929 0.007687511388212442 0.07499999552965164
v 0.03849998489022255 -0.05699998885393143 -0.07499999552965164
v 0.03849998489022255 -0.05699998885393143 0.07499999552965164
v -0.03850000351667404 -0.05699998885393143 -0.07499999552965164
v -0.03850000351667404 -0.05699998885393143 0.07499999552965164
v -0.03850000351667404 -0.1459999978542328 -0.07499999552965164
v -0.03850000351667404 -0.1459999978542328 0.07499999552965164
v 0.03849998489022255 -0.1459999978542328 -0.07499999552965164
v 0.03849998489022255 -0.1459999978542328 0.07499999552965164
v -0.13801562786102295 0.08700002729892731 -0.07499999552965164
v -0.19152595102787018 -0.0030877685640007257 -0.10097404569387436
v -0.2175000011920929 0.007687511388212442 -0.07499999552965164
v -0.127273291349411 0.06102598085999489 -0.10097404569387436
v 0.03849998489022255 0.08700002729892731 -0.07499999552965164
v 0.06447403132915497 0.06102598085999489 -0.10097404569387436
v 0.03849998489022255 0.1459999978542328 -0.07499999552965164
v 0.06447403132915497 0.06102598085999489 -0.10097404569387436
v 0.03849998489022255 0.08700002729892731 -0.07499999552965164
v 0.06447403132915497 0.1719740480184555 -0.10097404569387436
v -0.03850000351667404 0.1459999978542328 -0.07499999552965164
v 0.06447403132915497 0.1719740480184555 -0.10097404569387436
v 0.03849998489022255 0.1459999978542328 -0.07499999552965164
v -0.06447404623031616 0.1719740480184555 -0.10097404569387436
v -0.06447404623031616 0.1719740480184555 -0.10097404569387436
v -0.06447404623031616 0.14097405970096588 -0.10097404569387436
v -0.21150000393390656 0.11500001698732376 -0.07499999552965164
v -0.06447404623031616 0.14097405970096588 -0.10097404569387436
v -0.03850000351667404 0.11500001698732376 -0.07499999552965164
v -0.18552596867084503 0.14097405970096588 -0.10097404569387436
v -0.21150000393390656 0.20534375309944153 -0.07499999552965164
v -0.18552596867084503 0.14097405970096588 -0.10097404569387436
v -0.21150000393390656 0.11500001698732376 -0.07499999552965164
v -0.18552596867084503 0.19458013772964478 -0.10097404569387436
v -0.11278125643730164 0.30399999022483826 -0.07499999552965164
v -0.21150000393390656 0.20534375309944153 -0.07499999552965164
v -0.10202726721763611 0.27802595496177673 -0.10097404569387436
v 0.11048436164855957 0.30399999022483826 -0.07499999552965164
v 0.09985753148794174 0.27802595496177673 -0.10097404569387436
v 0.2175000011920929 0.19882814586162567 -0.07499999552965164
v 0.11048436164855957 0.30399999022483826 -0.07499999552965164
v 0.19152595102787018 0.18793687224388123 -0.10097404569387436
v 0.2175000011920929 0.19882814586162567 -0.07499999552965164
v 0.19152595102787018 -0.18448813259601593 -0.10097404569387436
v 0.11035936325788498 -0.30399999022483826 -0.07499999552965164
v 0.09947819262742996 -0.27802595496177673 -0.10097404569387436
v -0.10851562023162842 -0.30399999022483826 -0.07499999552965164
v 0.11035936325788498 -0.30399999022483826 -0.07499999552965164
v -0.0979640781879425 -0.27802595496177673 -0.10097404569387436
v -0.2175000011920929 -0.19795310497283936 -0.07499999552965164
v -0.19152595102787018 -0.18698589503765106 -0.10097404569387436
v -0.2175000011920929 0.007687511388212442 -0.07499999552965164
v -0.2175000011920929 -0.19795310497283936 -0.07499999552965164
v 0.03849998489022255 -0.05699998885393143 -0.07499999552965164
v 0.06447403132915497 -0.1719740331172943 -0.10097404569387436
v 0.03849998489022255 -0.1459999978542328 -0.07499999552965164
v 0.06447403132915497 -0.031025942414999008 -0.10097404569387436
v -0.03850000351667404 -0.05699998885393143 -0.07499999552965164
v 0.06447403132915497 -0.031025942414999008 -0.10097404569387436
v 0.03849998489022255 -0.05699998885393143 -0.07499999552965164
v -0.06447404623031616 -0.031025942414999008 -0.10097404569387436
v -0.06447404623031616 -0.031025942414999008 -0.10097404569387436
v -0.06447404623031616 -0.1719740331172943 -0.10097404569387436
v 0.03849998489022255 -0.1459999978542328 -0.07499999552965164
v -0.06447404623031616 -0.1719740331172943 -0.10097404569387436
v -0.03850000351667404 -0.1459999978542328 -0.07499999552965164
v 0.06447403132915497 -0.1719740331172943 -0.10097404569387436
v -0.2175000011920929 0.007687511388212442 0.07499999552965164
v -0.127273291349411 0.06102598085999489 0.10097404569387436
v -0.13801562786102295 0.08700002729892731 0.07499999552965164
v -0.19152595102787018 -0.0030877685640007257 0.10097404569387436
v -0.13801562786102295 0.08700002729892731 0.07499999552965164
v 0.06447403132915497 0.06102598085999489 0.10097404569387436
v 0.03849998489022255 0.08700002729892731 0.07499999552965164
v 0.06447403132915497 0.1719740480184555 0.10097404569387436
v 0.06447403132915497 0.06102598085999489 0.10097404569387436
v 0.03849998489022255 0.1459999978542328 0.07499999552965164
v -0.06447404623031616 0.1719740480184555 0.10097404569387436
v -0.03850000351667404 0.1459999978542328 0.07499999552965164
v 0.06447403132915497 0.1719740480184555 0.10097404569387436
v -0.03850000351667404 0.1459999978542328 0.07499999552965164
v -0.06447404623031616 0.14097405970096588 0.10097404569387436
v -0.03850000351667404 0.11500001698732376 0.07499999552965164
v -0.06447404623031616 0.1719740480184555 0.10097404569387436
v -0.03850000351667404 0.11500001698732376 0.07499999552965164
v -0.18552596867084503 0.14097405970096588 0.10097404569387436
v -0.21150000393390656 0.11500001698732376 0.07499999552965164
v -0.06447404623031616 0.14097405970096588 0.10097404569387436
v -0.18552596867084503 0.19458013772964478 0.10097404569387436
v -0.21150000393390656 0.20534375309944153 0.07499999552965164
v -0.18552596867084503 0.14097405970096588 0.10097404569387436
v -0.21150000393390656 0.20534375309944153 0.07499999552965164
v -0.10202726721763611 0.27802595496177673 0.10097404569387436
v -0.11278125643730164 0.30399999022483826 0.07499999552965164
v -0.11278125643730164 0.30399999022483826 0.07499999552965164
v 0.09985753148794174 0.27802595496177673 0.10097404569387436
v 0.11048436164855957 0.30399999022483826 0.07499999552965164
v 0.19152595102787018 0.18793687224388123 0.10097404569387436
v 0.2175000011920929 0.19882814586162567 0.07499999552965164
v 0.2175000011920929 0.19882814586162567 0.07499999552965164
v 0.19152595102787018 -0.18448813259601593 0.10097404569387436
v 0.2175000011920929 -0.19512499868869781 0.07499999552965164
v 0.2175000011920929 -0.19512499868869781 0.07499999552965164
v 0.09947819262742996 -0.27802595496177673 0.10097404569387436
v 0.11035936325788498 -0.30399999022483826 0.07499999552965164
v 0.11035936325788498 -0.30399999022483826 0.07499999552965164
v -0.0979640781879425 -0.27802595496177673 0.10097404569387436
v -0.10851562023162842 -0.30399999022483826 0.07499999552965164
v -0.19152595102787018 -0.18698589503765106 0.10097404569387436
v -0.2175000011920929 -0.19795310497283936 0.07499999552965164
v -0.2175000011920929 -0.19795310497283936 0.07499999552965164
v -0.2175000011920929 0.007687511388212442 0.07499999552965164
v 0.06447403132915497 -0.031025942414999008 0.10097404569387436
v 0.06447403132915497 -0.1719740331172943 0.10097404569387436
v 0.03849998489022255 -0.05699998885393143 0.07499999552965164
v -0.06447404623031616 -0.031025942414999008 0.10097404569387436
v -0.03850000351667404 -0.05699998885393143 0.07499999552965164
v 0.06447403132915497 -0.031025942414999008 0.10097404569387436
v -0.03850000351667404 -0.05699998885393143 0.07499999552965164
v -0.06447404623031616 -0.1719740331172943 0.10097404569387436
v -0.03850000351667404 -0.1459999978542328 0.07499999552965164
v -0.06447404623031616 -0.031025942414999008 0.10097404569387436
v -0.03850000351667404 -0.1459999978542328 0.07499999552965164
v 0.06447403132915497 -0.1719740331172943 0.10097404569387436
v 0.03849998489022255 -0.1459999978542328 0.07499999552965164
v -0.06447404623031616 -0.1719740331172943 0.10097404569387436
g submesh_0
f 40 21 39
f 39 21 20
f 41 22 78
f 78 22 77
f 177 42 80
f 80 42 23
f 80 23 79
f 43 24 82
f 82 24 81
f 127 83 25
f 25 83 84
f 25 84 44
f 45 26 86
f 86 26 85
f 46 27 88
f 88 27 87
f 47 28 90
f 90 28 89
f 48 29 92
f 92 29 91
f 49 30 94
f 94 30 93
f 51 32 50
f 50 32 31
f 50 31 96
f 96 31 95
f 52 33 98
f 98 33 97
f 53 34 100
f 100 34 99
f 104 103 102
f 102 103 101
f 215 55 54
f 54 55 36
f 54 36 35
f 56 37 106
f 106 37 105
f 164 107 38
f 38 107 108
f 38 108 57
f 112 111 110
f 110 111 109
f 66 65 62
f 62 65 64
f 62 64 63
f 6 7 5
f 5 7 8
f 5 8 9
f 117 118 116
f 117 116 113
f 113 116 114
f 113 114 115
f 121 119 120
f 120 119 122
f 125 123 124
f 124 123 126
f 128 127 25
f 131 129 130
f 130 129 132
f 135 133 134
f 134 133 136
f 140 141 139
f 140 139 137
f 137 139 136
f 137 136 138
f 143 142 141
f 141 142 144
f 147 148 146
f 147 146 31
f 31 146 144
f 31 144 145
f 152 153 151
f 152 151 149
f 149 151 148
f 149 148 150
f 155 154 153
f 153 154 114
f 158 156 157
f 157 156 159
f 162 160 161
f 161 160 163
f 165 164 38
f 168 166 167
f 167 166 169
f 172 170 171
f 171 170 173
f 176 174 175
f 175 174 171
f 178 177 80
f 181 179 180
f 180 179 182
f 185 183 184
f 184 183 186
f 189 187 188
f 188 187 190
f 192 88 191
f 191 88 193
f 196 194 195
f 195 194 191
f 200 201 199
f 200 199 198
f 198 199 197
f 198 197 195
f 204 202 203
f 203 202 200
f 207 205 206
f 206 205 203
f 210 208 209
f 209 208 206
f 212 100 211
f 211 100 209
f 214 213 173
f 173 213 211
f 216 215 54
f 219 217 218
f 218 217 220
f 223 221 222
f 222 221 224
f 227 225 226
f 226 225 228
f 60 59 74
f 74 59 58
f 74 58 75
f 75 58 72
f 75 72 76
f 76 72 71
f 76 71 70
f 76 70 73
f 73 70 69
f 73 69 68
f 61 60 68
f 68 60 74
f 68 74 73
f 68 67 61
f 61 67 66
f 61 66 62
f 13 14 19
f 19 14 15
f 19 15 18
f 18 15 1
f 18 1 17
f 17 1 2
f 17 2 3
f 11 12 16
f 16 12 13
f 16 13 19
f 16 17 11
f 11 17 3
f 11 3 4
f 5 9 4
f 4 9 10
f 4 10 11
