# Root
v -0.0015232181176543236 0.0014206395717337728 1.3673304692929378e-06
v -0.001523217768408358 0.00019181199604645371 1.3673304692929378e-06
v -0.0015232169535011053 -0.001260742312297225 1.3673304692929378e-06
v -0.001523218466900289 0.0013726906618103385 0.0004865485243499279
v -0.0015232180012390018 0.0011390483705326915 0.0008726610103622079
v -0.0015232176519930363 0.0007045989041216671 0.0009815325029194355
v -0.0015232175355777144 0.00019181190873496234 0.0008600708679296076
v -0.0015232170699164271 -0.00022785220062360168 0.0007135896012187004
v -0.0015232174191623926 -0.00038334529381245375 0.0008726610103622079
v -0.0015232166042551398 -0.001053442363627255 0.0008726608357392251
v -0.001523216487839818 -0.001244647428393364 0.000531516969203949
v -0.0015232168370857835 -0.0003833453229162842 0.001715828781016171
v -0.0015232169535011053 -0.001053442363627255 0.001715828781016171
v -0.0015232166042551398 -0.0004884345107711852 0.0018486297922208905
v -0.001523216487839818 -0.0009483533212915063 0.0018486297922208905
v -0.0015232166042551398 -0.0005185672780498862 0.003499227575957775
v -0.0015232163714244962 -0.0009607212268747389 0.0029024912510067225
v -0.0015232160221785307 -0.00142064003739506 0.0031031006947159767
v -0.0015232170699164271 0.00012811268970835954 0.004799757152795792
v -0.0015232166042551398 -0.00022776606783736497 0.004014594480395317
v -0.0015232161385938525 -0.0011315601877868176 0.004357835743576288
v -0.0015232170699164271 0.00019181176321581006 0.0052291289903223515
v -0.0012388068716973066 -0.0007000193581916392 0.005229129455983639
v -0.0015232160221785307 -0.0014114187797531486 0.005410035606473684
v -0.0015232166042551398 0.00012811266060452908 0.005658501293510199
v -0.0015232163714244962 -0.00015520959277637303 0.006100423168390989
v -0.0015232160221785307 -0.0005636941059492528 0.006290379445999861
v -0.0015232159057632089 -0.0010869153775274754 0.006242969539016485
v -0.0015232160221785307 -0.0013345819897949696 0.005946981720626354
v -0.001238808617927134 0.0014206395717337728 1.3673304692929378e-06
v -0.0012388081522658467 0.00019181206880602986 1.3673304692929378e-06
v -0.001238807337358594 -0.0012607421958819032 1.3673304692929378e-06
v -0.0012388087343424559 0.0013726907782256603 0.0004865485243499279
v -0.0012388082686811686 0.0011390486033633351 0.0008726610103622079
v -0.001238808035850525 0.000704599020536989 0.0009815325029194355
v -0.0012388078030198812 0.00019181206880602986 0.0008600708679296076
v -0.0012388075701892376 -0.00022785212786402553 0.0007135896012187004
v -0.0012388076866045594 -0.0003833452065009624 0.0008726610103622079
v -0.0012388069881126285 -0.001053442363627255 0.0008726608357392251
v -0.0012388067552819848 -0.001244647428393364 0.000531516969203949
v -0.001238807337358594 -0.0003833452647086233 0.001715828781016171
v -0.0012388072209432721 -0.001053442363627255 0.001715828781016171
v -0.0012388069881126285 -0.0004884343943558633 0.0018486296758055687
v -0.001238806638866663 -0.0009483532630838454 0.0018486296758055687
v -0.0012388069881126285 -0.0005185671616345644 0.003499227575957775
v -0.0012388068716973066 -0.0009607211104594171 0.0029024912510067225
v -0.0012388065224513412 -0.0014206399209797382 0.0031031006947159767
v -0.0012388074537739158 0.00012811276246793568 0.004799757152795792
v -0.0012388069881126285 -0.00022776599507778883 0.00401459401473403
v -0.0012388064060360193 -0.0011315600713714957 0.004357835743576288
v -0.001238807337358594 0.0001918118359753862 0.0052291289903223515
v -0.0012388064060360193 -0.0014114187797531486 0.005410035606473684
v -0.0012388069881126285 0.00012811273336410522 0.005658501293510199
v -0.0012388068716973066 -0.00015520950546488166 0.006100423168390989
v -0.0012388065224513412 -0.000563693989533931 0.006290379445999861
v -0.0012388061732053757 -0.0010869152611121535 0.006242969539016485
v -0.0012388064060360193 -0.0013345819897949696 0.005946981720626354
v -0.0015232166042551398 -0.0007000193581916392 0.005229129455983639
v 0.0012388064060360193 0.0014206395717337728 1.3673304692929378e-06
v 0.001238806638866663 0.00019181199604645371 1.3673304692929378e-06
v 0.0012388075701892376 -0.001260742312297225 1.3673304692929378e-06
v 0.0012388060567900538 0.0013726906618103385 0.0004865485243499279
v 0.001238806638866663 0.0011390483705326915 0.0008726610103622079
v 0.0012388069881126285 0.0007045989041216671 0.0009815325029194355
v 0.0012388072209432721 0.00019181190873496234 0.0008600708679296076
v 0.0012388075701892376 -0.00022785220062360168 0.0007135896012187004
v 0.0012388072209432721 -0.00038334529381245375 0.0008726610103622079
v 0.0012388081522658467 -0.001053442363627255 0.0008726608357392251
v 0.0012388081522658467 -0.001244647428393364 0.000531516969203949
v 0.0012388078030198812 -0.0003833453229162842 0.001715828781016171
v 0.0012388078030198812 -0.001053442363627255 0.001715828781016171
v 0.0012388078030198812 -0.0004884345107711852 0.0018486297922208905
v 0.0012388081522658467 -0.0009483533212915063 0.0018486297922208905
v 0.0012388078030198812 -0.0005185672780498862 0.003499227575957775
v 0.0012388081522658467 -0.0009607212268747389 0.0029024912510067225
v 0.0012388085015118122 -0.00142064003739506 0.0031031006947159767
v 0.0012388075701892376 0.00012811268970835954 0.004799757152795792
v 0.0012388081522658467 -0.00022776606783736497 0.004014594480395317
v 0.0012388085015118122 -0.0011315601877868176 0.004357835743576288
v 0.0012388075701892376 0.00019181176321581006 0.0052291289903223515
v 0.0015232176519930363 -0.0007000193581916392 0.005229129455983639
v 0.0012388085015118122 -0.0014114187797531486 0.005410035606473684
v 0.0012388078030198812 0.00012811266060452908 0.005658501293510199
v 0.0012388085015118122 -0.00015520959277637303 0.006100423168390989
v 0.0012388085015118122 -0.0005636941059492528 0.006290379445999861
v 0.0012388087343424559 -0.0010869153775274754 0.006242969539016485
v 0.0012388087343424559 -0.0013345819897949696 0.005946981720626354
v 0.0015232161385938525 0.0014206395717337728 1.3673304692929378e-06
v 0.001523216487839818 0.00019181206880602986 1.3673304692929378e-06
v 0.0015232174191623926 -0.0012607421958819032 1.3673304692929378e-06
v 0.0015232159057632089 0.0013726907782256603 0.0004865485243499279
v 0.0015232161385938525 0.0011390486033633351 0.0008726610103622079
v 0.001523216487839818 0.000704599020536989 0.0009815325029194355
v 0.0015232168370857835 0.00019181206880602986 0.0008600708679296076
v 0.0015232170699164271 -0.00022785212786402553 0.0007135896012187004
v 0.0015232170699164271 -0.0003833452065009624 0.0008726610103622079
v 0.0015232176519930363 -0.001053442363627255 0.0008726608357392251
v 0.0015232180012390018 -0.001244647428393364 0.000531516969203949
v 0.0015232174191623926 -0.0003833452647086233 0.001715828781016171
v 0.0015232174191623926 -0.001053442363627255 0.001715828781016171
v 0.0015232176519930363 -0.0004884343943558633 0.0018486296758055687
v 0.0015232180012390018 -0.0009483532630838454 0.0018486296758055687
v 0.0015232176519930363 -0.0005185671616345644 0.003499227575957775
v 0.0015232180012390018 -0.0009607211104594171 0.0029024912510067225
v 0.0015232180012390018 -0.0014206399209797382 0.0031031006947159767
v 0.0015232174191623926 0.00012811276246793568 0.004799757152795792
v 0.0015232176519930363 -0.00022776599507778883 0.00401459401473403
v 0.0015232182340696454 -0.0011315600713714957 0.004357835743576288
v 0.0015232174191623926 0.0001918118359753862 0.0052291289903223515
v 0.0015232182340696454 -0.0014114187797531486 0.005410035606473684
v 0.0015232176519930363 0.00012811273336410522 0.005658501293510199
v 0.0015232180012390018 -0.00015520950546488166 0.006100423168390989
v 0.0015232180012390018 -0.000563693989533931 0.006290379445999861
v 0.0015232185833156109 -0.0010869152611121535 0.006242969539016485
v 0.0015232182340696454 -0.0013345819897949696 0.005946981720626354
v 0.0012388078030198812 -0.0007000193581916392 0.005229129455983639
v -0.0016353463288396597 -0.0005835902411490679 0.005804749671369791
v -0.0016353463288396597 -0.000683590245898813 0.005804749671369791
v -0.0016353463288396597 -0.0005835902411490679 0.005904749501496553
v -0.0016353463288396597 -0.00048359023639932275 0.005804749671369791
v -0.0016353463288396597 -0.0005835902411490679 0.005704749841243029
v 0.0016644211718812585 -0.0006835897220298648 0.005804749671369791
v 0.0016644211718812585 -0.0005835897172801197 0.005904749501496553
v 0.0016644211718812585 -0.0004835897125303745 0.005804749671369791
v 0.0016644211718812585 -0.0005835897172801197 0.005704749841243029
v 0.0016644211718812585 -0.0005835897172801197 0.005804749671369791
v -0.001238807337358594 -0.0003833452647086233 0.001715828781016171
v -0.0012388072209432721 -0.001053442363627255 0.001715828781016171
v -0.001238808617927134 0.0014206395717337728 1.3673304692929378e-06
v -0.0012388087343424559 0.0013726907782256603 0.0004865485243499279
v -0.0015232181176543236 0.0014206395717337728 1.3673304692929378e-06
v -0.0012388081522658467 0.00019181206880602986 1.3673304692929378e-06
v -0.001238808617927134 0.0014206395717337728 1.3673304692929378e-06
v -0.0012388082686811686 0.0011390486033633351 0.0008726610103622079
v -0.0012388082686811686 0.0011390486033633351 0.0008726610103622079
v -0.0015232180012390018 0.0011390483705326915 0.0008726610103622079
v -0.001238808035850525 0.000704599020536989 0.0009815325029194355
v -0.0012388078030198812 0.00019181206880602986 0.0008600708679296076
v -0.0012388075701892376 -0.00022785212786402553 0.0007135896012187004
v -0.001238807337358594 -0.0012607421958819032 1.3673304692929378e-06
v -0.0015232169535011053 -0.001260742312297225 1.3673304692929378e-06
v -0.0012388067552819848 -0.001244647428393364 0.000531516969203949
v -0.001238807337358594 -0.0012607421958819032 1.3673304692929378e-06
v -0.0012388075701892376 -0.00022785212786402553 0.0007135896012187004
v -0.0015232170699164271 -0.00022785220062360168 0.0007135896012187004
v -0.0012388076866045594 -0.0003833452065009624 0.0008726610103622079
v -0.0012388069881126285 -0.001053442363627255 0.0008726608357392251
v -0.0012388076866045594 -0.0003833452065009624 0.0008726610103622079
v -0.0015232174191623926 -0.00038334529381245375 0.0008726610103622079
v -0.001238807337358594 -0.0003833452647086233 0.001715828781016171
v -0.0012388072209432721 -0.001053442363627255 0.001715828781016171
v -0.001238807337358594 -0.0003833452647086233 0.001715828781016171
v -0.0015232168370857835 -0.0003833453229162842 0.001715828781016171
v -0.0012388069881126285 -0.0004884343943558633 0.0018486296758055687
v -0.0015232169535011053 -0.001053442363627255 0.001715828781016171
v -0.001238806638866663 -0.0009483532630838454 0.0018486296758055687
v -0.0012388072209432721 -0.001053442363627255 0.001715828781016171
v -0.0012388069881126285 -0.0004884343943558633 0.0018486296758055687
v -0.0015232166042551398 -0.0004884345107711852 0.0018486297922208905
v -0.0012388068716973066 -0.0009607211104594171 0.0029024912510067225
v -0.001523216487839818 -0.0009483533212915063 0.0018486297922208905
v -0.0012388065224513412 -0.0014206399209797382 0.0031031006947159767
v -0.001238806638866663 -0.0009483532630838454 0.0018486296758055687
v -0.0012388069881126285 -0.0005185671616345644 0.003499227575957775
v -0.0012388069881126285 -0.00022776599507778883 0.00401459401473403
v -0.0012388068716973066 -0.0009607211104594171 0.0029024912510067225
v -0.0015232163714244962 -0.0009607212268747389 0.0029024912510067225
v -0.0012388064060360193 -0.0011315600713714957 0.004357835743576288
v -0.0012388074537739158 0.00012811276246793568 0.004799757152795792
v -0.001238807337358594 0.0001918118359753862 0.0052291289903223515
v -0.0012388064060360193 -0.0014114187797531486 0.005410035606473684
v -0.0012388069881126285 0.00012811273336410522 0.005658501293510199
v -0.0012388069881126285 0.00012811273336410522 0.005658501293510199
v -0.0015232166042551398 0.00012811266060452908 0.005658501293510199
v -0.0012388068716973066 -0.00015520950546488166 0.006100423168390989
v -0.0012388068716973066 -0.00015520950546488166 0.006100423168390989
v -0.0015232163714244962 -0.00015520959277637303 0.006100423168390989
v -0.0012388065224513412 -0.000563693989533931 0.006290379445999861
v -0.0012388061732053757 -0.0010869152611121535 0.006242969539016485
v -0.0012388061732053757 -0.0010869152611121535 0.006242969539016485
v -0.0015232159057632089 -0.0010869153775274754 0.006242969539016485
v -0.0012388064060360193 -0.0013345819897949696 0.005946981720626354
v -0.0012388064060360193 -0.0013345819897949696 0.005946981720626354
v -0.0015232160221785307 -0.0013345819897949696 0.005946981720626354
v -0.0012388064060360193 -0.0014114187797531486 0.005410035606473684
v -0.0015232181176543236 0.0014206395717337728 1.3673304692929378e-06
v -0.001523217768408358 0.00019181199604645371 1.3673304692929378e-06
v -0.001523218466900289 0.0013726906618103385 0.0004865485243499279
v -0.0015232180012390018 0.0011390483705326915 0.0008726610103622079
v -0.0015232176519930363 0.0007045989041216671 0.0009815325029194355
v -0.0015232175355777144 0.00019181190873496234 0.0008600708679296076
v -0.0015232170699164271 -0.00022785220062360168 0.0007135896012187004
v -0.0015232169535011053 -0.001260742312297225 1.3673304692929378e-06
v -0.001523216487839818 -0.001244647428393364 0.000531516969203949
v -0.0015232166042551398 -0.001053442363627255 0.0008726608357392251
v -0.0015232174191623926 -0.00038334529381245375 0.0008726610103622079
v -0.0015232169535011053 -0.001053442363627255 0.001715828781016171
v -0.0015232168370857835 -0.0003833453229162842 0.001715828781016171
v -0.0015232168370857835 -0.0003833453229162842 0.001715828781016171
v -0.001523216487839818 -0.0009483533212915063 0.0018486297922208905
v -0.0015232166042551398 -0.0004884345107711852 0.0018486297922208905
v -0.0015232169535011053 -0.001053442363627255 0.001715828781016171
v -0.0015232163714244962 -0.0009607212268747389 0.0029024912510067225
v -0.0015232160221785307 -0.00142064003739506 0.0031031006947159767
v -0.0015232166042551398 -0.0005185672780498862 0.003499227575957775
v -0.0015232161385938525 -0.0011315601877868176 0.004357835743576288
v -0.0015232166042551398 -0.00022776606783736497 0.004014594480395317
v -0.0015232170699164271 0.00012811268970835954 0.004799757152795792
v -0.0015232170699164271 0.00019181176321581006 0.0052291289903223515
v -0.0015232160221785307 -0.0014114187797531486 0.005410035606473684
v -0.0015232166042551398 0.00012811266060452908 0.005658501293510199
v -0.0015232163714244962 -0.00015520959277637303 0.006100423168390989
v -0.0015232160221785307 -0.0005636941059492528 0.006290379445999861
v -0.0015232159057632089 -0.0010869153775274754 0.006242969539016485
v -0.0015232160221785307 -0.0013345819897949696 0.005946981720626354
v 0.0015232174191623926 -0.0003833452647086233 0.001715828781016171
v 0.0015232174191623926 -0.001053442363627255 0.001715828781016171
v 0.0015232161385938525 0.0014206395717337728 1.3673304692929378e-06
v 0.0015232159057632089 0.0013726907782256603 0.0004865485243499279
v 0.0012388064060360193 0.0014206395717337728 1.3673304692929378e-06
v 0.001523216487839818 0.00019181206880602986 1.3673304692929378e-06
v 0.0015232161385938525 0.0014206395717337728 1.3673304692929378e-06
v 0.0015232161385938525 0.0011390486033633351 0.0008726610103622079
v 0.0015232161385938525 0.0011390486033633351 0.0008726610103622079
v 0.001238806638866663 0.0011390483705326915 0.0008726610103622079
v 0.001523216487839818 0.000704599020536989 0.0009815325029194355
v 0.0015232168370857835 0.00019181206880602986 0.0008600708679296076
v 0.0015232170699164271 -0.00022785212786402553 0.0007135896012187004
v 0.0015232174191623926 -0.0012607421958819032 1.3673304692929378e-06
v 0.0012388075701892376 -0.001260742312297225 1.3673304692929378e-06
v 0.0015232180012390018 -0.001244647428393364 0.000531516969203949
v 0.0015232174191623926 -0.0012607421958819032 1.3673304692929378e-06
v 0.0015232170699164271 -0.00022785212786402553 0.0007135896012187004
v 0.0012388075701892376 -0.00022785220062360168 0.0007135896012187004
v 0.0015232170699164271 -0.0003833452065009624 0.0008726610103622079
v 0.0015232176519930363 -0.001053442363627255 0.0008726608357392251
v 0.0015232170699164271 -0.0003833452065009624 0.0008726610103622079
v 0.0012388072209432721 -0.00038334529381245375 0.0008726610103622079
v 0.0015232174191623926 -0.0003833452647086233 0.001715828781016171
v 0.0015232174191623926 -0.001053442363627255 0.001715828781016171
v 0.0015232174191623926 -0.0003833452647086233 0.001715828781016171
v 0.0012388078030198812 -0.0003833453229162842 0.001715828781016171
v 0.0015232176519930363 -0.0004884343943558633 0.0018486296758055687
v 0.0012388078030198812 -0.001053442363627255 0.001715828781016171
v 0.0015232180012390018 -0.0009483532630838454 0.0018486296758055687
v 0.0015232174191623926 -0.001053442363627255 0.001715828781016171
v 0.0015232176519930363 -0.0004884343943558633 0.0018486296758055687
v 0.0012388078030198812 -0.0004884345107711852 0.0018486297922208905
v 0.0015232180012390018 -0.0009607211104594171 0.0029024912510067225
v 0.0012388081522658467 -0.0009483533212915063 0.0018486297922208905
v 0.0015232180012390018 -0.0014206399209797382 0.0031031006947159767
v 0.0015232180012390018 -0.0009483532630838454 0.0018486296758055687
v 0.0015232176519930363 -0.0005185671616345644 0.003499227575957775
v 0.0015232176519930363 -0.00022776599507778883 0.00401459401473403
v 0.0015232180012390018 -0.0009607211104594171 0.0029024912510067225
v 0.0012388081522658467 -0.0009607212268747389 0.0029024912510067225
v 0.0015232182340696454 -0.0011315600713714957 0.004357835743576288
v 0.0015232174191623926 0.00012811276246793568 0.004799757152795792
v 0.0015232174191623926 0.0001918118359753862 0.0052291289903223515
v 0.0015232182340696454 -0.0014114187797531486 0.005410035606473684
v 0.0015232176519930363 0.00012811273336410522 0.005658501293510199
v 0.0015232176519930363 0.00012811273336410522 0.005658501293510199
v 0.0012388078030198812 0.00012811266060452908 0.005658501293510199
v 0.0015232180012390018 -0.00015520950546488166 0.006100423168390989
v 0.0015232180012390018 -0.00015520950546488166 0.006100423168390989
v 0.0012388085015118122 -0.00015520959277637303 0.006100423168390989
v 0.0015232180012390018 -0.000563693989533931 0.006290379445999861
v 0.0015232185833156109 -0.0010869152611121535 0.006242969539016485
v 0.0015232182340696454 -0.0013345819897949696 0.005946981720626354
v 0.0015232182340696454 -0.0013345819897949696 0.005946981720626354
v 0.0012388087343424559 -0.0013345819897949696 0.005946981720626354
v 0.0015232182340696454 -0.0014114187797531486 0.005410035606473684
v 0.0012388064060360193 0.0014206395717337728 1.3673304692929378e-06
v 0.001238806638866663 0.00019181199604645371 1.3673304692929378e-06
v 0.0012388060567900538 0.0013726906618103385 0.0004865485243499279
v 0.001238806638866663 0.0011390483705326915 0.0008726610103622079
v 0.0012388069881126285 0.0007045989041216671 0.0009815325029194355
v 0.0012388072209432721 0.00019181190873496234 0.0008600708679296076
v 0.0012388075701892376 -0.00022785220062360168 0.0007135896012187004
v 0.0012388075701892376 -0.001260742312297225 1.3673304692929378e-06
v 0.0012388081522658467 -0.001244647428393364 0.000531516969203949
v 0.0012388081522658467 -0.001053442363627255 0.0008726608357392251
v 0.0012388072209432721 -0.00038334529381245375 0.0008726610103622079
v 0.0012388078030198812 -0.001053442363627255 0.001715828781016171
v 0.0012388078030198812 -0.0003833453229162842 0.001715828781016171
v 0.0012388078030198812 -0.0003833453229162842 0.001715828781016171
v 0.0012388081522658467 -0.0009483533212915063 0.0018486297922208905
v 0.0012388078030198812 -0.0004884345107711852 0.0018486297922208905
v 0.0012388078030198812 -0.001053442363627255 0.001715828781016171
v 0.0012388081522658467 -0.0009607212268747389 0.0029024912510067225
v 0.0012388085015118122 -0.00142064003739506 0.0031031006947159767
v 0.0012388078030198812 -0.0005185672780498862 0.003499227575957775
v 0.0012388085015118122 -0.0011315601877868176 0.004357835743576288
v 0.0012388081522658467 -0.00022776606783736497 0.004014594480395317
v 0.0012388075701892376 0.00012811268970835954 0.004799757152795792
v 0.0012388075701892376 0.00019181176321581006 0.0052291289903223515
v 0.0012388085015118122 -0.0014114187797531486 0.005410035606473684
v 0.0012388078030198812 0.00012811266060452908 0.005658501293510199
v 0.0012388085015118122 -0.00015520959277637303 0.006100423168390989
v 0.0012388085015118122 -0.0005636941059492528 0.006290379445999861
v 0.0012388087343424559 -0.0010869153775274754 0.006242969539016485
v 0.0012388087343424559 -0.0013345819897949696 0.005946981720626354
v -0.0016353463288396597 -0.000683590245898813 0.005804749671369791
v -0.0016353463288396597 -0.0005835902411490679 0.005904749501496553
v -0.0016353463288396597 -0.0005835902411490679 0.005904749501496553
v 0.0016644211718812585 -0.0005835897172801197 0.005904749501496553
v -0.0016353463288396597 -0.00048359023639932275 0.005804749671369791
v -0.0016353463288396597 -0.00048359023639932275 0.005804749671369791
v 0.0016644211718812585 -0.0004835897125303745 0.005804749671369791
v -0.0016353463288396597 -0.0005835902411490679 0.005704749841243029
v -0.0016353463288396597 -0.0005835902411490679 0.005704749841243029
v 0.0016644211718812585 -0.0005835897172801197 0.005704749841243029
v 0.0016644211718812585 -0.0006835897220298648 0.005804749671369791
v -0.0016353463288396597 -0.000683590245898813 0.005804749671369791
v 0.0016644211718812585 -0.0005835897172801197 0.005904749501496553
v 0.0016644211718812585 -0.0006835897220298648 0.005804749671369791
v 0.0016644211718812585 -0.0004835897125303745 0.005804749671369791
v 0.0016644211718812585 -0.0005835897172801197 0.005704749841243029
g submesh_0
f 30 33 31
f 31 33 34
f 31 34 35
f 41 42 38
f 38 42 39
f 38 39 37
f 37 39 40
f 37 40 32
f 128 127 44
f 44 127 43
f 44 43 46
f 5 134 130
f 5 130 4
f 4 130 129
f 4 129 1
f 140 3 2
f 140 2 132
f 132 2 131
f 132 131 133
f 8 139 138
f 8 138 7
f 7 138 137
f 7 137 6
f 6 137 135
f 6 135 136
f 151 13 10
f 151 10 147
f 147 10 11
f 147 11 142
f 142 11 141
f 142 141 143
f 145 9 144
f 144 9 146
f 149 12 148
f 148 12 150
f 153 14 152
f 152 14 154
f 15 155 156
f 156 155 157
f 159 17 158
f 158 17 160
f 171 24 21
f 171 21 168
f 168 21 18
f 168 18 162
f 162 18 161
f 162 161 163
f 25 172 170
f 25 170 22
f 22 170 169
f 22 169 19
f 19 169 165
f 19 165 20
f 20 165 164
f 20 164 16
f 16 164 166
f 16 166 167
f 174 26 173
f 173 26 175
f 28 179 178
f 28 178 27
f 27 178 176
f 27 176 177
f 181 29 180
f 180 29 182
f 184 24 183
f 183 24 185
f 190 189 187
f 187 189 188
f 187 188 186
f 193 194 192
f 192 194 195
f 192 195 196
f 196 195 197
f 196 197 198
f 203 201 200
f 200 201 199
f 200 199 202
f 88 91 89
f 89 91 92
f 89 92 93
f 99 100 96
f 96 100 97
f 96 97 95
f 95 97 98
f 95 98 90
f 217 216 102
f 102 216 101
f 102 101 104
f 63 223 219
f 63 219 62
f 62 219 218
f 62 218 59
f 229 61 60
f 229 60 221
f 221 60 220
f 221 220 222
f 66 228 227
f 66 227 65
f 65 227 226
f 65 226 64
f 64 226 224
f 64 224 225
f 240 71 68
f 240 68 236
f 236 68 69
f 236 69 231
f 231 69 230
f 231 230 232
f 234 67 233
f 233 67 235
f 238 70 237
f 237 70 239
f 242 72 241
f 241 72 243
f 73 244 245
f 245 244 246
f 248 75 247
f 247 75 249
f 260 82 79
f 260 79 257
f 257 79 76
f 257 76 251
f 251 76 250
f 251 250 252
f 83 261 259
f 83 259 80
f 80 259 258
f 80 258 77
f 77 258 254
f 77 254 78
f 78 254 253
f 78 253 74
f 74 253 255
f 74 255 256
f 263 84 262
f 262 84 264
f 87 269 268
f 87 268 86
f 86 268 267
f 86 267 85
f 85 267 265
f 85 265 266
f 271 82 270
f 270 82 272
f 277 276 274
f 274 276 275
f 274 275 273
f 280 281 279
f 279 281 282
f 279 282 283
f 283 282 284
f 283 284 285
f 290 288 287
f 287 288 286
f 287 286 289
f 122 123 303
f 303 123 304
f 306 124 305
f 305 124 307
f 309 125 308
f 308 125 310
f 312 313 311
f 311 313 314
f 35 36 31
f 31 36 37
f 31 37 32
f 44 46 47
f 47 46 45
f 47 45 50
f 50 45 49
f 50 49 23
f 23 49 48
f 23 48 51
f 56 57 23
f 23 57 52
f 23 52 50
f 51 53 23
f 23 53 54
f 23 54 55
f 23 55 56
f 193 192 187
f 187 192 191
f 187 191 190
f 209 208 58
f 58 208 207
f 58 207 206
f 206 207 205
f 206 205 204
f 204 205 203
f 204 203 200
f 206 210 58
f 58 210 215
f 58 215 214
f 213 212 58
f 58 212 211
f 58 211 209
f 213 58 214
f 93 94 89
f 89 94 95
f 89 95 90
f 102 104 105
f 105 104 103
f 105 103 108
f 108 103 107
f 108 107 81
f 81 107 106
f 81 106 109
f 114 115 81
f 81 115 110
f 81 110 108
f 109 111 81
f 81 111 112
f 81 112 113
f 81 113 114
f 280 279 274
f 274 279 278
f 274 278 277
f 296 295 116
f 116 295 294
f 116 294 293
f 293 294 292
f 293 292 291
f 291 292 290
f 291 290 287
f 293 297 116
f 116 297 302
f 116 302 301
f 300 299 116
f 116 299 298
f 116 298 296
f 300 116 301
f 120 121 117
f 117 121 118
f 117 118 119
f 120 117 119
f 318 317 126
f 126 317 315
f 126 315 316
f 318 126 316
