# arrow_left
v 0.7522750496864319 -0.0027868696488440037 -0.003790235845372081
v -6.284732080530375e-06 -0.0013090103166177869 -0.0009626605897210538
v -0.7522875666618347 0.00016883856733329594 0.001864923513494432
v 0.753491222858429 0.0333850271999836 0.3008538782596588
v 0.001209845533594489 0.03486287221312523 0.3036814332008362
v -0.7510714530944824 0.03634072095155716 0.30650901794433594
v 0.7547635436058044 0.11560846120119095 0.5964136123657227
v 0.0024822973646223545 0.11708632856607437 0.5992411971092224
v -0.7497990131378174 0.1185641661286354 0.6020687818527222
v 0.7560626268386841 0.24195870757102966 0.8759698867797852
v 0.0037812816444784403 0.24343670904636383 0.8787974119186401
v -0.7485000491142273 0.24491456151008606 0.8816251158714294
v 0.7573577761650085 0.40947821736335754 1.1329784393310547
v 0.005076397676020861 0.4109560251235962 1.1358059644699097
v -0.7472047805786133 0.4124339520931244 1.1386336088180542
v 0.7586186528205872 0.6142451167106628 1.3614228963851929
v 0.006337320432066917 0.6157230138778687 1.364250659942627
v -0.7459439039230347 0.6172007918357849 1.3670780658721924
v 0.7598158717155457 0.8514658212661743 1.555955171585083
v 0.007534527685493231 0.8529437184333801 1.5587825775146484
v -0.7447466850280762 0.8544216752052307 1.561610221862793
v 0.76092129945755 1.1155871152877808 1.7120213508605957
v 0.00863999780267477 1.1170649528503418 1.7148487567901611
v -0.7436412572860718 1.1185427904129028 1.7176761627197266
v 0.7619091868400574 1.400425672531128 1.8259673118591309
v 0.009627859108150005 1.4019036293029785 1.828795075416565
v -0.7426534295082092 1.403381586074829 1.8316227197647095
v 0.7627562284469604 1.6993138790130615 1.8951269388198853
v 0.010474970564246178 1.7007917165756226 1.8979544639587402
v -0.7418062686920166 1.7022696733474731 1.9007822275161743
v 0.7634428143501282 2.0052545070648193 1.9178801774978638
v 0.011161510832607746 2.006732702255249 1.9207077026367188
v -0.7411197423934937 2.0082104206085205 1.9235351085662842
v 0.7639527916908264 2.3110857009887695 1.893694281578064
v 0.011671419255435467 2.31256365776062 1.8965219259262085
v -0.740609884262085 2.3140416145324707 1.899349570274353
v 0.7642740607261658 2.6096479892730713 1.823136568069458
v 0.011992720887064934 2.6111257076263428 1.8259639739990234
v -0.7402886152267456 2.6126036643981934 1.8287914991378784
v 0.7643993496894836 2.893951416015625 1.707857370376587
v 0.012117939069867134 2.8954293727874756 1.7106847763061523
v -0.740163266658783 2.896907329559326 1.7135124206542969
v 0.7643254399299622 3.157341241836548 1.5505563020706177
v 0.012044133618474007 3.1588191986083984 1.553383708000183
v -0.7402371168136597 3.160297155380249 1.556211233139038
v 0.7640542984008789 3.393651008605957 1.3549153804779053
v 0.011772985570132732 3.3951292037963867 1.3577429056167603
v -0.7405082583427429 3.396606922149658 1.3605705499649048
v 0.7635923027992249 3.5973498821258545 1.1255146265029907
v 0.011310901492834091 3.5988271236419678 1.1283421516418457
v -0.7409703135490417 3.6003050804138184 1.1311699151992798
v 0.7629499435424805 3.763667583465576 0.8677241206169128
v 0.010668696835637093 3.7651450634002686 0.8705517649650574
v -0.7416126132011414 3.7666234970092773 0.8733793497085571
v 0.7621425986289978 3.888711452484131 0.5875791907310486
v 0.009861316531896591 3.8901891708374023 0.5904066562652588
v -0.742419958114624 3.891667127609253 0.5932344198226929
v 0.7611891031265259 3.9695544242858887 0.29163771867752075
v 0.008907775394618511 3.971031904220581 0.2944653332233429
v -0.743373453617096 3.9725096225738525 0.2972926199436188
v 0.7601116299629211 4.004303455352783 -0.013172606937587261
v 0.007830333895981312 4.005781173706055 -0.01034500077366829
v -0.7444509863853455 4.007258892059326 -0.007517547346651554
v 0.7522750496864319 -0.0027868696488440037 -0.003790235845372081
v 0.001209845533594489 0.03486287221312523 0.3036814332008362
v 0.753491222858429 0.0333850271999836 0.3008538782596588
v -6.284732080530375e-06 -0.0013090103166177869 -0.0009626605897210538
v -0.7510714530944824 0.03634072095155716 0.30650901794433594
v -0.7522875666618347 0.00016883856733329594 0.001864923513494432
v 0.0024822973646223545 0.11708632856607437 0.5992411971092224
v 0.7547635436058044 0.11560846120119095 0.5964136123657227
v -0.7497990131378174 0.1185641661286354 0.6020687818527222
v 0.0037812816444784403 0.24343670904636383 0.8787974119186401
v 0.7560626268386841 0.24195870757102966 0.8759698867797852
v -0.7485000491142273 0.24491456151008606 0.8816251158714294
v 0.005076397676020861 0.4109560251235962 1.1358059644699097
v 0.7573577761650085 0.40947821736335754 1.1329784393310547
v -0.7472047805786133 0.4124339520931244 1.1386336088180542
v 0.006337320432066917 0.6157230138778687 1.364250659942627
v 0.7586186528205872 0.6142451167106628 1.3614228963851929
v -0.7459439039230347 0.6172007918357849 1.3670780658721924
v 0.007534527685493231 0.8529437184333801 1.5587825775146484
v 0.7598158717155457 0.8514658212661743 1.555955171585083
v -0.7447466850280762 0.8544216752052307 1.561610221862793
v 0.00863999780267477 1.1170649528503418 1.7148487567901611
v 0.76092129945755 1.1155871152877808 1.7120213508605957
v -0.7436412572860718 1.1185427904129028 1.7176761627197266
v 0.009627859108150005 1.4019036293029785 1.828795075416565
v 0.7619091868400574 1.400425672531128 1.8259673118591309
v -0.7426534295082092 1.403381586074829 1.8316227197647095
v 0.010474970564246178 1.7007917165756226 1.8979544639587402
v 0.7627562284469604 1.6993138790130615 1.8951269388198853
v -0.7418062686920166 1.7022696733474731 1.9007822275161743
v 0.011161510832607746 2.006732702255249 1.9207077026367188
v 0.7634428143501282 2.0052545070648193 1.9178801774978638
v -0.7411197423934937 2.0082104206085205 1.9235351085662842
v 0.011671419255435467 2.31256365776062 1.8965219259262085
v 0.7639527916908264 2.3110857009887695 1.893694281578064
v -0.740609884262085 2.3140416145324707 1.899349570274353
v 0.011992720887064934 2.6111257076263428 1.8259639739990234
v 0.7642740607261658 2.6096479892730713 1.823136568069458
v -0.7402886152267456 2.6126036643981934 1.8287914991378784
v 0.012117939069867134 2.8954293727874756 1.7106847763061523
v 0.7643993496894836 2.893951416015625 1.707857370376587
v -0.740163266658783 2.896907329559326 1.7135124206542969
v 0.012044133618474007 3.1588191986083984 1.553383708000183
v 0.7643254399299622 3.157341241836548 1.5505563020706177
v -0.7402371168136597 3.160297155380249 1.556211233139038
v 0.011772985570132732 3.3951292037963867 1.3577429056167603
v 0.7640542984008789 3.393651008605957 1.3549153804779053
v -0.7405082583427429 3.396606922149658 1.3605705499649048
v 0.011310901492834091 3.5988271236419678 1.1283421516418457
v 0.7635923027992249 3.5973498821258545 1.1255146265029907
v -0.7409703135490417 3.6003050804138184 1.1311699151992798
v 0.010668696835637093 3.7651450634002686 0.8705517649650574
v 0.7629499435424805 3.763667583465576 0.8677241206169128
v -0.7416126132011414 3.7666234970092773 0.8733793497085571
v 0.009861316531896591 3.8901891708374023 0.5904066562652588
v 0.7621425986289978 3.888711452484131 0.5875791907310486
v -0.742419958114624 3.891667127609253 0.5932344198226929
v 0.008907775394618511 3.971031904220581 0.2944653332233429
v 0.7611891031265259 3.9695544242858887 0.29163771867752075
v -0.743373453617096 3.9725096225738525 0.2972926199436188
v 0.007830333895981312 4.005781173706055 -0.01034500077366829
v 0.7601116299629211 4.004303455352783 -0.013172606937587261
v -0.7444509863853455 4.007258892059326 -0.007517547346651554
g submesh_0
f 62 63 59
f 59 63 60
f 59 60 56
f 56 60 57
f 56 57 53
f 53 57 54
f 53 54 50
f 50 54 51
f 50 51 47
f 47 51 48
f 47 48 44
f 44 48 45
f 44 45 41
f 41 45 42
f 41 42 38
f 38 42 39
f 38 39 35
f 35 39 36
f 35 36 32
f 32 36 33
f 32 33 29
f 29 33 30
f 29 30 26
f 26 30 27
f 26 27 23
f 23 27 24
f 23 24 20
f 20 24 21
f 20 21 17
f 17 21 18
f 17 18 14
f 14 18 15
f 14 15 11
f 11 15 12
f 11 12 8
f 8 12 9
f 8 9 5
f 5 9 6
f 5 6 2
f 2 6 3
f 2 1 5
f 5 1 4
f 5 4 8
f 8 4 7
f 8 7 11
f 11 7 10
f 11 10 14
f 14 10 13
f 14 13 17
f 17 13 16
f 17 16 20
f 20 16 19
f 20 19 23
f 23 19 22
f 23 22 26
f 26 22 25
f 26 25 29
f 29 25 28
f 29 28 32
f 32 28 31
f 32 31 35
f 35 31 34
f 35 34 38
f 38 34 37
f 38 37 41
f 41 37 40
f 41 40 44
f 44 40 43
f 44 43 47
f 47 43 46
f 47 46 50
f 50 46 49
f 50 49 53
f 53 49 52
f 53 52 56
f 56 52 55
f 56 55 59
f 59 55 58
f 59 58 62
f 62 58 61
f 126 124 121
f 126 121 123
f 123 121 118
f 123 118 120
f 120 118 115
f 120 115 117
f 117 115 112
f 117 112 114
f 114 112 109
f 114 109 111
f 111 109 106
f 111 106 108
f 108 106 103
f 108 103 105
f 105 103 100
f 105 100 102
f 102 100 97
f 102 97 99
f 99 97 94
f 99 94 96
f 96 94 91
f 96 91 93
f 93 91 88
f 93 88 90
f 90 88 85
f 90 85 87
f 87 85 82
f 87 82 84
f 84 82 79
f 84 79 81
f 81 79 76
f 81 76 78
f 78 76 73
f 78 73 75
f 75 73 70
f 75 70 72
f 72 70 65
f 72 65 68
f 68 65 67
f 68 67 69
f 64 67 65
f 64 65 66
f 66 65 70
f 66 70 71
f 71 70 73
f 71 73 74
f 74 73 76
f 74 76 77
f 77 76 79
f 77 79 80
f 80 79 82
f 80 82 83
f 83 82 85
f 83 85 86
f 86 85 88
f 86 88 89
f 89 88 91
f 89 91 92
f 92 91 94
f 92 94 95
f 95 94 97
f 95 97 98
f 98 97 100
f 98 100 101
f 101 100 103
f 101 103 104
f 104 103 106
f 104 106 107
f 107 106 109
f 107 109 110
f 110 109 112
f 110 112 113
f 113 112 115
f 113 115 116
f 116 115 118
f 116 118 119
f 119 118 121
f 119 121 122
f 122 121 124
f 122 124 125
