# new_high_04
v -0.25999999046325684 -0.14599990844726562 -4.999999987376214e-07
v -0.2199999988079071 -0.14599990844726562 -4.999999987376214e-07
v -0.2199999988079071 0.14700007438659668 -4.999999987376214e-07
v -0.25999999046325684 0.14700007438659668 -4.999999987376214e-07
v -0.25999999046325684 0.30400004982948303 -4.999999987376214e-07
v -0.016999969258904457 0.30400004982948303 -4.999999987376214e-07
v -0.016999969258904457 0.15400004386901855 -4.999999987376214e-07
v -0.04399993643164635 0.15400004386901855 -4.999999987376214e-07
v -0.04399993643164635 0.08800006657838821 -4.999999987376214e-07
v 0.04199996963143349 0.08800006657838821 -4.999999987376214e-07
v 0.04199996963143349 0.15400004386901855 -4.999999987376214e-07
v 0.014999999664723873 0.15400004386901855 -4.999999987376214e-07
v 0.014999999664723873 0.30400004982948303 -4.999999987376214e-07
v 0.25999999046325684 0.30400004982948303 -4.999999987376214e-07
v 0.25999999046325684 0.14700007438659668 -4.999999987376214e-07
v 0.21800002455711365 0.14700007438659668 -4.999999987376214e-07
v 0.21800002455711365 -0.14599990844726562 -4.999999987376214e-07
v 0.25999999046325684 -0.14599990844726562 -4.999999987376214e-07
v 0.25999999046325684 -0.3039999306201935 -4.999999987376214e-07
v 0.014999999664723873 -0.3039999306201935 -4.999999987376214e-07
v 0.014999999664723873 -0.15299995243549347 -4.999999987376214e-07
v 0.04199996963143349 -0.15299995243549347 -4.999999987376214e-07
v 0.04199996963143349 -0.07799994945526123 -4.999999987376214e-07
v -0.04399993643164635 -0.07799994945526123 -4.999999987376214e-07
v -0.04399993643164635 -0.15299995243549347 -4.999999987376214e-07
v -0.016999969258904457 -0.15299995243549347 -4.999999987376214e-07
v -0.016999969258904457 -0.3039999306201935 -4.999999987376214e-07
v -0.25999999046325684 -0.3039999306201935 -4.999999987376214e-07
g submesh_0
f 25 24 2
f 25 2 27
f 27 2 1
f 27 1 28
f 26 25 27
f 21 20 22
f 22 20 19
f 22 19 18
f 12 11 13
f 13 11 16
f 13 16 14
f 14 16 15
f 4 3 5
f 5 3 8
f 5 8 6
f 6 8 7
f 16 11 10
f 16 10 23
f 23 10 9
f 23 9 24
f 24 9 3
f 24 3 2
f 16 23 17
f 17 23 22
f 17 22 18
f 9 8 3
