# 13
v 0.12758292257785797 -0.1719740331172943 -0.10098613798618317
v 0.1737392246723175 -0.1719740331172943 -0.10098613798618317
v 0.1737392246723175 0.27802595496177673 -0.10098613798618317
v 0.3069051504135132 0.27802595496177673 -0.10098614543676376
v 0.3608379662036896 0.22459226846694946 -0.10098614543676376
v 0.3608379662036896 0.161317840218544 -0.10098614543676376
v 0.30730676651000977 0.161317840218544 -0.10098614543676376
v 0.30730676651000977 -0.1719740331172943 -0.10098614543676376
v 0.35346296429634094 -0.1719740331172943 -0.10098612308502197
v 0.35346296429634094 -0.27802592515945435 -0.10098612308502197
v 0.12758292257785797 -0.27802592515945435 -0.10098613798618317
v -0.3608378767967224 -0.008032798767089844 -0.10096195340156555
v -0.3258190155029297 0.028345203027129173 -0.10096195340156555
v -0.3608378767967224 0.06846090406179428 -0.10096195340156555
v -0.3608378767967224 0.18625691533088684 -0.10096195340156555
v -0.2688811719417572 0.27802595496177673 -0.10096195340156555
v -0.07026614248752594 0.27802595496177673 -0.10096195340156555
v 0.013214034959673882 0.19649823009967804 -0.10096195340156555
v 0.013214034959673882 0.12397405505180359 -0.10096195340156555
v -0.10483790934085846 0.12397405505180359 -0.10096195340156555
v -0.10483790934085846 0.17697404325008392 -0.10096195340156555
v -0.23178599774837494 0.17697404325008392 -0.10096195340156555
v -0.23178599774837494 0.06702596694231033 -0.10096195340156555
v -0.17700473964214325 0.06702596694231033 -0.10096195340156555
v -0.17700473964214325 -0.018025951460003853 -0.10096195340156555
v -0.23178599774837494 -0.018025951460003853 -0.10096195340156555
v -0.23178599774837494 -0.1719740331172943 -0.10096195340156555
v -0.10483790934085846 -0.1719740331172943 -0.10096195340156555
v -0.10483790934085846 -0.0809740424156189 -0.10096195340156555
v 0.024214019998908043 -0.0809740424156189 -0.10096195340156555
v 0.024214019998908043 -0.18680259585380554 -0.10096195340156555
v -0.06683523207902908 -0.27802595496177673 -0.10096195340156555
v -0.2697451412677765 -0.27802595496177673 -0.10096195340156555
v -0.3608378767967224 -0.18623660504817963 -0.10096195340156555
v 0.10160890221595764 -0.1459999978542328 -0.07501209527254105
v 0.1477651596069336 -0.1459999978542328 -0.07501208782196045
v 0.1477651596069336 0.30399999022483826 -0.07501208782196045
v 0.3175932765007019 0.30399999022483826 -0.07501209527254105
v 0.3868120014667511 0.23542192578315735 -0.07501208782196045
v 0.3868120014667511 0.1353437900543213 -0.07501208782196045
v 0.3332807719707489 0.1353437900543213 -0.07501209527254105
v 0.3332807719707489 -0.1459999978542328 -0.07501209527254105
v 0.37943705916404724 -0.1459999978542328 -0.07501209527254105
v 0.37943705916404724 -0.30399999022483826 -0.07501209527254105
v 0.10160890221595764 -0.30399999022483826 -0.07501209527254105
v -0.3868119418621063 0.0024375151842832565 -0.07498790323734283
v -0.36104631423950195 0.029203128069639206 -0.07498790323734283
v -0.3868119418621063 0.05871877446770668 -0.07498790323734283
v -0.3868119418621063 0.19703125953674316 -0.07498790323734283
v -0.27962443232536316 0.30399999022483826 -0.07498790323734283
v -0.05968692526221275 0.30399999022483826 -0.07498790323734283
v 0.03918807953596115 0.20743748545646667 -0.07498790323734283
v 0.03918807953596115 0.09800001233816147 -0.07498790323734283
v -0.13081195950508118 0.09800001233816147 -0.07498790323734283
v -0.13081195950508118 0.1509999930858612 -0.07498790323734283
v -0.20581194758415222 0.1509999930858612 -0.07498790323734283
v -0.20581194758415222 0.09300000965595245 -0.07498790323734283
v -0.15103068947792053 0.09300000965595245 -0.07498790323734283
v -0.15103068947792053 -0.04399999603629112 -0.07498790323734283
v -0.20581194758415222 -0.04399999603629112 -0.07498790323734283
v -0.20581194758415222 -0.1459999978542328 -0.07498790323734283
v -0.13081195950508118 -0.1459999978542328 -0.07498790323734283
v -0.13081195950508118 -0.054999999701976776 -0.07498790323734283
v 0.05018806457519531 -0.054999999701976776 -0.07498790323734283
v 0.05018806457519531 -0.19754688441753387 -0.07498790323734283
v -0.05606189742684364 -0.30399999022483826 -0.07498790323734283
v -0.2805619239807129 -0.30399999022483826 -0.07498790323734283
v -0.3868119418621063 -0.19693748652935028 -0.07498790323734283
v 0.10160888731479645 -0.1459999978542328 0.07498790323734283
v 0.1477651596069336 -0.1459999978542328 0.07498790323734283
v 0.1477651596069336 0.30399999022483826 0.07498790323734283
v 0.31759321689605713 0.30399999022483826 0.07498789578676224
v 0.3868119716644287 0.23542192578315735 0.07498790323734283
v 0.3868119716644287 0.1353437900543213 0.07498790323734283
v 0.3332807719707489 0.1353437900543213 0.07498790323734283
v 0.3332807719707489 -0.1459999978542328 0.07498790323734283
v 0.37943702936172485 -0.1459999978542328 0.07498790323734283
v 0.37943702936172485 -0.30399999022483826 0.07498790323734283
v 0.10160888731479645 -0.30399999022483826 0.07498790323734283
v -0.3868119418621063 0.0024375151842832565 0.07501208782196045
v -0.36104631423950195 0.029203128069639206 0.07501208782196045
v -0.3868119418621063 0.05871877446770668 0.07501208782196045
v -0.3868119418621063 0.19703125953674316 0.07501208782196045
v -0.27962443232536316 0.30399999022483826 0.07501208782196045
v -0.05968692526221275 0.30399999022483826 0.07501208782196045
v 0.03918807953596115 0.20743748545646667 0.07501208782196045
v 0.03918807953596115 0.09800001233816147 0.07501208782196045
v -0.13081195950508118 0.09800001233816147 0.07501208782196045
v -0.13081195950508118 0.1509999930858612 0.07501208782196045
v -0.20581194758415222 0.1509999930858612 0.07501208782196045
v -0.20581194758415222 0.09300000965595245 0.07501208782196045
v -0.15103068947792053 0.09300000965595245 0.07501208782196045
v -0.15103068947792053 -0.04399999603629112 0.07501208782196045
v -0.20581194758415222 -0.04399999603629112 0.07501208782196045
v -0.20581194758415222 -0.1459999978542328 0.07501208782196045
v -0.13081195950508118 -0.1459999978542328 0.07501208782196045
v -0.13081195950508118 -0.054999999701976776 0.07501208782196045
v 0.05018806457519531 -0.054999999701976776 0.07501208782196045
v 0.05018806457519531 -0.19754688441753387 0.07501208782196045
v -0.05606189742684364 -0.30399999022483826 0.07501208782196045
v -0.2805619239807129 -0.30399999022483826 0.07501208782196045
v -0.3868119418621063 -0.19693748652935028 0.07501208782196045
v 0.12758290767669678 -0.1719740331172943 0.10096195340156555
v 0.17373919486999512 -0.1719740331172943 0.10096195340156555
v 0.17373919486999512 0.27802595496177673 0.10096195340156555
v 0.3069051206111908 0.27802595496177673 0.10096195340156555
v 0.36083799600601196 0.22459226846694946 0.10096195340156555
v 0.36083799600601196 0.161317840218544 0.10096195340156555
v 0.30730676651000977 0.161317840218544 0.10096195340156555
v 0.30730676651000977 -0.1719740331172943 0.10096195340156555
v 0.35346296429634094 -0.1719740331172943 0.10096195340156555
v 0.35346296429634094 -0.27802592515945435 0.10096195340156555
v 0.12758290767669678 -0.27802592515945435 0.10096195340156555
v -0.3608378767967224 -0.008032798767089844 0.10098613798618317
v -0.3258190155029297 0.028345203027129173 0.10098613798618317
v -0.3608378767967224 0.06846090406179428 0.10098613798618317
v -0.3608378767967224 0.18625691533088684 0.10098613798618317
v -0.2688811719417572 0.27802595496177673 0.10098613798618317
v -0.07026614248752594 0.27802595496177673 0.10098613798618317
v 0.013214034959673882 0.19649823009967804 0.10098613798618317
v 0.013214034959673882 0.12397405505180359 0.10098613798618317
v -0.10483790934085846 0.12397405505180359 0.10098613798618317
v -0.10483790934085846 0.17697404325008392 0.10098613798618317
v -0.23178599774837494 0.17697404325008392 0.10098613798618317
v -0.23178599774837494 0.06702596694231033 0.10098613798618317
v -0.17700473964214325 0.06702596694231033 0.10098613798618317
v -0.17700473964214325 -0.018025951460003853 0.10098613798618317
v -0.23178599774837494 -0.018025951460003853 0.10098613798618317
v -0.23178599774837494 -0.1719740331172943 0.10098613798618317
v -0.10483790934085846 -0.1719740331172943 0.10098613798618317
v -0.10483790934085846 -0.0809740424156189 0.10098613798618317
v 0.024214019998908043 -0.0809740424156189 0.10098613798618317
v 0.024214019998908043 -0.18680259585380554 0.10098613798618317
v -0.06683523207902908 -0.27802595496177673 0.10098613798618317
v -0.2697451412677765 -0.27802595496177673 0.10098613798618317
v -0.3608378767967224 -0.18623660504817963 0.10098613798618317
v 0.1477651596069336 -0.1459999978542328 -0.07501208782196045
v 0.1477651596069336 -0.1459999978542328 0.07498790323734283
v 0.1477651596069336 0.30399999022483826 -0.07501208782196045
v 0.1477651596069336 0.30399999022483826 0.07498790323734283
v 0.3175932765007019 0.30399999022483826 -0.07501209527254105
v 0.31759321689605713 0.30399999022483826 0.07498789578676224
v 0.3868120014667511 0.23542192578315735 -0.07501208782196045
v 0.3868119716644287 0.23542192578315735 0.07498790323734283
v 0.3868120014667511 0.1353437900543213 -0.07501208782196045
v 0.3868119716644287 0.1353437900543213 0.07498790323734283
v 0.3332807719707489 0.1353437900543213 -0.07501209527254105
v 0.3332807719707489 0.1353437900543213 0.07498790323734283
v 0.3332807719707489 -0.1459999978542328 -0.07501209527254105
v 0.3332807719707489 -0.1459999978542328 0.07498790323734283
v 0.37943705916404724 -0.1459999978542328 -0.07501209527254105
v 0.37943702936172485 -0.1459999978542328 0.07498790323734283
v 0.37943705916404724 -0.30399999022483826 -0.07501209527254105
v 0.37943702936172485 -0.30399999022483826 0.07498790323734283
v 0.10160890221595764 -0.30399999022483826 -0.07501209527254105
v 0.10160888731479645 -0.30399999022483826 0.07498790323734283
v 0.10160890221595764 -0.1459999978542328 -0.07501209527254105
v 0.10160888731479645 -0.1459999978542328 0.07498790323734283
v -0.36104631423950195 0.029203128069639206 -0.07498790323734283
v -0.36104631423950195 0.029203128069639206 0.07501208782196045
v -0.3868119418621063 0.19703125953674316 -0.07498790323734283
v -0.3868119418621063 0.19703125953674316 0.07501208782196045
v -0.27962443232536316 0.30399999022483826 -0.07498790323734283
v -0.27962443232536316 0.30399999022483826 0.07501208782196045
v -0.05968692526221275 0.30399999022483826 -0.07498790323734283
v -0.05968692526221275 0.30399999022483826 0.07501208782196045
v 0.03918807953596115 0.20743748545646667 -0.07498790323734283
v 0.03918807953596115 0.20743748545646667 0.07501208782196045
v 0.03918807953596115 0.09800001233816147 -0.07498790323734283
v 0.03918807953596115 0.09800001233816147 0.07501208782196045
v -0.13081195950508118 0.09800001233816147 -0.07498790323734283
v -0.13081195950508118 0.09800001233816147 0.07501208782196045
v -0.13081195950508118 0.1509999930858612 -0.07498790323734283
v -0.13081195950508118 0.1509999930858612 0.07501208782196045
v -0.20581194758415222 0.1509999930858612 -0.07498790323734283
v -0.20581194758415222 0.1509999930858612 0.07501208782196045
v -0.20581194758415222 0.09300000965595245 -0.07498790323734283
v -0.20581194758415222 0.09300000965595245 0.07501208782196045
v -0.15103068947792053 0.09300000965595245 -0.07498790323734283
v -0.15103068947792053 0.09300000965595245 0.07501208782196045
v -0.15103068947792053 -0.04399999603629112 -0.07498790323734283
v -0.15103068947792053 -0.04399999603629112 0.07501208782196045
v -0.20581194758415222 -0.04399999603629112 -0.07498790323734283
v -0.20581194758415222 -0.04399999603629112 0.07501208782196045
v -0.20581194758415222 -0.1459999978542328 -0.07498790323734283
v -0.20581194758415222 -0.1459999978542328 0.07501208782196045
v -0.13081195950508118 -0.1459999978542328 -0.07498790323734283
v -0.13081195950508118 -0.1459999978542328 0.07501208782196045
v -0.13081195950508118 -0.054999999701976776 -0.07498790323734283
v -0.13081195950508118 -0.054999999701976776 0.07501208782196045
v 0.05018806457519531 -0.054999999701976776 -0.07498790323734283
v 0.05018806457519531 -0.054999999701976776 0.07501208782196045
v -0.05606189742684364 -0.30399999022483826 -0.07498790323734283
v -0.05606189742684364 -0.30399999022483826 0.07501208782196045
v -0.2805619239807129 -0.30399999022483826 -0.07498790323734283
v -0.2805619239807129 -0.30399999022483826 0.07501208782196045
v 0.1477651596069336 -0.1459999978542328 -0.07501208782196045
v 0.12758292257785797 -0.1719740331172943 -0.10098613798618317
v 0.10160890221595764 -0.1459999978542328 -0.07501209527254105
v 0.1477651596069336 -0.1459999978542328 -0.07501208782196045
v 0.1737392246723175 -0.1719740331172943 -0.10098613798618317
v 0.1477651596069336 0.30399999022483826 -0.07501208782196045
v 0.1477651596069336 -0.1459999978542328 -0.07501208782196045
v 0.1737392246723175 0.27802595496177673 -0.10098613798618317
v 0.3175932765007019 0.30399999022483826 -0.07501209527254105
v 0.1477651596069336 0.30399999022483826 -0.07501208782196045
v 0.3069051504135132 0.27802595496177673 -0.10098614543676376
v 0.3868120014667511 0.23542192578315735 -0.07501208782196045
v 0.3175932765007019 0.30399999022483826 -0.07501209527254105
v 0.3608379662036896 0.22459226846694946 -0.10098614543676376
v 0.3868120014667511 0.23542192578315735 -0.07501208782196045
v 0.3608379662036896 0.161317840218544 -0.10098614543676376
v 0.3332807719707489 0.1353437900543213 -0.07501209527254105
v 0.3608379662036896 0.161317840218544 -0.10098614543676376
v 0.3868120014667511 0.1353437900543213 -0.07501208782196045
v 0.30730676651000977 0.161317840218544 -0.10098614543676376
v 0.30730676651000977 0.161317840218544 -0.10098614543676376
v 0.30730676651000977 -0.1719740331172943 -0.10098614543676376
v 0.37943705916404724 -0.1459999978542328 -0.07501209527254105
v 0.30730676651000977 -0.1719740331172943 -0.10098614543676376
v 0.3332807719707489 -0.1459999978542328 -0.07501209527254105
v 0.35346296429634094 -0.1719740331172943 -0.10098612308502197
v 0.37943705916404724 -0.30399999022483826 -0.07501209527254105
v 0.37943705916404724 -0.1459999978542328 -0.07501209527254105
v 0.35346296429634094 -0.27802592515945435 -0.10098612308502197
v 0.10160890221595764 -0.30399999022483826 -0.07501209527254105
v 0.37943705916404724 -0.30399999022483826 -0.07501209527254105
v 0.10160890221595764 -0.30399999022483826 -0.07501209527254105
v 0.12758292257785797 -0.27802592515945435 -0.10098613798618317
v 0.10160890221595764 -0.1459999978542328 -0.07501209527254105
v 0.12758292257785797 -0.27802592515945435 -0.10098613798618317
v 0.10160890221595764 -0.30399999022483826 -0.07501209527254105
v 0.12758292257785797 -0.1719740331172943 -0.10098613798618317
v -0.36104631423950195 0.029203128069639206 -0.07498790323734283
v -0.3608378767967224 -0.008032798767089844 -0.10096195340156555
v -0.3868119418621063 0.0024375151842832565 -0.07498790323734283
v -0.3258190155029297 0.028345203027129173 -0.10096195340156555
v -0.3868119418621063 0.05871877446770668 -0.07498790323734283
v -0.36104631423950195 0.029203128069639206 -0.07498790323734283
v -0.3608378767967224 0.06846090406179428 -0.10096195340156555
v -0.3868119418621063 0.19703125953674316 -0.07498790323734283
v -0.3868119418621063 0.05871877446770668 -0.07498790323734283
v -0.3608378767967224 0.18625691533088684 -0.10096195340156555
v -0.27962443232536316 0.30399999022483826 -0.07498790323734283
v -0.3868119418621063 0.19703125953674316 -0.07498790323734283
v -0.2688811719417572 0.27802595496177673 -0.10096195340156555
v -0.05968692526221275 0.30399999022483826 -0.07498790323734283
v -0.07026614248752594 0.27802595496177673 -0.10096195340156555
v 0.03918807953596115 0.20743748545646667 -0.07498790323734283
v -0.05968692526221275 0.30399999022483826 -0.07498790323734283
v 0.013214034959673882 0.19649823009967804 -0.10096195340156555
v 0.03918807953596115 0.20743748545646667 -0.07498790323734283
v 0.013214034959673882 0.12397405505180359 -0.10096195340156555
v -0.13081195950508118 0.09800001233816147 -0.07498790323734283
v 0.013214034959673882 0.12397405505180359 -0.10096195340156555
v 0.03918807953596115 0.09800001233816147 -0.07498790323734283
v -0.10483790934085846 0.12397405505180359 -0.10096195340156555
v -0.13081195950508118 0.1509999930858612 -0.07498790323734283
v -0.10483790934085846 0.12397405505180359 -0.10096195340156555
v -0.13081195950508118 0.09800001233816147 -0.07498790323734283
v -0.10483790934085846 0.17697404325008392 -0.10096195340156555
v -0.20581194758415222 0.1509999930858612 -0.07498790323734283
v -0.10483790934085846 0.17697404325008392 -0.10096195340156555
v -0.13081195950508118 0.1509999930858612 -0.07498790323734283
v -0.23178599774837494 0.17697404325008392 -0.10096195340156555
v -0.23178599774837494 0.17697404325008392 -0.10096195340156555
v -0.23178599774837494 0.06702596694231033 -0.10096195340156555
v -0.15103068947792053 0.09300000965595245 -0.07498790323734283
v -0.23178599774837494 0.06702596694231033 -0.10096195340156555
v -0.20581194758415222 0.09300000965595245 -0.07498790323734283
v -0.17700473964214325 0.06702596694231033 -0.10096195340156555
v -0.17700473964214325 0.06702596694231033 -0.10096195340156555
v -0.17700473964214325 -0.018025951460003853 -0.10096195340156555
v -0.20581194758415222 -0.04399999603629112 -0.07498790323734283
v -0.17700473964214325 -0.018025951460003853 -0.10096195340156555
v -0.15103068947792053 -0.04399999603629112 -0.07498790323734283
v -0.23178599774837494 -0.018025951460003853 -0.10096195340156555
v -0.23178599774837494 -0.018025951460003853 -0.10096195340156555
v -0.23178599774837494 -0.1719740331172943 -0.10096195340156555
v -0.13081195950508118 -0.1459999978542328 -0.07498790323734283
v -0.23178599774837494 -0.1719740331172943 -0.10096195340156555
v -0.20581194758415222 -0.1459999978542328 -0.07498790323734283
v -0.10483790934085846 -0.1719740331172943 -0.10096195340156555
v -0.13081195950508118 -0.054999999701976776 -0.07498790323734283
v -0.10483790934085846 -0.1719740331172943 -0.10096195340156555
v -0.13081195950508118 -0.1459999978542328 -0.07498790323734283
v -0.10483790934085846 -0.0809740424156189 -0.10096195340156555
v 0.05018806457519531 -0.054999999701976776 -0.07498790323734283
v -0.10483790934085846 -0.0809740424156189 -0.10096195340156555
v -0.13081195950508118 -0.054999999701976776 -0.07498790323734283
v 0.024214019998908043 -0.0809740424156189 -0.10096195340156555
v 0.024214019998908043 -0.0809740424156189 -0.10096195340156555
v 0.024214019998908043 -0.18680259585380554 -0.10096195340156555
v -0.05606189742684364 -0.30399999022483826 -0.07498790323734283
v -0.06683523207902908 -0.27802595496177673 -0.10096195340156555
v -0.2805619239807129 -0.30399999022483826 -0.07498790323734283
v -0.05606189742684364 -0.30399999022483826 -0.07498790323734283
v -0.2697451412677765 -0.27802595496177673 -0.10096195340156555
v -0.3868119418621063 -0.19693748652935028 -0.07498790323734283
v -0.2805619239807129 -0.30399999022483826 -0.07498790323734283
v -0.3608378767967224 -0.18623660504817963 -0.10096195340156555
v -0.3868119418621063 0.0024375151842832565 -0.07498790323734283
v -0.3868119418621063 -0.19693748652935028 -0.07498790323734283
v 0.10160888731479645 -0.1459999978542328 0.07498790323734283
v 0.17373919486999512 -0.1719740331172943 0.10096195340156555
v 0.1477651596069336 -0.1459999978542328 0.07498790323734283
v 0.12758290767669678 -0.1719740331172943 0.10096195340156555
v 0.17373919486999512 0.27802595496177673 0.10096195340156555
v 0.17373919486999512 -0.1719740331172943 0.10096195340156555
v 0.1477651596069336 0.30399999022483826 0.07498790323734283
v 0.3069051206111908 0.27802595496177673 0.10096195340156555
v 0.31759321689605713 0.30399999022483826 0.07498789578676224
v 0.17373919486999512 0.27802595496177673 0.10096195340156555
v 0.36083799600601196 0.22459226846694946 0.10096195340156555
v 0.3868119716644287 0.23542192578315735 0.07498790323734283
v 0.3868119716644287 0.23542192578315735 0.07498790323734283
v 0.36083799600601196 0.161317840218544 0.10096195340156555
v 0.3868119716644287 0.1353437900543213 0.07498790323734283
v 0.3868119716644287 0.1353437900543213 0.07498790323734283
v 0.30730676651000977 0.161317840218544 0.10096195340156555
v 0.3332807719707489 0.1353437900543213 0.07498790323734283
v 0.36083799600601196 0.161317840218544 0.10096195340156555
v 0.3332807719707489 0.1353437900543213 0.07498790323734283
v 0.30730676651000977 -0.1719740331172943 0.10096195340156555
v 0.3332807719707489 -0.1459999978542328 0.07498790323734283
v 0.30730676651000977 0.161317840218544 0.10096195340156555
v 0.3332807719707489 -0.1459999978542328 0.07498790323734283
v 0.35346296429634094 -0.1719740331172943 0.10096195340156555
v 0.37943702936172485 -0.1459999978542328 0.07498790323734283
v 0.30730676651000977 -0.1719740331172943 0.10096195340156555
v 0.37943702936172485 -0.1459999978542328 0.07498790323734283
v 0.35346296429634094 -0.27802592515945435 0.10096195340156555
v 0.37943702936172485 -0.30399999022483826 0.07498790323734283
v 0.35346296429634094 -0.1719740331172943 0.10096195340156555
v 0.37943702936172485 -0.30399999022483826 0.07498790323734283
v 0.12758290767669678 -0.27802592515945435 0.10096195340156555
v 0.10160888731479645 -0.30399999022483826 0.07498790323734283
v 0.12758290767669678 -0.1719740331172943 0.10096195340156555
v 0.12758290767669678 -0.27802592515945435 0.10096195340156555
v -0.3258190155029297 0.028345203027129173 0.10098613798618317
v -0.36104631423950195 0.029203128069639206 0.07501208782196045
v -0.3608378767967224 -0.008032798767089844 0.10098613798618317
v -0.36104631423950195 0.029203128069639206 0.07501208782196045
v -0.3608378767967224 0.06846090406179428 0.10098613798618317
v -0.3608378767967224 0.18625691533088684 0.10098613798618317
v -0.3868119418621063 0.19703125953674316 0.07501208782196045
v -0.3868119418621063 0.19703125953674316 0.07501208782196045
v -0.2688811719417572 0.27802595496177673 0.10098613798618317
v -0.27962443232536316 0.30399999022483826 0.07501208782196045
v -0.27962443232536316 0.30399999022483826 0.07501208782196045
v -0.07026614248752594 0.27802595496177673 0.10098613798618317
v -0.05968692526221275 0.30399999022483826 0.07501208782196045
v 0.013214034959673882 0.19649823009967804 0.10098613798618317
v 0.03918807953596115 0.20743748545646667 0.07501208782196045
v 0.03918807953596115 0.20743748545646667 0.07501208782196045
v 0.013214034959673882 0.12397405505180359 0.10098613798618317
v 0.03918807953596115 0.09800001233816147 0.07501208782196045
v 0.03918807953596115 0.09800001233816147 0.07501208782196045
v -0.10483790934085846 0.12397405505180359 0.10098613798618317
v -0.13081195950508118 0.09800001233816147 0.07501208782196045
v 0.013214034959673882 0.12397405505180359 0.10098613798618317
v -0.10483790934085846 0.17697404325008392 0.10098613798618317
v -0.10483790934085846 0.12397405505180359 0.10098613798618317
v -0.13081195950508118 0.1509999930858612 0.07501208782196045
v -0.23178599774837494 0.17697404325008392 0.10098613798618317
v -0.20581194758415222 0.1509999930858612 0.07501208782196045
v -0.10483790934085846 0.17697404325008392 0.10098613798618317
v -0.20581194758415222 0.1509999930858612 0.07501208782196045
v -0.23178599774837494 0.06702596694231033 0.10098613798618317
v -0.20581194758415222 0.09300000965595245 0.07501208782196045
v -0.23178599774837494 0.17697404325008392 0.10098613798618317
v -0.20581194758415222 0.09300000965595245 0.07501208782196045
v -0.17700473964214325 0.06702596694231033 0.10098613798618317
v -0.15103068947792053 0.09300000965595245 0.07501208782196045
v -0.23178599774837494 0.06702596694231033 0.10098613798618317
v -0.15103068947792053 0.09300000965595245 0.07501208782196045
v -0.17700473964214325 -0.018025951460003853 0.10098613798618317
v -0.15103068947792053 -0.04399999603629112 0.07501208782196045
v -0.17700473964214325 0.06702596694231033 0.10098613798618317
v -0.15103068947792053 -0.04399999603629112 0.07501208782196045
v -0.23178599774837494 -0.018025951460003853 0.10098613798618317
v -0.20581194758415222 -0.04399999603629112 0.07501208782196045
v -0.17700473964214325 -0.018025951460003853 0.10098613798618317
v -0.20581194758415222 -0.04399999603629112 0.07501208782196045
v -0.23178599774837494 -0.1719740331172943 0.10098613798618317
v -0.20581194758415222 -0.1459999978542328 0.07501208782196045
v -0.23178599774837494 -0.018025951460003853 0.10098613798618317
v -0.20581194758415222 -0.1459999978542328 0.07501208782196045
v -0.10483790934085846 -0.1719740331172943 0.10098613798618317
v -0.13081195950508118 -0.1459999978542328 0.07501208782196045
v -0.23178599774837494 -0.1719740331172943 0.10098613798618317
v -0.10483790934085846 -0.0809740424156189 0.10098613798618317
v -0.10483790934085846 -0.1719740331172943 0.10098613798618317
v -0.13081195950508118 -0.054999999701976776 0.07501208782196045
v 0.024214019998908043 -0.0809740424156189 0.10098613798618317
v 0.05018806457519531 -0.054999999701976776 0.07501208782196045
v -0.10483790934085846 -0.0809740424156189 0.10098613798618317
v 0.05018806457519531 -0.054999999701976776 0.07501208782196045
v 0.024214019998908043 -0.18680259585380554 0.10098613798618317
v 0.05018806457519531 -0.19754688441753387 0.07501208782196045
v 0.024214019998908043 -0.0809740424156189 0.10098613798618317
v 0.05018806457519531 -0.19754688441753387 0.07501208782196045
v -0.06683523207902908 -0.27802595496177673 0.10098613798618317
v -0.05606189742684364 -0.30399999022483826 0.07501208782196045
v -0.05606189742684364 -0.30399999022483826 0.07501208782196045
v -0.2697451412677765 -0.27802595496177673 0.10098613798618317
v -0.2805619239807129 -0.30399999022483826 0.07501208782196045
v -0.2805619239807129 -0.30399999022483826 0.07501208782196045
v -0.3608378767967224 -0.18623660504817963 0.10098613798618317
g submesh_0
f 199 197 198
f 201 198 200
f 227 226 225
f 229 225 228
f 70 36 69
f 69 36 35
f 308 71 138
f 138 71 37
f 138 37 137
f 72 38 140
f 140 38 139
f 73 39 142
f 142 39 141
f 74 40 144
f 144 40 143
f 75 41 146
f 146 41 145
f 217 147 42
f 42 147 148
f 42 148 76
f 77 43 150
f 150 43 149
f 78 44 152
f 152 44 151
f 79 45 154
f 154 45 153
f 338 158 156
f 156 158 157
f 156 157 155
f 195 196 68
f 68 196 102
f 68 102 46
f 46 102 80
f 46 80 47
f 47 80 81
f 83 49 82
f 82 49 48
f 82 48 160
f 160 48 159
f 84 50 162
f 162 50 161
f 85 51 164
f 164 51 163
f 86 52 166
f 166 52 165
f 87 53 168
f 168 53 167
f 88 54 170
f 170 54 169
f 362 89 172
f 172 89 55
f 172 55 171
f 90 56 174
f 174 56 173
f 266 175 57
f 57 175 176
f 57 176 91
f 92 58 178
f 178 58 177
f 272 179 59
f 59 179 180
f 59 180 93
f 94 60 182
f 182 60 181
f 278 183 61
f 61 183 184
f 61 184 95
f 96 62 186
f 186 62 185
f 392 97 188
f 188 97 63
f 188 63 187
f 98 64 190
f 190 64 189
f 191 192 65
f 65 192 99
f 65 99 66
f 66 99 100
f 101 67 194
f 194 67 193
f 110 109 104
f 110 104 112
f 112 104 103
f 112 103 113
f 111 110 112
f 108 107 109
f 109 107 106
f 109 106 105
f 135 134 130
f 130 134 133
f 130 133 131
f 131 133 132
f 116 115 125
f 125 115 128
f 125 128 126
f 126 128 127
f 122 121 123
f 123 121 120
f 123 120 119
f 7 8 2
f 2 8 10
f 2 10 1
f 1 10 11
f 10 8 9
f 3 4 7
f 7 4 5
f 7 5 6
f 32 33 28
f 32 28 31
f 31 28 29
f 31 29 30
f 13 14 23
f 13 23 26
f 26 23 24
f 26 24 25
f 17 18 21
f 21 18 19
f 21 19 20
f 203 202 201
f 201 202 204
f 206 205 204
f 204 205 207
f 209 208 207
f 207 208 210
f 211 40 210
f 210 40 212
f 215 213 214
f 214 213 216
f 218 217 42
f 221 219 220
f 220 219 222
f 224 223 222
f 222 223 225
f 232 230 231
f 231 230 233
f 236 234 235
f 235 234 237
f 239 238 237
f 237 238 240
f 242 241 240
f 240 241 243
f 247 248 246
f 247 246 244
f 244 246 243
f 244 243 245
f 250 249 248
f 248 249 251
f 252 53 251
f 251 53 253
f 256 254 255
f 255 254 257
f 260 258 259
f 259 258 261
f 264 262 263
f 263 262 265
f 267 266 57
f 270 268 269
f 269 268 271
f 273 272 59
f 276 274 275
f 275 274 277
f 279 278 61
f 282 280 281
f 281 280 283
f 286 284 285
f 285 284 287
f 290 288 289
f 289 288 291
f 292 191 65
f 292 65 293
f 293 65 294
f 293 294 295
f 297 296 295
f 295 296 298
f 300 299 298
f 298 299 301
f 303 302 301
f 301 302 235
f 306 304 305
f 305 304 307
f 309 308 138
f 314 315 312
f 314 312 311
f 311 312 310
f 311 310 313
f 318 316 317
f 317 316 314
f 321 319 320
f 320 319 322
f 325 323 324
f 324 323 326
f 329 327 328
f 328 327 330
f 333 331 332
f 332 331 334
f 337 335 336
f 336 335 332
f 339 338 156
f 408 406 409
f 408 409 102
f 102 409 342
f 102 342 80
f 80 342 340
f 80 340 341
f 345 346 82
f 345 82 344
f 344 82 343
f 344 343 340
f 349 347 348
f 348 347 345
f 353 354 352
f 353 352 351
f 351 352 350
f 351 350 348
f 357 355 356
f 356 355 353
f 360 358 359
f 359 358 361
f 363 362 172
f 366 364 365
f 365 364 367
f 370 368 369
f 369 368 371
f 374 372 373
f 373 372 375
f 378 376 377
f 377 376 379
f 382 380 381
f 381 380 383
f 386 384 385
f 385 384 387
f 390 388 389
f 389 388 391
f 393 392 188
f 396 394 395
f 395 394 397
f 400 398 399
f 399 398 401
f 404 402 403
f 403 402 399
f 407 405 406
f 406 405 403
f 104 109 105
f 114 136 129
f 129 136 135
f 129 135 130
f 129 128 114
f 114 128 115
f 117 116 124
f 117 124 118
f 118 124 123
f 118 123 119
f 124 116 125
f 3 7 2
f 28 33 27
f 27 33 34
f 27 34 12
f 27 12 26
f 26 12 13
f 14 15 22
f 22 15 16
f 22 16 21
f 21 16 17
f 23 14 22
