# new_high_03
v -0.3918125033378601 0.30400004982948303 -4.999999987376214e-07
v -0.13337501883506775 0.30400004982948303 -4.999999987376214e-07
v -0.13337501883506775 0.14600005745887756 -4.999999987376214e-07
v -0.16568748652935028 0.14600005745887756 -4.999999987376214e-07
v -0.13337501883506775 5.7220457705398076e-08 -4.999999987376214e-07
v -0.1296875774860382 5.7220457705398076e-08 -4.999999987376214e-07
v -0.05307807773351669 0.30400004982948303 -4.999999987376214e-07
v 0.052140578627586365 0.30400004982948303 -4.999999987376214e-07
v 0.12782813608646393 5.7220457705398076e-08 -4.999999987376214e-07
v 0.13151557743549347 5.7220457705398076e-08 -4.999999987376214e-07
v 0.163828045129776 0.14600005745887756 -4.999999987376214e-07
v 0.12782813608646393 0.14600005745887756 -4.999999987376214e-07
v 0.12782813608646393 0.30400004982948303 -4.999999987376214e-07
v 0.3918125033378601 0.30400004982948303 -4.999999987376214e-07
v 0.3918125033378601 0.14600005745887756 -4.999999987376214e-07
v 0.3318125009536743 0.14600005745887756 -4.999999987376214e-07
v 0.22014060616493225 -0.3039999306201935 -4.999999987376214e-07
v 0.05584373325109482 -0.3039999306201935 -4.999999987376214e-07
v 0.0023125456646084785 -0.08801555633544922 -4.999999987376214e-07
v -0.0013906096573919058 -0.08801555633544922 -4.999999987376214e-07
v -0.0549219511449337 -0.3039999306201935 -4.999999987376214e-07
v -0.22014060616493225 -0.3039999306201935 -4.999999987376214e-07
v -0.333656370639801 0.14600005745887756 -4.999999987376214e-07
v -0.3918125033378601 0.14600005745887756 -4.999999987376214e-07
g submesh_0
f 4 3 2
f 4 2 23
f 23 2 1
f 23 1 24
f 12 11 13
f 13 11 16
f 13 16 14
f 14 16 15
f 22 21 5
f 5 21 20
f 5 20 6
f 6 20 9
f 6 9 7
f 7 9 8
f 19 18 10
f 10 18 17
f 10 17 11
f 11 17 16
f 10 9 19
f 19 9 20
f 23 22 4
f 4 22 5
