# Inside
v -0.002426724648103118 -3.110664850702882e-11 0.006016914267092943
v -0.0023440360091626644 0.0006280826637521386 0.006016914267092943
v -0.002101606223732233 0.0012133612763136625 0.006016914267092943
v -0.0017159540439024568 0.0017159533454105258 0.006016912870109081
v -0.0012133622076362371 0.002101604826748371 0.006016912870109081
v -0.0006280828383751214 0.0023440374061465263 0.006016912870109081
v 1.690929340991687e-10 0.0024267251137644053 0.006016912870109081
v 0.0006280829547904432 0.0023440371733158827 0.006016912870109081
v 0.0012133620912209153 0.0021016045939177275 0.006016912870109081
v 0.001715953811071813 0.0017159540439024568 0.006016912870109081
v 0.0021016052924096584 0.0012133620912209153 0.006016914267092943
v 0.0023440367076545954 0.0006280823145061731 0.006016914267092943
v 0.0024267241824418306 -2.432575252342417e-10 0.006016914267092943
v 0.00234403507784009 -0.0006280830129981041 0.006016912870109081
v 0.002101605525240302 -0.0012133620912209153 0.006016912870109081
v 0.0017159540439024568 -0.0017159543931484222 0.006016912870109081
v 0.0012133622076362371 -0.002101605525240302 0.006016912870109081
v 0.0006280821980908513 -0.002344035543501377 0.006016912870109081
v -2.5520929813893645e-10 -0.002426723251119256 0.006016912870109081
v -0.000628082430921495 -0.002344036241993308 0.006016912870109081
v -0.0012133634882047772 -0.0021016052924096584 0.006016912870109081
v -0.001715953811071813 -0.0017159535782411695 0.006016912870109081
v -0.0021016059909015894 -0.001213362906128168 0.006016912870109081
v -0.002344036241993308 -0.0006280819070525467 0.006016912870109081
v -1.490116086078075e-10 1.3177804680797323e-10 0.003467447590082884
v -1.490116086078075e-10 1.3177804680797323e-10 0.003467447590082884
v -1.490116086078075e-10 1.3177804680797323e-10 0.003467447590082884
v -1.490116086078075e-10 1.3177804680797323e-10 0.003467447590082884
v -1.490116086078075e-10 1.3177804680797323e-10 0.003467447590082884
v -1.490116086078075e-10 1.3177804680797323e-10 0.003467447590082884
v 1.690929340991687e-10 0.0024267251137644053 0.006016912870109081
v -1.490116086078075e-10 1.3177804680797323e-10 0.003467447590082884
v -1.490116086078075e-10 1.3177804680797323e-10 0.003467447590082884
v -1.490116086078075e-10 1.3177804680797323e-10 0.003467447590082884
v -1.490116086078075e-10 1.3177804680797323e-10 0.003467447590082884
v -1.490116086078075e-10 1.3177804680797323e-10 0.003467447590082884
v -1.490116086078075e-10 1.3177804680797323e-10 0.003467447590082884
v -1.490116086078075e-10 1.3177804680797323e-10 0.003467447590082884
v -1.490116086078075e-10 1.3177804680797323e-10 0.003467447590082884
v -1.490116086078075e-10 1.3177804680797323e-10 0.003467447590082884
v -1.490116086078075e-10 1.3177804680797323e-10 0.003467447590082884
v -1.490116086078075e-10 1.3177804680797323e-10 0.003467447590082884
v -1.490116086078075e-10 1.3177804680797323e-10 0.003467447590082884
v -1.490116086078075e-10 1.3177804680797323e-10 0.003467447590082884
v -1.490116086078075e-10 1.3177804680797323e-10 0.003467447590082884
v -1.490116086078075e-10 1.3177804680797323e-10 0.003467447590082884
v -1.490116086078075e-10 1.3177804680797323e-10 0.003467447590082884
v -1.490116086078075e-10 1.3177804680797323e-10 0.003467447590082884
v -1.490116086078075e-10 1.3177804680797323e-10 0.003467447590082884
g submesh_0
f 2 1 25
f 3 2 26
f 4 3 27
f 5 4 28
f 6 5 29
f 7 6 30
f 8 31 32
f 9 8 33
f 10 9 34
f 11 10 35
f 12 11 36
f 13 12 37
f 14 13 38
f 15 14 39
f 16 15 40
f 17 16 41
f 18 17 42
f 19 18 43
f 20 19 44
f 21 20 45
f 22 21 46
f 23 22 47
f 24 23 48
f 1 24 49
