# new_high_06
v -0.21799999475479126 0.056000061333179474 -4.999999987376214e-07
v -0.022000007331371307 0.056000061333179474 -4.999999987376214e-07
v -0.022000007331371307 -0.09099990874528885 -4.999999987376214e-07
v -0.051000021398067474 -0.09099990874528885 -4.999999987376214e-07
v -0.051000021398067474 -0.14599990844726562 -4.999999987376214e-07
v 0.037000007927417755 -0.14599990844726562 -4.999999987376214e-07
v 0.037000007927417755 0.14600005745887756 -4.999999987376214e-07
v -0.051000021398067474 0.14600005745887756 -4.999999987376214e-07
v -0.051000021398067474 0.09565631300210953 -4.999999987376214e-07
v -0.21799999475479126 0.09565631300210953 -4.999999987376214e-07
v -0.21799999475479126 0.19935943186283112 -4.999999987376214e-07
v -0.11362498998641968 0.30400004982948303 -4.999999987376214e-07
v 0.11176563054323196 0.30400004982948303 -4.999999987376214e-07
v 0.21799999475479126 0.19865630567073822 -4.999999987376214e-07
v 0.21799999475479126 -0.1977342963218689 -4.999999987376214e-07
v 0.11176563054323196 -0.3039999306201935 -4.999999987376214e-07
v -0.21799999475479126 -0.3039999306201935 -4.999999987376214e-07
g submesh_0
f 13 12 8
f 8 12 11
f 8 11 9
f 9 11 10
f 3 2 4
f 4 2 1
f 4 1 5
f 5 1 17
f 5 17 6
f 6 17 16
f 6 16 15
f 15 14 7
f 7 14 13
f 7 13 8
f 7 6 15
