# 14
v 0.18879434466362 -0.1719740331172943 -0.10097404569387436
v 0.23495061695575714 -0.1719740331172943 -0.10097404569387436
v 0.23495061695575714 0.27802595496177673 -0.10097404569387436
v 0.3681165277957916 0.27802595496177673 -0.10097404569387436
v 0.4220494031906128 0.22459226846694946 -0.10097404569387436
v 0.4220494031906128 0.16131779551506042 -0.10097404569387436
v 0.3685181438922882 0.16131779551506042 -0.10097404569387436
v 0.3685181438922882 -0.1719740331172943 -0.10097404569387436
v 0.4146743714809418 -0.1719740331172943 -0.10097404569387436
v 0.4146743714809418 -0.27802595496177673 -0.10097404569387436
v 0.18879434466362 -0.27802595496177673 -0.10097404569387436
v -0.4220494031906128 -0.0009740256937220693 -0.10097404569387436
v -0.3513931334018707 -0.0009740256937220693 -0.10097404569387436
v -0.3513931334018707 0.27802595496177673 -0.10097404569387436
v -0.204576313495636 0.27802595496177673 -0.10097404569387436
v 0.009658755734562874 -0.005460681859403849 -0.10097404569387436
v 0.009658755734562874 -0.087025947868824 -0.10097404569387436
v -0.23134122788906097 -0.087025947868824 -0.10097404569387436
v -0.23134122788906097 -0.1719740331172943 -0.10097404569387436
v -0.17834119498729706 -0.1719740331172943 -0.10097404569387436
v -0.17834119498729706 -0.27802595496177673 -0.10097404569387436
v -0.3883931636810303 -0.27802595496177673 -0.10097404569387436
v -0.3883931636810303 -0.1719740331172943 -0.10097404569387436
v -0.34539321064949036 -0.1719740331172943 -0.10097404569387436
v -0.34539321064949036 -0.087025947868824 -0.10097404569387436
v -0.4220494031906128 -0.087025947868824 -0.10097404569387436
v -0.1077878549695015 -0.0009740256937220693 -0.10097404569387436
v -0.23434124886989594 0.17118988931179047 -0.10097404569387436
v -0.23434124886989594 -0.0009740256937220693 -0.10097404569387436
v 0.16282029449939728 -0.1459999978542328 -0.07499999552965164
v 0.20897656679153442 -0.1459999978542328 -0.07499999552965164
v 0.20897656679153442 0.30399999022483826 -0.07499999552965164
v 0.37880468368530273 0.30399999022483826 -0.07499999552965164
v 0.4480234384536743 0.23542188107967377 -0.07499999552965164
v 0.4480234384536743 0.1353437602519989 -0.07499999552965164
v 0.39449217915534973 0.1353437602519989 -0.07499999552965164
v 0.39449217915534973 -0.1459999978542328 -0.07499999552965164
v 0.4406484067440033 -0.1459999978542328 -0.07499999552965164
v 0.4406484067440033 -0.30399999022483826 -0.07499999552965164
v 0.16282029449939728 -0.30399999022483826 -0.07499999552965164
v -0.4480234384536743 0.025000018998980522 -0.07499999552965164
v -0.37736716866493225 0.025000018998980522 -0.07499999552965164
v -0.37736716866493225 0.30399999022483826 -0.07499999552965164
v -0.1916484534740448 0.30399999022483826 -0.07499999552965164
v 0.03563280031085014 0.0032500075176358223 -0.07499999552965164
v 0.03563280031085014 -0.11299999058246613 -0.07499999552965164
v -0.20536717772483826 -0.11299999058246613 -0.07499999552965164
v -0.20536717772483826 -0.1459999978542328 -0.07499999552965164
v -0.15236714482307434 -0.1459999978542328 -0.07499999552965164
v -0.15236714482307434 -0.30399999022483826 -0.07499999552965164
v -0.4143671989440918 -0.30399999022483826 -0.07499999552965164
v -0.4143671989440918 -0.1459999978542328 -0.07499999552965164
v -0.3713672459125519 -0.1459999978542328 -0.07499999552965164
v -0.3713672459125519 -0.11299999058246613 -0.07499999552965164
v -0.4480234384536743 -0.11299999058246613 -0.07499999552965164
v -0.1591171771287918 0.025000018998980522 -0.07499999552965164
v -0.2083672136068344 0.09200002253055573 -0.07499999552965164
v -0.2083672136068344 0.025000018998980522 -0.07499999552965164
v 0.16282029449939728 -0.1459999978542328 0.07499999552965164
v 0.20897656679153442 -0.1459999978542328 0.07499999552965164
v 0.20897656679153442 0.30399999022483826 0.07499999552965164
v 0.37880468368530273 0.30399999022483826 0.07499999552965164
v 0.4480234384536743 0.23542188107967377 0.07499999552965164
v 0.4480234384536743 0.1353437602519989 0.07499999552965164
v 0.39449217915534973 0.1353437602519989 0.07499999552965164
v 0.39449217915534973 -0.1459999978542328 0.07499999552965164
v 0.4406484067440033 -0.1459999978542328 0.07499999552965164
v 0.4406484067440033 -0.30399999022483826 0.07499999552965164
v 0.16282029449939728 -0.30399999022483826 0.07499999552965164
v -0.4480234384536743 0.025000018998980522 0.07499999552965164
v -0.37736716866493225 0.025000018998980522 0.07499999552965164
v -0.37736716866493225 0.30399999022483826 0.07499999552965164
v -0.1916484534740448 0.30399999022483826 0.07499999552965164
v 0.03563280031085014 0.0032500075176358223 0.07499999552965164
v 0.03563280031085014 -0.11299999058246613 0.07499999552965164
v -0.20536717772483826 -0.11299999058246613 0.07499999552965164
v -0.20536717772483826 -0.1459999978542328 0.07499999552965164
v -0.15236714482307434 -0.1459999978542328 0.07499999552965164
v -0.15236714482307434 -0.30399999022483826 0.07499999552965164
v -0.4143671989440918 -0.30399999022483826 0.07499999552965164
v -0.4143671989440918 -0.1459999978542328 0.07499999552965164
v -0.3713672459125519 -0.1459999978542328 0.07499999552965164
v -0.3713672459125519 -0.11299999058246613 0.07499999552965164
v -0.4480234384536743 -0.11299999058246613 0.07499999552965164
v -0.1591171771287918 0.025000018998980522 0.07499999552965164
v -0.2083672136068344 0.09200002253055573 0.07499999552965164
v -0.2083672136068344 0.025000018998980522 0.07499999552965164
v 0.18879434466362 -0.1719740331172943 0.10097404569387436
v 0.23495061695575714 -0.1719740331172943 0.10097404569387436
v 0.23495061695575714 0.27802595496177673 0.10097404569387436
v 0.3681165277957916 0.27802595496177673 0.10097404569387436
v 0.4220494031906128 0.22459226846694946 0.10097404569387436
v 0.4220494031906128 0.16131779551506042 0.10097404569387436
v 0.3685181438922882 0.16131779551506042 0.10097404569387436
v 0.3685181438922882 -0.1719740331172943 0.10097404569387436
v 0.4146743714809418 -0.1719740331172943 0.10097404569387436
v 0.4146743714809418 -0.27802595496177673 0.10097404569387436
v 0.18879434466362 -0.27802595496177673 0.10097404569387436
v -0.4220494031906128 -0.0009740256937220693 0.10097404569387436
v -0.3513931334018707 -0.0009740256937220693 0.10097404569387436
v -0.3513931334018707 0.27802595496177673 0.10097404569387436
v -0.204576313495636 0.27802595496177673 0.10097404569387436
v 0.009658755734562874 -0.005460681859403849 0.10097404569387436
v 0.009658755734562874 -0.087025947868824 0.10097404569387436
v -0.23134122788906097 -0.087025947868824 0.10097404569387436
v -0.23134122788906097 -0.1719740331172943 0.10097404569387436
v -0.17834119498729706 -0.1719740331172943 0.10097404569387436
v -0.17834119498729706 -0.27802595496177673 0.10097404569387436
v -0.3883931636810303 -0.27802595496177673 0.10097404569387436
v -0.3883931636810303 -0.1719740331172943 0.10097404569387436
v -0.34539321064949036 -0.1719740331172943 0.10097404569387436
v -0.34539321064949036 -0.087025947868824 0.10097404569387436
v -0.4220494031906128 -0.087025947868824 0.10097404569387436
v -0.1077878549695015 -0.0009740256937220693 0.10097404569387436
v -0.23434124886989594 0.17118988931179047 0.10097404569387436
v -0.23434124886989594 -0.0009740256937220693 0.10097404569387436
v 0.20897656679153442 -0.1459999978542328 -0.07499999552965164
v 0.20897656679153442 -0.1459999978542328 0.07499999552965164
v 0.20897656679153442 0.30399999022483826 -0.07499999552965164
v 0.20897656679153442 0.30399999022483826 0.07499999552965164
v 0.37880468368530273 0.30399999022483826 -0.07499999552965164
v 0.37880468368530273 0.30399999022483826 0.07499999552965164
v 0.4480234384536743 0.23542188107967377 -0.07499999552965164
v 0.4480234384536743 0.23542188107967377 0.07499999552965164
v 0.4480234384536743 0.1353437602519989 -0.07499999552965164
v 0.4480234384536743 0.1353437602519989 0.07499999552965164
v 0.39449217915534973 0.1353437602519989 -0.07499999552965164
v 0.39449217915534973 0.1353437602519989 0.07499999552965164
v 0.39449217915534973 -0.1459999978542328 -0.07499999552965164
v 0.39449217915534973 -0.1459999978542328 0.07499999552965164
v 0.4406484067440033 -0.1459999978542328 -0.07499999552965164
v 0.4406484067440033 -0.1459999978542328 0.07499999552965164
v 0.4406484067440033 -0.30399999022483826 -0.07499999552965164
v 0.4406484067440033 -0.30399999022483826 0.07499999552965164
v 0.16282029449939728 -0.30399999022483826 -0.07499999552965164
v 0.16282029449939728 -0.30399999022483826 0.07499999552965164
v 0.16282029449939728 -0.1459999978542328 -0.07499999552965164
v 0.16282029449939728 -0.1459999978542328 0.07499999552965164
v -0.37736716866493225 0.025000018998980522 -0.07499999552965164
v -0.37736716866493225 0.025000018998980522 0.07499999552965164
v -0.37736716866493225 0.30399999022483826 -0.07499999552965164
v -0.37736716866493225 0.30399999022483826 0.07499999552965164
v -0.1916484534740448 0.30399999022483826 -0.07499999552965164
v -0.1916484534740448 0.30399999022483826 0.07499999552965164
v 0.03563280031085014 -0.11299999058246613 -0.07499999552965164
v 0.03563280031085014 -0.11299999058246613 0.07499999552965164
v -0.20536717772483826 -0.11299999058246613 -0.07499999552965164
v -0.20536717772483826 -0.11299999058246613 0.07499999552965164
v -0.20536717772483826 -0.1459999978542328 -0.07499999552965164
v -0.20536717772483826 -0.1459999978542328 0.07499999552965164
v -0.15236714482307434 -0.1459999978542328 -0.07499999552965164
v -0.15236714482307434 -0.1459999978542328 0.07499999552965164
v -0.15236714482307434 -0.30399999022483826 -0.07499999552965164
v -0.15236714482307434 -0.30399999022483826 0.07499999552965164
v -0.4143671989440918 -0.30399999022483826 -0.07499999552965164
v -0.4143671989440918 -0.30399999022483826 0.07499999552965164
v -0.4143671989440918 -0.1459999978542328 -0.07499999552965164
v -0.4143671989440918 -0.1459999978542328 0.07499999552965164
v -0.3713672459125519 -0.1459999978542328 -0.07499999552965164
v -0.3713672459125519 -0.1459999978542328 0.07499999552965164
v -0.3713672459125519 -0.11299999058246613 -0.07499999552965164
v -0.3713672459125519 -0.11299999058246613 0.07499999552965164
v -0.4480234384536743 -0.11299999058246613 -0.07499999552965164
v -0.4480234384536743 -0.11299999058246613 0.07499999552965164
v -0.4480234384536743 0.025000018998980522 -0.07499999552965164
v -0.4480234384536743 0.025000018998980522 0.07499999552965164
v -0.2083672136068344 0.09200002253055573 -0.07499999552965164
v -0.2083672136068344 0.09200002253055573 0.07499999552965164
v -0.2083672136068344 0.025000018998980522 -0.07499999552965164
v -0.2083672136068344 0.025000018998980522 0.07499999552965164
v -0.1591171771287918 0.025000018998980522 -0.07499999552965164
v -0.1591171771287918 0.025000018998980522 0.07499999552965164
v 0.20897656679153442 -0.1459999978542328 -0.07499999552965164
v 0.18879434466362 -0.1719740331172943 -0.10097404569387436
v 0.16282029449939728 -0.1459999978542328 -0.07499999552965164
v 0.23495061695575714 -0.1719740331172943 -0.10097404569387436
v 0.20897656679153442 0.30399999022483826 -0.07499999552965164
v 0.23495061695575714 -0.1719740331172943 -0.10097404569387436
v 0.20897656679153442 -0.1459999978542328 -0.07499999552965164
v 0.23495061695575714 0.27802595496177673 -0.10097404569387436
v 0.37880468368530273 0.30399999022483826 -0.07499999552965164
v 0.23495061695575714 0.27802595496177673 -0.10097404569387436
v 0.20897656679153442 0.30399999022483826 -0.07499999552965164
v 0.3681165277957916 0.27802595496177673 -0.10097404569387436
v 0.4480234384536743 0.23542188107967377 -0.07499999552965164
v 0.37880468368530273 0.30399999022483826 -0.07499999552965164
v 0.4220494031906128 0.22459226846694946 -0.10097404569387436
v 0.4480234384536743 0.23542188107967377 -0.07499999552965164
v 0.4220494031906128 0.16131779551506042 -0.10097404569387436
v 0.39449217915534973 0.1353437602519989 -0.07499999552965164
v 0.4220494031906128 0.16131779551506042 -0.10097404569387436
v 0.4480234384536743 0.1353437602519989 -0.07499999552965164
v 0.3685181438922882 0.16131779551506042 -0.10097404569387436
v 0.3685181438922882 0.16131779551506042 -0.10097404569387436
v 0.3685181438922882 -0.1719740331172943 -0.10097404569387436
v 0.4406484067440033 -0.1459999978542328 -0.07499999552965164
v 0.3685181438922882 -0.1719740331172943 -0.10097404569387436
v 0.39449217915534973 -0.1459999978542328 -0.07499999552965164
v 0.4146743714809418 -0.1719740331172943 -0.10097404569387436
v 0.4146743714809418 -0.1719740331172943 -0.10097404569387436
v 0.4146743714809418 -0.27802595496177673 -0.10097404569387436
v 0.16282029449939728 -0.30399999022483826 -0.07499999552965164
v 0.4146743714809418 -0.27802595496177673 -0.10097404569387436
v 0.4406484067440033 -0.30399999022483826 -0.07499999552965164
v 0.18879434466362 -0.27802595496177673 -0.10097404569387436
v 0.16282029449939728 -0.1459999978542328 -0.07499999552965164
v 0.18879434466362 -0.27802595496177673 -0.10097404569387436
v 0.16282029449939728 -0.30399999022483826 -0.07499999552965164
v 0.18879434466362 -0.1719740331172943 -0.10097404569387436
v -0.37736716866493225 0.025000018998980522 -0.07499999552965164
v -0.4220494031906128 -0.0009740256937220693 -0.10097404569387436
v -0.4480234384536743 0.025000018998980522 -0.07499999552965164
v -0.3513931334018707 -0.0009740256937220693 -0.10097404569387436
v -0.37736716866493225 0.30399999022483826 -0.07499999552965164
v -0.3513931334018707 -0.0009740256937220693 -0.10097404569387436
v -0.37736716866493225 0.025000018998980522 -0.07499999552965164
v -0.3513931334018707 0.27802595496177673 -0.10097404569387436
v -0.1916484534740448 0.30399999022483826 -0.07499999552965164
v -0.3513931334018707 0.27802595496177673 -0.10097404569387436
v -0.37736716866493225 0.30399999022483826 -0.07499999552965164
v -0.204576313495636 0.27802595496177673 -0.10097404569387436
v -0.1916484534740448 0.30399999022483826 -0.07499999552965164
v 0.009658755734562874 -0.005460681859403849 -0.10097404569387436
v 0.009658755734562874 -0.087025947868824 -0.10097404569387436
v -0.20536717772483826 -0.11299999058246613 -0.07499999552965164
v 0.009658755734562874 -0.087025947868824 -0.10097404569387436
v 0.03563280031085014 -0.11299999058246613 -0.07499999552965164
v -0.23134122788906097 -0.087025947868824 -0.10097404569387436
v -0.23134122788906097 -0.087025947868824 -0.10097404569387436
v -0.23134122788906097 -0.1719740331172943 -0.10097404569387436
v -0.15236714482307434 -0.1459999978542328 -0.07499999552965164
v -0.23134122788906097 -0.1719740331172943 -0.10097404569387436
v -0.20536717772483826 -0.1459999978542328 -0.07499999552965164
v -0.17834119498729706 -0.1719740331172943 -0.10097404569387436
v -0.17834119498729706 -0.1719740331172943 -0.10097404569387436
v -0.17834119498729706 -0.27802595496177673 -0.10097404569387436
v -0.4143671989440918 -0.30399999022483826 -0.07499999552965164
v -0.17834119498729706 -0.27802595496177673 -0.10097404569387436
v -0.15236714482307434 -0.30399999022483826 -0.07499999552965164
v -0.3883931636810303 -0.27802595496177673 -0.10097404569387436
v -0.4143671989440918 -0.1459999978542328 -0.07499999552965164
v -0.3883931636810303 -0.27802595496177673 -0.10097404569387436
v -0.4143671989440918 -0.30399999022483826 -0.07499999552965164
v -0.3883931636810303 -0.1719740331172943 -0.10097404569387436
v -0.3713672459125519 -0.1459999978542328 -0.07499999552965164
v -0.3883931636810303 -0.1719740331172943 -0.10097404569387436
v -0.4143671989440918 -0.1459999978542328 -0.07499999552965164
v -0.34539321064949036 -0.1719740331172943 -0.10097404569387436
v -0.3713672459125519 -0.11299999058246613 -0.07499999552965164
v -0.34539321064949036 -0.1719740331172943 -0.10097404569387436
v -0.3713672459125519 -0.1459999978542328 -0.07499999552965164
v -0.34539321064949036 -0.087025947868824 -0.10097404569387436
v -0.4480234384536743 -0.11299999058246613 -0.07499999552965164
v -0.34539321064949036 -0.087025947868824 -0.10097404569387436
v -0.3713672459125519 -0.11299999058246613 -0.07499999552965164
v -0.4220494031906128 -0.087025947868824 -0.10097404569387436
v -0.4480234384536743 0.025000018998980522 -0.07499999552965164
v -0.4220494031906128 -0.087025947868824 -0.10097404569387436
v -0.4480234384536743 -0.11299999058246613 -0.07499999552965164
v -0.4220494031906128 -0.0009740256937220693 -0.10097404569387436
v -0.2083672136068344 0.09200002253055573 -0.07499999552965164
v -0.1077878549695015 -0.0009740256937220693 -0.10097404569387436
v -0.1591171771287918 0.025000018998980522 -0.07499999552965164
v -0.23434124886989594 0.17118988931179047 -0.10097404569387436
v -0.23434124886989594 0.17118988931179047 -0.10097404569387436
v -0.23434124886989594 -0.0009740256937220693 -0.10097404569387436
v -0.1591171771287918 0.025000018998980522 -0.07499999552965164
v -0.23434124886989594 -0.0009740256937220693 -0.10097404569387436
v -0.2083672136068344 0.025000018998980522 -0.07499999552965164
v -0.1077878549695015 -0.0009740256937220693 -0.10097404569387436
v 0.16282029449939728 -0.1459999978542328 0.07499999552965164
v 0.23495061695575714 -0.1719740331172943 0.10097404569387436
v 0.20897656679153442 -0.1459999978542328 0.07499999552965164
v 0.18879434466362 -0.1719740331172943 0.10097404569387436
v 0.23495061695575714 0.27802595496177673 0.10097404569387436
v 0.23495061695575714 -0.1719740331172943 0.10097404569387436
v 0.20897656679153442 0.30399999022483826 0.07499999552965164
v 0.3681165277957916 0.27802595496177673 0.10097404569387436
v 0.37880468368530273 0.30399999022483826 0.07499999552965164
v 0.23495061695575714 0.27802595496177673 0.10097404569387436
v 0.4220494031906128 0.22459226846694946 0.10097404569387436
v 0.4480234384536743 0.23542188107967377 0.07499999552965164
v 0.4480234384536743 0.23542188107967377 0.07499999552965164
v 0.4220494031906128 0.16131779551506042 0.10097404569387436
v 0.4480234384536743 0.1353437602519989 0.07499999552965164
v 0.4480234384536743 0.1353437602519989 0.07499999552965164
v 0.3685181438922882 0.16131779551506042 0.10097404569387436
v 0.39449217915534973 0.1353437602519989 0.07499999552965164
v 0.4220494031906128 0.16131779551506042 0.10097404569387436
v 0.39449217915534973 0.1353437602519989 0.07499999552965164
v 0.3685181438922882 -0.1719740331172943 0.10097404569387436
v 0.39449217915534973 -0.1459999978542328 0.07499999552965164
v 0.3685181438922882 0.16131779551506042 0.10097404569387436
v 0.39449217915534973 -0.1459999978542328 0.07499999552965164
v 0.4146743714809418 -0.1719740331172943 0.10097404569387436
v 0.4406484067440033 -0.1459999978542328 0.07499999552965164
v 0.3685181438922882 -0.1719740331172943 0.10097404569387436
v 0.4406484067440033 -0.1459999978542328 0.07499999552965164
v 0.4146743714809418 -0.27802595496177673 0.10097404569387436
v 0.4406484067440033 -0.30399999022483826 0.07499999552965164
v 0.4146743714809418 -0.1719740331172943 0.10097404569387436
v 0.4406484067440033 -0.30399999022483826 0.07499999552965164
v 0.18879434466362 -0.27802595496177673 0.10097404569387436
v 0.16282029449939728 -0.30399999022483826 0.07499999552965164
v 0.4146743714809418 -0.27802595496177673 0.10097404569387436
v 0.18879434466362 -0.1719740331172943 0.10097404569387436
v 0.18879434466362 -0.27802595496177673 0.10097404569387436
v -0.4480234384536743 0.025000018998980522 0.07499999552965164
v -0.3513931334018707 -0.0009740256937220693 0.10097404569387436
v -0.37736716866493225 0.025000018998980522 0.07499999552965164
v -0.4220494031906128 -0.0009740256937220693 0.10097404569387436
v -0.3513931334018707 0.27802595496177673 0.10097404569387436
v -0.3513931334018707 -0.0009740256937220693 0.10097404569387436
v -0.37736716866493225 0.30399999022483826 0.07499999552965164
v -0.204576313495636 0.27802595496177673 0.10097404569387436
v -0.1916484534740448 0.30399999022483826 0.07499999552965164
v -0.3513931334018707 0.27802595496177673 0.10097404569387436
v -0.1916484534740448 0.30399999022483826 0.07499999552965164
v 0.009658755734562874 -0.005460681859403849 0.10097404569387436
v 0.03563280031085014 0.0032500075176358223 0.07499999552965164
v 0.009658755734562874 -0.087025947868824 0.10097404569387436
v 0.03563280031085014 -0.11299999058246613 0.07499999552965164
v 0.03563280031085014 -0.11299999058246613 0.07499999552965164
v -0.23134122788906097 -0.087025947868824 0.10097404569387436
v -0.20536717772483826 -0.11299999058246613 0.07499999552965164
v 0.009658755734562874 -0.087025947868824 0.10097404569387436
v -0.20536717772483826 -0.11299999058246613 0.07499999552965164
v -0.23134122788906097 -0.1719740331172943 0.10097404569387436
v -0.20536717772483826 -0.1459999978542328 0.07499999552965164
v -0.23134122788906097 -0.087025947868824 0.10097404569387436
v -0.20536717772483826 -0.1459999978542328 0.07499999552965164
v -0.17834119498729706 -0.1719740331172943 0.10097404569387436
v -0.15236714482307434 -0.1459999978542328 0.07499999552965164
v -0.23134122788906097 -0.1719740331172943 0.10097404569387436
v -0.15236714482307434 -0.1459999978542328 0.07499999552965164
v -0.17834119498729706 -0.27802595496177673 0.10097404569387436
v -0.15236714482307434 -0.30399999022483826 0.07499999552965164
v -0.17834119498729706 -0.1719740331172943 0.10097404569387436
v -0.15236714482307434 -0.30399999022483826 0.07499999552965164
v -0.3883931636810303 -0.27802595496177673 0.10097404569387436
v -0.4143671989440918 -0.30399999022483826 0.07499999552965164
v -0.17834119498729706 -0.27802595496177673 0.10097404569387436
v -0.3883931636810303 -0.1719740331172943 0.10097404569387436
v -0.3883931636810303 -0.27802595496177673 0.10097404569387436
v -0.4143671989440918 -0.1459999978542328 0.07499999552965164
v -0.34539321064949036 -0.1719740331172943 0.10097404569387436
v -0.3713672459125519 -0.1459999978542328 0.07499999552965164
v -0.3883931636810303 -0.1719740331172943 0.10097404569387436
v -0.34539321064949036 -0.087025947868824 0.10097404569387436
v -0.34539321064949036 -0.1719740331172943 0.10097404569387436
v -0.3713672459125519 -0.11299999058246613 0.07499999552965164
v -0.4220494031906128 -0.087025947868824 0.10097404569387436
v -0.4480234384536743 -0.11299999058246613 0.07499999552965164
v -0.34539321064949036 -0.087025947868824 0.10097404569387436
v -0.4220494031906128 -0.0009740256937220693 0.10097404569387436
v -0.4220494031906128 -0.087025947868824 0.10097404569387436
v -0.23434124886989594 0.17118988931179047 0.10097404569387436
v -0.1077878549695015 -0.0009740256937220693 0.10097404569387436
v -0.2083672136068344 0.09200002253055573 0.07499999552965164
v -0.23434124886989594 -0.0009740256937220693 0.10097404569387436
v -0.2083672136068344 0.025000018998980522 0.07499999552965164
v -0.23434124886989594 0.17118988931179047 0.10097404569387436
v -0.2083672136068344 0.025000018998980522 0.07499999552965164
v -0.1077878549695015 -0.0009740256937220693 0.10097404569387436
v -0.1591171771287918 0.025000018998980522 0.07499999552965164
v -0.23434124886989594 -0.0009740256937220693 0.10097404569387436
g submesh_0
f 60 31 59
f 59 31 30
f 275 61 118
f 118 61 32
f 118 32 117
f 62 33 120
f 120 33 119
f 63 34 122
f 122 34 121
f 64 35 124
f 124 35 123
f 65 36 126
f 126 36 125
f 194 127 37
f 37 127 128
f 37 128 66
f 67 38 130
f 130 38 129
f 200 131 39
f 39 131 132
f 39 132 68
f 69 40 134
f 134 40 133
f 306 138 136
f 136 138 137
f 136 137 135
f 71 42 70
f 70 42 41
f 312 72 140
f 140 72 43
f 140 43 139
f 73 44 142
f 142 44 141
f 75 46 74
f 74 46 45
f 74 45 144
f 144 45 143
f 76 47 146
f 146 47 145
f 229 147 48
f 48 147 148
f 48 148 77
f 78 49 150
f 150 49 149
f 235 151 50
f 50 151 152
f 50 152 79
f 80 51 154
f 154 51 153
f 343 81 156
f 156 81 52
f 156 52 155
f 82 53 158
f 158 53 157
f 349 83 160
f 160 83 54
f 160 54 159
f 84 55 162
f 162 55 161
f 355 166 164
f 164 166 165
f 164 165 163
f 357 86 85
f 85 86 57
f 85 57 56
f 265 167 58
f 58 167 168
f 58 168 87
f 172 171 170
f 170 171 169
f 95 94 89
f 95 89 97
f 97 89 88
f 97 88 98
f 96 95 97
f 93 92 94
f 94 92 91
f 94 91 90
f 116 115 100
f 116 100 112
f 112 100 99
f 112 99 113
f 107 106 108
f 108 106 111
f 108 111 109
f 109 111 110
f 7 8 2
f 2 8 10
f 2 10 1
f 1 10 11
f 10 8 9
f 3 4 7
f 7 4 5
f 7 5 6
f 28 29 13
f 13 29 25
f 13 25 12
f 12 25 26
f 19 20 21
f 19 21 24
f 24 21 22
f 24 22 23
f 175 173 174
f 174 173 176
f 179 177 178
f 178 177 180
f 183 181 182
f 182 181 184
f 186 185 184
f 184 185 187
f 188 35 187
f 187 35 189
f 192 190 191
f 191 190 193
f 195 194 37
f 198 196 197
f 197 196 199
f 201 200 39
f 204 202 203
f 203 202 205
f 208 206 207
f 207 206 209
f 212 210 211
f 211 210 213
f 216 214 215
f 215 214 217
f 220 218 219
f 219 218 221
f 46 224 223
f 46 223 45
f 45 223 221
f 45 221 222
f 227 225 226
f 226 225 228
f 230 229 48
f 233 231 232
f 232 231 234
f 236 235 50
f 239 237 238
f 238 237 240
f 243 241 242
f 242 241 244
f 247 245 246
f 246 245 248
f 251 249 250
f 250 249 252
f 255 253 254
f 254 253 256
f 259 257 258
f 258 257 260
f 263 261 262
f 262 261 264
f 266 265 58
f 269 267 268
f 268 267 270
f 273 271 272
f 272 271 274
f 276 275 118
f 281 282 279
f 281 279 278
f 278 279 277
f 278 277 280
f 285 283 284
f 284 283 281
f 288 286 287
f 287 286 289
f 292 290 291
f 291 290 293
f 296 294 295
f 295 294 297
f 300 298 299
f 299 298 301
f 304 302 303
f 303 302 305
f 307 306 136
f 310 308 309
f 309 308 311
f 313 312 140
f 316 314 315
f 315 314 317
f 321 322 320
f 321 320 319
f 319 320 318
f 319 318 315
f 325 323 324
f 324 323 326
f 329 327 328
f 328 327 330
f 333 331 332
f 332 331 334
f 337 335 336
f 336 335 338
f 341 339 340
f 340 339 342
f 344 343 156
f 347 345 346
f 346 345 348
f 350 349 160
f 353 351 352
f 352 351 354
f 356 355 164
f 358 357 85
f 361 359 360
f 360 359 362
f 365 363 364
f 364 363 366
f 89 94 90
f 103 102 115
f 115 102 101
f 115 101 100
f 105 104 114
f 114 104 103
f 114 103 115
f 116 112 105
f 105 112 111
f 105 111 106
f 116 105 114
f 3 7 2
f 13 14 28
f 28 14 15
f 28 15 16
f 28 16 27
f 27 16 17
f 27 17 18
f 19 24 18
f 18 24 25
f 18 25 29
f 27 18 29
