# complete02
v -0.3170001208782196 -0.1459999978542328 -4.999999987376214e-07
v -0.27600035071372986 -0.1459999978542328 -4.999999987376214e-07
v -0.27600035071372986 0.1470000296831131 -4.999999987376214e-07
v -0.3170001208782196 0.1470000296831131 -4.999999987376214e-07
v -0.3170001208782196 0.30399999022483826 -4.999999987376214e-07
v -0.11304686963558197 0.30399999022483826 -4.999999987376214e-07
v -0.00046874998952262104 0.11387502402067184 -4.999999987376214e-07
v 0.11028075963258743 0.30399999022483826 -4.999999987376214e-07
v 0.31699949502944946 0.30399999022483826 -4.999999987376214e-07
v 0.31699949502944946 0.1470000296831131 -4.999999987376214e-07
v 0.2750000059604645 0.1470000296831131 -4.999999987376214e-07
v 0.2750000059604645 -0.1459999978542328 -4.999999987376214e-07
v 0.31699949502944946 -0.1459999978542328 -4.999999987376214e-07
v 0.31699949502944946 -0.30399999022483826 -4.999999987376214e-07
v 0.06699950993061066 -0.30399999022483826 -4.999999987376214e-07
v 0.06699950993061066 -0.1459999978542328 -4.999999987376214e-07
v 0.11199951171875 -0.1459999978542328 -4.999999987376214e-07
v 0.11199951171875 0.0061250114813447 -4.999999987376214e-07
v 0.03984374925494194 -0.11017186939716339 -4.999999987376214e-07
v -0.03878173604607582 -0.11017186939716339 -4.999999987376214e-07
v -0.10999999940395355 0.006000003777444363 -4.999999987376214e-07
v -0.10999999940395355 -0.1459999978542328 -4.999999987376214e-07
v -0.06600036472082138 -0.1459999978542328 -4.999999987376214e-07
v -0.06600036472082138 -0.30399999022483826 -4.999999987376214e-07
v -0.3170001208782196 -0.30399999022483826 -4.999999987376214e-07
g submesh_0
f 22 21 2
f 22 2 24
f 24 2 1
f 24 1 25
f 23 22 24
f 13 12 14
f 14 12 17
f 14 17 15
f 15 17 16
f 10 9 11
f 11 9 8
f 11 8 7
f 19 18 21
f 21 18 7
f 21 7 3
f 3 7 6
f 3 6 4
f 4 6 5
f 21 20 19
f 2 21 3
f 7 18 11
f 11 18 17
f 11 17 12
