# complete04
v -0.22499999403953552 -0.04999999701976776 -4.999999987376214e-07
v -0.06599975377321243 -0.04999999701976776 -4.999999987376214e-07
v -0.06599975377321243 -0.1459999978542328 -4.999999987376214e-07
v 0.002999877789989114 -0.1459999978542328 -4.999999987376214e-07
v 0.002999877789989114 0.1470000296831131 -4.999999987376214e-07
v -0.044999998062849045 0.1470000296831131 -4.999999987376214e-07
v -0.044999998062849045 0.30399999022483826 -4.999999987376214e-07
v 0.22499999403953552 0.30399999022483826 -4.999999987376214e-07
v 0.22499999403953552 0.1470000296831131 -4.999999987376214e-07
v 0.18400023877620697 0.1470000296831131 -4.999999987376214e-07
v 0.18400023877620697 -0.1459999978542328 -4.999999987376214e-07
v 0.22499999403953552 -0.1459999978542328 -4.999999987376214e-07
v 0.22499999403953552 -0.30399999022483826 -4.999999987376214e-07
v -0.22499999403953552 -0.30399999022483826 -4.999999987376214e-07
g submesh_0
f 13 12 14
f 14 12 11
f 14 11 4
f 4 11 10
f 4 10 5
f 5 10 7
f 5 7 6
f 9 8 10
f 10 8 7
f 2 1 3
f 3 1 14
f 3 14 4
