# new_high_05
v -0.13249999284744263 -0.14599990844726562 -4.999999987376214e-07
v -0.09049995243549347 -0.14599990844726562 -4.999999987376214e-07
v -0.09049995243549347 0.14600005745887756 -4.999999987376214e-07
v -0.13249999284744263 0.14600005745887756 -4.999999987376214e-07
v -0.13249999284744263 0.30400004982948303 -4.999999987376214e-07
v 0.1325000375509262 0.30400004982948303 -4.999999987376214e-07
v 0.1325000375509262 0.14600005745887756 -4.999999987376214e-07
v 0.09050002694129944 0.14600005745887756 -4.999999987376214e-07
v 0.09050002694129944 -0.14599990844726562 -4.999999987376214e-07
v 0.1325000375509262 -0.14599990844726562 -4.999999987376214e-07
v 0.1325000375509262 -0.3039999306201935 -4.999999987376214e-07
v -0.13249999284744263 -0.3039999306201935 -4.999999987376214e-07
g submesh_0
f 9 8 2
f 9 2 11
f 11 2 1
f 11 1 12
f 10 9 11
f 4 3 5
f 5 3 8
f 5 8 6
f 6 8 7
f 2 8 3
