# highscore_dim
v 5.160058498382568 2.404325246810913 -2.273736618907049e-14
v 5.161717891693115 -0.1273607611656189 -2.273736618907049e-14
v 5.143296241760254 -0.28692877292633057 -2.273736618907049e-14
v 5.090837478637695 -0.4335484206676483 -2.273736618907049e-14
v 5.008547306060791 -0.5629910826683044 -2.273736618907049e-14
v 4.900634765625 -0.6710289716720581 -2.273736618907049e-14
v 4.77130651473999 -0.753433883190155 -2.273736618907049e-14
v 4.6247711181640625 -0.8059777021408081 -2.273736618907049e-14
v 4.465236186981201 -0.8244316577911377 -2.273736618907049e-14
v -4.465989112854004 -0.8243500590324402 -2.273736618907049e-14
v -4.625341892242432 -0.806130588054657 -2.273736618907049e-14
v -4.77140474319458 -0.7541919350624084 -2.273736618907049e-14
v -4.900084495544434 -0.672614336013794 -2.273736618907049e-14
v -5.007292747497559 -0.5654776692390442 -2.273736618907049e-14
v -5.088934898376465 -0.4368622601032257 -2.273736618907049e-14
v -5.140922546386719 -0.2908478379249573 -2.273736618907049e-14
v -5.159160614013672 -0.13151457905769348 -2.273736618907049e-14
v -5.160891532897949 2.4027485847473145 -2.273736618907049e-14
v -4.77140474319458 -0.7541919350624084 -2.273736618907049e-14
v -5.140922546386719 -0.2908478379249573 -2.273736618907049e-14
g submesh_0
f 3 2 17
f 17 2 1
f 17 1 18
f 10 9 17
f 10 17 11
f 11 17 16
f 11 16 12
f 14 13 15
f 15 13 19
f 15 19 20
f 6 5 17
f 17 5 4
f 17 4 3
f 9 8 17
f 17 8 7
f 17 7 6
