# COL
v -0.0006609414122067392 -0.00038159641553647816 4.4587028241949156e-05
v -0.0007371827960014343 -0.00019753148080781102 4.4587028241949156e-05
v -0.0007028418476693332 -0.00040578903281129897 6.935492274351418e-05
v -0.0007839180179871619 -0.00021005139569751918 6.935492274351418e-05
v -0.0009529435192234814 -0.0005501810810528696 0.0019045878434553742
v -0.0010628713062033057 -0.0002848007425200194 0.001904587959870696
v -0.001037972280755639 5.188343088491365e-09 0.0019262608839198947
v -0.0010026036761701107 0.00026864500250667334 0.0019262608839198947
v -0.0008989115594886243 0.0005189808434806764 0.0019262608839198947
v -0.0007339586154557765 0.0007339533767662942 0.0019262608839198947
v -0.0005189861403778195 0.0008989089401438832 0.0019262608839198947
v -0.0002686476509552449 0.0010026036761701107 0.0019262608839198947
v -2.775557396126769e-18 0.0010379775194451213 0.0019262608839198947
v 0.0002686476509552449 0.0010026035597547889 0.0019262608839198947
v 0.0005189861403778195 0.0008989088819362223 0.0019262608839198947
v 0.0007339586154557765 0.0007339533185586333 0.0019262608839198947
v 0.0008989115594886243 0.0005189808434806764 0.0019262608839198947
v 0.0010026036761701107 0.00026864500250667334 0.0019262608839198947
v 0.001037972280755639 5.188342200312945e-09 0.0019262608839198947
v 0.0010026036761701107 -0.0002686450898181647 0.0019262608839198947
v 0.0008989115594886243 -0.0005189913790673018 0.0019262608839198947
v 0.0007339586154557765 -0.0007339534931816161 0.0019262608839198947
v 0.0005189861403778195 -0.0008989089983515441 0.0019262608839198947
v 0.0002686476509552449 -0.0010026037925854325 0.0019262608839198947
v -2.2204459996194763e-18 -0.0010379775194451213 0.0019262608839198947
v -0.0002686476509552449 -0.0010026036761701107 0.0019262608839198947
v -0.0005189861403778195 -0.0008989089401438832 0.0019262608839198947
v -0.0007339586154557765 -0.0007339533767662942 0.0019262608839198947
v -0.0008989115594886243 -0.0005189913790673018 0.0019262608839198947
v -0.0010026036761701107 -0.0002686450898181647 0.0019262608839198947
v 0.0 5.188342200312945e-09 0.00030768601573072374
v -0.0007012860151007771 5.188342200312945e-09 0.0004061326908413321
v -0.0006773888017050922 0.00018150758114643395 0.0004061326908413321
v -0.0006073316326364875 0.0003506468783598393 0.0004061326908413321
v -0.0004958838690072298 0.0004958864883519709 0.0004061326908413321
v -0.000350641697878018 0.0006073316326364875 0.0004061326908413321
v -0.0001815049909055233 0.0006773888017050922 0.0004061326908413321
v -1.6653344997146072e-18 0.0007012886344455183 0.0004061326908413321
v 0.0001815049909055233 0.0006773888017050922 0.0004061326908413321
v 0.00035064431722275913 0.0006073316326364875 0.0004061326908413321
v 0.0004958838690072298 0.00049588643014431 0.0004061326908413321
v 0.0006073316326364875 0.0003506468783598393 0.0004061326908413321
v 0.0006773914210498333 0.0001815075520426035 0.0004061326908413321
v 0.0007012860151007771 5.188342200312945e-09 0.0004061326908413321
v 0.0006773888017050922 -0.00018150762480217963 0.0004061326908413321
v 0.0006073316326364875 -0.0003506469656713307 0.0004061326908413321
v 0.0004958838690072298 -0.0004958865465596318 0.0004061326908413321
v 0.000350641697878018 -0.0006073316908441484 0.0004061326908413321
v 0.0001815049909055233 -0.000677388918120414 0.0004061326908413321
v -5.551114999048691e-19 -0.0007012886344455183 0.0004061326908413321
v -0.0001815049909055233 -0.000677388918120414 0.0004061326908413321
v -0.00035064431722275913 -0.0006073316908441484 0.0004061326908413321
v -0.0004958838690072298 -0.0004958864883519709 0.0004061326908413321
v -0.0006073316326364875 -0.0003506469656713307 0.0004061326908413321
v -0.0006773914210498333 -0.0001815076102502644 0.0004061326908413321
v 0.0 5.188342200312945e-09 0.00013265803863760084
v -0.0007631874759681523 5.188342200312945e-09 4.4587028241949156e-05
v -0.0007371827960014343 0.00019753139349631965 4.4587028241949156e-05
v -0.0006609414122067392 0.00038159629912115633 4.4587028241949156e-05
v -0.0005396565538831055 0.0005396591150201857 4.4587104639504105e-05
v -0.00038159373798407614 0.0006609360571019351 4.4587104639504105e-05
v -0.00019752881780732423 0.0007371854153461754 4.4587104639504105e-05
v -2.775557396126769e-18 0.0007631874759681523 4.4587104639504105e-05
v 0.00019752881780732423 0.0007371852989308536 4.4587104639504105e-05
v 0.00038159373798407614 0.000660936173517257 4.4587104639504105e-05
v 0.0005396565538831055 0.0005396590568125248 4.4587104639504105e-05
v 0.0006609414122067392 0.00038159629912115633 4.4587028241949156e-05
v 0.0007371827960014343 0.0001975313643924892 4.4587028241949156e-05
v 0.0007631874759681523 5.188342200312945e-09 4.4587028241949156e-05
v 0.0007371827960014343 -0.00019753149535972625 4.4587028241949156e-05
v 0.0006609414122067392 -0.00038159641553647816 4.4587028241949156e-05
v 0.0005396565538831055 -0.0005396592314355075 6.935492274351418e-05
v 0.00038159373798407614 -0.0006609362317249179 4.4587028241949156e-05
v 0.00019752881780732423 -0.0007371854735538363 4.4587028241949156e-05
v -2.2204459996194763e-18 -0.0007631874759681523 4.4587028241949156e-05
v -0.00019752881780732423 -0.0007371854153461754 4.4587028241949156e-05
v -0.00038159373798407614 -0.0006609362317249179 4.4587028241949156e-05
v -0.0005396565538831055 -0.0005396592314355075 4.4587028241949156e-05
v -0.0008115728269331157 5.188342200312945e-09 6.935492274351418e-05
v -0.0007839180179871619 0.00021005132293794304 6.935499550309032e-05
v -0.0007028418476693332 0.00040578897460363805 6.935499550309032e-05
v -0.0005738667096011341 0.0005738718900829554 6.935499550309032e-05
v -0.00040578641346655786 0.0007028366671875119 6.935499550309032e-05
v -0.00021005136659368873 0.0007839180179871619 6.935499550309032e-05
v -1.6653344997146072e-18 0.0008115728269331157 6.935499550309032e-05
v 0.00021005136659368873 0.000783917959779501 6.935499550309032e-05
v 0.00040578641346655786 0.0007028365507721901 6.935499550309032e-05
v 0.0005738667096011341 0.0005738718900829554 6.935499550309032e-05
v 0.0007028418476693332 0.00040578897460363805 6.935499550309032e-05
v 0.0007839180179871619 0.0002100513083860278 6.935499550309032e-05
v 0.0008115728269331157 5.188342200312945e-09 6.935492274351418e-05
v 0.0007839180179871619 -0.00021005142480134964 6.935492274351418e-05
v 0.0007028418476693332 -0.00040578903281129897 6.935492274351418e-05
v 0.0005738667096011341 -0.0005738720064982772 6.935492274351418e-05
v 0.00040578641346655786 -0.0007028471445664763 6.935492274351418e-05
v 0.00021005136659368873 -0.0007839181926101446 6.935492274351418e-05
v -1.1102229998097382e-18 -0.0008115728269331157 6.935492274351418e-05
v -0.00021005136659368873 -0.0007839180179871619 6.935492274351418e-05
v -0.00040578641346655786 -0.0007028366671875119 6.935492274351418e-05
v -0.0005738667096011341 -0.0005738720064982772 6.935492274351418e-05
v -0.0010816507274284959 5.188342200312945e-09 0.0019262608839198947
v -0.0010628713062033057 0.0002847903233487159 0.001904587959870696
v -0.0009529435192234814 0.0005501810228452086 0.0019045878434553742
v -0.000778075831476599 0.0007780758896842599 0.0019045878434553742
v -0.0005501836421899498 0.0009529486997053027 0.001904587959870696
v -0.0002847955620381981 0.0010628713062033057 0.001904587959870696
v -2.2204459996194763e-18 0.0011003672843798995 0.001904587959870696
v 0.0002847955620381981 0.0010628713062033057 0.001904587959870696
v 0.0005501836421899498 0.0009529485832899809 0.001904587959870696
v 0.000778075831476599 0.000778075831476599 0.0019045878434553742
v 0.0009529435192234814 0.0005501810228452086 0.0019045878434553742
v 0.0010628713062033057 0.0002847903233487159 0.001904587959870696
v 0.0011003647232428193 5.188342200312945e-09 0.0019045878434553742
v 0.0010628713062033057 -0.0002848007425200194 0.001904587959870696
v 0.0009529435192234814 -0.0005501810810528696 0.0019045878434553742
v 0.000778075831476599 -0.0007780759478919208 0.0019045878434553742
v 0.0005501836421899498 -0.0009529489325359464 0.001904587959870696
v 0.0002847955620381981 -0.0010628714226186275 0.001904587959870696
v -2.2204459996194763e-18 -0.0011003672843798995 0.001904587959870696
v -0.0002847955620381981 -0.0010628713062033057 0.001904587959870696
v -0.0005501836421899498 -0.0009529486997053027 0.001904587959870696
v -0.000778075831476599 -0.0007780758896842599 0.0019045878434553742
v -0.0011003647232428193 5.188342200312945e-09 0.0019045878434553742
v -0.0010447950335219502 0.00027994788251817226 0.0019262608839198947
v -0.000936737866140902 0.0005408229772001505 0.0019262608839198947
v -0.0007648441824130714 0.000764842436183244 0.0019262608839198947
v -0.000540827342774719 0.0009367418242618442 0.0019262608839198947
v -0.0002799523063004017 0.001044795149937272 0.0019262608839198947
v -2.775557396126769e-18 0.001081653404980898 0.0019262608839198947
v 0.0002799523063004017 0.001044795149937272 0.0019262608839198947
v 0.000540827342774719 0.0009367417078465223 0.0019262608839198947
v 0.0007648441824130714 0.0007648423779755831 0.0019262608839198947
v 0.000936737866140902 0.0005408229189924896 0.0019262608839198947
v 0.0010447950335219502 0.00027994788251817226 0.0019262608839198947
v 0.0010816507274284959 5.188342200312945e-09 0.0019262608839198947
v 0.0010447959648445249 -0.00027995515847578645 0.0019262608839198947
v 0.0009367363527417183 -0.0005408257129602134 0.0019262608839198947
v 0.0007648441824130714 -0.0007648425525985658 0.0019262608839198947
v 0.000540827342774719 -0.000936741940677166 0.0019262608839198947
v 0.0002799523063004017 -0.001044795266352594 0.0019262608839198947
v -2.2204459996194763e-18 -0.001081653404980898 0.0019262608839198947
v -0.0002799523063004017 -0.001044795149937272 0.0019262608839198947
v -0.000540827342774719 -0.0009367418242618442 0.0019262608839198947
v -0.0007648441824130714 -0.000764842436183244 0.0019262608839198947
v -0.0009367363527417183 -0.0005408257129602134 0.0019262608839198947
v -0.0010447959648445249 -0.00027995515847578645 0.0019262608839198947
v 0.0 5.188342200312945e-09 0.00030768601573072374
v 0.0 5.188342200312945e-09 0.00030768601573072374
v 0.0 5.188342200312945e-09 0.00030768601573072374
v 0.0 5.188342200312945e-09 0.00030768601573072374
v 0.0 5.188342200312945e-09 0.00030768601573072374
v 0.0 5.188342200312945e-09 0.00030768601573072374
v -1.6653344997146072e-18 0.0007012886344455183 0.0004061326908413321
v 0.0 5.188342200312945e-09 0.00030768601573072374
v 0.0 5.188342200312945e-09 0.00030768601573072374
v 0.0 5.188342200312945e-09 0.00030768601573072374
v 0.0 5.188342200312945e-09 0.00030768601573072374
v 0.0 5.188342200312945e-09 0.00030768601573072374
v 0.0 5.188342200312945e-09 0.00030768601573072374
v 0.0 5.188342200312945e-09 0.00030768601573072374
v 0.0 5.188342200312945e-09 0.00030768601573072374
v 0.0 5.188342200312945e-09 0.00030768601573072374
v 0.0 5.188342200312945e-09 0.00030768601573072374
v 0.0 5.188342200312945e-09 0.00030768601573072374
v 0.0 5.188342200312945e-09 0.00030768601573072374
v 0.0 5.188342200312945e-09 0.00030768601573072374
v 0.0 5.188342200312945e-09 0.00030768601573072374
v 0.0 5.188342200312945e-09 0.00030768601573072374
v 0.0 5.188342200312945e-09 0.00030768601573072374
v 0.0 5.188342200312945e-09 0.00030768601573072374
v -0.0006773888017050922 0.00018150758114643395 0.0004061326908413321
v -0.0007012860151007771 5.188342200312945e-09 0.0004061326908413321
v -0.0006073316326364875 0.0003506468783598393 0.0004061326908413321
v -0.0004958838690072298 0.0004958864883519709 0.0004061326908413321
v -0.000350641697878018 0.0006073316326364875 0.0004061326908413321
v -0.0001815049909055233 0.0006773888017050922 0.0004061326908413321
v -1.6653344997146072e-18 0.0007012886344455183 0.0004061326908413321
v -2.775557396126769e-18 0.0010379775194451213 0.0019262608839198947
v 0.0001815049909055233 0.0006773888017050922 0.0004061326908413321
v -1.6653344997146072e-18 0.0007012886344455183 0.0004061326908413321
v 0.00035064431722275913 0.0006073316326364875 0.0004061326908413321
v 0.0004958838690072298 0.00049588643014431 0.0004061326908413321
v 0.0006073316326364875 0.0003506468783598393 0.0004061326908413321
v 0.0006773914210498333 0.0001815075520426035 0.0004061326908413321
v 0.0007012860151007771 5.188342200312945e-09 0.0004061326908413321
v 0.0006773888017050922 -0.00018150762480217963 0.0004061326908413321
v 0.0006073316326364875 -0.0003506469656713307 0.0004061326908413321
v 0.0004958838690072298 -0.0004958865465596318 0.0004061326908413321
v 0.000350641697878018 -0.0006073316908441484 0.0004061326908413321
v 0.0001815049909055233 -0.000677388918120414 0.0004061326908413321
v -5.551114999048691e-19 -0.0007012886344455183 0.0004061326908413321
v -0.0001815049909055233 -0.000677388918120414 0.0004061326908413321
v -0.00035064431722275913 -0.0006073316908441484 0.0004061326908413321
v -0.0004958838690072298 -0.0004958864883519709 0.0004061326908413321
v -0.0006073316326364875 -0.0003506469656713307 0.0004061326908413321
v -0.0006773914210498333 -0.0001815076102502644 0.0004061326908413321
v 0.0 5.188342200312945e-09 0.00013265803863760084
v 0.0 5.188342200312945e-09 0.00013265803863760084
v 0.0 5.188342200312945e-09 0.00013265803863760084
v 0.0 5.188342200312945e-09 0.00013265803863760084
v 0.0 5.188342200312945e-09 0.00013265803863760084
v 0.0 5.188342200312945e-09 0.00013265803863760084
v -2.775557396126769e-18 0.0007631874759681523 4.4587104639504105e-05
v 0.0 5.188342200312945e-09 0.00013265803863760084
v 0.0 5.188342200312945e-09 0.00013265803863760084
v 0.0 5.188342200312945e-09 0.00013265803863760084
v 0.0 5.188342200312945e-09 0.00013265803863760084
v 0.0 5.188342200312945e-09 0.00013265803863760084
v 0.0 5.188342200312945e-09 0.00013265803863760084
v 0.0 5.188342200312945e-09 0.00013265803863760084
v 0.0 5.188342200312945e-09 0.00013265803863760084
v 0.0 5.188342200312945e-09 0.00013265803863760084
v 0.0 5.188342200312945e-09 0.00013265803863760084
v 0.0 5.188342200312945e-09 0.00013265803863760084
v 0.0 5.188342200312945e-09 0.00013265803863760084
v 0.0 5.188342200312945e-09 0.00013265803863760084
v 0.0 5.188342200312945e-09 0.00013265803863760084
v 0.0 5.188342200312945e-09 0.00013265803863760084
v 0.0 5.188342200312945e-09 0.00013265803863760084
v 0.0 5.188342200312945e-09 0.00013265803863760084
v -1.6653344997146072e-18 0.0008115728269331157 6.935499550309032e-05
v 0.0005738667096011341 -0.0005738720064982772 6.935492274351418e-05
v 0.00040578641346655786 -0.0007028471445664763 6.935492274351418e-05
v -2.2204459996194763e-18 0.0011003672843798995 0.001904587959870696
v 0.0005738667096011341 -0.0005738720064982772 6.935492274351418e-05
v 0.00040578641346655786 -0.0007028471445664763 6.935492274351418e-05
v -0.0010026036761701107 0.00026864500250667334 0.0019262608839198947
v -0.001037972280755639 5.188343088491365e-09 0.0019262608839198947
v -0.0008989115594886243 0.0005189808434806764 0.0019262608839198947
v -0.0007339586154557765 0.0007339533767662942 0.0019262608839198947
v -0.0005189861403778195 0.0008989089401438832 0.0019262608839198947
v -0.0002686476509552449 0.0010026036761701107 0.0019262608839198947
v -2.775557396126769e-18 0.0010379775194451213 0.0019262608839198947
v 0.0002686476509552449 0.0010026035597547889 0.0019262608839198947
v -2.775557396126769e-18 0.001081653404980898 0.0019262608839198947
v -2.775557396126769e-18 0.0010379775194451213 0.0019262608839198947
v 0.0005189861403778195 0.0008989088819362223 0.0019262608839198947
v 0.0007339586154557765 0.0007339533185586333 0.0019262608839198947
v 0.0008989115594886243 0.0005189808434806764 0.0019262608839198947
v 0.0010026036761701107 0.00026864500250667334 0.0019262608839198947
v 0.001037972280755639 5.188342200312945e-09 0.0019262608839198947
v 0.0010026036761701107 -0.0002686450898181647 0.0019262608839198947
v 0.0008989115594886243 -0.0005189913790673018 0.0019262608839198947
v 0.0007339586154557765 -0.0007339534931816161 0.0019262608839198947
v 0.0005189861403778195 -0.0008989089983515441 0.0019262608839198947
v 0.0002686476509552449 -0.0010026037925854325 0.0019262608839198947
v -2.2204459996194763e-18 -0.0010379775194451213 0.0019262608839198947
v -0.0002686476509552449 -0.0010026036761701107 0.0019262608839198947
v -0.0005189861403778195 -0.0008989089401438832 0.0019262608839198947
v -0.0007339586154557765 -0.0007339533767662942 0.0019262608839198947
v -0.0008989115594886243 -0.0005189913790673018 0.0019262608839198947
v -0.0010026036761701107 -0.0002686450898181647 0.0019262608839198947
v -0.0010816507274284959 5.188342200312945e-09 0.0019262608839198947
v -0.0010447950335219502 0.00027994788251817226 0.0019262608839198947
v -0.0011003647232428193 5.188342200312945e-09 0.0019045878434553742
v -0.0010628713062033057 0.0002847903233487159 0.001904587959870696
v -0.0011003647232428193 5.188342200312945e-09 0.0019045878434553742
v -0.0010447950335219502 0.00027994788251817226 0.0019262608839198947
v -0.000936737866140902 0.0005408229772001505 0.0019262608839198947
v -0.0009529435192234814 0.0005501810228452086 0.0019045878434553742
v -0.0007648441824130714 0.000764842436183244 0.0019262608839198947
v -0.000778075831476599 0.0007780758896842599 0.0019045878434553742
v -0.000540827342774719 0.0009367418242618442 0.0019262608839198947
v -0.0005501836421899498 0.0009529486997053027 0.001904587959870696
v -0.0002799523063004017 0.001044795149937272 0.0019262608839198947
v -0.0002847955620381981 0.0010628713062033057 0.001904587959870696
v -2.775557396126769e-18 0.001081653404980898 0.0019262608839198947
v 0.0002799523063004017 0.001044795149937272 0.0019262608839198947
v 0.0002847955620381981 0.0010628713062033057 0.001904587959870696
v -2.2204459996194763e-18 0.0011003672843798995 0.001904587959870696
v 0.0002799523063004017 0.001044795149937272 0.0019262608839198947
v 0.000540827342774719 0.0009367417078465223 0.0019262608839198947
v 0.0005501836421899498 0.0009529485832899809 0.001904587959870696
v 0.000540827342774719 0.0009367417078465223 0.0019262608839198947
v 0.0007648441824130714 0.0007648423779755831 0.0019262608839198947
v 0.000778075831476599 0.000778075831476599 0.0019045878434553742
v 0.0007648441824130714 0.0007648423779755831 0.0019262608839198947
v 0.000936737866140902 0.0005408229189924896 0.0019262608839198947
v 0.0009529435192234814 0.0005501810228452086 0.0019045878434553742
v 0.000936737866140902 0.0005408229189924896 0.0019262608839198947
v 0.0010447950335219502 0.00027994788251817226 0.0019262608839198947
v 0.0010628713062033057 0.0002847903233487159 0.001904587959870696
v 0.0010447950335219502 0.00027994788251817226 0.0019262608839198947
v 0.0010816507274284959 5.188342200312945e-09 0.0019262608839198947
v 0.0011003647232428193 5.188342200312945e-09 0.0019045878434553742
v 0.0010816507274284959 5.188342200312945e-09 0.0019262608839198947
v 0.0010447959648445249 -0.00027995515847578645 0.0019262608839198947
v 0.0010628713062033057 -0.0002848007425200194 0.001904587959870696
v 0.0010447959648445249 -0.00027995515847578645 0.0019262608839198947
v 0.0009367363527417183 -0.0005408257129602134 0.0019262608839198947
v 0.0009529435192234814 -0.0005501810810528696 0.0019045878434553742
v 0.0009367363527417183 -0.0005408257129602134 0.0019262608839198947
v 0.0007648441824130714 -0.0007648425525985658 0.0019262608839198947
v 0.000778075831476599 -0.0007780759478919208 0.0019045878434553742
v 0.0007648441824130714 -0.0007648425525985658 0.0019262608839198947
v 0.000540827342774719 -0.000936741940677166 0.0019262608839198947
v 0.0005501836421899498 -0.0009529489325359464 0.001904587959870696
v 0.000540827342774719 -0.000936741940677166 0.0019262608839198947
v 0.0002799523063004017 -0.001044795266352594 0.0019262608839198947
v 0.0002847955620381981 -0.0010628714226186275 0.001904587959870696
v 0.0002799523063004017 -0.001044795266352594 0.0019262608839198947
v -2.2204459996194763e-18 -0.001081653404980898 0.0019262608839198947
v -2.2204459996194763e-18 -0.0011003672843798995 0.001904587959870696
v -0.0002799523063004017 -0.001044795149937272 0.0019262608839198947
v -0.0002847955620381981 -0.0010628713062033057 0.001904587959870696
v -0.000540827342774719 -0.0009367418242618442 0.0019262608839198947
v -0.0005501836421899498 -0.0009529486997053027 0.001904587959870696
v -0.0007648441824130714 -0.000764842436183244 0.0019262608839198947
v -0.000778075831476599 -0.0007780758896842599 0.0019045878434553742
v -0.0009367363527417183 -0.0005408257129602134 0.0019262608839198947
v -0.0009529435192234814 -0.0005501810810528696 0.0019045878434553742
v -0.0010447959648445249 -0.00027995515847578645 0.0019262608839198947
v -0.0010628713062033057 -0.0002848007425200194 0.001904587959870696
g submesh_0
f 32 31 33
f 33 147 34
f 34 148 35
f 35 149 36
f 36 150 37
f 37 151 38
f 153 152 39
f 39 154 40
f 40 155 41
f 41 156 42
f 42 157 43
f 43 158 44
f 44 159 45
f 45 160 46
f 46 161 47
f 47 162 48
f 48 163 49
f 49 164 50
f 50 165 51
f 51 166 52
f 52 167 53
f 53 168 54
f 54 169 55
f 55 170 32
f 255 253 254
f 258 256 257
f 271 269 270
f 117 298 299
f 301 300 297
f 118 299 302
f 302 303 300
f 178 180 179
f 178 179 14
f 14 179 181
f 14 181 15
f 15 181 182
f 15 182 16
f 16 182 183
f 16 183 17
f 17 183 184
f 17 184 18
f 18 184 185
f 18 185 19
f 19 185 186
f 19 186 20
f 20 186 187
f 20 187 21
f 21 187 188
f 21 188 22
f 22 188 189
f 22 189 23
f 23 189 190
f 23 190 24
f 24 190 191
f 24 191 25
f 25 191 192
f 25 192 26
f 26 192 193
f 26 193 27
f 27 193 194
f 27 194 28
f 28 194 195
f 28 195 29
f 29 195 196
f 29 196 30
f 30 196 172
f 30 172 7
f 7 172 171
f 7 171 8
f 8 171 173
f 8 173 9
f 9 173 174
f 9 174 10
f 10 174 175
f 10 175 11
f 11 175 176
f 11 176 12
f 12 176 177
f 12 177 13
f 56 57 58
f 58 57 80
f 58 80 81
f 81 80 103
f 81 103 104
f 197 58 59
f 59 58 81
f 59 81 82
f 82 81 104
f 82 104 105
f 198 59 60
f 60 59 82
f 60 82 83
f 83 82 105
f 83 105 106
f 199 60 61
f 61 60 83
f 61 83 84
f 84 83 106
f 84 106 107
f 107 106 267
f 107 267 268
f 107 85 84
f 84 85 62
f 84 62 61
f 61 62 200
f 85 63 62
f 62 63 201
f 202 203 64
f 64 203 86
f 64 86 87
f 87 86 109
f 87 109 110
f 204 64 65
f 65 64 87
f 65 87 88
f 88 87 110
f 88 110 111
f 205 65 66
f 66 65 88
f 66 88 89
f 89 88 111
f 89 111 112
f 206 66 67
f 67 66 89
f 67 89 90
f 90 89 112
f 90 112 113
f 207 67 68
f 68 67 90
f 68 90 91
f 91 90 113
f 91 113 114
f 208 68 69
f 69 68 91
f 69 91 92
f 92 91 114
f 92 114 115
f 209 69 70
f 70 69 92
f 70 92 93
f 93 92 115
f 93 115 116
f 210 70 71
f 71 70 93
f 71 93 94
f 211 71 72
f 72 71 222
f 72 222 95
f 212 72 73
f 73 72 223
f 73 223 96
f 213 73 74
f 74 73 96
f 74 96 97
f 97 96 119
f 97 119 120
f 214 74 75
f 75 74 97
f 75 97 98
f 98 97 120
f 98 120 121
f 215 75 76
f 76 75 98
f 76 98 99
f 99 98 121
f 99 121 122
f 216 76 77
f 77 76 99
f 77 99 100
f 100 99 122
f 100 122 5
f 217 77 78
f 78 77 100
f 78 100 3
f 3 100 5
f 3 5 6
f 218 78 1
f 1 78 3
f 1 3 4
f 4 3 6
f 4 6 123
f 219 1 2
f 2 1 4
f 2 4 79
f 79 4 123
f 79 123 102
f 220 2 57
f 57 2 79
f 57 79 80
f 80 79 102
f 80 102 103
f 109 86 108
f 108 86 221
f 108 221 224
f 235 236 234
f 235 234 130
f 130 234 237
f 130 237 131
f 131 237 238
f 131 238 132
f 132 238 239
f 132 239 133
f 133 239 240
f 133 240 134
f 134 240 241
f 134 241 135
f 135 241 242
f 135 242 136
f 136 242 243
f 136 243 137
f 137 243 244
f 137 244 138
f 138 244 245
f 138 245 139
f 139 245 246
f 139 246 140
f 140 246 247
f 140 247 141
f 141 247 248
f 141 248 142
f 142 248 249
f 142 249 143
f 143 249 250
f 143 250 144
f 144 250 251
f 144 251 145
f 145 251 252
f 145 252 146
f 146 252 228
f 146 228 101
f 101 228 227
f 101 227 124
f 124 227 229
f 124 229 125
f 125 229 230
f 125 230 126
f 126 230 231
f 126 231 127
f 127 231 232
f 127 232 128
f 128 232 233
f 128 233 129
f 260 102 259
f 259 102 258
f 262 103 261
f 261 103 259
f 264 104 263
f 263 104 261
f 266 105 265
f 265 105 263
f 106 265 267
f 273 108 272
f 272 108 268
f 276 273 275
f 275 273 274
f 279 276 278
f 278 276 277
f 282 279 281
f 281 279 280
f 285 282 284
f 284 282 283
f 288 285 287
f 287 285 286
f 291 288 290
f 290 288 289
f 294 291 293
f 293 291 292
f 297 294 296
f 296 294 295
f 305 119 304
f 304 119 302
f 307 120 306
f 306 120 304
f 309 121 308
f 308 121 306
f 311 122 310
f 310 122 308
f 101 257 313
f 101 313 312
f 312 313 5
f 312 5 310
f 221 86 203
f 119 96 118
f 118 96 226
f 118 226 117
f 117 226 225
f 117 225 116
f 116 225 93
