# cellphone_lid
v 0.0010141154052689672 -0.00019213843916077167 -2.3983460778254084e-05
v 0.0010326317278668284 -0.0001927981647895649 2.652596594998613e-05
v 0.000976722571067512 -0.00017057007062248886 9.846714965533465e-05
v 0.0009836609242483974 -0.0026164597366005182 -3.1599327485309914e-05
v 0.0010021987836807966 -0.0026368373073637486 1.8968357835547067e-05
v 0.0009836655808612704 -0.0026169908232986927 6.966024375287816e-05
v 0.0006689676665700972 -0.0001835487928474322 -4.5244763896334916e-05
v 0.0006678421050310135 -0.002637447090819478 -3.173775985487737e-05
v 0.0006678826757706702 -0.0026586647145450115 1.879453702713363e-05
v 0.0006678483332507312 -0.002596493111923337 9.084410703508183e-05
v 0.0006689677247777581 -0.00017057007062248886 9.846714965533465e-05
v 0.000976722571067512 -0.00018354892381466925 -4.524468749877997e-05
v 0.001014115521684289 -0.00017893548647407442 7.715557876508683e-05
v 0.0010141149396076798 -0.002580570289865136 -3.1424311600858346e-05
v 0.000976721872575581 -0.002574981888756156 -5.270406472845934e-05
v 0.001032631378620863 -0.0026009762659668922 1.908548074425198e-05
v 0.000976721872575581 -0.002575739286839962 9.100787428906187e-05
v 0.001014114823192358 -0.002581103006377816 6.971492985030636e-05
v 0.0006678394856862724 -0.002595736877992749 -5.286782834446058e-05
v 0.0006678484496660531 -0.00263797864317894 6.946273060748354e-05
v 4.675546061427838e-11 -0.0001835487928474322 -4.5244763896334916e-05
v 3.83581881535644e-11 -0.0026208937633782625 -5.4047330195317045e-05
v 3.835820550079916e-11 -0.002662604209035635 -3.2916963391471654e-05
v 3.835820550079916e-11 -0.002683821599930525 1.7614960597711615e-05
v 3.835821243969306e-11 -0.002663134830072522 6.828330515418202e-05
v 4.615506241090195e-11 -0.0001705697359284386 9.846714237937704e-05
v 3.835820550079916e-11 -0.002621650230139494 8.966468158178031e-05
v -0.0010141154052689672 -0.00019213843916077167 -2.3983460778254084e-05
v -0.0010326317278668284 -0.0001927979610627517 2.652602233865764e-05
v -0.0009767223382368684 -0.00017057002696674317 9.846721513895318e-05
v -0.00098366045858711 -0.002616460667923093 -3.159917832817882e-05
v -0.001002198550850153 -0.002636837540194392 1.896880530694034e-05
v -0.0009836653480306268 -0.0026169910561293364 6.966054206714034e-05
v -0.0006689674337394536 -0.0001835487491916865 -4.5244705688674e-05
v -0.0006678418139927089 -0.002637447090819478 -3.1737461540615186e-05
v -0.0006678820354864001 -0.0026586647145450115 1.8794833522406407e-05
v -0.0006678479257971048 -0.0025964933447539806 9.084425983019173e-05
v -0.0006689673755317926 -0.0001705697359284386 9.846714237937704e-05
v -0.0009767224546521902 -0.0001835487491916865 -4.5244705688674e-05
v -0.0010141152888536453 -0.00017893529729917645 7.715562969679013e-05
v -0.0010141147067770362 -0.0025805712211877108 -3.142408968415111e-05
v -0.0009767215233296156 -0.0025749823544174433 -5.27039919688832e-05
v -0.0010326310293748975 -0.0026009767316281796 1.9085555322817527e-05
v -0.0009767215233296156 -0.002575739286839962 9.100779425352812e-05
v -0.0010141145903617144 -0.002581103704869747 6.971500988584012e-05
v -0.0006678391364403069 -0.00259573757648468 -5.2867606427753344e-05
v -0.0006678480422124267 -0.0026379781775176525 6.946273060748354e-05
v 0.001032631378620863 -0.0026009762659668922 1.908548074425198e-05
v 0.0010021987836807966 -0.0026368373073637486 1.8968357835547067e-05
v 0.0009836609242483974 -0.0026164597366005182 -3.1599327485309914e-05
v 0.000976721872575581 -0.002574981888756156 -5.270406472845934e-05
v 0.0009836655808612704 -0.0026169908232986927 6.966024375287816e-05
v 0.000976721872575581 -0.002575739286839962 9.100787428906187e-05
v 0.000976722571067512 -0.00018354892381466925 -4.524468749877997e-05
v 0.001032631378620863 -0.0026009762659668922 1.908548074425198e-05
v 0.0010021987836807966 -0.0026368373073637486 1.8968357835547067e-05
v 0.0010021987836807966 -0.0026368373073637486 1.8968357835547067e-05
v 0.001032631378620863 -0.0026009762659668922 1.908548074425198e-05
v 0.000976722571067512 -0.00017057007062248886 9.846714965533465e-05
v 0.0009836655808612704 -0.0026169908232986927 6.966024375287816e-05
v 0.0006678483332507312 -0.002596493111923337 9.084410703508183e-05
v 0.0006678484496660531 -0.00263797864317894 6.946273060748354e-05
v 0.000976721872575581 -0.002575739286839962 9.100787428906187e-05
v 3.835821243969306e-11 -0.002663134830072522 6.828330515418202e-05
v 3.835820550079916e-11 -0.002621650230139494 8.966468158178031e-05
v -0.0010326310293748975 -0.0026009767316281796 1.9085555322817527e-05
v -0.001002198550850153 -0.002636837540194392 1.896880530694034e-05
v -0.0009767215233296156 -0.0025749823544174433 -5.27039919688832e-05
v -0.00098366045858711 -0.002616460667923093 -3.159917832817882e-05
v -0.0009767215233296156 -0.002575739286839962 9.100779425352812e-05
v -0.0009836653480306268 -0.0026169910561293364 6.966054206714034e-05
v -0.0009767224546521902 -0.0001835487491916865 -4.5244705688674e-05
v -0.001002198550850153 -0.002636837540194392 1.896880530694034e-05
v -0.0010326310293748975 -0.0026009767316281796 1.9085555322817527e-05
v -0.001002198550850153 -0.002636837540194392 1.896880530694034e-05
v -0.0010326310293748975 -0.0026009767316281796 1.9085555322817527e-05
v -0.0009767223382368684 -0.00017057002696674317 9.846721513895318e-05
v -0.0006678480422124267 -0.0026379781775176525 6.946273060748354e-05
v -0.0006678479257971048 -0.0025964933447539806 9.084425983019173e-05
v -0.0009836653480306268 -0.0026169910561293364 6.966054206714034e-05
v -0.0009767215233296156 -0.002575739286839962 9.100779425352812e-05
g submesh_0
f 32 31 36
f 36 31 35
f 36 35 23
f 23 35 22
f 23 22 8
f 8 22 19
f 8 19 15
f 15 19 7
f 15 7 12
f 54 1 14
f 14 1 2
f 14 2 16
f 53 52 18
f 53 18 13
f 13 18 48
f 13 48 2
f 23 8 9
f 9 8 4
f 9 4 5
f 49 6 9
f 9 6 20
f 9 20 24
f 24 20 25
f 24 25 47
f 17 3 10
f 10 3 11
f 10 11 27
f 27 11 26
f 27 26 38
f 51 54 14
f 51 14 50
f 50 14 55
f 50 55 56
f 58 18 57
f 57 18 52
f 59 53 13
f 64 62 61
f 61 62 60
f 61 60 63
f 19 22 21
f 21 22 46
f 21 46 34
f 34 46 42
f 34 42 39
f 43 29 41
f 41 29 28
f 41 28 72
f 71 70 45
f 45 70 40
f 45 40 66
f 66 40 29
f 24 47 36
f 36 47 33
f 36 33 67
f 27 38 37
f 37 38 30
f 37 30 44
f 72 68 41
f 41 68 69
f 41 69 74
f 74 69 73
f 71 45 75
f 75 45 76
f 70 77 40
f 81 80 79
f 79 80 78
f 79 78 64
f 7 19 21
f 4 8 15
f 61 65 64
f 64 65 79
f 31 42 35
f 35 42 46
f 35 46 22
f 9 24 23
f 23 24 36
