# 11
v 0.08189855515956879 -0.1719740331172943 -0.10098785907030106
v 0.12805484235286713 -0.1719740331172943 -0.10098787397146225
v 0.12805484235286713 0.27802595496177673 -0.10098787397146225
v 0.261220782995224 0.27802595496177673 -0.10098787397146225
v 0.3151535987854004 0.22459226846694946 -0.10098787397146225
v 0.3151535987854004 0.161317840218544 -0.10098787397146225
v 0.2616223990917206 0.161317840218544 -0.10098787397146225
v 0.2616223990917206 -0.1719740331172943 -0.10098787397146225
v 0.30777859687805176 -0.1719740331172943 -0.10098788142204285
v 0.30777859687805176 -0.27802592515945435 -0.10098788142204285
v 0.08189855515956879 -0.27802592515945435 -0.10098785907030106
v -0.3151535987854004 -0.1719740331172943 -0.10096021741628647
v -0.2689973711967468 -0.1719740331172943 -0.10096021741628647
v -0.2689973711967468 0.27802595496177673 -0.10096021741628647
v -0.13583135604858398 0.27802595496177673 -0.10096021741628647
v -0.08189855515956879 0.22459226846694946 -0.10096021741628647
v -0.08189855515956879 0.16131779551506042 -0.10096021741628647
v -0.13542978465557098 0.16131779551506042 -0.10096021741628647
v -0.13542978465557098 -0.1719740331172943 -0.10096021741628647
v -0.08927354961633682 -0.1719740331172943 -0.10096021741628647
v -0.08927354961633682 -0.27802595496177673 -0.10096021741628647
v -0.3151535987854004 -0.27802595496177673 -0.10096021741628647
v 0.05592452362179756 -0.1459999978542328 -0.07501383125782013
v 0.102080799639225 -0.1459999978542328 -0.07501382380723953
v 0.102080799639225 0.30399999022483826 -0.07501382380723953
v 0.2719089090824127 0.30399999022483826 -0.07501382380723953
v 0.3411276042461395 0.23542192578315735 -0.07501383125782013
v 0.3411276042461395 0.1353437900543213 -0.07501383125782013
v 0.2875964343547821 0.1353437900543213 -0.07501383125782013
v 0.2875964343547821 -0.1459999978542328 -0.07501383125782013
v 0.33375266194343567 -0.1459999978542328 -0.07501383125782013
v 0.33375266194343567 -0.30399999022483826 -0.07501383125782013
v 0.05592452362179756 -0.30399999022483826 -0.07501383125782013
v -0.3411276638507843 -0.1459999978542328 -0.07498616725206375
v -0.29497140645980835 -0.1459999978542328 -0.07498616725206375
v -0.29497140645980835 0.30399999022483826 -0.07498616725206375
v -0.12514321506023407 0.30399999022483826 -0.07498616725206375
v -0.055924516171216965 0.23542188107967377 -0.07498616725206375
v -0.055924516171216965 0.1353437602519989 -0.07498616725206375
v -0.10945573449134827 0.1353437602519989 -0.07498616725206375
v -0.10945573449134827 -0.1459999978542328 -0.07498616725206375
v -0.0632995069026947 -0.1459999978542328 -0.07498616725206375
v -0.0632995069026947 -0.30399999022483826 -0.07498616725206375
v -0.3411276638507843 -0.30399999022483826 -0.07498616725206375
v 0.05592450499534607 -0.1459999978542328 0.07498616725206375
v 0.1020808219909668 -0.1459999978542328 0.07498616725206375
v 0.1020808219909668 0.30399999022483826 0.07498616725206375
v 0.2719089090824127 0.30399999022483826 0.07498617470264435
v 0.3411276042461395 0.23542192578315735 0.07498616725206375
v 0.3411276042461395 0.1353437900543213 0.07498616725206375
v 0.2875964343547821 0.1353437900543213 0.07498617470264435
v 0.2875964343547821 -0.1459999978542328 0.07498617470264435
v 0.33375266194343567 -0.1459999978542328 0.07498616725206375
v 0.33375266194343567 -0.30399999022483826 0.07498616725206375
v 0.05592450499534607 -0.30399999022483826 0.07498616725206375
v -0.3411276638507843 -0.1459999978542328 0.07501383125782013
v -0.29497140645980835 -0.1459999978542328 0.07501383125782013
v -0.29497140645980835 0.30399999022483826 0.07501383125782013
v -0.12514321506023407 0.30399999022483826 0.07501383125782013
v -0.055924516171216965 0.23542188107967377 0.07501383125782013
v -0.055924516171216965 0.1353437602519989 0.07501383125782013
v -0.10945573449134827 0.1353437602519989 0.07501383125782013
v -0.10945573449134827 -0.1459999978542328 0.07501383125782013
v -0.0632995069026947 -0.1459999978542328 0.07501383125782013
v -0.0632995069026947 -0.30399999022483826 0.07501383125782013
v -0.3411276638507843 -0.30399999022483826 0.07501383125782013
v 0.08189855515956879 -0.1719740331172943 0.10096021741628647
v 0.12805484235286713 -0.1719740331172943 0.10096021741628647
v 0.12805484235286713 0.27802595496177673 0.10096021741628647
v 0.261220782995224 0.27802595496177673 0.10096019506454468
v 0.3151536285877228 0.22459226846694946 0.10096021741628647
v 0.3151536285877228 0.161317840218544 0.10096021741628647
v 0.2616223990917206 0.161317840218544 0.10096019506454468
v 0.2616223990917206 -0.1719740331172943 0.10096019506454468
v 0.30777862668037415 -0.1719740331172943 0.10096021741628647
v 0.30777862668037415 -0.27802592515945435 0.10096021741628647
v 0.08189855515956879 -0.27802592515945435 0.10096021741628647
v -0.3151535987854004 -0.1719740331172943 0.10098787397146225
v -0.2689973711967468 -0.1719740331172943 0.10098787397146225
v -0.2689973711967468 0.27802595496177673 0.10098787397146225
v -0.13583135604858398 0.27802595496177673 0.10098787397146225
v -0.08189855515956879 0.22459226846694946 0.10098787397146225
v -0.08189855515956879 0.16131779551506042 0.10098787397146225
v -0.13542978465557098 0.16131779551506042 0.10098787397146225
v -0.13542978465557098 -0.1719740331172943 0.10098787397146225
v -0.08927354961633682 -0.1719740331172943 0.10098787397146225
v -0.08927354961633682 -0.27802595496177673 0.10098787397146225
v -0.3151535987854004 -0.27802595496177673 0.10098787397146225
v 0.102080799639225 -0.1459999978542328 -0.07501382380723953
v 0.1020808219909668 -0.1459999978542328 0.07498616725206375
v 0.102080799639225 0.30399999022483826 -0.07501382380723953
v 0.1020808219909668 0.30399999022483826 0.07498616725206375
v 0.2719089090824127 0.30399999022483826 -0.07501382380723953
v 0.2719089090824127 0.30399999022483826 0.07498617470264435
v 0.3411276042461395 0.23542192578315735 -0.07501383125782013
v 0.3411276042461395 0.23542192578315735 0.07498616725206375
v 0.3411276042461395 0.1353437900543213 -0.07501383125782013
v 0.3411276042461395 0.1353437900543213 0.07498616725206375
v 0.2875964343547821 0.1353437900543213 -0.07501383125782013
v 0.2875964343547821 0.1353437900543213 0.07498617470264435
v 0.2875964343547821 -0.1459999978542328 -0.07501383125782013
v 0.2875964343547821 -0.1459999978542328 0.07498617470264435
v 0.33375266194343567 -0.1459999978542328 -0.07501383125782013
v 0.33375266194343567 -0.1459999978542328 0.07498616725206375
v 0.33375266194343567 -0.30399999022483826 -0.07501383125782013
v 0.33375266194343567 -0.30399999022483826 0.07498616725206375
v 0.05592452362179756 -0.30399999022483826 -0.07501383125782013
v 0.05592450499534607 -0.30399999022483826 0.07498616725206375
v 0.05592452362179756 -0.1459999978542328 -0.07501383125782013
v 0.05592450499534607 -0.1459999978542328 0.07498616725206375
v -0.29497140645980835 -0.1459999978542328 -0.07498616725206375
v -0.29497140645980835 -0.1459999978542328 0.07501383125782013
v -0.29497140645980835 0.30399999022483826 -0.07498616725206375
v -0.29497140645980835 0.30399999022483826 0.07501383125782013
v -0.12514321506023407 0.30399999022483826 -0.07498616725206375
v -0.12514321506023407 0.30399999022483826 0.07501383125782013
v -0.055924516171216965 0.23542188107967377 -0.07498616725206375
v -0.055924516171216965 0.23542188107967377 0.07501383125782013
v -0.055924516171216965 0.1353437602519989 -0.07498616725206375
v -0.055924516171216965 0.1353437602519989 0.07501383125782013
v -0.10945573449134827 0.1353437602519989 -0.07498616725206375
v -0.10945573449134827 0.1353437602519989 0.07501383125782013
v -0.10945573449134827 -0.1459999978542328 -0.07498616725206375
v -0.10945573449134827 -0.1459999978542328 0.07501383125782013
v -0.0632995069026947 -0.1459999978542328 -0.07498616725206375
v -0.0632995069026947 -0.1459999978542328 0.07501383125782013
v -0.0632995069026947 -0.30399999022483826 -0.07498616725206375
v -0.0632995069026947 -0.30399999022483826 0.07501383125782013
v -0.3411276638507843 -0.30399999022483826 -0.07498616725206375
v -0.3411276638507843 -0.30399999022483826 0.07501383125782013
v -0.3411276638507843 -0.1459999978542328 -0.07498616725206375
v -0.3411276638507843 -0.1459999978542328 0.07501383125782013
v 0.102080799639225 -0.1459999978542328 -0.07501382380723953
v 0.08189855515956879 -0.1719740331172943 -0.10098785907030106
v 0.05592452362179756 -0.1459999978542328 -0.07501383125782013
v 0.08189855515956879 -0.1719740331172943 -0.10098785907030106
v 0.12805484235286713 -0.1719740331172943 -0.10098787397146225
v 0.102080799639225 0.30399999022483826 -0.07501382380723953
v 0.12805484235286713 -0.1719740331172943 -0.10098787397146225
v 0.102080799639225 -0.1459999978542328 -0.07501382380723953
v 0.12805484235286713 0.27802595496177673 -0.10098787397146225
v 0.2719089090824127 0.30399999022483826 -0.07501382380723953
v 0.12805484235286713 0.27802595496177673 -0.10098787397146225
v 0.102080799639225 0.30399999022483826 -0.07501382380723953
v 0.261220782995224 0.27802595496177673 -0.10098787397146225
v 0.3411276042461395 0.23542192578315735 -0.07501383125782013
v 0.2719089090824127 0.30399999022483826 -0.07501382380723953
v 0.3151535987854004 0.22459226846694946 -0.10098787397146225
v 0.3411276042461395 0.23542192578315735 -0.07501383125782013
v 0.3151535987854004 0.161317840218544 -0.10098787397146225
v 0.2875964343547821 0.1353437900543213 -0.07501383125782013
v 0.3151535987854004 0.161317840218544 -0.10098787397146225
v 0.3411276042461395 0.1353437900543213 -0.07501383125782013
v 0.2616223990917206 0.161317840218544 -0.10098787397146225
v 0.2616223990917206 0.161317840218544 -0.10098787397146225
v 0.2616223990917206 -0.1719740331172943 -0.10098787397146225
v 0.33375266194343567 -0.1459999978542328 -0.07501383125782013
v 0.2616223990917206 -0.1719740331172943 -0.10098787397146225
v 0.2875964343547821 -0.1459999978542328 -0.07501383125782013
v 0.33375266194343567 -0.1459999978542328 -0.07501383125782013
v 0.30777859687805176 -0.1719740331172943 -0.10098788142204285
v 0.33375266194343567 -0.30399999022483826 -0.07501383125782013
v 0.30777859687805176 -0.1719740331172943 -0.10098788142204285
v 0.33375266194343567 -0.1459999978542328 -0.07501383125782013
v 0.30777859687805176 -0.27802592515945435 -0.10098788142204285
v 0.05592452362179756 -0.30399999022483826 -0.07501383125782013
v 0.33375266194343567 -0.30399999022483826 -0.07501383125782013
v 0.08189855515956879 -0.27802592515945435 -0.10098785907030106
v 0.05592452362179756 -0.1459999978542328 -0.07501383125782013
v 0.05592452362179756 -0.30399999022483826 -0.07501383125782013
v 0.08189855515956879 -0.1719740331172943 -0.10098785907030106
v -0.29497140645980835 -0.1459999978542328 -0.07498616725206375
v -0.3151535987854004 -0.1719740331172943 -0.10096021741628647
v -0.3411276638507843 -0.1459999978542328 -0.07498616725206375
v -0.2689973711967468 -0.1719740331172943 -0.10096021741628647
v -0.29497140645980835 0.30399999022483826 -0.07498616725206375
v -0.2689973711967468 -0.1719740331172943 -0.10096021741628647
v -0.29497140645980835 -0.1459999978542328 -0.07498616725206375
v -0.2689973711967468 0.27802595496177673 -0.10096021741628647
v -0.12514321506023407 0.30399999022483826 -0.07498616725206375
v -0.2689973711967468 0.27802595496177673 -0.10096021741628647
v -0.29497140645980835 0.30399999022483826 -0.07498616725206375
v -0.13583135604858398 0.27802595496177673 -0.10096021741628647
v -0.055924516171216965 0.23542188107967377 -0.07498616725206375
v -0.12514321506023407 0.30399999022483826 -0.07498616725206375
v -0.08189855515956879 0.22459226846694946 -0.10096021741628647
v -0.055924516171216965 0.23542188107967377 -0.07498616725206375
v -0.08189855515956879 0.16131779551506042 -0.10096021741628647
v -0.10945573449134827 0.1353437602519989 -0.07498616725206375
v -0.08189855515956879 0.16131779551506042 -0.10096021741628647
v -0.055924516171216965 0.1353437602519989 -0.07498616725206375
v -0.13542978465557098 0.16131779551506042 -0.10096021741628647
v -0.13542978465557098 0.16131779551506042 -0.10096021741628647
v -0.13542978465557098 -0.1719740331172943 -0.10096021741628647
v -0.0632995069026947 -0.1459999978542328 -0.07498616725206375
v -0.13542978465557098 -0.1719740331172943 -0.10096021741628647
v -0.10945573449134827 -0.1459999978542328 -0.07498616725206375
v -0.08927354961633682 -0.1719740331172943 -0.10096021741628647
v -0.08927354961633682 -0.1719740331172943 -0.10096021741628647
v -0.08927354961633682 -0.27802595496177673 -0.10096021741628647
v -0.3411276638507843 -0.30399999022483826 -0.07498616725206375
v -0.08927354961633682 -0.27802595496177673 -0.10096021741628647
v -0.0632995069026947 -0.30399999022483826 -0.07498616725206375
v -0.3151535987854004 -0.27802595496177673 -0.10096021741628647
v -0.3411276638507843 -0.1459999978542328 -0.07498616725206375
v -0.3151535987854004 -0.27802595496177673 -0.10096021741628647
v -0.3411276638507843 -0.30399999022483826 -0.07498616725206375
v -0.3151535987854004 -0.1719740331172943 -0.10096021741628647
v 0.05592450499534607 -0.1459999978542328 0.07498616725206375
v 0.12805484235286713 -0.1719740331172943 0.10096021741628647
v 0.1020808219909668 -0.1459999978542328 0.07498616725206375
v 0.08189855515956879 -0.1719740331172943 0.10096021741628647
v 0.12805484235286713 0.27802595496177673 0.10096021741628647
v 0.12805484235286713 -0.1719740331172943 0.10096021741628647
v 0.1020808219909668 0.30399999022483826 0.07498616725206375
v 0.261220782995224 0.27802595496177673 0.10096019506454468
v 0.2719089090824127 0.30399999022483826 0.07498617470264435
v 0.12805484235286713 0.27802595496177673 0.10096021741628647
v 0.3151536285877228 0.22459226846694946 0.10096021741628647
v 0.3411276042461395 0.23542192578315735 0.07498616725206375
v 0.3411276042461395 0.23542192578315735 0.07498616725206375
v 0.3151536285877228 0.161317840218544 0.10096021741628647
v 0.3411276042461395 0.1353437900543213 0.07498616725206375
v 0.3411276042461395 0.1353437900543213 0.07498616725206375
v 0.2616223990917206 0.161317840218544 0.10096019506454468
v 0.2875964343547821 0.1353437900543213 0.07498617470264435
v 0.2616223990917206 0.161317840218544 0.10096019506454468
v 0.3151536285877228 0.161317840218544 0.10096021741628647
v 0.2875964343547821 0.1353437900543213 0.07498617470264435
v 0.2616223990917206 -0.1719740331172943 0.10096019506454468
v 0.2875964343547821 -0.1459999978542328 0.07498617470264435
v 0.2616223990917206 0.161317840218544 0.10096019506454468
v 0.2875964343547821 -0.1459999978542328 0.07498617470264435
v 0.30777862668037415 -0.1719740331172943 0.10096021741628647
v 0.33375266194343567 -0.1459999978542328 0.07498616725206375
v 0.2875964343547821 -0.1459999978542328 0.07498617470264435
v 0.2616223990917206 -0.1719740331172943 0.10096019506454468
v 0.33375266194343567 -0.1459999978542328 0.07498616725206375
v 0.30777862668037415 -0.27802592515945435 0.10096021741628647
v 0.33375266194343567 -0.30399999022483826 0.07498616725206375
v 0.30777862668037415 -0.1719740331172943 0.10096021741628647
v 0.33375266194343567 -0.30399999022483826 0.07498616725206375
v 0.08189855515956879 -0.27802592515945435 0.10096021741628647
v 0.05592450499534607 -0.30399999022483826 0.07498616725206375
v 0.30777862668037415 -0.27802592515945435 0.10096021741628647
v 0.05592450499534607 -0.30399999022483826 0.07498616725206375
v 0.08189855515956879 -0.1719740331172943 0.10096021741628647
v -0.3411276638507843 -0.1459999978542328 0.07501383125782013
v -0.2689973711967468 -0.1719740331172943 0.10098787397146225
v -0.29497140645980835 -0.1459999978542328 0.07501383125782013
v -0.3151535987854004 -0.1719740331172943 0.10098787397146225
v -0.2689973711967468 0.27802595496177673 0.10098787397146225
v -0.2689973711967468 -0.1719740331172943 0.10098787397146225
v -0.29497140645980835 0.30399999022483826 0.07501383125782013
v -0.13583135604858398 0.27802595496177673 0.10098787397146225
v -0.12514321506023407 0.30399999022483826 0.07501383125782013
v -0.2689973711967468 0.27802595496177673 0.10098787397146225
v -0.08189855515956879 0.22459226846694946 0.10098787397146225
v -0.055924516171216965 0.23542188107967377 0.07501383125782013
v -0.055924516171216965 0.23542188107967377 0.07501383125782013
v -0.08189855515956879 0.16131779551506042 0.10098787397146225
v -0.055924516171216965 0.1353437602519989 0.07501383125782013
v -0.055924516171216965 0.1353437602519989 0.07501383125782013
v -0.13542978465557098 0.16131779551506042 0.10098787397146225
v -0.10945573449134827 0.1353437602519989 0.07501383125782013
v -0.08189855515956879 0.16131779551506042 0.10098787397146225
v -0.10945573449134827 0.1353437602519989 0.07501383125782013
v -0.13542978465557098 -0.1719740331172943 0.10098787397146225
v -0.10945573449134827 -0.1459999978542328 0.07501383125782013
v -0.13542978465557098 0.16131779551506042 0.10098787397146225
v -0.10945573449134827 -0.1459999978542328 0.07501383125782013
v -0.08927354961633682 -0.1719740331172943 0.10098787397146225
v -0.0632995069026947 -0.1459999978542328 0.07501383125782013
v -0.13542978465557098 -0.1719740331172943 0.10098787397146225
v -0.0632995069026947 -0.1459999978542328 0.07501383125782013
v -0.08927354961633682 -0.27802595496177673 0.10098787397146225
v -0.0632995069026947 -0.30399999022483826 0.07501383125782013
v -0.08927354961633682 -0.1719740331172943 0.10098787397146225
v -0.0632995069026947 -0.30399999022483826 0.07501383125782013
v -0.3151535987854004 -0.27802595496177673 0.10098787397146225
v -0.3411276638507843 -0.30399999022483826 0.07501383125782013
v -0.08927354961633682 -0.27802595496177673 0.10098787397146225
v -0.3411276638507843 -0.30399999022483826 0.07501383125782013
v -0.3411276638507843 -0.1459999978542328 0.07501383125782013
g submesh_0
f 135 133 134
f 137 136 133
f 159 157 158
f 161 158 160
f 226 224 225
f 228 227 224
f 235 233 234
f 237 234 236
f 46 24 45
f 45 24 23
f 213 47 90
f 90 47 25
f 90 25 89
f 48 26 92
f 92 26 91
f 49 27 94
f 94 27 93
f 50 28 96
f 96 28 95
f 51 29 98
f 98 29 97
f 155 99 30
f 30 99 100
f 30 100 52
f 53 31 102
f 102 31 101
f 54 32 104
f 104 32 103
f 55 33 106
f 106 33 105
f 110 109 108
f 108 109 107
f 57 35 56
f 56 35 34
f 252 58 112
f 112 58 36
f 112 36 111
f 59 37 114
f 114 37 113
f 60 38 116
f 116 38 115
f 61 39 118
f 118 39 117
f 62 40 120
f 120 40 119
f 193 121 41
f 41 121 122
f 41 122 63
f 64 42 124
f 124 42 123
f 199 125 43
f 43 125 126
f 43 126 65
f 66 44 128
f 128 44 127
f 132 131 130
f 130 131 129
f 74 73 68
f 74 68 76
f 76 68 67
f 76 67 77
f 75 74 76
f 72 71 73
f 73 71 70
f 73 70 69
f 85 84 79
f 85 79 87
f 87 79 78
f 87 78 88
f 86 85 87
f 83 82 84
f 84 82 81
f 84 81 80
f 7 8 2
f 2 8 10
f 2 10 1
f 1 10 11
f 10 8 9
f 3 4 7
f 7 4 5
f 7 5 6
f 18 19 13
f 13 19 21
f 13 21 12
f 12 21 22
f 21 19 20
f 14 15 18
f 18 15 16
f 18 16 17
f 140 138 139
f 139 138 141
f 144 142 143
f 143 142 145
f 147 146 145
f 145 146 148
f 149 28 148
f 148 28 150
f 153 151 152
f 152 151 154
f 156 155 30
f 164 162 163
f 163 162 165
f 167 166 165
f 165 166 168
f 170 169 168
f 168 169 171
f 174 172 173
f 173 172 175
f 178 176 177
f 177 176 179
f 182 180 181
f 181 180 183
f 185 184 183
f 183 184 186
f 187 39 186
f 186 39 188
f 191 189 190
f 190 189 192
f 194 193 41
f 197 195 196
f 196 195 198
f 200 199 43
f 203 201 202
f 202 201 204
f 207 205 206
f 206 205 208
f 211 209 210
f 210 209 212
f 214 213 90
f 219 220 217
f 219 217 216
f 216 217 215
f 216 215 218
f 223 221 222
f 222 221 219
f 231 229 230
f 230 229 232
f 240 238 239
f 239 238 241
f 244 242 243
f 243 242 245
f 110 246 247
f 247 246 243
f 250 248 249
f 249 248 251
f 253 252 112
f 258 259 256
f 258 256 255
f 255 256 254
f 255 254 257
f 262 260 261
f 261 260 258
f 265 263 264
f 264 263 266
f 269 267 268
f 268 267 270
f 273 271 272
f 272 271 274
f 277 275 276
f 276 275 278
f 281 279 280
f 280 279 282
f 284 283 251
f 251 283 280
f 68 73 69
f 79 84 80
f 3 7 2
f 14 18 13
