# coin_holder_top
v 0.3199999928474426 1.2799999713897705 0.0
v -0.44682279229164124 1.2799999713897705 2.2737367036103438e-15
v 0.3199999928474426 -0.34985700249671936 -6.047127798503027e-10
v -0.14805908501148224 -0.34985700249671936 -6.047127798503027e-10
v 0.3199999928474426 -0.9459149241447449 3.0152932928295684e-10
v -0.14805908501148224 -0.9459149241447449 3.0152932928295684e-10
v 0.3199999928474426 0.8563743233680725 0.0
v -0.44682279229164124 0.8563743233680725 0.0
v -9.53674295089968e-09 0.8563743233680725 0.0
v 9.53674295089968e-09 1.2799999713897705 0.0
v 9.53674295089968e-09 -0.34985700249671936 -6.047127798503027e-10
v -9.53674295089968e-09 -0.9459149241447449 3.0152932928295684e-10
v -0.6390305757522583 0.8563743233680725 0.0
v -0.6390305757522583 1.2799999713897705 2.2737367036103438e-15
g submesh_0
f 8 9 10
f 10 9 7
f 10 7 1
f 5 3 12
f 12 3 11
f 12 11 6
f 6 11 4
f 14 13 2
f 2 13 8
f 2 8 10
f 9 11 7
f 7 11 3
