# shots03
v -0.3159472644329071 0.36870643496513367 -5.023066478315741e-07
v 0.3159472644329071 0.36870643496513367 -5.023066478315741e-07
v 0.3159472644329071 0.10146251320838928 -5.023066478315741e-07
v 0.1449357569217682 0.10146251320838928 -5.023066478315741e-07
v 0.1449357569217682 0.17707613110542297 -5.023066478315741e-07
v 0.10855025798082352 0.17707613110542297 -5.023066478315741e-07
v 0.10855025798082352 -0.1770760715007782 -5.023066478315741e-07
v 0.1607026606798172 -0.1770760715007782 -5.023066478315741e-07
v 0.1607026606798172 -0.3687063455581665 -5.023066478315741e-07
v -0.15827666223049164 -0.3687063455581665 -5.023066478315741e-07
v -0.15827666223049164 -0.1770760715007782 -5.023066478315741e-07
v -0.10733764618635178 -0.1770760715007782 -5.023066478315741e-07
v -0.10733764618635178 0.17707613110542297 -5.023066478315741e-07
v -0.14493560791015625 0.17707613110542297 -5.023066478315741e-07
v -0.14493560791015625 0.10146251320838928 -5.023066478315741e-07
v -0.3159472644329071 0.10146251320838928 -5.023066478315741e-07
g submesh_0
f 16 15 1
f 1 15 14
f 1 14 2
f 2 14 13
f 2 13 6
f 6 13 12
f 6 12 7
f 7 12 9
f 7 9 8
f 11 10 12
f 12 10 9
f 4 3 5
f 5 3 2
f 5 2 6
