# helo_rotor
v -0.004014193546026945 3.4080224753374466e-10 -0.02419871836900711
v 1.7546601671636353e-10 0.00401419447734952 -0.024198712781071663
v 0.004014193546026945 -1.0129674876679928e-11 -0.02419871836900711
v -4.786878185503163e-11 -0.004014193080365658 -0.02419871836900711
v -0.003982876427471638 1.9998910860685726e-10 0.005421449895948172
v 1.7409707009363729e-10 0.003982876893132925 0.005421449430286884
v 0.003982876427471638 -1.482050315804173e-10 0.005421449895948172
v -4.749532711567639e-11 -0.00398287596181035 0.005421449895948172
v -0.014275114051997662 -2.7853003237154894e-10 0.012100829742848873
v 6.239851413347708e-10 0.014275114051997662 0.010909033939242363
v 0.014275114051997662 -1.5264998154407294e-09 0.012100829742848873
v -1.7022903919805543e-10 -0.014275114051997662 0.010909024626016617
v -0.014342974871397018 5.0265638873447926e-11 0.018393900245428085
v 6.269514352119643e-10 0.014342973940074444 0.020205626264214516
v 0.014342974871397018 -1.2036371899171172e-09 0.018393900245428085
v -1.710382530051291e-10 -0.014342976734042168 0.02020561695098877
v -0.007965278811752796 0.00497217383235693 0.014090091921389103
v -0.236830934882164 0.006462885532528162 0.014681847766041756
v -0.007965278811752796 0.00497217383235693 0.016840655356645584
v -0.236830934882164 0.006462885532528162 0.016248898580670357
v -0.007965278811752796 -0.00497217383235693 0.014090091921389103
v -0.236830934882164 -0.00646289624273777 0.014681847766041756
v -0.007965278811752796 -0.00497217383235693 0.016840655356645584
v -0.236830934882164 -0.00646289624273777 0.016248898580670357
v -0.2397521585226059 0.0 0.014090091921389103
v -0.2397521585226059 0.0 0.016840655356645584
v 0.007965278811752796 -0.004972172901034355 0.014090091921389103
v 0.236830934882164 -0.006462849676609039 0.014681847766041756
v 0.007965278811752796 -0.004972172901034355 0.016840655356645584
v 0.236830934882164 -0.006462849676609039 0.016248898580670357
v 0.007965278811752796 0.004972175229340792 0.014090091921389103
v 0.236830934882164 0.006462932098656893 0.014681847766041756
v 0.007965278811752796 0.004972175229340792 0.016840655356645584
v 0.236830934882164 0.006462932098656893 0.016248898580670357
v 0.2397521585226059 3.620156974193378e-08 0.014090091921389103
v 0.2397521585226059 3.620156974193378e-08 0.016840655356645584
v 1.7546601671636353e-10 0.00401419447734952 -0.024198712781071663
v 1.7409707009363729e-10 0.003982876893132925 0.005421449430286884
v 0.004014193546026945 -1.0129674876679928e-11 -0.02419871836900711
v 0.003982876427471638 -1.482050315804173e-10 0.005421449895948172
v -4.786878185503163e-11 -0.004014193080365658 -0.02419871836900711
v -4.749532711567639e-11 -0.00398287596181035 0.005421449895948172
v -0.003982876427471638 1.9998910860685726e-10 0.005421449895948172
v -0.004014193546026945 3.4080224753374466e-10 -0.02419871836900711
v -0.003982876427471638 1.9998910860685726e-10 0.005421449895948172
v 1.7409707009363729e-10 0.003982876893132925 0.005421449430286884
v 1.7409707009363729e-10 0.003982876893132925 0.005421449430286884
v 6.239851413347708e-10 0.014275114051997662 0.010909033939242363
v 0.003982876427471638 -1.482050315804173e-10 0.005421449895948172
v 0.003982876427471638 -1.482050315804173e-10 0.005421449895948172
v 0.014275114051997662 -1.5264998154407294e-09 0.012100829742848873
v -4.749532711567639e-11 -0.00398287596181035 0.005421449895948172
v -4.749532711567639e-11 -0.00398287596181035 0.005421449895948172
v -1.7022903919805543e-10 -0.014275114051997662 0.010909024626016617
v -0.014275114051997662 -2.7853003237154894e-10 0.012100829742848873
v -0.003982876427471638 1.9998910860685726e-10 0.005421449895948172
v -0.014275114051997662 -2.7853003237154894e-10 0.012100829742848873
v 6.239851413347708e-10 0.014275114051997662 0.010909033939242363
v 6.239851413347708e-10 0.014275114051997662 0.010909033939242363
v 6.269514352119643e-10 0.014342973940074444 0.020205626264214516
v 0.014275114051997662 -1.5264998154407294e-09 0.012100829742848873
v 0.014275114051997662 -1.5264998154407294e-09 0.012100829742848873
v 0.014342974871397018 -1.2036371899171172e-09 0.018393900245428085
v -1.7022903919805543e-10 -0.014275114051997662 0.010909024626016617
v -1.7022903919805543e-10 -0.014275114051997662 0.010909024626016617
v -1.710382530051291e-10 -0.014342976734042168 0.02020561695098877
v -0.014342974871397018 5.0265638873447926e-11 0.018393900245428085
v -0.014275114051997662 -2.7853003237154894e-10 0.012100829742848873
v -0.014342974871397018 5.0265638873447926e-11 0.018393900245428085
v -1.710382530051291e-10 -0.014342976734042168 0.02020561695098877
v 6.269514352119643e-10 0.014342973940074444 0.020205626264214516
v 0.014342974871397018 -1.2036371899171172e-09 0.018393900245428085
v -0.007965278811752796 0.00497217383235693 0.014090091921389103
v -0.236830934882164 0.006462885532528162 0.014681847766041756
v -0.236830934882164 -0.00646289624273777 0.014681847766041756
v -0.007965278811752796 -0.00497217383235693 0.014090091921389103
v -0.236830934882164 0.006462885532528162 0.014681847766041756
v -0.236830934882164 0.006462885532528162 0.016248898580670357
v -0.2397521585226059 0.0 0.014090091921389103
v -0.236830934882164 -0.00646289624273777 0.016248898580670357
v -0.236830934882164 -0.00646289624273777 0.014681847766041756
v -0.007965278811752796 0.00497217383235693 0.016840655356645584
v -0.236830934882164 0.006462885532528162 0.016248898580670357
v -0.2397521585226059 0.0 0.016840655356645584
v -0.007965278811752796 -0.00497217383235693 0.016840655356645584
v -0.236830934882164 -0.00646289624273777 0.016248898580670357
v 0.007965278811752796 -0.004972172901034355 0.014090091921389103
v 0.236830934882164 -0.006462849676609039 0.014681847766041756
v 0.236830934882164 0.006462932098656893 0.014681847766041756
v 0.007965278811752796 0.004972175229340792 0.014090091921389103
v 0.236830934882164 -0.006462849676609039 0.014681847766041756
v 0.236830934882164 -0.006462849676609039 0.016248898580670357
v 0.2397521585226059 3.620156974193378e-08 0.014090091921389103
v 0.236830934882164 0.006462932098656893 0.016248898580670357
v 0.236830934882164 0.006462932098656893 0.014681847766041756
v 0.007965278811752796 -0.004972172901034355 0.016840655356645584
v 0.236830934882164 -0.006462849676609039 0.016248898580670357
v 0.2397521585226059 3.620156974193378e-08 0.016840655356645584
v 0.007965278811752796 0.004972175229340792 0.016840655356645584
v 0.236830934882164 0.006462932098656893 0.016248898580670357
g submesh_0
f 5 6 1
f 1 6 2
f 38 7 37
f 37 7 3
f 40 8 39
f 39 8 4
f 42 43 41
f 41 43 44
f 9 10 45
f 45 10 46
f 48 11 47
f 47 11 49
f 51 12 50
f 50 12 52
f 54 55 53
f 53 55 56
f 13 14 57
f 57 14 58
f 60 15 59
f 59 15 61
f 63 16 62
f 62 16 64
f 66 67 65
f 65 67 68
f 72 71 70
f 70 71 69
f 19 17 20
f 20 17 18
f 22 21 24
f 24 21 23
f 76 75 73
f 73 75 25
f 73 25 74
f 81 80 79
f 79 80 26
f 79 26 77
f 77 26 78
f 86 85 84
f 84 85 82
f 84 82 83
f 29 27 30
f 30 27 28
f 32 31 34
f 34 31 33
f 90 89 87
f 87 89 35
f 87 35 88
f 95 94 93
f 93 94 36
f 93 36 91
f 91 36 92
f 100 99 98
f 98 99 96
f 98 96 97
