# polySurface2
v -0.8090174794197083 -1.0 -0.5877856016159058
v -0.8090174794197083 1.0 -0.5877856016159058
v -0.9510570764541626 1.0 -0.30901721119880676
v -0.9510570764541626 -1.0 -0.30901721119880676
v -0.5877856016159058 -1.0 -0.8090174794197083
v -0.5877856016159058 1.0 -0.8090174794197083
v -0.309017151594162 -1.0 -0.9510570168495178
v -0.309017151594162 1.0 -0.9510570168495178
v -1.4891071486999863e-08 -1.0 -1.0000004768371582
v -1.4891071486999863e-08 1.0 -1.0000004768371582
v 0.3090170919895172 -1.0 -0.9510568976402283
v 0.3090170919895172 1.0 -0.9510568976402283
v 0.5877854228019714 -1.0 -0.8090173006057739
v 0.5877854228019714 1.0 -0.8090173006057739
v 0.8090172410011292 -1.0 -0.5877854824066162
v 0.8090172410011292 1.0 -0.5877854824066162
v 0.9510567784309387 -1.0 -0.3090170919895172
v 0.9510567784309387 1.0 -0.3090170919895172
v 1.000000238418579 -1.0 -3.5555558497435413e-09
v 1.000000238418579 1.0 -3.5555558497435413e-09
v 0.9510567784309387 -1.0 0.3090170621871948
v 0.9510567784309387 1.0 0.3090170621871948
v 0.8090171813964844 -1.0 0.5877853631973267
v 0.8090171813964844 1.0 0.5877853631973267
v 0.5877853631973267 -1.0 0.8090171217918396
v 0.5877853631973267 1.0 0.8090171217918396
v 0.30901703238487244 -1.0 0.9510566592216492
v 0.30901703238487244 1.0 0.9510566592216492
v 1.1973817493071692e-08 -1.0 1.0000001192092896
v 1.1973817493071692e-08 1.0 1.0
v -0.30901703238487244 -1.0 0.9510566592216492
v -0.30901703238487244 1.0 0.9510566592216492
v -0.5877853035926819 -1.0 0.8090170621871948
v -0.5877853035926819 1.0 0.8090170621871948
v -0.8090170621871948 -1.0 0.5877853035926819
v -0.8090170621871948 1.0 0.5877853035926819
v -0.9510565400123596 -1.0 0.30901700258255005
v -0.9510565400123596 1.0 0.30901700258255005
v -1.0 -1.0 0.0
v -1.0 1.0 0.0
v -0.799057126045227 1.156434416770935 -0.5805490016937256
v -0.9393479824066162 1.156434416770935 -0.30521270632743835
v -0.5805490016937256 1.156434416770935 -0.799057126045227
v -0.3052126467227936 1.156434416770935 -0.9393479228019714
v -1.4707737250319042e-08 1.156434416770935 -0.9876888394355774
v 0.3052125871181488 1.156434416770935 -0.9393478035926819
v 0.5805488228797913 1.156434416770935 -0.7990569472312927
v 0.799056887626648 1.156434416770935 -0.580548882484436
v 0.9393476843833923 1.156434416770935 -0.3052125871181488
v 0.9876886010169983 1.156434416770935 -3.511786417220719e-09
v 0.9393476843833923 1.156434416770935 0.3052125573158264
v 0.7990568280220032 1.156434416770935 0.5805487632751465
v 0.5805487632751465 1.156434416770935 0.7990567684173584
v 0.30521252751350403 1.156434416770935 0.9393475651741028
v 1.1826401191683544e-08 1.156434416770935 0.9876884818077087
v -0.30521252751350403 1.156434416770935 0.9393475651741028
v -0.5805487036705017 1.156434416770935 0.7990567088127136
v -0.7990567088127136 1.156434416770935 0.5805487036705017
v -0.939347505569458 1.156434416770935 0.30521249771118164
v -0.9876883625984192 1.156434416770935 0.0
v -0.7694213390350342 1.3090169429779053 -0.5590173602104187
v -0.9045090675354004 1.3090169429779053 -0.29389283061027527
v -0.5590173602104187 1.3090169429779053 -0.7694213390350342
v -0.2938927710056305 1.3090169429779053 -0.9045090079307556
v -1.4162253592076013e-08 1.3090169429779053 -0.9510570168495178
v 0.2938927412033081 1.3090169429779053 -0.9045088887214661
v 0.5590171813964844 1.3090169429779053 -0.7694212198257446
v 0.7694211602210999 1.3090169429779053 -0.5590172410011292
v 0.9045087695121765 1.3090169429779053 -0.2938927412033081
v 0.9510567784309387 1.3090169429779053 -3.381543933755893e-09
v 0.9045087695121765 1.3090169429779053 0.2938927114009857
v 0.7694211006164551 1.3090169429779053 0.5590171217918396
v 0.5590171217918396 1.3090169429779053 0.7694210410118103
v 0.29389268159866333 1.3090169429779053 0.904508650302887
v 1.1387776055471477e-08 1.3090169429779053 0.9510566592216492
v -0.29389268159866333 1.3090169429779053 0.904508650302887
v -0.5590170621871948 1.3090169429779053 0.7694209814071655
v -0.7694209814071655 1.3090169429779053 0.5590170621871948
v -0.9045085310935974 1.3090169429779053 0.29389265179634094
v -0.9510565400123596 1.3090169429779053 0.0
v -0.7208398580551147 1.4539904594421387 -0.5237208008766174
v -0.847398042678833 1.4539904594421387 -0.275336354970932
v -0.5237208008766174 1.4539904594421387 -0.7208398580551147
v -0.27533629536628723 1.4539904594421387 -0.8473979830741882
v -1.3268049769976642e-08 1.4539904594421387 -0.8910069465637207
v 0.27533623576164246 1.4539904594421387 -0.8473979234695435
v 0.5237206220626831 1.4539904594421387 -0.7208396792411804
v 0.7208396196365356 1.4539904594421387 -0.5237206816673279
v 0.8473978042602539 1.4539904594421387 -0.27533623576164246
v 0.8910067677497864 1.4539904594421387 -3.1680258416599827e-09
v 0.8473978042602539 1.4539904594421387 0.27533620595932007
v 0.7208396196365356 1.4539904594421387 0.5237206220626831
v 0.5237206220626831 1.4539904594421387 0.7208395600318909
v 0.27533620595932007 1.4539904594421387 0.8473976850509644
v 1.0668749439446401e-08 1.4539904594421387 0.8910066485404968
v -0.27533620595932007 1.4539904594421387 0.8473976850509644
v -0.5237205624580383 1.4539904594421387 0.7208395004272461
v -0.7208395004272461 1.4539904594421387 0.5237205624580383
v -0.8473975658416748 1.4539904594421387 0.2753361761569977
v -0.8910065293312073 1.4539904594421387 0.0
v -0.6545088887214661 1.587785243988037 -0.4755285382270813
v -0.7694213390350342 1.587785243988037 -0.2500001788139343
v -0.4755285382270813 1.587785243988037 -0.6545088887214661
v -0.25000011920928955 1.587785243988037 -0.7694212794303894
v -1.2047138397974777e-08 1.587785243988037 -0.8090173602104187
v 0.25000008940696716 1.587785243988037 -0.7694212198257446
v 0.47552838921546936 1.587785243988037 -0.6545087695121765
v 0.6545087099075317 1.587785243988037 -0.47552844882011414
v 0.7694211006164551 1.587785243988037 -0.25000008940696716
v 0.8090171813964844 1.587785243988037 -2.8765043680323288e-09
v 0.7694211006164551 1.587785243988037 0.2500000596046448
v 0.654508650302887 1.587785243988037 0.475528359413147
v 0.475528359413147 1.587785243988037 0.6545085906982422
v 0.2500000298023224 1.587785243988037 0.7694209814071655
v 9.687020963156101e-09 1.587785243988037 0.8090171217918396
v -0.2500000298023224 1.587785243988037 0.7694209814071655
v -0.4755282998085022 1.587785243988037 0.6545085310935974
v -0.6545085310935974 1.587785243988037 0.4755282998085022
v -0.7694209218025208 1.587785243988037 0.25
v -0.80901700258255 1.587785243988037 0.0
v -0.5720617175102234 1.7071068286895752 -0.4156271815299988
v -0.672498881816864 1.7071068286895752 -0.21850816905498505
v -0.4156271815299988 1.7071068286895752 -0.5720617175102234
v -0.21850812435150146 1.7071068286895752 -0.672498881816864
v -1.052957543379307e-08 1.7071068286895752 -0.7071071267127991
v 0.21850807964801788 1.7071068286895752 -0.6724987626075745
v 0.41562706232070923 1.7071068286895752 -0.5720615983009338
v 0.5720615386962891 1.7071068286895752 -0.4156270921230316
v 0.6724987030029297 1.7071068286895752 -0.21850807964801788
v 0.7071069478988647 1.7071068286895752 -2.514155994504108e-09
v 0.6724987030029297 1.7071068286895752 0.2185080498456955
v 0.5720615386962891 1.7071068286895752 0.41562700271606445
v 0.41562700271606445 1.7071068286895752 0.5720614790916443
v 0.2185080349445343 1.7071068286895752 0.6724985837936401
v -1.1130184418561839e-07 1.7577705383300781 0.6570107340812683
v -0.20302747189998627 1.7577705383300781 0.6248543858528137
v -0.38618120551109314 1.7577705383300781 0.5315328240394592
v -0.5315328240394592 1.7577705383300781 0.3861812353134155
v -0.624854326248169 1.7577705383300781 0.20302747189998627
v -0.7071067690849304 1.7071068286895752 0.0
v -0.4755285382270813 1.8090169429779053 -0.3454917073249817
v -0.5590173006057739 1.8090169429779053 -0.1816357523202896
v -0.3454917073249817 1.8090169429779053 -0.4755285382270813
v -0.16470886766910553 1.8494852781295776 -0.5069218277931213
v -8.752749636187218e-09 1.8090169429779053 -0.587785542011261
v 0.18163569271564484 1.8090169429779053 -0.5590171813964844
v 0.34549158811569214 1.8090169429779053 -0.47552841901779175
v 0.47552838921546936 1.8090169429779053 -0.3454916477203369
v 0.5069215297698975 1.8494853973388672 -0.16470880806446075
v 0.5877853631973267 1.8090169429779053 -2.0899051378364675e-09
v 0.5590171217918396 1.8090169429779053 0.18163566291332245
v 0.475528359413147 1.8090169429779053 0.34549155831336975
v 0.34549155831336975 1.8090169429779053 0.4755283296108246
v 0.18163564801216125 1.8090169429779053 0.5590170621871948
v -0.5330087542533875 1.8494853973388672 3.949109039780296e-09
v -0.4317708909511566 1.8910064697265625 -0.14029088616371155
v -0.3192603588104248 1.8951983451843262 -0.3192603588104248
v 0.07063043117523193 1.8951983451843262 -0.44594356417655945
v 0.3192603588104248 1.8951983451843262 -0.31926023960113525
v 0.4459434151649475 1.8951983451843262 0.0706305280327797
v 0.31926023960113525 1.8951983451843262 0.31926026940345764
v 0.0706305205821991 1.8951983451843262 0.4459433853626251
v -0.2049776017665863 1.8951983451843262 0.4022913873195648
v -0.40229129791259766 1.8951983451843262 0.20497772097587585
v -0.2937368154525757 1.9511468410491943 -0.09544087201356888
v -0.18033356964588165 1.9544007778167725 -0.2482079118490219
v 0.048419103026390076 1.952195167541504 -0.30570659041404724
v 0.21886171400547028 1.952195167541504 -0.21886172890663147
v 0.3068017065525055 1.9544007778167725 5.979157435831439e-08
v 0.2188616693019867 1.952195167541504 0.21886172890663147
v 0.048419173806905746 1.952195167541504 0.3057065010070801
v -0.14051778614521027 1.952195167541504 0.2757818102836609
v -0.2757817804813385 1.952195167541504 0.14051786065101624
v -0.1475154310464859 1.9880682229995728 -0.047930676490068436
v 0.024614032357931137 1.988895297050476 -0.15540707111358643
v 0.15540704131126404 1.988895297050476 -0.02461406961083412
v 0.07143279165029526 1.988895297050476 0.14019471406936646
v -0.09271682798862457 1.9881941080093384 0.12761379778385162
v 0.0 2.0 0.0
v -0.1475154310464859 -1.9880682229995728 -0.04793066903948784
v 0.0 -2.0 0.0
v -0.02373182773590088 -1.9914419651031494 0.14983679354190826
v 0.15540704131126404 -1.988895297050476 0.024614065885543823
v 0.09271688759326935 -1.9881941080093384 -0.12761381268501282
v -0.07143281400203705 -1.988895297050476 -0.14019475877285004
v -0.9876883625984192 -1.156434416770935 0.0
v -0.9393479824066162 -1.156434416770935 -0.30521270632743835
v -0.939347505569458 -1.156434416770935 0.30521249771118164
v -0.7990567088127136 -1.156434416770935 0.5805487036705017
v -0.5805487036705017 -1.156434416770935 0.7990567088127136
v -0.30521252751350403 -1.156434416770935 0.9393475651741028
v 1.1826401191683544e-08 -1.156434416770935 0.9876884818077087
v 0.30521252751350403 -1.156434416770935 0.9393475651741028
v 0.5805487632751465 -1.156434416770935 0.7990567684173584
v 0.7990568280220032 -1.156434416770935 0.5805487632751465
v 0.9393476843833923 -1.156434416770935 0.3052125573158264
v 0.9876886010169983 -1.156434416770935 -3.511786417220719e-09
v 0.9393476843833923 -1.156434416770935 -0.3052125871181488
v 0.799056887626648 -1.156434416770935 -0.580548882484436
v 0.5805488228797913 -1.156434416770935 -0.7990569472312927
v 0.3052125871181488 -1.156434416770935 -0.9393478035926819
v -1.4707737250319042e-08 -1.156434416770935 -0.9876888394355774
v -0.3052126467227936 -1.156434416770935 -0.9393479228019714
v -0.5805490016937256 -1.156434416770935 -0.799057126045227
v -0.799057126045227 -1.156434416770935 -0.5805490016937256
v -0.9510565400123596 -1.3090169429779053 0.0
v -0.9045090675354004 -1.3090169429779053 -0.29389283061027527
v -0.9045085310935974 -1.3090169429779053 0.29389265179634094
v -0.7694209814071655 -1.3090169429779053 0.5590170621871948
v -0.5590170621871948 -1.3090169429779053 0.7694209814071655
v -0.29389268159866333 -1.3090169429779053 0.904508650302887
v 1.1387776055471477e-08 -1.3090169429779053 0.9510566592216492
v 0.29389268159866333 -1.3090169429779053 0.904508650302887
v 0.5590171217918396 -1.3090169429779053 0.7694210410118103
v 0.7694211006164551 -1.3090169429779053 0.5590171217918396
v 0.9045087695121765 -1.3090169429779053 0.2938927114009857
v 0.9510567784309387 -1.3090169429779053 -3.381543933755893e-09
v 0.9045087695121765 -1.3090169429779053 -0.2938927412033081
v 0.7694211602210999 -1.3090169429779053 -0.5590172410011292
v 0.5590171813964844 -1.3090169429779053 -0.7694212198257446
v 0.2938927412033081 -1.3090169429779053 -0.9045088887214661
v -1.4162253592076013e-08 -1.3090169429779053 -0.9510570168495178
v -0.2938927710056305 -1.3090169429779053 -0.9045090079307556
v -0.5590173602104187 -1.3090169429779053 -0.7694213390350342
v -0.7694213390350342 -1.3090169429779053 -0.5590173602104187
v -0.8910065293312073 -1.4539904594421387 0.0
v -0.847398042678833 -1.4539904594421387 -0.275336354970932
v -0.8473975658416748 -1.4539904594421387 0.2753361761569977
v -0.7208395004272461 -1.4539904594421387 0.5237205624580383
v -0.5237205624580383 -1.4539904594421387 0.7208395004272461
v -0.27533620595932007 -1.4539904594421387 0.8473976850509644
v 1.0668749439446401e-08 -1.4539904594421387 0.8910066485404968
v 0.27533620595932007 -1.4539904594421387 0.8473976850509644
v 0.5237206220626831 -1.4539904594421387 0.7208395600318909
v 0.7208396196365356 -1.4539904594421387 0.5237206220626831
v 0.8473978042602539 -1.4539904594421387 0.27533620595932007
v 0.8910067677497864 -1.4539904594421387 -3.1680258416599827e-09
v 0.8473978042602539 -1.4539904594421387 -0.27533623576164246
v 0.7208396196365356 -1.4539904594421387 -0.5237206816673279
v 0.5237206220626831 -1.4539904594421387 -0.7208396792411804
v 0.27533623576164246 -1.4539904594421387 -0.8473979234695435
v -1.3268049769976642e-08 -1.4539904594421387 -0.8910069465637207
v -0.27533629536628723 -1.4539904594421387 -0.8473979830741882
v -0.5237208008766174 -1.4539904594421387 -0.7208398580551147
v -0.7208398580551147 -1.4539904594421387 -0.5237208008766174
v -0.80901700258255 -1.587785243988037 0.0
v -0.7694213390350342 -1.587785243988037 -0.2500001788139343
v -0.7694209218025208 -1.587785243988037 0.25
v -0.6545085310935974 -1.587785243988037 0.4755282998085022
v -0.4755282998085022 -1.587785243988037 0.6545085310935974
v -0.2500000298023224 -1.587785243988037 0.7694209814071655
v 9.687020963156101e-09 -1.587785243988037 0.8090171217918396
v 0.2500000298023224 -1.587785243988037 0.7694209814071655
v 0.475528359413147 -1.587785243988037 0.6545085906982422
v 0.654508650302887 -1.587785243988037 0.475528359413147
v 0.7694211006164551 -1.587785243988037 0.2500000596046448
v 0.8090171813964844 -1.587785243988037 -2.8765043680323288e-09
v 0.7694211006164551 -1.587785243988037 -0.25000008940696716
v 0.6545087099075317 -1.587785243988037 -0.47552844882011414
v 0.47552838921546936 -1.587785243988037 -0.6545087695121765
v 0.25000008940696716 -1.587785243988037 -0.7694212198257446
v -1.2047138397974777e-08 -1.587785243988037 -0.8090173602104187
v -0.25000011920928955 -1.587785243988037 -0.7694212794303894
v -0.4755285382270813 -1.587785243988037 -0.6545088887214661
v -0.6545088887214661 -1.587785243988037 -0.4755285382270813
v -0.7071067690849304 -1.7071068286895752 0.0
v -0.672498881816864 -1.7071068286895752 -0.21850816905498505
v -0.624854326248169 -1.7577705383300781 0.20302748680114746
v -0.5315328240394592 -1.7577705383300781 0.38618120551109314
v -0.41562697291374207 -1.7071068286895752 0.5720614194869995
v -0.20302747189998627 -1.7577705383300781 0.6248543858528137
v 8.466770395898493e-09 -1.7071068286895752 0.7071068286895752
v 0.2185080349445343 -1.7071068286895752 0.6724985837936401
v 0.41562700271606445 -1.7071068286895752 0.5720614790916443
v 0.5720615386962891 -1.7071068286895752 0.41562700271606445
v 0.6724987030029297 -1.7071068286895752 0.2185080498456955
v 0.7071069478988647 -1.7071068286895752 -2.514155994504108e-09
v 0.6724987030029297 -1.7071068286895752 -0.21850807964801788
v 0.5720615386962891 -1.7071068286895752 -0.4156270921230316
v 0.41562706232070923 -1.7071068286895752 -0.5720615983009338
v 0.21850807964801788 -1.7071068286895752 -0.6724987626075745
v -1.052957543379307e-08 -1.7071068286895752 -0.7071071267127991
v -0.21850812435150146 -1.7071068286895752 -0.672498881816864
v -0.4156271815299988 -1.7071068286895752 -0.5720617175102234
v -0.5720617175102234 -1.7071068286895752 -0.4156271815299988
v -0.5330087542533875 -1.8494853973388672 3.711977170084424e-09
v -0.5590173006057739 -1.8090169429779053 -0.1816357523202896
v -0.31329473853111267 -1.8494852781295776 0.43121322989463806
v 7.038032379114156e-09 -1.8090169429779053 0.5877853035926819
v 0.18163564801216125 -1.8090169429779053 0.5590170621871948
v 0.34549155831336975 -1.8090169429779053 0.4755283296108246
v 0.475528359413147 -1.8090169429779053 0.34549155831336975
v 0.5590171217918396 -1.8090169429779053 0.18163566291332245
v 0.5877853631973267 -1.8090169429779053 -2.0899051378364675e-09
v 0.5590171217918396 -1.8090169429779053 -0.18163569271564484
v 0.47552838921546936 -1.8090169429779053 -0.3454916477203369
v 0.34549158811569214 -1.8090169429779053 -0.47552841901779175
v 0.18163569271564484 -1.8090169429779053 -0.5590171813964844
v -8.752749636187218e-09 -1.8090169429779053 -0.587785542011261
v -0.16470889747142792 -1.8494852781295776 -0.5069217681884766
v -0.3454917073249817 -1.8090169429779053 -0.4755285382270813
v -0.4755285382270813 -1.8090169429779053 -0.3454917073249817
v -0.4317708909511566 -1.8910064697265625 -0.14029088616371155
v -0.40229129791259766 -1.8951983451843262 0.20497770607471466
v -0.07063057273626328 -1.8951983451843262 0.4459433853626251
v 0.20497769117355347 -1.8951983451843262 0.40229135751724243
v 0.402291476726532 -1.8951983451843262 0.2049776017665863
v 0.4459434747695923 -1.8951983451843262 -0.07063057273626328
v 0.31926029920578003 -1.8951983451843262 -0.31926026940345764
v 0.07063044607639313 -1.8951983451843262 -0.44594353437423706
v -0.3192603886127472 -1.8951983451843262 -0.3192603886127472
v -0.2937367856502533 -1.9511468410491943 -0.09544089436531067
v -0.3057064116001129 -1.952195167541504 0.04841938242316246
v -0.21886169910430908 -1.952195167541504 0.2188616544008255
v -0.04841924458742142 -1.952195167541504 0.3057064712047577
v 0.14051787555217743 -1.952195167541504 0.2757818102836609
v 0.29178574681282043 -1.9544007778167725 0.0948069840669632
v 0.24820783734321594 -1.9544007778167725 -0.18033355474472046
v 0.04841911047697067 -1.952195167541504 -0.30570659041404724
v -0.14051787555217743 -1.952195167541504 -0.27578192949295044
v -0.9510570764541626 -1.0 -0.30901721119880676
v -0.9510570764541626 1.0 -0.30901721119880676
v -0.8090174794197083 1.0 -0.5877856016159058
v -0.9510570764541626 1.0 -0.30901721119880676
v -0.5877856016159058 1.0 -0.8090174794197083
v -0.309017151594162 1.0 -0.9510570168495178
v -1.4891071486999863e-08 1.0 -1.0000004768371582
v 0.3090170919895172 1.0 -0.9510568976402283
v 0.5877854228019714 1.0 -0.8090173006057739
v 0.8090172410011292 1.0 -0.5877854824066162
v 0.9510567784309387 1.0 -0.3090170919895172
v 1.000000238418579 1.0 -3.5555558497435413e-09
v 0.9510567784309387 1.0 0.3090170621871948
v 0.8090171813964844 1.0 0.5877853631973267
v 0.5877853631973267 1.0 0.8090171217918396
v 0.30901703238487244 1.0 0.9510566592216492
v 1.1973817493071692e-08 1.0 1.0
v -0.30901703238487244 1.0 0.9510566592216492
v -0.5877853035926819 1.0 0.8090170621871948
v -0.8090170621871948 1.0 0.5877853035926819
v -0.9510565400123596 1.0 0.30901700258255005
v -1.0 1.0 0.0
v -0.9510570764541626 1.0 -0.30901721119880676
v -0.9393479824066162 1.156434416770935 -0.30521270632743835
v -0.9045090675354004 1.3090169429779053 -0.29389283061027527
v -0.847398042678833 1.4539904594421387 -0.275336354970932
v -0.7694213390350342 1.587785243988037 -0.2500001788139343
v -0.672498881816864 1.7071068286895752 -0.21850816905498505
v -0.5590173006057739 1.8090169429779053 -0.1816357523202896
v -0.4317708909511566 1.8910064697265625 -0.14029088616371155
v -0.2937368154525757 1.9511468410491943 -0.09544087201356888
v -0.1475154310464859 1.9880682229995728 -0.047930676490068436
v 0.0 2.0 0.0
v 0.0 2.0 0.0
v 0.0 2.0 0.0
v 0.0 2.0 0.0
v -0.1475154310464859 1.9880682229995728 -0.047930676490068436
v -0.02373182773590088 -1.9914419651031494 0.14983679354190826
v 0.0 -2.0 0.0
v 0.0 -2.0 0.0
v 0.0 -2.0 0.0
v 0.0 -2.0 0.0
v -0.1475154310464859 -1.9880682229995728 -0.04793066903948784
v -0.9510570764541626 -1.0 -0.30901721119880676
v -1.0 -1.0 0.0
v -0.9510565400123596 -1.0 0.30901700258255005
v -0.8090170621871948 -1.0 0.5877853035926819
v -0.5877853035926819 -1.0 0.8090170621871948
v -0.30901703238487244 -1.0 0.9510566592216492
v 1.1973817493071692e-08 -1.0 1.0000001192092896
v 0.30901703238487244 -1.0 0.9510566592216492
v 0.5877853631973267 -1.0 0.8090171217918396
v 0.8090171813964844 -1.0 0.5877853631973267
v 0.9510567784309387 -1.0 0.3090170621871948
v 1.000000238418579 -1.0 -3.5555558497435413e-09
v 0.9510567784309387 -1.0 -0.3090170919895172
v 0.8090172410011292 -1.0 -0.5877854824066162
v 0.5877854228019714 -1.0 -0.8090173006057739
v 0.3090170919895172 -1.0 -0.9510568976402283
v -1.4891071486999863e-08 -1.0 -1.0000004768371582
v -0.309017151594162 -1.0 -0.9510570168495178
v -0.5877856016159058 -1.0 -0.8090174794197083
v -0.8090174794197083 -1.0 -0.5877856016159058
v -0.9393479824066162 -1.156434416770935 -0.30521270632743835
v -0.9510570764541626 -1.0 -0.30901721119880676
v -0.9045090675354004 -1.3090169429779053 -0.29389283061027527
v -0.847398042678833 -1.4539904594421387 -0.275336354970932
v -0.7694213390350342 -1.587785243988037 -0.2500001788139343
v -0.672498881816864 -1.7071068286895752 -0.21850816905498505
v -0.5590173006057739 -1.8090169429779053 -0.1816357523202896
v -0.4317708909511566 -1.8910064697265625 -0.14029088616371155
v -0.2937367856502533 -1.9511468410491943 -0.09544089436531067
v -0.02373182773590088 -1.9914419651031494 0.14983679354190826
v -0.1475154310464859 -1.9880682229995728 -0.04793066903948784
g submesh_0
f 357 178 356
f 363 185 362
f 322 321 40
f 40 321 39
f 40 39 38
f 38 39 37
f 38 37 36
f 36 37 35
f 36 35 34
f 34 35 33
f 34 33 32
f 32 33 31
f 32 31 30
f 30 31 29
f 30 29 28
f 28 29 27
f 28 27 26
f 26 27 25
f 26 25 24
f 24 25 23
f 24 23 22
f 22 23 21
f 22 21 20
f 20 21 19
f 20 19 18
f 18 19 17
f 18 17 16
f 16 17 15
f 16 15 14
f 14 15 13
f 14 13 12
f 12 13 11
f 12 11 10
f 10 11 9
f 10 9 8
f 8 9 7
f 8 7 6
f 6 7 5
f 6 5 2
f 2 5 1
f 2 1 3
f 3 1 4
f 344 343 60
f 60 343 342
f 60 342 59
f 59 342 341
f 59 341 58
f 58 341 340
f 58 340 57
f 57 340 339
f 57 339 56
f 56 339 338
f 56 338 55
f 55 338 337
f 55 337 54
f 54 337 336
f 54 336 53
f 53 336 335
f 53 335 52
f 52 335 334
f 52 334 51
f 51 334 333
f 51 333 50
f 50 333 332
f 50 332 49
f 49 332 331
f 49 331 48
f 48 331 330
f 48 330 47
f 47 330 329
f 47 329 46
f 46 329 328
f 46 328 45
f 45 328 327
f 45 327 44
f 44 327 326
f 44 326 43
f 43 326 325
f 43 325 41
f 41 325 323
f 41 323 42
f 42 323 324
f 46 45 66
f 66 45 65
f 66 65 86
f 86 65 85
f 86 85 106
f 106 85 105
f 106 105 126
f 126 105 125
f 126 125 146
f 146 125 145
f 146 145 158
f 158 145 144
f 158 144 167
f 167 144 166
f 167 166 175
f 175 166 174
f 175 174 179
f 86 106 107
f 107 106 127
f 107 127 128
f 128 127 148
f 128 148 149
f 149 148 159
f 149 159 169
f 169 159 168
f 169 168 176
f 176 168 175
f 176 175 353
f 52 51 72
f 72 51 71
f 72 71 92
f 92 71 91
f 92 91 112
f 112 91 111
f 112 111 132
f 132 111 131
f 132 131 152
f 152 131 151
f 152 151 161
f 161 151 160
f 161 160 170
f 170 160 169
f 170 169 177
f 177 169 176
f 177 176 354
f 56 55 76
f 76 55 75
f 76 75 96
f 96 75 95
f 96 95 116
f 116 95 115
f 116 115 136
f 136 115 135
f 136 135 163
f 163 135 162
f 163 162 172
f 172 162 171
f 172 171 178
f 178 171 177
f 178 177 355
f 368 367 190
f 190 367 189
f 190 189 210
f 210 189 209
f 210 209 230
f 230 209 229
f 230 229 250
f 250 229 249
f 250 249 270
f 270 249 269
f 270 269 288
f 288 269 304
f 288 304 314
f 314 304 313
f 314 313 182
f 182 313 180
f 182 180 181
f 373 372 195
f 195 372 194
f 195 194 215
f 215 194 214
f 215 214 235
f 235 214 234
f 235 234 255
f 255 234 254
f 255 254 275
f 275 254 274
f 275 274 292
f 292 274 291
f 292 291 307
f 307 291 306
f 307 306 317
f 317 306 316
f 317 316 183
f 183 316 358
f 183 358 359
f 379 378 201
f 201 378 200
f 201 200 221
f 221 200 220
f 221 220 241
f 241 220 240
f 241 240 261
f 261 240 260
f 261 260 281
f 281 260 280
f 281 280 298
f 298 280 297
f 298 297 310
f 310 297 309
f 310 309 319
f 319 309 318
f 319 318 184
f 184 318 183
f 184 183 360
f 261 281 282
f 282 281 299
f 282 299 300
f 300 299 310
f 300 310 320
f 320 310 319
f 320 319 185
f 185 319 184
f 185 184 361
f 385 383 384
f 384 383 205
f 384 205 386
f 386 205 225
f 386 225 387
f 387 225 245
f 387 245 388
f 388 245 265
f 388 265 389
f 389 265 285
f 389 285 390
f 390 285 302
f 390 302 391
f 391 302 311
f 391 311 392
f 392 311 320
f 392 320 185
f 185 394 392
f 41 42 61
f 61 42 62
f 61 62 81
f 81 62 82
f 81 82 101
f 101 82 102
f 101 102 121
f 121 102 122
f 121 122 141
f 141 122 142
f 141 142 157
f 157 142 156
f 157 156 166
f 166 156 165
f 166 165 174
f 351 350 155
f 155 350 349
f 155 349 140
f 140 349 348
f 140 348 120
f 120 348 347
f 120 347 100
f 100 347 346
f 100 346 80
f 80 346 345
f 80 345 60
f 60 345 344
f 60 59 80
f 80 59 79
f 80 79 100
f 100 79 99
f 100 99 120
f 120 99 119
f 120 119 140
f 140 119 139
f 140 139 155
f 155 139 164
f 155 164 351
f 351 164 173
f 351 173 352
f 352 173 178
f 365 364 186
f 186 364 187
f 186 187 206
f 206 187 207
f 206 207 226
f 226 207 227
f 226 227 246
f 246 227 247
f 246 247 266
f 266 247 267
f 266 267 286
f 286 267 287
f 286 287 303
f 366 365 188
f 188 365 186
f 188 186 208
f 208 186 206
f 208 206 228
f 228 206 226
f 228 226 248
f 248 226 246
f 248 246 268
f 268 246 266
f 268 266 286
f 367 366 189
f 189 366 188
f 189 188 209
f 209 188 208
f 209 208 229
f 229 208 228
f 229 228 249
f 249 228 248
f 249 248 269
f 269 248 268
f 269 268 304
f 304 268 286
f 304 286 313
f 313 286 303
f 313 303 312
f 369 368 191
f 191 368 190
f 191 190 211
f 211 190 210
f 211 210 231
f 231 210 230
f 231 230 251
f 251 230 250
f 251 250 271
f 271 250 270
f 271 270 288
f 316 306 305
f 305 306 289
f 305 289 271
f 271 289 272
f 271 272 251
f 251 272 252
f 251 252 231
f 231 252 232
f 231 232 211
f 211 232 212
f 211 212 191
f 191 212 192
f 191 192 369
f 369 192 370
f 371 370 193
f 193 370 192
f 193 192 213
f 213 192 212
f 213 212 233
f 233 212 232
f 233 232 253
f 253 232 252
f 253 252 273
f 273 252 272
f 273 272 290
f 290 272 289
f 290 289 306
f 372 371 194
f 194 371 193
f 194 193 214
f 214 193 213
f 214 213 234
f 234 213 233
f 234 233 254
f 254 233 253
f 254 253 274
f 274 253 273
f 274 273 291
f 291 273 290
f 291 290 306
f 374 373 196
f 196 373 195
f 196 195 216
f 216 195 215
f 216 215 236
f 236 215 235
f 236 235 256
f 256 235 255
f 256 255 276
f 276 255 275
f 276 275 293
f 293 275 292
f 293 292 307
f 375 374 197
f 197 374 196
f 197 196 217
f 217 196 216
f 217 216 237
f 237 216 236
f 237 236 257
f 257 236 256
f 257 256 277
f 277 256 276
f 277 276 294
f 294 276 293
f 294 293 308
f 308 293 307
f 308 307 317
f 376 375 198
f 198 375 197
f 198 197 218
f 218 197 217
f 218 217 238
f 238 217 237
f 238 237 258
f 258 237 257
f 258 257 278
f 278 257 277
f 278 277 295
f 295 277 294
f 295 294 308
f 377 376 199
f 199 376 198
f 199 198 219
f 219 198 218
f 219 218 239
f 239 218 238
f 239 238 259
f 259 238 258
f 259 258 279
f 279 258 278
f 279 278 296
f 296 278 295
f 296 295 309
f 309 295 308
f 309 308 318
f 318 308 317
f 318 317 183
f 378 377 200
f 200 377 199
f 200 199 220
f 220 199 219
f 220 219 240
f 240 219 239
f 240 239 260
f 260 239 259
f 260 259 280
f 280 259 279
f 280 279 297
f 297 279 296
f 297 296 309
f 380 379 202
f 202 379 201
f 202 201 222
f 222 201 221
f 222 221 242
f 242 221 241
f 242 241 262
f 262 241 261
f 262 261 282
f 381 380 203
f 203 380 202
f 203 202 223
f 223 202 222
f 223 222 243
f 243 222 242
f 243 242 263
f 263 242 262
f 263 262 283
f 283 262 282
f 283 282 300
f 320 311 300
f 300 311 301
f 300 301 283
f 283 301 284
f 283 284 263
f 263 284 264
f 263 264 243
f 243 264 244
f 243 244 223
f 223 244 224
f 223 224 203
f 203 224 204
f 203 204 381
f 381 204 382
f 383 382 205
f 205 382 204
f 205 204 225
f 225 204 224
f 225 224 245
f 245 224 244
f 245 244 265
f 265 244 264
f 265 264 285
f 285 264 284
f 285 284 302
f 302 284 301
f 302 301 311
f 312 180 313
f 305 271 288
f 305 288 315
f 315 288 314
f 315 314 393
f 305 315 316
f 316 315 393
f 43 41 63
f 63 41 61
f 63 61 83
f 83 61 81
f 83 81 103
f 103 81 101
f 103 101 123
f 123 101 121
f 123 121 143
f 143 121 141
f 143 141 157
f 44 43 64
f 64 43 63
f 64 63 84
f 84 63 83
f 84 83 104
f 104 83 103
f 104 103 124
f 124 103 123
f 124 123 144
f 144 123 143
f 144 143 157
f 144 145 124
f 124 145 125
f 124 125 104
f 104 125 105
f 104 105 84
f 84 105 85
f 84 85 64
f 64 85 65
f 64 65 44
f 44 65 45
f 46 66 67
f 46 67 47
f 47 67 68
f 47 68 48
f 48 68 69
f 48 69 49
f 49 69 70
f 49 70 50
f 50 70 71
f 50 71 51
f 53 52 73
f 73 52 72
f 73 72 93
f 93 72 92
f 93 92 113
f 113 92 112
f 113 112 133
f 133 112 132
f 133 132 153
f 153 132 152
f 153 152 161
f 54 53 74
f 74 53 73
f 74 73 94
f 94 73 93
f 94 93 114
f 114 93 113
f 114 113 134
f 134 113 133
f 134 133 154
f 154 133 153
f 154 153 162
f 162 153 161
f 162 161 171
f 171 161 170
f 171 170 177
f 55 54 75
f 75 54 74
f 75 74 95
f 95 74 94
f 95 94 115
f 115 94 114
f 115 114 135
f 135 114 134
f 135 134 154
f 57 56 77
f 77 56 76
f 77 76 97
f 97 76 96
f 97 96 117
f 117 96 116
f 117 116 137
f 137 116 136
f 137 136 163
f 58 57 78
f 78 57 77
f 78 77 98
f 98 77 97
f 98 97 118
f 118 97 117
f 118 117 138
f 138 117 137
f 138 137 164
f 164 137 163
f 164 163 173
f 173 163 172
f 173 172 178
f 59 58 79
f 79 58 78
f 79 78 99
f 99 78 98
f 99 98 119
f 119 98 118
f 119 118 139
f 139 118 138
f 139 138 164
f 66 86 87
f 66 87 67
f 67 87 88
f 67 88 68
f 68 88 89
f 68 89 69
f 69 89 90
f 69 90 70
f 70 90 91
f 70 91 71
f 86 107 87
f 87 107 108
f 87 108 88
f 88 108 109
f 88 109 89
f 89 109 110
f 89 110 90
f 90 110 111
f 90 111 91
f 167 175 168
f 167 168 158
f 158 168 159
f 158 159 146
f 146 159 147
f 146 147 126
f 126 147 127
f 126 127 106
f 107 128 108
f 108 128 129
f 108 129 109
f 109 129 130
f 109 130 110
f 110 130 131
f 110 131 111
f 159 148 147
f 147 148 127
f 128 149 129
f 129 149 150
f 129 150 130
f 130 150 151
f 130 151 131
f 151 150 160
f 160 150 149
f 160 149 169
f 135 154 162
f 144 157 166
f 281 298 299
f 299 298 310
