# Capsule
v -0.4045087397098541 -0.5 -0.2938928008079529
v -0.4045087397098541 0.5 -0.2938928008079529
v -0.4755285382270813 0.5 -0.15450860559940338
v -0.4755285382270813 -0.5 -0.15450860559940338
v -0.2938928008079529 -0.5 -0.4045087397098541
v -0.2938928008079529 0.5 -0.4045087397098541
v -0.154508575797081 -0.5 -0.4755285084247589
v -0.154508575797081 0.5 -0.4755285084247589
v -7.4455357434999314e-09 -0.5 -0.5000002384185791
v -7.4455357434999314e-09 0.5 -0.5000002384185791
v 0.1545085459947586 -0.5 -0.47552844882011414
v 0.1545085459947586 0.5 -0.47552844882011414
v 0.2938927114009857 -0.5 -0.40450865030288696
v 0.2938927114009857 0.5 -0.40450865030288696
v 0.4045086205005646 -0.5 -0.2938927412033081
v 0.4045086205005646 0.5 -0.2938927412033081
v 0.47552838921546936 -0.5 -0.1545085459947586
v 0.47552838921546936 0.5 -0.1545085459947586
v 0.5000001192092896 -0.5 -1.7777779248717707e-09
v 0.5000001192092896 0.5 -1.7777779248717707e-09
v 0.47552838921546936 -0.5 0.1545085310935974
v 0.47552838921546936 0.5 0.1545085310935974
v 0.4045085906982422 -0.5 0.29389268159866333
v 0.4045085906982422 0.5 0.29389268159866333
v 0.29389268159866333 -0.5 0.4045085608959198
v 0.29389268159866333 0.5 0.4045085608959198
v 0.15450851619243622 -0.5 0.4755283296108246
v 0.15450851619243622 0.5 0.4755283296108246
v 5.986908746535846e-09 -0.5 0.5000000596046448
v 5.986908746535846e-09 0.5 0.5
v -0.15450851619243622 -0.5 0.4755283296108246
v -0.15450851619243622 0.5 0.4755283296108246
v -0.29389265179634094 -0.5 0.4045085310935974
v -0.29389265179634094 0.5 0.4045085310935974
v -0.4045085310935974 -0.5 0.29389265179634094
v -0.4045085310935974 0.5 0.29389265179634094
v -0.4755282700061798 -0.5 0.15450850129127502
v -0.4755282700061798 0.5 0.15450850129127502
v -0.5 -0.5 0.0
v -0.5 0.5 0.0
v -0.3995285630226135 0.5782172083854675 -0.2902745008468628
v -0.4696739912033081 0.5782172083854675 -0.15260635316371918
v -0.2902745008468628 0.5782172083854675 -0.3995285630226135
v -0.1526063233613968 0.5782172083854675 -0.4696739614009857
v -7.353868625159521e-09 0.5782172083854675 -0.4938444197177887
v 0.1526062935590744 0.5782172083854675 -0.46967390179634094
v 0.29027441143989563 0.5782172083854675 -0.39952847361564636
v 0.399528443813324 0.5782172083854675 -0.290274441242218
v 0.46967384219169617 0.5782172083854675 -0.1526062935590744
v 0.49384430050849915 0.5782172083854675 -1.7558932086103596e-09
v 0.46967384219169617 0.5782172083854675 0.1526062786579132
v 0.3995284140110016 0.5782172083854675 0.29027438163757324
v 0.29027438163757324 0.5782172083854675 0.3995283842086792
v 0.15260626375675201 0.5782172083854675 0.4696737825870514
v 5.913200595841772e-09 0.5782172083854675 0.49384424090385437
v -0.15260626375675201 0.5782172083854675 0.4696737825870514
v -0.29027435183525085 0.5782172083854675 0.3995283544063568
v -0.3995283544063568 0.5782172083854675 0.29027435183525085
v -0.469673752784729 0.5782172083854675 0.15260624885559082
v -0.4938441812992096 0.5782172083854675 0.0
v -0.3847106695175171 0.6545084714889526 -0.27950868010520935
v -0.4522545337677002 0.6545084714889526 -0.14694641530513763
v -0.27950868010520935 0.6545084714889526 -0.3847106695175171
v -0.14694638550281525 0.6545084714889526 -0.4522545039653778
v -7.0811267960380064e-09 0.6545084714889526 -0.4755285084247589
v 0.14694637060165405 0.6545084714889526 -0.45225444436073303
v 0.2795085906982422 0.6545084714889526 -0.3847106099128723
v 0.3847105801105499 0.6545084714889526 -0.2795086205005646
v 0.45225438475608826 0.6545084714889526 -0.14694637060165405
v 0.47552838921546936 0.6545084714889526 -1.6907719668779464e-09
v 0.45225438475608826 0.6545084714889526 0.14694635570049286
v 0.38471055030822754 0.6545084714889526 0.2795085608959198
v 0.2795085608959198 0.6545084714889526 0.38471052050590515
v 0.14694634079933167 0.6545084714889526 0.4522543251514435
v 5.6938880277357384e-09 0.6545084714889526 0.4755283296108246
v -0.14694634079933167 0.6545084714889526 0.4522543251514435
v -0.2795085310935974 0.6545084714889526 0.38471049070358276
v -0.38471049070358276 0.6545084714889526 0.2795085310935974
v -0.4522542655467987 0.6545084714889526 0.14694632589817047
v -0.4755282700061798 0.6545084714889526 0.0
v -0.3604199290275574 0.7269952297210693 -0.2618604004383087
v -0.4236990213394165 0.7269952297210693 -0.137668177485466
v -0.2618604004383087 0.7269952297210693 -0.3604199290275574
v -0.13766814768314362 0.7269952297210693 -0.4236989915370941
v -6.634024884988321e-09 0.7269952297210693 -0.44550347328186035
v 0.13766811788082123 0.7269952297210693 -0.42369896173477173
v 0.26186031103134155 0.7269952297210693 -0.3604198396205902
v 0.3604198098182678 0.7269952297210693 -0.26186034083366394
v 0.42369890213012695 0.7269952297210693 -0.13766811788082123
v 0.4455033838748932 0.7269952297210693 -1.5840129208299913e-09
v 0.42369890213012695 0.7269952297210693 0.13766810297966003
v 0.3604198098182678 0.7269952297210693 0.26186031103134155
v 0.26186031103134155 0.7269952297210693 0.36041978001594543
v 0.13766810297966003 0.7269952297210693 0.4236988425254822
v 5.3343747197232005e-09 0.7269952297210693 0.4455033242702484
v -0.13766810297966003 0.7269952297210693 0.4236988425254822
v -0.26186028122901917 0.7269952297210693 0.36041975021362305
v -0.36041975021362305 0.7269952297210693 0.26186028122901917
v -0.4236987829208374 0.7269952297210693 0.13766808807849884
v -0.44550326466560364 0.7269952297210693 0.0
v -0.32725444436073303 0.7938926219940186 -0.23776426911354065
v -0.3847106695175171 0.7938926219940186 -0.12500008940696716
v -0.23776426911354065 0.7938926219940186 -0.32725444436073303
v -0.12500005960464478 0.7938926219940186 -0.3847106397151947
v -6.0235691989873885e-09 0.7938926219940186 -0.40450868010520935
v 0.12500004470348358 0.7938926219940186 -0.3847106099128723
v 0.23776419460773468 0.7938926219940186 -0.32725438475608826
v 0.32725435495376587 0.7938926219940186 -0.23776422441005707
v 0.38471055030822754 0.7938926219940186 -0.12500004470348358
v 0.4045085906982422 0.7938926219940186 -1.4382521840161644e-09
v 0.38471055030822754 0.7938926219940186 0.1250000298023224
v 0.3272543251514435 0.7938926219940186 0.2377641797065735
v 0.2377641797065735 0.7938926219940186 0.3272542953491211
v 0.1250000149011612 0.7938926219940186 0.38471049070358276
v 4.8435104815780505e-09 0.7938926219940186 0.4045085608959198
v -0.1250000149011612 0.7938926219940186 0.38471049070358276
v -0.2377641499042511 0.7938926219940186 0.3272542655467987
v -0.3272542655467987 0.7938926219940186 0.2377641499042511
v -0.3847104609012604 0.7938926219940186 0.125
v -0.404508501291275 0.7938926219940186 0.0
v -0.2860308587551117 0.8535534143447876 -0.2078135907649994
v -0.336249440908432 0.8535534143447876 -0.10925408452749252
v -0.2078135907649994 0.8535534143447876 -0.2860308587551117
v -0.10925406217575073 0.8535534143447876 -0.336249440908432
v -5.264787716896535e-09 0.8535534143447876 -0.35355356335639954
v 0.10925403982400894 0.8535534143447876 -0.33624938130378723
v 0.20781353116035461 0.8535534143447876 -0.2860307991504669
v 0.28603076934814453 0.8535534143447876 -0.2078135460615158
v 0.33624935150146484 0.8535534143447876 -0.10925403982400894
v 0.3535534739494324 0.8535534143447876 -1.257077997252054e-09
v 0.33624935150146484 0.8535534143447876 0.10925402492284775
v 0.28603076934814453 0.8535534143447876 0.20781350135803223
v 0.20781350135803223 0.8535534143447876 0.28603073954582214
v 0.10925401747226715 0.8535534143447876 0.33624929189682007
v -5.5650922092809196e-08 0.8788852691650391 0.32850536704063416
v -0.10151373594999313 0.8788852691650391 0.31242719292640686
v -0.19309060275554657 0.8788852691650391 0.2657664120197296
v -0.2657664120197296 0.8788852691650391 0.19309061765670776
v -0.3124271631240845 0.8788852691650391 0.10151373594999313
v -0.3535533845424652 0.8535534143447876 0.0
v -0.23776426911354065 0.9045084714889526 -0.17274585366249084
v -0.27950865030288696 0.9045084714889526 -0.0908178761601448
v -0.17274585366249084 0.9045084714889526 -0.23776426911354065
v -0.08235443383455276 0.9247426390647888 -0.25346091389656067
v -4.376374818093609e-09 0.9045084714889526 -0.2938927710056305
v 0.09081784635782242 0.9045084714889526 -0.2795085906982422
v 0.17274579405784607 0.9045084714889526 -0.23776420950889587
v 0.23776419460773468 0.9045084714889526 -0.17274582386016846
v 0.25346076488494873 0.9247426986694336 -0.08235440403223038
v 0.29389268159866333 0.9045084714889526 -1.0449525689182337e-09
v 0.2795085608959198 0.9045084714889526 0.09081783145666122
v 0.2377641797065735 0.9045084714889526 0.17274577915668488
v 0.17274577915668488 0.9045084714889526 0.2377641648054123
v 0.09081782400608063 0.9045084714889526 0.2795085310935974
v -0.2665043771266937 0.9247426986694336 1.974554519890148e-09
v -0.2158854454755783 0.9455032348632812 -0.07014544308185577
v -0.1596301794052124 0.9475991725921631 -0.1596301794052124
v 0.03531521558761597 0.9475991725921631 -0.22297178208827972
v 0.1596301794052124 0.9475991725921631 -0.15963011980056763
v 0.22297170758247375 0.9475991725921631 0.03531526401638985
v 0.15963011980056763 0.9475991725921631 0.15963013470172882
v 0.03531526029109955 0.9475991725921631 0.22297169268131256
v -0.10248880088329315 0.9475991725921631 0.2011456936597824
v -0.20114564895629883 0.9475991725921631 0.10248886048793793
v -0.14686840772628784 0.9755734205245972 -0.04772043600678444
v -0.09016678482294083 0.9772003889083862 -0.12410395592451096
v 0.024209551513195038 0.976097583770752 -0.15285329520702362
v 0.10943085700273514 0.976097583770752 -0.10943086445331573
v 0.15340085327625275 0.9772003889083862 2.9895787179157196e-08
v 0.10943083465099335 0.976097583770752 0.10943086445331573
v 0.024209586903452873 0.976097583770752 0.15285325050354004
v -0.07025889307260513 0.976097583770752 0.13789090514183044
v -0.13789089024066925 0.976097583770752 0.07025893032550812
v -0.07375771552324295 0.9940341114997864 -0.023965338245034218
v 0.012307016178965569 0.994447648525238 -0.07770353555679321
v 0.07770352065563202 0.994447648525238 -0.01230703480541706
v 0.03571639582514763 0.994447648525238 0.07009735703468323
v -0.046358413994312286 0.9940970540046692 0.06380689889192581
v 0.0 1.0 0.0
v -0.07375771552324295 -0.9940341114997864 -0.02396533451974392
v 0.0 -1.0 0.0
v -0.01186591386795044 -0.9957209825515747 0.07491839677095413
v 0.07770352065563202 -0.994447648525238 0.012307032942771912
v 0.046358443796634674 -0.9940970540046692 -0.06380690634250641
v -0.035716407001018524 -0.994447648525238 -0.07009737938642502
v -0.4938441812992096 -0.5782172083854675 0.0
v -0.4696739912033081 -0.5782172083854675 -0.15260635316371918
v -0.469673752784729 -0.5782172083854675 0.15260624885559082
v -0.3995283544063568 -0.5782172083854675 0.29027435183525085
v -0.29027435183525085 -0.5782172083854675 0.3995283544063568
v -0.15260626375675201 -0.5782172083854675 0.4696737825870514
v 5.913200595841772e-09 -0.5782172083854675 0.49384424090385437
v 0.15260626375675201 -0.5782172083854675 0.4696737825870514
v 0.29027438163757324 -0.5782172083854675 0.3995283842086792
v 0.3995284140110016 -0.5782172083854675 0.29027438163757324
v 0.46967384219169617 -0.5782172083854675 0.1526062786579132
v 0.49384430050849915 -0.5782172083854675 -1.7558932086103596e-09
v 0.46967384219169617 -0.5782172083854675 -0.1526062935590744
v 0.399528443813324 -0.5782172083854675 -0.290274441242218
v 0.29027441143989563 -0.5782172083854675 -0.39952847361564636
v 0.1526062935590744 -0.5782172083854675 -0.46967390179634094
v -7.353868625159521e-09 -0.5782172083854675 -0.4938444197177887
v -0.1526063233613968 -0.5782172083854675 -0.4696739614009857
v -0.2902745008468628 -0.5782172083854675 -0.3995285630226135
v -0.3995285630226135 -0.5782172083854675 -0.2902745008468628
v -0.4755282700061798 -0.6545084714889526 0.0
v -0.4522545337677002 -0.6545084714889526 -0.14694641530513763
v -0.4522542655467987 -0.6545084714889526 0.14694632589817047
v -0.38471049070358276 -0.6545084714889526 0.2795085310935974
v -0.2795085310935974 -0.6545084714889526 0.38471049070358276
v -0.14694634079933167 -0.6545084714889526 0.4522543251514435
v 5.6938880277357384e-09 -0.6545084714889526 0.4755283296108246
v 0.14694634079933167 -0.6545084714889526 0.4522543251514435
v 0.2795085608959198 -0.6545084714889526 0.38471052050590515
v 0.38471055030822754 -0.6545084714889526 0.2795085608959198
v 0.45225438475608826 -0.6545084714889526 0.14694635570049286
v 0.47552838921546936 -0.6545084714889526 -1.6907719668779464e-09
v 0.45225438475608826 -0.6545084714889526 -0.14694637060165405
v 0.3847105801105499 -0.6545084714889526 -0.2795086205005646
v 0.2795085906982422 -0.6545084714889526 -0.3847106099128723
v 0.14694637060165405 -0.6545084714889526 -0.45225444436073303
v -7.0811267960380064e-09 -0.6545084714889526 -0.4755285084247589
v -0.14694638550281525 -0.6545084714889526 -0.4522545039653778
v -0.27950868010520935 -0.6545084714889526 -0.3847106695175171
v -0.3847106695175171 -0.6545084714889526 -0.27950868010520935
v -0.44550326466560364 -0.7269952297210693 0.0
v -0.4236990213394165 -0.7269952297210693 -0.137668177485466
v -0.4236987829208374 -0.7269952297210693 0.13766808807849884
v -0.36041975021362305 -0.7269952297210693 0.26186028122901917
v -0.26186028122901917 -0.7269952297210693 0.36041975021362305
v -0.13766810297966003 -0.7269952297210693 0.4236988425254822
v 5.3343747197232005e-09 -0.7269952297210693 0.4455033242702484
v 0.13766810297966003 -0.7269952297210693 0.4236988425254822
v 0.26186031103134155 -0.7269952297210693 0.36041978001594543
v 0.3604198098182678 -0.7269952297210693 0.26186031103134155
v 0.42369890213012695 -0.7269952297210693 0.13766810297966003
v 0.4455033838748932 -0.7269952297210693 -1.5840129208299913e-09
v 0.42369890213012695 -0.7269952297210693 -0.13766811788082123
v 0.3604198098182678 -0.7269952297210693 -0.26186034083366394
v 0.26186031103134155 -0.7269952297210693 -0.3604198396205902
v 0.13766811788082123 -0.7269952297210693 -0.42369896173477173
v -6.634024884988321e-09 -0.7269952297210693 -0.44550347328186035
v -0.13766814768314362 -0.7269952297210693 -0.4236989915370941
v -0.2618604004383087 -0.7269952297210693 -0.3604199290275574
v -0.3604199290275574 -0.7269952297210693 -0.2618604004383087
v -0.404508501291275 -0.7938926219940186 0.0
v -0.3847106695175171 -0.7938926219940186 -0.12500008940696716
v -0.3847104609012604 -0.7938926219940186 0.125
v -0.3272542655467987 -0.7938926219940186 0.2377641499042511
v -0.2377641499042511 -0.7938926219940186 0.3272542655467987
v -0.1250000149011612 -0.7938926219940186 0.38471049070358276
v 4.8435104815780505e-09 -0.7938926219940186 0.4045085608959198
v 0.1250000149011612 -0.7938926219940186 0.38471049070358276
v 0.2377641797065735 -0.7938926219940186 0.3272542953491211
v 0.3272543251514435 -0.7938926219940186 0.2377641797065735
v 0.38471055030822754 -0.7938926219940186 0.1250000298023224
v 0.4045085906982422 -0.7938926219940186 -1.4382521840161644e-09
v 0.38471055030822754 -0.7938926219940186 -0.12500004470348358
v 0.32725435495376587 -0.7938926219940186 -0.23776422441005707
v 0.23776419460773468 -0.7938926219940186 -0.32725438475608826
v 0.12500004470348358 -0.7938926219940186 -0.3847106099128723
v -6.0235691989873885e-09 -0.7938926219940186 -0.40450868010520935
v -0.12500005960464478 -0.7938926219940186 -0.3847106397151947
v -0.23776426911354065 -0.7938926219940186 -0.32725444436073303
v -0.32725444436073303 -0.7938926219940186 -0.23776426911354065
v -0.3535533845424652 -0.8535534143447876 0.0
v -0.336249440908432 -0.8535534143447876 -0.10925408452749252
v -0.3124271631240845 -0.8788852691650391 0.10151374340057373
v -0.2657664120197296 -0.8788852691650391 0.19309060275554657
v -0.20781348645687103 -0.8535534143447876 0.28603070974349976
v -0.10151373594999313 -0.8788852691650391 0.31242719292640686
v 4.2333851979492465e-09 -0.8535534143447876 0.3535534143447876
v 0.10925401747226715 -0.8535534143447876 0.33624929189682007
v 0.20781350135803223 -0.8535534143447876 0.28603073954582214
v 0.28603076934814453 -0.8535534143447876 0.20781350135803223
v 0.33624935150146484 -0.8535534143447876 0.10925402492284775
v 0.3535534739494324 -0.8535534143447876 -1.257077997252054e-09
v 0.33624935150146484 -0.8535534143447876 -0.10925403982400894
v 0.28603076934814453 -0.8535534143447876 -0.2078135460615158
v 0.20781353116035461 -0.8535534143447876 -0.2860307991504669
v 0.10925403982400894 -0.8535534143447876 -0.33624938130378723
v -5.264787716896535e-09 -0.8535534143447876 -0.35355356335639954
v -0.10925406217575073 -0.8535534143447876 -0.336249440908432
v -0.2078135907649994 -0.8535534143447876 -0.2860308587551117
v -0.2860308587551117 -0.8535534143447876 -0.2078135907649994
v -0.2665043771266937 -0.9247426986694336 1.855988585042212e-09
v -0.27950865030288696 -0.9045084714889526 -0.0908178761601448
v -0.15664736926555634 -0.9247426390647888 0.21560661494731903
v 3.519016189557078e-09 -0.9045084714889526 0.29389265179634094
v 0.09081782400608063 -0.9045084714889526 0.2795085310935974
v 0.17274577915668488 -0.9045084714889526 0.2377641648054123
v 0.2377641797065735 -0.9045084714889526 0.17274577915668488
v 0.2795085608959198 -0.9045084714889526 0.09081783145666122
v 0.29389268159866333 -0.9045084714889526 -1.0449525689182337e-09
v 0.2795085608959198 -0.9045084714889526 -0.09081784635782242
v 0.23776419460773468 -0.9045084714889526 -0.17274582386016846
v 0.17274579405784607 -0.9045084714889526 -0.23776420950889587
v 0.09081784635782242 -0.9045084714889526 -0.2795085906982422
v -4.376374818093609e-09 -0.9045084714889526 -0.2938927710056305
v -0.08235444873571396 -0.9247426390647888 -0.2534608840942383
v -0.17274585366249084 -0.9045084714889526 -0.23776426911354065
v -0.23776426911354065 -0.9045084714889526 -0.17274585366249084
v -0.2158854454755783 -0.9455032348632812 -0.07014544308185577
v -0.20114564895629883 -0.9475991725921631 0.10248885303735733
v -0.03531528636813164 -0.9475991725921631 0.22297169268131256
v 0.10248884558677673 -0.9475991725921631 0.20114567875862122
v 0.201145738363266 -0.9475991725921631 0.10248880088329315
v 0.22297173738479614 -0.9475991725921631 -0.03531528636813164
v 0.15963014960289001 -0.9475991725921631 -0.15963013470172882
v 0.035315223038196564 -0.9475991725921631 -0.22297176718711853
v -0.1596301943063736 -0.9475991725921631 -0.1596301943063736
v -0.14686839282512665 -0.9755734205245972 -0.047720447182655334
v -0.15285320580005646 -0.976097583770752 0.02420969121158123
v -0.10943084955215454 -0.976097583770752 0.10943082720041275
v -0.02420962229371071 -0.976097583770752 0.15285323560237885
v 0.07025893777608871 -0.976097583770752 0.13789090514183044
v 0.14589287340641022 -0.9772003889083862 0.0474034920334816
v 0.12410391867160797 -0.9772003889083862 -0.09016677737236023
v 0.024209555238485336 -0.976097583770752 -0.15285329520702362
v -0.07025893777608871 -0.976097583770752 -0.13789096474647522
v -0.4755285382270813 -0.5 -0.15450860559940338
v -0.4755285382270813 0.5 -0.15450860559940338
v -0.4045087397098541 0.5 -0.2938928008079529
v -0.4755285382270813 0.5 -0.15450860559940338
v -0.2938928008079529 0.5 -0.4045087397098541
v -0.154508575797081 0.5 -0.4755285084247589
v -7.4455357434999314e-09 0.5 -0.5000002384185791
v 0.1545085459947586 0.5 -0.47552844882011414
v 0.2938927114009857 0.5 -0.40450865030288696
v 0.4045086205005646 0.5 -0.2938927412033081
v 0.47552838921546936 0.5 -0.1545085459947586
v 0.5000001192092896 0.5 -1.7777779248717707e-09
v 0.47552838921546936 0.5 0.1545085310935974
v 0.4045085906982422 0.5 0.29389268159866333
v 0.29389268159866333 0.5 0.4045085608959198
v 0.15450851619243622 0.5 0.4755283296108246
v 5.986908746535846e-09 0.5 0.5
v -0.15450851619243622 0.5 0.4755283296108246
v -0.29389265179634094 0.5 0.4045085310935974
v -0.4045085310935974 0.5 0.29389265179634094
v -0.4755282700061798 0.5 0.15450850129127502
v -0.5 0.5 0.0
v -0.4755285382270813 0.5 -0.15450860559940338
v -0.4696739912033081 0.5782172083854675 -0.15260635316371918
v -0.4522545337677002 0.6545084714889526 -0.14694641530513763
v -0.4236990213394165 0.7269952297210693 -0.137668177485466
v -0.3847106695175171 0.7938926219940186 -0.12500008940696716
v -0.336249440908432 0.8535534143447876 -0.10925408452749252
v -0.27950865030288696 0.9045084714889526 -0.0908178761601448
v -0.2158854454755783 0.9455032348632812 -0.07014544308185577
v -0.14686840772628784 0.9755734205245972 -0.04772043600678444
v -0.07375771552324295 0.9940341114997864 -0.023965338245034218
v 0.0 1.0 0.0
v 0.0 1.0 0.0
v 0.0 1.0 0.0
v 0.0 1.0 0.0
v -0.07375771552324295 0.9940341114997864 -0.023965338245034218
v -0.01186591386795044 -0.9957209825515747 0.07491839677095413
v 0.0 -1.0 0.0
v 0.0 -1.0 0.0
v 0.0 -1.0 0.0
v 0.0 -1.0 0.0
v -0.07375771552324295 -0.9940341114997864 -0.02396533451974392
v -0.4755285382270813 -0.5 -0.15450860559940338
v -0.5 -0.5 0.0
v -0.4755282700061798 -0.5 0.15450850129127502
v -0.4045085310935974 -0.5 0.29389265179634094
v -0.29389265179634094 -0.5 0.4045085310935974
v -0.15450851619243622 -0.5 0.4755283296108246
v 5.986908746535846e-09 -0.5 0.5000000596046448
v 0.15450851619243622 -0.5 0.4755283296108246
v 0.29389268159866333 -0.5 0.4045085608959198
v 0.4045085906982422 -0.5 0.29389268159866333
v 0.47552838921546936 -0.5 0.1545085310935974
v 0.5000001192092896 -0.5 -1.7777779248717707e-09
v 0.47552838921546936 -0.5 -0.1545085459947586
v 0.4045086205005646 -0.5 -0.2938927412033081
v 0.2938927114009857 -0.5 -0.40450865030288696
v 0.1545085459947586 -0.5 -0.47552844882011414
v -7.4455357434999314e-09 -0.5 -0.5000002384185791
v -0.154508575797081 -0.5 -0.4755285084247589
v -0.2938928008079529 -0.5 -0.4045087397098541
v -0.4045087397098541 -0.5 -0.2938928008079529
v -0.4696739912033081 -0.5782172083854675 -0.15260635316371918
v -0.4755285382270813 -0.5 -0.15450860559940338
v -0.4522545337677002 -0.6545084714889526 -0.14694641530513763
v -0.4236990213394165 -0.7269952297210693 -0.137668177485466
v -0.3847106695175171 -0.7938926219940186 -0.12500008940696716
v -0.336249440908432 -0.8535534143447876 -0.10925408452749252
v -0.27950865030288696 -0.9045084714889526 -0.0908178761601448
v -0.2158854454755783 -0.9455032348632812 -0.07014544308185577
v -0.14686839282512665 -0.9755734205245972 -0.047720447182655334
v -0.01186591386795044 -0.9957209825515747 0.07491839677095413
v -0.07375771552324295 -0.9940341114997864 -0.02396533451974392
g submesh_0
f 357 178 356
f 363 185 362
f 322 321 40
f 40 321 39
f 40 39 38
f 38 39 37
f 38 37 36
f 36 37 35
f 36 35 34
f 34 35 33
f 34 33 32
f 32 33 31
f 32 31 30
f 30 31 29
f 30 29 28
f 28 29 27
f 28 27 26
f 26 27 25
f 26 25 24
f 24 25 23
f 24 23 22
f 22 23 21
f 22 21 20
f 20 21 19
f 20 19 18
f 18 19 17
f 18 17 16
f 16 17 15
f 16 15 14
f 14 15 13
f 14 13 12
f 12 13 11
f 12 11 10
f 10 11 9
f 10 9 8
f 8 9 7
f 8 7 6
f 6 7 5
f 6 5 2
f 2 5 1
f 2 1 3
f 3 1 4
f 344 343 60
f 60 343 342
f 60 342 59
f 59 342 341
f 59 341 58
f 58 341 340
f 58 340 57
f 57 340 339
f 57 339 56
f 56 339 338
f 56 338 55
f 55 338 337
f 55 337 54
f 54 337 336
f 54 336 53
f 53 336 335
f 53 335 52
f 52 335 334
f 52 334 51
f 51 334 333
f 51 333 50
f 50 333 332
f 50 332 49
f 49 332 331
f 49 331 48
f 48 331 330
f 48 330 47
f 47 330 329
f 47 329 46
f 46 329 328
f 46 328 45
f 45 328 327
f 45 327 44
f 44 327 326
f 44 326 43
f 43 326 325
f 43 325 41
f 41 325 323
f 41 323 42
f 42 323 324
f 46 45 66
f 66 45 65
f 66 65 86
f 86 65 85
f 86 85 106
f 106 85 105
f 106 105 126
f 126 105 125
f 126 125 146
f 146 125 145
f 146 145 158
f 158 145 144
f 158 144 167
f 167 144 166
f 167 166 175
f 175 166 174
f 175 174 179
f 86 106 107
f 107 106 127
f 107 127 128
f 128 127 148
f 128 148 149
f 149 148 159
f 149 159 169
f 169 159 168
f 169 168 176
f 176 168 175
f 176 175 353
f 52 51 72
f 72 51 71
f 72 71 92
f 92 71 91
f 92 91 112
f 112 91 111
f 112 111 132
f 132 111 131
f 132 131 152
f 152 131 151
f 152 151 161
f 161 151 160
f 161 160 170
f 170 160 169
f 170 169 177
f 177 169 176
f 177 176 354
f 56 55 76
f 76 55 75
f 76 75 96
f 96 75 95
f 96 95 116
f 116 95 115
f 116 115 136
f 136 115 135
f 136 135 163
f 163 135 162
f 163 162 172
f 172 162 171
f 172 171 178
f 178 171 177
f 178 177 355
f 368 367 190
f 190 367 189
f 190 189 210
f 210 189 209
f 210 209 230
f 230 209 229
f 230 229 250
f 250 229 249
f 250 249 270
f 270 249 269
f 270 269 288
f 288 269 304
f 288 304 314
f 314 304 313
f 314 313 182
f 182 313 180
f 182 180 181
f 373 372 195
f 195 372 194
f 195 194 215
f 215 194 214
f 215 214 235
f 235 214 234
f 235 234 255
f 255 234 254
f 255 254 275
f 275 254 274
f 275 274 292
f 292 274 291
f 292 291 307
f 307 291 306
f 307 306 317
f 317 306 316
f 317 316 183
f 183 316 358
f 183 358 359
f 379 378 201
f 201 378 200
f 201 200 221
f 221 200 220
f 221 220 241
f 241 220 240
f 241 240 261
f 261 240 260
f 261 260 281
f 281 260 280
f 281 280 298
f 298 280 297
f 298 297 310
f 310 297 309
f 310 309 319
f 319 309 318
f 319 318 184
f 184 318 183
f 184 183 360
f 261 281 282
f 282 281 299
f 282 299 300
f 300 299 310
f 300 310 320
f 320 310 319
f 320 319 185
f 185 319 184
f 185 184 361
f 385 383 384
f 384 383 205
f 384 205 386
f 386 205 225
f 386 225 387
f 387 225 245
f 387 245 388
f 388 245 265
f 388 265 389
f 389 265 285
f 389 285 390
f 390 285 302
f 390 302 391
f 391 302 311
f 391 311 392
f 392 311 320
f 392 320 185
f 185 394 392
f 41 42 61
f 61 42 62
f 61 62 81
f 81 62 82
f 81 82 101
f 101 82 102
f 101 102 121
f 121 102 122
f 121 122 141
f 141 122 142
f 141 142 157
f 157 142 156
f 157 156 166
f 166 156 165
f 166 165 174
f 351 350 155
f 155 350 349
f 155 349 140
f 140 349 348
f 140 348 120
f 120 348 347
f 120 347 100
f 100 347 346
f 100 346 80
f 80 346 345
f 80 345 60
f 60 345 344
f 60 59 80
f 80 59 79
f 80 79 100
f 100 79 99
f 100 99 120
f 120 99 119
f 120 119 140
f 140 119 139
f 140 139 155
f 155 139 164
f 155 164 351
f 351 164 173
f 351 173 352
f 352 173 178
f 365 364 186
f 186 364 187
f 186 187 206
f 206 187 207
f 206 207 226
f 226 207 227
f 226 227 246
f 246 227 247
f 246 247 266
f 266 247 267
f 266 267 286
f 286 267 287
f 286 287 303
f 366 365 188
f 188 365 186
f 188 186 208
f 208 186 206
f 208 206 228
f 228 206 226
f 228 226 248
f 248 226 246
f 248 246 268
f 268 246 266
f 268 266 286
f 367 366 189
f 189 366 188
f 189 188 209
f 209 188 208
f 209 208 229
f 229 208 228
f 229 228 249
f 249 228 248
f 249 248 269
f 269 248 268
f 269 268 304
f 304 268 286
f 304 286 313
f 313 286 303
f 313 303 312
f 369 368 191
f 191 368 190
f 191 190 211
f 211 190 210
f 211 210 231
f 231 210 230
f 231 230 251
f 251 230 250
f 251 250 271
f 271 250 270
f 271 270 288
f 316 306 305
f 305 306 289
f 305 289 271
f 271 289 272
f 271 272 251
f 251 272 252
f 251 252 231
f 231 252 232
f 231 232 211
f 211 232 212
f 211 212 191
f 191 212 192
f 191 192 369
f 369 192 370
f 371 370 193
f 193 370 192
f 193 192 213
f 213 192 212
f 213 212 233
f 233 212 232
f 233 232 253
f 253 232 252
f 253 252 273
f 273 252 272
f 273 272 290
f 290 272 289
f 290 289 306
f 372 371 194
f 194 371 193
f 194 193 214
f 214 193 213
f 214 213 234
f 234 213 233
f 234 233 254
f 254 233 253
f 254 253 274
f 274 253 273
f 274 273 291
f 291 273 290
f 291 290 306
f 374 373 196
f 196 373 195
f 196 195 216
f 216 195 215
f 216 215 236
f 236 215 235
f 236 235 256
f 256 235 255
f 256 255 276
f 276 255 275
f 276 275 293
f 293 275 292
f 293 292 307
f 375 374 197
f 197 374 196
f 197 196 217
f 217 196 216
f 217 216 237
f 237 216 236
f 237 236 257
f 257 236 256
f 257 256 277
f 277 256 276
f 277 276 294
f 294 276 293
f 294 293 308
f 308 293 307
f 308 307 317
f 376 375 198
f 198 375 197
f 198 197 218
f 218 197 217
f 218 217 238
f 238 217 237
f 238 237 258
f 258 237 257
f 258 257 278
f 278 257 277
f 278 277 295
f 295 277 294
f 295 294 308
f 377 376 199
f 199 376 198
f 199 198 219
f 219 198 218
f 219 218 239
f 239 218 238
f 239 238 259
f 259 238 258
f 259 258 279
f 279 258 278
f 279 278 296
f 296 278 295
f 296 295 309
f 309 295 308
f 309 308 318
f 318 308 317
f 318 317 183
f 378 377 200
f 200 377 199
f 200 199 220
f 220 199 219
f 220 219 240
f 240 219 239
f 240 239 260
f 260 239 259
f 260 259 280
f 280 259 279
f 280 279 297
f 297 279 296
f 297 296 309
f 380 379 202
f 202 379 201
f 202 201 222
f 222 201 221
f 222 221 242
f 242 221 241
f 242 241 262
f 262 241 261
f 262 261 282
f 381 380 203
f 203 380 202
f 203 202 223
f 223 202 222
f 223 222 243
f 243 222 242
f 243 242 263
f 263 242 262
f 263 262 283
f 283 262 282
f 283 282 300
f 320 311 300
f 300 311 301
f 300 301 283
f 283 301 284
f 283 284 263
f 263 284 264
f 263 264 243
f 243 264 244
f 243 244 223
f 223 244 224
f 223 224 203
f 203 224 204
f 203 204 381
f 381 204 382
f 383 382 205
f 205 382 204
f 205 204 225
f 225 204 224
f 225 224 245
f 245 224 244
f 245 244 265
f 265 244 264
f 265 264 285
f 285 264 284
f 285 284 302
f 302 284 301
f 302 301 311
f 312 180 313
f 305 271 288
f 305 288 315
f 315 288 314
f 315 314 393
f 305 315 316
f 316 315 393
f 43 41 63
f 63 41 61
f 63 61 83
f 83 61 81
f 83 81 103
f 103 81 101
f 103 101 123
f 123 101 121
f 123 121 143
f 143 121 141
f 143 141 157
f 44 43 64
f 64 43 63
f 64 63 84
f 84 63 83
f 84 83 104
f 104 83 103
f 104 103 124
f 124 103 123
f 124 123 144
f 144 123 143
f 144 143 157
f 144 145 124
f 124 145 125
f 124 125 104
f 104 125 105
f 104 105 84
f 84 105 85
f 84 85 64
f 64 85 65
f 64 65 44
f 44 65 45
f 46 66 67
f 46 67 47
f 47 67 68
f 47 68 48
f 48 68 69
f 48 69 49
f 49 69 70
f 49 70 50
f 50 70 71
f 50 71 51
f 53 52 73
f 73 52 72
f 73 72 93
f 93 72 92
f 93 92 113
f 113 92 112
f 113 112 133
f 133 112 132
f 133 132 153
f 153 132 152
f 153 152 161
f 54 53 74
f 74 53 73
f 74 73 94
f 94 73 93
f 94 93 114
f 114 93 113
f 114 113 134
f 134 113 133
f 134 133 154
f 154 133 153
f 154 153 162
f 162 153 161
f 162 161 171
f 171 161 170
f 171 170 177
f 55 54 75
f 75 54 74
f 75 74 95
f 95 74 94
f 95 94 115
f 115 94 114
f 115 114 135
f 135 114 134
f 135 134 154
f 57 56 77
f 77 56 76
f 77 76 97
f 97 76 96
f 97 96 117
f 117 96 116
f 117 116 137
f 137 116 136
f 137 136 163
f 58 57 78
f 78 57 77
f 78 77 98
f 98 77 97
f 98 97 118
f 118 97 117
f 118 117 138
f 138 117 137
f 138 137 164
f 164 137 163
f 164 163 173
f 173 163 172
f 173 172 178
f 59 58 79
f 79 58 78
f 79 78 99
f 99 78 98
f 99 98 119
f 119 98 118
f 119 118 139
f 139 118 138
f 139 138 164
f 66 86 87
f 66 87 67
f 67 87 88
f 67 88 68
f 68 88 89
f 68 89 69
f 69 89 90
f 69 90 70
f 70 90 91
f 70 91 71
f 86 107 87
f 87 107 108
f 87 108 88
f 88 108 109
f 88 109 89
f 89 109 110
f 89 110 90
f 90 110 111
f 90 111 91
f 167 175 168
f 167 168 158
f 158 168 159
f 158 159 146
f 146 159 147
f 146 147 126
f 126 147 127
f 126 127 106
f 107 128 108
f 108 128 129
f 108 129 109
f 109 129 130
f 109 130 110
f 110 130 131
f 110 131 111
f 159 148 147
f 147 148 127
f 128 149 129
f 129 149 150
f 129 150 130
f 130 150 151
f 130 151 131
f 151 150 160
f 160 150 149
f 160 149 169
f 135 154 162
f 144 157 166
f 281 298 299
f 299 298 310
