# pPlane1
v 0.5 -1.1102230246251565e-16 0.5
v 0.4000000059604645 -1.1102230246251565e-16 0.5
v 0.30000001192092896 -1.1102230246251565e-16 0.5
v 0.19999998807907104 -1.1102230246251565e-16 0.5
v 0.09999999403953552 -1.1102230246251565e-16 0.5
v 0.0 -1.1102230246251565e-16 0.5
v -0.10000002384185791 -1.1102230246251565e-16 0.5
v -0.19999998807907104 -1.1102230246251565e-16 0.5
v -0.30000001192092896 -1.1102230246251565e-16 0.5
v -0.40000003576278687 -1.1102230246251565e-16 0.5
v -0.5 -1.1102230246251565e-16 0.5
v 0.5 -8.88178432935015e-17 0.4000000059604645
v 0.4000000059604645 -8.88178432935015e-17 0.4000000059604645
v 0.30000001192092896 -8.88178432935015e-17 0.4000000059604645
v 0.19999998807907104 -8.88178432935015e-17 0.4000000059604645
v 0.09999999403953552 -8.88178432935015e-17 0.4000000059604645
v 0.0 -8.88178432935015e-17 0.4000000059604645
v -0.10000002384185791 -8.88178432935015e-17 0.4000000059604645
v -0.19999998807907104 -8.88178432935015e-17 0.4000000059604645
v -0.30000001192092896 -8.88178432935015e-17 0.4000000059604645
v -0.40000003576278687 -8.88178432935015e-17 0.4000000059604645
v -0.5 -8.88178432935015e-17 0.4000000059604645
v 0.5 -6.661338412448735e-17 0.30000001192092896
v 0.4000000059604645 -6.661338412448735e-17 0.30000001192092896
v 0.30000001192092896 -6.661338412448735e-17 0.30000001192092896
v 0.19999998807907104 -6.661338412448735e-17 0.30000001192092896
v 0.09999999403953552 -6.661338412448735e-17 0.30000001192092896
v 0.0 -6.661338412448735e-17 0.30000001192092896
v -0.10000002384185791 -6.661338412448735e-17 0.30000001192092896
v -0.19999998807907104 -6.661338412448735e-17 0.30000001192092896
v -0.30000001192092896 -6.661338412448735e-17 0.30000001192092896
v -0.40000003576278687 -6.661338412448735e-17 0.30000001192092896
v -0.5 -6.661338412448735e-17 0.30000001192092896
v 0.5 -4.44089183380283e-17 0.19999998807907104
v 0.4000000059604645 -4.44089183380283e-17 0.19999998807907104
v 0.30000001192092896 -4.44089183380283e-17 0.19999998807907104
v 0.19999998807907104 -4.44089183380283e-17 0.19999998807907104
v 0.09999999403953552 -4.44089183380283e-17 0.19999998807907104
v 0.0 -4.44089183380283e-17 0.19999998807907104
v -0.10000002384185791 -4.44089183380283e-17 0.19999998807907104
v -0.19999998807907104 -4.44089183380283e-17 0.19999998807907104
v -0.30000001192092896 -4.44089183380283e-17 0.19999998807907104
v -0.40000003576278687 -4.44089183380283e-17 0.19999998807907104
v -0.5 -4.44089183380283e-17 0.19999998807907104
v 0.5 -2.220445916901415e-17 0.09999999403953552
v 0.4000000059604645 -2.220445916901415e-17 0.09999999403953552
v 0.30000001192092896 -2.220445916901415e-17 0.09999999403953552
v 0.19999998807907104 -2.220445916901415e-17 0.09999999403953552
v 0.09999999403953552 -2.220445916901415e-17 0.09999999403953552
v 0.0 -2.220445916901415e-17 0.09999999403953552
v -0.10000002384185791 -2.220445916901415e-17 0.09999999403953552
v -0.19999998807907104 -2.220445916901415e-17 0.09999999403953552
v -0.30000001192092896 -2.220445916901415e-17 0.09999999403953552
v -0.40000003576278687 -2.220445916901415e-17 0.09999999403953552
v -0.5 -2.220445916901415e-17 0.09999999403953552
v 0.5 0.0 0.0
v 0.4000000059604645 0.0 0.0
v 0.30000001192092896 0.0 0.0
v 0.19999998807907104 0.0 0.0
v 0.09999999403953552 0.0 0.0
v 0.0 0.0 0.0
v -0.10000002384185791 0.0 0.0
v -0.19999998807907104 0.0 0.0
v -0.30000001192092896 0.0 0.0
v -0.40000003576278687 0.0 0.0
v -0.5 0.0 0.0
v 0.5 2.220446578645905e-17 -0.10000002384185791
v 0.4000000059604645 2.220446578645905e-17 -0.10000002384185791
v 0.30000001192092896 2.220446578645905e-17 -0.10000002384185791
v 0.19999998807907104 2.220446578645905e-17 -0.10000002384185791
v 0.09999999403953552 2.220446578645905e-17 -0.10000002384185791
v 0.0 2.220446578645905e-17 -0.10000002384185791
v -0.10000002384185791 2.220446578645905e-17 -0.10000002384185791
v -0.19999998807907104 2.220446578645905e-17 -0.10000002384185791
v -0.30000001192092896 2.220446578645905e-17 -0.10000002384185791
v -0.40000003576278687 2.220446578645905e-17 -0.10000002384185791
v -0.5 2.220446578645905e-17 -0.10000002384185791
v 0.5 4.44089183380283e-17 -0.19999998807907104
v 0.4000000059604645 4.44089183380283e-17 -0.19999998807907104
v 0.30000001192092896 4.44089183380283e-17 -0.19999998807907104
v 0.19999998807907104 4.44089183380283e-17 -0.19999998807907104
v 0.09999999403953552 4.44089183380283e-17 -0.19999998807907104
v 0.0 4.44089183380283e-17 -0.19999998807907104
v -0.10000002384185791 4.44089183380283e-17 -0.19999998807907104
v -0.19999998807907104 4.44089183380283e-17 -0.19999998807907104
v -0.30000001192092896 4.44089183380283e-17 -0.19999998807907104
v -0.40000003576278687 4.44089183380283e-17 -0.19999998807907104
v -0.5 4.44089183380283e-17 -0.19999998807907104
v 0.5 6.661338412448735e-17 -0.30000001192092896
v 0.4000000059604645 6.661338412448735e-17 -0.30000001192092896
v 0.30000001192092896 6.661338412448735e-17 -0.30000001192092896
v 0.19999998807907104 6.661338412448735e-17 -0.30000001192092896
v 0.09999999403953552 6.661338412448735e-17 -0.30000001192092896
v 0.0 6.661338412448735e-17 -0.30000001192092896
v -0.10000002384185791 6.661338412448735e-17 -0.30000001192092896
v -0.19999998807907104 6.661338412448735e-17 -0.30000001192092896
v -0.30000001192092896 6.661338412448735e-17 -0.30000001192092896
v -0.40000003576278687 6.661338412448735e-17 -0.30000001192092896
v -0.5 6.661338412448735e-17 -0.30000001192092896
v 0.5 8.88178499109464e-17 -0.40000003576278687
v 0.4000000059604645 8.88178499109464e-17 -0.40000003576278687
v 0.30000001192092896 8.88178499109464e-17 -0.40000003576278687
v 0.19999998807907104 8.88178499109464e-17 -0.40000003576278687
v 0.09999999403953552 8.88178499109464e-17 -0.40000003576278687
v 0.0 8.88178499109464e-17 -0.40000003576278687
v -0.10000002384185791 8.88178499109464e-17 -0.40000003576278687
v -0.19999998807907104 8.88178499109464e-17 -0.40000003576278687
v -0.30000001192092896 8.88178499109464e-17 -0.40000003576278687
v -0.40000003576278687 8.88178499109464e-17 -0.40000003576278687
v -0.5 8.88178499109464e-17 -0.40000003576278687
v 0.5 1.1102230246251565e-16 -0.5
v 0.4000000059604645 1.1102230246251565e-16 -0.5
v 0.30000001192092896 1.1102230246251565e-16 -0.5
v 0.19999998807907104 1.1102230246251565e-16 -0.5
v 0.09999999403953552 1.1102230246251565e-16 -0.5
v 0.0 1.1102230246251565e-16 -0.5
v -0.10000002384185791 1.1102230246251565e-16 -0.5
v -0.19999998807907104 1.1102230246251565e-16 -0.5
v -0.30000001192092896 1.1102230246251565e-16 -0.5
v -0.40000003576278687 1.1102230246251565e-16 -0.5
v -0.5 1.1102230246251565e-16 -0.5
g submesh_0
f 1 12 13
f 1 13 2
f 2 13 14
f 2 14 3
f 3 14 15
f 3 15 4
f 4 15 16
f 4 16 5
f 5 16 17
f 5 17 6
f 6 17 18
f 6 18 7
f 7 18 19
f 7 19 8
f 8 19 20
f 8 20 9
f 9 20 21
f 9 21 10
f 10 21 22
f 10 22 11
f 121 110 109
f 121 109 120
f 120 109 108
f 120 108 119
f 119 108 107
f 119 107 118
f 118 107 106
f 118 106 117
f 117 106 105
f 117 105 116
f 116 105 104
f 116 104 115
f 115 104 103
f 115 103 114
f 114 103 102
f 114 102 113
f 113 102 101
f 113 101 112
f 112 101 100
f 112 100 111
f 33 22 21
f 33 21 32
f 32 21 20
f 32 20 31
f 31 20 19
f 31 19 30
f 30 19 18
f 30 18 29
f 29 18 17
f 29 17 28
f 28 17 16
f 28 16 27
f 27 16 15
f 27 15 26
f 26 15 14
f 26 14 25
f 25 14 13
f 25 13 24
f 24 13 12
f 24 12 23
f 44 33 32
f 44 32 43
f 43 32 31
f 43 31 42
f 42 31 30
f 42 30 41
f 41 30 29
f 41 29 40
f 40 29 28
f 40 28 39
f 39 28 27
f 39 27 38
f 38 27 26
f 38 26 37
f 37 26 25
f 37 25 36
f 36 25 24
f 36 24 35
f 35 24 23
f 35 23 34
f 55 44 43
f 55 43 54
f 54 43 42
f 54 42 53
f 53 42 41
f 53 41 52
f 52 41 40
f 52 40 51
f 51 40 39
f 51 39 50
f 50 39 38
f 50 38 49
f 49 38 37
f 49 37 48
f 48 37 36
f 48 36 47
f 47 36 35
f 47 35 46
f 46 35 34
f 46 34 45
f 66 55 54
f 66 54 65
f 65 54 53
f 65 53 64
f 64 53 52
f 64 52 63
f 63 52 51
f 63 51 62
f 62 51 50
f 62 50 61
f 61 50 49
f 61 49 60
f 60 49 48
f 60 48 59
f 59 48 47
f 59 47 58
f 58 47 46
f 58 46 57
f 57 46 45
f 57 45 56
f 77 66 65
f 77 65 76
f 76 65 64
f 76 64 75
f 75 64 63
f 75 63 74
f 74 63 62
f 74 62 73
f 73 62 61
f 73 61 72
f 72 61 60
f 72 60 71
f 71 60 59
f 71 59 70
f 70 59 58
f 70 58 69
f 69 58 57
f 69 57 68
f 68 57 56
f 68 56 67
f 88 77 76
f 88 76 87
f 87 76 75
f 87 75 86
f 86 75 74
f 86 74 85
f 85 74 73
f 85 73 84
f 84 73 72
f 84 72 83
f 83 72 71
f 83 71 82
f 82 71 70
f 82 70 81
f 81 70 69
f 81 69 80
f 80 69 68
f 80 68 79
f 79 68 67
f 79 67 78
f 99 88 87
f 99 87 98
f 98 87 86
f 98 86 97
f 97 86 85
f 97 85 96
f 96 85 84
f 96 84 95
f 95 84 83
f 95 83 94
f 94 83 82
f 94 82 93
f 93 82 81
f 93 81 92
f 92 81 80
f 92 80 91
f 91 80 79
f 91 79 90
f 90 79 78
f 90 78 89
f 110 99 98
f 110 98 109
f 109 98 97
f 109 97 108
f 108 97 96
f 108 96 107
f 107 96 95
f 107 95 106
f 106 95 94
f 106 94 105
f 105 94 93
f 105 93 104
f 104 93 92
f 104 92 103
f 103 92 91
f 103 91 102
f 102 91 90
f 102 90 101
f 101 90 89
f 101 89 100
