# Sphere
v -0.07438906282186508 -0.4938441812992096 -0.024170471355319023
v -0.06327911466360092 -0.4938441812992096 -0.0459749661386013
v -0.0459749661386013 -0.4938441812992096 -0.06327911466360092
v -0.024170467630028725 -0.4938441812992096 -0.07438905537128448
v 0.0 -0.4938441812992096 -0.0782172754406929
v 0.024170467630028725 -0.4938441812992096 -0.07438904792070389
v 0.045974958688020706 -0.4938441812992096 -0.06327909976243973
v 0.06327909231185913 -0.4938441812992096 -0.04597495123744011
v 0.0743890330195427 -0.4938441812992096 -0.024170462042093277
v 0.07821726053953171 -0.4938441812992096 0.0
v 0.0743890330195427 -0.4938441812992096 0.024170462042093277
v 0.06327909231185913 -0.4938441812992096 0.04597494751214981
v 0.04597494751214981 -0.4938441812992096 0.06327908486127853
v 0.024170462042093277 -0.4938441812992096 0.0743890255689621
v 2.331055348747668e-09 -0.4938441812992096 0.07821724563837051
v -0.02417045459151268 -0.4938441812992096 0.0743890181183815
v -0.045974940061569214 -0.4938441812992096 0.06327907741069794
v -0.06327907741069794 -0.4938441812992096 0.04597494378685951
v -0.0743890181183815 -0.4938441812992096 0.02417045645415783
v -0.07821723818778992 -0.4938441812992096 0.0
v -0.14694641530513763 -0.4755282700061798 -0.047745782881975174
v -0.12500008940696716 -0.4755282700061798 -0.09081786870956421
v -0.09081786870956421 -0.4755282700061798 -0.12500007450580597
v -0.04774577543139458 -0.4755282700061798 -0.14694640040397644
v 0.0 -0.4755282700061798 -0.154508575797081
v 0.04774577543139458 -0.4755282700061798 -0.14694638550281525
v 0.09081785380840302 -0.4755282700061798 -0.12500004470348358
v 0.12500004470348358 -0.4755282700061798 -0.09081784635782242
v 0.14694635570049286 -0.4755282700061798 -0.04774576425552368
v 0.1545085310935974 -0.4755282700061798 0.0
v 0.14694635570049286 -0.4755282700061798 0.04774576425552368
v 0.1250000298023224 -0.4755282700061798 0.09081783890724182
v 0.09081783890724182 -0.4755282700061798 0.1250000298023224
v 0.04774576425552368 -0.4755282700061798 0.14694634079933167
v 4.604712167122216e-09 -0.4755282700061798 0.15450851619243622
v -0.04774574935436249 -0.4755282700061798 0.14694632589817047
v -0.09081781655550003 -0.4755282700061798 0.1250000149011612
v -0.125 -0.4755282700061798 0.09081782400608063
v -0.14694632589817047 -0.4755282700061798 0.047745753079652786
v -0.15450850129127502 -0.4755282700061798 0.0
v -0.2158854603767395 -0.44550326466560364 -0.07014543563127518
v -0.1836431473493576 -0.44550326466560364 -0.1334245502948761
v -0.1334245502948761 -0.44550326466560364 -0.1836431324481964
v -0.07014542818069458 -0.44550326466560364 -0.21588543057441711
v 0.0 -0.44550326466560364 -0.22699536383152008
v 0.07014542818069458 -0.44550326466560364 -0.21588541567325592
v 0.1334245204925537 -0.44550326466560364 -0.18364308774471283
v 0.18364307284355164 -0.44550326466560364 -0.13342450559139252
v 0.21588538587093353 -0.44550326466560364 -0.07014540582895279
v 0.2269953191280365 -0.44550326466560364 0.0
v 0.21588538587093353 -0.44550326466560364 0.07014540582895279
v 0.18364305794239044 -0.44550326466560364 0.13342449069023132
v 0.13342449069023132 -0.44550326466560364 0.18364305794239044
v 0.07014540582895279 -0.44550326466560364 0.21588535606861115
v 6.764985904794685e-09 -0.44550326466560364 0.2269952893257141
v -0.0701453909277916 -0.44550326466560364 0.21588534116744995
v -0.13342446088790894 -0.44550326466560364 0.18364304304122925
v -0.18364302814006805 -0.44550326466560364 0.13342447578907013
v -0.21588532626628876 -0.44550326466560364 0.07014539837837219
v -0.22699525952339172 -0.44550326466560364 0.0
v -0.27950868010520935 -0.404508501291275 -0.09081786870956421
v -0.23776428401470184 -0.404508501291275 -0.17274585366249084
v -0.17274585366249084 -0.404508501291275 -0.23776426911354065
v -0.09081786125898361 -0.404508501291275 -0.27950865030288696
v 0.0 -0.404508501291275 -0.2938927710056305
v 0.09081786125898361 -0.404508501291275 -0.2795086205005646
v 0.17274582386016846 -0.404508501291275 -0.23776420950889587
v 0.23776419460773468 -0.404508501291275 -0.17274579405784607
v 0.2795085608959198 -0.404508501291275 -0.09081783145666122
v 0.29389268159866333 -0.404508501291275 0.0
v 0.2795085608959198 -0.404508501291275 0.09081783145666122
v 0.2377641797065735 -0.404508501291275 0.17274577915668488
v 0.17274577915668488 -0.404508501291275 0.2377641648054123
v 0.09081783145666122 -0.404508501291275 0.2795085310935974
v 8.758682668030815e-09 -0.404508501291275 0.29389265179634094
v -0.09081780910491943 -0.404508501291275 0.2795085310935974
v -0.1727457493543625 -0.404508501291275 0.2377641499042511
v -0.2377641350030899 -0.404508501291275 0.17274576425552368
v -0.279508501291275 -0.404508501291275 0.09081781655550003
v -0.29389262199401855 -0.404508501291275 0.0
v -0.3362494707107544 -0.3535533845424652 -0.10925406962633133
v -0.2860308885574341 -0.3535533845424652 -0.2078135907649994
v -0.2078135907649994 -0.3535533845424652 -0.2860308587551117
v -0.10925406217575073 -0.3535533845424652 -0.336249440908432
v 0.0 -0.3535533845424652 -0.35355356335639954
v 0.10925406217575073 -0.3535533845424652 -0.3362494111061096
v 0.2078135460615158 -0.3535533845424652 -0.2860307991504669
v 0.28603076934814453 -0.3535533845424652 -0.20781353116035461
v 0.33624935150146484 -0.3535533845424652 -0.10925402492284775
v 0.3535534739494324 -0.3535533845424652 0.0
v 0.33624935150146484 -0.3535533845424652 0.10925402492284775
v 0.28603076934814453 -0.3535533845424652 0.20781350135803223
v 0.20781350135803223 -0.3535533845424652 0.28603073954582214
v 0.10925402492284775 -0.3535533845424652 0.33624929189682007
v 1.053671194739536e-08 -0.3535533845424652 0.3535534143447876
v -0.10925399512052536 -0.3535533845424652 0.33624929189682007
v -0.20781345665454865 -0.3535533845424652 0.28603070974349976
v -0.28603070974349976 -0.3535533845424652 0.20781348645687103
v -0.3362492620944977 -0.3535533845424652 0.10925401002168655
v -0.3535533845424652 -0.3535533845424652 0.0
v -0.3847106993198395 -0.29389262199401855 -0.12500007450580597
v -0.3272544741630554 -0.29389262199401855 -0.23776426911354065
v -0.23776426911354065 -0.29389262199401855 -0.32725444436073303
v -0.12500005960464478 -0.29389262199401855 -0.3847106397151947
v 0.0 -0.29389262199401855 -0.40450868010520935
v 0.12500005960464478 -0.29389262199401855 -0.3847106099128723
v 0.23776422441005707 -0.29389262199401855 -0.32725438475608826
v 0.32725435495376587 -0.29389262199401855 -0.23776419460773468
v 0.38471055030822754 -0.29389262199401855 -0.1250000298023224
v 0.4045085906982422 -0.29389262199401855 0.0
v 0.38471055030822754 -0.29389262199401855 0.1250000298023224
v 0.3272543251514435 -0.29389262199401855 0.2377641797065735
v 0.2377641797065735 -0.29389262199401855 0.3272542953491211
v 0.1250000298023224 -0.29389262199401855 0.38471049070358276
v 1.2055292764046044e-08 -0.29389262199401855 0.4045085608959198
v -0.1249999925494194 -0.29389262199401855 0.38471049070358276
v -0.2377641350030899 -0.29389262199401855 0.3272542655467987
v -0.3272542655467987 -0.29389262199401855 0.2377641499042511
v -0.3847104609012604 -0.29389262199401855 0.125
v -0.404508501291275 -0.29389262199401855 0.0
v -0.4236990511417389 -0.22699525952339172 -0.1376681625843048
v -0.36041995882987976 -0.22699525952339172 -0.2618604004383087
v -0.2618604004383087 -0.22699525952339172 -0.3604199290275574
v -0.13766814768314362 -0.22699525952339172 -0.4236989915370941
v 0.0 -0.22699525952339172 -0.44550347328186035
v 0.13766814768314362 -0.22699525952339172 -0.4236989915370941
v 0.26186034083366394 -0.22699525952339172 -0.3604198396205902
v 0.3604198098182678 -0.22699525952339172 -0.26186031103134155
v 0.42369890213012695 -0.22699525952339172 -0.13766810297966003
v 0.4455033838748932 -0.22699525952339172 0.0
v 0.42369890213012695 -0.22699525952339172 0.13766810297966003
v 0.3604198098182678 -0.22699525952339172 0.26186031103134155
v 0.26186031103134155 -0.22699525952339172 0.36041978001594543
v 0.13766810297966003 -0.22699525952339172 0.4236988425254822
v 1.327703191833507e-08 -0.22699525952339172 0.4455033242702484
v -0.13766807317733765 -0.22699525952339172 0.4236988127231598
v -0.2618602514266968 -0.22699525952339172 0.36041975021362305
v -0.36041972041130066 -0.22699525952339172 0.26186028122901917
v -0.4236987829208374 -0.22699525952339172 0.13766808807849884
v -0.44550326466560364 -0.22699525952339172 0.0
v -0.4522545635700226 -0.15450848639011383 -0.14694640040397644
v -0.3847106993198395 -0.15450848639011383 -0.27950868010520935
v -0.27950868010520935 -0.15450848639011383 -0.3847106695175171
v -0.14694638550281525 -0.15450848639011383 -0.4522545039653778
v 0.0 -0.15450848639011383 -0.4755285084247589
v 0.14694638550281525 -0.15450848639011383 -0.4522544741630554
v 0.2795086205005646 -0.15450848639011383 -0.3847106099128723
v 0.3847105801105499 -0.15450848639011383 -0.2795085906982422
v 0.45225438475608826 -0.15450848639011383 -0.14694635570049286
v 0.47552838921546936 -0.15450848639011383 0.0
v 0.45225438475608826 -0.15450848639011383 0.14694635570049286
v 0.38471055030822754 -0.15450848639011383 0.2795085608959198
v 0.2795085608959198 -0.15450848639011383 0.38471052050590515
v 0.14694635570049286 -0.15450848639011383 0.4522543251514435
v 1.4171846807187194e-08 -0.15450848639011383 0.4755283296108246
v -0.14694631099700928 -0.15450848639011383 0.4522542953491211
v -0.279508501291275 -0.15450848639011383 0.38471049070358276
v -0.3847104609012604 -0.15450848639011383 0.2795085310935974
v -0.4522542655467987 -0.15450848639011383 0.14694632589817047
v -0.4755282700061798 -0.15450848639011383 0.0
v -0.4696740210056305 -0.07821718603372574 -0.15260633826255798
v -0.3995285928249359 -0.07821718603372574 -0.2902745008468628
v -0.2902745008468628 -0.07821718603372574 -0.3995285630226135
v -0.1526063233613968 -0.07821718603372574 -0.4696739614009857
v 0.0 -0.07821718603372574 -0.4938444197177887
v 0.1526063233613968 -0.07821718603372574 -0.46967393159866333
v 0.290274441242218 -0.07821718603372574 -0.39952847361564636
v 0.399528443813324 -0.07821718603372574 -0.29027441143989563
v 0.46967384219169617 -0.07821718603372574 -0.1526062786579132
v 0.49384430050849915 -0.07821718603372574 0.0
v 0.46967384219169617 -0.07821718603372574 0.1526062786579132
v 0.3995284140110016 -0.07821718603372574 0.29027438163757324
v 0.29027438163757324 -0.07821718603372574 0.3995283842086792
v 0.1526062786579132 -0.07821718603372574 0.4696737825870514
v 1.4717703500366497e-08 -0.07821718603372574 0.49384424090385437
v -0.15260623395442963 -0.07821718603372574 0.4696737825870514
v -0.29027432203292847 -0.07821718603372574 0.3995283544063568
v -0.3995283246040344 -0.07821718603372574 0.29027435183525085
v -0.469673752784729 -0.07821718603372574 0.15260624885559082
v -0.4938441812992096 -0.07821718603372574 0.0
v -0.4755285680294037 0.0 -0.1545085906982422
v -0.4045087695121765 0.0 -0.2938928008079529
v -0.2938928008079529 0.0 -0.4045087397098541
v -0.154508575797081 0.0 -0.4755285084247589
v 0.0 0.0 -0.5000002384185791
v 0.154508575797081 0.0 -0.4755284786224365
v 0.2938927412033081 0.0 -0.40450865030288696
v 0.4045086205005646 0.0 -0.2938927114009857
v 0.47552838921546936 0.0 -0.1545085310935974
v 0.5000001192092896 0.0 0.0
v 0.47552838921546936 0.0 0.1545085310935974
v 0.4045085906982422 0.0 0.29389268159866333
v 0.29389268159866333 0.0 0.4045085608959198
v 0.1545085310935974 0.0 0.4755283296108246
v 1.4901161193847656e-08 0.0 0.5000000596046448
v -0.15450848639011383 0.0 0.4755282998085022
v -0.29389262199401855 0.0 0.4045085310935974
v -0.404508501291275 0.0 0.29389265179634094
v -0.4755282700061798 0.0 0.15450850129127502
v -0.5 0.0 0.0
v -0.4696740210056305 0.07821718603372574 -0.15260633826255798
v -0.3995285928249359 0.07821718603372574 -0.2902745008468628
v -0.2902745008468628 0.07821718603372574 -0.3995285630226135
v -0.1526063233613968 0.07821718603372574 -0.4696739614009857
v 0.0 0.07821718603372574 -0.4938444197177887
v 0.1526063233613968 0.07821718603372574 -0.46967393159866333
v 0.290274441242218 0.07821718603372574 -0.39952847361564636
v 0.399528443813324 0.07821718603372574 -0.29027441143989563
v 0.46967384219169617 0.07821718603372574 -0.1526062786579132
v 0.49384430050849915 0.07821718603372574 0.0
v 0.46967384219169617 0.07821718603372574 0.1526062786579132
v 0.3995284140110016 0.07821718603372574 0.29027438163757324
v 0.29027438163757324 0.07821718603372574 0.3995283842086792
v 0.1526062786579132 0.07821718603372574 0.4696737825870514
v 1.4717703500366497e-08 0.07821718603372574 0.49384424090385437
v -0.15260623395442963 0.07821718603372574 0.4696737825870514
v -0.29027432203292847 0.07821718603372574 0.3995283544063568
v -0.3995283246040344 0.07821718603372574 0.29027435183525085
v -0.469673752784729 0.07821718603372574 0.15260624885559082
v -0.4938441812992096 0.07821718603372574 0.0
v -0.4522545635700226 0.15450848639011383 -0.14694640040397644
v -0.3847106993198395 0.15450848639011383 -0.27950868010520935
v -0.27950868010520935 0.15450848639011383 -0.3847106695175171
v -0.14694638550281525 0.15450848639011383 -0.4522545039653778
v 0.0 0.15450848639011383 -0.4755285084247589
v 0.14694638550281525 0.15450848639011383 -0.4522544741630554
v 0.2795086205005646 0.15450848639011383 -0.3847106099128723
v 0.3847105801105499 0.15450848639011383 -0.2795085906982422
v 0.45225438475608826 0.15450848639011383 -0.14694635570049286
v 0.47552838921546936 0.15450848639011383 0.0
v 0.45225438475608826 0.15450848639011383 0.14694635570049286
v 0.38471055030822754 0.15450848639011383 0.2795085608959198
v 0.2795085608959198 0.15450848639011383 0.38471052050590515
v 0.14694635570049286 0.15450848639011383 0.4522543251514435
v 1.4171846807187194e-08 0.15450848639011383 0.4755283296108246
v -0.14694631099700928 0.15450848639011383 0.4522542953491211
v -0.279508501291275 0.15450848639011383 0.38471049070358276
v -0.3847104609012604 0.15450848639011383 0.2795085310935974
v -0.4522542655467987 0.15450848639011383 0.14694632589817047
v -0.4755282700061798 0.15450848639011383 0.0
v -0.4236990511417389 0.22699525952339172 -0.1376681625843048
v -0.36041995882987976 0.22699525952339172 -0.2618604004383087
v -0.2618604004383087 0.22699525952339172 -0.3604199290275574
v -0.13766814768314362 0.22699525952339172 -0.4236989915370941
v 0.0 0.22699525952339172 -0.44550347328186035
v 0.13766814768314362 0.22699525952339172 -0.4236989915370941
v 0.26186034083366394 0.22699525952339172 -0.3604198396205902
v 0.3604198098182678 0.22699525952339172 -0.26186031103134155
v 0.42369890213012695 0.22699525952339172 -0.13766810297966003
v 0.4455033838748932 0.22699525952339172 0.0
v 0.42369890213012695 0.22699525952339172 0.13766810297966003
v 0.3604198098182678 0.22699525952339172 0.26186031103134155
v 0.26186031103134155 0.22699525952339172 0.36041978001594543
v 0.13766810297966003 0.22699525952339172 0.4236988425254822
v 1.327703191833507e-08 0.22699525952339172 0.4455033242702484
v -0.13766807317733765 0.22699525952339172 0.4236988127231598
v -0.2618602514266968 0.22699525952339172 0.36041975021362305
v -0.36041972041130066 0.22699525952339172 0.26186028122901917
v -0.4236987829208374 0.22699525952339172 0.13766808807849884
v -0.44550326466560364 0.22699525952339172 0.0
v -0.3847106993198395 0.29389262199401855 -0.12500007450580597
v -0.3272544741630554 0.29389262199401855 -0.23776426911354065
v -0.23776426911354065 0.29389262199401855 -0.32725444436073303
v -0.12500005960464478 0.29389262199401855 -0.3847106397151947
v 0.0 0.29389262199401855 -0.40450868010520935
v 0.12500005960464478 0.29389262199401855 -0.3847106099128723
v 0.23776422441005707 0.29389262199401855 -0.32725438475608826
v 0.32725435495376587 0.29389262199401855 -0.23776419460773468
v 0.38471055030822754 0.29389262199401855 -0.1250000298023224
v 0.4045085906982422 0.29389262199401855 0.0
v 0.38471055030822754 0.29389262199401855 0.1250000298023224
v 0.3272543251514435 0.29389262199401855 0.2377641797065735
v 0.2377641797065735 0.29389262199401855 0.3272542953491211
v 0.1250000298023224 0.29389262199401855 0.38471049070358276
v 1.2055292764046044e-08 0.29389262199401855 0.4045085608959198
v -0.1249999925494194 0.29389262199401855 0.38471049070358276
v -0.2377641350030899 0.29389262199401855 0.3272542655467987
v -0.3272542655467987 0.29389262199401855 0.2377641499042511
v -0.3847104609012604 0.29389262199401855 0.125
v -0.404508501291275 0.29389262199401855 0.0
v -0.3362494707107544 0.3535533845424652 -0.10925406962633133
v -0.2860308885574341 0.3535533845424652 -0.2078135907649994
v -0.2078135907649994 0.3535533845424652 -0.2860308587551117
v -0.10925406217575073 0.3535533845424652 -0.336249440908432
v 0.0 0.3535533845424652 -0.35355356335639954
v 0.10925406217575073 0.3535533845424652 -0.3362494111061096
v 0.2078135460615158 0.3535533845424652 -0.2860307991504669
v 0.28603076934814453 0.3535533845424652 -0.20781353116035461
v 0.33624935150146484 0.3535533845424652 -0.10925402492284775
v 0.3535534739494324 0.3535533845424652 0.0
v 0.33624935150146484 0.3535533845424652 0.10925402492284775
v 0.28603076934814453 0.3535533845424652 0.20781350135803223
v 0.20781350135803223 0.3535533845424652 0.28603073954582214
v 0.10925402492284775 0.3535533845424652 0.33624929189682007
v 1.053671194739536e-08 0.3535533845424652 0.3535534143447876
v -0.10925399512052536 0.3535533845424652 0.33624929189682007
v -0.20781345665454865 0.3535533845424652 0.28603070974349976
v -0.28603070974349976 0.3535533845424652 0.20781348645687103
v -0.3362492620944977 0.3535533845424652 0.10925401002168655
v -0.3535533845424652 0.3535533845424652 0.0
v -0.27950868010520935 0.404508501291275 -0.09081786870956421
v -0.23776428401470184 0.404508501291275 -0.17274585366249084
v -0.17274585366249084 0.404508501291275 -0.23776426911354065
v -0.09081786125898361 0.404508501291275 -0.27950865030288696
v 0.0 0.404508501291275 -0.2938927710056305
v 0.09081786125898361 0.404508501291275 -0.2795086205005646
v 0.17274582386016846 0.404508501291275 -0.23776420950889587
v 0.23776419460773468 0.404508501291275 -0.17274579405784607
v 0.2795085608959198 0.404508501291275 -0.09081783145666122
v 0.29389268159866333 0.404508501291275 0.0
v 0.2795085608959198 0.404508501291275 0.09081783145666122
v 0.2377641797065735 0.404508501291275 0.17274577915668488
v 0.17274577915668488 0.404508501291275 0.2377641648054123
v 0.09081783145666122 0.404508501291275 0.2795085310935974
v 8.758682668030815e-09 0.404508501291275 0.29389265179634094
v -0.09081780910491943 0.404508501291275 0.2795085310935974
v -0.1727457493543625 0.404508501291275 0.2377641499042511
v -0.2377641350030899 0.404508501291275 0.17274576425552368
v -0.279508501291275 0.404508501291275 0.09081781655550003
v -0.29389262199401855 0.404508501291275 0.0
v -0.2158854603767395 0.44550326466560364 -0.07014543563127518
v -0.1836431473493576 0.44550326466560364 -0.1334245502948761
v -0.1334245502948761 0.44550326466560364 -0.1836431324481964
v -0.07014542818069458 0.44550326466560364 -0.21588543057441711
v 0.0 0.44550326466560364 -0.22699536383152008
v 0.07014542818069458 0.44550326466560364 -0.21588541567325592
v 0.1334245204925537 0.44550326466560364 -0.18364308774471283
v 0.18364307284355164 0.44550326466560364 -0.13342450559139252
v 0.21588538587093353 0.44550326466560364 -0.07014540582895279
v 0.2269953191280365 0.44550326466560364 0.0
v 0.21588538587093353 0.44550326466560364 0.07014540582895279
v 0.18364305794239044 0.44550326466560364 0.13342449069023132
v 0.13342449069023132 0.44550326466560364 0.18364305794239044
v 0.07014540582895279 0.44550326466560364 0.21588535606861115
v 6.764985904794685e-09 0.44550326466560364 0.2269952893257141
v -0.0701453909277916 0.44550326466560364 0.21588534116744995
v -0.13342446088790894 0.44550326466560364 0.18364304304122925
v -0.18364302814006805 0.44550326466560364 0.13342447578907013
v -0.21588532626628876 0.44550326466560364 0.07014539837837219
v -0.22699525952339172 0.44550326466560364 0.0
v -0.14694641530513763 0.4755282700061798 -0.047745782881975174
v -0.12500008940696716 0.4755282700061798 -0.09081786870956421
v -0.09081786870956421 0.4755282700061798 -0.12500007450580597
v -0.04774577543139458 0.4755282700061798 -0.14694640040397644
v 0.0 0.4755282700061798 -0.154508575797081
v 0.04774577543139458 0.4755282700061798 -0.14694638550281525
v 0.09081785380840302 0.4755282700061798 -0.12500004470348358
v 0.12500004470348358 0.4755282700061798 -0.09081784635782242
v 0.14694635570049286 0.4755282700061798 -0.04774576425552368
v 0.1545085310935974 0.4755282700061798 0.0
v 0.14694635570049286 0.4755282700061798 0.04774576425552368
v 0.1250000298023224 0.4755282700061798 0.09081783890724182
v 0.09081783890724182 0.4755282700061798 0.1250000298023224
v 0.04774576425552368 0.4755282700061798 0.14694634079933167
v 4.604712167122216e-09 0.4755282700061798 0.15450851619243622
v -0.04774574935436249 0.4755282700061798 0.14694632589817047
v -0.09081781655550003 0.4755282700061798 0.1250000149011612
v -0.125 0.4755282700061798 0.09081782400608063
v -0.14694632589817047 0.4755282700061798 0.047745753079652786
v -0.15450850129127502 0.4755282700061798 0.0
v -0.07438906282186508 0.4938441812992096 -0.024170471355319023
v -0.06327911466360092 0.4938441812992096 -0.0459749661386013
v -0.0459749661386013 0.4938441812992096 -0.06327911466360092
v -0.024170467630028725 0.4938441812992096 -0.07438905537128448
v 0.0 0.4938441812992096 -0.0782172754406929
v 0.024170467630028725 0.4938441812992096 -0.07438904792070389
v 0.045974958688020706 0.4938441812992096 -0.06327909976243973
v 0.06327909231185913 0.4938441812992096 -0.04597495123744011
v 0.0743890330195427 0.4938441812992096 -0.024170462042093277
v 0.07821726053953171 0.4938441812992096 0.0
v 0.0743890330195427 0.4938441812992096 0.024170462042093277
v 0.06327909231185913 0.4938441812992096 0.04597494751214981
v 0.04597494751214981 0.4938441812992096 0.06327908486127853
v 0.024170462042093277 0.4938441812992096 0.0743890255689621
v 2.331055348747668e-09 0.4938441812992096 0.07821724563837051
v -0.02417045459151268 0.4938441812992096 0.0743890181183815
v -0.045974940061569214 0.4938441812992096 0.06327907741069794
v -0.06327907741069794 0.4938441812992096 0.04597494378685951
v -0.0743890181183815 0.4938441812992096 0.02417045645415783
v -0.07821723818778992 0.4938441812992096 0.0
v 0.0 -0.5 0.0
v 0.0 0.5 0.0
v -0.14694641530513763 -0.4755282700061798 -0.047745782881975174
v -0.07438906282186508 -0.4938441812992096 -0.024170471355319023
v -0.2158854603767395 -0.44550326466560364 -0.07014543563127518
v -0.27950868010520935 -0.404508501291275 -0.09081786870956421
v -0.3362494707107544 -0.3535533845424652 -0.10925406962633133
v -0.3847106993198395 -0.29389262199401855 -0.12500007450580597
v -0.4236990511417389 -0.22699525952339172 -0.1376681625843048
v -0.4522545635700226 -0.15450848639011383 -0.14694640040397644
v -0.4696740210056305 -0.07821718603372574 -0.15260633826255798
v -0.4755285680294037 0.0 -0.1545085906982422
v -0.4696740210056305 0.07821718603372574 -0.15260633826255798
v -0.4522545635700226 0.15450848639011383 -0.14694640040397644
v -0.4236990511417389 0.22699525952339172 -0.1376681625843048
v -0.3847106993198395 0.29389262199401855 -0.12500007450580597
v -0.3362494707107544 0.3535533845424652 -0.10925406962633133
v -0.27950868010520935 0.404508501291275 -0.09081786870956421
v -0.2158854603767395 0.44550326466560364 -0.07014543563127518
v -0.14694641530513763 0.4755282700061798 -0.047745782881975174
v -0.07438906282186508 0.4938441812992096 -0.024170471355319023
v 0.0 -0.5 0.0
v 0.0 -0.5 0.0
v 0.0 -0.5 0.0
v 0.0 -0.5 0.0
v 0.0 -0.5 0.0
v 0.0 -0.5 0.0
v 0.0 -0.5 0.0
v 0.0 -0.5 0.0
v 0.0 -0.5 0.0
v 0.0 -0.5 0.0
v 0.0 -0.5 0.0
v 0.0 -0.5 0.0
v 0.0 -0.5 0.0
v 0.0 -0.5 0.0
v 0.0 -0.5 0.0
v 0.0 -0.5 0.0
v 0.0 -0.5 0.0
v 0.0 -0.5 0.0
v 0.0 -0.5 0.0
v 0.0 0.5 0.0
v 0.0 0.5 0.0
v 0.0 0.5 0.0
v 0.0 0.5 0.0
v 0.0 0.5 0.0
v 0.0 0.5 0.0
v 0.0 0.5 0.0
v 0.0 0.5 0.0
v 0.0 0.5 0.0
v 0.0 0.5 0.0
v 0.0 0.5 0.0
v 0.0 0.5 0.0
v 0.0 0.5 0.0
v 0.0 0.5 0.0
v 0.0 0.5 0.0
v 0.0 0.5 0.0
v 0.0 0.5 0.0
v 0.0 0.5 0.0
v 0.0 0.5 0.0
g submesh_0
f 361 382 362
f 361 362 341
f 341 362 342
f 341 342 321
f 321 342 322
f 321 322 301
f 301 322 302
f 301 302 281
f 281 302 282
f 281 282 261
f 261 282 262
f 261 262 241
f 241 262 242
f 241 242 221
f 221 242 222
f 221 222 201
f 201 222 202
f 201 202 181
f 181 202 182
f 181 182 161
f 161 182 162
f 161 162 141
f 141 162 142
f 141 142 121
f 121 142 122
f 121 122 101
f 101 122 102
f 101 102 81
f 81 102 82
f 81 82 61
f 61 82 62
f 61 62 41
f 41 62 42
f 41 42 21
f 21 42 22
f 21 22 1
f 1 22 2
f 1 2 381
f 362 421 363
f 362 363 342
f 342 363 343
f 342 343 322
f 322 343 323
f 322 323 302
f 302 323 303
f 302 303 282
f 282 303 283
f 282 283 262
f 262 283 263
f 262 263 242
f 242 263 243
f 242 243 222
f 222 243 223
f 222 223 202
f 202 223 203
f 202 203 182
f 182 203 183
f 182 183 162
f 162 183 163
f 162 163 142
f 142 163 143
f 142 143 122
f 122 143 123
f 122 123 102
f 102 123 103
f 102 103 82
f 82 103 83
f 82 83 62
f 62 83 63
f 62 63 42
f 42 63 43
f 42 43 22
f 22 43 23
f 22 23 2
f 2 23 3
f 2 3 402
f 363 422 364
f 363 364 343
f 343 364 344
f 343 344 323
f 323 344 324
f 323 324 303
f 303 324 304
f 303 304 283
f 283 304 284
f 283 284 263
f 263 284 264
f 263 264 243
f 243 264 244
f 243 244 223
f 223 244 224
f 223 224 203
f 203 224 204
f 203 204 183
f 183 204 184
f 183 184 163
f 163 184 164
f 163 164 143
f 143 164 144
f 143 144 123
f 123 144 124
f 123 124 103
f 103 124 104
f 103 104 83
f 83 104 84
f 83 84 63
f 63 84 64
f 63 64 43
f 43 64 44
f 43 44 23
f 23 44 24
f 23 24 3
f 3 24 4
f 3 4 403
f 364 423 365
f 364 365 344
f 344 365 345
f 344 345 324
f 324 345 325
f 324 325 304
f 304 325 305
f 304 305 284
f 284 305 285
f 284 285 264
f 264 285 265
f 264 265 244
f 244 265 245
f 244 245 224
f 224 245 225
f 224 225 204
f 204 225 205
f 204 205 184
f 184 205 185
f 184 185 164
f 164 185 165
f 164 165 144
f 144 165 145
f 144 145 124
f 124 145 125
f 124 125 104
f 104 125 105
f 104 105 84
f 84 105 85
f 84 85 64
f 64 85 65
f 64 65 44
f 44 65 45
f 44 45 24
f 24 45 25
f 24 25 4
f 4 25 5
f 4 5 404
f 365 424 366
f 365 366 345
f 345 366 346
f 345 346 325
f 325 346 326
f 325 326 305
f 305 326 306
f 305 306 285
f 285 306 286
f 285 286 265
f 265 286 266
f 265 266 245
f 245 266 246
f 245 246 225
f 225 246 226
f 225 226 205
f 205 226 206
f 205 206 185
f 185 206 186
f 185 186 165
f 165 186 166
f 165 166 145
f 145 166 146
f 145 146 125
f 125 146 126
f 125 126 105
f 105 126 106
f 105 106 85
f 85 106 86
f 85 86 65
f 65 86 66
f 65 66 45
f 45 66 46
f 45 46 25
f 25 46 26
f 25 26 5
f 5 26 6
f 5 6 405
f 366 425 367
f 366 367 346
f 346 367 347
f 346 347 326
f 326 347 327
f 326 327 306
f 306 327 307
f 306 307 286
f 286 307 287
f 286 287 266
f 266 287 267
f 266 267 246
f 246 267 247
f 246 247 226
f 226 247 227
f 226 227 206
f 206 227 207
f 206 207 186
f 186 207 187
f 186 187 166
f 166 187 167
f 166 167 146
f 146 167 147
f 146 147 126
f 126 147 127
f 126 127 106
f 106 127 107
f 106 107 86
f 86 107 87
f 86 87 66
f 66 87 67
f 66 67 46
f 46 67 47
f 46 47 26
f 26 47 27
f 26 27 6
f 6 27 7
f 6 7 406
f 367 426 368
f 367 368 347
f 347 368 348
f 347 348 327
f 327 348 328
f 327 328 307
f 307 328 308
f 307 308 287
f 287 308 288
f 287 288 267
f 267 288 268
f 267 268 247
f 247 268 248
f 247 248 227
f 227 248 228
f 227 228 207
f 207 228 208
f 207 208 187
f 187 208 188
f 187 188 167
f 167 188 168
f 167 168 147
f 147 168 148
f 147 148 127
f 127 148 128
f 127 128 107
f 107 128 108
f 107 108 87
f 87 108 88
f 87 88 67
f 67 88 68
f 67 68 47
f 47 68 48
f 47 48 27
f 27 48 28
f 27 28 7
f 7 28 8
f 7 8 407
f 368 427 369
f 368 369 348
f 348 369 349
f 348 349 328
f 328 349 329
f 328 329 308
f 308 329 309
f 308 309 288
f 288 309 289
f 288 289 268
f 268 289 269
f 268 269 248
f 248 269 249
f 248 249 228
f 228 249 229
f 228 229 208
f 208 229 209
f 208 209 188
f 188 209 189
f 188 189 168
f 168 189 169
f 168 169 148
f 148 169 149
f 148 149 128
f 128 149 129
f 128 129 108
f 108 129 109
f 108 109 88
f 88 109 89
f 88 89 68
f 68 89 69
f 68 69 48
f 48 69 49
f 48 49 28
f 28 49 29
f 28 29 8
f 8 29 9
f 8 9 408
f 369 428 370
f 369 370 349
f 349 370 350
f 349 350 329
f 329 350 330
f 329 330 309
f 309 330 310
f 309 310 289
f 289 310 290
f 289 290 269
f 269 290 270
f 269 270 249
f 249 270 250
f 249 250 229
f 229 250 230
f 229 230 209
f 209 230 210
f 209 210 189
f 189 210 190
f 189 190 169
f 169 190 170
f 169 170 149
f 149 170 150
f 149 150 129
f 129 150 130
f 129 130 109
f 109 130 110
f 109 110 89
f 89 110 90
f 89 90 69
f 69 90 70
f 69 70 49
f 49 70 50
f 49 50 29
f 29 50 30
f 29 30 9
f 9 30 10
f 9 10 409
f 370 429 371
f 370 371 350
f 350 371 351
f 350 351 330
f 330 351 331
f 330 331 310
f 310 331 311
f 310 311 290
f 290 311 291
f 290 291 270
f 270 291 271
f 270 271 250
f 250 271 251
f 250 251 230
f 230 251 231
f 230 231 210
f 210 231 211
f 210 211 190
f 190 211 191
f 190 191 170
f 170 191 171
f 170 171 150
f 150 171 151
f 150 151 130
f 130 151 131
f 130 131 110
f 110 131 111
f 110 111 90
f 90 111 91
f 90 91 70
f 70 91 71
f 70 71 50
f 50 71 51
f 50 51 30
f 30 51 31
f 30 31 10
f 10 31 11
f 10 11 410
f 371 430 372
f 371 372 351
f 351 372 352
f 351 352 331
f 331 352 332
f 331 332 311
f 311 332 312
f 311 312 291
f 291 312 292
f 291 292 271
f 271 292 272
f 271 272 251
f 251 272 252
f 251 252 231
f 231 252 232
f 231 232 211
f 211 232 212
f 211 212 191
f 191 212 192
f 191 192 171
f 171 192 172
f 171 172 151
f 151 172 152
f 151 152 131
f 131 152 132
f 131 132 111
f 111 132 112
f 111 112 91
f 91 112 92
f 91 92 71
f 71 92 72
f 71 72 51
f 51 72 52
f 51 52 31
f 31 52 32
f 31 32 11
f 11 32 12
f 11 12 411
f 372 431 373
f 372 373 352
f 352 373 353
f 352 353 332
f 332 353 333
f 332 333 312
f 312 333 313
f 312 313 292
f 292 313 293
f 292 293 272
f 272 293 273
f 272 273 252
f 252 273 253
f 252 253 232
f 232 253 233
f 232 233 212
f 212 233 213
f 212 213 192
f 192 213 193
f 192 193 172
f 172 193 173
f 172 173 152
f 152 173 153
f 152 153 132
f 132 153 133
f 132 133 112
f 112 133 113
f 112 113 92
f 92 113 93
f 92 93 72
f 72 93 73
f 72 73 52
f 52 73 53
f 52 53 32
f 32 53 33
f 32 33 12
f 12 33 13
f 12 13 412
f 373 432 374
f 373 374 353
f 353 374 354
f 353 354 333
f 333 354 334
f 333 334 313
f 313 334 314
f 313 314 293
f 293 314 294
f 293 294 273
f 273 294 274
f 273 274 253
f 253 274 254
f 253 254 233
f 233 254 234
f 233 234 213
f 213 234 214
f 213 214 193
f 193 214 194
f 193 194 173
f 173 194 174
f 173 174 153
f 153 174 154
f 153 154 133
f 133 154 134
f 133 134 113
f 113 134 114
f 113 114 93
f 93 114 94
f 93 94 73
f 73 94 74
f 73 74 53
f 53 74 54
f 53 54 33
f 33 54 34
f 33 34 13
f 13 34 14
f 13 14 413
f 374 433 375
f 374 375 354
f 354 375 355
f 354 355 334
f 334 355 335
f 334 335 314
f 314 335 315
f 314 315 294
f 294 315 295
f 294 295 274
f 274 295 275
f 274 275 254
f 254 275 255
f 254 255 234
f 234 255 235
f 234 235 214
f 214 235 215
f 214 215 194
f 194 215 195
f 194 195 174
f 174 195 175
f 174 175 154
f 154 175 155
f 154 155 134
f 134 155 135
f 134 135 114
f 114 135 115
f 114 115 94
f 94 115 95
f 94 95 74
f 74 95 75
f 74 75 54
f 54 75 55
f 54 55 34
f 34 55 35
f 34 35 14
f 14 35 15
f 14 15 414
f 375 434 376
f 375 376 355
f 355 376 356
f 355 356 335
f 335 356 336
f 335 336 315
f 315 336 316
f 315 316 295
f 295 316 296
f 295 296 275
f 275 296 276
f 275 276 255
f 255 276 256
f 255 256 235
f 235 256 236
f 235 236 215
f 215 236 216
f 215 216 195
f 195 216 196
f 195 196 175
f 175 196 176
f 175 176 155
f 155 176 156
f 155 156 135
f 135 156 136
f 135 136 115
f 115 136 116
f 115 116 95
f 95 116 96
f 95 96 75
f 75 96 76
f 75 76 55
f 55 76 56
f 55 56 35
f 35 56 36
f 35 36 15
f 15 36 16
f 15 16 415
f 376 435 377
f 376 377 356
f 356 377 357
f 356 357 336
f 336 357 337
f 336 337 316
f 316 337 317
f 316 317 296
f 296 317 297
f 296 297 276
f 276 297 277
f 276 277 256
f 256 277 257
f 256 257 236
f 236 257 237
f 236 237 216
f 216 237 217
f 216 217 196
f 196 217 197
f 196 197 176
f 176 197 177
f 176 177 156
f 156 177 157
f 156 157 136
f 136 157 137
f 136 137 116
f 116 137 117
f 116 117 96
f 96 117 97
f 96 97 76
f 76 97 77
f 76 77 56
f 56 77 57
f 56 57 36
f 36 57 37
f 36 37 16
f 16 37 17
f 16 17 416
f 377 436 378
f 377 378 357
f 357 378 358
f 357 358 337
f 337 358 338
f 337 338 317
f 317 338 318
f 317 318 297
f 297 318 298
f 297 298 277
f 277 298 278
f 277 278 257
f 257 278 258
f 257 258 237
f 237 258 238
f 237 238 217
f 217 238 218
f 217 218 197
f 197 218 198
f 197 198 177
f 177 198 178
f 177 178 157
f 157 178 158
f 157 158 137
f 137 158 138
f 137 138 117
f 117 138 118
f 117 118 97
f 97 118 98
f 97 98 77
f 77 98 78
f 77 78 57
f 57 78 58
f 57 58 37
f 37 58 38
f 37 38 17
f 17 38 18
f 17 18 417
f 378 437 379
f 378 379 358
f 358 379 359
f 358 359 338
f 338 359 339
f 338 339 318
f 318 339 319
f 318 319 298
f 298 319 299
f 298 299 278
f 278 299 279
f 278 279 258
f 258 279 259
f 258 259 238
f 238 259 239
f 238 239 218
f 218 239 219
f 218 219 198
f 198 219 199
f 198 199 178
f 178 199 179
f 178 179 158
f 158 179 159
f 158 159 138
f 138 159 139
f 138 139 118
f 118 139 119
f 118 119 98
f 98 119 99
f 98 99 78
f 78 99 79
f 78 79 58
f 58 79 59
f 58 59 38
f 38 59 39
f 38 39 18
f 18 39 19
f 18 19 418
f 379 438 380
f 379 380 359
f 359 380 360
f 359 360 339
f 339 360 340
f 339 340 319
f 319 340 320
f 319 320 299
f 299 320 300
f 299 300 279
f 279 300 280
f 279 280 259
f 259 280 260
f 259 260 239
f 239 260 240
f 239 240 219
f 219 240 220
f 219 220 199
f 199 220 200
f 199 200 179
f 179 200 180
f 179 180 159
f 159 180 160
f 159 160 139
f 139 160 140
f 139 140 119
f 119 140 120
f 119 120 99
f 99 120 100
f 99 100 79
f 79 100 80
f 79 80 59
f 59 80 60
f 59 60 39
f 39 60 40
f 39 40 19
f 19 40 20
f 19 20 419
f 380 439 401
f 380 401 360
f 360 401 400
f 360 400 340
f 340 400 399
f 340 399 320
f 320 399 398
f 320 398 300
f 300 398 397
f 300 397 280
f 280 397 396
f 280 396 260
f 260 396 395
f 260 395 240
f 240 395 394
f 240 394 220
f 220 394 393
f 220 393 200
f 200 393 392
f 200 392 180
f 180 392 391
f 180 391 160
f 160 391 390
f 160 390 140
f 140 390 389
f 140 389 120
f 120 389 388
f 120 388 100
f 100 388 387
f 100 387 80
f 80 387 386
f 80 386 60
f 60 386 385
f 60 385 40
f 40 385 383
f 40 383 20
f 20 383 384
f 20 384 420
