# pSphere1
v -0.14877812564373016 -0.9876883625984192 -0.048340942710638046
v -0.12655822932720184 -0.9876883625984192 -0.0919499322772026
v -0.0919499322772026 -0.9876883625984192 -0.12655822932720184
v -0.04834093526005745 -0.9876883625984192 -0.14877811074256897
v 0.0 -0.9876883625984192 -0.1564345508813858
v 0.04834093526005745 -0.9876883625984192 -0.14877809584140778
v 0.09194991737604141 -0.9876883625984192 -0.12655819952487946
v 0.12655818462371826 -0.9876883625984192 -0.09194990247488022
v 0.1487780660390854 -0.9876883625984192 -0.048340924084186554
v 0.15643452107906342 -0.9876883625984192 0.0
v 0.1487780660390854 -0.9876883625984192 0.048340924084186554
v 0.12655818462371826 -0.9876883625984192 0.09194989502429962
v 0.09194989502429962 -0.9876883625984192 0.12655816972255707
v 0.048340924084186554 -0.9876883625984192 0.1487780511379242
v 4.662110697495336e-09 -0.9876883625984192 0.15643449127674103
v -0.04834090918302536 -0.9876883625984192 0.148778036236763
v -0.09194988012313843 -0.9876883625984192 0.12655815482139587
v -0.12655815482139587 -0.9876883625984192 0.09194988757371902
v -0.148778036236763 -0.9876883625984192 0.04834091290831566
v -0.15643447637557983 -0.9876883625984192 0.0
v -0.29389283061027527 -0.9510565400123596 -0.09549156576395035
v -0.2500001788139343 -0.9510565400123596 -0.18163573741912842
v -0.18163573741912842 -0.9510565400123596 -0.25000014901161194
v -0.09549155086278915 -0.9510565400123596 -0.2938928008079529
v 0.0 -0.9510565400123596 -0.309017151594162
v 0.09549155086278915 -0.9510565400123596 -0.2938927710056305
v 0.18163570761680603 -0.9510565400123596 -0.25000008940696716
v 0.25000008940696716 -0.9510565400123596 -0.18163569271564484
v 0.2938927114009857 -0.9510565400123596 -0.09549152851104736
v 0.3090170621871948 -0.9510565400123596 0.0
v 0.2938927114009857 -0.9510565400123596 0.09549152851104736
v 0.2500000596046448 -0.9510565400123596 0.18163567781448364
v 0.18163567781448364 -0.9510565400123596 0.2500000596046448
v 0.09549152851104736 -0.9510565400123596 0.29389268159866333
v 9.209424334244432e-09 -0.9510565400123596 0.30901703238487244
v -0.09549149870872498 -0.9510565400123596 0.29389265179634094
v -0.18163563311100006 -0.9510565400123596 0.2500000298023224
v -0.25 -0.9510565400123596 0.18163564801216125
v -0.29389265179634094 -0.9510565400123596 0.09549150615930557
v -0.30901700258255005 -0.9510565400123596 0.0
v -0.431770920753479 -0.8910065293312073 -0.14029087126255035
v -0.3672862946987152 -0.8910065293312073 -0.2668491005897522
v -0.2668491005897522 -0.8910065293312073 -0.3672862648963928
v -0.14029085636138916 -0.8910065293312073 -0.43177086114883423
v 0.0 -0.8910065293312073 -0.45399072766304016
v 0.14029085636138916 -0.8910065293312073 -0.43177083134651184
v 0.2668490409851074 -0.8910065293312073 -0.36728617548942566
v 0.36728614568710327 -0.8910065293312073 -0.26684901118278503
v 0.43177077174186707 -0.8910065293312073 -0.14029081165790558
v 0.453990638256073 -0.8910065293312073 0.0
v 0.43177077174186707 -0.8910065293312073 0.14029081165790558
v 0.3672861158847809 -0.8910065293312073 0.26684898138046265
v 0.26684898138046265 -0.8910065293312073 0.3672861158847809
v 0.14029081165790558 -0.8910065293312073 0.4317707121372223
v 1.352997180958937e-08 -0.8910065293312073 0.4539905786514282
v -0.1402907818555832 -0.8910065293312073 0.4317706823348999
v -0.26684892177581787 -0.8910065293312073 0.3672860860824585
v -0.3672860562801361 -0.8910065293312073 0.26684895157814026
v -0.4317706525325775 -0.8910065293312073 0.14029079675674438
v -0.45399051904678345 -0.8910065293312073 0.0
v -0.5590173602104187 -0.80901700258255 -0.18163573741912842
v -0.4755285680294037 -0.80901700258255 -0.3454917073249817
v -0.3454917073249817 -0.80901700258255 -0.4755285382270813
v -0.18163572251796722 -0.80901700258255 -0.5590173006057739
v 0.0 -0.80901700258255 -0.587785542011261
v 0.18163572251796722 -0.80901700258255 -0.5590172410011292
v 0.3454916477203369 -0.80901700258255 -0.47552841901779175
v 0.47552838921546936 -0.80901700258255 -0.34549158811569214
v 0.5590171217918396 -0.80901700258255 -0.18163566291332245
v 0.5877853631973267 -0.80901700258255 0.0
v 0.5590171217918396 -0.80901700258255 0.18163566291332245
v 0.475528359413147 -0.80901700258255 0.34549155831336975
v 0.34549155831336975 -0.80901700258255 0.4755283296108246
v 0.18163566291332245 -0.80901700258255 0.5590170621871948
v 1.751736533606163e-08 -0.80901700258255 0.5877853035926819
v -0.18163561820983887 -0.80901700258255 0.5590170621871948
v -0.345491498708725 -0.80901700258255 0.4755282998085022
v -0.4755282700061798 -0.80901700258255 0.34549152851104736
v -0.55901700258255 -0.80901700258255 0.18163563311100006
v -0.5877852439880371 -0.80901700258255 0.0
v -0.6724989414215088 -0.7071067690849304 -0.21850813925266266
v -0.5720617771148682 -0.7071067690849304 -0.4156271815299988
v -0.4156271815299988 -0.7071067690849304 -0.5720617175102234
v -0.21850812435150146 -0.7071067690849304 -0.672498881816864
v 0.0 -0.7071067690849304 -0.7071071267127991
v 0.21850812435150146 -0.7071067690849304 -0.6724988222122192
v 0.4156270921230316 -0.7071067690849304 -0.5720615983009338
v 0.5720615386962891 -0.7071067690849304 -0.41562706232070923
v 0.6724987030029297 -0.7071067690849304 -0.2185080498456955
v 0.7071069478988647 -0.7071067690849304 0.0
v 0.6724987030029297 -0.7071067690849304 0.2185080498456955
v 0.5720615386962891 -0.7071067690849304 0.41562700271606445
v 0.41562700271606445 -0.7071067690849304 0.5720614790916443
v 0.2185080498456955 -0.7071067690849304 0.6724985837936401
v 2.107342389479072e-08 -0.7071067690849304 0.7071068286895752
v -0.21850799024105072 -0.7071067690849304 0.6724985837936401
v -0.4156269133090973 -0.7071067690849304 0.5720614194869995
v -0.5720614194869995 -0.7071067690849304 0.41562697291374207
v -0.6724985241889954 -0.7071067690849304 0.2185080200433731
v -0.7071067690849304 -0.7071067690849304 0.0
v -0.769421398639679 -0.5877852439880371 -0.25000014901161194
v -0.6545089483261108 -0.5877852439880371 -0.4755285382270813
v -0.4755285382270813 -0.5877852439880371 -0.6545088887214661
v -0.25000011920928955 -0.5877852439880371 -0.7694212794303894
v 0.0 -0.5877852439880371 -0.8090173602104187
v 0.25000011920928955 -0.5877852439880371 -0.7694212198257446
v 0.47552844882011414 -0.5877852439880371 -0.6545087695121765
v 0.6545087099075317 -0.5877852439880371 -0.47552838921546936
v 0.7694211006164551 -0.5877852439880371 -0.2500000596046448
v 0.8090171813964844 -0.5877852439880371 0.0
v 0.7694211006164551 -0.5877852439880371 0.2500000596046448
v 0.654508650302887 -0.5877852439880371 0.475528359413147
v 0.475528359413147 -0.5877852439880371 0.6545085906982422
v 0.2500000596046448 -0.5877852439880371 0.7694209814071655
v 2.4110585528092088e-08 -0.5877852439880371 0.8090171217918396
v -0.2499999850988388 -0.5877852439880371 0.7694209814071655
v -0.4755282700061798 -0.5877852439880371 0.6545085310935974
v -0.6545085310935974 -0.5877852439880371 0.4755282998085022
v -0.7694209218025208 -0.5877852439880371 0.25
v -0.80901700258255 -0.5877852439880371 0.0
v -0.8473981022834778 -0.45399051904678345 -0.2753363251686096
v -0.7208399176597595 -0.45399051904678345 -0.5237208008766174
v -0.5237208008766174 -0.45399051904678345 -0.7208398580551147
v -0.27533629536628723 -0.45399051904678345 -0.8473979830741882
v 0.0 -0.45399051904678345 -0.8910069465637207
v 0.27533629536628723 -0.45399051904678345 -0.8473979830741882
v 0.5237206816673279 -0.45399051904678345 -0.7208396792411804
v 0.7208396196365356 -0.45399051904678345 -0.5237206220626831
v 0.8473978042602539 -0.45399051904678345 -0.27533620595932007
v 0.8910067677497864 -0.45399051904678345 0.0
v 0.8473978042602539 -0.45399051904678345 0.27533620595932007
v 0.7208396196365356 -0.45399051904678345 0.5237206220626831
v 0.5237206220626831 -0.45399051904678345 0.7208395600318909
v 0.27533620595932007 -0.45399051904678345 0.8473976850509644
v 2.655406383667014e-08 -0.45399051904678345 0.8910066485404968
v -0.2753361463546753 -0.45399051904678345 0.8473976254463196
v -0.5237205028533936 -0.45399051904678345 0.7208395004272461
v -0.7208394408226013 -0.45399051904678345 0.5237205624580383
v -0.8473975658416748 -0.45399051904678345 0.2753361761569977
v -0.8910065293312073 -0.45399051904678345 0.0
v -0.9045091271400452 -0.30901697278022766 -0.2938928008079529
v -0.769421398639679 -0.30901697278022766 -0.5590173602104187
v -0.5590173602104187 -0.30901697278022766 -0.7694213390350342
v -0.2938927710056305 -0.30901697278022766 -0.9045090079307556
v 0.0 -0.30901697278022766 -0.9510570168495178
v 0.2938927710056305 -0.30901697278022766 -0.9045089483261108
v 0.5590172410011292 -0.30901697278022766 -0.7694212198257446
v 0.7694211602210999 -0.30901697278022766 -0.5590171813964844
v 0.9045087695121765 -0.30901697278022766 -0.2938927114009857
v 0.9510567784309387 -0.30901697278022766 0.0
v 0.9045087695121765 -0.30901697278022766 0.2938927114009857
v 0.7694211006164551 -0.30901697278022766 0.5590171217918396
v 0.5590171217918396 -0.30901697278022766 0.7694210410118103
v 0.2938927114009857 -0.30901697278022766 0.904508650302887
v 2.8343693614374388e-08 -0.30901697278022766 0.9510566592216492
v -0.29389262199401855 -0.30901697278022766 0.9045085906982422
v -0.55901700258255 -0.30901697278022766 0.7694209814071655
v -0.7694209218025208 -0.30901697278022766 0.5590170621871948
v -0.9045085310935974 -0.30901697278022766 0.29389265179634094
v -0.9510565400123596 -0.30901697278022766 0.0
v -0.939348042011261 -0.15643437206745148 -0.30521267652511597
v -0.7990571856498718 -0.15643437206745148 -0.5805490016937256
v -0.5805490016937256 -0.15643437206745148 -0.799057126045227
v -0.3052126467227936 -0.15643437206745148 -0.9393479228019714
v 0.0 -0.15643437206745148 -0.9876888394355774
v 0.3052126467227936 -0.15643437206745148 -0.9393478631973267
v 0.580548882484436 -0.15643437206745148 -0.7990569472312927
v 0.799056887626648 -0.15643437206745148 -0.5805488228797913
v 0.9393476843833923 -0.15643437206745148 -0.3052125573158264
v 0.9876886010169983 -0.15643437206745148 0.0
v 0.9393476843833923 -0.15643437206745148 0.3052125573158264
v 0.7990568280220032 -0.15643437206745148 0.5805487632751465
v 0.5805487632751465 -0.15643437206745148 0.7990567684173584
v 0.3052125573158264 -0.15643437206745148 0.9393475651741028
v 2.9435407000732994e-08 -0.15643437206745148 0.9876884818077087
v -0.30521246790885925 -0.15643437206745148 0.9393475651741028
v -0.5805486440658569 -0.15643437206745148 0.7990567088127136
v -0.7990566492080688 -0.15643437206745148 0.5805487036705017
v -0.939347505569458 -0.15643437206745148 0.30521249771118164
v -0.9876883625984192 -0.15643437206745148 0.0
v -0.9510571360588074 0.0 -0.3090171813964844
v -0.809017539024353 0.0 -0.5877856016159058
v -0.5877856016159058 0.0 -0.8090174794197083
v -0.309017151594162 0.0 -0.9510570168495178
v 0.0 0.0 -1.0000004768371582
v 0.309017151594162 0.0 -0.951056957244873
v 0.5877854824066162 0.0 -0.8090173006057739
v 0.8090172410011292 0.0 -0.5877854228019714
v 0.9510567784309387 0.0 -0.3090170621871948
v 1.000000238418579 0.0 0.0
v 0.9510567784309387 0.0 0.3090170621871948
v 0.8090171813964844 0.0 0.5877853631973267
v 0.5877853631973267 0.0 0.8090171217918396
v 0.3090170621871948 0.0 0.9510566592216492
v 2.9802322387695312e-08 0.0 1.0000001192092896
v -0.30901697278022766 0.0 0.9510565996170044
v -0.5877852439880371 0.0 0.8090170621871948
v -0.80901700258255 0.0 0.5877853035926819
v -0.9510565400123596 0.0 0.30901700258255005
v -1.0 0.0 0.0
v -0.939348042011261 0.15643437206745148 -0.30521267652511597
v -0.7990571856498718 0.15643437206745148 -0.5805490016937256
v -0.5805490016937256 0.15643437206745148 -0.799057126045227
v -0.3052126467227936 0.15643437206745148 -0.9393479228019714
v 0.0 0.15643437206745148 -0.9876888394355774
v 0.3052126467227936 0.15643437206745148 -0.9393478631973267
v 0.580548882484436 0.15643437206745148 -0.7990569472312927
v 0.799056887626648 0.15643437206745148 -0.5805488228797913
v 0.9393476843833923 0.15643437206745148 -0.3052125573158264
v 0.9876886010169983 0.15643437206745148 0.0
v 0.9393476843833923 0.15643437206745148 0.3052125573158264
v 0.7990568280220032 0.15643437206745148 0.5805487632751465
v 0.5805487632751465 0.15643437206745148 0.7990567684173584
v 0.3052125573158264 0.15643437206745148 0.9393475651741028
v 2.9435407000732994e-08 0.15643437206745148 0.9876884818077087
v -0.30521246790885925 0.15643437206745148 0.9393475651741028
v -0.5805486440658569 0.15643437206745148 0.7990567088127136
v -0.7990566492080688 0.15643437206745148 0.5805487036705017
v -0.939347505569458 0.15643437206745148 0.30521249771118164
v -0.9876883625984192 0.15643437206745148 0.0
v -0.9045091271400452 0.30901697278022766 -0.2938928008079529
v -0.769421398639679 0.30901697278022766 -0.5590173602104187
v -0.5590173602104187 0.30901697278022766 -0.7694213390350342
v -0.2938927710056305 0.30901697278022766 -0.9045090079307556
v 0.0 0.30901697278022766 -0.9510570168495178
v 0.2938927710056305 0.30901697278022766 -0.9045089483261108
v 0.5590172410011292 0.30901697278022766 -0.7694212198257446
v 0.7694211602210999 0.30901697278022766 -0.5590171813964844
v 0.9045087695121765 0.30901697278022766 -0.2938927114009857
v 0.9510567784309387 0.30901697278022766 0.0
v 0.9045087695121765 0.30901697278022766 0.2938927114009857
v 0.7694211006164551 0.30901697278022766 0.5590171217918396
v 0.5590171217918396 0.30901697278022766 0.7694210410118103
v 0.2938927114009857 0.30901697278022766 0.904508650302887
v 2.8343693614374388e-08 0.30901697278022766 0.9510566592216492
v -0.29389262199401855 0.30901697278022766 0.9045085906982422
v -0.55901700258255 0.30901697278022766 0.7694209814071655
v -0.7694209218025208 0.30901697278022766 0.5590170621871948
v -0.9045085310935974 0.30901697278022766 0.29389265179634094
v -0.9510565400123596 0.30901697278022766 0.0
v -0.8473981022834778 0.45399051904678345 -0.2753363251686096
v -0.7208399176597595 0.45399051904678345 -0.5237208008766174
v -0.5237208008766174 0.45399051904678345 -0.7208398580551147
v -0.27533629536628723 0.45399051904678345 -0.8473979830741882
v 0.0 0.45399051904678345 -0.8910069465637207
v 0.27533629536628723 0.45399051904678345 -0.8473979830741882
v 0.5237206816673279 0.45399051904678345 -0.7208396792411804
v 0.7208396196365356 0.45399051904678345 -0.5237206220626831
v 0.8473978042602539 0.45399051904678345 -0.27533620595932007
v 0.8910067677497864 0.45399051904678345 0.0
v 0.8473978042602539 0.45399051904678345 0.27533620595932007
v 0.7208396196365356 0.45399051904678345 0.5237206220626831
v 0.5237206220626831 0.45399051904678345 0.7208395600318909
v 0.27533620595932007 0.45399051904678345 0.8473976850509644
v 2.655406383667014e-08 0.45399051904678345 0.8910066485404968
v -0.2753361463546753 0.45399051904678345 0.8473976254463196
v -0.5237205028533936 0.45399051904678345 0.7208395004272461
v -0.7208394408226013 0.45399051904678345 0.5237205624580383
v -0.8473975658416748 0.45399051904678345 0.2753361761569977
v -0.8910065293312073 0.45399051904678345 0.0
v -0.769421398639679 0.5877852439880371 -0.25000014901161194
v -0.6545089483261108 0.5877852439880371 -0.4755285382270813
v -0.4755285382270813 0.5877852439880371 -0.6545088887214661
v -0.25000011920928955 0.5877852439880371 -0.7694212794303894
v 0.0 0.5877852439880371 -0.8090173602104187
v 0.25000011920928955 0.5877852439880371 -0.7694212198257446
v 0.47552844882011414 0.5877852439880371 -0.6545087695121765
v 0.6545087099075317 0.5877852439880371 -0.47552838921546936
v 0.7694211006164551 0.5877852439880371 -0.2500000596046448
v 0.8090171813964844 0.5877852439880371 0.0
v 0.7694211006164551 0.5877852439880371 0.2500000596046448
v 0.654508650302887 0.5877852439880371 0.475528359413147
v 0.475528359413147 0.5877852439880371 0.6545085906982422
v 0.2500000596046448 0.5877852439880371 0.7694209814071655
v 2.4110585528092088e-08 0.5877852439880371 0.8090171217918396
v -0.2499999850988388 0.5877852439880371 0.7694209814071655
v -0.4755282700061798 0.5877852439880371 0.6545085310935974
v -0.6545085310935974 0.5877852439880371 0.4755282998085022
v -0.7694209218025208 0.5877852439880371 0.25
v -0.80901700258255 0.5877852439880371 0.0
v -0.6724989414215088 0.7071067690849304 -0.21850813925266266
v -0.5720617771148682 0.7071067690849304 -0.4156271815299988
v -0.4156271815299988 0.7071067690849304 -0.5720617175102234
v -0.21850812435150146 0.7071067690849304 -0.672498881816864
v 0.0 0.7071067690849304 -0.7071071267127991
v 0.21850812435150146 0.7071067690849304 -0.6724988222122192
v 0.4156270921230316 0.7071067690849304 -0.5720615983009338
v 0.5720615386962891 0.7071067690849304 -0.41562706232070923
v 0.6724987030029297 0.7071067690849304 -0.2185080498456955
v 0.7071069478988647 0.7071067690849304 0.0
v 0.6724987030029297 0.7071067690849304 0.2185080498456955
v 0.5720615386962891 0.7071067690849304 0.41562700271606445
v 0.41562700271606445 0.7071067690849304 0.5720614790916443
v 0.2185080498456955 0.7071067690849304 0.6724985837936401
v 2.107342389479072e-08 0.7071067690849304 0.7071068286895752
v -0.21850799024105072 0.7071067690849304 0.6724985837936401
v -0.4156269133090973 0.7071067690849304 0.5720614194869995
v -0.5720614194869995 0.7071067690849304 0.41562697291374207
v -0.6724985241889954 0.7071067690849304 0.2185080200433731
v -0.7071067690849304 0.7071067690849304 0.0
v -0.5590173602104187 0.80901700258255 -0.18163573741912842
v -0.4755285680294037 0.80901700258255 -0.3454917073249817
v -0.3454917073249817 0.80901700258255 -0.4755285382270813
v -0.18163572251796722 0.80901700258255 -0.5590173006057739
v 0.0 0.80901700258255 -0.587785542011261
v 0.18163572251796722 0.80901700258255 -0.5590172410011292
v 0.3454916477203369 0.80901700258255 -0.47552841901779175
v 0.47552838921546936 0.80901700258255 -0.34549158811569214
v 0.5590171217918396 0.80901700258255 -0.18163566291332245
v 0.5877853631973267 0.80901700258255 0.0
v 0.5590171217918396 0.80901700258255 0.18163566291332245
v 0.475528359413147 0.80901700258255 0.34549155831336975
v 0.34549155831336975 0.80901700258255 0.4755283296108246
v 0.18163566291332245 0.80901700258255 0.5590170621871948
v 1.751736533606163e-08 0.80901700258255 0.5877853035926819
v -0.18163561820983887 0.80901700258255 0.5590170621871948
v -0.345491498708725 0.80901700258255 0.4755282998085022
v -0.4755282700061798 0.80901700258255 0.34549152851104736
v -0.55901700258255 0.80901700258255 0.18163563311100006
v -0.5877852439880371 0.80901700258255 0.0
v -0.431770920753479 0.8910065293312073 -0.14029087126255035
v -0.3672862946987152 0.8910065293312073 -0.2668491005897522
v -0.2668491005897522 0.8910065293312073 -0.3672862648963928
v -0.14029085636138916 0.8910065293312073 -0.43177086114883423
v 0.0 0.8910065293312073 -0.45399072766304016
v 0.14029085636138916 0.8910065293312073 -0.43177083134651184
v 0.2668490409851074 0.8910065293312073 -0.36728617548942566
v 0.36728614568710327 0.8910065293312073 -0.26684901118278503
v 0.43177077174186707 0.8910065293312073 -0.14029081165790558
v 0.453990638256073 0.8910065293312073 0.0
v 0.43177077174186707 0.8910065293312073 0.14029081165790558
v 0.3672861158847809 0.8910065293312073 0.26684898138046265
v 0.26684898138046265 0.8910065293312073 0.3672861158847809
v 0.14029081165790558 0.8910065293312073 0.4317707121372223
v 1.352997180958937e-08 0.8910065293312073 0.4539905786514282
v -0.1402907818555832 0.8910065293312073 0.4317706823348999
v -0.26684892177581787 0.8910065293312073 0.3672860860824585
v -0.3672860562801361 0.8910065293312073 0.26684895157814026
v -0.4317706525325775 0.8910065293312073 0.14029079675674438
v -0.45399051904678345 0.8910065293312073 0.0
v -0.29389283061027527 0.9510565400123596 -0.09549156576395035
v -0.2500001788139343 0.9510565400123596 -0.18163573741912842
v -0.18163573741912842 0.9510565400123596 -0.25000014901161194
v -0.09549155086278915 0.9510565400123596 -0.2938928008079529
v 0.0 0.9510565400123596 -0.309017151594162
v 0.09549155086278915 0.9510565400123596 -0.2938927710056305
v 0.18163570761680603 0.9510565400123596 -0.25000008940696716
v 0.25000008940696716 0.9510565400123596 -0.18163569271564484
v 0.2938927114009857 0.9510565400123596 -0.09549152851104736
v 0.3090170621871948 0.9510565400123596 0.0
v 0.2938927114009857 0.9510565400123596 0.09549152851104736
v 0.2500000596046448 0.9510565400123596 0.18163567781448364
v 0.18163567781448364 0.9510565400123596 0.2500000596046448
v 0.09549152851104736 0.9510565400123596 0.29389268159866333
v 9.209424334244432e-09 0.9510565400123596 0.30901703238487244
v -0.09549149870872498 0.9510565400123596 0.29389265179634094
v -0.18163563311100006 0.9510565400123596 0.2500000298023224
v -0.25 0.9510565400123596 0.18163564801216125
v -0.29389265179634094 0.9510565400123596 0.09549150615930557
v -0.30901700258255005 0.9510565400123596 0.0
v -0.14877812564373016 0.9876883625984192 -0.048340942710638046
v -0.12655822932720184 0.9876883625984192 -0.0919499322772026
v -0.0919499322772026 0.9876883625984192 -0.12655822932720184
v -0.04834093526005745 0.9876883625984192 -0.14877811074256897
v 0.0 0.9876883625984192 -0.1564345508813858
v 0.04834093526005745 0.9876883625984192 -0.14877809584140778
v 0.09194991737604141 0.9876883625984192 -0.12655819952487946
v 0.12655818462371826 0.9876883625984192 -0.09194990247488022
v 0.1487780660390854 0.9876883625984192 -0.048340924084186554
v 0.15643452107906342 0.9876883625984192 0.0
v 0.1487780660390854 0.9876883625984192 0.048340924084186554
v 0.12655818462371826 0.9876883625984192 0.09194989502429962
v 0.09194989502429962 0.9876883625984192 0.12655816972255707
v 0.048340924084186554 0.9876883625984192 0.1487780511379242
v 4.662110697495336e-09 0.9876883625984192 0.15643449127674103
v -0.04834090918302536 0.9876883625984192 0.148778036236763
v -0.09194988012313843 0.9876883625984192 0.12655815482139587
v -0.12655815482139587 0.9876883625984192 0.09194988757371902
v -0.148778036236763 0.9876883625984192 0.04834091290831566
v -0.15643447637557983 0.9876883625984192 0.0
v 0.0 -1.0 0.0
v 0.0 1.0 0.0
v -0.29389283061027527 -0.9510565400123596 -0.09549156576395035
v -0.14877812564373016 -0.9876883625984192 -0.048340942710638046
v -0.431770920753479 -0.8910065293312073 -0.14029087126255035
v -0.5590173602104187 -0.80901700258255 -0.18163573741912842
v -0.6724989414215088 -0.7071067690849304 -0.21850813925266266
v -0.769421398639679 -0.5877852439880371 -0.25000014901161194
v -0.8473981022834778 -0.45399051904678345 -0.2753363251686096
v -0.9045091271400452 -0.30901697278022766 -0.2938928008079529
v -0.939348042011261 -0.15643437206745148 -0.30521267652511597
v -0.9510571360588074 0.0 -0.3090171813964844
v -0.939348042011261 0.15643437206745148 -0.30521267652511597
v -0.9045091271400452 0.30901697278022766 -0.2938928008079529
v -0.8473981022834778 0.45399051904678345 -0.2753363251686096
v -0.769421398639679 0.5877852439880371 -0.25000014901161194
v -0.6724989414215088 0.7071067690849304 -0.21850813925266266
v -0.5590173602104187 0.80901700258255 -0.18163573741912842
v -0.431770920753479 0.8910065293312073 -0.14029087126255035
v -0.29389283061027527 0.9510565400123596 -0.09549156576395035
v -0.14877812564373016 0.9876883625984192 -0.048340942710638046
v 0.0 -1.0 0.0
v 0.0 -1.0 0.0
v 0.0 -1.0 0.0
v 0.0 -1.0 0.0
v 0.0 -1.0 0.0
v 0.0 -1.0 0.0
v 0.0 -1.0 0.0
v 0.0 -1.0 0.0
v 0.0 -1.0 0.0
v 0.0 -1.0 0.0
v 0.0 -1.0 0.0
v 0.0 -1.0 0.0
v 0.0 -1.0 0.0
v 0.0 -1.0 0.0
v 0.0 -1.0 0.0
v 0.0 -1.0 0.0
v 0.0 -1.0 0.0
v 0.0 -1.0 0.0
v 0.0 -1.0 0.0
v 0.0 1.0 0.0
v 0.0 1.0 0.0
v 0.0 1.0 0.0
v 0.0 1.0 0.0
v 0.0 1.0 0.0
v 0.0 1.0 0.0
v 0.0 1.0 0.0
v 0.0 1.0 0.0
v 0.0 1.0 0.0
v 0.0 1.0 0.0
v 0.0 1.0 0.0
v 0.0 1.0 0.0
v 0.0 1.0 0.0
v 0.0 1.0 0.0
v 0.0 1.0 0.0
v 0.0 1.0 0.0
v 0.0 1.0 0.0
v 0.0 1.0 0.0
v 0.0 1.0 0.0
g submesh_0
f 361 382 362
f 361 362 341
f 341 362 342
f 341 342 321
f 321 342 322
f 321 322 301
f 301 322 302
f 301 302 281
f 281 302 282
f 281 282 261
f 261 282 262
f 261 262 241
f 241 262 242
f 241 242 221
f 221 242 222
f 221 222 201
f 201 222 202
f 201 202 181
f 181 202 182
f 181 182 161
f 161 182 162
f 161 162 141
f 141 162 142
f 141 142 121
f 121 142 122
f 121 122 101
f 101 122 102
f 101 102 81
f 81 102 82
f 81 82 61
f 61 82 62
f 61 62 41
f 41 62 42
f 41 42 21
f 21 42 22
f 21 22 1
f 1 22 2
f 1 2 381
f 362 421 363
f 362 363 342
f 342 363 343
f 342 343 322
f 322 343 323
f 322 323 302
f 302 323 303
f 302 303 282
f 282 303 283
f 282 283 262
f 262 283 263
f 262 263 242
f 242 263 243
f 242 243 222
f 222 243 223
f 222 223 202
f 202 223 203
f 202 203 182
f 182 203 183
f 182 183 162
f 162 183 163
f 162 163 142
f 142 163 143
f 142 143 122
f 122 143 123
f 122 123 102
f 102 123 103
f 102 103 82
f 82 103 83
f 82 83 62
f 62 83 63
f 62 63 42
f 42 63 43
f 42 43 22
f 22 43 23
f 22 23 2
f 2 23 3
f 2 3 402
f 363 422 364
f 363 364 343
f 343 364 344
f 343 344 323
f 323 344 324
f 323 324 303
f 303 324 304
f 303 304 283
f 283 304 284
f 283 284 263
f 263 284 264
f 263 264 243
f 243 264 244
f 243 244 223
f 223 244 224
f 223 224 203
f 203 224 204
f 203 204 183
f 183 204 184
f 183 184 163
f 163 184 164
f 163 164 143
f 143 164 144
f 143 144 123
f 123 144 124
f 123 124 103
f 103 124 104
f 103 104 83
f 83 104 84
f 83 84 63
f 63 84 64
f 63 64 43
f 43 64 44
f 43 44 23
f 23 44 24
f 23 24 3
f 3 24 4
f 3 4 403
f 364 423 365
f 364 365 344
f 344 365 345
f 344 345 324
f 324 345 325
f 324 325 304
f 304 325 305
f 304 305 284
f 284 305 285
f 284 285 264
f 264 285 265
f 264 265 244
f 244 265 245
f 244 245 224
f 224 245 225
f 224 225 204
f 204 225 205
f 204 205 184
f 184 205 185
f 184 185 164
f 164 185 165
f 164 165 144
f 144 165 145
f 144 145 124
f 124 145 125
f 124 125 104
f 104 125 105
f 104 105 84
f 84 105 85
f 84 85 64
f 64 85 65
f 64 65 44
f 44 65 45
f 44 45 24
f 24 45 25
f 24 25 4
f 4 25 5
f 4 5 404
f 365 424 366
f 365 366 345
f 345 366 346
f 345 346 325
f 325 346 326
f 325 326 305
f 305 326 306
f 305 306 285
f 285 306 286
f 285 286 265
f 265 286 266
f 265 266 245
f 245 266 246
f 245 246 225
f 225 246 226
f 225 226 205
f 205 226 206
f 205 206 185
f 185 206 186
f 185 186 165
f 165 186 166
f 165 166 145
f 145 166 146
f 145 146 125
f 125 146 126
f 125 126 105
f 105 126 106
f 105 106 85
f 85 106 86
f 85 86 65
f 65 86 66
f 65 66 45
f 45 66 46
f 45 46 25
f 25 46 26
f 25 26 5
f 5 26 6
f 5 6 405
f 366 425 367
f 366 367 346
f 346 367 347
f 346 347 326
f 326 347 327
f 326 327 306
f 306 327 307
f 306 307 286
f 286 307 287
f 286 287 266
f 266 287 267
f 266 267 246
f 246 267 247
f 246 247 226
f 226 247 227
f 226 227 206
f 206 227 207
f 206 207 186
f 186 207 187
f 186 187 166
f 166 187 167
f 166 167 146
f 146 167 147
f 146 147 126
f 126 147 127
f 126 127 106
f 106 127 107
f 106 107 86
f 86 107 87
f 86 87 66
f 66 87 67
f 66 67 46
f 46 67 47
f 46 47 26
f 26 47 27
f 26 27 6
f 6 27 7
f 6 7 406
f 367 426 368
f 367 368 347
f 347 368 348
f 347 348 327
f 327 348 328
f 327 328 307
f 307 328 308
f 307 308 287
f 287 308 288
f 287 288 267
f 267 288 268
f 267 268 247
f 247 268 248
f 247 248 227
f 227 248 228
f 227 228 207
f 207 228 208
f 207 208 187
f 187 208 188
f 187 188 167
f 167 188 168
f 167 168 147
f 147 168 148
f 147 148 127
f 127 148 128
f 127 128 107
f 107 128 108
f 107 108 87
f 87 108 88
f 87 88 67
f 67 88 68
f 67 68 47
f 47 68 48
f 47 48 27
f 27 48 28
f 27 28 7
f 7 28 8
f 7 8 407
f 368 427 369
f 368 369 348
f 348 369 349
f 348 349 328
f 328 349 329
f 328 329 308
f 308 329 309
f 308 309 288
f 288 309 289
f 288 289 268
f 268 289 269
f 268 269 248
f 248 269 249
f 248 249 228
f 228 249 229
f 228 229 208
f 208 229 209
f 208 209 188
f 188 209 189
f 188 189 168
f 168 189 169
f 168 169 148
f 148 169 149
f 148 149 128
f 128 149 129
f 128 129 108
f 108 129 109
f 108 109 88
f 88 109 89
f 88 89 68
f 68 89 69
f 68 69 48
f 48 69 49
f 48 49 28
f 28 49 29
f 28 29 8
f 8 29 9
f 8 9 408
f 369 428 370
f 369 370 349
f 349 370 350
f 349 350 329
f 329 350 330
f 329 330 309
f 309 330 310
f 309 310 289
f 289 310 290
f 289 290 269
f 269 290 270
f 269 270 249
f 249 270 250
f 249 250 229
f 229 250 230
f 229 230 209
f 209 230 210
f 209 210 189
f 189 210 190
f 189 190 169
f 169 190 170
f 169 170 149
f 149 170 150
f 149 150 129
f 129 150 130
f 129 130 109
f 109 130 110
f 109 110 89
f 89 110 90
f 89 90 69
f 69 90 70
f 69 70 49
f 49 70 50
f 49 50 29
f 29 50 30
f 29 30 9
f 9 30 10
f 9 10 409
f 370 429 371
f 370 371 350
f 350 371 351
f 350 351 330
f 330 351 331
f 330 331 310
f 310 331 311
f 310 311 290
f 290 311 291
f 290 291 270
f 270 291 271
f 270 271 250
f 250 271 251
f 250 251 230
f 230 251 231
f 230 231 210
f 210 231 211
f 210 211 190
f 190 211 191
f 190 191 170
f 170 191 171
f 170 171 150
f 150 171 151
f 150 151 130
f 130 151 131
f 130 131 110
f 110 131 111
f 110 111 90
f 90 111 91
f 90 91 70
f 70 91 71
f 70 71 50
f 50 71 51
f 50 51 30
f 30 51 31
f 30 31 10
f 10 31 11
f 10 11 410
f 371 430 372
f 371 372 351
f 351 372 352
f 351 352 331
f 331 352 332
f 331 332 311
f 311 332 312
f 311 312 291
f 291 312 292
f 291 292 271
f 271 292 272
f 271 272 251
f 251 272 252
f 251 252 231
f 231 252 232
f 231 232 211
f 211 232 212
f 211 212 191
f 191 212 192
f 191 192 171
f 171 192 172
f 171 172 151
f 151 172 152
f 151 152 131
f 131 152 132
f 131 132 111
f 111 132 112
f 111 112 91
f 91 112 92
f 91 92 71
f 71 92 72
f 71 72 51
f 51 72 52
f 51 52 31
f 31 52 32
f 31 32 11
f 11 32 12
f 11 12 411
f 372 431 373
f 372 373 352
f 352 373 353
f 352 353 332
f 332 353 333
f 332 333 312
f 312 333 313
f 312 313 292
f 292 313 293
f 292 293 272
f 272 293 273
f 272 273 252
f 252 273 253
f 252 253 232
f 232 253 233
f 232 233 212
f 212 233 213
f 212 213 192
f 192 213 193
f 192 193 172
f 172 193 173
f 172 173 152
f 152 173 153
f 152 153 132
f 132 153 133
f 132 133 112
f 112 133 113
f 112 113 92
f 92 113 93
f 92 93 72
f 72 93 73
f 72 73 52
f 52 73 53
f 52 53 32
f 32 53 33
f 32 33 12
f 12 33 13
f 12 13 412
f 373 432 374
f 373 374 353
f 353 374 354
f 353 354 333
f 333 354 334
f 333 334 313
f 313 334 314
f 313 314 293
f 293 314 294
f 293 294 273
f 273 294 274
f 273 274 253
f 253 274 254
f 253 254 233
f 233 254 234
f 233 234 213
f 213 234 214
f 213 214 193
f 193 214 194
f 193 194 173
f 173 194 174
f 173 174 153
f 153 174 154
f 153 154 133
f 133 154 134
f 133 134 113
f 113 134 114
f 113 114 93
f 93 114 94
f 93 94 73
f 73 94 74
f 73 74 53
f 53 74 54
f 53 54 33
f 33 54 34
f 33 34 13
f 13 34 14
f 13 14 413
f 374 433 375
f 374 375 354
f 354 375 355
f 354 355 334
f 334 355 335
f 334 335 314
f 314 335 315
f 314 315 294
f 294 315 295
f 294 295 274
f 274 295 275
f 274 275 254
f 254 275 255
f 254 255 234
f 234 255 235
f 234 235 214
f 214 235 215
f 214 215 194
f 194 215 195
f 194 195 174
f 174 195 175
f 174 175 154
f 154 175 155
f 154 155 134
f 134 155 135
f 134 135 114
f 114 135 115
f 114 115 94
f 94 115 95
f 94 95 74
f 74 95 75
f 74 75 54
f 54 75 55
f 54 55 34
f 34 55 35
f 34 35 14
f 14 35 15
f 14 15 414
f 375 434 376
f 375 376 355
f 355 376 356
f 355 356 335
f 335 356 336
f 335 336 315
f 315 336 316
f 315 316 295
f 295 316 296
f 295 296 275
f 275 296 276
f 275 276 255
f 255 276 256
f 255 256 235
f 235 256 236
f 235 236 215
f 215 236 216
f 215 216 195
f 195 216 196
f 195 196 175
f 175 196 176
f 175 176 155
f 155 176 156
f 155 156 135
f 135 156 136
f 135 136 115
f 115 136 116
f 115 116 95
f 95 116 96
f 95 96 75
f 75 96 76
f 75 76 55
f 55 76 56
f 55 56 35
f 35 56 36
f 35 36 15
f 15 36 16
f 15 16 415
f 376 435 377
f 376 377 356
f 356 377 357
f 356 357 336
f 336 357 337
f 336 337 316
f 316 337 317
f 316 317 296
f 296 317 297
f 296 297 276
f 276 297 277
f 276 277 256
f 256 277 257
f 256 257 236
f 236 257 237
f 236 237 216
f 216 237 217
f 216 217 196
f 196 217 197
f 196 197 176
f 176 197 177
f 176 177 156
f 156 177 157
f 156 157 136
f 136 157 137
f 136 137 116
f 116 137 117
f 116 117 96
f 96 117 97
f 96 97 76
f 76 97 77
f 76 77 56
f 56 77 57
f 56 57 36
f 36 57 37
f 36 37 16
f 16 37 17
f 16 17 416
f 377 436 378
f 377 378 357
f 357 378 358
f 357 358 337
f 337 358 338
f 337 338 317
f 317 338 318
f 317 318 297
f 297 318 298
f 297 298 277
f 277 298 278
f 277 278 257
f 257 278 258
f 257 258 237
f 237 258 238
f 237 238 217
f 217 238 218
f 217 218 197
f 197 218 198
f 197 198 177
f 177 198 178
f 177 178 157
f 157 178 158
f 157 158 137
f 137 158 138
f 137 138 117
f 117 138 118
f 117 118 97
f 97 118 98
f 97 98 77
f 77 98 78
f 77 78 57
f 57 78 58
f 57 58 37
f 37 58 38
f 37 38 17
f 17 38 18
f 17 18 417
f 378 437 379
f 378 379 358
f 358 379 359
f 358 359 338
f 338 359 339
f 338 339 318
f 318 339 319
f 318 319 298
f 298 319 299
f 298 299 278
f 278 299 279
f 278 279 258
f 258 279 259
f 258 259 238
f 238 259 239
f 238 239 218
f 218 239 219
f 218 219 198
f 198 219 199
f 198 199 178
f 178 199 179
f 178 179 158
f 158 179 159
f 158 159 138
f 138 159 139
f 138 139 118
f 118 139 119
f 118 119 98
f 98 119 99
f 98 99 78
f 78 99 79
f 78 79 58
f 58 79 59
f 58 59 38
f 38 59 39
f 38 39 18
f 18 39 19
f 18 19 418
f 379 438 380
f 379 380 359
f 359 380 360
f 359 360 339
f 339 360 340
f 339 340 319
f 319 340 320
f 319 320 299
f 299 320 300
f 299 300 279
f 279 300 280
f 279 280 259
f 259 280 260
f 259 260 239
f 239 260 240
f 239 240 219
f 219 240 220
f 219 220 199
f 199 220 200
f 199 200 179
f 179 200 180
f 179 180 159
f 159 180 160
f 159 160 139
f 139 160 140
f 139 140 119
f 119 140 120
f 119 120 99
f 99 120 100
f 99 100 79
f 79 100 80
f 79 80 59
f 59 80 60
f 59 60 39
f 39 60 40
f 39 40 19
f 19 40 20
f 19 20 419
f 380 439 401
f 380 401 360
f 360 401 400
f 360 400 340
f 340 400 399
f 340 399 320
f 320 399 398
f 320 398 300
f 300 398 397
f 300 397 280
f 280 397 396
f 280 396 260
f 260 396 395
f 260 395 240
f 240 395 394
f 240 394 220
f 220 394 393
f 220 393 200
f 200 393 392
f 200 392 180
f 180 392 391
f 180 391 160
f 160 391 390
f 160 390 140
f 140 390 389
f 140 389 120
f 120 389 388
f 120 388 100
f 100 388 387
f 100 387 80
f 80 387 386
f 80 386 60
f 60 386 385
f 60 385 40
f 40 385 383
f 40 383 20
f 20 383 384
f 20 384 420
