# Cube
v 0.5 -0.5 0.5
v -0.5 -0.5 0.5
v 0.5 0.5 0.5
v -0.5 0.5 0.5
v 0.5 0.5 -0.5
v -0.5 0.5 -0.5
v 0.5 -0.5 -0.5
v -0.5 -0.5 -0.5
v 0.5 0.5 0.5
v -0.5 0.5 0.5
v 0.5 0.5 -0.5
v -0.5 0.5 -0.5
v 0.5 -0.5 -0.5
v -0.5 -0.5 0.5
v -0.5 -0.5 -0.5
v 0.5 -0.5 0.5
v -0.5 -0.5 0.5
v -0.5 0.5 -0.5
v -0.5 -0.5 -0.5
v -0.5 0.5 0.5
v 0.5 -0.5 -0.5
v 0.5 0.5 0.5
v 0.5 -0.5 0.5
v 0.5 0.5 -0.5
g submesh_0
f 2 1 4
f 4 1 3
f 10 9 6
f 6 9 5
f 12 11 8
f 8 11 7
f 15 13 14
f 14 13 16
f 19 17 18
f 18 17 20
f 23 21 22
f 22 21 24
