# Cylinder
v -0.4755285680294037 -1.0 -0.1545085906982422
v -0.4045087695121765 -1.0 -0.2938928008079529
v -0.2938928008079529 -1.0 -0.4045087397098541
v -0.154508575797081 -1.0 -0.4755285084247589
v 0.0 -1.0 -0.5000002384185791
v 0.154508575797081 -1.0 -0.4755284786224365
v 0.2938927412033081 -1.0 -0.40450865030288696
v 0.4045086205005646 -1.0 -0.2938927114009857
v 0.47552838921546936 -1.0 -0.1545085310935974
v 0.5000001192092896 -1.0 0.0
v 0.47552838921546936 -1.0 0.1545085310935974
v 0.4045085906982422 -1.0 0.29389268159866333
v 0.29389268159866333 -1.0 0.4045085608959198
v 0.1545085310935974 -1.0 0.4755283296108246
v 1.4901161193847656e-08 -1.0 0.5000000596046448
v -0.15450848639011383 -1.0 0.4755282998085022
v -0.29389262199401855 -1.0 0.4045085310935974
v -0.404508501291275 -1.0 0.29389265179634094
v -0.4755282700061798 -1.0 0.15450850129127502
v -0.5 -1.0 0.0
v -0.4755285680294037 1.0 -0.1545085906982422
v -0.4045087695121765 1.0 -0.2938928008079529
v -0.2938928008079529 1.0 -0.4045087397098541
v -0.154508575797081 1.0 -0.4755285084247589
v 0.0 1.0 -0.5000002384185791
v 0.154508575797081 1.0 -0.4755284786224365
v 0.2938927412033081 1.0 -0.40450865030288696
v 0.4045086205005646 1.0 -0.2938927114009857
v 0.47552838921546936 1.0 -0.1545085310935974
v 0.5000001192092896 1.0 0.0
v 0.47552838921546936 1.0 0.1545085310935974
v 0.4045085906982422 1.0 0.29389268159866333
v 0.29389268159866333 1.0 0.4045085608959198
v 0.1545085310935974 1.0 0.4755283296108246
v 1.4901161193847656e-08 1.0 0.5000000596046448
v -0.15450848639011383 1.0 0.4755282998085022
v -0.29389262199401855 1.0 0.4045085310935974
v -0.404508501291275 1.0 0.29389265179634094
v -0.4755282700061798 1.0 0.15450850129127502
v -0.5 1.0 0.0
v 0.0 -1.0 0.0
v 0.0 1.0 0.0
v -0.4755285680294037 1.0 -0.1545085906982422
v -0.4755285680294037 -1.0 -0.1545085906982422
v -0.4045087695121765 -1.0 -0.2938928008079529
v -0.4755285680294037 -1.0 -0.1545085906982422
v -0.2938928008079529 -1.0 -0.4045087397098541
v 0.0 -1.0 0.0
v -0.154508575797081 -1.0 -0.4755285084247589
v 0.0 -1.0 0.0
v 0.0 -1.0 -0.5000002384185791
v 0.0 -1.0 0.0
v 0.154508575797081 -1.0 -0.4755284786224365
v 0.0 -1.0 0.0
v 0.2938927412033081 -1.0 -0.40450865030288696
v 0.0 -1.0 0.0
v 0.4045086205005646 -1.0 -0.2938927114009857
v 0.0 -1.0 0.0
v 0.47552838921546936 -1.0 -0.1545085310935974
v 0.0 -1.0 0.0
v 0.5000001192092896 -1.0 0.0
v 0.0 -1.0 0.0
v 0.47552838921546936 -1.0 0.1545085310935974
v 0.0 -1.0 0.0
v 0.4045085906982422 -1.0 0.29389268159866333
v 0.0 -1.0 0.0
v 0.29389268159866333 -1.0 0.4045085608959198
v 0.0 -1.0 0.0
v 0.1545085310935974 -1.0 0.4755283296108246
v 0.0 -1.0 0.0
v 1.4901161193847656e-08 -1.0 0.5000000596046448
v 0.0 -1.0 0.0
v -0.15450848639011383 -1.0 0.4755282998085022
v 0.0 -1.0 0.0
v -0.29389262199401855 -1.0 0.4045085310935974
v 0.0 -1.0 0.0
v -0.404508501291275 -1.0 0.29389265179634094
v 0.0 -1.0 0.0
v -0.4755282700061798 -1.0 0.15450850129127502
v 0.0 -1.0 0.0
v -0.5 -1.0 0.0
v 0.0 -1.0 0.0
v -0.4755285680294037 -1.0 -0.1545085906982422
v 0.0 -1.0 0.0
v -0.4755285680294037 1.0 -0.1545085906982422
v -0.4045087695121765 1.0 -0.2938928008079529
v 0.0 1.0 0.0
v -0.2938928008079529 1.0 -0.4045087397098541
v 0.0 1.0 0.0
v -0.154508575797081 1.0 -0.4755285084247589
v 0.0 1.0 0.0
v 0.0 1.0 -0.5000002384185791
v 0.0 1.0 0.0
v 0.154508575797081 1.0 -0.4755284786224365
v 0.0 1.0 0.0
v 0.2938927412033081 1.0 -0.40450865030288696
v 0.0 1.0 0.0
v 0.4045086205005646 1.0 -0.2938927114009857
v 0.0 1.0 0.0
v 0.47552838921546936 1.0 -0.1545085310935974
v 0.0 1.0 0.0
v 0.5000001192092896 1.0 0.0
v 0.0 1.0 0.0
v 0.47552838921546936 1.0 0.1545085310935974
v 0.0 1.0 0.0
v 0.4045085906982422 1.0 0.29389268159866333
v 0.0 1.0 0.0
v 0.29389268159866333 1.0 0.4045085608959198
v 0.0 1.0 0.0
v 0.1545085310935974 1.0 0.4755283296108246
v 0.0 1.0 0.0
v 1.4901161193847656e-08 1.0 0.5000000596046448
v 0.0 1.0 0.0
v -0.15450848639011383 1.0 0.4755282998085022
v 0.0 1.0 0.0
v -0.29389262199401855 1.0 0.4045085310935974
v 0.0 1.0 0.0
v -0.404508501291275 1.0 0.29389265179634094
v 0.0 1.0 0.0
v -0.4755282700061798 1.0 0.15450850129127502
v 0.0 1.0 0.0
v -0.5 1.0 0.0
v 0.0 1.0 0.0
v -0.4755285680294037 1.0 -0.1545085906982422
g submesh_0
f 46 45 41
f 45 47 48
f 47 49 50
f 49 51 52
f 51 53 54
f 53 55 56
f 55 57 58
f 57 59 60
f 59 61 62
f 61 63 64
f 63 65 66
f 65 67 68
f 67 69 70
f 69 71 72
f 71 73 74
f 73 75 76
f 75 77 78
f 77 79 80
f 79 81 82
f 81 83 84
f 86 85 42
f 88 86 87
f 90 88 89
f 92 90 91
f 94 92 93
f 96 94 95
f 98 96 97
f 100 98 99
f 102 100 101
f 104 102 103
f 106 104 105
f 108 106 107
f 110 108 109
f 112 110 111
f 114 112 113
f 116 114 115
f 118 116 117
f 120 118 119
f 122 120 121
f 124 122 123
f 43 44 20
f 43 20 40
f 40 20 19
f 40 19 39
f 39 19 18
f 39 18 38
f 38 18 17
f 38 17 37
f 37 17 16
f 37 16 36
f 36 16 15
f 36 15 35
f 35 15 14
f 35 14 34
f 34 14 13
f 34 13 33
f 33 13 12
f 33 12 32
f 32 12 11
f 32 11 31
f 31 11 10
f 31 10 30
f 30 10 9
f 30 9 29
f 29 9 8
f 29 8 28
f 28 8 7
f 28 7 27
f 27 7 6
f 27 6 26
f 26 6 5
f 26 5 25
f 25 5 4
f 25 4 24
f 24 4 3
f 24 3 23
f 23 3 2
f 23 2 22
f 22 2 1
f 22 1 21
